G04*
G04 #@! TF.GenerationSoftware,Altium Limited,Altium Designer,24.3.1 (35)*
G04*
G04 Layer_Color=8421504*
%FSLAX25Y25*%
%MOIN*%
G70*
G04*
G04 #@! TF.SameCoordinates,A7121B57-4D76-4085-BD87-85E80D54BB1B*
G04*
G04*
G04 #@! TF.FilePolarity,Positive*
G04*
G01*
G75*
%ADD17C,0.06000*%
%ADD18R,0.28347X0.02992*%
%ADD19R,0.28347X0.02992*%
%ADD20R,0.05512X0.06299*%
%ADD21R,0.04724X0.07087*%
%ADD22R,0.03150X0.01772*%
D17*
X-64000Y144500D02*
D03*
X-46000D02*
D03*
X-55000D02*
D03*
D18*
X39824Y1400D02*
D03*
Y-3600D02*
D03*
Y-8600D02*
D03*
Y-13600D02*
D03*
Y-18600D02*
D03*
Y-23600D02*
D03*
Y-28600D02*
D03*
Y-33600D02*
D03*
Y-64600D02*
D03*
Y-69600D02*
D03*
Y-74600D02*
D03*
Y-79600D02*
D03*
Y-84600D02*
D03*
Y-89600D02*
D03*
Y-94600D02*
D03*
Y-99600D02*
D03*
D19*
X40233Y100500D02*
D03*
Y95500D02*
D03*
Y90500D02*
D03*
Y85500D02*
D03*
Y48700D02*
D03*
Y43700D02*
D03*
Y38700D02*
D03*
Y33700D02*
D03*
D20*
X8589Y51700D02*
D03*
X20400D02*
D03*
X7901Y83600D02*
D03*
X19712D02*
D03*
D21*
X7704Y62727D02*
D03*
X19515D02*
D03*
X7704Y73361D02*
D03*
X19515D02*
D03*
D22*
X-17650Y-60241D02*
D03*
Y-57091D02*
D03*
Y-53942D02*
D03*
Y-50792D02*
D03*
X-11350D02*
D03*
Y-53942D02*
D03*
Y-57091D02*
D03*
Y-60241D02*
D03*
X-17650Y-116191D02*
D03*
Y-113041D02*
D03*
Y-109892D02*
D03*
Y-106742D02*
D03*
X-11350D02*
D03*
Y-109892D02*
D03*
Y-113041D02*
D03*
Y-116191D02*
D03*
X-17650Y-4291D02*
D03*
Y-1141D02*
D03*
Y2008D02*
D03*
Y5158D02*
D03*
X-11350D02*
D03*
Y2008D02*
D03*
Y-1141D02*
D03*
Y-4291D02*
D03*
M02*
