M48
;Layer_Color=9474304
;FILE_FORMAT=4:4
METRIC,LZ
;TYPE=PLATED
T01F00S00C0.3000
T02F00S00C0.4000
T03F00S00C0.5999
T04F00S00C0.7112
T05F00S00C0.8000
T06F00S00C1.0000
T07F00S00C1.2700
T08F00S00C1.6600
T09F00S00C4.1000
;TYPE=NON_PLATED
T10F00S00C3.2500
%
T01
X-0017272Y-0025654
X-0012192
X-0014732Y-0020574
X-0019812
Y-0010414
X-0014732
X-0009652
X-0012192Y-0015494
X-0017272Y-0005334
X0018288
X0020828Y-0020574
Y-0030734
X0018288Y0004826
X0013208
X0008128
X0015748Y0009906
X0020828
X0018288Y0025146
X0020828Y0030226
X0005588
X-0009652
X-0014732
X-0019812
X-0017272Y0025146
X-0012192
X-0009652Y0020066
X-0014732
X-0019812
X-00120142Y00089916
X-00098552Y00054356
X-0009652Y-0000254
X-00135422Y00015708
X-0002032Y0004826
X0000508Y0009906
T02
X00060198Y-00129794
X00069596Y-00105664
X00058517Y-00041134
X00144526Y-00046482
X00144018Y-0007239
X00127254Y-00105918
X00124206Y-0013081
X00144018Y-0016383
Y-00188468
X00144618Y-0021396
X00143829Y-00239587
X00143752Y-00020795
X00143764Y00002794
X00058166Y00003302
X00056388Y0007782
X00056199Y00086933
X00056134Y00098552
Y0010795
X0003683Y00129126
X00007366Y0013081
X-00006096Y0017272
X0Y00212852
X00036012Y00214828
X0005588Y00235712
Y0024892
X00054974Y00267168
X00066294Y00202946
X-00116332Y00345694
T03
X-00200914Y-00158336
X-00180914
X-00160914
Y-00138336
X-00180914
X-00200914
T04
X00094996Y0017272
X00170434Y00213614
T05
X00096652Y00387096
X00116652
X00136652
T06
X-00226314Y-00288036
Y-00262636
Y-00237236
Y-00211836
Y-00186436
Y-00161036
Y-00135636
Y-00110236
Y-00084836
Y-00059436
Y-00034036
X-00073914
Y-00059436
Y-00084836
Y-00110236
Y-00135636
Y-00161036
Y-00186436
Y-00211836
Y-00237236
Y-00262636
Y-00288036
X-00140114Y-00285735
X-00160114
X-00200914Y-00262636
X-00103914Y-00224536
Y-00199136
Y-00173736
Y-00148336
Y-00122936
X-00073914Y-00008636
Y00016764
Y00042164
Y00067564
Y00092964
Y00118364
Y00143764
Y00169164
X-00099314
X-00124714
X-00150114
X-00175514
X-00200914
X-00226314
Y00143764
Y00118364
Y00092964
Y00067564
Y00042164
Y00016764
Y-00008636
Y00194564
Y00219964
Y00245364
Y00270764
Y00296164
X-00073914
Y00270764
Y00245364
Y00219964
Y00194564
T07
X0002032Y-0033782
Y-0031242
Y-0028702
Y-0026162
Y-0023622
Y-00195707
Y-00170307
Y-00144907
Y-00119507
Y-00094107
Y-00053594
Y-00028194
Y-00002794
Y00022606
Y00048006
T08
X00075652Y00387096
X00157652
T09
X-0021082Y-0036957
X0021082Y-0036703
Y0036703
X-0021082
T10
X00200152Y-00265684
Y-00151384
Y-00098044
Y00016256
X00201192Y00066548
Y00142748
Y0019812
Y0027432
M30
