G04*
G04 #@! TF.GenerationSoftware,Altium Limited,Altium Designer,24.3.1 (35)*
G04*
G04 Layer_Physical_Order=1*
G04 Layer_Color=255*
%FSLAX44Y44*%
%MOMM*%
G71*
G04*
G04 #@! TF.SameCoordinates,D61E4413-AD1B-46AA-9FCE-7A96C032C263*
G04*
G04*
G04 #@! TF.FilePolarity,Positive*
G04*
G01*
G75*
%ADD15C,0.2540*%
%ADD17R,0.8000X0.4500*%
%ADD18C,1.5240*%
%ADD19R,7.2000X0.7600*%
%ADD20R,7.2000X0.7600*%
%ADD21R,1.4000X1.6000*%
%ADD22R,1.2000X1.8000*%
%ADD46C,0.7620*%
%ADD47C,0.3810*%
%ADD48R,1.5080X1.5080*%
%ADD49R,1.5080X1.5080*%
%ADD50C,1.6764*%
G04:AMPARAMS|DCode=51|XSize=1.508mm|YSize=1.508mm|CornerRadius=0mm|HoleSize=0mm|Usage=FLASHONLY|Rotation=180.000|XOffset=0mm|YOffset=0mm|HoleType=Round|Shape=Octagon|*
%AMOCTAGOND51*
4,1,8,-0.7540,0.3770,-0.7540,-0.3770,-0.3770,-0.7540,0.3770,-0.7540,0.7540,-0.3770,0.7540,0.3770,0.3770,0.7540,-0.3770,0.7540,-0.7540,0.3770,0.0*
%
%ADD51OCTAGOND51*%

%ADD52C,1.5080*%
%ADD53C,1.1080*%
%ADD54R,1.3000X1.3000*%
%ADD55C,2.4900*%
%ADD56C,1.3000*%
%ADD57C,1.8000*%
%ADD58R,1.8000X1.8000*%
%ADD59C,0.5000*%
%ADD60C,1.2700*%
%ADD61C,6.0000*%
G36*
X202898Y398671D02*
X198329Y397186D01*
X193765Y394861D01*
X189622Y391850D01*
X186000Y388228D01*
X182989Y384085D01*
X180664Y379521D01*
X179081Y374650D01*
X178280Y369591D01*
Y368300D01*
X210820D01*
Y367030D01*
X212090D01*
Y334490D01*
X213381D01*
X218440Y335291D01*
X223311Y336874D01*
X227875Y339199D01*
X232018Y342210D01*
X235640Y345832D01*
X238651Y349975D01*
X239921Y352468D01*
X241191Y352163D01*
Y-352163D01*
X239921Y-352468D01*
X238651Y-349975D01*
X235640Y-345832D01*
X232018Y-342210D01*
X227875Y-339199D01*
X223311Y-336874D01*
X218440Y-335291D01*
X213381Y-334490D01*
X212090D01*
Y-367030D01*
X210820D01*
Y-368300D01*
X178280D01*
Y-369591D01*
X179081Y-374650D01*
X180664Y-379521D01*
X182989Y-384085D01*
X186000Y-388228D01*
X189622Y-391850D01*
X193765Y-394861D01*
X198329Y-397186D01*
X202898Y-398671D01*
X202697Y-399941D01*
X-195953D01*
X-196258Y-398671D01*
X-193765Y-397401D01*
X-189622Y-394390D01*
X-186000Y-390768D01*
X-182989Y-386625D01*
X-180664Y-382061D01*
X-179081Y-377190D01*
X-178280Y-372131D01*
Y-370840D01*
X-210820D01*
Y-369570D01*
X-212090D01*
Y-337030D01*
X-213381D01*
X-218440Y-337831D01*
X-223311Y-339414D01*
X-227875Y-341739D01*
X-232018Y-344750D01*
X-235640Y-348372D01*
X-238651Y-352515D01*
X-239921Y-355008D01*
X-241191Y-354703D01*
Y352163D01*
X-239921Y352468D01*
X-238651Y349975D01*
X-235640Y345832D01*
X-232018Y342210D01*
X-227875Y339199D01*
X-223311Y336874D01*
X-218440Y335291D01*
X-213381Y334490D01*
X-212090D01*
Y367030D01*
X-210820D01*
Y368300D01*
X-178280D01*
Y369591D01*
X-179081Y374650D01*
X-180664Y379521D01*
X-182989Y384085D01*
X-186000Y388228D01*
X-189622Y391850D01*
X-193765Y394861D01*
X-198329Y397186D01*
X-202898Y398671D01*
X-202697Y399941D01*
X65732D01*
X65997Y399067D01*
X66027Y398671D01*
X64008Y396652D01*
X62368Y394196D01*
X61238Y391468D01*
X60662Y388572D01*
Y385620D01*
X61238Y382724D01*
X62368Y379996D01*
X64008Y377540D01*
X66096Y375452D01*
X68552Y373812D01*
X71280Y372682D01*
X74176Y372106D01*
X77128D01*
X80024Y372682D01*
X82752Y373812D01*
X85208Y375452D01*
X87296Y377540D01*
X88936Y379996D01*
X89094Y380376D01*
X90339Y380624D01*
X91101Y379862D01*
X93163Y378672D01*
X95462Y378056D01*
X96536D01*
X149990Y324602D01*
Y268366D01*
X143368Y261744D01*
X102192D01*
X101516Y261610D01*
X63652D01*
Y250180D01*
X63652Y248930D01*
X63652D01*
Y248910D01*
X62618Y248339D01*
X62479Y248281D01*
X60920Y249840D01*
Y249923D01*
X60153Y251775D01*
X58735Y253193D01*
X56883Y253960D01*
X54878D01*
X53025Y253193D01*
X51607Y251775D01*
X50840Y249923D01*
Y247917D01*
X51607Y246065D01*
X53025Y244647D01*
X54878Y243880D01*
X55893D01*
X58186Y241587D01*
X57466Y240510D01*
X56883Y240752D01*
X54878D01*
X53025Y239985D01*
X51607Y238567D01*
X50840Y236714D01*
Y234709D01*
X51607Y232857D01*
X52466Y231998D01*
Y230811D01*
X52762Y229325D01*
X53604Y228064D01*
X57611Y224057D01*
X57125Y222884D01*
X40530D01*
X39897Y223892D01*
Y246164D01*
X55861Y262128D01*
X55977D01*
X57829Y262895D01*
X59247Y264313D01*
X60014Y266166D01*
Y268171D01*
X59247Y270023D01*
X57829Y271441D01*
X55977Y272208D01*
X53972D01*
X52119Y271441D01*
X50701Y270023D01*
X49934Y268171D01*
Y267189D01*
X34403Y251658D01*
X21900D01*
X20414Y251362D01*
X19154Y250520D01*
X-21035Y210331D01*
X-21877Y209071D01*
X-22173Y207584D01*
Y81026D01*
X-21877Y79539D01*
X-21035Y78279D01*
X-14274Y71518D01*
X-13014Y70676D01*
X-11527Y70380D01*
X29282D01*
X43399Y56263D01*
Y-40458D01*
X42226Y-40944D01*
X31677Y-30395D01*
X31860Y-29713D01*
Y-26675D01*
X31074Y-23740D01*
X29554Y-21108D01*
X27406Y-18960D01*
X24774Y-17441D01*
X21839Y-16654D01*
X18801D01*
X15866Y-17441D01*
X13234Y-18960D01*
X11086Y-21108D01*
X9567Y-23740D01*
X8780Y-26675D01*
Y-29713D01*
X9567Y-32648D01*
X11086Y-35280D01*
X13234Y-37428D01*
X15866Y-38948D01*
X18801Y-39734D01*
X21839D01*
X22521Y-39551D01*
X24393Y-41424D01*
X23736Y-42562D01*
X21839Y-42054D01*
X18801D01*
X15866Y-42840D01*
X15355Y-43135D01*
X-19628Y-8152D01*
X-19854Y-8001D01*
X-19469Y-6731D01*
X9428D01*
X9567Y-7248D01*
X11086Y-9880D01*
X13234Y-12028D01*
X15866Y-13548D01*
X18801Y-14334D01*
X21839D01*
X24774Y-13548D01*
X27406Y-12028D01*
X29554Y-9880D01*
X31074Y-7248D01*
X31860Y-4313D01*
Y-1275D01*
X31074Y1660D01*
X29554Y4292D01*
X27406Y6440D01*
X24774Y7959D01*
X21839Y8746D01*
X18801D01*
X15866Y7959D01*
X13234Y6440D01*
X11086Y4292D01*
X9567Y1660D01*
X9400Y1038D01*
X-11161D01*
X-11546Y2308D01*
X-11477Y2354D01*
X4890Y18721D01*
X9414D01*
X9567Y18152D01*
X11086Y15520D01*
X13234Y13372D01*
X15866Y11853D01*
X18801Y11066D01*
X21839D01*
X24774Y11853D01*
X27406Y13372D01*
X29554Y15520D01*
X31074Y18152D01*
X31860Y21087D01*
Y24125D01*
X31074Y27060D01*
X29554Y29692D01*
X27406Y31840D01*
X24774Y33359D01*
X21839Y34146D01*
X18801D01*
X15866Y33359D01*
X13234Y31840D01*
X11086Y29692D01*
X9567Y27060D01*
X9414Y26491D01*
X3281D01*
X1794Y26195D01*
X534Y25353D01*
X-15833Y8986D01*
X-21286D01*
Y9906D01*
X-21483Y10897D01*
X-22045Y11737D01*
X-22290Y11901D01*
Y11902D01*
X-22885Y12299D01*
X-23876Y12496D01*
X-28830D01*
Y13101D01*
X-30100D01*
Y17891D01*
X-35370D01*
Y12496D01*
X-38290D01*
Y17891D01*
X-43560D01*
Y13101D01*
X-44830D01*
Y12496D01*
X-49756D01*
X-50747Y12299D01*
X-51370Y11883D01*
Y11882D01*
X-51587Y11737D01*
X-52148Y10897D01*
X-52345Y9906D01*
Y6742D01*
X-63385Y-4298D01*
X-63407Y-4306D01*
X-64862Y-4155D01*
X-65848Y-2447D01*
X-67725Y-570D01*
X-70023Y757D01*
X-72587Y1444D01*
X-75241D01*
X-77805Y757D01*
X-80103Y-570D01*
X-81980Y-2447D01*
X-83307Y-4745D01*
X-83994Y-7309D01*
Y-9963D01*
X-83307Y-12527D01*
X-81980Y-14825D01*
X-80103Y-16702D01*
X-77805Y-18029D01*
X-75241Y-18716D01*
X-72587D01*
X-70023Y-18029D01*
X-67725Y-16702D01*
X-65848Y-14825D01*
X-64521Y-12527D01*
X-64519Y-12521D01*
X-62230D01*
X-60743Y-12225D01*
X-59483Y-11383D01*
X-53519Y-5418D01*
X-52345Y-5904D01*
Y-11171D01*
X-67435Y-26260D01*
X-67725Y-25970D01*
X-70023Y-24643D01*
X-72587Y-23956D01*
X-75241D01*
X-77805Y-24643D01*
X-80103Y-25970D01*
X-81980Y-27847D01*
X-83307Y-30145D01*
X-83994Y-32709D01*
Y-35363D01*
X-83307Y-37927D01*
X-81980Y-40225D01*
X-80103Y-42102D01*
X-77805Y-43429D01*
X-75241Y-44116D01*
X-72587D01*
X-70023Y-43429D01*
X-67725Y-42102D01*
X-65848Y-40225D01*
X-64521Y-37927D01*
X-63834Y-35363D01*
Y-33647D01*
X-47001Y-16814D01*
X-40017D01*
Y-20045D01*
X-70018Y-50046D01*
X-70023Y-50043D01*
X-72587Y-49356D01*
X-75241D01*
X-77805Y-50043D01*
X-80103Y-51370D01*
X-81980Y-53247D01*
X-83307Y-55545D01*
X-83994Y-58109D01*
Y-60763D01*
X-83307Y-63327D01*
X-81980Y-65625D01*
X-80103Y-67502D01*
X-77805Y-68829D01*
X-75241Y-69516D01*
X-72587D01*
X-70023Y-68829D01*
X-67725Y-67502D01*
X-65848Y-65625D01*
X-64521Y-63327D01*
X-63834Y-60763D01*
Y-58109D01*
X-64521Y-55545D01*
X-64524Y-55540D01*
X-33385Y-24401D01*
X-32543Y-23141D01*
X-32247Y-21654D01*
Y-16814D01*
X-23876D01*
X-22885Y-16617D01*
X-22445Y-16323D01*
X9861Y-48629D01*
X9567Y-49140D01*
X8780Y-52075D01*
Y-55113D01*
X9567Y-58048D01*
X11086Y-60680D01*
X13234Y-62828D01*
X15866Y-64348D01*
X18801Y-65134D01*
X21839D01*
X24774Y-64348D01*
X27406Y-62828D01*
X29554Y-60680D01*
X31074Y-58048D01*
X31860Y-55113D01*
Y-52075D01*
X31352Y-50178D01*
X32490Y-49521D01*
X33404Y-50434D01*
Y-148067D01*
X32490Y-148980D01*
X31352Y-148323D01*
X31860Y-146426D01*
Y-143388D01*
X31074Y-140453D01*
X29554Y-137821D01*
X27406Y-135673D01*
X24774Y-134153D01*
X21839Y-133367D01*
X18801D01*
X15866Y-134153D01*
X13234Y-135673D01*
X11086Y-137821D01*
X9567Y-140453D01*
X9400Y-141075D01*
X-11161D01*
X-11546Y-139805D01*
X-11477Y-139759D01*
X4890Y-123392D01*
X9414D01*
X9567Y-123961D01*
X11086Y-126593D01*
X13234Y-128741D01*
X15866Y-130260D01*
X18801Y-131047D01*
X21839D01*
X24774Y-130260D01*
X27406Y-128741D01*
X29554Y-126593D01*
X31074Y-123961D01*
X31860Y-121026D01*
Y-117988D01*
X31074Y-115053D01*
X29554Y-112421D01*
X27406Y-110273D01*
X24774Y-108753D01*
X21839Y-107967D01*
X18801D01*
X15866Y-108753D01*
X13234Y-110273D01*
X11086Y-112421D01*
X9567Y-115053D01*
X9414Y-115622D01*
X3281D01*
X1794Y-115918D01*
X534Y-116760D01*
X-15833Y-133127D01*
X-21286D01*
Y-132080D01*
X-21483Y-131089D01*
X-22045Y-130249D01*
X-22290Y-130085D01*
Y-130084D01*
X-22885Y-129687D01*
X-23876Y-129490D01*
X-28830D01*
Y-129012D01*
X-30100D01*
Y-124222D01*
X-35370D01*
Y-129490D01*
X-38290D01*
Y-124222D01*
X-43560D01*
Y-129012D01*
X-46100D01*
Y-124222D01*
X-51370D01*
X-52400Y-123641D01*
Y-102466D01*
X-52695Y-100979D01*
X-53537Y-99719D01*
X-64524Y-88732D01*
X-64521Y-88727D01*
X-63834Y-86163D01*
Y-83509D01*
X-64521Y-80945D01*
X-65848Y-78647D01*
X-67725Y-76770D01*
X-70023Y-75443D01*
X-72587Y-74756D01*
X-75241D01*
X-77805Y-75443D01*
X-80103Y-76770D01*
X-81980Y-78647D01*
X-83307Y-80945D01*
X-83994Y-83509D01*
Y-86163D01*
X-83307Y-88727D01*
X-81980Y-91025D01*
X-80103Y-92902D01*
X-77805Y-94229D01*
X-75241Y-94916D01*
X-72587D01*
X-70023Y-94229D01*
X-70018Y-94226D01*
X-60169Y-104075D01*
Y-116828D01*
X-61342Y-117314D01*
X-64524Y-114132D01*
X-64521Y-114127D01*
X-63834Y-111563D01*
Y-108909D01*
X-64521Y-106345D01*
X-65848Y-104047D01*
X-67725Y-102170D01*
X-70023Y-100843D01*
X-72587Y-100156D01*
X-75241D01*
X-77805Y-100843D01*
X-80103Y-102170D01*
X-81980Y-104047D01*
X-83307Y-106345D01*
X-83994Y-108909D01*
Y-111563D01*
X-83307Y-114127D01*
X-81980Y-116425D01*
X-80103Y-118302D01*
X-77805Y-119629D01*
X-75241Y-120316D01*
X-72587D01*
X-70023Y-119629D01*
X-70018Y-119626D01*
X-64741Y-124903D01*
Y-129054D01*
X-66011Y-129284D01*
X-67725Y-127570D01*
X-70023Y-126243D01*
X-72587Y-125556D01*
X-75241D01*
X-77805Y-126243D01*
X-80103Y-127570D01*
X-81980Y-129447D01*
X-83307Y-131745D01*
X-83994Y-134309D01*
Y-136963D01*
X-83307Y-139527D01*
X-81980Y-141825D01*
X-80103Y-143702D01*
X-77805Y-145029D01*
X-75241Y-145716D01*
X-72587D01*
X-70023Y-145029D01*
X-70018Y-145026D01*
X-53733Y-161311D01*
X-52473Y-162153D01*
X-50986Y-162449D01*
X-39462D01*
X-37976Y-162153D01*
X-36715Y-161311D01*
X-34781Y-159376D01*
X-34396Y-158800D01*
X-23876D01*
X-22885Y-158603D01*
X-22521Y-158360D01*
X9861Y-190742D01*
X9567Y-191253D01*
X8780Y-194188D01*
Y-197226D01*
X9567Y-200161D01*
X11086Y-202793D01*
X13234Y-204941D01*
X15866Y-206460D01*
X18801Y-207247D01*
X21839D01*
X24774Y-206460D01*
X27406Y-204941D01*
X29554Y-202793D01*
X31074Y-200161D01*
X31860Y-197226D01*
Y-194188D01*
X31074Y-191253D01*
X29554Y-188621D01*
X27406Y-186473D01*
X24774Y-184953D01*
X21839Y-184167D01*
X18801D01*
X15866Y-184953D01*
X15355Y-185248D01*
X-18648Y-151245D01*
X-19909Y-150403D01*
X-21286Y-150129D01*
Y-148844D01*
X9428D01*
X9567Y-149361D01*
X11086Y-151993D01*
X13234Y-154141D01*
X15866Y-155660D01*
X18801Y-156447D01*
X21839D01*
X23736Y-155939D01*
X24393Y-157077D01*
X22521Y-158950D01*
X21839Y-158767D01*
X18801D01*
X15866Y-159553D01*
X13234Y-161073D01*
X11086Y-163221D01*
X9567Y-165853D01*
X8780Y-168788D01*
Y-171826D01*
X9567Y-174761D01*
X11086Y-177393D01*
X13234Y-179541D01*
X15866Y-181061D01*
X18801Y-181847D01*
X21839D01*
X24774Y-181061D01*
X27406Y-179541D01*
X29554Y-177393D01*
X31074Y-174761D01*
X31860Y-171826D01*
Y-168788D01*
X31677Y-168106D01*
X42226Y-157557D01*
X43399Y-158043D01*
Y-335260D01*
X25199Y-353461D01*
X-33443D01*
X-84761Y-302142D01*
Y-299068D01*
X-83994Y-298116D01*
X-75184D01*
Y-288036D01*
X-72644D01*
Y-298116D01*
X-63834D01*
Y-294194D01*
X-62661Y-293708D01*
X-52945Y-303424D01*
X-51684Y-304266D01*
X-50198Y-304562D01*
X-39462D01*
X-37976Y-304266D01*
X-36715Y-303424D01*
X-34781Y-301489D01*
X-34481Y-301040D01*
X-23876D01*
X-22885Y-300843D01*
X-22445Y-300549D01*
X9861Y-332855D01*
X9567Y-333366D01*
X8780Y-336301D01*
Y-339339D01*
X9567Y-342274D01*
X11086Y-344906D01*
X13234Y-347054D01*
X15866Y-348573D01*
X18801Y-349360D01*
X21839D01*
X24774Y-348573D01*
X27406Y-347054D01*
X29554Y-344906D01*
X31074Y-342274D01*
X31860Y-339339D01*
Y-336301D01*
X31074Y-333366D01*
X29554Y-330734D01*
X27406Y-328586D01*
X24774Y-327066D01*
X21839Y-326280D01*
X18801D01*
X15866Y-327066D01*
X15355Y-327361D01*
X-18648Y-293358D01*
X-19909Y-292516D01*
X-21286Y-292242D01*
Y-290957D01*
X9428D01*
X9567Y-291474D01*
X11086Y-294106D01*
X13234Y-296254D01*
X15866Y-297773D01*
X18801Y-298560D01*
X21839D01*
X24774Y-297773D01*
X27406Y-296254D01*
X29554Y-294106D01*
X31074Y-291474D01*
X31860Y-288539D01*
Y-285501D01*
X31074Y-282566D01*
X29554Y-279934D01*
X27406Y-277786D01*
X24774Y-276266D01*
X21839Y-275480D01*
X18801D01*
X15866Y-276266D01*
X13234Y-277786D01*
X11086Y-279934D01*
X9567Y-282566D01*
X9400Y-283188D01*
X-11161D01*
X-11546Y-281918D01*
X-11477Y-281872D01*
X4890Y-265505D01*
X9414D01*
X9567Y-266074D01*
X11086Y-268706D01*
X13234Y-270854D01*
X15866Y-272374D01*
X18801Y-273160D01*
X21839D01*
X24774Y-272374D01*
X27406Y-270854D01*
X29554Y-268706D01*
X31074Y-266074D01*
X31860Y-263139D01*
Y-260101D01*
X31074Y-257166D01*
X29554Y-254534D01*
X27406Y-252386D01*
X24774Y-250867D01*
X21839Y-250080D01*
X18801D01*
X15866Y-250867D01*
X13234Y-252386D01*
X11086Y-254534D01*
X9567Y-257166D01*
X9414Y-257735D01*
X3281D01*
X1794Y-258031D01*
X534Y-258873D01*
X-15833Y-275240D01*
X-21286D01*
Y-274320D01*
X-21483Y-273329D01*
X-22045Y-272489D01*
X-22290Y-272325D01*
Y-272324D01*
X-22885Y-271927D01*
X-23876Y-271730D01*
X-28830D01*
Y-271125D01*
X-30100D01*
Y-266335D01*
X-35370D01*
Y-271730D01*
X-38290D01*
Y-266335D01*
X-43560D01*
Y-271125D01*
X-46100D01*
Y-266335D01*
X-49535D01*
Y-181530D01*
X-49831Y-180043D01*
X-50673Y-178783D01*
X-64524Y-164932D01*
X-64521Y-164927D01*
X-63834Y-162363D01*
Y-159709D01*
X-64521Y-157145D01*
X-65848Y-154847D01*
X-67725Y-152970D01*
X-70023Y-151643D01*
X-72587Y-150956D01*
X-75241D01*
X-77805Y-151643D01*
X-80103Y-152970D01*
X-81980Y-154847D01*
X-83307Y-157145D01*
X-83994Y-159709D01*
Y-162363D01*
X-83307Y-164927D01*
X-81980Y-167225D01*
X-80103Y-169102D01*
X-77805Y-170429D01*
X-75241Y-171116D01*
X-72587D01*
X-70023Y-170429D01*
X-70018Y-170426D01*
X-57305Y-183139D01*
Y-195756D01*
X-58575Y-196282D01*
X-64524Y-190332D01*
X-64521Y-190327D01*
X-63834Y-187763D01*
Y-185109D01*
X-64521Y-182545D01*
X-65848Y-180247D01*
X-67725Y-178370D01*
X-70023Y-177043D01*
X-72587Y-176356D01*
X-75241D01*
X-77805Y-177043D01*
X-80103Y-178370D01*
X-81980Y-180247D01*
X-83307Y-182545D01*
X-83994Y-185109D01*
Y-187763D01*
X-83307Y-190327D01*
X-81980Y-192625D01*
X-80103Y-194502D01*
X-77805Y-195829D01*
X-75241Y-196516D01*
X-72587D01*
X-70023Y-195829D01*
X-70018Y-195826D01*
X-64741Y-201103D01*
Y-205254D01*
X-66011Y-205484D01*
X-67725Y-203770D01*
X-70023Y-202443D01*
X-72587Y-201756D01*
X-75241D01*
X-77805Y-202443D01*
X-80103Y-203770D01*
X-81980Y-205647D01*
X-83307Y-207945D01*
X-83994Y-210509D01*
Y-213163D01*
X-83307Y-215727D01*
X-81980Y-218025D01*
X-80103Y-219902D01*
X-77805Y-221229D01*
X-75797Y-221767D01*
Y-223186D01*
X-75502Y-224673D01*
X-74691Y-225886D01*
X-74801Y-226444D01*
X-75096Y-227156D01*
X-75241D01*
X-77805Y-227843D01*
X-80103Y-229170D01*
X-81980Y-231047D01*
X-83307Y-233345D01*
X-83994Y-235909D01*
Y-238563D01*
X-83307Y-241127D01*
X-83304Y-241132D01*
X-97235Y-255063D01*
X-98077Y-256323D01*
X-98373Y-257810D01*
Y-304375D01*
X-98077Y-305861D01*
X-97235Y-307122D01*
X-39693Y-364664D01*
X-38432Y-365506D01*
X-36946Y-365802D01*
X28702D01*
X30189Y-365506D01*
X31449Y-364664D01*
X54603Y-341510D01*
X55445Y-340250D01*
X55741Y-338763D01*
Y-134260D01*
X57011Y-133734D01*
X57343Y-134067D01*
X58928Y-134723D01*
Y-129794D01*
Y-124865D01*
X57343Y-125521D01*
X57011Y-125854D01*
X55741Y-125328D01*
Y-46582D01*
X56797Y-45876D01*
X57247Y-46063D01*
Y-41134D01*
Y-36205D01*
X56797Y-36391D01*
X55741Y-35686D01*
Y-2292D01*
X56797Y-1586D01*
X56896Y-1627D01*
Y3302D01*
Y8231D01*
X56797Y8190D01*
X55741Y8896D01*
Y71679D01*
X56842Y72780D01*
X57390D01*
X59243Y73548D01*
X60661Y74965D01*
X61428Y76818D01*
Y78540D01*
X62612Y79031D01*
X62631Y79019D01*
X63193Y78179D01*
X64033Y77617D01*
X65024Y77420D01*
X139192D01*
X140183Y77617D01*
X141023Y78179D01*
X141585Y79019D01*
X141782Y80010D01*
Y103124D01*
X141585Y104115D01*
X141023Y104955D01*
X140732Y105150D01*
Y109728D01*
X102192D01*
X63652D01*
Y105262D01*
X63193Y104955D01*
X62631Y104115D01*
X62434Y103124D01*
Y102310D01*
X59864D01*
X59176Y103444D01*
X59358Y104046D01*
X60407Y105095D01*
X61063Y106680D01*
X51205D01*
X51861Y105095D01*
X52910Y104046D01*
X53150Y103251D01*
X52910Y102456D01*
X51861Y101407D01*
X51094Y99555D01*
Y97549D01*
X51861Y95697D01*
X53279Y94279D01*
X55132Y93512D01*
X57137D01*
X58989Y94279D01*
X59250Y94540D01*
X62434D01*
Y90347D01*
X59913D01*
X59054Y91206D01*
X57201Y91973D01*
X55196D01*
X53344Y91206D01*
X51926Y89788D01*
X51755Y89375D01*
X50510Y89127D01*
X40715Y98922D01*
Y124997D01*
X40929Y125324D01*
X41006Y125368D01*
X42276Y124624D01*
Y120778D01*
X61356D01*
Y141858D01*
X55701D01*
Y147787D01*
X58109D01*
Y168188D01*
X87347D01*
X87882Y167261D01*
X89537Y165606D01*
X91565Y164436D01*
X93826Y163830D01*
X96166D01*
X98427Y164436D01*
X100455Y165606D01*
X102110Y167261D01*
X103280Y169289D01*
X103886Y171550D01*
Y173890D01*
X103280Y176151D01*
X102110Y178179D01*
X100455Y179834D01*
X98427Y181004D01*
X96166Y181610D01*
X93826D01*
X91565Y181004D01*
X89537Y179834D01*
X87882Y178179D01*
X87347Y177252D01*
X58109D01*
Y197876D01*
X53454D01*
Y201804D01*
X59610D01*
Y220399D01*
X60783Y220885D01*
X62434Y219234D01*
Y212344D01*
X62631Y211353D01*
X63193Y210513D01*
X64033Y209951D01*
X65024Y209754D01*
X139192D01*
X140183Y209951D01*
X141023Y210513D01*
X141585Y211353D01*
X141782Y212344D01*
Y234696D01*
X141585Y235687D01*
X141023Y236527D01*
X140732Y236722D01*
Y241300D01*
X102192D01*
Y243840D01*
X140732D01*
Y248796D01*
X146050D01*
X148528Y249288D01*
X148869Y249517D01*
X149990Y248918D01*
Y145684D01*
X134478Y130172D01*
X102192D01*
X101516Y130038D01*
X63652D01*
Y118608D01*
X63652Y117358D01*
X63652D01*
Y117338D01*
X63652D01*
Y112268D01*
X102192D01*
X140732D01*
Y117338D01*
X140732Y117338D01*
X140880Y118547D01*
X141738Y119120D01*
X161042Y138424D01*
X162446Y140524D01*
X162690Y141751D01*
X163960Y141626D01*
Y14366D01*
X153664Y4070D01*
X149325Y-268D01*
X148249Y451D01*
X148804Y1792D01*
Y3796D01*
X148037Y5649D01*
X146619Y7067D01*
X144767Y7834D01*
X142761D01*
X142076Y7550D01*
X141163Y8160D01*
X141000Y8479D01*
X140823Y9373D01*
X140261Y10213D01*
X139421Y10775D01*
X138430Y10972D01*
X64262D01*
X63271Y10775D01*
X62431Y10213D01*
X61869Y9373D01*
X61708Y8560D01*
X61695Y8541D01*
X61182Y8169D01*
X60402Y7831D01*
X59436Y8231D01*
Y3302D01*
Y-1627D01*
X60402Y-1227D01*
X61672Y-1979D01*
Y-35611D01*
X60402Y-36459D01*
X59787Y-36205D01*
Y-41134D01*
Y-46063D01*
X60402Y-45808D01*
X61672Y-46657D01*
Y-90170D01*
X61869Y-91161D01*
X62431Y-92001D01*
X63271Y-92563D01*
X64262Y-92760D01*
X138430D01*
X139421Y-92563D01*
X140261Y-92001D01*
X140390Y-91808D01*
X148346D01*
X150498Y-91380D01*
X151768Y-92096D01*
Y-161910D01*
X150231Y-163447D01*
X149058Y-162960D01*
Y-162827D01*
X148291Y-160975D01*
X146873Y-159557D01*
X145021Y-158790D01*
X143015D01*
X142014Y-159205D01*
X141941Y-159208D01*
X140606Y-158455D01*
X140569Y-158267D01*
X140007Y-157427D01*
X139167Y-156865D01*
X138176Y-156668D01*
X64008D01*
X63017Y-156865D01*
X62177Y-157427D01*
X61615Y-158267D01*
X61418Y-159258D01*
Y-257810D01*
X61615Y-258801D01*
X62177Y-259641D01*
X63017Y-260203D01*
X64008Y-260400D01*
X138176D01*
X139167Y-260203D01*
X140007Y-259641D01*
X140129Y-259458D01*
X149606D01*
X152084Y-258966D01*
X154184Y-257562D01*
X162820Y-248926D01*
X164224Y-246826D01*
X164716Y-244348D01*
Y-216916D01*
Y-191262D01*
Y-164592D01*
Y-75438D01*
Y-50292D01*
Y-25908D01*
Y-3190D01*
X175012Y7106D01*
X176416Y9206D01*
X176908Y11684D01*
Y46188D01*
X178178Y46441D01*
X178607Y45405D01*
X180025Y43987D01*
X181610Y43331D01*
Y48260D01*
Y53189D01*
X180025Y52533D01*
X178607Y51115D01*
X178178Y50079D01*
X176908Y50332D01*
Y207516D01*
X177548Y208155D01*
X178718Y210183D01*
X179324Y212444D01*
Y214784D01*
X178718Y217045D01*
X177548Y219073D01*
X176908Y219712D01*
Y249388D01*
X178178Y249641D01*
X178607Y248605D01*
X180025Y247187D01*
X181610Y246531D01*
Y251460D01*
Y256389D01*
X180025Y255733D01*
X178607Y254315D01*
X178178Y253279D01*
X176908Y253532D01*
Y329692D01*
X176416Y332170D01*
X175012Y334270D01*
X132400Y376883D01*
X132886Y378056D01*
X145664D01*
X146009Y377540D01*
X148097Y375452D01*
X150552Y373812D01*
X153280Y372682D01*
X156176Y372106D01*
X159128D01*
X162024Y372682D01*
X164752Y373812D01*
X167208Y375452D01*
X169296Y377540D01*
X170936Y379996D01*
X172066Y382724D01*
X172642Y385620D01*
Y388572D01*
X172066Y391468D01*
X170936Y394196D01*
X169296Y396652D01*
X167276Y398671D01*
X167307Y399067D01*
X167572Y399941D01*
X202697D01*
X202898Y398671D01*
D02*
G37*
G36*
X32127Y218071D02*
X31739Y217683D01*
X30972Y215830D01*
Y213825D01*
X31739Y211973D01*
X33157Y210555D01*
X35010Y209788D01*
X37015D01*
X38867Y210555D01*
X39260Y210948D01*
X40530Y210422D01*
Y201804D01*
X45684D01*
Y197876D01*
X41029D01*
Y177252D01*
X28109D01*
Y185066D01*
X19569D01*
X11029D01*
Y177252D01*
X-3867D01*
X-5094Y177760D01*
X-7099D01*
X-8951Y176993D01*
X-10369Y175575D01*
X-11136Y173722D01*
Y171717D01*
X-10369Y169865D01*
X-8951Y168447D01*
X-7099Y167680D01*
X-5094D01*
X-3867Y168188D01*
X11029D01*
Y160597D01*
X19569D01*
X28109D01*
Y168188D01*
X41029D01*
Y147787D01*
X47931D01*
Y141858D01*
X42276D01*
Y132467D01*
X41452Y132126D01*
X41006Y132078D01*
X39685Y133399D01*
X37833Y134166D01*
X35828D01*
X33975Y133399D01*
X32626Y132050D01*
X32285Y132076D01*
X31356Y132399D01*
Y141858D01*
X12276D01*
Y134695D01*
X10609D01*
X10221Y135083D01*
X8368Y135850D01*
X6363D01*
X4511Y135083D01*
X3093Y133665D01*
X2326Y131812D01*
Y129808D01*
X3093Y127955D01*
X4511Y126537D01*
X6363Y125770D01*
X8368D01*
X10221Y126537D01*
X10609Y126925D01*
X12276D01*
Y120778D01*
X31356D01*
Y124700D01*
X32626Y125396D01*
X32811Y125279D01*
X32945Y125049D01*
Y97313D01*
X33241Y95827D01*
X34083Y94566D01*
X50862Y77788D01*
X49109Y76035D01*
X48267Y74775D01*
X47971Y73288D01*
Y64338D01*
X46798Y63852D01*
X33638Y77012D01*
X32378Y77854D01*
X30891Y78150D01*
X-9918D01*
X-14403Y82635D01*
Y205975D01*
X-6213Y214165D01*
X-5955Y214097D01*
X-5040Y213543D01*
Y211849D01*
X-4273Y209997D01*
X-2855Y208579D01*
X-1002Y207812D01*
X1002D01*
X2855Y208579D01*
X3243Y208967D01*
X10530D01*
Y201804D01*
X29610D01*
Y222884D01*
X10530D01*
Y216737D01*
X3243D01*
X2855Y217125D01*
X1002Y217892D01*
X-691D01*
X-1245Y218807D01*
X-1313Y219065D01*
X23510Y243888D01*
X32127D01*
Y218071D01*
D02*
G37*
%LPC*%
G36*
X-161222Y377190D02*
X-161290D01*
Y368300D01*
X-152400D01*
Y368368D01*
X-153092Y370952D01*
X-154430Y373268D01*
X-156322Y375160D01*
X-158638Y376498D01*
X-161222Y377190D01*
D02*
G37*
G36*
X-163830D02*
X-163898D01*
X-166482Y376498D01*
X-168798Y375160D01*
X-170690Y373268D01*
X-172028Y370952D01*
X-172720Y368368D01*
Y368300D01*
X-163830D01*
Y377190D01*
D02*
G37*
G36*
X-152400Y365760D02*
X-161290D01*
Y356870D01*
X-161222D01*
X-158638Y357562D01*
X-156322Y358900D01*
X-154430Y360792D01*
X-153092Y363108D01*
X-152400Y365692D01*
Y365760D01*
D02*
G37*
G36*
X-163830D02*
X-172720D01*
Y365692D01*
X-172028Y363108D01*
X-170690Y360792D01*
X-168798Y358900D01*
X-166482Y357562D01*
X-163898Y356870D01*
X-163830D01*
Y365760D01*
D02*
G37*
G36*
X-115502Y377190D02*
X-118178D01*
X-120762Y376498D01*
X-123078Y375160D01*
X-124970Y373268D01*
X-126308Y370952D01*
X-127000Y368368D01*
Y365692D01*
X-126308Y363108D01*
X-124970Y360792D01*
X-123078Y358900D01*
X-120762Y357562D01*
X-120471Y357484D01*
Y348683D01*
X-120605Y348549D01*
X-121372Y346697D01*
Y344692D01*
X-120605Y342839D01*
X-119187Y341421D01*
X-117334Y340654D01*
X-115330D01*
X-113477Y341421D01*
X-112059Y342839D01*
X-111292Y344692D01*
Y346697D01*
X-112059Y348549D01*
X-112701Y349191D01*
Y357688D01*
X-110602Y358900D01*
X-108710Y360792D01*
X-107372Y363108D01*
X-106680Y365692D01*
Y368368D01*
X-107372Y370952D01*
X-108710Y373268D01*
X-110602Y375160D01*
X-112918Y376498D01*
X-115502Y377190D01*
D02*
G37*
G36*
X209550Y365760D02*
X178280D01*
Y364469D01*
X179081Y359410D01*
X180664Y354539D01*
X182989Y349975D01*
X186000Y345832D01*
X189622Y342210D01*
X193765Y339199D01*
X198329Y336874D01*
X203200Y335291D01*
X208259Y334490D01*
X209550D01*
Y365760D01*
D02*
G37*
G36*
X-178280D02*
X-209550D01*
Y334490D01*
X-208259D01*
X-203200Y335291D01*
X-198329Y336874D01*
X-193765Y339199D01*
X-189622Y342210D01*
X-186000Y345832D01*
X-182989Y349975D01*
X-180664Y354539D01*
X-179081Y359410D01*
X-178280Y364469D01*
Y365760D01*
D02*
G37*
G36*
X-138362Y377190D02*
X-141038D01*
X-143622Y376498D01*
X-145938Y375160D01*
X-147830Y373268D01*
X-149168Y370952D01*
X-149860Y368368D01*
Y365692D01*
X-149168Y363108D01*
X-147830Y360792D01*
X-145938Y358900D01*
X-143622Y357562D01*
X-143585Y357552D01*
Y307312D01*
X-144855Y306694D01*
X-146050Y307189D01*
Y302260D01*
Y297331D01*
X-144855Y297826D01*
X-143585Y297208D01*
Y289306D01*
X-143289Y287819D01*
X-142447Y286559D01*
X-90499Y234611D01*
Y202612D01*
X-91769Y202359D01*
X-92247Y203515D01*
X-93665Y204933D01*
X-95250Y205589D01*
Y200660D01*
Y195731D01*
X-93665Y196387D01*
X-92247Y197805D01*
X-91769Y198961D01*
X-90499Y198708D01*
Y176400D01*
X-91769Y175874D01*
X-93125Y177230D01*
X-95423Y178557D01*
X-97987Y179244D01*
X-100641D01*
X-103205Y178557D01*
X-105503Y177230D01*
X-107380Y175353D01*
X-108707Y173055D01*
X-109394Y170491D01*
Y167837D01*
X-108707Y165273D01*
X-107380Y162975D01*
X-105503Y161098D01*
X-103205Y159771D01*
X-100641Y159084D01*
X-97987D01*
X-95423Y159771D01*
X-93125Y161098D01*
X-91769Y162454D01*
X-90499Y161928D01*
Y80264D01*
X-90203Y78777D01*
X-89361Y77517D01*
X-83994Y72150D01*
Y62524D01*
X-78954Y57484D01*
X-68874D01*
X-63834Y62524D01*
Y72604D01*
X-68874Y77644D01*
X-78500D01*
X-82729Y81873D01*
Y85728D01*
X-81459Y86254D01*
X-80103Y84898D01*
X-77805Y83571D01*
X-75241Y82884D01*
X-72587D01*
X-70023Y83571D01*
X-67725Y84898D01*
X-65848Y86775D01*
X-64521Y89073D01*
X-63834Y91637D01*
Y94291D01*
X-64521Y96855D01*
X-65848Y99153D01*
X-67725Y101030D01*
X-70023Y102357D01*
X-72587Y103044D01*
X-75241D01*
X-77805Y102357D01*
X-80103Y101030D01*
X-81459Y99674D01*
X-82729Y100200D01*
Y111128D01*
X-81459Y111654D01*
X-80103Y110298D01*
X-77805Y108971D01*
X-75241Y108284D01*
X-72587D01*
X-70023Y108971D01*
X-67725Y110298D01*
X-65848Y112175D01*
X-64521Y114473D01*
X-63834Y117037D01*
Y119691D01*
X-64521Y122255D01*
X-65848Y124553D01*
X-67725Y126430D01*
X-70023Y127757D01*
X-72587Y128444D01*
X-75241D01*
X-77805Y127757D01*
X-80103Y126430D01*
X-81459Y125074D01*
X-82729Y125600D01*
Y136528D01*
X-81459Y137054D01*
X-80103Y135698D01*
X-77805Y134371D01*
X-75241Y133684D01*
X-72587D01*
X-70023Y134371D01*
X-67725Y135698D01*
X-65848Y137575D01*
X-64521Y139873D01*
X-63834Y142437D01*
Y145091D01*
X-64521Y147655D01*
X-65848Y149953D01*
X-67725Y151830D01*
X-70023Y153157D01*
X-72587Y153844D01*
X-75241D01*
X-77805Y153157D01*
X-80103Y151830D01*
X-81459Y150474D01*
X-82729Y151000D01*
Y161928D01*
X-81459Y162454D01*
X-80103Y161098D01*
X-77805Y159771D01*
X-75241Y159084D01*
X-72587D01*
X-70023Y159771D01*
X-67725Y161098D01*
X-65848Y162975D01*
X-64521Y165273D01*
X-63834Y167837D01*
Y170491D01*
X-64521Y173055D01*
X-65848Y175353D01*
X-67725Y177230D01*
X-70023Y178557D01*
X-72587Y179244D01*
X-75241D01*
X-77805Y178557D01*
X-80103Y177230D01*
X-81459Y175874D01*
X-82729Y176400D01*
Y187328D01*
X-81459Y187854D01*
X-80103Y186498D01*
X-77805Y185171D01*
X-75241Y184484D01*
X-72587D01*
X-70023Y185171D01*
X-67725Y186498D01*
X-65848Y188375D01*
X-64521Y190673D01*
X-63834Y193237D01*
Y195891D01*
X-64521Y198455D01*
X-65848Y200753D01*
X-67725Y202630D01*
X-70023Y203957D01*
X-72587Y204644D01*
X-75241D01*
X-77805Y203957D01*
X-80103Y202630D01*
X-81459Y201274D01*
X-82729Y201800D01*
Y212728D01*
X-81459Y213254D01*
X-80103Y211898D01*
X-77805Y210571D01*
X-75241Y209884D01*
X-72587D01*
X-70023Y210571D01*
X-67725Y211898D01*
X-65848Y213775D01*
X-64521Y216073D01*
X-63834Y218637D01*
Y221291D01*
X-64521Y223855D01*
X-65848Y226153D01*
X-67725Y228030D01*
X-70023Y229357D01*
X-72587Y230044D01*
X-75241D01*
X-77805Y229357D01*
X-80103Y228030D01*
X-81459Y226674D01*
X-82729Y227200D01*
Y236220D01*
X-83025Y237707D01*
X-83867Y238967D01*
X-135815Y290915D01*
Y357552D01*
X-135778Y357562D01*
X-133462Y358900D01*
X-131570Y360792D01*
X-130232Y363108D01*
X-129540Y365692D01*
Y368368D01*
X-130232Y370952D01*
X-131570Y373268D01*
X-133462Y375160D01*
X-135778Y376498D01*
X-138362Y377190D01*
D02*
G37*
G36*
X209550Y307189D02*
Y303530D01*
X213209D01*
X212553Y305115D01*
X211135Y306533D01*
X209550Y307189D01*
D02*
G37*
G36*
X207010D02*
X205425Y306533D01*
X204007Y305115D01*
X203351Y303530D01*
X207010D01*
Y307189D01*
D02*
G37*
G36*
X57150D02*
Y303530D01*
X60809D01*
X60153Y305115D01*
X58735Y306533D01*
X57150Y307189D01*
D02*
G37*
G36*
X54610D02*
X53025Y306533D01*
X51607Y305115D01*
X50951Y303530D01*
X54610D01*
Y307189D01*
D02*
G37*
G36*
X-95250D02*
Y303530D01*
X-91591D01*
X-92247Y305115D01*
X-93665Y306533D01*
X-95250Y307189D01*
D02*
G37*
G36*
X-97790D02*
X-99375Y306533D01*
X-100793Y305115D01*
X-101449Y303530D01*
X-97790D01*
Y307189D01*
D02*
G37*
G36*
X-148590D02*
X-150175Y306533D01*
X-151593Y305115D01*
X-152249Y303530D01*
X-148590D01*
Y307189D01*
D02*
G37*
G36*
X-196850D02*
Y303530D01*
X-193191D01*
X-193847Y305115D01*
X-195265Y306533D01*
X-196850Y307189D01*
D02*
G37*
G36*
X-199390D02*
X-200975Y306533D01*
X-202393Y305115D01*
X-203049Y303530D01*
X-199390D01*
Y307189D01*
D02*
G37*
G36*
X213209Y300990D02*
X209550D01*
Y297331D01*
X211135Y297987D01*
X212553Y299405D01*
X213209Y300990D01*
D02*
G37*
G36*
X207010D02*
X203351D01*
X204007Y299405D01*
X205425Y297987D01*
X207010Y297331D01*
Y300990D01*
D02*
G37*
G36*
X60809D02*
X57150D01*
Y297331D01*
X58735Y297987D01*
X60153Y299405D01*
X60809Y300990D01*
D02*
G37*
G36*
X54610D02*
X50951D01*
X51607Y299405D01*
X53025Y297987D01*
X54610Y297331D01*
Y300990D01*
D02*
G37*
G36*
X-91591D02*
X-95250D01*
Y297331D01*
X-93665Y297987D01*
X-92247Y299405D01*
X-91591Y300990D01*
D02*
G37*
G36*
X-97790D02*
X-101449D01*
X-100793Y299405D01*
X-99375Y297987D01*
X-97790Y297331D01*
Y300990D01*
D02*
G37*
G36*
X-148590D02*
X-152249D01*
X-151593Y299405D01*
X-150175Y297987D01*
X-148590Y297331D01*
Y300990D01*
D02*
G37*
G36*
X-193191D02*
X-196850D01*
Y297331D01*
X-195265Y297987D01*
X-193847Y299405D01*
X-193191Y300990D01*
D02*
G37*
G36*
X-199390D02*
X-203049D01*
X-202393Y299405D01*
X-200975Y297987D01*
X-199390Y297331D01*
Y300990D01*
D02*
G37*
G36*
X-72587Y306244D02*
X-75241D01*
X-77805Y305557D01*
X-80103Y304230D01*
X-81980Y302353D01*
X-83307Y300055D01*
X-83994Y297491D01*
Y294837D01*
X-83307Y292273D01*
X-81980Y289975D01*
X-80103Y288098D01*
X-77805Y286771D01*
X-75241Y286084D01*
X-72587D01*
X-70023Y286771D01*
X-67725Y288098D01*
X-65848Y289975D01*
X-64521Y292273D01*
X-63834Y294837D01*
Y297491D01*
X-64521Y300055D01*
X-65848Y302353D01*
X-67725Y304230D01*
X-70023Y305557D01*
X-72587Y306244D01*
D02*
G37*
G36*
X-224987D02*
X-227641D01*
X-230205Y305557D01*
X-232503Y304230D01*
X-234380Y302353D01*
X-235707Y300055D01*
X-236394Y297491D01*
Y294837D01*
X-235707Y292273D01*
X-234380Y289975D01*
X-232503Y288098D01*
X-230205Y286771D01*
X-227641Y286084D01*
X-224987D01*
X-222423Y286771D01*
X-220125Y288098D01*
X-218248Y289975D01*
X-216921Y292273D01*
X-216234Y294837D01*
Y297491D01*
X-216921Y300055D01*
X-218248Y302353D01*
X-220125Y304230D01*
X-222423Y305557D01*
X-224987Y306244D01*
D02*
G37*
G36*
X-72587Y280844D02*
X-75241D01*
X-77805Y280157D01*
X-80103Y278830D01*
X-81980Y276953D01*
X-83307Y274655D01*
X-83994Y272091D01*
Y269437D01*
X-83307Y266873D01*
X-81980Y264575D01*
X-80103Y262698D01*
X-77805Y261371D01*
X-75241Y260684D01*
X-72587D01*
X-70023Y261371D01*
X-67725Y262698D01*
X-65848Y264575D01*
X-64521Y266873D01*
X-63834Y269437D01*
Y272091D01*
X-64521Y274655D01*
X-65848Y276953D01*
X-67725Y278830D01*
X-70023Y280157D01*
X-72587Y280844D01*
D02*
G37*
G36*
X-224987D02*
X-227641D01*
X-230205Y280157D01*
X-232503Y278830D01*
X-234380Y276953D01*
X-235707Y274655D01*
X-236394Y272091D01*
Y269437D01*
X-235707Y266873D01*
X-234380Y264575D01*
X-232503Y262698D01*
X-230205Y261371D01*
X-227641Y260684D01*
X-224987D01*
X-222423Y261371D01*
X-220125Y262698D01*
X-218248Y264575D01*
X-216921Y266873D01*
X-216234Y269437D01*
Y272091D01*
X-216921Y274655D01*
X-218248Y276953D01*
X-220125Y278830D01*
X-222423Y280157D01*
X-224987Y280844D01*
D02*
G37*
G36*
X203043Y293110D02*
X199341D01*
X195711Y292388D01*
X192292Y290972D01*
X189214Y288915D01*
X186597Y286298D01*
X184541Y283220D01*
X183124Y279801D01*
X182402Y276171D01*
Y272469D01*
X183124Y268839D01*
X184541Y265420D01*
X186597Y262342D01*
X189214Y259725D01*
X192292Y257668D01*
X195711Y256252D01*
X199341Y255530D01*
X203043D01*
X206673Y256252D01*
X210092Y257668D01*
X213170Y259725D01*
X215787Y262342D01*
X217843Y265420D01*
X219260Y268839D01*
X219982Y272469D01*
Y276171D01*
X219260Y279801D01*
X217843Y283220D01*
X215787Y286298D01*
X213170Y288915D01*
X210092Y290972D01*
X206673Y292388D01*
X203043Y293110D01*
D02*
G37*
G36*
X184150Y256389D02*
Y252730D01*
X187809D01*
X187153Y254315D01*
X185735Y255733D01*
X184150Y256389D01*
D02*
G37*
G36*
X-120650D02*
Y252730D01*
X-116991D01*
X-117647Y254315D01*
X-119065Y255733D01*
X-120650Y256389D01*
D02*
G37*
G36*
X-123190D02*
X-124775Y255733D01*
X-126193Y254315D01*
X-126849Y252730D01*
X-123190D01*
Y256389D01*
D02*
G37*
G36*
X-171450D02*
Y252730D01*
X-167791D01*
X-168447Y254315D01*
X-169865Y255733D01*
X-171450Y256389D01*
D02*
G37*
G36*
X-173990D02*
X-175575Y255733D01*
X-176993Y254315D01*
X-177649Y252730D01*
X-173990D01*
Y256389D01*
D02*
G37*
G36*
X187809Y250190D02*
X184150D01*
Y246531D01*
X185735Y247187D01*
X187153Y248605D01*
X187809Y250190D01*
D02*
G37*
G36*
X-116991D02*
X-120650D01*
Y246531D01*
X-119065Y247187D01*
X-117647Y248605D01*
X-116991Y250190D01*
D02*
G37*
G36*
X-123190D02*
X-126849D01*
X-126193Y248605D01*
X-124775Y247187D01*
X-123190Y246531D01*
Y250190D01*
D02*
G37*
G36*
X-167791D02*
X-171450D01*
Y246531D01*
X-169865Y247187D01*
X-168447Y248605D01*
X-167791Y250190D01*
D02*
G37*
G36*
X-173990D02*
X-177649D01*
X-176993Y248605D01*
X-175575Y247187D01*
X-173990Y246531D01*
Y250190D01*
D02*
G37*
G36*
X-72587Y255444D02*
X-75241D01*
X-77805Y254757D01*
X-80103Y253430D01*
X-81980Y251553D01*
X-83307Y249255D01*
X-83994Y246691D01*
Y244037D01*
X-83307Y241473D01*
X-81980Y239175D01*
X-80103Y237298D01*
X-77805Y235971D01*
X-75241Y235284D01*
X-72587D01*
X-70023Y235971D01*
X-67725Y237298D01*
X-65848Y239175D01*
X-64521Y241473D01*
X-63834Y244037D01*
Y246691D01*
X-64521Y249255D01*
X-65848Y251553D01*
X-67725Y253430D01*
X-70023Y254757D01*
X-72587Y255444D01*
D02*
G37*
G36*
X-224987D02*
X-227641D01*
X-230205Y254757D01*
X-232503Y253430D01*
X-234380Y251553D01*
X-235707Y249255D01*
X-236394Y246691D01*
Y244037D01*
X-235707Y241473D01*
X-234380Y239175D01*
X-232503Y237298D01*
X-230205Y235971D01*
X-227641Y235284D01*
X-224987D01*
X-222423Y235971D01*
X-220125Y237298D01*
X-218248Y239175D01*
X-216921Y241473D01*
X-216234Y244037D01*
Y246691D01*
X-216921Y249255D01*
X-218248Y251553D01*
X-220125Y253430D01*
X-222423Y254757D01*
X-224987Y255444D01*
D02*
G37*
G36*
Y230044D02*
X-227641D01*
X-230205Y229357D01*
X-232503Y228030D01*
X-234380Y226153D01*
X-235707Y223855D01*
X-236394Y221291D01*
Y218637D01*
X-235707Y216073D01*
X-234380Y213775D01*
X-232503Y211898D01*
X-230205Y210571D01*
X-227641Y209884D01*
X-224987D01*
X-222423Y210571D01*
X-220125Y211898D01*
X-218248Y213775D01*
X-216921Y216073D01*
X-216234Y218637D01*
Y221291D01*
X-216921Y223855D01*
X-218248Y226153D01*
X-220125Y228030D01*
X-222423Y229357D01*
X-224987Y230044D01*
D02*
G37*
G36*
X67564Y207875D02*
Y204216D01*
X71223D01*
X70567Y205801D01*
X69149Y207219D01*
X67564Y207875D01*
D02*
G37*
G36*
X65024D02*
X63439Y207219D01*
X62021Y205801D01*
X61365Y204216D01*
X65024D01*
Y207875D01*
D02*
G37*
G36*
X-97790Y205589D02*
X-99375Y204933D01*
X-100793Y203515D01*
X-101449Y201930D01*
X-97790D01*
Y205589D01*
D02*
G37*
G36*
X-146050D02*
Y201930D01*
X-142391D01*
X-143047Y203515D01*
X-144465Y204933D01*
X-146050Y205589D01*
D02*
G37*
G36*
X-148590D02*
X-150175Y204933D01*
X-151593Y203515D01*
X-152249Y201930D01*
X-148590D01*
Y205589D01*
D02*
G37*
G36*
X-196850D02*
Y201930D01*
X-193191D01*
X-193847Y203515D01*
X-195265Y204933D01*
X-196850Y205589D01*
D02*
G37*
G36*
X-199390D02*
X-200975Y204933D01*
X-202393Y203515D01*
X-203049Y201930D01*
X-199390D01*
Y205589D01*
D02*
G37*
G36*
X71223Y201676D02*
X67564D01*
Y198017D01*
X69149Y198673D01*
X70567Y200091D01*
X71223Y201676D01*
D02*
G37*
G36*
X65024D02*
X61365D01*
X62021Y200091D01*
X63439Y198673D01*
X65024Y198017D01*
Y201676D01*
D02*
G37*
G36*
X-97790Y199390D02*
X-101449D01*
X-100793Y197805D01*
X-99375Y196387D01*
X-97790Y195731D01*
Y199390D01*
D02*
G37*
G36*
X-142391D02*
X-146050D01*
Y195731D01*
X-144465Y196387D01*
X-143047Y197805D01*
X-142391Y199390D01*
D02*
G37*
G36*
X-148590D02*
X-152249D01*
X-151593Y197805D01*
X-150175Y196387D01*
X-148590Y195731D01*
Y199390D01*
D02*
G37*
G36*
X-193191D02*
X-196850D01*
Y195731D01*
X-195265Y196387D01*
X-193847Y197805D01*
X-193191Y199390D01*
D02*
G37*
G36*
X-199390D02*
X-203049D01*
X-202393Y197805D01*
X-200975Y196387D01*
X-199390Y195731D01*
Y199390D01*
D02*
G37*
G36*
X-224987Y204644D02*
X-227641D01*
X-230205Y203957D01*
X-232503Y202630D01*
X-234380Y200753D01*
X-235707Y198455D01*
X-236394Y195891D01*
Y193237D01*
X-235707Y190673D01*
X-234380Y188375D01*
X-232503Y186498D01*
X-230205Y185171D01*
X-227641Y184484D01*
X-224987D01*
X-222423Y185171D01*
X-220125Y186498D01*
X-218248Y188375D01*
X-216921Y190673D01*
X-216234Y193237D01*
Y195891D01*
X-216921Y198455D01*
X-218248Y200753D01*
X-220125Y202630D01*
X-222423Y203957D01*
X-224987Y204644D01*
D02*
G37*
G36*
X203043Y216910D02*
X199341D01*
X195711Y216188D01*
X192292Y214771D01*
X189214Y212715D01*
X186597Y210098D01*
X184541Y207020D01*
X183124Y203601D01*
X182402Y199971D01*
Y196269D01*
X183124Y192639D01*
X184541Y189220D01*
X186597Y186142D01*
X189214Y183525D01*
X192292Y181469D01*
X195711Y180052D01*
X199341Y179330D01*
X203043D01*
X206673Y180052D01*
X210092Y181469D01*
X213170Y183525D01*
X215787Y186142D01*
X217843Y189220D01*
X219260Y192639D01*
X219982Y196269D01*
Y199971D01*
X219260Y203601D01*
X217843Y207020D01*
X215787Y210098D01*
X213170Y212715D01*
X210092Y214771D01*
X206673Y216188D01*
X203043Y216910D01*
D02*
G37*
G36*
X-140034Y179244D02*
X-148844D01*
Y170434D01*
X-140034D01*
Y179244D01*
D02*
G37*
G36*
X-151384D02*
X-160194D01*
Y170434D01*
X-151384D01*
Y179244D01*
D02*
G37*
G36*
X-119674D02*
X-129754D01*
X-134794Y174204D01*
Y164124D01*
X-129754Y159084D01*
X-119674D01*
X-114634Y164124D01*
Y174204D01*
X-119674Y179244D01*
D02*
G37*
G36*
X-140034Y167894D02*
X-148844D01*
Y159084D01*
X-140034D01*
Y167894D01*
D02*
G37*
G36*
X-151384D02*
X-160194D01*
Y159084D01*
X-151384D01*
Y167894D01*
D02*
G37*
G36*
X-174187Y179244D02*
X-176841D01*
X-179405Y178557D01*
X-181703Y177230D01*
X-183580Y175353D01*
X-184907Y173055D01*
X-185594Y170491D01*
Y167837D01*
X-184907Y165273D01*
X-183580Y162975D01*
X-181703Y161098D01*
X-179405Y159771D01*
X-176841Y159084D01*
X-174187D01*
X-171623Y159771D01*
X-169325Y161098D01*
X-167448Y162975D01*
X-166121Y165273D01*
X-165434Y167837D01*
Y170491D01*
X-166121Y173055D01*
X-167448Y175353D01*
X-169325Y177230D01*
X-171623Y178557D01*
X-174187Y179244D01*
D02*
G37*
G36*
X-199587D02*
X-202241D01*
X-204805Y178557D01*
X-207103Y177230D01*
X-208980Y175353D01*
X-210307Y173055D01*
X-210994Y170491D01*
Y167837D01*
X-210307Y165273D01*
X-208980Y162975D01*
X-207103Y161098D01*
X-204805Y159771D01*
X-202241Y159084D01*
X-199587D01*
X-197023Y159771D01*
X-194725Y161098D01*
X-192848Y162975D01*
X-191521Y165273D01*
X-190834Y167837D01*
Y170491D01*
X-191521Y173055D01*
X-192848Y175353D01*
X-194725Y177230D01*
X-197023Y178557D01*
X-199587Y179244D01*
D02*
G37*
G36*
X-224987D02*
X-227641D01*
X-230205Y178557D01*
X-232503Y177230D01*
X-234380Y175353D01*
X-235707Y173055D01*
X-236394Y170491D01*
Y167837D01*
X-235707Y165273D01*
X-234380Y162975D01*
X-232503Y161098D01*
X-230205Y159771D01*
X-227641Y159084D01*
X-224987D01*
X-222423Y159771D01*
X-220125Y161098D01*
X-218248Y162975D01*
X-216921Y165273D01*
X-216234Y167837D01*
Y170491D01*
X-216921Y173055D01*
X-218248Y175353D01*
X-220125Y177230D01*
X-222423Y178557D01*
X-224987Y179244D01*
D02*
G37*
G36*
Y153844D02*
X-227641D01*
X-230205Y153157D01*
X-232503Y151830D01*
X-234380Y149953D01*
X-235707Y147655D01*
X-236394Y145091D01*
Y142437D01*
X-235707Y139873D01*
X-234380Y137575D01*
X-232503Y135698D01*
X-230205Y134371D01*
X-227641Y133684D01*
X-224987D01*
X-222423Y134371D01*
X-220125Y135698D01*
X-218248Y137575D01*
X-216921Y139873D01*
X-216234Y142437D01*
Y145091D01*
X-216921Y147655D01*
X-218248Y149953D01*
X-220125Y151830D01*
X-222423Y153157D01*
X-224987Y153844D01*
D02*
G37*
G36*
X203043Y161538D02*
X199341D01*
X195711Y160816D01*
X192292Y159399D01*
X189214Y157343D01*
X186597Y154726D01*
X184541Y151648D01*
X183124Y148229D01*
X182402Y144599D01*
Y140897D01*
X183124Y137267D01*
X184541Y133848D01*
X186597Y130770D01*
X189214Y128153D01*
X192292Y126096D01*
X195711Y124680D01*
X199341Y123958D01*
X203043D01*
X206673Y124680D01*
X210092Y126096D01*
X213170Y128153D01*
X215787Y130770D01*
X217843Y133848D01*
X219260Y137267D01*
X219982Y140897D01*
Y144599D01*
X219260Y148229D01*
X217843Y151648D01*
X215787Y154726D01*
X213170Y157343D01*
X210092Y159399D01*
X206673Y160816D01*
X203043Y161538D01*
D02*
G37*
G36*
X57404Y112879D02*
Y109220D01*
X61063D01*
X60407Y110805D01*
X58989Y112223D01*
X57404Y112879D01*
D02*
G37*
G36*
X54864D02*
X53279Y112223D01*
X51861Y110805D01*
X51205Y109220D01*
X54864D01*
Y112879D01*
D02*
G37*
G36*
X-224987Y128444D02*
X-227641D01*
X-230205Y127757D01*
X-232503Y126430D01*
X-234380Y124553D01*
X-235707Y122255D01*
X-236394Y119691D01*
Y117037D01*
X-235707Y114473D01*
X-234380Y112175D01*
X-232503Y110298D01*
X-230205Y108971D01*
X-227641Y108284D01*
X-224987D01*
X-222423Y108971D01*
X-220125Y110298D01*
X-218248Y112175D01*
X-216921Y114473D01*
X-216234Y117037D01*
Y119691D01*
X-216921Y122255D01*
X-218248Y124553D01*
X-220125Y126430D01*
X-222423Y127757D01*
X-224987Y128444D01*
D02*
G37*
G36*
X209550Y103989D02*
Y100330D01*
X213209D01*
X212553Y101915D01*
X211135Y103333D01*
X209550Y103989D01*
D02*
G37*
G36*
X207010D02*
X205425Y103333D01*
X204007Y101915D01*
X203351Y100330D01*
X207010D01*
Y103989D01*
D02*
G37*
G36*
X158750D02*
Y100330D01*
X162409D01*
X161753Y101915D01*
X160335Y103333D01*
X158750Y103989D01*
D02*
G37*
G36*
X156210D02*
X154625Y103333D01*
X153207Y101915D01*
X152551Y100330D01*
X156210D01*
Y103989D01*
D02*
G37*
G36*
X213209Y97790D02*
X209550D01*
Y94131D01*
X211135Y94787D01*
X212553Y96205D01*
X213209Y97790D01*
D02*
G37*
G36*
X207010D02*
X203351D01*
X204007Y96205D01*
X205425Y94787D01*
X207010Y94131D01*
Y97790D01*
D02*
G37*
G36*
X162409D02*
X158750D01*
Y94131D01*
X160335Y94787D01*
X161753Y96205D01*
X162409Y97790D01*
D02*
G37*
G36*
X156210D02*
X152551D01*
X153207Y96205D01*
X154625Y94787D01*
X156210Y94131D01*
Y97790D01*
D02*
G37*
G36*
X-118872Y94845D02*
Y91186D01*
X-115213D01*
X-115869Y92771D01*
X-117287Y94189D01*
X-118872Y94845D01*
D02*
G37*
G36*
X-121412D02*
X-122997Y94189D01*
X-124415Y92771D01*
X-125071Y91186D01*
X-121412D01*
Y94845D01*
D02*
G37*
G36*
X-115213Y88646D02*
X-118872D01*
Y84987D01*
X-117287Y85643D01*
X-115869Y87061D01*
X-115213Y88646D01*
D02*
G37*
G36*
X-121412D02*
X-125071D01*
X-124415Y87061D01*
X-122997Y85643D01*
X-121412Y84987D01*
Y88646D01*
D02*
G37*
G36*
X-224987Y103044D02*
X-227641D01*
X-230205Y102357D01*
X-232503Y101030D01*
X-234380Y99153D01*
X-235707Y96855D01*
X-236394Y94291D01*
Y91637D01*
X-235707Y89073D01*
X-234380Y86775D01*
X-232503Y84898D01*
X-230205Y83571D01*
X-227641Y82884D01*
X-224987D01*
X-222423Y83571D01*
X-220125Y84898D01*
X-218248Y86775D01*
X-216921Y89073D01*
X-216234Y91637D01*
Y94291D01*
X-216921Y96855D01*
X-218248Y99153D01*
X-220125Y101030D01*
X-222423Y102357D01*
X-224987Y103044D01*
D02*
G37*
G36*
X-216234Y77644D02*
X-225044D01*
Y68834D01*
X-216234D01*
Y77644D01*
D02*
G37*
G36*
X-227584D02*
X-236394D01*
Y68834D01*
X-227584D01*
Y77644D01*
D02*
G37*
G36*
X-216234Y66294D02*
X-225044D01*
Y57484D01*
X-216234D01*
Y66294D01*
D02*
G37*
G36*
X-227584D02*
X-236394D01*
Y57484D01*
X-227584D01*
Y66294D01*
D02*
G37*
G36*
X-97282Y59285D02*
Y55626D01*
X-93623D01*
X-94279Y57211D01*
X-95697Y58629D01*
X-97282Y59285D01*
D02*
G37*
G36*
X-99822D02*
X-101407Y58629D01*
X-102825Y57211D01*
X-103481Y55626D01*
X-99822D01*
Y59285D01*
D02*
G37*
G36*
X184150Y53189D02*
Y49530D01*
X187809D01*
X187153Y51115D01*
X185735Y52533D01*
X184150Y53189D01*
D02*
G37*
G36*
X133350D02*
Y49530D01*
X137009D01*
X136353Y51115D01*
X134935Y52533D01*
X133350Y53189D01*
D02*
G37*
G36*
X130810D02*
X129225Y52533D01*
X127807Y51115D01*
X127151Y49530D01*
X130810D01*
Y53189D01*
D02*
G37*
G36*
X82550D02*
Y49530D01*
X86209D01*
X85553Y51115D01*
X84135Y52533D01*
X82550Y53189D01*
D02*
G37*
G36*
X80010D02*
X78425Y52533D01*
X77007Y51115D01*
X76351Y49530D01*
X80010D01*
Y53189D01*
D02*
G37*
G36*
X-19050D02*
Y49530D01*
X-15391D01*
X-16047Y51115D01*
X-17465Y52533D01*
X-19050Y53189D01*
D02*
G37*
G36*
X-21590D02*
X-23175Y52533D01*
X-24593Y51115D01*
X-25249Y49530D01*
X-21590D01*
Y53189D01*
D02*
G37*
G36*
X-93623Y53086D02*
X-97282D01*
Y49427D01*
X-95697Y50083D01*
X-94279Y51501D01*
X-93623Y53086D01*
D02*
G37*
G36*
X-99822D02*
X-103481D01*
X-102825Y51501D01*
X-101407Y50083D01*
X-99822Y49427D01*
Y53086D01*
D02*
G37*
G36*
X31860Y59546D02*
X21590D01*
Y49276D01*
X31860D01*
Y59546D01*
D02*
G37*
G36*
X19050D02*
X8780D01*
Y49276D01*
X19050D01*
Y59546D01*
D02*
G37*
G36*
X203043Y85338D02*
X199341D01*
X195711Y84616D01*
X192292Y83200D01*
X189214Y81143D01*
X186597Y78526D01*
X184541Y75448D01*
X183124Y72029D01*
X182402Y68399D01*
Y64697D01*
X183124Y61067D01*
X184541Y57648D01*
X186597Y54570D01*
X189214Y51953D01*
X192292Y49896D01*
X195711Y48480D01*
X199341Y47758D01*
X203043D01*
X206673Y48480D01*
X210092Y49896D01*
X213170Y51953D01*
X215787Y54570D01*
X217843Y57648D01*
X219260Y61067D01*
X219982Y64697D01*
Y68399D01*
X219260Y72029D01*
X217843Y75448D01*
X215787Y78526D01*
X213170Y81143D01*
X210092Y83200D01*
X206673Y84616D01*
X203043Y85338D01*
D02*
G37*
G36*
X187809Y46990D02*
X184150D01*
Y43331D01*
X185735Y43987D01*
X187153Y45405D01*
X187809Y46990D01*
D02*
G37*
G36*
X137009D02*
X133350D01*
Y43331D01*
X134935Y43987D01*
X136353Y45405D01*
X137009Y46990D01*
D02*
G37*
G36*
X130810D02*
X127151D01*
X127807Y45405D01*
X129225Y43987D01*
X130810Y43331D01*
Y46990D01*
D02*
G37*
G36*
X86209D02*
X82550D01*
Y43331D01*
X84135Y43987D01*
X85553Y45405D01*
X86209Y46990D01*
D02*
G37*
G36*
X80010D02*
X76351D01*
X77007Y45405D01*
X78425Y43987D01*
X80010Y43331D01*
Y46990D01*
D02*
G37*
G36*
X-15391D02*
X-19050D01*
Y43331D01*
X-17465Y43987D01*
X-16047Y45405D01*
X-15391Y46990D01*
D02*
G37*
G36*
X-21590D02*
X-25249D01*
X-24593Y45405D01*
X-23175Y43987D01*
X-21590Y43331D01*
Y46990D01*
D02*
G37*
G36*
X31860Y46736D02*
X21590D01*
Y36466D01*
X31860D01*
Y46736D01*
D02*
G37*
G36*
X19050D02*
X8780D01*
Y36466D01*
X19050D01*
Y46736D01*
D02*
G37*
G36*
X-72587Y52244D02*
X-75241D01*
X-77805Y51557D01*
X-80103Y50230D01*
X-81980Y48353D01*
X-83307Y46055D01*
X-83994Y43491D01*
Y40837D01*
X-83307Y38273D01*
X-81980Y35975D01*
X-80103Y34098D01*
X-77805Y32771D01*
X-75241Y32084D01*
X-72587D01*
X-70023Y32771D01*
X-67725Y34098D01*
X-65848Y35975D01*
X-64521Y38273D01*
X-63834Y40837D01*
Y43491D01*
X-64521Y46055D01*
X-65848Y48353D01*
X-67725Y50230D01*
X-70023Y51557D01*
X-72587Y52244D01*
D02*
G37*
G36*
X-224987D02*
X-227641D01*
X-230205Y51557D01*
X-232503Y50230D01*
X-234380Y48353D01*
X-235707Y46055D01*
X-236394Y43491D01*
Y40837D01*
X-235707Y38273D01*
X-234380Y35975D01*
X-232503Y34098D01*
X-230205Y32771D01*
X-227641Y32084D01*
X-224987D01*
X-222423Y32771D01*
X-220125Y34098D01*
X-218248Y35975D01*
X-216921Y38273D01*
X-216234Y40837D01*
Y43491D01*
X-216921Y46055D01*
X-218248Y48353D01*
X-220125Y50230D01*
X-222423Y51557D01*
X-224987Y52244D01*
D02*
G37*
G36*
X-168910Y87426D02*
X-205740D01*
X-206731Y87229D01*
X-207571Y86667D01*
X-208133Y85827D01*
X-208330Y84836D01*
Y30988D01*
X-208133Y29997D01*
X-207571Y29157D01*
X-206731Y28595D01*
X-205740Y28398D01*
X-168910D01*
X-167919Y28595D01*
X-167079Y29157D01*
X-166517Y29997D01*
X-166320Y30988D01*
Y84836D01*
X-166517Y85827D01*
X-167079Y86667D01*
X-167919Y87229D01*
X-168910Y87426D01*
D02*
G37*
G36*
X-134152Y20637D02*
Y16978D01*
X-130493D01*
X-131149Y18563D01*
X-132567Y19981D01*
X-134152Y20637D01*
D02*
G37*
G36*
X-136692D02*
X-138277Y19981D01*
X-139695Y18563D01*
X-140351Y16978D01*
X-136692D01*
Y20637D01*
D02*
G37*
G36*
X-22290Y17891D02*
X-27560D01*
Y14371D01*
X-22290D01*
Y17891D01*
D02*
G37*
G36*
X-46100D02*
X-51370D01*
Y14371D01*
X-46100D01*
Y17891D01*
D02*
G37*
G36*
X-130493Y14438D02*
X-134152D01*
Y10779D01*
X-132567Y11435D01*
X-131149Y12853D01*
X-130493Y14438D01*
D02*
G37*
G36*
X-136692D02*
X-140351D01*
X-139695Y12853D01*
X-138277Y11435D01*
X-136692Y10779D01*
Y14438D01*
D02*
G37*
G36*
X-72587Y26844D02*
X-75241D01*
X-77805Y26157D01*
X-80103Y24830D01*
X-81980Y22953D01*
X-83307Y20655D01*
X-83994Y18091D01*
Y15437D01*
X-83307Y12873D01*
X-81980Y10575D01*
X-80103Y8698D01*
X-77805Y7371D01*
X-75241Y6684D01*
X-72587D01*
X-70023Y7371D01*
X-67725Y8698D01*
X-65848Y10575D01*
X-64521Y12873D01*
X-63834Y15437D01*
Y18091D01*
X-64521Y20655D01*
X-65848Y22953D01*
X-67725Y24830D01*
X-70023Y26157D01*
X-72587Y26844D01*
D02*
G37*
G36*
X-224987D02*
X-227641D01*
X-230205Y26157D01*
X-232503Y24830D01*
X-234380Y22953D01*
X-235707Y20655D01*
X-236394Y18091D01*
Y15437D01*
X-235707Y12873D01*
X-234380Y10575D01*
X-232503Y8698D01*
X-230205Y7371D01*
X-227641Y6684D01*
X-224987D01*
X-222423Y7371D01*
X-220125Y8698D01*
X-218248Y10575D01*
X-216921Y12873D01*
X-216234Y15437D01*
Y18091D01*
X-216921Y20655D01*
X-218248Y22953D01*
X-220125Y24830D01*
X-222423Y26157D01*
X-224987Y26844D01*
D02*
G37*
G36*
X-95250Y2389D02*
Y-1270D01*
X-91591D01*
X-92247Y315D01*
X-93665Y1733D01*
X-95250Y2389D01*
D02*
G37*
G36*
X-97790D02*
X-99375Y1733D01*
X-100793Y315D01*
X-101449Y-1270D01*
X-97790D01*
Y2389D01*
D02*
G37*
G36*
X202003Y35046D02*
X198301D01*
X194671Y34324D01*
X191252Y32908D01*
X188174Y30851D01*
X185557Y28234D01*
X183500Y25156D01*
X182084Y21737D01*
X181362Y18107D01*
Y14405D01*
X182084Y10775D01*
X183500Y7356D01*
X185557Y4278D01*
X188174Y1661D01*
X191252Y-395D01*
X194671Y-1812D01*
X198301Y-2534D01*
X202003D01*
X205633Y-1812D01*
X209052Y-395D01*
X212130Y1661D01*
X214747Y4278D01*
X216803Y7356D01*
X218220Y10775D01*
X218942Y14405D01*
Y18107D01*
X218220Y21737D01*
X216803Y25156D01*
X214747Y28234D01*
X212130Y30851D01*
X209052Y32908D01*
X205633Y34324D01*
X202003Y35046D01*
D02*
G37*
G36*
X-91591Y-3810D02*
X-95250D01*
Y-7469D01*
X-93665Y-6813D01*
X-92247Y-5395D01*
X-91591Y-3810D01*
D02*
G37*
G36*
X-97790D02*
X-101449D01*
X-100793Y-5395D01*
X-99375Y-6813D01*
X-97790Y-7469D01*
Y-3810D01*
D02*
G37*
G36*
X-224987Y1444D02*
X-227641D01*
X-230205Y757D01*
X-232503Y-570D01*
X-234380Y-2447D01*
X-235707Y-4745D01*
X-236394Y-7309D01*
Y-9963D01*
X-235707Y-12527D01*
X-234380Y-14825D01*
X-232503Y-16702D01*
X-230205Y-18029D01*
X-227641Y-18716D01*
X-224987D01*
X-222423Y-18029D01*
X-220125Y-16702D01*
X-218248Y-14825D01*
X-216921Y-12527D01*
X-216234Y-9963D01*
Y-7309D01*
X-216921Y-4745D01*
X-218248Y-2447D01*
X-220125Y-570D01*
X-222423Y757D01*
X-224987Y1444D01*
D02*
G37*
G36*
Y-23956D02*
X-227641D01*
X-230205Y-24643D01*
X-232503Y-25970D01*
X-234380Y-27847D01*
X-235707Y-30145D01*
X-236394Y-32709D01*
Y-35363D01*
X-235707Y-37927D01*
X-234380Y-40225D01*
X-232503Y-42102D01*
X-230205Y-43429D01*
X-227641Y-44116D01*
X-224987D01*
X-222423Y-43429D01*
X-220125Y-42102D01*
X-218248Y-40225D01*
X-216921Y-37927D01*
X-216234Y-35363D01*
Y-32709D01*
X-216921Y-30145D01*
X-218248Y-27847D01*
X-220125Y-25970D01*
X-222423Y-24643D01*
X-224987Y-23956D01*
D02*
G37*
G36*
X184150Y-48411D02*
Y-52070D01*
X187809D01*
X187153Y-50485D01*
X185735Y-49067D01*
X184150Y-48411D01*
D02*
G37*
G36*
X181610D02*
X180025Y-49067D01*
X178607Y-50485D01*
X177951Y-52070D01*
X181610D01*
Y-48411D01*
D02*
G37*
G36*
X-171450D02*
Y-52070D01*
X-167791D01*
X-168447Y-50485D01*
X-169865Y-49067D01*
X-171450Y-48411D01*
D02*
G37*
G36*
X-173990D02*
X-175575Y-49067D01*
X-176993Y-50485D01*
X-177649Y-52070D01*
X-173990D01*
Y-48411D01*
D02*
G37*
G36*
X187809Y-54610D02*
X184150D01*
Y-58269D01*
X185735Y-57613D01*
X187153Y-56195D01*
X187809Y-54610D01*
D02*
G37*
G36*
X181610D02*
X177951D01*
X178607Y-56195D01*
X180025Y-57613D01*
X181610Y-58269D01*
Y-54610D01*
D02*
G37*
G36*
X-167791D02*
X-171450D01*
Y-58269D01*
X-169865Y-57613D01*
X-168447Y-56195D01*
X-167791Y-54610D01*
D02*
G37*
G36*
X-173990D02*
X-177649D01*
X-176993Y-56195D01*
X-175575Y-57613D01*
X-173990Y-58269D01*
Y-54610D01*
D02*
G37*
G36*
X-224987Y-49356D02*
X-227641D01*
X-230205Y-50043D01*
X-232503Y-51370D01*
X-234380Y-53247D01*
X-235707Y-55545D01*
X-236394Y-58109D01*
Y-60763D01*
X-235707Y-63327D01*
X-234380Y-65625D01*
X-232503Y-67502D01*
X-230205Y-68829D01*
X-227641Y-69516D01*
X-224987D01*
X-222423Y-68829D01*
X-220125Y-67502D01*
X-218248Y-65625D01*
X-216921Y-63327D01*
X-216234Y-60763D01*
Y-58109D01*
X-216921Y-55545D01*
X-218248Y-53247D01*
X-220125Y-51370D01*
X-222423Y-50043D01*
X-224987Y-49356D01*
D02*
G37*
G36*
X31860Y-82567D02*
X21590D01*
Y-92837D01*
X31860D01*
Y-82567D01*
D02*
G37*
G36*
X19050D02*
X8780D01*
Y-92837D01*
X19050D01*
Y-82567D01*
D02*
G37*
G36*
X-224987Y-74756D02*
X-227641D01*
X-230205Y-75443D01*
X-232503Y-76770D01*
X-234380Y-78647D01*
X-235707Y-80945D01*
X-236394Y-83509D01*
Y-86163D01*
X-235707Y-88727D01*
X-234380Y-91025D01*
X-232503Y-92902D01*
X-230205Y-94229D01*
X-227641Y-94916D01*
X-224987D01*
X-222423Y-94229D01*
X-220125Y-92902D01*
X-218248Y-91025D01*
X-216921Y-88727D01*
X-216234Y-86163D01*
Y-83509D01*
X-216921Y-80945D01*
X-218248Y-78647D01*
X-220125Y-76770D01*
X-222423Y-75443D01*
X-224987Y-74756D01*
D02*
G37*
G36*
X-95250Y-99211D02*
Y-102870D01*
X-91591D01*
X-92247Y-101285D01*
X-93665Y-99867D01*
X-95250Y-99211D01*
D02*
G37*
G36*
X-97790D02*
X-99375Y-99867D01*
X-100793Y-101285D01*
X-101449Y-102870D01*
X-97790D01*
Y-99211D01*
D02*
G37*
G36*
X-146050D02*
Y-102870D01*
X-142391D01*
X-143047Y-101285D01*
X-144465Y-99867D01*
X-146050Y-99211D01*
D02*
G37*
G36*
X-148590D02*
X-150175Y-99867D01*
X-151593Y-101285D01*
X-152249Y-102870D01*
X-148590D01*
Y-99211D01*
D02*
G37*
G36*
X-196850D02*
Y-102870D01*
X-193191D01*
X-193847Y-101285D01*
X-195265Y-99867D01*
X-196850Y-99211D01*
D02*
G37*
G36*
X-199390D02*
X-200975Y-99867D01*
X-202393Y-101285D01*
X-203049Y-102870D01*
X-199390D01*
Y-99211D01*
D02*
G37*
G36*
X70866Y-100735D02*
Y-104394D01*
X74525D01*
X73869Y-102809D01*
X72451Y-101391D01*
X70866Y-100735D01*
D02*
G37*
G36*
X68326D02*
X66741Y-101391D01*
X65323Y-102809D01*
X64667Y-104394D01*
X68326D01*
Y-100735D01*
D02*
G37*
G36*
X128524Y-100989D02*
Y-104648D01*
X132183D01*
X131527Y-103063D01*
X130109Y-101645D01*
X128524Y-100989D01*
D02*
G37*
G36*
X125984D02*
X124399Y-101645D01*
X122981Y-103063D01*
X122325Y-104648D01*
X125984D01*
Y-100989D01*
D02*
G37*
G36*
X31860Y-95377D02*
X21590D01*
Y-105647D01*
X31860D01*
Y-95377D01*
D02*
G37*
G36*
X19050D02*
X8780D01*
Y-105647D01*
X19050D01*
Y-95377D01*
D02*
G37*
G36*
X-91591Y-105410D02*
X-95250D01*
Y-109069D01*
X-93665Y-108413D01*
X-92247Y-106995D01*
X-91591Y-105410D01*
D02*
G37*
G36*
X-97790D02*
X-101449D01*
X-100793Y-106995D01*
X-99375Y-108413D01*
X-97790Y-109069D01*
Y-105410D01*
D02*
G37*
G36*
X-142391D02*
X-146050D01*
Y-109069D01*
X-144465Y-108413D01*
X-143047Y-106995D01*
X-142391Y-105410D01*
D02*
G37*
G36*
X-148590D02*
X-152249D01*
X-151593Y-106995D01*
X-150175Y-108413D01*
X-148590Y-109069D01*
Y-105410D01*
D02*
G37*
G36*
X-193191D02*
X-196850D01*
Y-109069D01*
X-195265Y-108413D01*
X-193847Y-106995D01*
X-193191Y-105410D01*
D02*
G37*
G36*
X-199390D02*
X-203049D01*
X-202393Y-106995D01*
X-200975Y-108413D01*
X-199390Y-109069D01*
Y-105410D01*
D02*
G37*
G36*
X74525Y-106934D02*
X70866D01*
Y-110593D01*
X72451Y-109937D01*
X73869Y-108519D01*
X74525Y-106934D01*
D02*
G37*
G36*
X68326D02*
X64667D01*
X65323Y-108519D01*
X66741Y-109937D01*
X68326Y-110593D01*
Y-106934D01*
D02*
G37*
G36*
X132183Y-107188D02*
X128524D01*
Y-110847D01*
X130109Y-110191D01*
X131527Y-108773D01*
X132183Y-107188D01*
D02*
G37*
G36*
X125984D02*
X122325D01*
X122981Y-108773D01*
X124399Y-110191D01*
X125984Y-110847D01*
Y-107188D01*
D02*
G37*
G36*
X202003Y-79254D02*
X198301D01*
X194671Y-79976D01*
X191252Y-81392D01*
X188174Y-83449D01*
X185557Y-86066D01*
X183500Y-89144D01*
X182084Y-92563D01*
X181362Y-96193D01*
Y-99895D01*
X182084Y-103525D01*
X183500Y-106944D01*
X185557Y-110022D01*
X188174Y-112639D01*
X191252Y-114696D01*
X194671Y-116112D01*
X198301Y-116834D01*
X202003D01*
X205633Y-116112D01*
X209052Y-114696D01*
X212130Y-112639D01*
X214747Y-110022D01*
X216803Y-106944D01*
X218220Y-103525D01*
X218942Y-99895D01*
Y-96193D01*
X218220Y-92563D01*
X216803Y-89144D01*
X214747Y-86066D01*
X212130Y-83449D01*
X209052Y-81392D01*
X205633Y-79976D01*
X202003Y-79254D01*
D02*
G37*
G36*
X-224987Y-100156D02*
X-227641D01*
X-230205Y-100843D01*
X-232503Y-102170D01*
X-234380Y-104047D01*
X-235707Y-106345D01*
X-236394Y-108909D01*
Y-111563D01*
X-235707Y-114127D01*
X-234380Y-116425D01*
X-232503Y-118302D01*
X-230205Y-119629D01*
X-227641Y-120316D01*
X-224987D01*
X-222423Y-119629D01*
X-220125Y-118302D01*
X-218248Y-116425D01*
X-216921Y-114127D01*
X-216234Y-111563D01*
Y-108909D01*
X-216921Y-106345D01*
X-218248Y-104047D01*
X-220125Y-102170D01*
X-222423Y-100843D01*
X-224987Y-100156D01*
D02*
G37*
G36*
X-102587Y-112856D02*
X-102644D01*
Y-121666D01*
X-93834D01*
Y-121609D01*
X-94521Y-119045D01*
X-95848Y-116747D01*
X-97725Y-114870D01*
X-100023Y-113543D01*
X-102587Y-112856D01*
D02*
G37*
G36*
X-105184D02*
X-105241D01*
X-107805Y-113543D01*
X-110103Y-114870D01*
X-111980Y-116747D01*
X-113307Y-119045D01*
X-113994Y-121609D01*
Y-121666D01*
X-105184D01*
Y-112856D01*
D02*
G37*
G36*
X-103914Y-122936D02*
D01*
D01*
D01*
D02*
G37*
G36*
X-22290Y-124222D02*
X-27560D01*
Y-127742D01*
X-22290D01*
Y-124222D01*
D02*
G37*
G36*
X61468Y-124865D02*
Y-128524D01*
X65127D01*
X64471Y-126939D01*
X63053Y-125521D01*
X61468Y-124865D01*
D02*
G37*
G36*
X125476Y-125881D02*
Y-129540D01*
X129135D01*
X128479Y-127955D01*
X127061Y-126537D01*
X125476Y-125881D01*
D02*
G37*
G36*
X122936D02*
X121351Y-126537D01*
X119933Y-127955D01*
X119277Y-129540D01*
X122936D01*
Y-125881D01*
D02*
G37*
G36*
X-93834Y-124206D02*
X-102644D01*
Y-133016D01*
X-102587D01*
X-100023Y-132329D01*
X-97725Y-131002D01*
X-95848Y-129125D01*
X-94521Y-126827D01*
X-93834Y-124263D01*
Y-124206D01*
D02*
G37*
G36*
X-105184D02*
X-113994D01*
Y-124263D01*
X-113307Y-126827D01*
X-111980Y-129125D01*
X-110103Y-131002D01*
X-107805Y-132329D01*
X-105241Y-133016D01*
X-105184D01*
Y-124206D01*
D02*
G37*
G36*
X65127Y-131064D02*
X61468D01*
Y-134723D01*
X63053Y-134067D01*
X64471Y-132649D01*
X65127Y-131064D01*
D02*
G37*
G36*
X129135Y-132080D02*
X125476D01*
Y-135739D01*
X127061Y-135083D01*
X128479Y-133665D01*
X129135Y-132080D01*
D02*
G37*
G36*
X122936D02*
X119277D01*
X119933Y-133665D01*
X121351Y-135083D01*
X122936Y-135739D01*
Y-132080D01*
D02*
G37*
G36*
X-224987Y-125556D02*
X-227641D01*
X-230205Y-126243D01*
X-232503Y-127570D01*
X-234380Y-129447D01*
X-235707Y-131745D01*
X-236394Y-134309D01*
Y-136963D01*
X-235707Y-139527D01*
X-234380Y-141825D01*
X-232503Y-143702D01*
X-230205Y-145029D01*
X-227641Y-145716D01*
X-224987D01*
X-222423Y-145029D01*
X-220125Y-143702D01*
X-218248Y-141825D01*
X-216921Y-139527D01*
X-216234Y-136963D01*
Y-134309D01*
X-216921Y-131745D01*
X-218248Y-129447D01*
X-220125Y-127570D01*
X-222423Y-126243D01*
X-224987Y-125556D01*
D02*
G37*
G36*
X-159850Y-130256D02*
X-161978D01*
X-164033Y-130807D01*
X-165875Y-131871D01*
X-167379Y-133375D01*
X-168443Y-135217D01*
X-168994Y-137272D01*
Y-139400D01*
X-168443Y-141455D01*
X-167379Y-143297D01*
X-165875Y-144801D01*
X-164033Y-145865D01*
X-161978Y-146416D01*
X-159850D01*
X-157795Y-145865D01*
X-155953Y-144801D01*
X-154449Y-143297D01*
X-153385Y-141455D01*
X-152834Y-139400D01*
Y-137272D01*
X-153385Y-135217D01*
X-154449Y-133375D01*
X-155953Y-131871D01*
X-157795Y-130807D01*
X-159850Y-130256D01*
D02*
G37*
G36*
X-179850D02*
X-181978D01*
X-184033Y-130807D01*
X-185875Y-131871D01*
X-187379Y-133375D01*
X-188443Y-135217D01*
X-188994Y-137272D01*
Y-139400D01*
X-188443Y-141455D01*
X-187379Y-143297D01*
X-185875Y-144801D01*
X-184033Y-145865D01*
X-181978Y-146416D01*
X-179850D01*
X-177795Y-145865D01*
X-175953Y-144801D01*
X-174449Y-143297D01*
X-173385Y-141455D01*
X-172834Y-139400D01*
Y-137272D01*
X-173385Y-135217D01*
X-174449Y-133375D01*
X-175953Y-131871D01*
X-177795Y-130807D01*
X-179850Y-130256D01*
D02*
G37*
G36*
X-199850D02*
X-201978D01*
X-204033Y-130807D01*
X-205875Y-131871D01*
X-207379Y-133375D01*
X-208443Y-135217D01*
X-208994Y-137272D01*
Y-139400D01*
X-208443Y-141455D01*
X-207379Y-143297D01*
X-205875Y-144801D01*
X-204033Y-145865D01*
X-201978Y-146416D01*
X-199850D01*
X-197795Y-145865D01*
X-195953Y-144801D01*
X-194449Y-143297D01*
X-193385Y-141455D01*
X-192834Y-139400D01*
Y-137272D01*
X-193385Y-135217D01*
X-194449Y-133375D01*
X-195953Y-131871D01*
X-197795Y-130807D01*
X-199850Y-130256D01*
D02*
G37*
G36*
X-102587Y-138256D02*
X-102644D01*
Y-147066D01*
X-93834D01*
Y-147009D01*
X-94521Y-144445D01*
X-95848Y-142147D01*
X-97725Y-140270D01*
X-100023Y-138943D01*
X-102587Y-138256D01*
D02*
G37*
G36*
X-105184D02*
X-105241D01*
X-107805Y-138943D01*
X-110103Y-140270D01*
X-111980Y-142147D01*
X-113307Y-144445D01*
X-113994Y-147009D01*
Y-147066D01*
X-105184D01*
Y-138256D01*
D02*
G37*
G36*
X-120650Y-150011D02*
Y-153670D01*
X-116991D01*
X-117647Y-152085D01*
X-119065Y-150667D01*
X-120650Y-150011D01*
D02*
G37*
G36*
X-123190D02*
X-124775Y-150667D01*
X-126193Y-152085D01*
X-126849Y-153670D01*
X-123190D01*
Y-150011D01*
D02*
G37*
G36*
X-93834Y-149606D02*
X-102644D01*
Y-158416D01*
X-102587D01*
X-100023Y-157729D01*
X-97725Y-156402D01*
X-95848Y-154525D01*
X-94521Y-152227D01*
X-93834Y-149663D01*
Y-149606D01*
D02*
G37*
G36*
X-105184D02*
X-113994D01*
Y-149663D01*
X-113307Y-152227D01*
X-111980Y-154525D01*
X-110103Y-156402D01*
X-107805Y-157729D01*
X-105241Y-158416D01*
X-105184D01*
Y-149606D01*
D02*
G37*
G36*
X-116991Y-156210D02*
X-120650D01*
Y-159869D01*
X-119065Y-159213D01*
X-117647Y-157795D01*
X-116991Y-156210D01*
D02*
G37*
G36*
X-123190D02*
X-126849D01*
X-126193Y-157795D01*
X-124775Y-159213D01*
X-123190Y-159869D01*
Y-156210D01*
D02*
G37*
G36*
X-159850Y-150256D02*
X-161978D01*
X-164033Y-150807D01*
X-165875Y-151871D01*
X-167379Y-153375D01*
X-168443Y-155217D01*
X-168994Y-157272D01*
Y-159400D01*
X-168443Y-161455D01*
X-167379Y-163297D01*
X-165875Y-164801D01*
X-164033Y-165865D01*
X-161978Y-166416D01*
X-159850D01*
X-157795Y-165865D01*
X-155953Y-164801D01*
X-154449Y-163297D01*
X-153385Y-161455D01*
X-152834Y-159400D01*
Y-157272D01*
X-153385Y-155217D01*
X-154449Y-153375D01*
X-155953Y-151871D01*
X-157795Y-150807D01*
X-159850Y-150256D01*
D02*
G37*
G36*
X-179850D02*
X-181978D01*
X-184033Y-150807D01*
X-185875Y-151871D01*
X-187379Y-153375D01*
X-188443Y-155217D01*
X-188994Y-157272D01*
Y-159400D01*
X-188443Y-161455D01*
X-187379Y-163297D01*
X-185875Y-164801D01*
X-184033Y-165865D01*
X-181978Y-166416D01*
X-179850D01*
X-177795Y-165865D01*
X-175953Y-164801D01*
X-174449Y-163297D01*
X-173385Y-161455D01*
X-172834Y-159400D01*
Y-157272D01*
X-173385Y-155217D01*
X-174449Y-153375D01*
X-175953Y-151871D01*
X-177795Y-150807D01*
X-179850Y-150256D01*
D02*
G37*
G36*
X-199850D02*
X-201978D01*
X-204033Y-150807D01*
X-205875Y-151871D01*
X-207379Y-153375D01*
X-208443Y-155217D01*
X-208994Y-157272D01*
Y-159400D01*
X-208443Y-161455D01*
X-207379Y-163297D01*
X-205875Y-164801D01*
X-204033Y-165865D01*
X-201978Y-166416D01*
X-199850D01*
X-197795Y-165865D01*
X-195953Y-164801D01*
X-194449Y-163297D01*
X-193385Y-161455D01*
X-192834Y-159400D01*
Y-157272D01*
X-193385Y-155217D01*
X-194449Y-153375D01*
X-195953Y-151871D01*
X-197795Y-150807D01*
X-199850Y-150256D01*
D02*
G37*
G36*
X202003Y-132594D02*
X198301D01*
X194671Y-133316D01*
X191252Y-134733D01*
X188174Y-136789D01*
X185557Y-139406D01*
X183500Y-142484D01*
X182084Y-145903D01*
X181362Y-149533D01*
Y-153235D01*
X182084Y-156865D01*
X183500Y-160284D01*
X185557Y-163362D01*
X188174Y-165979D01*
X191252Y-168036D01*
X194671Y-169452D01*
X198301Y-170174D01*
X202003D01*
X205633Y-169452D01*
X209052Y-168036D01*
X212130Y-165979D01*
X214747Y-163362D01*
X216803Y-160284D01*
X218220Y-156865D01*
X218942Y-153235D01*
Y-149533D01*
X218220Y-145903D01*
X216803Y-142484D01*
X214747Y-139406D01*
X212130Y-136789D01*
X209052Y-134733D01*
X205633Y-133316D01*
X202003Y-132594D01*
D02*
G37*
G36*
X-224987Y-150956D02*
X-227641D01*
X-230205Y-151643D01*
X-232503Y-152970D01*
X-234380Y-154847D01*
X-235707Y-157145D01*
X-236394Y-159709D01*
Y-162363D01*
X-235707Y-164927D01*
X-234380Y-167225D01*
X-232503Y-169102D01*
X-230205Y-170429D01*
X-227641Y-171116D01*
X-224987D01*
X-222423Y-170429D01*
X-220125Y-169102D01*
X-218248Y-167225D01*
X-216921Y-164927D01*
X-216234Y-162363D01*
Y-159709D01*
X-216921Y-157145D01*
X-218248Y-154847D01*
X-220125Y-152970D01*
X-222423Y-151643D01*
X-224987Y-150956D01*
D02*
G37*
G36*
X-102587Y-163656D02*
X-105241D01*
X-107805Y-164343D01*
X-110103Y-165670D01*
X-111980Y-167547D01*
X-113307Y-169845D01*
X-113994Y-172409D01*
Y-175063D01*
X-113307Y-177627D01*
X-111980Y-179925D01*
X-110103Y-181802D01*
X-107805Y-183129D01*
X-105241Y-183816D01*
X-102587D01*
X-100023Y-183129D01*
X-97725Y-181802D01*
X-95848Y-179925D01*
X-94521Y-177627D01*
X-93834Y-175063D01*
Y-172409D01*
X-94521Y-169845D01*
X-95848Y-167547D01*
X-97725Y-165670D01*
X-100023Y-164343D01*
X-102587Y-163656D01*
D02*
G37*
G36*
X-224987Y-176356D02*
X-227641D01*
X-230205Y-177043D01*
X-232503Y-178370D01*
X-234380Y-180247D01*
X-235707Y-182545D01*
X-236394Y-185109D01*
Y-187763D01*
X-235707Y-190327D01*
X-234380Y-192625D01*
X-232503Y-194502D01*
X-230205Y-195829D01*
X-227641Y-196516D01*
X-224987D01*
X-222423Y-195829D01*
X-220125Y-194502D01*
X-218248Y-192625D01*
X-216921Y-190327D01*
X-216234Y-187763D01*
Y-185109D01*
X-216921Y-182545D01*
X-218248Y-180247D01*
X-220125Y-178370D01*
X-222423Y-177043D01*
X-224987Y-176356D01*
D02*
G37*
G36*
X209550Y-200811D02*
Y-204470D01*
X213209D01*
X212553Y-202885D01*
X211135Y-201467D01*
X209550Y-200811D01*
D02*
G37*
G36*
X207010D02*
X205425Y-201467D01*
X204007Y-202885D01*
X203351Y-204470D01*
X207010D01*
Y-200811D01*
D02*
G37*
G36*
X-146050D02*
Y-204470D01*
X-142391D01*
X-143047Y-202885D01*
X-144465Y-201467D01*
X-146050Y-200811D01*
D02*
G37*
G36*
X-148590D02*
X-150175Y-201467D01*
X-151593Y-202885D01*
X-152249Y-204470D01*
X-148590D01*
Y-200811D01*
D02*
G37*
G36*
X-196850D02*
Y-204470D01*
X-193191D01*
X-193847Y-202885D01*
X-195265Y-201467D01*
X-196850Y-200811D01*
D02*
G37*
G36*
X-199390D02*
X-200975Y-201467D01*
X-202393Y-202885D01*
X-203049Y-204470D01*
X-199390D01*
Y-200811D01*
D02*
G37*
G36*
X-102587Y-189056D02*
X-105241D01*
X-107805Y-189743D01*
X-110103Y-191070D01*
X-111980Y-192947D01*
X-113307Y-195245D01*
X-113994Y-197809D01*
Y-200463D01*
X-113307Y-203027D01*
X-111980Y-205325D01*
X-110103Y-207202D01*
X-107805Y-208529D01*
X-105241Y-209216D01*
X-102587D01*
X-100023Y-208529D01*
X-97725Y-207202D01*
X-95848Y-205325D01*
X-94521Y-203027D01*
X-93834Y-200463D01*
Y-197809D01*
X-94521Y-195245D01*
X-95848Y-192947D01*
X-97725Y-191070D01*
X-100023Y-189743D01*
X-102587Y-189056D01*
D02*
G37*
G36*
X213209Y-207010D02*
X209550D01*
Y-210669D01*
X211135Y-210013D01*
X212553Y-208595D01*
X213209Y-207010D01*
D02*
G37*
G36*
X207010D02*
X203351D01*
X204007Y-208595D01*
X205425Y-210013D01*
X207010Y-210669D01*
Y-207010D01*
D02*
G37*
G36*
X-142391D02*
X-146050D01*
Y-210669D01*
X-144465Y-210013D01*
X-143047Y-208595D01*
X-142391Y-207010D01*
D02*
G37*
G36*
X-148590D02*
X-152249D01*
X-151593Y-208595D01*
X-150175Y-210013D01*
X-148590Y-210669D01*
Y-207010D01*
D02*
G37*
G36*
X-193191D02*
X-196850D01*
Y-210669D01*
X-195265Y-210013D01*
X-193847Y-208595D01*
X-193191Y-207010D01*
D02*
G37*
G36*
X-199390D02*
X-203049D01*
X-202393Y-208595D01*
X-200975Y-210013D01*
X-199390Y-210669D01*
Y-207010D01*
D02*
G37*
G36*
X-224987Y-201756D02*
X-227641D01*
X-230205Y-202443D01*
X-232503Y-203770D01*
X-234380Y-205647D01*
X-235707Y-207945D01*
X-236394Y-210509D01*
Y-213163D01*
X-235707Y-215727D01*
X-234380Y-218025D01*
X-232503Y-219902D01*
X-230205Y-221229D01*
X-227641Y-221916D01*
X-224987D01*
X-222423Y-221229D01*
X-220125Y-219902D01*
X-218248Y-218025D01*
X-216921Y-215727D01*
X-216234Y-213163D01*
Y-210509D01*
X-216921Y-207945D01*
X-218248Y-205647D01*
X-220125Y-203770D01*
X-222423Y-202443D01*
X-224987Y-201756D01*
D02*
G37*
G36*
X-102587Y-214456D02*
X-105241D01*
X-107805Y-215143D01*
X-110103Y-216470D01*
X-111980Y-218347D01*
X-113307Y-220645D01*
X-113994Y-223209D01*
Y-225863D01*
X-113307Y-228427D01*
X-111980Y-230725D01*
X-110103Y-232602D01*
X-107805Y-233929D01*
X-105241Y-234616D01*
X-102587D01*
X-100023Y-233929D01*
X-97725Y-232602D01*
X-95848Y-230725D01*
X-94521Y-228427D01*
X-93834Y-225863D01*
Y-223209D01*
X-94521Y-220645D01*
X-95848Y-218347D01*
X-97725Y-216470D01*
X-100023Y-215143D01*
X-102587Y-214456D01*
D02*
G37*
G36*
X31860Y-224680D02*
X21590D01*
Y-234950D01*
X31860D01*
Y-224680D01*
D02*
G37*
G36*
X19050D02*
X8780D01*
Y-234950D01*
X19050D01*
Y-224680D01*
D02*
G37*
G36*
X-221274Y-227156D02*
X-231354D01*
X-236394Y-232196D01*
Y-242276D01*
X-231354Y-247316D01*
X-221274D01*
X-216234Y-242276D01*
Y-232196D01*
X-221274Y-227156D01*
D02*
G37*
G36*
X31860Y-237490D02*
X21590D01*
Y-247760D01*
X31860D01*
Y-237490D01*
D02*
G37*
G36*
X19050D02*
X8780D01*
Y-247760D01*
X19050D01*
Y-237490D01*
D02*
G37*
G36*
X-120650Y-251611D02*
Y-255270D01*
X-116991D01*
X-117647Y-253685D01*
X-119065Y-252267D01*
X-120650Y-251611D01*
D02*
G37*
G36*
X-123190D02*
X-124775Y-252267D01*
X-126193Y-253685D01*
X-126849Y-255270D01*
X-123190D01*
Y-251611D01*
D02*
G37*
G36*
X-171450D02*
Y-255270D01*
X-167791D01*
X-168447Y-253685D01*
X-169865Y-252267D01*
X-171450Y-251611D01*
D02*
G37*
G36*
X-173990D02*
X-175575Y-252267D01*
X-176993Y-253685D01*
X-177649Y-255270D01*
X-173990D01*
Y-251611D01*
D02*
G37*
G36*
X-216234Y-252556D02*
X-225044D01*
Y-261366D01*
X-216234D01*
Y-252556D01*
D02*
G37*
G36*
X-227584D02*
X-236394D01*
Y-261366D01*
X-227584D01*
Y-252556D01*
D02*
G37*
G36*
X-116991Y-257810D02*
X-120650D01*
Y-261469D01*
X-119065Y-260813D01*
X-117647Y-259395D01*
X-116991Y-257810D01*
D02*
G37*
G36*
X-123190D02*
X-126849D01*
X-126193Y-259395D01*
X-124775Y-260813D01*
X-123190Y-261469D01*
Y-257810D01*
D02*
G37*
G36*
X-167791D02*
X-171450D01*
Y-261469D01*
X-169865Y-260813D01*
X-168447Y-259395D01*
X-167791Y-257810D01*
D02*
G37*
G36*
X-173990D02*
X-177649D01*
X-176993Y-259395D01*
X-175575Y-260813D01*
X-173990Y-261469D01*
Y-257810D01*
D02*
G37*
G36*
X-22290Y-266335D02*
X-27560D01*
Y-269855D01*
X-22290D01*
Y-266335D01*
D02*
G37*
G36*
X-199587Y-252556D02*
X-202241D01*
X-204805Y-253243D01*
X-207103Y-254570D01*
X-208980Y-256447D01*
X-210307Y-258745D01*
X-210994Y-261309D01*
Y-263963D01*
X-210307Y-266527D01*
X-208980Y-268825D01*
X-207103Y-270702D01*
X-204805Y-272029D01*
X-202241Y-272716D01*
X-199587D01*
X-197023Y-272029D01*
X-194725Y-270702D01*
X-192848Y-268825D01*
X-191521Y-266527D01*
X-190834Y-263963D01*
Y-261309D01*
X-191521Y-258745D01*
X-192848Y-256447D01*
X-194725Y-254570D01*
X-197023Y-253243D01*
X-199587Y-252556D01*
D02*
G37*
G36*
X-216234Y-263906D02*
X-225044D01*
Y-272716D01*
X-216234D01*
Y-263906D01*
D02*
G37*
G36*
X-227584D02*
X-236394D01*
Y-272716D01*
X-227584D01*
Y-263906D01*
D02*
G37*
G36*
X-138787Y-275655D02*
X-141441D01*
X-144005Y-276342D01*
X-146303Y-277669D01*
X-148180Y-279545D01*
X-149438Y-281725D01*
X-150114Y-281829D01*
X-150790Y-281725D01*
X-152048Y-279545D01*
X-153925Y-277669D01*
X-156223Y-276342D01*
X-158787Y-275655D01*
X-161441D01*
X-164005Y-276342D01*
X-166303Y-277669D01*
X-168180Y-279545D01*
X-169507Y-281844D01*
X-170194Y-284408D01*
Y-287062D01*
X-169507Y-289625D01*
X-168180Y-291924D01*
X-166303Y-293801D01*
X-164005Y-295128D01*
X-161441Y-295815D01*
X-158787D01*
X-156223Y-295128D01*
X-153925Y-293801D01*
X-152048Y-291924D01*
X-150790Y-289745D01*
X-150114Y-289640D01*
X-149438Y-289745D01*
X-148180Y-291924D01*
X-146303Y-293801D01*
X-144005Y-295128D01*
X-141441Y-295815D01*
X-138787D01*
X-136223Y-295128D01*
X-133925Y-293801D01*
X-132048Y-291924D01*
X-130721Y-289625D01*
X-130034Y-287062D01*
Y-284408D01*
X-130721Y-281844D01*
X-132048Y-279545D01*
X-133925Y-277669D01*
X-136223Y-276342D01*
X-138787Y-275655D01*
D02*
G37*
G36*
X202003Y-246894D02*
X198301D01*
X194671Y-247616D01*
X191252Y-249032D01*
X188174Y-251089D01*
X185557Y-253706D01*
X183500Y-256784D01*
X182084Y-260203D01*
X181362Y-263833D01*
Y-267535D01*
X182084Y-271165D01*
X183500Y-274584D01*
X185557Y-277662D01*
X188174Y-280279D01*
X191252Y-282335D01*
X194671Y-283752D01*
X198301Y-284474D01*
X202003D01*
X205633Y-283752D01*
X209052Y-282335D01*
X212130Y-280279D01*
X214747Y-277662D01*
X216803Y-274584D01*
X218220Y-271165D01*
X218942Y-267535D01*
Y-263833D01*
X218220Y-260203D01*
X216803Y-256784D01*
X214747Y-253706D01*
X212130Y-251089D01*
X209052Y-249032D01*
X205633Y-247616D01*
X202003Y-246894D01*
D02*
G37*
G36*
X-224876Y-277114D02*
X-227752D01*
X-230530Y-277858D01*
X-233020Y-279296D01*
X-235054Y-281330D01*
X-236492Y-283820D01*
X-237236Y-286598D01*
Y-289474D01*
X-236492Y-292252D01*
X-235054Y-294742D01*
X-233020Y-296776D01*
X-230530Y-298214D01*
X-227752Y-298958D01*
X-224876D01*
X-222098Y-298214D01*
X-219608Y-296776D01*
X-217574Y-294742D01*
X-216136Y-292252D01*
X-215392Y-289474D01*
Y-286598D01*
X-216136Y-283820D01*
X-217574Y-281330D01*
X-219608Y-279296D01*
X-222098Y-277858D01*
X-224876Y-277114D01*
D02*
G37*
G36*
X209550Y-302411D02*
Y-306070D01*
X213209D01*
X212553Y-304485D01*
X211135Y-303067D01*
X209550Y-302411D01*
D02*
G37*
G36*
X207010D02*
X205425Y-303067D01*
X204007Y-304485D01*
X203351Y-306070D01*
X207010D01*
Y-302411D01*
D02*
G37*
G36*
X213209Y-308610D02*
X209550D01*
Y-312269D01*
X211135Y-311613D01*
X212553Y-310195D01*
X213209Y-308610D01*
D02*
G37*
G36*
X207010D02*
X203351D01*
X204007Y-310195D01*
X205425Y-311613D01*
X207010Y-312269D01*
Y-308610D01*
D02*
G37*
G36*
X21839Y-300880D02*
X18801D01*
X15866Y-301667D01*
X13234Y-303186D01*
X11086Y-305334D01*
X9567Y-307966D01*
X8780Y-310901D01*
Y-313939D01*
X9567Y-316874D01*
X11086Y-319506D01*
X13234Y-321654D01*
X15866Y-323173D01*
X18801Y-323960D01*
X21839D01*
X24774Y-323173D01*
X27406Y-321654D01*
X29554Y-319506D01*
X31074Y-316874D01*
X31860Y-313939D01*
Y-310901D01*
X31074Y-307966D01*
X29554Y-305334D01*
X27406Y-303186D01*
X24774Y-301667D01*
X21839Y-300880D01*
D02*
G37*
G36*
X209550Y-334490D02*
X208259D01*
X203200Y-335291D01*
X198329Y-336874D01*
X193765Y-339199D01*
X189622Y-342210D01*
X186000Y-345832D01*
X182989Y-349975D01*
X180664Y-354539D01*
X179081Y-359410D01*
X178280Y-364469D01*
Y-365760D01*
X209550D01*
Y-334490D01*
D02*
G37*
G36*
X-208259Y-337030D02*
X-209550D01*
Y-368300D01*
X-178280D01*
Y-367009D01*
X-179081Y-361950D01*
X-180664Y-357079D01*
X-182989Y-352515D01*
X-186000Y-348372D01*
X-189622Y-344750D01*
X-193765Y-341739D01*
X-198329Y-339414D01*
X-203200Y-337831D01*
X-208259Y-337030D01*
D02*
G37*
G36*
X28109Y197876D02*
X20839D01*
Y187606D01*
X28109D01*
Y197876D01*
D02*
G37*
G36*
X18299D02*
X11029D01*
Y187606D01*
X18299D01*
Y197876D01*
D02*
G37*
G36*
X28109Y158057D02*
X20839D01*
Y147787D01*
X28109D01*
Y158057D01*
D02*
G37*
G36*
X18299D02*
X11029D01*
Y147787D01*
X18299D01*
Y158057D01*
D02*
G37*
G36*
X6350Y103989D02*
Y100330D01*
X10009D01*
X9353Y101915D01*
X7935Y103333D01*
X6350Y103989D01*
D02*
G37*
G36*
X3810D02*
X2225Y103333D01*
X807Y101915D01*
X151Y100330D01*
X3810D01*
Y103989D01*
D02*
G37*
G36*
X10009Y97790D02*
X6350D01*
Y94131D01*
X7935Y94787D01*
X9353Y96205D01*
X10009Y97790D01*
D02*
G37*
G36*
X3810D02*
X151D01*
X807Y96205D01*
X2225Y94787D01*
X3810Y94131D01*
Y97790D01*
D02*
G37*
%LPD*%
D15*
X-35052Y-357345D02*
X26808D01*
X-88646Y-303751D02*
X-35052Y-357345D01*
X-139700Y289306D02*
X-86614Y236220D01*
X-139700Y289306D02*
Y367030D01*
X-86614Y80264D02*
Y236220D01*
Y80264D02*
X-73914Y67564D01*
X-116586Y345948D02*
Y366776D01*
X-116840Y367030D02*
X-116586Y366776D01*
Y345948D02*
X-116332Y345694D01*
X-18288Y207584D02*
X21900Y247773D01*
X0Y212852D02*
X19562D01*
X-18288Y81026D02*
Y207584D01*
X19562Y212852D02*
X20070Y212344D01*
X28702Y-361917D02*
X51856Y-338763D01*
X56261Y98425D02*
X67462D01*
X56800Y107950D02*
X59848Y110998D01*
X56670Y86462D02*
X67462D01*
X30891Y74265D02*
X47284Y57872D01*
X101152Y-47244D02*
X101533Y-46863D01*
X143282Y-21265D02*
X143752Y-20795D01*
X101152Y-21844D02*
X101731Y-21265D01*
X143282D01*
X47284Y-336869D02*
Y57872D01*
X51856Y-338763D02*
Y73288D01*
X143891Y-163957D02*
X144018Y-163830D01*
X143383Y3175D02*
X143764Y2794D01*
X101152Y3556D02*
X101533Y3175D01*
X143547Y-188939D02*
X144018Y-188468D01*
X144156Y-214422D02*
X144618Y-213960D01*
X101152Y-214884D02*
X101614Y-214422D01*
X101152Y-189484D02*
X101697Y-188939D01*
X101614Y-214422D02*
X144156D01*
X101697Y-188939D02*
X143547D01*
X-36946Y-361917D02*
X28702D01*
X-94488Y-304375D02*
X-36946Y-361917D01*
X-21395Y-296105D02*
X20320Y-337820D01*
X143481Y-239936D02*
X143829Y-239587D01*
X101500Y-239936D02*
X143481D01*
X-40632Y-289573D02*
X-39462D01*
Y-300677D02*
X-37528Y-298743D01*
X-62564Y-288311D02*
X-50198Y-300677D01*
X-57992Y-284883D02*
X-48730Y-294145D01*
X-43080Y-287125D02*
X-40632Y-289573D01*
X-28830Y-295125D02*
X-27850Y-296105D01*
X-28830Y-287125D02*
X-28778Y-287072D01*
X-88646Y-303751D02*
Y-282300D01*
X-94488Y-304375D02*
Y-257810D01*
X101152Y-240284D02*
X101500Y-239936D01*
X-62564Y-288311D02*
Y-232535D01*
X-57992Y-284883D02*
Y-230641D01*
X-28830Y-279125D02*
X-14224D01*
X-28778Y-287072D02*
X20268D01*
X-14224Y-279125D02*
X3281Y-261620D01*
X20320D01*
X20268Y-287072D02*
X20320Y-287020D01*
X-83032Y-276686D02*
X-82917D01*
X-88646Y-282300D02*
X-83032Y-276686D01*
X-82917D02*
X-76313Y-270083D01*
X-94488Y-257810D02*
X-73914Y-237236D01*
X-50198Y-300677D02*
X-39462D01*
X-48730Y-294145D02*
X-45810D01*
X-44830Y-287125D02*
X-43080D01*
X-45810Y-294145D02*
X-44830Y-295125D01*
X-37528Y-298743D02*
Y-291507D01*
X-39462Y-289573D02*
X-37528Y-291507D01*
X-27850Y-296105D02*
X-21395D01*
X-76313Y-265035D02*
X-73914Y-262636D01*
X-48730Y-278145D02*
X-45810D01*
X-44830Y-279125D01*
X-53420Y-273455D02*
X-48730Y-278145D01*
X-76313Y-270083D02*
Y-265035D01*
X-67318Y-31637D02*
X-46580Y-10899D01*
X-71515Y-31637D02*
X-67318D01*
X-73914Y-8636D02*
X-62230D01*
X-49473Y4121D01*
X-45810D01*
X-73914Y-186436D02*
X-60856Y-199494D01*
X-71913Y-223186D02*
Y-213837D01*
X-60856Y-227777D02*
X-57992Y-230641D01*
X-60856Y-227777D02*
Y-199494D01*
X-73914Y-161036D02*
X-53420Y-181530D01*
X-71913Y-223186D02*
X-62564Y-232535D01*
X-73914Y-211836D02*
X-71913Y-213837D01*
X-73914Y-34036D02*
X-71515Y-31637D01*
X-50198Y-150564D02*
X-49028D01*
X-73914Y-110236D02*
X-60856Y-123294D01*
X-56284Y-128477D02*
Y-102466D01*
Y-128477D02*
X-50198Y-134564D01*
X-73914Y-135636D02*
X-50986Y-158564D01*
X-60856Y-139905D02*
Y-123294D01*
Y-139905D02*
X-50198Y-150564D01*
X-73914Y-84836D02*
X-56284Y-102466D01*
X-50198Y-134564D02*
X-49028D01*
Y-150564D02*
X-46580Y-153012D01*
X-49028Y-134564D02*
X-46580Y-137012D01*
X-28830Y-10899D02*
X-22375D01*
X-44830Y-2899D02*
X-37620D01*
X-36132Y-4387D01*
Y-21654D02*
Y-4387D01*
X-28830Y-2899D02*
X-28778Y-2846D01*
X-73914Y-59436D02*
X-36132Y-21654D01*
X-46580Y-10899D02*
X-44830D01*
X-45810Y4121D02*
X-44830Y5101D01*
X3281Y22606D02*
X20320D01*
X-28778Y-2846D02*
X20268D01*
X20320Y-2794D01*
X-28830Y5101D02*
X-14224D01*
X3281Y22606D01*
X-22375Y-10899D02*
X20320Y-53594D01*
X-27850Y-153992D02*
X-21395D01*
X-46580Y-137012D02*
X-44830D01*
X-40632Y-147460D02*
X-39462D01*
X-28830Y-153012D02*
X-27850Y-153992D01*
X-28830Y-145012D02*
X-28778Y-144959D01*
X-39462Y-158564D02*
X-37528Y-156630D01*
Y-149394D01*
X-39462Y-147460D02*
X-37528Y-149394D01*
X-50986Y-158564D02*
X-39462D01*
X36012Y214828D02*
Y247773D01*
X21900D02*
X36012D01*
X20268Y-144959D02*
X20320Y-144907D01*
X-14224Y-137012D02*
X3281Y-119507D01*
X-21395Y-153992D02*
X20320Y-195707D01*
X-28778Y-144959D02*
X20268D01*
X3281Y-119507D02*
X20320D01*
X-28830Y-137012D02*
X-14224D01*
X7366Y130810D02*
X21308D01*
X-18288Y81026D02*
X-11527Y74265D01*
X36830Y97313D02*
Y129126D01*
X21308Y130810D02*
X21816Y131318D01*
X-11527Y74265D02*
X30891D01*
X-53420Y-273455D02*
Y-181530D01*
X-46580Y-153012D02*
X-44830D01*
Y-145012D02*
X-43080D01*
X-40632Y-147460D01*
X101279Y-163957D02*
X143891D01*
X101152Y-164084D02*
X101279Y-163957D01*
X56351Y230811D02*
X69992Y217170D01*
X49569Y211844D02*
X50070Y212344D01*
X56351Y230811D02*
Y235241D01*
X99662Y232400D02*
X102192Y229870D01*
X66890Y232400D02*
X99662D01*
X69992Y217170D02*
X102192D01*
X56346Y248920D02*
X62890Y242376D01*
X49569Y186336D02*
Y211844D01*
X55880Y235712D02*
X56351Y235241D01*
X62890Y236400D02*
Y242376D01*
Y236400D02*
X66890Y232400D01*
X67462Y100828D02*
X102192Y98298D01*
X67462Y86397D02*
Y88128D01*
X102192Y85598D01*
X67462Y98425D02*
Y100828D01*
X51816Y131318D02*
Y157080D01*
X49569Y159327D02*
X51816Y157080D01*
X144145Y-46863D02*
X144526Y-46482D01*
X101533Y-46863D02*
X144145D01*
X101533Y3175D02*
X143383D01*
X54974Y266735D02*
Y267168D01*
X55880Y248920D02*
X56346D01*
X56134Y98552D02*
X56261Y98425D01*
X36830Y97313D02*
X56323Y77820D01*
X56134Y107950D02*
X56800D01*
X56323Y77820D02*
X56388D01*
X51856Y73288D02*
X56388Y77820D01*
X56199Y86933D02*
X56670Y86462D01*
X101152Y-72644D02*
X101279Y-72517D01*
X59848Y110998D02*
X102192D01*
X143891Y-72517D02*
X144018Y-72390D01*
X101279Y-72517D02*
X143891D01*
X26808Y-357345D02*
X47284Y-336869D01*
X36012Y247773D02*
X54974Y266735D01*
D17*
X-28830Y-295125D02*
D03*
Y-287125D02*
D03*
Y-279125D02*
D03*
Y-271125D02*
D03*
X-44830D02*
D03*
Y-279125D02*
D03*
Y-287125D02*
D03*
Y-295125D02*
D03*
Y-153012D02*
D03*
Y-145012D02*
D03*
Y-137012D02*
D03*
Y-129012D02*
D03*
X-28830D02*
D03*
Y-137012D02*
D03*
Y-145012D02*
D03*
Y-153012D02*
D03*
X-44830Y-10899D02*
D03*
Y-2899D02*
D03*
Y5101D02*
D03*
Y13101D02*
D03*
X-28830D02*
D03*
Y5101D02*
D03*
Y-2899D02*
D03*
Y-10899D02*
D03*
D18*
X-162560Y367030D02*
D03*
X-116840D02*
D03*
X-139700D02*
D03*
D19*
X101152Y3556D02*
D03*
Y-9144D02*
D03*
Y-21844D02*
D03*
Y-34544D02*
D03*
Y-47244D02*
D03*
Y-59944D02*
D03*
Y-72644D02*
D03*
Y-85344D02*
D03*
Y-164084D02*
D03*
Y-176784D02*
D03*
Y-189484D02*
D03*
Y-202184D02*
D03*
Y-214884D02*
D03*
Y-227584D02*
D03*
Y-240284D02*
D03*
Y-252984D02*
D03*
D20*
X102192Y255270D02*
D03*
Y242570D02*
D03*
Y229870D02*
D03*
Y217170D02*
D03*
Y123698D02*
D03*
Y110998D02*
D03*
Y98298D02*
D03*
Y85598D02*
D03*
D21*
X21816Y131318D02*
D03*
X51816D02*
D03*
X20070Y212344D02*
D03*
X50070D02*
D03*
D22*
X19569Y159327D02*
D03*
X49569D02*
D03*
X19569Y186336D02*
D03*
X49569D02*
D03*
D46*
X156464Y265684D02*
Y327284D01*
X96652Y387096D02*
X156464Y327284D01*
X119530Y380596D02*
X170434Y329692D01*
Y11684D02*
Y329692D01*
X119530Y380596D02*
Y382696D01*
X158242Y-508D02*
X170434Y11684D01*
X156464Y143002D02*
Y265684D01*
X102192Y255270D02*
X146050D01*
X137160Y123698D02*
X156464Y143002D01*
X146050Y255270D02*
X156464Y265684D01*
X102192Y123698D02*
X137160D01*
X116840Y385386D02*
Y386842D01*
Y385386D02*
X119530Y382696D01*
X39878Y-150749D02*
Y-47752D01*
X20320Y-28194D02*
X39878Y-47752D01*
X20320Y-170307D02*
X39878Y-150749D01*
X158242Y-25908D02*
Y-508D01*
Y-50292D02*
Y-25908D01*
X146050Y-176784D02*
X158242Y-164592D01*
X101152Y-202184D02*
X147320D01*
X158242Y-216916D02*
Y-191262D01*
Y-244348D02*
Y-216916D01*
Y-191262D02*
Y-164592D01*
X147574Y-227584D02*
X158242Y-216916D01*
X149606Y-252984D02*
X158242Y-244348D01*
X147320Y-202184D02*
X158242Y-191262D01*
X101152Y-252984D02*
X149606D01*
X101152Y-227584D02*
X147574D01*
X101152Y-176784D02*
X146050D01*
X158242Y-164592D02*
Y-75438D01*
X148346Y-85334D02*
X158242Y-75438D01*
X101162Y-85334D02*
X148346D01*
X101152Y-34544D02*
X149606D01*
Y-9144D02*
X158242Y-508D01*
X101152Y-9144D02*
X149606D01*
X101152Y-85344D02*
X101162Y-85334D01*
X149606Y-34544D02*
X158242Y-25908D01*
Y-75438D02*
Y-50292D01*
X101152Y-59944D02*
X148590D01*
X158242Y-50292D01*
D47*
X-6096Y172720D02*
X94996D01*
D48*
X-73914Y-288036D02*
D03*
X-150114Y169164D02*
D03*
X-226314Y67564D02*
D03*
D49*
Y-262636D02*
D03*
D50*
Y-288036D02*
D03*
D51*
Y-237236D02*
D03*
X-124714Y169164D02*
D03*
X-73914Y67564D02*
D03*
D52*
X-99314Y169164D02*
D03*
X-175514D02*
D03*
X-200914D02*
D03*
X-226314Y42164D02*
D03*
X-73914D02*
D03*
Y-262636D02*
D03*
Y-237236D02*
D03*
Y-211836D02*
D03*
Y-186436D02*
D03*
Y-161036D02*
D03*
Y-135636D02*
D03*
Y-110236D02*
D03*
Y-84836D02*
D03*
Y-59436D02*
D03*
Y-34036D02*
D03*
Y-8636D02*
D03*
Y16764D02*
D03*
X-200914Y-262636D02*
D03*
X-226314Y16764D02*
D03*
Y-8636D02*
D03*
Y-34036D02*
D03*
Y-59436D02*
D03*
Y-84836D02*
D03*
Y-110236D02*
D03*
Y-135636D02*
D03*
Y-161036D02*
D03*
Y-186436D02*
D03*
Y-211836D02*
D03*
X-73914Y118364D02*
D03*
Y143764D02*
D03*
Y169164D02*
D03*
Y194564D02*
D03*
Y219964D02*
D03*
Y245364D02*
D03*
Y270764D02*
D03*
Y296164D02*
D03*
X-226314Y92964D02*
D03*
Y118364D02*
D03*
Y143764D02*
D03*
Y169164D02*
D03*
Y194564D02*
D03*
Y219964D02*
D03*
Y245364D02*
D03*
Y270764D02*
D03*
Y296164D02*
D03*
X-103914Y-224536D02*
D03*
Y-199136D02*
D03*
Y-173736D02*
D03*
Y-148336D02*
D03*
Y-122936D02*
D03*
X-73914Y92964D02*
D03*
X-160114Y-285735D02*
D03*
X-140114D02*
D03*
D53*
X-200914Y-158336D02*
D03*
X-180914D02*
D03*
X-160914D02*
D03*
X-200914Y-138336D02*
D03*
X-180914D02*
D03*
X-160914D02*
D03*
D54*
X136652Y387096D02*
D03*
D55*
X157652D02*
D03*
X75652D02*
D03*
D56*
X96652D02*
D03*
X116652D02*
D03*
D57*
X20320Y-337820D02*
D03*
Y-261620D02*
D03*
Y-287020D02*
D03*
Y-312420D02*
D03*
Y-195707D02*
D03*
Y-119507D02*
D03*
Y-144907D02*
D03*
Y-170307D02*
D03*
Y-28194D02*
D03*
Y-2794D02*
D03*
Y22606D02*
D03*
Y-53594D02*
D03*
D58*
Y-236220D02*
D03*
Y-94107D02*
D03*
Y48006D02*
D03*
D59*
X-120142Y89916D02*
D03*
X-98552Y54356D02*
D03*
X-135422Y15708D02*
D03*
X208280Y302260D02*
D03*
X182880Y251460D02*
D03*
X208280Y99060D02*
D03*
X182880Y48260D02*
D03*
Y-53340D02*
D03*
X208280Y-205740D02*
D03*
Y-307340D02*
D03*
X157480Y99060D02*
D03*
X132080Y48260D02*
D03*
X81280D02*
D03*
X55880Y302260D02*
D03*
X5080Y99060D02*
D03*
X-20320Y48260D02*
D03*
X-96520Y302260D02*
D03*
X-121920Y251460D02*
D03*
X-96520Y200660D02*
D03*
Y-2540D02*
D03*
Y-104140D02*
D03*
X-121920Y-154940D02*
D03*
Y-256540D02*
D03*
X-147320Y302260D02*
D03*
X-172720Y251460D02*
D03*
X-147320Y200660D02*
D03*
X-172720Y-53340D02*
D03*
X-147320Y-104140D02*
D03*
Y-205740D02*
D03*
X-172720Y-256540D02*
D03*
X-198120Y302260D02*
D03*
Y200660D02*
D03*
Y-104140D02*
D03*
Y-205740D02*
D03*
X-116332Y345694D02*
D03*
X0Y212852D02*
D03*
X-6096Y172720D02*
D03*
X60198Y-129794D02*
D03*
X69596Y-105664D02*
D03*
X124206Y-130810D02*
D03*
X66294Y202946D02*
D03*
X36830Y129126D02*
D03*
X55880Y248920D02*
D03*
Y235712D02*
D03*
X56134Y98552D02*
D03*
Y107950D02*
D03*
X56388Y77820D02*
D03*
X56199Y86933D02*
D03*
X144018Y-163830D02*
D03*
Y-188468D02*
D03*
X144618Y-213960D02*
D03*
X144526Y-46482D02*
D03*
X143829Y-239587D02*
D03*
X144018Y-72390D02*
D03*
X143764Y2794D02*
D03*
X36012Y214828D02*
D03*
X54974Y267168D02*
D03*
X58517Y-41134D02*
D03*
X58166Y3302D02*
D03*
X143752Y-20795D02*
D03*
X127254Y-105918D02*
D03*
X7366Y130810D02*
D03*
D60*
X170434Y213614D02*
D03*
X94996Y172720D02*
D03*
D61*
X210820Y367030D02*
D03*
Y-367030D02*
D03*
X-210820Y367030D02*
D03*
Y-369570D02*
D03*
M02*
