G04*
G04 #@! TF.GenerationSoftware,Altium Limited,Altium Designer,24.3.1 (35)*
G04*
G04 Layer_Color=16776960*
%FSLAX44Y44*%
%MOMM*%
G71*
G04*
G04 #@! TF.SameCoordinates,D61E4413-AD1B-46AA-9FCE-7A96C032C263*
G04*
G04*
G04 #@! TF.FilePolarity,Positive*
G04*
G01*
G75*
%ADD11C,0.2500*%
%ADD12C,0.2000*%
%ADD13C,0.2032*%
%ADD14C,0.1016*%
D11*
X-165922Y75336D02*
G03*
X-165922Y75336I-1250J0D01*
G01*
X144100Y260858D02*
G03*
X144100Y260858I-1250J0D01*
G01*
X144354Y118110D02*
G03*
X144354Y118110I-1250J0D01*
G01*
X-21834Y-205536D02*
G03*
X-21834Y-205536I-1250J0D01*
G01*
Y-24688D02*
G03*
X-21834Y-24688I-1250J0D01*
G01*
X-21834Y-122224D02*
G03*
X-21834Y-122224I-1250J0D01*
G01*
D12*
X-187307Y80912D02*
G03*
X-187307Y81912I0J500D01*
G01*
D02*
G03*
X-187307Y80912I0J-500D01*
G01*
D02*
G03*
X-187307Y81912I0J500D01*
G01*
X-151014Y-37982D02*
X-136514D01*
X-151014Y-54982D02*
X-136514D01*
X-200807Y111588D02*
Y120061D01*
X-182225Y111588D02*
Y120061D01*
X-179807Y53912D02*
Y61912D01*
X-194807Y53912D02*
Y61912D01*
X-163322Y84836D02*
X-112522D01*
X-163322Y21336D02*
X-112522D01*
Y84836D01*
X-163322Y21336D02*
Y84836D01*
X69470Y292434D02*
Y302434D01*
X85470Y292434D02*
Y302434D01*
X109600Y292434D02*
Y302434D01*
X93600Y292434D02*
Y302434D01*
X90600Y216808D02*
X112600D01*
X90600Y266808D02*
X112600D01*
X158341Y241128D02*
Y249600D01*
X175923Y241128D02*
Y249600D01*
X29574Y97116D02*
Y108116D01*
X11574Y97116D02*
Y108116D01*
X5698Y97116D02*
Y108116D01*
X-12302Y97116D02*
Y108116D01*
X90854Y74060D02*
X112854D01*
X90854Y124060D02*
X112854D01*
X32368Y232618D02*
Y243618D01*
X14368Y232618D02*
Y243618D01*
X-12338Y191458D02*
Y206708D01*
X-11038Y187958D02*
X37962D01*
Y155958D02*
Y187958D01*
X-11038Y155958D02*
X37962D01*
X-11038D02*
Y187958D01*
X133730Y292451D02*
Y302451D01*
X117730Y292451D02*
Y302451D01*
X78786Y-25652D02*
X91286D01*
X94786Y-24652D02*
Y5348D01*
X100286D01*
Y-24652D02*
Y5348D01*
X94786Y-24652D02*
X100286D01*
X94786Y-155208D02*
X100286D01*
Y-125208D01*
X94786D02*
X100286D01*
X94786Y-155208D02*
Y-125208D01*
X78786Y-156208D02*
X91286D01*
X94786Y-111690D02*
X100286D01*
Y-81689D01*
X94786D02*
X100286D01*
X94786Y-111690D02*
Y-81689D01*
X78786Y-112689D02*
X91286D01*
X78786Y-69171D02*
X91286D01*
X94786Y-68171D02*
Y-38170D01*
X100286D01*
Y-68171D02*
Y-38170D01*
X94786Y-68171D02*
X100286D01*
X77496Y204458D02*
X112496D01*
X77496Y139458D02*
Y204458D01*
Y139458D02*
X112496D01*
Y204458D01*
X116746Y202958D02*
X135246D01*
X157841Y158578D02*
Y167050D01*
X176423Y158578D02*
Y167050D01*
X6238Y233118D02*
Y243118D01*
X-8762Y233118D02*
Y243118D01*
X-32642Y233637D02*
Y242598D01*
X-17142Y233637D02*
Y242598D01*
X93346Y40212D02*
Y50212D01*
X109346Y40212D02*
Y50212D01*
X133984Y40212D02*
Y50212D01*
X117984Y40212D02*
Y50212D01*
X-37084Y-241536D02*
Y-207536D01*
X-201061Y-2966D02*
Y5506D01*
X-182479Y-2966D02*
Y5506D01*
X-154576Y110324D02*
Y121324D01*
X-172576Y110324D02*
Y121324D01*
X-37084Y-60688D02*
Y-26688D01*
X-37084Y-158224D02*
Y-124224D01*
X-124040Y110070D02*
Y121070D01*
X-106040Y110070D02*
Y121070D01*
X-148446Y110324D02*
Y121324D01*
X-130446Y110324D02*
Y121324D01*
X-148766Y4960D02*
X-138766D01*
X-148766Y-10040D02*
X-138766D01*
X-148766Y-31630D02*
X-138766D01*
X-148766Y-16630D02*
X-138766D01*
D13*
X-92968Y-51560D02*
Y-41404D01*
X-98047D01*
X-99739Y-43096D01*
Y-46482D01*
X-98047Y-48175D01*
X-92968D01*
X-96354D02*
X-99739Y-51560D01*
X-103125D02*
X-106510D01*
X-104818D01*
Y-41404D01*
X-103125Y-43096D01*
X-116667Y-51560D02*
Y-41404D01*
X-111589Y-46482D01*
X-118360D01*
X-24050Y-255268D02*
Y-245112D01*
X-29128D01*
X-30821Y-246804D01*
Y-250190D01*
X-29128Y-251883D01*
X-24050D01*
X-27435D02*
X-30821Y-255268D01*
X-34206D02*
Y-245112D01*
X-40978Y-255268D01*
Y-245112D01*
X-51134D02*
X-47749Y-246804D01*
X-44363Y-250190D01*
Y-253576D01*
X-46056Y-255268D01*
X-49441D01*
X-51134Y-253576D01*
Y-251883D01*
X-49441Y-250190D01*
X-44363D01*
X-24050Y-74420D02*
Y-64264D01*
X-29128D01*
X-30821Y-65956D01*
Y-69342D01*
X-29128Y-71035D01*
X-24050D01*
X-27435D02*
X-30821Y-74420D01*
X-34206D02*
Y-64264D01*
X-40978Y-74420D01*
Y-64264D01*
X-51134Y-74420D02*
X-44363D01*
X-51134Y-67649D01*
Y-65956D01*
X-49441Y-64264D01*
X-46056D01*
X-44363Y-65956D01*
X85680Y322582D02*
Y332738D01*
X80602D01*
X78909Y331046D01*
Y327660D01*
X80602Y325967D01*
X85680D01*
X82294D02*
X78909Y322582D01*
X75523Y331046D02*
X73830Y332738D01*
X70445D01*
X68752Y331046D01*
Y329353D01*
X70445Y327660D01*
X72138D01*
X70445D01*
X68752Y325967D01*
Y324274D01*
X70445Y322582D01*
X73830D01*
X75523Y324274D01*
X-107785Y-29208D02*
Y-19052D01*
X-112863D01*
X-114556Y-20744D01*
Y-24130D01*
X-112863Y-25823D01*
X-107785D01*
X-111170D02*
X-114556Y-29208D01*
X-117942D02*
X-121327D01*
X-119634D01*
Y-19052D01*
X-117942Y-20744D01*
X-15752Y177036D02*
X-19138D01*
X-17445D01*
Y166880D01*
X-15752D01*
X-19138D01*
X-30987Y175344D02*
X-29294Y177036D01*
X-25909D01*
X-24216Y175344D01*
Y168572D01*
X-25909Y166880D01*
X-29294D01*
X-30987Y168572D01*
X-41144Y177036D02*
X-37758Y175344D01*
X-34373Y171958D01*
Y168572D01*
X-36066Y166880D01*
X-39451D01*
X-41144Y168572D01*
Y170265D01*
X-39451Y171958D01*
X-34373D01*
X-933Y78062D02*
X759Y79754D01*
X4145D01*
X5838Y78062D01*
Y71290D01*
X4145Y69598D01*
X759D01*
X-933Y71290D01*
X-4319Y69598D02*
X-7704D01*
X-6012D01*
Y79754D01*
X-4319Y78062D01*
X-12783D02*
X-14476Y79754D01*
X-17861D01*
X-19554Y78062D01*
Y71290D01*
X-17861Y69598D01*
X-14476D01*
X-12783Y71290D01*
Y78062D01*
X-24050Y-171956D02*
Y-161800D01*
X-29128D01*
X-30821Y-163492D01*
Y-166878D01*
X-29128Y-168571D01*
X-24050D01*
X-27435D02*
X-30821Y-171956D01*
X-34206D02*
Y-161800D01*
X-40978Y-171956D01*
Y-161800D01*
X-49441Y-171956D02*
Y-161800D01*
X-44363Y-166878D01*
X-51134D01*
X84410Y73658D02*
Y65194D01*
X82717Y63502D01*
X79332D01*
X77639Y65194D01*
Y73658D01*
X69175Y63502D02*
Y73658D01*
X74253Y68580D01*
X67482D01*
X63328Y227836D02*
Y219372D01*
X61635Y217680D01*
X58250D01*
X56557Y219372D01*
Y227836D01*
X53171Y226144D02*
X51478Y227836D01*
X48093D01*
X46400Y226144D01*
Y224451D01*
X48093Y222758D01*
X49786D01*
X48093D01*
X46400Y221065D01*
Y219372D01*
X48093Y217680D01*
X51478D01*
X53171Y219372D01*
X110318Y11432D02*
Y21588D01*
X105240D01*
X103547Y19896D01*
Y16510D01*
X105240Y14817D01*
X110318D01*
X106932D02*
X103547Y11432D01*
X100161Y21588D02*
X93390D01*
Y19896D01*
X100161Y13124D01*
Y11432D01*
X134702D02*
Y21588D01*
X129624D01*
X127931Y19896D01*
Y16510D01*
X129624Y14817D01*
X134702D01*
X131316D02*
X127931Y11432D01*
X117774Y21588D02*
X121160Y19896D01*
X124545Y16510D01*
Y13124D01*
X122852Y11432D01*
X119467D01*
X117774Y13124D01*
Y14817D01*
X119467Y16510D01*
X124545D01*
X-16428Y261114D02*
Y271270D01*
X-21506D01*
X-23199Y269578D01*
Y266192D01*
X-21506Y264499D01*
X-16428D01*
X-19814D02*
X-23199Y261114D01*
X-26585Y262806D02*
X-28278Y261114D01*
X-31663D01*
X-33356Y262806D01*
Y269578D01*
X-31663Y271270D01*
X-28278D01*
X-26585Y269578D01*
Y267885D01*
X-28278Y266192D01*
X-33356D01*
X134194Y322582D02*
Y332738D01*
X129116D01*
X127423Y331046D01*
Y327660D01*
X129116Y325967D01*
X134194D01*
X130808D02*
X127423Y322582D01*
X117266Y332738D02*
X124037D01*
Y327660D01*
X120652Y329353D01*
X118959D01*
X117266Y327660D01*
Y324274D01*
X118959Y322582D01*
X122344D01*
X124037Y324274D01*
X7194Y261114D02*
Y271270D01*
X2116D01*
X423Y269578D01*
Y266192D01*
X2116Y264499D01*
X7194D01*
X3808D02*
X423Y261114D01*
X-2963Y269578D02*
X-4656Y271270D01*
X-8041D01*
X-9734Y269578D01*
Y267885D01*
X-8041Y266192D01*
X-9734Y264499D01*
Y262806D01*
X-8041Y261114D01*
X-4656D01*
X-2963Y262806D01*
Y264499D01*
X-4656Y266192D01*
X-2963Y267885D01*
Y269578D01*
X-4656Y266192D02*
X-8041D01*
X110064Y322582D02*
Y332738D01*
X104986D01*
X103293Y331046D01*
Y327660D01*
X104986Y325967D01*
X110064D01*
X106678D02*
X103293Y322582D01*
X94829D02*
Y332738D01*
X99907Y327660D01*
X93136D01*
X22775Y78062D02*
X24468Y79754D01*
X27853D01*
X29546Y78062D01*
Y71290D01*
X27853Y69598D01*
X24468D01*
X22775Y71290D01*
X19389D02*
X17696Y69598D01*
X14311D01*
X12618Y71290D01*
Y78062D01*
X14311Y79754D01*
X17696D01*
X19389Y78062D01*
Y76369D01*
X17696Y74676D01*
X12618D01*
X25061Y269578D02*
X26754Y271270D01*
X30139D01*
X31832Y269578D01*
Y262806D01*
X30139Y261114D01*
X26754D01*
X25061Y262806D01*
X21675Y269578D02*
X19982Y271270D01*
X16597D01*
X14904Y269578D01*
Y267885D01*
X16597Y266192D01*
X14904Y264499D01*
Y262806D01*
X16597Y261114D01*
X19982D01*
X21675Y262806D01*
Y264499D01*
X19982Y266192D01*
X21675Y267885D01*
Y269578D01*
X19982Y266192D02*
X16597D01*
X-104314Y-7872D02*
Y2284D01*
X-109392D01*
X-111085Y592D01*
Y-2794D01*
X-109392Y-4487D01*
X-104314D01*
X-107700D02*
X-111085Y-7872D01*
X-121242D02*
X-114471D01*
X-121242Y-1101D01*
Y592D01*
X-119549Y2284D01*
X-116164D01*
X-114471Y592D01*
X72217Y151128D02*
X68832D01*
X70524D01*
Y140972D01*
X72217D01*
X68832D01*
X56982Y149436D02*
X58675Y151128D01*
X62060D01*
X63753Y149436D01*
Y142664D01*
X62060Y140972D01*
X58675D01*
X56982Y142664D01*
X53596Y140972D02*
X50211D01*
X51904D01*
Y151128D01*
X53596Y149436D01*
X74418Y-90172D02*
X71032D01*
X72725D01*
Y-100328D01*
X74418D01*
X71032D01*
X59183Y-91864D02*
X60876Y-90172D01*
X64261D01*
X65954Y-91864D01*
Y-98636D01*
X64261Y-100328D01*
X60876D01*
X59183Y-98636D01*
X49026Y-90172D02*
X55797D01*
Y-95250D01*
X52412Y-93557D01*
X50719D01*
X49026Y-95250D01*
Y-98636D01*
X50719Y-100328D01*
X54104D01*
X55797Y-98636D01*
X74418Y-134876D02*
X71032D01*
X72725D01*
Y-145032D01*
X74418D01*
X71032D01*
X59183Y-136568D02*
X60876Y-134876D01*
X64261D01*
X65954Y-136568D01*
Y-143340D01*
X64261Y-145032D01*
X60876D01*
X59183Y-143340D01*
X50719Y-145032D02*
Y-134876D01*
X55797Y-139954D01*
X49026D01*
X74418Y-4574D02*
X71032D01*
X72725D01*
Y-14730D01*
X74418D01*
X71032D01*
X59183Y-6266D02*
X60876Y-4574D01*
X64261D01*
X65954Y-6266D01*
Y-13038D01*
X64261Y-14730D01*
X60876D01*
X59183Y-13038D01*
X55797Y-6266D02*
X54104Y-4574D01*
X50719D01*
X49026Y-6266D01*
Y-7959D01*
X50719Y-9652D01*
X52412D01*
X50719D01*
X49026Y-11345D01*
Y-13038D01*
X50719Y-14730D01*
X54104D01*
X55797Y-13038D01*
X74418Y-48262D02*
X71032D01*
X72725D01*
Y-58418D01*
X74418D01*
X71032D01*
X59183Y-49954D02*
X60876Y-48262D01*
X64261D01*
X65954Y-49954D01*
Y-56726D01*
X64261Y-58418D01*
X60876D01*
X59183Y-56726D01*
X49026Y-58418D02*
X55797D01*
X49026Y-51647D01*
Y-49954D01*
X50719Y-48262D01*
X54104D01*
X55797Y-49954D01*
X-200094Y62990D02*
Y61298D01*
X-203479Y57912D01*
X-206865Y61298D01*
Y62990D01*
X-203479Y57912D02*
Y52834D01*
X-210250D02*
X-213636D01*
X-211943D01*
Y62990D01*
X-210250Y61298D01*
X-90850Y82040D02*
Y73576D01*
X-92543Y71884D01*
X-95928D01*
X-97621Y73576D01*
Y82040D01*
X-107778Y71884D02*
X-101007D01*
X-107778Y78655D01*
Y80348D01*
X-106085Y82040D01*
X-102700D01*
X-101007Y80348D01*
X-190077Y-27602D02*
X-188384Y-25910D01*
X-184999D01*
X-183306Y-27602D01*
Y-34374D01*
X-184999Y-36066D01*
X-188384D01*
X-190077Y-34374D01*
X-193463Y-25910D02*
X-200234D01*
Y-27602D01*
X-193463Y-34374D01*
Y-36066D01*
X-189569Y149436D02*
X-187876Y151128D01*
X-184491D01*
X-182798Y149436D01*
Y142664D01*
X-184491Y140972D01*
X-187876D01*
X-189569Y142664D01*
X-199726Y151128D02*
X-196340Y149436D01*
X-192955Y146050D01*
Y142664D01*
X-194648Y140972D01*
X-198033D01*
X-199726Y142664D01*
Y144357D01*
X-198033Y146050D01*
X-192955D01*
X-113369Y149436D02*
X-111676Y151128D01*
X-108291D01*
X-106598Y149436D01*
Y142664D01*
X-108291Y140972D01*
X-111676D01*
X-113369Y142664D01*
X-123526Y151128D02*
X-116755D01*
Y146050D01*
X-120140Y147743D01*
X-121833D01*
X-123526Y146050D01*
Y142664D01*
X-121833Y140972D01*
X-118448D01*
X-116755Y142664D01*
X-137245Y149436D02*
X-135552Y151128D01*
X-132167D01*
X-130474Y149436D01*
Y142664D01*
X-132167Y140972D01*
X-135552D01*
X-137245Y142664D01*
X-145709Y140972D02*
Y151128D01*
X-140631Y146050D01*
X-147402D01*
X-162137Y149436D02*
X-160444Y151128D01*
X-157059D01*
X-155366Y149436D01*
Y142664D01*
X-157059Y140972D01*
X-160444D01*
X-162137Y142664D01*
X-165523Y149436D02*
X-167216Y151128D01*
X-170601D01*
X-172294Y149436D01*
Y147743D01*
X-170601Y146050D01*
X-168908D01*
X-170601D01*
X-172294Y144357D01*
Y142664D01*
X-170601Y140972D01*
X-167216D01*
X-165523Y142664D01*
X168825Y135974D02*
X170518Y137666D01*
X173903D01*
X175596Y135974D01*
Y129202D01*
X173903Y127510D01*
X170518D01*
X168825Y129202D01*
X158668Y127510D02*
X165439D01*
X158668Y134281D01*
Y135974D01*
X160361Y137666D01*
X163746D01*
X165439Y135974D01*
X167640Y278468D02*
X169333Y280160D01*
X172718D01*
X174411Y278468D01*
Y271696D01*
X172718Y270004D01*
X169333D01*
X167640Y271696D01*
X164254Y270004D02*
X160869D01*
X162562D01*
Y280160D01*
X164254Y278468D01*
D14*
X51306Y253593D02*
Y258671D01*
X48767D01*
X47920Y257825D01*
Y256132D01*
X48767Y255286D01*
X51306D01*
X49613D02*
X47920Y253593D01*
X46228D02*
X44535D01*
X45381D01*
Y258671D01*
X46228Y257825D01*
X38610Y253593D02*
X41996D01*
X38610Y256978D01*
Y257825D01*
X39456Y258671D01*
X41149D01*
X41996Y257825D01*
X50798Y76455D02*
Y81533D01*
X48259D01*
X47412Y80687D01*
Y78994D01*
X48259Y78148D01*
X50798D01*
X49105D02*
X47412Y76455D01*
X45720D02*
X44027D01*
X44873D01*
Y81533D01*
X45720Y80687D01*
X41488D02*
X40641Y81533D01*
X38948D01*
X38102Y80687D01*
Y79840D01*
X38948Y78994D01*
X39795D01*
X38948D01*
X38102Y78148D01*
Y77301D01*
X38948Y76455D01*
X40641D01*
X41488Y77301D01*
M02*
