G04*
G04 #@! TF.GenerationSoftware,Altium Limited,Altium Designer,24.3.1 (35)*
G04*
G04 Layer_Color=128*
%FSLAX25Y25*%
%MOIN*%
G70*
G04*
G04 #@! TF.SameCoordinates,A7121B57-4D76-4085-BD87-85E80D54BB1B*
G04*
G04*
G04 #@! TF.FilePolarity,Positive*
G04*
G01*
G75*
%ADD62R,0.03937X0.05906*%
%ADD63R,0.07316X0.05927*%
%ADD64R,0.07087X0.03937*%
%ADD65R,0.00984X0.03764*%
%ADD66R,0.04158X0.00984*%
%ADD67R,0.07087X0.04528*%
%ADD68R,0.07795X0.02087*%
%ADD69R,0.06922X0.05140*%
%ADD70R,0.03347X0.02756*%
%ADD71R,0.06693X0.03740*%
%ADD72R,0.02559X0.06004*%
%ADD73R,0.04921X0.02362*%
%ADD74R,0.07284X0.03543*%
%ADD75R,0.07284X0.12598*%
%ADD76R,0.06693X0.03740*%
%ADD77R,0.06338X0.03764*%
%ADD78R,0.03543X0.01575*%
%ADD79R,0.03740X0.06693*%
D62*
X-50301Y-18300D02*
D03*
X-62899D02*
D03*
D63*
X-75400Y39788D02*
D03*
Y51412D02*
D03*
X65800Y58288D02*
D03*
Y69912D02*
D03*
X-75500Y-5312D02*
D03*
Y6312D02*
D03*
D64*
X-73743Y17879D02*
D03*
Y27721D02*
D03*
D65*
X-51347Y11046D02*
D03*
X-53316D02*
D03*
X-55284D02*
D03*
X-57253D02*
D03*
Y30754D02*
D03*
X-55284D02*
D03*
X-53316D02*
D03*
X-51347D02*
D03*
D66*
X-61202Y12042D02*
D03*
Y14010D02*
D03*
Y15979D02*
D03*
Y17947D02*
D03*
Y19916D02*
D03*
Y21884D02*
D03*
Y23853D02*
D03*
Y25821D02*
D03*
Y27790D02*
D03*
Y29758D02*
D03*
X-47398Y12042D02*
D03*
Y14010D02*
D03*
Y15979D02*
D03*
Y17947D02*
D03*
Y19916D02*
D03*
Y21884D02*
D03*
Y23853D02*
D03*
Y25821D02*
D03*
Y27790D02*
D03*
Y29758D02*
D03*
D67*
X30500Y122907D02*
D03*
Y111293D02*
D03*
X40000Y111293D02*
D03*
Y122907D02*
D03*
X49500Y111300D02*
D03*
Y122914D02*
D03*
X39900Y23607D02*
D03*
Y11993D02*
D03*
X49600D02*
D03*
Y23607D02*
D03*
D68*
X30295Y102700D02*
D03*
Y97700D02*
D03*
Y92700D02*
D03*
Y87700D02*
D03*
X49705D02*
D03*
Y92700D02*
D03*
Y97700D02*
D03*
Y102700D02*
D03*
X30395Y46500D02*
D03*
Y41500D02*
D03*
Y36500D02*
D03*
Y31500D02*
D03*
X49805D02*
D03*
Y36500D02*
D03*
Y41500D02*
D03*
Y46500D02*
D03*
D69*
X65800Y91181D02*
D03*
Y102019D02*
D03*
D70*
X17800Y39261D02*
D03*
Y34339D02*
D03*
Y97661D02*
D03*
Y92739D02*
D03*
D71*
X8100Y34888D02*
D03*
Y45912D02*
D03*
X-1300Y34888D02*
D03*
Y45912D02*
D03*
X9200Y88235D02*
D03*
Y99259D02*
D03*
X-64400Y40088D02*
D03*
Y51112D02*
D03*
X-45291Y51012D02*
D03*
Y39988D02*
D03*
X-54900Y51112D02*
D03*
Y40088D02*
D03*
D72*
X-2200Y57023D02*
D03*
X2800D02*
D03*
X7800D02*
D03*
X12800D02*
D03*
Y78377D02*
D03*
X7800D02*
D03*
X2800D02*
D03*
X-2200D02*
D03*
D73*
X43321Y-7540D02*
D03*
Y-3800D02*
D03*
Y-60D02*
D03*
X33479D02*
D03*
Y-3800D02*
D03*
Y-7540D02*
D03*
Y-58940D02*
D03*
Y-55200D02*
D03*
Y-51460D02*
D03*
X43321D02*
D03*
Y-55200D02*
D03*
Y-58940D02*
D03*
X33479Y-41807D02*
D03*
Y-38067D02*
D03*
Y-34326D02*
D03*
X43321D02*
D03*
Y-38067D02*
D03*
Y-41807D02*
D03*
Y-24674D02*
D03*
Y-20933D02*
D03*
Y-17193D02*
D03*
X33479D02*
D03*
Y-20933D02*
D03*
Y-24674D02*
D03*
D74*
X49605Y76755D02*
D03*
Y67700D02*
D03*
Y58645D02*
D03*
D75*
X25195Y67700D02*
D03*
D76*
X-497Y88334D02*
D03*
Y99161D02*
D03*
D77*
X-9800Y98870D02*
D03*
Y88625D02*
D03*
D78*
X-11450Y-83676D02*
D03*
X-17750D02*
D03*
X-11450Y-86825D02*
D03*
X-17750D02*
D03*
X-11450Y-89975D02*
D03*
X-17750D02*
D03*
X-11450Y-93124D02*
D03*
X-17750D02*
D03*
X-11450Y-12476D02*
D03*
X-17750D02*
D03*
X-11450Y-15625D02*
D03*
X-17750D02*
D03*
X-11450Y-18775D02*
D03*
X-17750D02*
D03*
X-11450Y-21924D02*
D03*
X-17750D02*
D03*
Y-60324D02*
D03*
X-11450D02*
D03*
X-17750Y-57175D02*
D03*
X-11450D02*
D03*
X-17750Y-54025D02*
D03*
X-11450D02*
D03*
X-17750Y-50876D02*
D03*
X-11450D02*
D03*
D79*
X-51187Y-1000D02*
D03*
X-62014D02*
D03*
Y-9500D02*
D03*
X-51187D02*
D03*
M02*
