G04*
G04 #@! TF.GenerationSoftware,Altium Limited,Altium Designer,24.3.1 (35)*
G04*
G04 Layer_Physical_Order=2*
G04 Layer_Color=16711680*
%FSLAX25Y25*%
%MOIN*%
G70*
G04*
G04 #@! TF.SameCoordinates,A7121B57-4D76-4085-BD87-85E80D54BB1B*
G04*
G04*
G04 #@! TF.FilePolarity,Positive*
G04*
G01*
G75*
%ADD14C,0.01000*%
%ADD46C,0.03000*%
%ADD47C,0.01500*%
%ADD48R,0.05937X0.05937*%
%ADD49R,0.05937X0.05937*%
%ADD50C,0.06600*%
G04:AMPARAMS|DCode=51|XSize=59.37mil|YSize=59.37mil|CornerRadius=0mil|HoleSize=0mil|Usage=FLASHONLY|Rotation=180.000|XOffset=0mil|YOffset=0mil|HoleType=Round|Shape=Octagon|*
%AMOCTAGOND51*
4,1,8,-0.02969,0.01484,-0.02969,-0.01484,-0.01484,-0.02969,0.01484,-0.02969,0.02969,-0.01484,0.02969,0.01484,0.01484,0.02969,-0.01484,0.02969,-0.02969,0.01484,0.0*
%
%ADD51OCTAGOND51*%

%ADD52C,0.05937*%
%ADD53C,0.04362*%
%ADD54R,0.05118X0.05118*%
%ADD55C,0.09803*%
%ADD56C,0.05118*%
%ADD57C,0.07087*%
%ADD58R,0.07087X0.07087*%
%ADD59C,0.01968*%
%ADD60C,0.05000*%
%ADD61C,0.19685*%
%ADD62R,0.03937X0.05906*%
%ADD63R,0.07316X0.05927*%
%ADD64R,0.07087X0.03937*%
%ADD65R,0.00984X0.03764*%
%ADD66R,0.04158X0.00984*%
%ADD67R,0.07087X0.04528*%
%ADD68R,0.07795X0.02087*%
%ADD69R,0.06922X0.05140*%
%ADD70R,0.03347X0.02756*%
%ADD71R,0.06693X0.03740*%
%ADD72R,0.02559X0.06004*%
%ADD73R,0.04921X0.02362*%
%ADD74R,0.07284X0.03543*%
%ADD75R,0.07284X0.12598*%
%ADD76R,0.06693X0.03740*%
%ADD77R,0.06338X0.03764*%
%ADD78R,0.03543X0.01575*%
%ADD79R,0.03740X0.06693*%
G36*
X91446Y157266D02*
X92348Y156893D01*
X93160Y156350D01*
X93850Y155660D01*
X94393Y154848D01*
X94766Y153946D01*
X94957Y152988D01*
Y152500D01*
Y-152500D01*
Y-152988D01*
X94766Y-153946D01*
X94393Y-154848D01*
X93850Y-155660D01*
X93160Y-156350D01*
X92348Y-156893D01*
X91446Y-157266D01*
X90488Y-157457D01*
X-90488D01*
X-91446Y-157266D01*
X-92348Y-156893D01*
X-93160Y-156350D01*
X-93850Y-155660D01*
X-94393Y-154848D01*
X-94766Y-153946D01*
X-94957Y-152988D01*
Y-152500D01*
Y-26733D01*
X-94457Y-26525D01*
X-92032Y-28950D01*
X-91536Y-29281D01*
X-91066Y-29375D01*
X-90958Y-29700D01*
X-90963Y-29893D01*
X-91537Y-30224D01*
X-92276Y-30963D01*
X-92798Y-31868D01*
X-93068Y-32877D01*
Y-33922D01*
X-92798Y-34932D01*
X-92276Y-35837D01*
X-91537Y-36576D01*
X-90632Y-37098D01*
X-89622Y-37369D01*
X-88578D01*
X-87568Y-37098D01*
X-86663Y-36576D01*
X-85924Y-35837D01*
X-85402Y-34932D01*
X-85132Y-33922D01*
Y-32877D01*
X-85402Y-31868D01*
X-85924Y-30963D01*
X-86663Y-30224D01*
X-87229Y-29898D01*
X-87095Y-29398D01*
X-82083D01*
X-81497Y-29281D01*
X-81001Y-28950D01*
X-66346Y-14295D01*
X-65868Y-14524D01*
Y-19673D01*
X-66134Y-19793D01*
X-66368Y-19826D01*
X-66876Y-19318D01*
X-67500Y-19059D01*
Y-21000D01*
Y-22941D01*
X-66876Y-22682D01*
X-66368Y-22174D01*
X-66337Y-22178D01*
X-65868Y-22253D01*
Y-22253D01*
X-59931D01*
Y-19816D01*
X-59415Y-19713D01*
X-58919Y-19381D01*
X-54261Y-14724D01*
X-53929Y-14227D01*
X-53853Y-13846D01*
X-51830D01*
Y-14347D01*
X-53269D01*
Y-22253D01*
X-47332D01*
Y-14347D01*
X-48771D01*
Y-13846D01*
X-48317D01*
Y-5347D01*
Y-829D01*
X-44700D01*
X-44115Y-713D01*
X-43619Y-381D01*
X-34319Y8919D01*
X-33987Y9415D01*
X-33871Y10000D01*
Y19667D01*
X-30906Y22632D01*
X-27116D01*
X-26623Y23124D01*
X-26161Y22933D01*
Y19927D01*
X-26623Y19735D01*
X-26663Y19776D01*
X-27568Y20298D01*
X-28578Y20569D01*
X-29623D01*
X-30632Y20298D01*
X-31537Y19776D01*
X-32276Y19037D01*
X-32798Y18132D01*
X-33068Y17122D01*
Y16078D01*
X-32798Y15068D01*
X-32276Y14163D01*
X-31537Y13424D01*
X-30632Y12902D01*
X-29623Y12631D01*
X-28578D01*
X-27568Y12902D01*
X-26663Y13424D01*
X-26623Y13465D01*
X-26161Y13273D01*
Y9927D01*
X-26623Y9735D01*
X-26663Y9776D01*
X-27568Y10298D01*
X-28578Y10569D01*
X-29623D01*
X-30632Y10298D01*
X-31537Y9776D01*
X-32276Y9037D01*
X-32798Y8132D01*
X-33068Y7123D01*
Y6078D01*
X-32798Y5068D01*
X-32276Y4163D01*
X-31537Y3424D01*
X-30632Y2902D01*
X-29623Y2631D01*
X-28578D01*
X-27568Y2902D01*
X-26663Y3424D01*
X-26215Y3873D01*
X-25740Y4014D01*
X-25555Y3864D01*
X-11465Y-10226D01*
X-11656Y-10688D01*
X-14222D01*
Y-11976D01*
X-11450D01*
Y-12976D01*
X-14222D01*
Y-12982D01*
X-14722Y-13250D01*
X-14978Y-13087D01*
Y-12976D01*
X-17750D01*
Y-12476D01*
X-18250D01*
Y-10688D01*
X-20521D01*
Y-12163D01*
X-20983Y-12354D01*
X-26626Y-6711D01*
Y-6538D01*
X-25924Y-5837D01*
X-25402Y-4932D01*
X-25131Y-3923D01*
Y-2877D01*
X-25402Y-1868D01*
X-25924Y-963D01*
X-26663Y-224D01*
X-27568Y298D01*
X-28578Y569D01*
X-29623D01*
X-30632Y298D01*
X-31537Y-224D01*
X-32276Y-963D01*
X-32798Y-1868D01*
X-33068Y-2877D01*
Y-3923D01*
X-32798Y-4932D01*
X-32276Y-5837D01*
X-31537Y-6576D01*
X-30632Y-7098D01*
X-29683Y-7352D01*
X-29568Y-7930D01*
X-29237Y-8426D01*
X-28731Y-8931D01*
X-28938Y-9431D01*
X-29623D01*
X-30632Y-9702D01*
X-31537Y-10224D01*
X-32276Y-10963D01*
X-32798Y-11868D01*
X-33068Y-12878D01*
Y-13923D01*
X-32798Y-14932D01*
X-32797Y-14934D01*
X-34650Y-16787D01*
X-34982Y-17283D01*
X-35098Y-17868D01*
Y-25251D01*
X-34982Y-25836D01*
X-34650Y-26332D01*
X-32032Y-28950D01*
X-31536Y-29281D01*
X-31066Y-29375D01*
X-30958Y-29700D01*
X-30963Y-29893D01*
X-31537Y-30224D01*
X-32276Y-30963D01*
X-32798Y-31868D01*
X-33068Y-32877D01*
Y-33922D01*
X-32798Y-34932D01*
X-32276Y-35837D01*
X-31537Y-36576D01*
X-30632Y-37098D01*
X-29623Y-37369D01*
X-28578D01*
X-27568Y-37098D01*
X-27566Y-37097D01*
X-25587Y-39076D01*
Y-40594D01*
X-26087Y-40801D01*
X-26663Y-40224D01*
X-27568Y-39702D01*
X-28578Y-39432D01*
X-29623D01*
X-30632Y-39702D01*
X-31537Y-40224D01*
X-32276Y-40963D01*
X-32798Y-41868D01*
X-33068Y-42878D01*
Y-43922D01*
X-32798Y-44932D01*
X-32797Y-44934D01*
X-34650Y-46787D01*
X-34982Y-47283D01*
X-35098Y-47868D01*
Y-55251D01*
X-34982Y-55836D01*
X-34650Y-56332D01*
X-32032Y-58950D01*
X-31536Y-59281D01*
X-31066Y-59375D01*
X-30958Y-59700D01*
X-30963Y-59893D01*
X-31537Y-60224D01*
X-32276Y-60963D01*
X-32798Y-61868D01*
X-33068Y-62878D01*
Y-63923D01*
X-32798Y-64932D01*
X-32276Y-65837D01*
X-31537Y-66576D01*
X-30632Y-67098D01*
X-29623Y-67369D01*
X-28578D01*
X-27568Y-67098D01*
X-27566Y-67097D01*
X-25637Y-69026D01*
Y-70544D01*
X-26137Y-70751D01*
X-26663Y-70224D01*
X-27568Y-69702D01*
X-28578Y-69432D01*
X-29623D01*
X-30632Y-69702D01*
X-31537Y-70224D01*
X-32276Y-70963D01*
X-32798Y-71868D01*
X-33068Y-72878D01*
Y-73922D01*
X-32798Y-74932D01*
X-32797Y-74934D01*
X-34650Y-76787D01*
X-34982Y-77283D01*
X-35098Y-77868D01*
Y-85251D01*
X-34982Y-85836D01*
X-34650Y-86332D01*
X-31333Y-89649D01*
X-31399Y-90145D01*
X-31537Y-90224D01*
X-32276Y-90963D01*
X-32798Y-91868D01*
X-33068Y-92878D01*
Y-93923D01*
X-32798Y-94932D01*
X-32276Y-95837D01*
X-31537Y-96576D01*
X-30632Y-97098D01*
X-29623Y-97369D01*
X-28578D01*
X-27568Y-97098D01*
X-26663Y-96576D01*
X-25924Y-95837D01*
X-25402Y-94932D01*
X-25131Y-93923D01*
Y-93865D01*
X-24670Y-93674D01*
X-24138Y-94206D01*
X-23641Y-94537D01*
X-23056Y-94654D01*
X-20949D01*
X-20942Y-94690D01*
X-20721Y-95021D01*
X-20390Y-95242D01*
X-20000Y-95320D01*
X-14500D01*
X-14110Y-95242D01*
X-13779Y-95021D01*
X-13706Y-94912D01*
X-11950D01*
Y-93124D01*
X-11450D01*
Y-92624D01*
X-8679D01*
Y-91762D01*
Y-90475D01*
X-11450D01*
Y-89475D01*
X-8679D01*
Y-88613D01*
Y-87325D01*
X-11450D01*
Y-86325D01*
X-8679D01*
Y-85463D01*
Y-84176D01*
X-11450D01*
Y-83676D01*
X-11950D01*
Y-81888D01*
X-14222D01*
Y-83677D01*
X-14644Y-84040D01*
X-14978Y-83995D01*
Y-81888D01*
X-17250D01*
Y-83676D01*
X-18250D01*
Y-81888D01*
X-20521D01*
Y-82485D01*
X-20983Y-82677D01*
X-22578Y-81082D01*
Y-68392D01*
X-22695Y-67807D01*
X-23026Y-67311D01*
X-25403Y-64934D01*
X-25402Y-64932D01*
X-25131Y-63923D01*
Y-62878D01*
X-25272Y-62354D01*
X-24888Y-61854D01*
X-21049D01*
X-21042Y-61890D01*
X-20821Y-62221D01*
X-20490Y-62442D01*
X-20100Y-62520D01*
X-15400D01*
X-15010Y-62442D01*
X-14679Y-62221D01*
X-14678Y-62219D01*
X-14222Y-62112D01*
X-14051Y-62112D01*
X-11950D01*
Y-60324D01*
X-11450D01*
Y-59824D01*
X-8679D01*
Y-58962D01*
Y-57675D01*
X-11450D01*
Y-56675D01*
X-8679D01*
Y-55813D01*
Y-54525D01*
X-11450D01*
Y-53525D01*
X-8679D01*
Y-52663D01*
Y-51376D01*
X-11450D01*
X-14222D01*
Y-51516D01*
X-14722Y-51759D01*
X-14978Y-51565D01*
Y-51376D01*
X-17750D01*
X-20521D01*
Y-51779D01*
X-20821Y-51979D01*
X-21042Y-52310D01*
X-21079Y-52496D01*
X-22342D01*
X-22528Y-52310D01*
Y-38443D01*
X-22645Y-37857D01*
X-22976Y-37361D01*
X-25403Y-34934D01*
X-25402Y-34932D01*
X-25131Y-33922D01*
Y-32877D01*
X-25402Y-31868D01*
X-25924Y-30963D01*
X-26663Y-30224D01*
X-27229Y-29898D01*
X-27095Y-29398D01*
X-24578D01*
X-23993Y-29281D01*
X-23496Y-28950D01*
X-18666Y-24120D01*
X-15300D01*
X-14910Y-24042D01*
X-14656Y-23872D01*
X-14399Y-23777D01*
X-14130Y-23712D01*
X-11950Y-23712D01*
Y-21924D01*
X-10950D01*
Y-23712D01*
X-8679D01*
Y-22006D01*
X-8217Y-21815D01*
X2593Y-32625D01*
X3089Y-32956D01*
X3457Y-33029D01*
Y-36550D01*
X8000D01*
X12543D01*
Y-35201D01*
X13005Y-35010D01*
X18102Y-40107D01*
Y-50573D01*
X18218Y-51158D01*
X18550Y-51654D01*
X29398Y-62503D01*
X29894Y-62834D01*
X30480Y-62951D01*
X36478D01*
X37063Y-62834D01*
X37559Y-62503D01*
X38769Y-61293D01*
X38776Y-61289D01*
X38982Y-61262D01*
X39404Y-61366D01*
X39413Y-61379D01*
X39418Y-61383D01*
X39421Y-61387D01*
X39583Y-61493D01*
X39744Y-61600D01*
X39749Y-61601D01*
X39754Y-61605D01*
X39944Y-61640D01*
X40134Y-61678D01*
X40139Y-61677D01*
X40145Y-61678D01*
X41436Y-61663D01*
X41792Y-62015D01*
Y-68006D01*
X41908Y-68591D01*
X42240Y-69087D01*
X50201Y-77049D01*
Y-89430D01*
X50317Y-90016D01*
X50649Y-90512D01*
X54641Y-94504D01*
Y-94720D01*
X54944Y-95450D01*
X55045Y-95551D01*
X54838Y-96051D01*
X25000D01*
X24024Y-96245D01*
X23198Y-96798D01*
X15298Y-104698D01*
X14745Y-105525D01*
X14551Y-106500D01*
Y-117644D01*
X12032Y-120164D01*
X11589D01*
X10790Y-119365D01*
X9754Y-118766D01*
X8598Y-118457D01*
X7402D01*
X7133Y-118529D01*
X6396Y-117791D01*
X6655Y-117343D01*
X7402Y-117543D01*
X8598D01*
X9754Y-117234D01*
X10790Y-116636D01*
X11636Y-115790D01*
X12234Y-114754D01*
X12543Y-113598D01*
Y-112402D01*
X12234Y-111246D01*
X11636Y-110210D01*
X10790Y-109364D01*
X9754Y-108766D01*
X8598Y-108457D01*
X7402D01*
X6246Y-108766D01*
X5210Y-109364D01*
X4968Y-109607D01*
X4506Y-109416D01*
Y-106584D01*
X4968Y-106393D01*
X5210Y-106635D01*
X6246Y-107234D01*
X7402Y-107543D01*
X8598D01*
X9754Y-107234D01*
X10790Y-106635D01*
X11636Y-105790D01*
X12234Y-104754D01*
X12543Y-103598D01*
Y-102402D01*
X12234Y-101246D01*
X11636Y-100210D01*
X10790Y-99365D01*
X9754Y-98766D01*
X8598Y-98457D01*
X7402D01*
X6246Y-98766D01*
X5210Y-99365D01*
X4968Y-99607D01*
X4506Y-99416D01*
Y-97543D01*
X7500D01*
Y-93000D01*
Y-88457D01*
X4506D01*
Y-80634D01*
X4968Y-80443D01*
X5210Y-80686D01*
X6246Y-81284D01*
X7402Y-81593D01*
X8598D01*
X9754Y-81284D01*
X10790Y-80686D01*
X11636Y-79840D01*
X12234Y-78804D01*
X12543Y-77648D01*
Y-76452D01*
X12234Y-75296D01*
X11636Y-74260D01*
X10790Y-73414D01*
X9754Y-72816D01*
X8598Y-72507D01*
X7402D01*
X6655Y-72707D01*
X6396Y-72259D01*
X7133Y-71521D01*
X7402Y-71593D01*
X8598D01*
X9754Y-71284D01*
X10790Y-70685D01*
X11636Y-69840D01*
X12234Y-68804D01*
X12543Y-67648D01*
Y-66452D01*
X12234Y-65296D01*
X11636Y-64260D01*
X10790Y-63415D01*
X9754Y-62816D01*
X8598Y-62507D01*
X7402D01*
X6246Y-62816D01*
X5210Y-63415D01*
X4364Y-64260D01*
X3766Y-65296D01*
X3457Y-66452D01*
Y-67648D01*
X3529Y-67917D01*
X154Y-71291D01*
X-398Y-72118D01*
X-592Y-73093D01*
Y-116957D01*
X-398Y-117932D01*
X154Y-118759D01*
X1384Y-119989D01*
X1193Y-120451D01*
X-69344D01*
X-78198Y-111598D01*
X-79024Y-111045D01*
X-80000Y-110851D01*
X-85606D01*
X-85659Y-110760D01*
X-86460Y-109959D01*
X-87440Y-109393D01*
X-88534Y-109100D01*
X-89666D01*
X-90760Y-109393D01*
X-91740Y-109959D01*
X-92541Y-110760D01*
X-93107Y-111740D01*
X-93400Y-112834D01*
Y-113966D01*
X-93107Y-115060D01*
X-92541Y-116040D01*
X-91740Y-116841D01*
X-90760Y-117407D01*
X-89666Y-117700D01*
X-88534D01*
X-87440Y-117407D01*
X-86460Y-116841D01*
X-85659Y-116040D01*
X-85606Y-115949D01*
X-81056D01*
X-78451Y-118554D01*
X-78608Y-119104D01*
X-79124Y-119318D01*
X-79682Y-119876D01*
X-79941Y-120500D01*
X-78000D01*
Y-121000D01*
X-77500D01*
Y-122941D01*
X-76876Y-122682D01*
X-76318Y-122124D01*
X-76104Y-121608D01*
X-75554Y-121451D01*
X-72202Y-124802D01*
X-71375Y-125355D01*
X-70400Y-125549D01*
X4225D01*
X4364Y-125790D01*
X5210Y-126636D01*
X6246Y-127234D01*
X7402Y-127543D01*
X8598D01*
X9754Y-127234D01*
X10790Y-126636D01*
X11636Y-125790D01*
X11941Y-125261D01*
X13088D01*
X14063Y-125067D01*
X14890Y-124515D01*
X18902Y-120502D01*
X19455Y-119676D01*
X19649Y-118700D01*
Y-107556D01*
X26056Y-101149D01*
X64043D01*
X65018Y-100955D01*
X65845Y-100402D01*
X67602Y-98645D01*
X68155Y-97818D01*
X68349Y-96843D01*
Y54324D01*
X70458D01*
Y62251D01*
X61142D01*
Y61194D01*
X54246D01*
Y61416D01*
X53903D01*
X53790Y61492D01*
X53400Y61570D01*
X46622D01*
X43935Y64257D01*
Y79101D01*
X43857Y79492D01*
X43849Y79503D01*
X43842Y79540D01*
X43621Y79871D01*
X43290Y80092D01*
X42900Y80170D01*
X38929D01*
Y83680D01*
X54088D01*
X54295Y83180D01*
X50691Y79576D01*
X49876D01*
X49630Y79527D01*
X44963D01*
Y73984D01*
X54246D01*
Y75922D01*
X59656Y81331D01*
X64919D01*
X64951Y81299D01*
X65749Y80839D01*
X66639Y80600D01*
X67561D01*
X68451Y80839D01*
X69249Y81299D01*
X69901Y81951D01*
X70362Y82749D01*
X70600Y83639D01*
Y84561D01*
X70362Y85451D01*
X69901Y86249D01*
X69649Y86501D01*
Y87611D01*
X70261D01*
Y94751D01*
X61339D01*
Y87611D01*
X64551D01*
Y86501D01*
X64480Y86429D01*
X58600D01*
X57625Y86235D01*
X56798Y85683D01*
X55920Y84805D01*
X55420Y85012D01*
Y88398D01*
X59584Y92562D01*
X59915Y93058D01*
X60032Y93643D01*
Y105773D01*
X59915Y106358D01*
X59584Y106854D01*
X55821Y110618D01*
X55324Y110949D01*
X54739Y111066D01*
X54043D01*
Y114564D01*
X44957D01*
Y114564D01*
X44954Y114564D01*
X44460Y114557D01*
X35457D01*
X35457Y114557D01*
X35043Y114557D01*
Y114557D01*
X34957Y114557D01*
X25957D01*
Y108029D01*
X32880D01*
X33875Y107035D01*
X33684Y106573D01*
X23061D01*
X22767Y106866D01*
X22038Y107168D01*
X21249D01*
X20519Y106866D01*
X19961Y106308D01*
X19659Y105579D01*
Y104790D01*
X19719Y104645D01*
X19441Y104229D01*
X14117D01*
X13532Y104113D01*
X13036Y103781D01*
X11384Y102129D01*
X4854D01*
Y100788D01*
X3850D01*
Y102031D01*
X-1204D01*
X-36455Y137281D01*
X-36951Y137613D01*
X-37536Y137729D01*
X-44623D01*
X-44676Y137782D01*
X-45405Y138084D01*
X-46195D01*
X-46924Y137782D01*
X-47482Y137224D01*
X-47784Y136495D01*
Y135705D01*
X-47482Y134976D01*
X-46924Y134418D01*
X-46195Y134116D01*
X-45405D01*
X-44676Y134418D01*
X-44423Y134671D01*
X-38170D01*
X-5751Y102252D01*
X-5958Y101752D01*
X-9300D01*
Y99370D01*
X-5631D01*
Y101332D01*
X-5175Y101531D01*
X-4843Y101267D01*
Y96290D01*
X3850D01*
Y97730D01*
X4854D01*
Y96389D01*
X13546D01*
Y99966D01*
X14751Y101171D01*
X24616D01*
Y99379D01*
X23427D01*
X23124Y99682D01*
X22395Y99984D01*
X21605D01*
X20973Y99722D01*
X20634Y99865D01*
X20473Y99986D01*
Y100039D01*
X15127D01*
Y95283D01*
X15127D01*
Y95117D01*
X15127D01*
Y90361D01*
X20473D01*
Y90813D01*
X20634Y90935D01*
X20973Y91078D01*
X21605Y90816D01*
X22395D01*
X23124Y91118D01*
X23227Y91221D01*
X24616D01*
Y88900D01*
X24694Y88510D01*
X24915Y88179D01*
X25245Y87958D01*
X25398Y87928D01*
Y87928D01*
X25636Y87880D01*
X30295D01*
Y87700D01*
X30795D01*
Y85657D01*
X34401D01*
X34780Y85278D01*
Y84700D01*
X34858Y84310D01*
X35079Y83979D01*
X35410Y83758D01*
X35800Y83680D01*
X35871D01*
Y80170D01*
X32400D01*
X32010Y80092D01*
X31679Y79871D01*
X31458Y79540D01*
X31380Y79150D01*
Y56650D01*
X31458Y56260D01*
X31466Y56248D01*
X31473Y56211D01*
X31694Y55880D01*
X32025Y55659D01*
X32415Y55582D01*
X35671D01*
Y49420D01*
X25736D01*
X25346Y49342D01*
X25015Y49121D01*
X24794Y48790D01*
X24716Y48400D01*
Y48029D01*
X12447D01*
Y48782D01*
X3754D01*
Y47441D01*
X3046D01*
Y48782D01*
X229D01*
Y52580D01*
X750D01*
X1028Y52165D01*
X916Y51895D01*
Y51105D01*
X1218Y50376D01*
X1776Y49818D01*
X2505Y49516D01*
X3295D01*
X4024Y49818D01*
X4582Y50376D01*
X4884Y51105D01*
Y51895D01*
X4772Y52165D01*
X5050Y52580D01*
X11287D01*
Y52521D01*
X11403Y51936D01*
X11735Y51439D01*
X12516Y50658D01*
Y50442D01*
X12818Y49713D01*
X13376Y49155D01*
X14105Y48853D01*
X14895D01*
X15624Y49155D01*
X16182Y49713D01*
X16484Y50442D01*
Y51232D01*
X16182Y51961D01*
X15624Y52519D01*
X15556Y52547D01*
X15403Y53152D01*
X15442Y53210D01*
X15520Y53600D01*
Y73300D01*
X15442Y73690D01*
X15267Y73953D01*
X15080Y74375D01*
Y77877D01*
X12800D01*
Y78877D01*
X15080D01*
Y82379D01*
X15080Y82379D01*
X15080D01*
X15080Y82379D01*
X15171Y82841D01*
X15302Y82896D01*
X15860Y83454D01*
X16162Y84183D01*
Y84973D01*
X15860Y85702D01*
X15302Y86260D01*
X14573Y86562D01*
X13783D01*
X13546Y86720D01*
Y87735D01*
X9200D01*
X4854D01*
Y85365D01*
X8749D01*
X8941Y84903D01*
X7309Y83271D01*
X7007Y82820D01*
X4329D01*
Y84513D01*
X4213Y85098D01*
X3881Y85595D01*
X3879Y85597D01*
Y86964D01*
X3850Y87112D01*
Y91204D01*
X-4843D01*
Y89863D01*
X-5631D01*
Y91507D01*
X-13969D01*
Y85743D01*
X-5631D01*
Y86804D01*
X-4843D01*
Y85464D01*
X-1796D01*
X-1604Y85002D01*
X-1682Y84924D01*
X-1984Y84195D01*
Y83405D01*
X-1914Y83235D01*
X-2192Y82820D01*
X-3900D01*
X-4290Y82742D01*
X-4621Y82521D01*
X-4842Y82190D01*
X-4920Y81800D01*
Y53600D01*
X-4842Y53210D01*
X-4621Y52879D01*
X-4290Y52658D01*
X-3900Y52580D01*
X-2829D01*
Y48782D01*
X-5646D01*
Y43042D01*
X3046D01*
Y44382D01*
X3754D01*
Y43042D01*
X6571D01*
Y41943D01*
X6687Y41358D01*
X7019Y40862D01*
X9660Y38220D01*
X9469Y37758D01*
X8600D01*
Y34888D01*
Y32018D01*
X12269D01*
X12418Y31829D01*
X12176Y31329D01*
X-9267D01*
X-10502Y32565D01*
Y58579D01*
X-10618Y59164D01*
X-10950Y59660D01*
X-15671Y64381D01*
Y104700D01*
X-15787Y105285D01*
X-16119Y105781D01*
X-25403Y115066D01*
X-25402Y115068D01*
X-25131Y116077D01*
Y117122D01*
X-25402Y118132D01*
X-25924Y119037D01*
X-26663Y119776D01*
X-27568Y120298D01*
X-28578Y120569D01*
X-29623D01*
X-30632Y120298D01*
X-31537Y119776D01*
X-32276Y119037D01*
X-32798Y118132D01*
X-33068Y117122D01*
Y116077D01*
X-32798Y115068D01*
X-32276Y114163D01*
X-31537Y113424D01*
X-30632Y112902D01*
X-29623Y112631D01*
X-28578D01*
X-27568Y112902D01*
X-27566Y112903D01*
X-18729Y104067D01*
Y99046D01*
X-19191Y98854D01*
X-25403Y105066D01*
X-25402Y105068D01*
X-25131Y106078D01*
Y107123D01*
X-25402Y108132D01*
X-25924Y109037D01*
X-26663Y109776D01*
X-27568Y110298D01*
X-28578Y110568D01*
X-29623D01*
X-30632Y110298D01*
X-31537Y109776D01*
X-32276Y109037D01*
X-32798Y108132D01*
X-33068Y107123D01*
Y106078D01*
X-32798Y105068D01*
X-32276Y104163D01*
X-31537Y103424D01*
X-30632Y102902D01*
X-29623Y102631D01*
X-28578D01*
X-27568Y102902D01*
X-27566Y102903D01*
X-20529Y95867D01*
Y90846D01*
X-20991Y90654D01*
X-25403Y95066D01*
X-25402Y95068D01*
X-25131Y96078D01*
Y97123D01*
X-25402Y98132D01*
X-25924Y99037D01*
X-26663Y99776D01*
X-27568Y100298D01*
X-28578Y100568D01*
X-29623D01*
X-30632Y100298D01*
X-31537Y99776D01*
X-32276Y99037D01*
X-32798Y98132D01*
X-33068Y97123D01*
Y96078D01*
X-32798Y95068D01*
X-32276Y94163D01*
X-31537Y93424D01*
X-30632Y92902D01*
X-29623Y92632D01*
X-28578D01*
X-27568Y92902D01*
X-27566Y92903D01*
X-22329Y87666D01*
Y82646D01*
X-22791Y82454D01*
X-25403Y85066D01*
X-25402Y85068D01*
X-25131Y86077D01*
Y87122D01*
X-25402Y88132D01*
X-25924Y89037D01*
X-26663Y89776D01*
X-27568Y90298D01*
X-28578Y90569D01*
X-29623D01*
X-30632Y90298D01*
X-31537Y89776D01*
X-32276Y89037D01*
X-32798Y88132D01*
X-33068Y87122D01*
Y86077D01*
X-32798Y85068D01*
X-32276Y84163D01*
X-31537Y83424D01*
X-30632Y82902D01*
X-29623Y82631D01*
X-28578D01*
X-27568Y82902D01*
X-27566Y82903D01*
X-24129Y79466D01*
Y74446D01*
X-24591Y74254D01*
X-25403Y75066D01*
X-25402Y75068D01*
X-25131Y76078D01*
Y77122D01*
X-25402Y78132D01*
X-25924Y79037D01*
X-26663Y79776D01*
X-27568Y80298D01*
X-28578Y80568D01*
X-29623D01*
X-30632Y80298D01*
X-31537Y79776D01*
X-32276Y79037D01*
X-32798Y78132D01*
X-33068Y77122D01*
Y76078D01*
X-32798Y75068D01*
X-32276Y74163D01*
X-31537Y73424D01*
X-30632Y72902D01*
X-29623Y72632D01*
X-28578D01*
X-27568Y72902D01*
X-27566Y72903D01*
X-25929Y71267D01*
Y69695D01*
X-26391Y69504D01*
X-26663Y69776D01*
X-27568Y70298D01*
X-28578Y70569D01*
X-29623D01*
X-30632Y70298D01*
X-31537Y69776D01*
X-32276Y69037D01*
X-32798Y68132D01*
X-33068Y67123D01*
Y66078D01*
X-32798Y65068D01*
X-32276Y64163D01*
X-31537Y63424D01*
X-30632Y62902D01*
X-29842Y62690D01*
Y62132D01*
X-29725Y61546D01*
X-29406Y61068D01*
X-29449Y60849D01*
X-29565Y60568D01*
X-29623D01*
X-30632Y60298D01*
X-31537Y59776D01*
X-32276Y59037D01*
X-32798Y58132D01*
X-33068Y57122D01*
Y56077D01*
X-32798Y55068D01*
X-32276Y54163D01*
X-31537Y53424D01*
X-30632Y52902D01*
X-29623Y52631D01*
X-28578D01*
X-27568Y52902D01*
X-27566Y52903D01*
X-24361Y49698D01*
Y44677D01*
X-24823Y44486D01*
X-25403Y45066D01*
X-25402Y45068D01*
X-25131Y46077D01*
Y47122D01*
X-25402Y48132D01*
X-25924Y49037D01*
X-26663Y49776D01*
X-27568Y50298D01*
X-28578Y50568D01*
X-29623D01*
X-30632Y50298D01*
X-31537Y49776D01*
X-32276Y49037D01*
X-32798Y48132D01*
X-33068Y47122D01*
Y46077D01*
X-32798Y45068D01*
X-32276Y44163D01*
X-31537Y43424D01*
X-30632Y42902D01*
X-29623Y42632D01*
X-28578D01*
X-27568Y42902D01*
X-27566Y42903D01*
X-26161Y41498D01*
Y39926D01*
X-26623Y39735D01*
X-26663Y39776D01*
X-27568Y40298D01*
X-28578Y40569D01*
X-29623D01*
X-30632Y40298D01*
X-31537Y39776D01*
X-32276Y39037D01*
X-32798Y38132D01*
X-33068Y37122D01*
Y36077D01*
X-32798Y35068D01*
X-32276Y34163D01*
X-31537Y33424D01*
X-30632Y32902D01*
X-29623Y32631D01*
X-28578D01*
X-27568Y32902D01*
X-26663Y33424D01*
X-26623Y33465D01*
X-26161Y33274D01*
Y30267D01*
X-26623Y30076D01*
X-27116Y30569D01*
X-30906D01*
X-34660Y34323D01*
Y37942D01*
X-34777Y38527D01*
X-35108Y39023D01*
X-40325Y44240D01*
X-40821Y44571D01*
X-41406Y44688D01*
X-50353D01*
X-50939Y44571D01*
X-51435Y44240D01*
X-52716Y42958D01*
X-59246D01*
Y41618D01*
X-60053D01*
Y42958D01*
X-68747D01*
Y37218D01*
X-60053D01*
Y38559D01*
X-59246D01*
Y37218D01*
X-56814D01*
Y33636D01*
X-58745D01*
Y31812D01*
X-59151Y31383D01*
X-63400D01*
X-63790Y31305D01*
X-63872Y31250D01*
X-64280D01*
Y30845D01*
X-64342Y30753D01*
X-64420Y30363D01*
Y27351D01*
X-65480D01*
Y33400D01*
X-65558Y33790D01*
X-65779Y34121D01*
X-66110Y34342D01*
X-66500Y34420D01*
X-72214D01*
Y35824D01*
X-70742D01*
Y43751D01*
X-80058D01*
Y35824D01*
X-75272D01*
Y34420D01*
X-81000D01*
X-81390Y34342D01*
X-81721Y34121D01*
X-81942Y33790D01*
X-82020Y33400D01*
Y12200D01*
X-81942Y11810D01*
X-81721Y11479D01*
X-81390Y11258D01*
X-81000Y11180D01*
X-77029D01*
Y10276D01*
X-80158D01*
Y2349D01*
X-70842D01*
Y10276D01*
X-73971D01*
Y11180D01*
X-66500D01*
X-66110Y11258D01*
X-65779Y11479D01*
X-65558Y11810D01*
X-65480Y12200D01*
Y21857D01*
X-65014Y22323D01*
X-64280D01*
Y20934D01*
X-64342Y20842D01*
X-64420Y20452D01*
Y9217D01*
X-64342Y8827D01*
X-64121Y8496D01*
X-63790Y8275D01*
X-63544Y8226D01*
Y3347D01*
X-64884D01*
Y529D01*
X-65500D01*
X-66085Y413D01*
X-66581Y81D01*
X-68481Y-1819D01*
X-68813Y-2315D01*
X-68929Y-2900D01*
Y-6367D01*
X-70380Y-7817D01*
X-70842Y-7626D01*
Y-5812D01*
X-75000D01*
Y-9276D01*
X-72492D01*
X-72301Y-9738D01*
X-84434Y-21871D01*
X-85401D01*
X-85402Y-21868D01*
X-85924Y-20963D01*
X-86663Y-20224D01*
X-87568Y-19702D01*
X-88578Y-19432D01*
X-89622D01*
X-90632Y-19702D01*
X-91537Y-20224D01*
X-91577Y-20265D01*
X-92039Y-20074D01*
Y-18502D01*
X-90634Y-17097D01*
X-90632Y-17098D01*
X-89622Y-17368D01*
X-88578D01*
X-87568Y-17098D01*
X-86663Y-16576D01*
X-85924Y-15837D01*
X-85402Y-14932D01*
X-85132Y-13923D01*
Y-12878D01*
X-85402Y-11868D01*
X-85924Y-10963D01*
X-86663Y-10224D01*
X-87568Y-9702D01*
X-88578Y-9431D01*
X-89622D01*
X-90632Y-9702D01*
X-91537Y-10224D01*
X-92276Y-10963D01*
X-92798Y-11868D01*
X-93068Y-12878D01*
Y-13923D01*
X-92798Y-14932D01*
X-92797Y-14934D01*
X-94457Y-16594D01*
X-94957Y-16387D01*
Y152500D01*
Y152988D01*
X-94766Y153946D01*
X-94393Y154848D01*
X-93850Y155660D01*
X-93160Y156350D01*
X-92348Y156893D01*
X-91446Y157266D01*
X-90488Y157457D01*
X25879D01*
X25983Y157113D01*
X25995Y156957D01*
X25200Y156162D01*
X24554Y155195D01*
X24110Y154121D01*
X23883Y152981D01*
Y151819D01*
X24110Y150679D01*
X24554Y149605D01*
X25200Y148638D01*
X26022Y147816D01*
X26989Y147170D01*
X28063Y146725D01*
X29203Y146498D01*
X30365D01*
X31506Y146725D01*
X32580Y147170D01*
X33546Y147816D01*
X34368Y148638D01*
X35014Y149605D01*
X35076Y149755D01*
X35567Y149852D01*
X35867Y149552D01*
X36678Y149083D01*
X37583Y148841D01*
X38521D01*
X39426Y149083D01*
X40237Y149552D01*
X40900Y150215D01*
X41368Y151026D01*
X41611Y151931D01*
Y152869D01*
X41368Y153774D01*
X40900Y154585D01*
X40237Y155248D01*
X39426Y155717D01*
X38521Y155959D01*
X37583D01*
X36678Y155717D01*
X35867Y155248D01*
X35567Y154948D01*
X35076Y155045D01*
X35014Y155195D01*
X34368Y156162D01*
X33573Y156957D01*
X33585Y157113D01*
X33690Y157457D01*
X58162D01*
X58267Y157113D01*
X58279Y156957D01*
X57484Y156162D01*
X57348Y155959D01*
X50241D01*
Y148841D01*
X57348D01*
X57484Y148638D01*
X58306Y147816D01*
X59272Y147170D01*
X60346Y146725D01*
X61487Y146498D01*
X62649D01*
X63789Y146725D01*
X64863Y147170D01*
X65830Y147816D01*
X66652Y148638D01*
X67298Y149605D01*
X67743Y150679D01*
X67969Y151819D01*
Y152981D01*
X67743Y154121D01*
X67298Y155195D01*
X66652Y156162D01*
X65857Y156957D01*
X65869Y157113D01*
X65973Y157457D01*
X90488D01*
X91446Y157266D01*
D02*
G37*
G36*
X42900Y79101D02*
X42915D01*
Y63835D01*
X46200Y60550D01*
X53400D01*
Y60501D01*
X53415D01*
Y56601D01*
X32415D01*
Y56650D01*
X32400D01*
Y79150D01*
X42900D01*
Y79101D01*
D02*
G37*
G36*
X61142Y54324D02*
X63251D01*
Y41171D01*
X62751Y40837D01*
X62500Y40941D01*
Y39000D01*
Y37059D01*
X62751Y37163D01*
X63251Y36829D01*
Y-95787D01*
X62987Y-96051D01*
X58414D01*
X58206Y-95551D01*
X58308Y-95450D01*
X58610Y-94720D01*
Y-93931D01*
X58308Y-93202D01*
X57750Y-92643D01*
X57020Y-92341D01*
X56804D01*
X53260Y-88797D01*
Y-77089D01*
X53722Y-76898D01*
X55771Y-78947D01*
Y-80370D01*
X55523Y-80740D01*
X55407Y-81326D01*
Y-82960D01*
X55254Y-83112D01*
X54952Y-83842D01*
Y-84631D01*
X55254Y-85360D01*
X55812Y-85918D01*
X56542Y-86221D01*
X57331D01*
X58060Y-85918D01*
X58618Y-85360D01*
X58921Y-84631D01*
Y-83842D01*
X58618Y-83112D01*
X58466Y-82960D01*
Y-81917D01*
X58713Y-81547D01*
X58829Y-80962D01*
Y-78313D01*
X58713Y-77728D01*
X58381Y-77232D01*
X57582Y-76432D01*
X57679Y-75942D01*
X57824Y-75882D01*
X58382Y-75324D01*
X58684Y-74595D01*
Y-73805D01*
X58382Y-73076D01*
X57824Y-72518D01*
X57095Y-72216D01*
X56879D01*
X54729Y-70066D01*
Y-66043D01*
X55229Y-65835D01*
X55576Y-66182D01*
X56305Y-66484D01*
X57095D01*
X57824Y-66182D01*
X58382Y-65624D01*
X58684Y-64895D01*
Y-64105D01*
X58382Y-63376D01*
X58229Y-63223D01*
Y-42225D01*
X58113Y-41640D01*
X57781Y-41144D01*
X47402Y-30764D01*
X46906Y-30432D01*
X46320Y-30316D01*
X40322D01*
X39737Y-30432D01*
X39241Y-30764D01*
X38947Y-31058D01*
X38800Y-30911D01*
X38469Y-30690D01*
X38079Y-30613D01*
X30500D01*
X30110Y-30690D01*
X29779Y-30911D01*
X29558Y-31242D01*
X29480Y-31632D01*
Y-36537D01*
X26495D01*
X15019Y-25062D01*
X14523Y-24730D01*
X13938Y-24614D01*
X11565D01*
X11373Y-24152D01*
X11636Y-23890D01*
X12234Y-22854D01*
X12543Y-21698D01*
Y-20502D01*
X12234Y-19346D01*
X11636Y-18310D01*
X10790Y-17465D01*
X9754Y-16866D01*
X8598Y-16557D01*
X7402D01*
X6246Y-16866D01*
X5210Y-17465D01*
X4364Y-18310D01*
X3766Y-19346D01*
X3457Y-20502D01*
Y-20873D01*
X2995Y-21064D01*
X-1449Y-16620D01*
Y-8913D01*
X-1566Y-8328D01*
X-1897Y-7831D01*
X-17702Y7973D01*
Y27149D01*
X-17240Y27341D01*
X-13218Y23319D01*
X-12722Y22987D01*
X-12137Y22871D01*
X3457D01*
Y19400D01*
X8000D01*
Y18900D01*
X8500D01*
Y14357D01*
X11824D01*
Y12209D01*
X11324Y12001D01*
X10790Y12536D01*
X9754Y13134D01*
X8598Y13443D01*
X7402D01*
X6246Y13134D01*
X5210Y12536D01*
X4364Y11690D01*
X3766Y10654D01*
X3457Y9498D01*
Y8302D01*
X3766Y7146D01*
X4364Y6110D01*
X5210Y5265D01*
X6246Y4666D01*
X7402Y4357D01*
X8598D01*
X9754Y4666D01*
X10790Y5265D01*
X11324Y5799D01*
X11824Y5591D01*
Y2209D01*
X11324Y2001D01*
X10790Y2536D01*
X9754Y3134D01*
X8598Y3443D01*
X7402D01*
X6246Y3134D01*
X5210Y2536D01*
X4364Y1690D01*
X3766Y654D01*
X3457Y-502D01*
Y-1698D01*
X3766Y-2854D01*
X4364Y-3890D01*
X5210Y-4735D01*
X6246Y-5334D01*
X7402Y-5643D01*
X8598D01*
X9754Y-5334D01*
X10790Y-4735D01*
X11324Y-4201D01*
X11824Y-4409D01*
Y-7791D01*
X11324Y-7999D01*
X10790Y-7464D01*
X9754Y-6866D01*
X8598Y-6557D01*
X7402D01*
X6246Y-6866D01*
X5210Y-7464D01*
X4364Y-8310D01*
X3766Y-9346D01*
X3457Y-10502D01*
Y-11698D01*
X3766Y-12854D01*
X4364Y-13890D01*
X5210Y-14736D01*
X6246Y-15334D01*
X7402Y-15643D01*
X8598D01*
X9754Y-15334D01*
X10790Y-14736D01*
X11636Y-13890D01*
X12234Y-12854D01*
X12461Y-12006D01*
X13018Y-11856D01*
X29398Y-28236D01*
X29894Y-28568D01*
X30480Y-28684D01*
X36478D01*
X37063Y-28568D01*
X37559Y-28236D01*
X38536Y-27260D01*
X39027Y-27238D01*
X39086Y-27244D01*
X39248Y-27350D01*
X39408Y-27457D01*
X39414Y-27458D01*
X39419Y-27461D01*
X39609Y-27497D01*
X39798Y-27534D01*
X39804Y-27533D01*
X39810Y-27534D01*
X46260Y-27461D01*
X46448Y-27422D01*
X46638Y-27384D01*
X46643Y-27380D01*
X46649Y-27379D01*
X46808Y-27270D01*
X46969Y-27163D01*
X46972Y-27158D01*
X46977Y-27154D01*
X47083Y-26992D01*
X47190Y-26832D01*
X47191Y-26826D01*
X47194Y-26821D01*
X47230Y-26631D01*
X47268Y-26442D01*
Y-26203D01*
X52240D01*
X54716Y-28679D01*
Y-28895D01*
X55018Y-29624D01*
X55576Y-30182D01*
X56305Y-30484D01*
X57095D01*
X57824Y-30182D01*
X58382Y-29624D01*
X58684Y-28895D01*
Y-28105D01*
X58382Y-27376D01*
X57824Y-26818D01*
X57095Y-26516D01*
X56879D01*
X53955Y-23592D01*
X53459Y-23261D01*
X52873Y-23144D01*
X47268D01*
Y-19355D01*
X47190Y-18965D01*
X46969Y-18634D01*
X46871Y-18536D01*
X46782Y-18476D01*
Y-17693D01*
X43321D01*
Y-16693D01*
X46782D01*
Y-16241D01*
X52679D01*
X54916Y-18479D01*
Y-18695D01*
X55218Y-19424D01*
X55776Y-19982D01*
X56505Y-20284D01*
X57295D01*
X58024Y-19982D01*
X58582Y-19424D01*
X58884Y-18695D01*
Y-17905D01*
X58582Y-17176D01*
X58024Y-16618D01*
X57295Y-16316D01*
X57079D01*
X54394Y-13631D01*
X53897Y-13299D01*
X53312Y-13183D01*
X40322D01*
X39737Y-13299D01*
X39241Y-13631D01*
X38930Y-13941D01*
X38800Y-13811D01*
X38469Y-13590D01*
X38079Y-13513D01*
X30500D01*
X30110Y-13590D01*
X29779Y-13811D01*
X29558Y-14142D01*
X29480Y-14532D01*
Y-15859D01*
X29019Y-16050D01*
X16682Y-3714D01*
Y960D01*
X17144Y1151D01*
X29398Y-11103D01*
X29894Y-11434D01*
X30480Y-11551D01*
X36478D01*
X37063Y-11434D01*
X37559Y-11103D01*
X38501Y-10161D01*
X38545Y-10148D01*
X38844Y-10164D01*
X39120Y-10250D01*
X39177Y-10336D01*
X39182Y-10339D01*
X39186Y-10344D01*
X39348Y-10450D01*
X39508Y-10557D01*
X39514Y-10558D01*
X39519Y-10561D01*
X39709Y-10597D01*
X39898Y-10634D01*
X39904Y-10633D01*
X39910Y-10634D01*
X46360Y-10561D01*
X46548Y-10521D01*
X46738Y-10484D01*
X46743Y-10480D01*
X46749Y-10479D01*
X46908Y-10370D01*
X47069Y-10263D01*
X47072Y-10258D01*
X47077Y-10255D01*
X47183Y-10092D01*
X47290Y-9932D01*
X47291Y-9926D01*
X47294Y-9921D01*
X47330Y-9731D01*
X47368Y-9542D01*
Y-9070D01*
X54813D01*
X54913Y-9311D01*
X55471Y-9869D01*
X56201Y-10171D01*
X56990D01*
X57719Y-9869D01*
X58278Y-9311D01*
X58580Y-8582D01*
Y-7792D01*
X58278Y-7063D01*
X57719Y-6505D01*
X56990Y-6203D01*
X56647D01*
X56534Y-6127D01*
X55949Y-6011D01*
X47368D01*
Y-2455D01*
X47290Y-2065D01*
X47069Y-1734D01*
X46971Y-1636D01*
X46782Y-1510D01*
Y-560D01*
X43321D01*
Y440D01*
X46782D01*
Y892D01*
X54383D01*
X54648Y627D01*
X54918Y-24D01*
X55476Y-582D01*
X56205Y-884D01*
X56995D01*
X57724Y-582D01*
X58282Y-24D01*
X58584Y705D01*
Y1495D01*
X58282Y2224D01*
X57724Y2782D01*
X56995Y3084D01*
X56517D01*
X56098Y3503D01*
X55602Y3834D01*
X55017Y3951D01*
X37239D01*
X36654Y3834D01*
X36158Y3503D01*
X36042Y3387D01*
X30600D01*
X30210Y3310D01*
X29879Y3089D01*
X29658Y2758D01*
X29580Y2368D01*
Y1175D01*
X29118Y983D01*
X20572Y9530D01*
Y23645D01*
X21034Y23836D01*
X32194Y12675D01*
X32690Y12344D01*
X33276Y12227D01*
X35357D01*
Y8729D01*
X44443D01*
Y10464D01*
X45057D01*
Y8729D01*
X54143D01*
Y15257D01*
X45057D01*
Y13522D01*
X44443D01*
Y15257D01*
X38284D01*
X38136Y15286D01*
X33909D01*
X32625Y16570D01*
X32743Y17160D01*
X33124Y17318D01*
X33682Y17876D01*
X33941Y18500D01*
X32000D01*
Y19000D01*
X31500D01*
Y20941D01*
X30876Y20682D01*
X30318Y20124D01*
X30160Y19742D01*
X29570Y19625D01*
X17696Y31499D01*
X17887Y31961D01*
X20064D01*
X20393Y31461D01*
X20216Y31033D01*
Y30243D01*
X20518Y29514D01*
X21076Y28956D01*
X21805Y28654D01*
X22595D01*
X23324Y28956D01*
X23882Y29514D01*
X24184Y30243D01*
Y30459D01*
X25036Y31311D01*
X25498Y31119D01*
Y29457D01*
X29895D01*
Y31500D01*
X30895D01*
Y29457D01*
X34601D01*
X34880Y29178D01*
Y28600D01*
X34958Y28210D01*
X35179Y27879D01*
X35510Y27658D01*
X35900Y27580D01*
X42038D01*
X42284Y27080D01*
X42122Y26871D01*
X35357D01*
Y20343D01*
X44443D01*
Y24381D01*
X44557Y24458D01*
X45057Y24192D01*
Y20343D01*
X49884D01*
X50202Y19843D01*
X50059Y19500D01*
X53941D01*
X53798Y19843D01*
X54116Y20343D01*
X54143D01*
Y24351D01*
X57884Y28091D01*
X58215Y28587D01*
X58332Y29173D01*
Y36282D01*
X58215Y36867D01*
X57884Y37363D01*
X55520Y39727D01*
Y48400D01*
X55442Y48790D01*
X55221Y49121D01*
X54890Y49342D01*
X54500Y49420D01*
X38729D01*
Y55582D01*
X53415D01*
X53805Y55659D01*
X54125Y55873D01*
X54246D01*
Y56046D01*
X54280Y56096D01*
X61142D01*
Y54324D01*
D02*
G37*
G36*
X21705Y44484D02*
X20976Y44182D01*
X20418Y43624D01*
X20159Y43000D01*
X22100D01*
Y42000D01*
X20101D01*
X19859Y41639D01*
X15127D01*
Y36883D01*
X15127D01*
Y36717D01*
X15127D01*
Y34339D01*
X14665Y34148D01*
X14276Y34537D01*
Y37297D01*
X14159Y37882D01*
X13828Y38378D01*
X9664Y42542D01*
X9714Y43042D01*
X12447D01*
Y44971D01*
X21672D01*
X21705Y44484D01*
D02*
G37*
G36*
X-49638Y41004D02*
Y37118D01*
X-49095D01*
X-48888Y36618D01*
X-48982Y36524D01*
X-49241Y35900D01*
X-45359D01*
X-45618Y36524D01*
X-45712Y36618D01*
X-45505Y37118D01*
X-43108D01*
X-41969Y35979D01*
Y25390D01*
X-44320D01*
Y26298D01*
Y29282D01*
X-44894D01*
X-45010Y29360D01*
X-45400Y29437D01*
X-47398D01*
Y29758D01*
X-47898D01*
Y31250D01*
X-49855D01*
Y33636D01*
X-50847D01*
Y30754D01*
X-51786D01*
X-51813Y30889D01*
Y32717D01*
X-51823Y32770D01*
Y33636D01*
X-52408D01*
X-52443Y33659D01*
X-52833Y33737D01*
X-53755D01*
Y37218D01*
X-50554D01*
Y40795D01*
X-50138Y41211D01*
X-49638Y41004D01*
D02*
G37*
G36*
X-38300Y19459D02*
X-37676Y19718D01*
X-37429Y19964D01*
X-36929Y19757D01*
Y10633D01*
X-45333Y2229D01*
X-46023D01*
X-46071Y2292D01*
X-46208Y2729D01*
X-40619Y8319D01*
X-40287Y8815D01*
X-40171Y9400D01*
Y18800D01*
X-40287Y19385D01*
X-39961Y19684D01*
X-39902Y19709D01*
X-39300Y19459D01*
Y21400D01*
X-38300D01*
Y19459D01*
D02*
G37*
G36*
X55171Y-42859D02*
Y-49219D01*
X54671Y-49268D01*
X54597Y-48899D01*
X54266Y-48403D01*
X50047Y-44184D01*
X50254Y-43684D01*
X50495D01*
X51224Y-43382D01*
X51782Y-42824D01*
X52041Y-42200D01*
X50100D01*
Y-41700D01*
X49600D01*
Y-39759D01*
X48976Y-40018D01*
X48418Y-40576D01*
X48116Y-41305D01*
Y-41546D01*
X47616Y-41753D01*
X47269Y-41407D01*
X47268Y-41405D01*
Y-36455D01*
X47190Y-36065D01*
X46969Y-35734D01*
X46871Y-35636D01*
X46795Y-35585D01*
X46811Y-35111D01*
X47244Y-34932D01*
X55171Y-42859D01*
D02*
G37*
G36*
X49400Y-53441D02*
X49439Y-53424D01*
X49855Y-53702D01*
Y-54043D01*
X49871Y-54122D01*
Y-71739D01*
X49409Y-71931D01*
X44851Y-67373D01*
Y-61624D01*
X46595Y-61605D01*
X46784Y-61565D01*
X46974Y-61527D01*
X46979Y-61524D01*
X46984Y-61523D01*
X47144Y-61413D01*
X47304Y-61306D01*
X47308Y-61301D01*
X47313Y-61298D01*
X47418Y-61136D01*
X47526Y-60975D01*
X47527Y-60969D01*
X47530Y-60965D01*
X47565Y-60775D01*
X47603Y-60585D01*
Y-53652D01*
X47911Y-53373D01*
X48074Y-53306D01*
X48400Y-53441D01*
Y-51500D01*
X49400D01*
Y-53441D01*
D02*
G37*
%LPC*%
G36*
X46395Y155959D02*
X45457D01*
X44552Y155717D01*
X43741Y155248D01*
X43078Y154585D01*
X42610Y153774D01*
X42367Y152869D01*
Y151931D01*
X42610Y151026D01*
X43078Y150215D01*
X43741Y149552D01*
X44552Y149083D01*
X45457Y148841D01*
X46395D01*
X47300Y149083D01*
X48111Y149552D01*
X48774Y150215D01*
X49242Y151026D01*
X49485Y151931D01*
Y152869D01*
X49242Y153774D01*
X48774Y154585D01*
X48111Y155248D01*
X47300Y155717D01*
X46395Y155959D01*
D02*
G37*
G36*
X83853Y155342D02*
X83500D01*
Y145000D01*
X93843D01*
Y145353D01*
X93576Y147039D01*
X93048Y148662D01*
X92273Y150183D01*
X91270Y151563D01*
X90063Y152770D01*
X88683Y153773D01*
X87162Y154548D01*
X85539Y155076D01*
X83853Y155342D01*
D02*
G37*
G36*
X82500D02*
X82147D01*
X80461Y155076D01*
X78838Y154548D01*
X77317Y153773D01*
X75937Y152770D01*
X74730Y151563D01*
X73727Y150183D01*
X72952Y148662D01*
X72425Y147039D01*
X72158Y145353D01*
Y145000D01*
X82500D01*
Y155342D01*
D02*
G37*
G36*
X-82147D02*
X-82500D01*
Y145000D01*
X-72158D01*
Y145353D01*
X-72425Y147039D01*
X-72952Y148662D01*
X-73727Y150183D01*
X-74730Y151563D01*
X-75937Y152770D01*
X-77317Y153773D01*
X-78838Y154548D01*
X-80461Y155076D01*
X-82147Y155342D01*
D02*
G37*
G36*
X-83500D02*
X-83853D01*
X-85539Y155076D01*
X-87162Y154548D01*
X-88683Y153773D01*
X-90063Y152770D01*
X-91270Y151563D01*
X-92273Y150183D01*
X-93048Y148662D01*
X-93576Y147039D01*
X-93843Y145353D01*
Y145000D01*
X-83500D01*
Y155342D01*
D02*
G37*
G36*
X93843Y144000D02*
X83500D01*
Y133658D01*
X83853D01*
X85539Y133924D01*
X87162Y134452D01*
X88683Y135227D01*
X90063Y136230D01*
X91270Y137437D01*
X92273Y138817D01*
X93048Y140338D01*
X93576Y141961D01*
X93843Y143647D01*
Y144000D01*
D02*
G37*
G36*
X82500D02*
X72158D01*
Y143647D01*
X72425Y141961D01*
X72952Y140338D01*
X73727Y138817D01*
X74730Y137437D01*
X75937Y136230D01*
X77317Y135227D01*
X78838Y134452D01*
X80461Y133924D01*
X82147Y133658D01*
X82500D01*
Y144000D01*
D02*
G37*
G36*
X-72158D02*
X-82500D01*
Y133658D01*
X-82147D01*
X-80461Y133924D01*
X-78838Y134452D01*
X-77317Y135227D01*
X-75937Y136230D01*
X-74730Y137437D01*
X-73727Y138817D01*
X-72952Y140338D01*
X-72425Y141961D01*
X-72158Y143647D01*
Y144000D01*
D02*
G37*
G36*
X-83500D02*
X-93843D01*
Y143647D01*
X-93576Y141961D01*
X-93048Y140338D01*
X-92273Y138817D01*
X-91270Y137437D01*
X-90063Y136230D01*
X-88683Y135227D01*
X-87162Y134452D01*
X-85539Y133924D01*
X-83853Y133658D01*
X-83500D01*
Y144000D01*
D02*
G37*
G36*
X50000Y126178D02*
Y123414D01*
X54043D01*
Y126178D01*
X50000D01*
D02*
G37*
G36*
X30000Y126171D02*
X25957D01*
Y123407D01*
X30000D01*
Y126171D01*
D02*
G37*
G36*
X54043Y122414D02*
X50000D01*
Y119650D01*
X54043D01*
Y122414D01*
D02*
G37*
G36*
X30000Y122407D02*
X25957D01*
Y119643D01*
X30000D01*
Y122407D01*
D02*
G37*
G36*
X35043Y126171D02*
X34957Y126171D01*
X31000D01*
Y122907D01*
Y119643D01*
X34957D01*
X35457Y119643D01*
X35543Y119643D01*
X39500D01*
Y122907D01*
Y126171D01*
X35543D01*
X35043Y126171D01*
D02*
G37*
G36*
X44957Y126178D02*
X44460Y126171D01*
X40500D01*
Y122907D01*
Y119643D01*
X44460D01*
X44543Y119643D01*
X45040Y119650D01*
X49000D01*
Y122914D01*
Y126178D01*
X45040D01*
X44957Y126178D01*
D02*
G37*
G36*
X82500Y120941D02*
Y119500D01*
X83941D01*
X83682Y120124D01*
X83124Y120682D01*
X82500Y120941D01*
D02*
G37*
G36*
X81500D02*
X80876Y120682D01*
X80318Y120124D01*
X80059Y119500D01*
X81500D01*
Y120941D01*
D02*
G37*
G36*
X22500D02*
Y119500D01*
X23941D01*
X23682Y120124D01*
X23124Y120682D01*
X22500Y120941D01*
D02*
G37*
G36*
X21500D02*
X20876Y120682D01*
X20318Y120124D01*
X20059Y119500D01*
X21500D01*
Y120941D01*
D02*
G37*
G36*
X-37500D02*
Y119500D01*
X-36059D01*
X-36318Y120124D01*
X-36876Y120682D01*
X-37500Y120941D01*
D02*
G37*
G36*
X-38500D02*
X-39124Y120682D01*
X-39682Y120124D01*
X-39941Y119500D01*
X-38500D01*
Y120941D01*
D02*
G37*
G36*
X-57500D02*
Y119500D01*
X-56059D01*
X-56318Y120124D01*
X-56876Y120682D01*
X-57500Y120941D01*
D02*
G37*
G36*
X-58500D02*
X-59124Y120682D01*
X-59682Y120124D01*
X-59941Y119500D01*
X-58500D01*
Y120941D01*
D02*
G37*
G36*
X-77500D02*
Y119500D01*
X-76059D01*
X-76318Y120124D01*
X-76876Y120682D01*
X-77500Y120941D01*
D02*
G37*
G36*
X-78500D02*
X-79124Y120682D01*
X-79682Y120124D01*
X-79941Y119500D01*
X-78500D01*
Y120941D01*
D02*
G37*
G36*
X83941Y118500D02*
X82500D01*
Y117059D01*
X83124Y117318D01*
X83682Y117876D01*
X83941Y118500D01*
D02*
G37*
G36*
X81500D02*
X80059D01*
X80318Y117876D01*
X80876Y117318D01*
X81500Y117059D01*
Y118500D01*
D02*
G37*
G36*
X23941D02*
X22500D01*
Y117059D01*
X23124Y117318D01*
X23682Y117876D01*
X23941Y118500D01*
D02*
G37*
G36*
X21500D02*
X20059D01*
X20318Y117876D01*
X20876Y117318D01*
X21500Y117059D01*
Y118500D01*
D02*
G37*
G36*
X-36059D02*
X-37500D01*
Y117059D01*
X-36876Y117318D01*
X-36318Y117876D01*
X-36059Y118500D01*
D02*
G37*
G36*
X-38500D02*
X-39941D01*
X-39682Y117876D01*
X-39124Y117318D01*
X-38500Y117059D01*
Y118500D01*
D02*
G37*
G36*
X-56059D02*
X-57500D01*
Y117059D01*
X-56876Y117318D01*
X-56318Y117876D01*
X-56059Y118500D01*
D02*
G37*
G36*
X-58500D02*
X-59941D01*
X-59682Y117876D01*
X-59124Y117318D01*
X-58500Y117059D01*
Y118500D01*
D02*
G37*
G36*
X-76059D02*
X-77500D01*
Y117059D01*
X-76876Y117318D01*
X-76318Y117876D01*
X-76059Y118500D01*
D02*
G37*
G36*
X-78500D02*
X-79941D01*
X-79682Y117876D01*
X-79124Y117318D01*
X-78500Y117059D01*
Y118500D01*
D02*
G37*
G36*
X-88578Y120569D02*
X-89622D01*
X-90632Y120298D01*
X-91537Y119776D01*
X-92276Y119037D01*
X-92798Y118132D01*
X-93068Y117122D01*
Y116077D01*
X-92798Y115068D01*
X-92276Y114163D01*
X-91537Y113424D01*
X-90632Y112902D01*
X-89622Y112631D01*
X-88578D01*
X-87568Y112902D01*
X-86663Y113424D01*
X-85924Y114163D01*
X-85402Y115068D01*
X-85132Y116077D01*
Y117122D01*
X-85402Y118132D01*
X-85924Y119037D01*
X-86663Y119776D01*
X-87568Y120298D01*
X-88578Y120569D01*
D02*
G37*
G36*
Y110568D02*
X-89622D01*
X-90632Y110298D01*
X-91537Y109776D01*
X-92276Y109037D01*
X-92798Y108132D01*
X-93068Y107123D01*
Y106078D01*
X-92798Y105068D01*
X-92276Y104163D01*
X-91537Y103424D01*
X-90632Y102902D01*
X-89622Y102631D01*
X-88578D01*
X-87568Y102902D01*
X-86663Y103424D01*
X-85924Y104163D01*
X-85402Y105068D01*
X-85132Y106078D01*
Y107123D01*
X-85402Y108132D01*
X-85924Y109037D01*
X-86663Y109776D01*
X-87568Y110298D01*
X-88578Y110568D01*
D02*
G37*
G36*
X70261Y105589D02*
X66300D01*
Y102519D01*
X70261D01*
Y105589D01*
D02*
G37*
G36*
X65300D02*
X61339D01*
Y102519D01*
X65300D01*
Y105589D01*
D02*
G37*
G36*
X79938Y115398D02*
X78481D01*
X77052Y115113D01*
X75705Y114556D01*
X74494Y113746D01*
X73463Y112716D01*
X72654Y111504D01*
X72096Y110158D01*
X71812Y108729D01*
Y107271D01*
X72096Y105842D01*
X72654Y104496D01*
X73463Y103284D01*
X74494Y102254D01*
X75705Y101444D01*
X77052Y100887D01*
X78481Y100602D01*
X79938D01*
X81367Y100887D01*
X82714Y101444D01*
X83925Y102254D01*
X84956Y103284D01*
X85765Y104496D01*
X86323Y105842D01*
X86607Y107271D01*
Y108729D01*
X86323Y110158D01*
X85765Y111504D01*
X84956Y112716D01*
X83925Y113746D01*
X82714Y114556D01*
X81367Y115113D01*
X79938Y115398D01*
D02*
G37*
G36*
X72500Y100941D02*
Y99500D01*
X73941D01*
X73682Y100124D01*
X73124Y100682D01*
X72500Y100941D01*
D02*
G37*
G36*
X-47500D02*
Y99500D01*
X-46059D01*
X-46318Y100124D01*
X-46876Y100682D01*
X-47500Y100941D01*
D02*
G37*
G36*
X-48500D02*
X-49124Y100682D01*
X-49682Y100124D01*
X-49941Y99500D01*
X-48500D01*
Y100941D01*
D02*
G37*
G36*
X-67500D02*
Y99500D01*
X-66059D01*
X-66318Y100124D01*
X-66876Y100682D01*
X-67500Y100941D01*
D02*
G37*
G36*
X-68500D02*
X-69124Y100682D01*
X-69682Y100124D01*
X-69941Y99500D01*
X-68500D01*
Y100941D01*
D02*
G37*
G36*
X-10300Y101752D02*
X-13969D01*
Y99370D01*
X-10300D01*
Y101752D01*
D02*
G37*
G36*
X65300Y101519D02*
X61339D01*
Y98449D01*
X65300D01*
Y101519D01*
D02*
G37*
G36*
X73941Y98500D02*
X72500D01*
Y97059D01*
X73124Y97318D01*
X73682Y97876D01*
X73941Y98500D01*
D02*
G37*
G36*
X70261Y101519D02*
X66300D01*
Y98449D01*
X70081D01*
X70318Y97876D01*
X70876Y97318D01*
X71500Y97059D01*
Y99000D01*
Y100941D01*
X70876Y100682D01*
X70761Y100567D01*
X70261Y100774D01*
Y101519D01*
D02*
G37*
G36*
X-46059Y98500D02*
X-47500D01*
Y97059D01*
X-46876Y97318D01*
X-46318Y97876D01*
X-46059Y98500D01*
D02*
G37*
G36*
X-48500D02*
X-49941D01*
X-49682Y97876D01*
X-49124Y97318D01*
X-48500Y97059D01*
Y98500D01*
D02*
G37*
G36*
X-66059D02*
X-67500D01*
Y97059D01*
X-66876Y97318D01*
X-66318Y97876D01*
X-66059Y98500D01*
D02*
G37*
G36*
X-68500D02*
X-69941D01*
X-69682Y97876D01*
X-69124Y97318D01*
X-68500Y97059D01*
Y98500D01*
D02*
G37*
G36*
X-5631Y98370D02*
X-9300D01*
Y95988D01*
X-5631D01*
Y98370D01*
D02*
G37*
G36*
X-10300D02*
X-13969D01*
Y95988D01*
X-10300D01*
Y98370D01*
D02*
G37*
G36*
X-88578Y100568D02*
X-89622D01*
X-90632Y100298D01*
X-91537Y99776D01*
X-92276Y99037D01*
X-92798Y98132D01*
X-93068Y97123D01*
Y96078D01*
X-92798Y95068D01*
X-92276Y94163D01*
X-91537Y93424D01*
X-90632Y92902D01*
X-89622Y92632D01*
X-88578D01*
X-87568Y92902D01*
X-86663Y93424D01*
X-85924Y94163D01*
X-85402Y95068D01*
X-85132Y96078D01*
Y97123D01*
X-85402Y98132D01*
X-85924Y99037D01*
X-86663Y99776D01*
X-87568Y100298D01*
X-88578Y100568D01*
D02*
G37*
G36*
X13546Y91106D02*
X9700D01*
Y88735D01*
X13546D01*
Y91106D01*
D02*
G37*
G36*
X8700D02*
X4854D01*
Y88735D01*
X8700D01*
Y91106D01*
D02*
G37*
G36*
X29795Y87200D02*
X25398D01*
Y85657D01*
X29795D01*
Y87200D01*
D02*
G37*
G36*
X-88578Y90569D02*
X-89622D01*
X-90632Y90298D01*
X-91537Y89776D01*
X-92276Y89037D01*
X-92798Y88132D01*
X-93068Y87122D01*
Y86077D01*
X-92798Y85068D01*
X-92276Y84163D01*
X-91537Y83424D01*
X-90632Y82902D01*
X-89622Y82631D01*
X-88578D01*
X-87568Y82902D01*
X-86663Y83424D01*
X-85924Y84163D01*
X-85402Y85068D01*
X-85132Y86077D01*
Y87122D01*
X-85402Y88132D01*
X-85924Y89037D01*
X-86663Y89776D01*
X-87568Y90298D01*
X-88578Y90569D01*
D02*
G37*
G36*
X26600Y81841D02*
Y80400D01*
X28041D01*
X27782Y81024D01*
X27224Y81582D01*
X26600Y81841D01*
D02*
G37*
G36*
X25600D02*
X24976Y81582D01*
X24418Y81024D01*
X24159Y80400D01*
X25600D01*
Y81841D01*
D02*
G37*
G36*
X-37500Y80941D02*
Y79500D01*
X-36059D01*
X-36318Y80124D01*
X-36876Y80682D01*
X-37500Y80941D01*
D02*
G37*
G36*
X-38500D02*
X-39124Y80682D01*
X-39682Y80124D01*
X-39941Y79500D01*
X-38500D01*
Y80941D01*
D02*
G37*
G36*
X-57500D02*
Y79500D01*
X-56059D01*
X-56318Y80124D01*
X-56876Y80682D01*
X-57500Y80941D01*
D02*
G37*
G36*
X-58500D02*
X-59124Y80682D01*
X-59682Y80124D01*
X-59941Y79500D01*
X-58500D01*
Y80941D01*
D02*
G37*
G36*
X-77500D02*
Y79500D01*
X-76059D01*
X-76318Y80124D01*
X-76876Y80682D01*
X-77500Y80941D01*
D02*
G37*
G36*
X-78500D02*
X-79124Y80682D01*
X-79682Y80124D01*
X-79941Y79500D01*
X-78500D01*
Y80941D01*
D02*
G37*
G36*
X28041Y79400D02*
X26600D01*
Y77959D01*
X27224Y78218D01*
X27782Y78776D01*
X28041Y79400D01*
D02*
G37*
G36*
X25600D02*
X24159D01*
X24418Y78776D01*
X24976Y78218D01*
X25600Y77959D01*
Y79400D01*
D02*
G37*
G36*
X-36059Y78500D02*
X-37500D01*
Y77059D01*
X-36876Y77318D01*
X-36318Y77876D01*
X-36059Y78500D01*
D02*
G37*
G36*
X-38500D02*
X-39941D01*
X-39682Y77876D01*
X-39124Y77318D01*
X-38500Y77059D01*
Y78500D01*
D02*
G37*
G36*
X-56059D02*
X-57500D01*
Y77059D01*
X-56876Y77318D01*
X-56318Y77876D01*
X-56059Y78500D01*
D02*
G37*
G36*
X-58500D02*
X-59941D01*
X-59682Y77876D01*
X-59124Y77318D01*
X-58500Y77059D01*
Y78500D01*
D02*
G37*
G36*
X-76059D02*
X-77500D01*
Y77059D01*
X-76876Y77318D01*
X-76318Y77876D01*
X-76059Y78500D01*
D02*
G37*
G36*
X-78500D02*
X-79941D01*
X-79682Y77876D01*
X-79124Y77318D01*
X-78500Y77059D01*
Y78500D01*
D02*
G37*
G36*
X-88578Y80568D02*
X-89622D01*
X-90632Y80298D01*
X-91537Y79776D01*
X-92276Y79037D01*
X-92798Y78132D01*
X-93068Y77122D01*
Y76078D01*
X-92798Y75068D01*
X-92276Y74163D01*
X-91537Y73424D01*
X-90632Y72902D01*
X-89622Y72632D01*
X-88578D01*
X-87568Y72902D01*
X-86663Y73424D01*
X-85924Y74163D01*
X-85402Y75068D01*
X-85132Y76078D01*
Y77122D01*
X-85402Y78132D01*
X-85924Y79037D01*
X-86663Y79776D01*
X-87568Y80298D01*
X-88578Y80568D01*
D02*
G37*
G36*
X79938Y85398D02*
X78481D01*
X77052Y85113D01*
X75705Y84556D01*
X74494Y83746D01*
X73463Y82716D01*
X72654Y81504D01*
X72096Y80158D01*
X71812Y78729D01*
Y77271D01*
X72096Y75842D01*
X72654Y74496D01*
X73463Y73284D01*
X74494Y72254D01*
X75705Y71444D01*
X77052Y70887D01*
X78481Y70602D01*
X79938D01*
X81367Y70887D01*
X82714Y71444D01*
X83925Y72254D01*
X84956Y73284D01*
X85765Y74496D01*
X86323Y75842D01*
X86607Y77271D01*
Y78729D01*
X86323Y80158D01*
X85765Y81504D01*
X84956Y82716D01*
X83925Y83746D01*
X82714Y84556D01*
X81367Y85113D01*
X79938Y85398D01*
D02*
G37*
G36*
X70458Y73876D02*
X66300D01*
Y70412D01*
X70458D01*
Y73876D01*
D02*
G37*
G36*
X65300D02*
X61142D01*
Y70412D01*
X65300D01*
Y73876D01*
D02*
G37*
G36*
X54246Y70472D02*
X50105D01*
Y68200D01*
X54246D01*
Y70472D01*
D02*
G37*
G36*
X29837Y74999D02*
X25695D01*
Y68200D01*
X29837D01*
Y74999D01*
D02*
G37*
G36*
X24695D02*
X20553D01*
Y68200D01*
X24695D01*
Y74999D01*
D02*
G37*
G36*
X49105Y70472D02*
X44963D01*
Y68200D01*
X49105D01*
Y70472D01*
D02*
G37*
G36*
X70458Y69412D02*
X66300D01*
Y65949D01*
X70458D01*
Y69412D01*
D02*
G37*
G36*
X65300D02*
X61142D01*
Y65949D01*
X65300D01*
Y69412D01*
D02*
G37*
G36*
X54246Y67200D02*
X50105D01*
Y64928D01*
X54246D01*
Y67200D01*
D02*
G37*
G36*
X49105D02*
X44963D01*
Y64928D01*
X49105D01*
Y67200D01*
D02*
G37*
G36*
X-38577Y70569D02*
X-39623D01*
X-40632Y70298D01*
X-41537Y69776D01*
X-42276Y69037D01*
X-42798Y68132D01*
X-43069Y67123D01*
Y66078D01*
X-42798Y65068D01*
X-42276Y64163D01*
X-41537Y63424D01*
X-40632Y62902D01*
X-39623Y62631D01*
X-38577D01*
X-37568Y62902D01*
X-36663Y63424D01*
X-35924Y64163D01*
X-35402Y65068D01*
X-35131Y66078D01*
Y67123D01*
X-35402Y68132D01*
X-35924Y69037D01*
X-36663Y69776D01*
X-37568Y70298D01*
X-38577Y70569D01*
D02*
G37*
G36*
X-47116D02*
X-51084D01*
X-53069Y68584D01*
Y64616D01*
X-51084Y62631D01*
X-47116D01*
X-45131Y64616D01*
Y68584D01*
X-47116Y70569D01*
D02*
G37*
G36*
X-68577D02*
X-69622D01*
X-70632Y70298D01*
X-71537Y69776D01*
X-72276Y69037D01*
X-72798Y68132D01*
X-73068Y67123D01*
Y66078D01*
X-72798Y65068D01*
X-72276Y64163D01*
X-71537Y63424D01*
X-70632Y62902D01*
X-69622Y62631D01*
X-68577D01*
X-67568Y62902D01*
X-66663Y63424D01*
X-65924Y64163D01*
X-65402Y65068D01*
X-65131Y66078D01*
Y67123D01*
X-65402Y68132D01*
X-65924Y69037D01*
X-66663Y69776D01*
X-67568Y70298D01*
X-68577Y70569D01*
D02*
G37*
G36*
X-78578D02*
X-79623D01*
X-80632Y70298D01*
X-81537Y69776D01*
X-82276Y69037D01*
X-82798Y68132D01*
X-83069Y67123D01*
Y66078D01*
X-82798Y65068D01*
X-82276Y64163D01*
X-81537Y63424D01*
X-80632Y62902D01*
X-79623Y62631D01*
X-78578D01*
X-77568Y62902D01*
X-76663Y63424D01*
X-75924Y64163D01*
X-75402Y65068D01*
X-75131Y66078D01*
Y67123D01*
X-75402Y68132D01*
X-75924Y69037D01*
X-76663Y69776D01*
X-77568Y70298D01*
X-78578Y70569D01*
D02*
G37*
G36*
X-88578D02*
X-89622D01*
X-90632Y70298D01*
X-91537Y69776D01*
X-92276Y69037D01*
X-92798Y68132D01*
X-93068Y67123D01*
Y66078D01*
X-92798Y65068D01*
X-92276Y64163D01*
X-91537Y63424D01*
X-90632Y62902D01*
X-89622Y62631D01*
X-88578D01*
X-87568Y62902D01*
X-86663Y63424D01*
X-85924Y64163D01*
X-85402Y65068D01*
X-85132Y66078D01*
Y67123D01*
X-85402Y68132D01*
X-85924Y69037D01*
X-86663Y69776D01*
X-87568Y70298D01*
X-88578Y70569D01*
D02*
G37*
G36*
X29837Y67200D02*
X25695D01*
Y60401D01*
X29837D01*
Y67200D01*
D02*
G37*
G36*
X24695D02*
X20553D01*
Y60401D01*
X24695D01*
Y67200D01*
D02*
G37*
G36*
X-88578Y60568D02*
X-89622D01*
X-90632Y60298D01*
X-91537Y59776D01*
X-92276Y59037D01*
X-92798Y58132D01*
X-93068Y57122D01*
Y56077D01*
X-92798Y55068D01*
X-92276Y54163D01*
X-91537Y53424D01*
X-90632Y52902D01*
X-89622Y52631D01*
X-88578D01*
X-87568Y52902D01*
X-86663Y53424D01*
X-85924Y54163D01*
X-85402Y55068D01*
X-85132Y56077D01*
Y57122D01*
X-85402Y58132D01*
X-85924Y59037D01*
X-86663Y59776D01*
X-87568Y60298D01*
X-88578Y60568D01*
D02*
G37*
G36*
X-70742Y55376D02*
X-74900D01*
Y51912D01*
X-70742D01*
Y55376D01*
D02*
G37*
G36*
X-75900D02*
X-80058D01*
Y51912D01*
X-75900D01*
Y55376D01*
D02*
G37*
G36*
X-50554Y53982D02*
X-54400D01*
Y51612D01*
X-50554D01*
Y53982D01*
D02*
G37*
G36*
X-60053D02*
X-63900D01*
Y51612D01*
X-60053D01*
Y53982D01*
D02*
G37*
G36*
X-64900D02*
X-68747D01*
Y51612D01*
X-64900D01*
Y53982D01*
D02*
G37*
G36*
X-55400D02*
X-59246D01*
Y51612D01*
X-55400D01*
Y53982D01*
D02*
G37*
G36*
X-40945Y53882D02*
X-44791D01*
Y51512D01*
X-40945D01*
Y53882D01*
D02*
G37*
G36*
X-45791D02*
X-49638D01*
Y51512D01*
X-45791D01*
Y53882D01*
D02*
G37*
G36*
X79938Y63598D02*
X78481D01*
X77052Y63313D01*
X75705Y62756D01*
X74494Y61946D01*
X73463Y60916D01*
X72654Y59704D01*
X72096Y58358D01*
X71812Y56929D01*
Y55471D01*
X72096Y54042D01*
X72654Y52696D01*
X73463Y51484D01*
X74494Y50454D01*
X75705Y49644D01*
X77052Y49087D01*
X78481Y48802D01*
X79938D01*
X81367Y49087D01*
X82714Y49644D01*
X83925Y50454D01*
X84956Y51484D01*
X85765Y52696D01*
X86323Y54042D01*
X86607Y55471D01*
Y56929D01*
X86323Y58358D01*
X85765Y59704D01*
X84956Y60916D01*
X83925Y61946D01*
X82714Y62756D01*
X81367Y63313D01*
X79938Y63598D01*
D02*
G37*
G36*
X-50554Y50612D02*
X-54400D01*
Y48242D01*
X-50554D01*
Y50612D01*
D02*
G37*
G36*
X-55400D02*
X-59246D01*
Y48242D01*
X-55400D01*
Y50612D01*
D02*
G37*
G36*
X-60053D02*
X-63900D01*
Y48242D01*
X-60053D01*
Y50612D01*
D02*
G37*
G36*
X-64900D02*
X-68747D01*
Y48242D01*
X-64900D01*
Y50612D01*
D02*
G37*
G36*
X-40945Y50512D02*
X-44791D01*
Y48142D01*
X-40945D01*
Y50512D01*
D02*
G37*
G36*
X-45791D02*
X-49638D01*
Y48142D01*
X-45791D01*
Y50512D01*
D02*
G37*
G36*
X-70742Y50912D02*
X-74900D01*
Y47449D01*
X-70742D01*
Y50912D01*
D02*
G37*
G36*
X-75900D02*
X-80058D01*
Y47449D01*
X-75900D01*
Y50912D01*
D02*
G37*
G36*
X-88578Y50568D02*
X-89622D01*
X-90632Y50298D01*
X-91537Y49776D01*
X-92276Y49037D01*
X-92798Y48132D01*
X-93068Y47122D01*
Y46077D01*
X-92798Y45068D01*
X-92276Y44163D01*
X-91537Y43424D01*
X-90632Y42902D01*
X-89622Y42632D01*
X-88578D01*
X-87568Y42902D01*
X-86663Y43424D01*
X-85924Y44163D01*
X-85402Y45068D01*
X-85132Y46077D01*
Y47122D01*
X-85402Y48132D01*
X-85924Y49037D01*
X-86663Y49776D01*
X-87568Y50298D01*
X-88578Y50568D01*
D02*
G37*
G36*
X-2507Y41834D02*
X-3131Y41576D01*
X-3689Y41017D01*
X-3947Y40393D01*
X-2507D01*
Y41834D01*
D02*
G37*
G36*
X82500Y40941D02*
Y39500D01*
X83941D01*
X83682Y40124D01*
X83124Y40682D01*
X82500Y40941D01*
D02*
G37*
G36*
X81500D02*
X80876Y40682D01*
X80318Y40124D01*
X80059Y39500D01*
X81500D01*
Y40941D01*
D02*
G37*
G36*
X2500D02*
Y39500D01*
X3941D01*
X3682Y40124D01*
X3124Y40682D01*
X2500Y40941D01*
D02*
G37*
G36*
X83941Y38500D02*
X82500D01*
Y37059D01*
X83124Y37318D01*
X83682Y37876D01*
X83941Y38500D01*
D02*
G37*
G36*
X81500D02*
X80059D01*
X80318Y37876D01*
X80876Y37318D01*
X81500Y37059D01*
Y38500D01*
D02*
G37*
G36*
X-1507Y41834D02*
Y39893D01*
X-2007D01*
Y39393D01*
X-3947D01*
X-3689Y38769D01*
X-3178Y38258D01*
X-3207Y38039D01*
X-3331Y37758D01*
X-5646D01*
Y35388D01*
X-1300D01*
X3046D01*
Y37001D01*
X3254Y37145D01*
X3754Y36884D01*
Y35388D01*
X7600D01*
Y37758D01*
X4175D01*
X3841Y38258D01*
X3941Y38500D01*
X2000D01*
Y39000D01*
X1500D01*
Y40941D01*
X876Y40682D01*
X478Y40284D01*
X309Y40285D01*
X-68Y40399D01*
X-325Y41017D01*
X-883Y41576D01*
X-1507Y41834D01*
D02*
G37*
G36*
X-88578Y40569D02*
X-89622D01*
X-90632Y40298D01*
X-91537Y39776D01*
X-92276Y39037D01*
X-92798Y38132D01*
X-93068Y37122D01*
Y36077D01*
X-92798Y35068D01*
X-92276Y34163D01*
X-91537Y33424D01*
X-90632Y32902D01*
X-89622Y32631D01*
X-88578D01*
X-87568Y32902D01*
X-86663Y33424D01*
X-85924Y34163D01*
X-85402Y35068D01*
X-85132Y36077D01*
Y37122D01*
X-85402Y38132D01*
X-85924Y39037D01*
X-86663Y39776D01*
X-87568Y40298D01*
X-88578Y40569D01*
D02*
G37*
G36*
X7600Y34388D02*
X3754D01*
Y32018D01*
X7600D01*
Y34388D01*
D02*
G37*
G36*
X3046D02*
X-800D01*
Y32018D01*
X3046D01*
Y34388D01*
D02*
G37*
G36*
X-1800D02*
X-5646D01*
Y32018D01*
X-1800D01*
Y34388D01*
D02*
G37*
G36*
X72500Y20941D02*
Y19500D01*
X73941D01*
X73682Y20124D01*
X73124Y20682D01*
X72500Y20941D01*
D02*
G37*
G36*
X71500D02*
X70876Y20682D01*
X70318Y20124D01*
X70059Y19500D01*
X71500D01*
Y20941D01*
D02*
G37*
G36*
X79938Y33598D02*
X78481D01*
X77052Y33313D01*
X75705Y32756D01*
X74494Y31946D01*
X73463Y30916D01*
X72654Y29704D01*
X72096Y28358D01*
X71812Y26929D01*
Y25471D01*
X72096Y24042D01*
X72654Y22696D01*
X73463Y21484D01*
X74494Y20454D01*
X75705Y19644D01*
X77052Y19087D01*
X78481Y18802D01*
X79938D01*
X81367Y19087D01*
X82714Y19644D01*
X83925Y20454D01*
X84956Y21484D01*
X85765Y22696D01*
X86323Y24042D01*
X86607Y25471D01*
Y26929D01*
X86323Y28358D01*
X85765Y29704D01*
X84956Y30916D01*
X83925Y31946D01*
X82714Y32756D01*
X81367Y33313D01*
X79938Y33598D01*
D02*
G37*
G36*
X73941Y18500D02*
X72500D01*
Y17059D01*
X73124Y17318D01*
X73682Y17876D01*
X73941Y18500D01*
D02*
G37*
G36*
X71500D02*
X70059D01*
X70318Y17876D01*
X70876Y17318D01*
X71500Y17059D01*
Y18500D01*
D02*
G37*
G36*
X-88578Y20569D02*
X-89622D01*
X-90632Y20298D01*
X-91537Y19776D01*
X-92276Y19037D01*
X-92798Y18132D01*
X-93068Y17122D01*
Y16078D01*
X-92798Y15068D01*
X-92276Y14163D01*
X-91537Y13424D01*
X-90632Y12902D01*
X-89622Y12631D01*
X-88578D01*
X-87568Y12902D01*
X-86663Y13424D01*
X-85924Y14163D01*
X-85402Y15068D01*
X-85132Y16078D01*
Y17122D01*
X-85402Y18132D01*
X-85924Y19037D01*
X-86663Y19776D01*
X-87568Y20298D01*
X-88578Y20569D01*
D02*
G37*
G36*
Y10569D02*
X-89622D01*
X-90632Y10298D01*
X-91537Y9776D01*
X-92276Y9037D01*
X-92798Y8132D01*
X-93068Y7123D01*
Y6078D01*
X-92798Y5068D01*
X-92276Y4163D01*
X-91537Y3424D01*
X-90632Y2902D01*
X-89622Y2631D01*
X-88578D01*
X-87568Y2902D01*
X-86663Y3424D01*
X-85924Y4163D01*
X-85402Y5068D01*
X-85132Y6078D01*
Y7123D01*
X-85402Y8132D01*
X-85924Y9037D01*
X-86663Y9776D01*
X-87568Y10298D01*
X-88578Y10569D01*
D02*
G37*
G36*
X-37500Y941D02*
Y-500D01*
X-36059D01*
X-36318Y124D01*
X-36876Y682D01*
X-37500Y941D01*
D02*
G37*
G36*
X-38500D02*
X-39124Y682D01*
X-39682Y124D01*
X-39941Y-500D01*
X-38500D01*
Y941D01*
D02*
G37*
G36*
X79529Y13798D02*
X78071D01*
X76642Y13513D01*
X75296Y12956D01*
X74084Y12146D01*
X73054Y11116D01*
X72244Y9904D01*
X71687Y8558D01*
X71402Y7129D01*
Y5671D01*
X71687Y4242D01*
X72244Y2896D01*
X73054Y1684D01*
X74084Y654D01*
X75296Y-156D01*
X76642Y-713D01*
X78071Y-998D01*
X79529D01*
X80958Y-713D01*
X82304Y-156D01*
X83516Y654D01*
X84546Y1684D01*
X85356Y2896D01*
X85913Y4242D01*
X86198Y5671D01*
Y7129D01*
X85913Y8558D01*
X85356Y9904D01*
X84546Y11116D01*
X83516Y12146D01*
X82304Y12956D01*
X80958Y13513D01*
X79529Y13798D01*
D02*
G37*
G36*
X-36059Y-1500D02*
X-37500D01*
Y-2941D01*
X-36876Y-2682D01*
X-36318Y-2124D01*
X-36059Y-1500D01*
D02*
G37*
G36*
X-38500D02*
X-39941D01*
X-39682Y-2124D01*
X-39124Y-2682D01*
X-38500Y-2941D01*
Y-1500D01*
D02*
G37*
G36*
X-70842Y-1349D02*
X-75000D01*
Y-4812D01*
X-70842D01*
Y-1349D01*
D02*
G37*
G36*
X-76000D02*
X-80158D01*
Y-4812D01*
X-76000D01*
Y-1349D01*
D02*
G37*
G36*
X-88578Y569D02*
X-89622D01*
X-90632Y298D01*
X-91537Y-224D01*
X-92276Y-963D01*
X-92798Y-1868D01*
X-93068Y-2877D01*
Y-3923D01*
X-92798Y-4932D01*
X-92276Y-5837D01*
X-91537Y-6576D01*
X-90632Y-7098D01*
X-89622Y-7368D01*
X-88578D01*
X-87568Y-7098D01*
X-86663Y-6576D01*
X-85924Y-5837D01*
X-85402Y-4932D01*
X-85132Y-3923D01*
Y-2877D01*
X-85402Y-1868D01*
X-85924Y-963D01*
X-86663Y-224D01*
X-87568Y298D01*
X-88578Y569D01*
D02*
G37*
G36*
X-76000Y-5812D02*
X-80158D01*
Y-9276D01*
X-76000D01*
Y-5812D01*
D02*
G37*
G36*
X-14978Y-10688D02*
X-17250D01*
Y-11976D01*
X-14978D01*
Y-10688D01*
D02*
G37*
G36*
X72500Y-19059D02*
Y-20500D01*
X73941D01*
X73682Y-19876D01*
X73124Y-19318D01*
X72500Y-19059D01*
D02*
G37*
G36*
X71500D02*
X70876Y-19318D01*
X70318Y-19876D01*
X70059Y-20500D01*
X71500D01*
Y-19059D01*
D02*
G37*
G36*
X-68500D02*
X-69124Y-19318D01*
X-69682Y-19876D01*
X-69941Y-20500D01*
X-68500D01*
Y-19059D01*
D02*
G37*
G36*
X73941Y-21500D02*
X72500D01*
Y-22941D01*
X73124Y-22682D01*
X73682Y-22124D01*
X73941Y-21500D01*
D02*
G37*
G36*
X71500D02*
X70059D01*
X70318Y-22124D01*
X70876Y-22682D01*
X71500Y-22941D01*
Y-21500D01*
D02*
G37*
G36*
X-68500D02*
X-69941D01*
X-69682Y-22124D01*
X-69124Y-22682D01*
X-68500Y-22941D01*
Y-21500D01*
D02*
G37*
G36*
X7500Y-37550D02*
X3457D01*
Y-38997D01*
X2957Y-39248D01*
X2500Y-39059D01*
Y-41000D01*
Y-42941D01*
X3124Y-42682D01*
X3682Y-42124D01*
X3902Y-41593D01*
X7500D01*
Y-37550D01*
D02*
G37*
G36*
X1500Y-39059D02*
X876Y-39318D01*
X318Y-39876D01*
X59Y-40500D01*
X1500D01*
Y-39059D01*
D02*
G37*
G36*
X-37500D02*
Y-40500D01*
X-36059D01*
X-36318Y-39876D01*
X-36876Y-39318D01*
X-37500Y-39059D01*
D02*
G37*
G36*
X-38500D02*
X-39124Y-39318D01*
X-39682Y-39876D01*
X-39941Y-40500D01*
X-38500D01*
Y-39059D01*
D02*
G37*
G36*
X-57500D02*
Y-40500D01*
X-56059D01*
X-56318Y-39876D01*
X-56876Y-39318D01*
X-57500Y-39059D01*
D02*
G37*
G36*
X-58500D02*
X-59124Y-39318D01*
X-59682Y-39876D01*
X-59941Y-40500D01*
X-58500D01*
Y-39059D01*
D02*
G37*
G36*
X-77500D02*
Y-40500D01*
X-76059D01*
X-76318Y-39876D01*
X-76876Y-39318D01*
X-77500Y-39059D01*
D02*
G37*
G36*
X-78500D02*
X-79124Y-39318D01*
X-79682Y-39876D01*
X-79941Y-40500D01*
X-78500D01*
Y-39059D01*
D02*
G37*
G36*
X12543Y-37550D02*
X8500D01*
Y-41593D01*
X12543D01*
Y-37550D01*
D02*
G37*
G36*
X1500Y-41500D02*
X59D01*
X318Y-42124D01*
X876Y-42682D01*
X1500Y-42941D01*
Y-41500D01*
D02*
G37*
G36*
X-36059D02*
X-37500D01*
Y-42941D01*
X-36876Y-42682D01*
X-36318Y-42124D01*
X-36059Y-41500D01*
D02*
G37*
G36*
X-38500D02*
X-39941D01*
X-39682Y-42124D01*
X-39124Y-42682D01*
X-38500Y-42941D01*
Y-41500D01*
D02*
G37*
G36*
X-56059D02*
X-57500D01*
Y-42941D01*
X-56876Y-42682D01*
X-56318Y-42124D01*
X-56059Y-41500D01*
D02*
G37*
G36*
X-58500D02*
X-59941D01*
X-59682Y-42124D01*
X-59124Y-42682D01*
X-58500Y-42941D01*
Y-41500D01*
D02*
G37*
G36*
X-76059D02*
X-77500D01*
Y-42941D01*
X-76876Y-42682D01*
X-76318Y-42124D01*
X-76059Y-41500D01*
D02*
G37*
G36*
X-78500D02*
X-79941D01*
X-79682Y-42124D01*
X-79124Y-42682D01*
X-78500Y-42941D01*
Y-41500D01*
D02*
G37*
G36*
X79529Y-31202D02*
X78071D01*
X76642Y-31487D01*
X75296Y-32044D01*
X74084Y-32854D01*
X73054Y-33884D01*
X72244Y-35096D01*
X71687Y-36442D01*
X71402Y-37871D01*
Y-39329D01*
X71687Y-40758D01*
X72244Y-42104D01*
X73054Y-43316D01*
X74084Y-44346D01*
X75296Y-45156D01*
X76642Y-45713D01*
X78071Y-45998D01*
X79529D01*
X80958Y-45713D01*
X82304Y-45156D01*
X83516Y-44346D01*
X84546Y-43316D01*
X85356Y-42104D01*
X85913Y-40758D01*
X86198Y-39329D01*
Y-37871D01*
X85913Y-36442D01*
X85356Y-35096D01*
X84546Y-33884D01*
X83516Y-32854D01*
X82304Y-32044D01*
X80958Y-31487D01*
X79529Y-31202D01*
D02*
G37*
G36*
X-88578Y-39432D02*
X-89622D01*
X-90632Y-39702D01*
X-91537Y-40224D01*
X-92276Y-40963D01*
X-92798Y-41868D01*
X-93068Y-42878D01*
Y-43922D01*
X-92798Y-44932D01*
X-92276Y-45837D01*
X-91537Y-46576D01*
X-90632Y-47098D01*
X-89622Y-47368D01*
X-88578D01*
X-87568Y-47098D01*
X-86663Y-46576D01*
X-85924Y-45837D01*
X-85402Y-44932D01*
X-85132Y-43922D01*
Y-42878D01*
X-85402Y-41868D01*
X-85924Y-40963D01*
X-86663Y-40224D01*
X-87568Y-39702D01*
X-88578Y-39432D01*
D02*
G37*
G36*
X-14978Y-49088D02*
X-17250D01*
Y-50376D01*
X-14978D01*
Y-49088D01*
D02*
G37*
G36*
X-8679D02*
X-10950D01*
Y-50376D01*
X-8679D01*
Y-49088D01*
D02*
G37*
G36*
X-18250D02*
X-20521D01*
Y-50376D01*
X-18250D01*
Y-49088D01*
D02*
G37*
G36*
X-11950D02*
X-14222D01*
Y-50376D01*
X-11950D01*
Y-49088D01*
D02*
G37*
G36*
X8598Y-42507D02*
X7402D01*
X6246Y-42816D01*
X5210Y-43415D01*
X4364Y-44260D01*
X3766Y-45296D01*
X3457Y-46452D01*
Y-47648D01*
X3766Y-48804D01*
X4364Y-49840D01*
X5210Y-50686D01*
X6246Y-51284D01*
X7402Y-51593D01*
X8598D01*
X9754Y-51284D01*
X10790Y-50686D01*
X11636Y-49840D01*
X12234Y-48804D01*
X12543Y-47648D01*
Y-46452D01*
X12234Y-45296D01*
X11636Y-44260D01*
X10790Y-43415D01*
X9754Y-42816D01*
X8598Y-42507D01*
D02*
G37*
G36*
X-88578Y-49431D02*
X-89622D01*
X-90632Y-49702D01*
X-91537Y-50224D01*
X-92276Y-50963D01*
X-92798Y-51868D01*
X-93068Y-52877D01*
Y-53922D01*
X-92798Y-54932D01*
X-92276Y-55837D01*
X-91537Y-56576D01*
X-90632Y-57098D01*
X-89622Y-57368D01*
X-88578D01*
X-87568Y-57098D01*
X-86663Y-56576D01*
X-85924Y-55837D01*
X-85402Y-54932D01*
X-85132Y-53922D01*
Y-52877D01*
X-85402Y-51868D01*
X-85924Y-50963D01*
X-86663Y-50224D01*
X-87568Y-49702D01*
X-88578Y-49431D01*
D02*
G37*
G36*
X-62933Y-51282D02*
X-63771D01*
X-64580Y-51499D01*
X-65305Y-51918D01*
X-65897Y-52510D01*
X-66316Y-53235D01*
X-66533Y-54044D01*
Y-54882D01*
X-66316Y-55691D01*
X-65897Y-56416D01*
X-65305Y-57008D01*
X-64580Y-57427D01*
X-63771Y-57644D01*
X-62933D01*
X-62124Y-57427D01*
X-61399Y-57008D01*
X-60807Y-56416D01*
X-60388Y-55691D01*
X-60171Y-54882D01*
Y-54044D01*
X-60388Y-53235D01*
X-60807Y-52510D01*
X-61399Y-51918D01*
X-62124Y-51499D01*
X-62933Y-51282D01*
D02*
G37*
G36*
X-70807D02*
X-71645D01*
X-72454Y-51499D01*
X-73179Y-51918D01*
X-73771Y-52510D01*
X-74190Y-53235D01*
X-74407Y-54044D01*
Y-54882D01*
X-74190Y-55691D01*
X-73771Y-56416D01*
X-73179Y-57008D01*
X-72454Y-57427D01*
X-71645Y-57644D01*
X-70807D01*
X-69998Y-57427D01*
X-69273Y-57008D01*
X-68681Y-56416D01*
X-68262Y-55691D01*
X-68045Y-54882D01*
Y-54044D01*
X-68262Y-53235D01*
X-68681Y-52510D01*
X-69273Y-51918D01*
X-69998Y-51499D01*
X-70807Y-51282D01*
D02*
G37*
G36*
X-78681D02*
X-79519D01*
X-80328Y-51499D01*
X-81053Y-51918D01*
X-81645Y-52510D01*
X-82064Y-53235D01*
X-82281Y-54044D01*
Y-54882D01*
X-82064Y-55691D01*
X-81645Y-56416D01*
X-81053Y-57008D01*
X-80328Y-57427D01*
X-79519Y-57644D01*
X-78681D01*
X-77872Y-57427D01*
X-77147Y-57008D01*
X-76555Y-56416D01*
X-76136Y-55691D01*
X-75919Y-54882D01*
Y-54044D01*
X-76136Y-53235D01*
X-76555Y-52510D01*
X-77147Y-51918D01*
X-77872Y-51499D01*
X-78681Y-51282D01*
D02*
G37*
G36*
X-47500Y-59059D02*
Y-60500D01*
X-46059D01*
X-46318Y-59876D01*
X-46876Y-59318D01*
X-47500Y-59059D01*
D02*
G37*
G36*
X-48500D02*
X-49124Y-59318D01*
X-49682Y-59876D01*
X-49941Y-60500D01*
X-48500D01*
Y-59059D01*
D02*
G37*
G36*
X8598Y-52507D02*
X7402D01*
X6246Y-52816D01*
X5210Y-53414D01*
X4364Y-54260D01*
X3766Y-55296D01*
X3457Y-56452D01*
Y-57648D01*
X3766Y-58804D01*
X4364Y-59840D01*
X5210Y-60685D01*
X6246Y-61284D01*
X7402Y-61593D01*
X8598D01*
X9754Y-61284D01*
X10790Y-60685D01*
X11636Y-59840D01*
X12234Y-58804D01*
X12543Y-57648D01*
Y-56452D01*
X12234Y-55296D01*
X11636Y-54260D01*
X10790Y-53414D01*
X9754Y-52816D01*
X8598Y-52507D01*
D02*
G37*
G36*
X-8679Y-60824D02*
X-10950D01*
Y-62112D01*
X-8679D01*
Y-60824D01*
D02*
G37*
G36*
X-46059Y-61500D02*
X-47500D01*
Y-62941D01*
X-46876Y-62682D01*
X-46318Y-62124D01*
X-46059Y-61500D01*
D02*
G37*
G36*
X-48500D02*
X-49941D01*
X-49682Y-62124D01*
X-49124Y-62682D01*
X-48500Y-62941D01*
Y-61500D01*
D02*
G37*
G36*
X-62933Y-59156D02*
X-63771D01*
X-64580Y-59373D01*
X-65305Y-59792D01*
X-65897Y-60384D01*
X-66316Y-61109D01*
X-66533Y-61918D01*
Y-62756D01*
X-66316Y-63565D01*
X-65897Y-64290D01*
X-65305Y-64882D01*
X-64580Y-65301D01*
X-63771Y-65518D01*
X-62933D01*
X-62124Y-65301D01*
X-61399Y-64882D01*
X-60807Y-64290D01*
X-60388Y-63565D01*
X-60171Y-62756D01*
Y-61918D01*
X-60388Y-61109D01*
X-60807Y-60384D01*
X-61399Y-59792D01*
X-62124Y-59373D01*
X-62933Y-59156D01*
D02*
G37*
G36*
X-70807D02*
X-71645D01*
X-72454Y-59373D01*
X-73179Y-59792D01*
X-73771Y-60384D01*
X-74190Y-61109D01*
X-74407Y-61918D01*
Y-62756D01*
X-74190Y-63565D01*
X-73771Y-64290D01*
X-73179Y-64882D01*
X-72454Y-65301D01*
X-71645Y-65518D01*
X-70807D01*
X-69998Y-65301D01*
X-69273Y-64882D01*
X-68681Y-64290D01*
X-68262Y-63565D01*
X-68045Y-62756D01*
Y-61918D01*
X-68262Y-61109D01*
X-68681Y-60384D01*
X-69273Y-59792D01*
X-69998Y-59373D01*
X-70807Y-59156D01*
D02*
G37*
G36*
X-78681D02*
X-79519D01*
X-80328Y-59373D01*
X-81053Y-59792D01*
X-81645Y-60384D01*
X-82064Y-61109D01*
X-82281Y-61918D01*
Y-62756D01*
X-82064Y-63565D01*
X-81645Y-64290D01*
X-81053Y-64882D01*
X-80328Y-65301D01*
X-79519Y-65518D01*
X-78681D01*
X-77872Y-65301D01*
X-77147Y-64882D01*
X-76555Y-64290D01*
X-76136Y-63565D01*
X-75919Y-62756D01*
Y-61918D01*
X-76136Y-61109D01*
X-76555Y-60384D01*
X-77147Y-59792D01*
X-77872Y-59373D01*
X-78681Y-59156D01*
D02*
G37*
G36*
X79529Y-52202D02*
X78071D01*
X76642Y-52487D01*
X75296Y-53044D01*
X74084Y-53854D01*
X73054Y-54884D01*
X72244Y-56096D01*
X71687Y-57442D01*
X71402Y-58871D01*
Y-60329D01*
X71687Y-61758D01*
X72244Y-63104D01*
X73054Y-64316D01*
X74084Y-65346D01*
X75296Y-66156D01*
X76642Y-66713D01*
X78071Y-66998D01*
X79529D01*
X80958Y-66713D01*
X82304Y-66156D01*
X83516Y-65346D01*
X84546Y-64316D01*
X85356Y-63104D01*
X85913Y-61758D01*
X86198Y-60329D01*
Y-58871D01*
X85913Y-57442D01*
X85356Y-56096D01*
X84546Y-54884D01*
X83516Y-53854D01*
X82304Y-53044D01*
X80958Y-52487D01*
X79529Y-52202D01*
D02*
G37*
G36*
X-88578Y-59431D02*
X-89622D01*
X-90632Y-59702D01*
X-91537Y-60224D01*
X-92276Y-60963D01*
X-92798Y-61868D01*
X-93068Y-62878D01*
Y-63923D01*
X-92798Y-64932D01*
X-92276Y-65837D01*
X-91537Y-66576D01*
X-90632Y-67098D01*
X-89622Y-67369D01*
X-88578D01*
X-87568Y-67098D01*
X-86663Y-66576D01*
X-85924Y-65837D01*
X-85402Y-64932D01*
X-85132Y-63923D01*
Y-62878D01*
X-85402Y-61868D01*
X-85924Y-60963D01*
X-86663Y-60224D01*
X-87568Y-59702D01*
X-88578Y-59431D01*
D02*
G37*
G36*
X-40389Y-64432D02*
X-41434D01*
X-42443Y-64702D01*
X-43348Y-65224D01*
X-44087Y-65963D01*
X-44609Y-66868D01*
X-44879Y-67878D01*
Y-68923D01*
X-44609Y-69932D01*
X-44087Y-70837D01*
X-43348Y-71576D01*
X-42443Y-72098D01*
X-41434Y-72369D01*
X-40389D01*
X-39379Y-72098D01*
X-38474Y-71576D01*
X-37735Y-70837D01*
X-37213Y-69932D01*
X-36942Y-68923D01*
Y-67878D01*
X-37213Y-66868D01*
X-37735Y-65963D01*
X-38474Y-65224D01*
X-39379Y-64702D01*
X-40389Y-64432D01*
D02*
G37*
G36*
X-88578Y-69432D02*
X-89622D01*
X-90632Y-69702D01*
X-91537Y-70224D01*
X-92276Y-70963D01*
X-92798Y-71868D01*
X-93068Y-72878D01*
Y-73922D01*
X-92798Y-74932D01*
X-92276Y-75837D01*
X-91537Y-76576D01*
X-90632Y-77098D01*
X-89622Y-77368D01*
X-88578D01*
X-87568Y-77098D01*
X-86663Y-76576D01*
X-85924Y-75837D01*
X-85402Y-74932D01*
X-85132Y-73922D01*
Y-72878D01*
X-85402Y-71868D01*
X-85924Y-70963D01*
X-86663Y-70224D01*
X-87568Y-69702D01*
X-88578Y-69432D01*
D02*
G37*
G36*
X82500Y-79059D02*
Y-80500D01*
X83941D01*
X83682Y-79876D01*
X83124Y-79318D01*
X82500Y-79059D01*
D02*
G37*
G36*
X81500D02*
X80876Y-79318D01*
X80318Y-79876D01*
X80059Y-80500D01*
X81500D01*
Y-79059D01*
D02*
G37*
G36*
X-57500D02*
Y-80500D01*
X-56059D01*
X-56318Y-79876D01*
X-56876Y-79318D01*
X-57500Y-79059D01*
D02*
G37*
G36*
X-58500D02*
X-59124Y-79318D01*
X-59682Y-79876D01*
X-59941Y-80500D01*
X-58500D01*
Y-79059D01*
D02*
G37*
G36*
X-77500D02*
Y-80500D01*
X-76059D01*
X-76318Y-79876D01*
X-76876Y-79318D01*
X-77500Y-79059D01*
D02*
G37*
G36*
X-78500D02*
X-79124Y-79318D01*
X-79682Y-79876D01*
X-79941Y-80500D01*
X-78500D01*
Y-79059D01*
D02*
G37*
G36*
X-40389Y-74432D02*
X-41434D01*
X-42443Y-74702D01*
X-43348Y-75224D01*
X-44087Y-75963D01*
X-44609Y-76868D01*
X-44879Y-77877D01*
Y-78922D01*
X-44609Y-79932D01*
X-44087Y-80837D01*
X-43348Y-81576D01*
X-42443Y-82098D01*
X-41434Y-82368D01*
X-40389D01*
X-39379Y-82098D01*
X-38474Y-81576D01*
X-37735Y-80837D01*
X-37213Y-79932D01*
X-36942Y-78922D01*
Y-77877D01*
X-37213Y-76868D01*
X-37735Y-75963D01*
X-38474Y-75224D01*
X-39379Y-74702D01*
X-40389Y-74432D01*
D02*
G37*
G36*
X83941Y-81500D02*
X82500D01*
Y-82941D01*
X83124Y-82682D01*
X83682Y-82124D01*
X83941Y-81500D01*
D02*
G37*
G36*
X81500D02*
X80059D01*
X80318Y-82124D01*
X80876Y-82682D01*
X81500Y-82941D01*
Y-81500D01*
D02*
G37*
G36*
X-56059D02*
X-57500D01*
Y-82941D01*
X-56876Y-82682D01*
X-56318Y-82124D01*
X-56059Y-81500D01*
D02*
G37*
G36*
X-58500D02*
X-59941D01*
X-59682Y-82124D01*
X-59124Y-82682D01*
X-58500Y-82941D01*
Y-81500D01*
D02*
G37*
G36*
X-76059D02*
X-77500D01*
Y-82941D01*
X-76876Y-82682D01*
X-76318Y-82124D01*
X-76059Y-81500D01*
D02*
G37*
G36*
X-78500D02*
X-79941D01*
X-79682Y-82124D01*
X-79124Y-82682D01*
X-78500Y-82941D01*
Y-81500D01*
D02*
G37*
G36*
X-8679Y-81888D02*
X-10950D01*
Y-83176D01*
X-8679D01*
Y-81888D01*
D02*
G37*
G36*
X-88578Y-79431D02*
X-89622D01*
X-90632Y-79702D01*
X-91537Y-80224D01*
X-92276Y-80963D01*
X-92798Y-81868D01*
X-93068Y-82877D01*
Y-83922D01*
X-92798Y-84932D01*
X-92276Y-85837D01*
X-91537Y-86576D01*
X-90632Y-87098D01*
X-89622Y-87369D01*
X-88578D01*
X-87568Y-87098D01*
X-86663Y-86576D01*
X-85924Y-85837D01*
X-85402Y-84932D01*
X-85132Y-83922D01*
Y-82877D01*
X-85402Y-81868D01*
X-85924Y-80963D01*
X-86663Y-80224D01*
X-87568Y-79702D01*
X-88578Y-79431D01*
D02*
G37*
G36*
X-40389Y-84431D02*
X-41434D01*
X-42443Y-84702D01*
X-43348Y-85224D01*
X-44087Y-85963D01*
X-44609Y-86868D01*
X-44879Y-87878D01*
Y-88923D01*
X-44609Y-89932D01*
X-44087Y-90837D01*
X-43348Y-91576D01*
X-42443Y-92098D01*
X-41434Y-92369D01*
X-40389D01*
X-39379Y-92098D01*
X-38474Y-91576D01*
X-37735Y-90837D01*
X-37213Y-89932D01*
X-36942Y-88923D01*
Y-87878D01*
X-37213Y-86868D01*
X-37735Y-85963D01*
X-38474Y-85224D01*
X-39379Y-84702D01*
X-40389Y-84431D01*
D02*
G37*
G36*
X12543Y-88457D02*
X8500D01*
Y-92500D01*
X12543D01*
Y-88457D01*
D02*
G37*
G36*
X-8679Y-93624D02*
X-10950D01*
Y-94912D01*
X-8679D01*
Y-93624D01*
D02*
G37*
G36*
X-87116Y-89432D02*
X-91084D01*
X-93068Y-91416D01*
Y-95384D01*
X-91084Y-97369D01*
X-87116D01*
X-85132Y-95384D01*
Y-91416D01*
X-87116Y-89432D01*
D02*
G37*
G36*
X12543Y-93500D02*
X8500D01*
Y-97543D01*
X12543D01*
Y-93500D01*
D02*
G37*
G36*
X-47500Y-99059D02*
Y-100500D01*
X-46059D01*
X-46318Y-99876D01*
X-46876Y-99318D01*
X-47500Y-99059D01*
D02*
G37*
G36*
X-48500D02*
X-49124Y-99318D01*
X-49682Y-99876D01*
X-49941Y-100500D01*
X-48500D01*
Y-99059D01*
D02*
G37*
G36*
X-67500D02*
Y-100500D01*
X-66059D01*
X-66318Y-99876D01*
X-66876Y-99318D01*
X-67500Y-99059D01*
D02*
G37*
G36*
X-68500D02*
X-69124Y-99318D01*
X-69682Y-99876D01*
X-69941Y-100500D01*
X-68500D01*
Y-99059D01*
D02*
G37*
G36*
X-46059Y-101500D02*
X-47500D01*
Y-102941D01*
X-46876Y-102682D01*
X-46318Y-102124D01*
X-46059Y-101500D01*
D02*
G37*
G36*
X-48500D02*
X-49941D01*
X-49682Y-102124D01*
X-49124Y-102682D01*
X-48500Y-102941D01*
Y-101500D01*
D02*
G37*
G36*
X-66059D02*
X-67500D01*
Y-102941D01*
X-66876Y-102682D01*
X-66318Y-102124D01*
X-66059Y-101500D01*
D02*
G37*
G36*
X-68500D02*
X-69941D01*
X-69682Y-102124D01*
X-69124Y-102682D01*
X-68500Y-102941D01*
Y-101500D01*
D02*
G37*
G36*
X-28578Y-99432D02*
X-29623D01*
X-30632Y-99702D01*
X-31537Y-100224D01*
X-32276Y-100963D01*
X-32798Y-101868D01*
X-33068Y-102877D01*
Y-103922D01*
X-32798Y-104932D01*
X-32276Y-105837D01*
X-31537Y-106576D01*
X-30632Y-107098D01*
X-29623Y-107369D01*
X-28578D01*
X-27568Y-107098D01*
X-26663Y-106576D01*
X-25924Y-105837D01*
X-25402Y-104932D01*
X-25131Y-103922D01*
Y-102877D01*
X-25402Y-101868D01*
X-25924Y-100963D01*
X-26663Y-100224D01*
X-27568Y-99702D01*
X-28578Y-99432D01*
D02*
G37*
G36*
X-78578D02*
X-79623D01*
X-80632Y-99702D01*
X-81537Y-100224D01*
X-82276Y-100963D01*
X-82798Y-101868D01*
X-83069Y-102877D01*
Y-103922D01*
X-82798Y-104932D01*
X-82276Y-105837D01*
X-81537Y-106576D01*
X-80632Y-107098D01*
X-79623Y-107369D01*
X-78578D01*
X-77568Y-107098D01*
X-76663Y-106576D01*
X-75924Y-105837D01*
X-75402Y-104932D01*
X-75131Y-103922D01*
Y-102877D01*
X-75402Y-101868D01*
X-75924Y-100963D01*
X-76663Y-100224D01*
X-77568Y-99702D01*
X-78578Y-99432D01*
D02*
G37*
G36*
X-54641Y-108526D02*
X-55686D01*
X-56695Y-108796D01*
X-57600Y-109318D01*
X-58339Y-110057D01*
X-58834Y-110915D01*
X-59100Y-110956D01*
X-59366Y-110915D01*
X-59861Y-110057D01*
X-60600Y-109318D01*
X-61505Y-108796D01*
X-62515Y-108526D01*
X-63560D01*
X-64569Y-108796D01*
X-65474Y-109318D01*
X-66213Y-110057D01*
X-66735Y-110962D01*
X-67005Y-111971D01*
Y-113016D01*
X-66735Y-114026D01*
X-66213Y-114931D01*
X-65474Y-115670D01*
X-64569Y-116192D01*
X-63560Y-116463D01*
X-62515D01*
X-61505Y-116192D01*
X-60600Y-115670D01*
X-59861Y-114931D01*
X-59366Y-114073D01*
X-59100Y-114032D01*
X-58834Y-114073D01*
X-58339Y-114931D01*
X-57600Y-115670D01*
X-56695Y-116192D01*
X-55686Y-116463D01*
X-54641D01*
X-53631Y-116192D01*
X-52726Y-115670D01*
X-51987Y-114931D01*
X-51465Y-114026D01*
X-51195Y-113016D01*
Y-111971D01*
X-51465Y-110962D01*
X-51987Y-110057D01*
X-52726Y-109318D01*
X-53631Y-108796D01*
X-54641Y-108526D01*
D02*
G37*
G36*
X79529Y-97202D02*
X78071D01*
X76642Y-97487D01*
X75296Y-98044D01*
X74084Y-98854D01*
X73054Y-99884D01*
X72244Y-101096D01*
X71687Y-102442D01*
X71402Y-103871D01*
Y-105329D01*
X71687Y-106758D01*
X72244Y-108104D01*
X73054Y-109316D01*
X74084Y-110346D01*
X75296Y-111156D01*
X76642Y-111713D01*
X78071Y-111998D01*
X79529D01*
X80958Y-111713D01*
X82304Y-111156D01*
X83516Y-110346D01*
X84546Y-109316D01*
X85356Y-108104D01*
X85913Y-106758D01*
X86198Y-105329D01*
Y-103871D01*
X85913Y-102442D01*
X85356Y-101096D01*
X84546Y-99884D01*
X83516Y-98854D01*
X82304Y-98044D01*
X80958Y-97487D01*
X79529Y-97202D01*
D02*
G37*
G36*
X82500Y-119059D02*
Y-120500D01*
X83941D01*
X83682Y-119876D01*
X83124Y-119318D01*
X82500Y-119059D01*
D02*
G37*
G36*
X81500D02*
X80876Y-119318D01*
X80318Y-119876D01*
X80059Y-120500D01*
X81500D01*
Y-119059D01*
D02*
G37*
G36*
X83941Y-121500D02*
X82500D01*
Y-122941D01*
X83124Y-122682D01*
X83682Y-122124D01*
X83941Y-121500D01*
D02*
G37*
G36*
X81500D02*
X80059D01*
X80318Y-122124D01*
X80876Y-122682D01*
X81500Y-122941D01*
Y-121500D01*
D02*
G37*
G36*
X-78500D02*
X-79941D01*
X-79682Y-122124D01*
X-79124Y-122682D01*
X-78500Y-122941D01*
Y-121500D01*
D02*
G37*
G36*
X8598Y-128457D02*
X7402D01*
X6246Y-128766D01*
X5210Y-129365D01*
X4364Y-130210D01*
X3766Y-131246D01*
X3457Y-132402D01*
Y-133598D01*
X3766Y-134754D01*
X4364Y-135790D01*
X5210Y-136635D01*
X6246Y-137234D01*
X7402Y-137543D01*
X8598D01*
X9754Y-137234D01*
X10790Y-136635D01*
X11636Y-135790D01*
X12234Y-134754D01*
X12543Y-133598D01*
Y-132402D01*
X12234Y-131246D01*
X11636Y-130210D01*
X10790Y-129365D01*
X9754Y-128766D01*
X8598Y-128457D01*
D02*
G37*
G36*
X83853Y-133658D02*
X83500D01*
Y-144000D01*
X93843D01*
Y-143647D01*
X93576Y-141961D01*
X93048Y-140338D01*
X92273Y-138817D01*
X91270Y-137437D01*
X90063Y-136230D01*
X88683Y-135227D01*
X87162Y-134452D01*
X85539Y-133924D01*
X83853Y-133658D01*
D02*
G37*
G36*
X82500D02*
X82147D01*
X80461Y-133924D01*
X78838Y-134452D01*
X77317Y-135227D01*
X75937Y-136230D01*
X74730Y-137437D01*
X73727Y-138817D01*
X72952Y-140338D01*
X72425Y-141961D01*
X72158Y-143647D01*
Y-144000D01*
X82500D01*
Y-133658D01*
D02*
G37*
G36*
X-38313Y-142362D02*
X-40313D01*
Y-144362D01*
X-38313D01*
Y-142362D01*
D02*
G37*
G36*
X-82147Y-134658D02*
X-82500D01*
Y-145000D01*
X-72158D01*
Y-144647D01*
X-72425Y-142961D01*
X-72952Y-141338D01*
X-73727Y-139817D01*
X-74730Y-138437D01*
X-75937Y-137230D01*
X-77317Y-136227D01*
X-78838Y-135452D01*
X-80461Y-134924D01*
X-82147Y-134658D01*
D02*
G37*
G36*
X-83500D02*
X-83853D01*
X-85539Y-134924D01*
X-87162Y-135452D01*
X-88683Y-136227D01*
X-90063Y-137230D01*
X-91270Y-138437D01*
X-92273Y-139817D01*
X-93048Y-141338D01*
X-93576Y-142961D01*
X-93843Y-144647D01*
Y-145000D01*
X-83500D01*
Y-134658D01*
D02*
G37*
G36*
X93843Y-145000D02*
X83500D01*
Y-155342D01*
X83853D01*
X85539Y-155076D01*
X87162Y-154548D01*
X88683Y-153773D01*
X90063Y-152770D01*
X91270Y-151563D01*
X92273Y-150183D01*
X93048Y-148662D01*
X93576Y-147039D01*
X93843Y-145353D01*
Y-145000D01*
D02*
G37*
G36*
X82500D02*
X72158D01*
Y-145353D01*
X72425Y-147039D01*
X72952Y-148662D01*
X73727Y-150183D01*
X74730Y-151563D01*
X75937Y-152770D01*
X77317Y-153773D01*
X78838Y-154548D01*
X80461Y-155076D01*
X82147Y-155342D01*
X82500D01*
Y-145000D01*
D02*
G37*
G36*
X-72158Y-146000D02*
X-82500D01*
Y-156342D01*
X-82147D01*
X-80461Y-156076D01*
X-78838Y-155548D01*
X-77317Y-154773D01*
X-75937Y-153770D01*
X-74730Y-152563D01*
X-73727Y-151183D01*
X-72952Y-149662D01*
X-72425Y-148039D01*
X-72158Y-146353D01*
Y-146000D01*
D02*
G37*
G36*
X-83500D02*
X-93843D01*
Y-146353D01*
X-93576Y-148039D01*
X-93048Y-149662D01*
X-92273Y-151183D01*
X-91270Y-152563D01*
X-90063Y-153770D01*
X-88683Y-154773D01*
X-87162Y-155548D01*
X-85539Y-156076D01*
X-83853Y-156342D01*
X-83500D01*
Y-146000D01*
D02*
G37*
G36*
X61500Y40941D02*
X60876Y40682D01*
X60318Y40124D01*
X60059Y39500D01*
X61500D01*
Y40941D01*
D02*
G37*
G36*
Y38500D02*
X60059D01*
X60318Y37876D01*
X60876Y37318D01*
X61500Y37059D01*
Y38500D01*
D02*
G37*
G36*
X-1419Y20993D02*
Y19553D01*
X22D01*
X-236Y20177D01*
X-795Y20735D01*
X-1419Y20993D01*
D02*
G37*
G36*
X-2419D02*
X-3042Y20735D01*
X-3601Y20177D01*
X-3859Y19553D01*
X-2419D01*
Y20993D01*
D02*
G37*
G36*
X32500Y20941D02*
Y19500D01*
X33941D01*
X33682Y20124D01*
X33124Y20682D01*
X32500Y20941D01*
D02*
G37*
G36*
X-7500D02*
Y19500D01*
X-6059D01*
X-6318Y20124D01*
X-6876Y20682D01*
X-7500Y20941D01*
D02*
G37*
G36*
X-8500D02*
X-9124Y20682D01*
X-9682Y20124D01*
X-9941Y19500D01*
X-8500D01*
Y20941D01*
D02*
G37*
G36*
X22Y18553D02*
X-1419D01*
Y17112D01*
X-795Y17370D01*
X-236Y17929D01*
X22Y18553D01*
D02*
G37*
G36*
X-2419D02*
X-3859D01*
X-3601Y17929D01*
X-3042Y17370D01*
X-2419Y17112D01*
Y18553D01*
D02*
G37*
G36*
X53941Y18500D02*
X52500D01*
Y17059D01*
X53124Y17318D01*
X53682Y17876D01*
X53941Y18500D01*
D02*
G37*
G36*
X51500D02*
X50059D01*
X50318Y17876D01*
X50876Y17318D01*
X51500Y17059D01*
Y18500D01*
D02*
G37*
G36*
X-6059D02*
X-7500D01*
Y17059D01*
X-6876Y17318D01*
X-6318Y17876D01*
X-6059Y18500D01*
D02*
G37*
G36*
X-8500D02*
X-9941D01*
X-9682Y17876D01*
X-9124Y17318D01*
X-8500Y17059D01*
Y18500D01*
D02*
G37*
G36*
X7500Y18400D02*
X3457D01*
Y14357D01*
X7500D01*
Y18400D01*
D02*
G37*
G36*
X-45359Y34900D02*
X-46800D01*
Y33459D01*
X-46176Y33718D01*
X-45618Y34276D01*
X-45359Y34900D01*
D02*
G37*
G36*
X-47800D02*
X-49241D01*
X-48982Y34276D01*
X-48424Y33718D01*
X-47800Y33459D01*
Y34900D01*
D02*
G37*
G36*
X-44320Y31250D02*
X-46898D01*
Y30258D01*
X-44320D01*
Y31250D01*
D02*
G37*
G36*
X50600Y-39759D02*
Y-41200D01*
X52041D01*
X51782Y-40576D01*
X51224Y-40018D01*
X50600Y-39759D01*
D02*
G37*
%LPD*%
D14*
X-39300Y21900D02*
X-38800Y21400D01*
X-41025Y23861D02*
X-40439Y24446D01*
Y36613D01*
X-47398Y23861D02*
X-41025D01*
X-45508Y21900D02*
X-39300D01*
X-45516Y21892D02*
X-45508Y21900D01*
X-45820Y21892D02*
X-45516D01*
X-49847Y19924D02*
X-47406D01*
X-53316Y23392D02*
X-49847Y19924D01*
X-53316Y23392D02*
Y30754D01*
X-47406Y19924D02*
X-47398Y19916D01*
X-47390Y19908D01*
X-57253Y-7653D02*
Y11046D01*
X-53316Y6184D02*
Y11046D01*
X-54657Y3700D02*
X-47400D01*
X-41700Y9400D01*
X-55342Y3015D02*
X-54657Y3700D01*
X-55342Y-13642D02*
Y3015D01*
X-41700Y9400D02*
Y18800D01*
X-65500Y-1000D02*
X-62014D01*
X-67400Y-2900D02*
X-65500Y-1000D01*
X-67400Y-7000D02*
Y-2900D01*
X-62014Y-714D02*
Y12034D01*
X-63384Y-10584D02*
X-62014Y-9214D01*
X-82083Y-27869D02*
X-64798Y-10584D01*
X-63384D01*
X-59100Y-9500D02*
X-57253Y-7653D01*
X-62014Y-9500D02*
X-59100D01*
X-90951Y-27869D02*
X-82083D01*
X-62899Y-18300D02*
X-60000D01*
X-55342Y-13642D01*
X-53424Y40088D02*
X-50353Y43158D01*
X-41406D01*
X-36190Y37942D01*
X-54900Y40088D02*
X-53424D01*
X-36190Y33690D02*
Y37942D01*
Y33690D02*
X-29100Y26600D01*
X-43815Y39988D02*
X-40439Y36613D01*
X-64400Y40088D02*
X-54900D01*
X-55284Y30754D02*
Y39704D01*
X-54900Y40088D01*
X-55284Y11046D02*
Y28495D01*
X-55292Y28502D02*
X-55284Y28495D01*
X-61202Y27790D02*
X-61194Y27782D01*
X-58493D02*
X-58283Y27572D01*
X-56222D01*
X-61194Y27782D02*
X-58493D01*
X-56222Y27572D02*
X-55292Y28502D01*
X-42808Y19908D02*
X-41700Y18800D01*
X-47390Y19908D02*
X-42808D01*
X-62006Y12042D02*
X-61202D01*
X-62014Y12034D02*
X-62006Y12042D01*
X-51187Y-7800D02*
X-50301Y-8687D01*
Y-16600D02*
Y-8687D01*
X-51187Y-7800D02*
Y700D01*
X-44700D02*
X-35400Y10000D01*
Y20300D01*
X-29100Y26600D01*
X-51187Y700D02*
X-44700D01*
X-83800Y-23400D02*
X-67400Y-7000D01*
X-89100Y-23400D02*
X-83800D01*
X-93568Y-25251D02*
X-90951Y-27869D01*
X-93568Y-25251D02*
Y-17868D01*
X-89100Y-13400D01*
X-57253Y30754D02*
Y34414D01*
X-66367Y35000D02*
X-57838D01*
X-69046Y37680D02*
X-66367Y35000D01*
X-57838D02*
X-57253Y34414D01*
X-65070Y21884D02*
X-61202D01*
X-65077Y21877D02*
X-65070Y21884D01*
X-70153Y19347D02*
X-65647Y23853D01*
X-61202D01*
X-73743Y17879D02*
X-72274Y19347D01*
X-70153D01*
X-74032Y17879D02*
X-73743D01*
Y27721D02*
Y38131D01*
X-75400Y39788D02*
X-73743Y38131D01*
Y27721D02*
X-72168D01*
X-70268Y25821D02*
X-61202D01*
X-72168Y27721D02*
X-70268Y25821D01*
X-75500Y16410D02*
X-74032Y17879D01*
X-75500Y6312D02*
Y16410D01*
X44091Y105936D02*
X53248D01*
X58502Y93643D02*
Y105773D01*
X54739Y109536D02*
X58502Y105773D01*
X52559Y97700D02*
X54902Y100043D01*
X56702Y96843D02*
Y105027D01*
X54902Y100043D02*
Y104282D01*
X53248Y105936D02*
X54902Y104282D01*
X53993Y107736D02*
X56702Y105027D01*
X44836Y107736D02*
X53993D01*
X-45800Y136100D02*
X-45700Y136200D01*
X-37536D01*
X-497Y99161D01*
X-6Y83794D02*
X0Y83800D01*
X-9509Y88334D02*
X-497D01*
X-2200Y80100D02*
X-6Y82293D01*
X2350Y84964D02*
Y86964D01*
X2800Y78377D02*
Y84513D01*
X2350Y84964D02*
X2800Y84513D01*
X-6Y82293D02*
Y83794D01*
X980Y88334D02*
X2350Y86964D01*
X2800Y71800D02*
Y78377D01*
X-497Y88334D02*
X980D01*
X37200Y47672D02*
Y59215D01*
X30395Y46500D02*
X36028D01*
X37200Y47672D01*
X21915Y38985D02*
X22100Y38800D01*
X24902Y41601D01*
X30294D02*
X30395Y41500D01*
X50390Y38843D02*
X54241D01*
X24902Y41601D02*
X30294D01*
X17475Y38985D02*
X21915D01*
X19042Y8897D02*
Y25445D01*
X21940Y34411D02*
X22126Y34226D01*
X56802Y29173D02*
Y36282D01*
X25405Y33843D02*
X44607D01*
X24400Y36500D02*
X30395D01*
X55002Y29918D02*
Y34157D01*
X52659Y36500D02*
X55002Y34157D01*
X52729Y27645D02*
X55002Y29918D01*
X53000Y25371D02*
X56802Y29173D01*
X45217Y27645D02*
X52729D01*
X44607Y33843D02*
X46950Y31500D01*
X54241Y38843D02*
X56802Y36282D01*
X38136Y13757D02*
X39900Y11993D01*
X49600D01*
X43321Y-7540D02*
X55949D01*
X49600Y23607D02*
X51364Y25371D01*
X53000D01*
X37239Y2421D02*
X55017D01*
X39900Y23607D02*
X41179D01*
X43321Y-68006D02*
Y-58940D01*
X53200Y-70700D02*
Y-53313D01*
X43321Y-68006D02*
X51730Y-76415D01*
X56700Y-64500D02*
Y-42225D01*
X46320Y-31845D02*
X56700Y-42225D01*
X57300Y-80962D02*
Y-78313D01*
X56626Y-94326D02*
Y-94326D01*
X51400Y-72413D02*
X57300Y-78313D01*
X51730Y-89430D02*
Y-76415D01*
X56936Y-81326D02*
X57300Y-80962D01*
X53200Y-70700D02*
X56700Y-74200D01*
X56936Y-84236D02*
Y-81326D01*
X51400Y-72413D02*
Y-54058D01*
X51730Y-89430D02*
X56626Y-94326D01*
X49805Y36500D02*
X52659D01*
X49805Y39429D02*
X50390Y38843D01*
X49805Y39429D02*
Y41500D01*
X46950Y31500D02*
X49805D01*
X52873Y-24674D02*
X56700Y-28500D01*
X53312Y-14712D02*
X56900Y-18300D01*
X55949Y-7540D02*
X56595Y-8187D01*
X56338Y1100D02*
X56600D01*
X55017Y2421D02*
X56338Y1100D01*
X19042Y8897D02*
X31058Y-3119D01*
X33276Y13757D02*
X38136D01*
X15432Y31600D02*
X33276Y13757D01*
X41179Y23607D02*
X45217Y27645D01*
X22126Y34226D02*
X24400Y36500D01*
X22200Y30638D02*
X25405Y33843D01*
X17129Y34411D02*
X21940D01*
X16953Y3505D02*
Y24988D01*
X-19796Y-85763D02*
X-18734Y-86825D01*
X-17750D01*
X-24107Y-81715D02*
X-20060Y-85763D01*
X-22525Y-89975D02*
X-17750D01*
X-11450Y-86825D02*
Y-83676D01*
X-20060Y-85763D02*
X-19796D01*
X-23056Y-93124D02*
X-17750D01*
X-33569Y-55251D02*
X-30951Y-57868D01*
X-24107Y-81715D02*
Y-68392D01*
X-33569Y-85251D02*
Y-77868D01*
X-29100Y-73400D01*
Y-63400D02*
X-24107Y-68392D01*
X-11450Y-89975D02*
Y-86825D01*
Y-93124D02*
Y-89975D01*
X-29888Y-88932D02*
X-27249D01*
X-23056Y-93124D01*
X-29100Y-83400D02*
X-22525Y-89975D01*
X-33569Y-85251D02*
X-29888Y-88932D01*
X-19231Y7340D02*
X-2979Y-8913D01*
X40900Y-4481D02*
X42640D01*
X43321Y-3800D01*
X38689Y-6692D02*
X40900Y-4481D01*
X32798Y-3119D02*
X33479Y-3800D01*
X32199Y-7540D02*
X33479D01*
X38689Y-7810D02*
Y-6692D01*
X13353Y-10028D02*
X30480Y-27155D01*
X37841Y-17193D02*
X40322Y-14712D01*
X15153Y-4348D02*
X31058Y-20252D01*
X23038Y-16194D02*
X29299Y-22455D01*
X16953Y3505D02*
X30480Y-10021D01*
X33479Y-60D02*
X34758D01*
X37239Y2421D01*
X22900Y1300D02*
X26848Y-2648D01*
X31058Y-3119D02*
X32798D01*
X36478Y-10021D02*
X38689Y-7810D01*
X26848Y-2649D02*
X30480Y-6281D01*
Y-10021D02*
X36478D01*
X26848Y-2649D02*
Y-2648D01*
X30480Y-6281D02*
X30940D01*
X32199Y-7540D01*
X23232Y-40945D02*
X26575Y-44288D01*
X27503Y-41703D02*
X33375D01*
X27400Y-41600D02*
X27503Y-41703D01*
X26575Y-44288D02*
X36478D01*
X33375Y-41703D02*
X33479Y-41807D01*
X25861Y-38067D02*
X33479D01*
X23232Y-40945D02*
Y-37982D01*
X13938Y-26143D02*
X25861Y-38067D01*
X21431Y-44893D02*
Y-38728D01*
X30480Y-27155D02*
X36478D01*
X13192Y-27943D02*
X23232Y-37982D01*
X36478Y-27155D02*
X38689Y-24943D01*
X31518Y-24674D02*
X33479Y-24674D01*
X38689Y-24943D02*
Y-23825D01*
X40900Y-38748D02*
X42640D01*
X29299Y-22455D02*
X31518Y-24674D01*
X33479Y-17193D02*
X37841D01*
X31058Y-20252D02*
X32798D01*
X33479Y-20933D01*
X38689Y-58092D02*
X40900Y-55881D01*
X42640D01*
X32798Y-54519D02*
X33479Y-55200D01*
X30480Y-61421D02*
X36478D01*
X38689Y-59210D01*
X32798Y-58259D02*
X33479Y-58940D01*
X38689Y-59210D02*
Y-58092D01*
X30859Y-58259D02*
X32798D01*
X-29100Y-3400D02*
X-28155Y-4345D01*
Y-7345D02*
Y-4345D01*
X-18634Y-21924D02*
X-17650D01*
X-19021Y-15338D02*
Y-15238D01*
Y-15338D02*
X-18734Y-15625D01*
X-17650D01*
X-11450Y-60324D02*
Y-57175D01*
X-25856Y-60324D02*
X-17650D01*
X-25325Y-57175D02*
X-17650D01*
X-24058Y-52943D02*
X-22976Y-54025D01*
X-11450Y-57175D02*
Y-54025D01*
Y-50876D01*
X-22976Y-54025D02*
X-17650D01*
X5165Y-27943D02*
X13192D01*
X5911Y-26143D02*
X13938D01*
X40322Y-14712D02*
X53312D01*
X40322Y-48979D02*
X49227D01*
X37841Y-51460D02*
X40322Y-48979D01*
X21431Y-44893D02*
X31058Y-54519D01*
X33479Y-51460D02*
X37841D01*
X31058Y-54519D02*
X32798D01*
X19632Y-50573D02*
X30480Y-61421D01*
X23700Y-51100D02*
X30859Y-58259D01*
X53184Y-53297D02*
X53200Y-53313D01*
X49951Y-41550D02*
X50100Y-41700D01*
X51384Y-54043D02*
Y-50471D01*
Y-54043D02*
X51400Y-54058D01*
X49951Y-41550D02*
Y-39216D01*
X53184Y-53297D02*
Y-49484D01*
X46188Y-42488D02*
X53184Y-49484D01*
X43321Y-24674D02*
X52873D01*
X49929Y-49016D02*
X51384Y-50471D01*
X46320Y-35586D02*
X49951Y-39216D01*
X38689Y-23825D02*
X40900Y-21614D01*
X43321Y-34326D02*
X44601D01*
X37841D02*
X40322Y-31845D01*
X33479Y-34326D02*
X37841D01*
X45860Y-35586D02*
X46320D01*
X40900Y-21614D02*
X42640D01*
X43321Y-20933D01*
X44601Y-34326D02*
X45860Y-35586D01*
X40322Y-31845D02*
X46320D01*
X-24058Y-52943D02*
Y-38443D01*
X-30951Y-27869D02*
X-24578D01*
X-29100Y-53400D02*
X-25325Y-57175D01*
X-29100Y-33400D02*
X-24058Y-38443D01*
X-30951Y-57868D02*
X-28312D01*
X-25856Y-60324D01*
X11701Y-31543D02*
X19632Y-39474D01*
X12447Y-29743D02*
X21431Y-38728D01*
X19632Y-50573D02*
Y-39474D01*
X4420Y-29743D02*
X12447D01*
X3674Y-31543D02*
X11701D01*
X-4779Y-17999D02*
X5165Y-27943D01*
X-6579Y-18745D02*
X4420Y-29743D01*
X-8379Y-19490D02*
X3674Y-31543D01*
X-11450Y-18775D02*
Y-15625D01*
X-2979Y-17254D02*
X5911Y-26143D01*
X-11450Y-21924D02*
Y-18775D01*
X-2979Y-17254D02*
Y-8913D01*
X-8379Y-19490D02*
Y-11150D01*
X-6579Y-18745D02*
Y-10404D01*
X-4779Y-17999D02*
Y-9659D01*
X38689Y-40959D02*
X40900Y-38748D01*
X36478Y-44288D02*
X38689Y-42077D01*
Y-40959D01*
X42640Y-38748D02*
X43321Y-38067D01*
Y-41807D02*
X44002Y-42488D01*
X46188D01*
X42640Y-55881D02*
X43321Y-55200D01*
X43341Y-51480D02*
X48880D01*
X43321Y-51460D02*
X43341Y-51480D01*
X49264Y-49016D02*
X49929D01*
X49227Y-48979D02*
X49264Y-49016D01*
X48880Y-51480D02*
X48900Y-51500D01*
X-24578Y-27869D02*
X-18634Y-21924D01*
X-29100Y-23400D02*
X-24475Y-18775D01*
X-20937Y-14563D02*
X-19696D01*
X-28155Y-7345D02*
X-20937Y-14563D01*
X-24475Y-18775D02*
X-17650D01*
X-19696Y-14563D02*
X-19021Y-15238D01*
X-11450Y-15625D02*
Y-12476D01*
X-13832Y37819D02*
Y57833D01*
X-29100Y56600D02*
X-22831Y50331D01*
X-29100Y46600D02*
X-24632Y42132D01*
Y5103D02*
Y42132D01*
X-15631Y37073D02*
Y57088D01*
X-20800Y62256D02*
X-15631Y57088D01*
X-24400Y60765D02*
X-19231Y55597D01*
X-17432Y29695D02*
Y36328D01*
X-22600Y61511D02*
X-17432Y56342D01*
X-22831Y5849D02*
Y50331D01*
X-15631Y30440D02*
Y37073D01*
X-21032Y6594D02*
Y54851D01*
X-17432Y36328D02*
Y56342D01*
X-19231Y7340D02*
Y55597D01*
X-28312Y62132D02*
X-21032Y54851D01*
X-45291Y39988D02*
X-43815D01*
X-33569Y-17868D02*
X-29100Y-13400D01*
X-33569Y-25251D02*
X-30951Y-27869D01*
X-33569Y-25251D02*
Y-17868D01*
Y-47868D02*
X-29100Y-43400D01*
X-5503Y24400D02*
X12450D01*
X-2200Y55300D02*
X-1300Y54400D01*
X2800Y57023D02*
X2850Y56973D01*
Y51550D02*
X2900Y51500D01*
X-1300Y45912D02*
Y54400D01*
X-2200Y55300D02*
Y57023D01*
X2850Y51550D02*
Y56973D01*
X16900Y39561D02*
X17475Y38985D01*
X13941Y28000D02*
X16953Y24988D01*
X12450Y24400D02*
X13353Y23497D01*
X14687Y29800D02*
X19042Y25445D01*
X13196Y26200D02*
X15153Y24242D01*
X15050Y31600D02*
X15432D01*
X16900Y34639D02*
X17129Y34411D01*
X12746Y33903D02*
X15050Y31600D01*
X12746Y33903D02*
Y37297D01*
X12816Y52521D02*
Y57007D01*
Y52521D02*
X14500Y50837D01*
X12800Y57023D02*
X12816Y57007D01*
X8100Y45912D02*
X8688Y46500D01*
X8100Y41943D02*
Y45912D01*
X-12032Y31931D02*
X-9900Y29800D01*
X-4012Y28000D02*
X13941D01*
X-1300Y45912D02*
X8100D01*
X-13832Y31186D02*
Y37819D01*
X-9900Y29800D02*
X14687D01*
X-11391Y26200D02*
X-4758D01*
X-13832Y31186D02*
X-10646Y28000D01*
X-4758Y26200D02*
X13196D01*
X-10646Y28000D02*
X-4012D01*
X-12137Y24400D02*
X-5503D01*
X8100Y41943D02*
X12746Y37297D01*
X37400Y75300D02*
Y98450D01*
X21643Y105184D02*
X21784Y105043D01*
X35838D01*
X14117Y102700D02*
X30295D01*
X36167Y106905D02*
X43121D01*
X30295Y102700D02*
X33150D01*
X37400Y98450D01*
X30500Y111293D02*
X31780D01*
X35838Y105043D02*
X38182Y102700D01*
X49705D01*
X43121Y106905D02*
X44091Y105936D01*
X41280Y111293D02*
X44836Y107736D01*
X40000Y111293D02*
X41280D01*
X31780Y111293D02*
X36167Y106905D01*
X51264Y109536D02*
X54739D01*
X49500Y111300D02*
X51264Y109536D01*
X49705Y87700D02*
X52559D01*
X58502Y93643D01*
X-2200Y78377D02*
Y80100D01*
X2800Y71800D02*
X7800Y66800D01*
X8688Y46500D02*
X30395D01*
X-24632Y5103D02*
X-8379Y-11150D01*
X-22831Y5849D02*
X-6579Y-10404D01*
X17200Y97721D02*
X17339Y97861D01*
X22000Y98000D02*
X22150Y97850D01*
X22000Y92800D02*
X22050Y92750D01*
X17200Y92800D02*
X22000D01*
X21861Y97861D02*
X22000Y98000D01*
X17339Y97861D02*
X21861D01*
X30145Y97850D02*
X30295Y97700D01*
X22150Y97850D02*
X30145D01*
X22050Y92750D02*
X30245D01*
X30295Y92700D01*
X49705Y97700D02*
X52559D01*
X49705Y92700D02*
X52559D01*
X56702Y96843D01*
X-29100Y76600D02*
X-24400Y71900D01*
X-29100Y66600D02*
X-28312Y65812D01*
X-22600Y61511D02*
Y80100D01*
X8390Y78967D02*
Y82190D01*
X10778Y84578D01*
X14178D01*
X7800Y78377D02*
X8390Y78967D01*
X-17200Y63747D02*
X-12032Y58579D01*
X-9800Y88625D02*
X-9509Y88334D01*
X-19000Y63002D02*
X-13832Y57833D01*
X-17200Y63747D02*
Y104700D01*
X-19000Y63002D02*
Y96500D01*
X-69046Y37680D02*
Y47942D01*
X-65876Y51112D01*
X-64400D01*
X-33569Y-55251D02*
Y-47868D01*
X10676Y99259D02*
X14117Y102700D01*
X-29100Y96600D02*
X-20800Y88300D01*
X-29100Y116600D02*
X-17200Y104700D01*
X-398Y99259D02*
X9200D01*
X10676D01*
X-497Y99161D02*
X-398Y99259D01*
X-29100Y106600D02*
X-19000Y96500D01*
X-28312Y62132D02*
Y65812D01*
X-21032Y6594D02*
X-4779Y-9659D01*
X7800Y57023D02*
Y66800D01*
X-17432Y29695D02*
X-12137Y24400D01*
X-20800Y62256D02*
Y88300D01*
X-12032Y31931D02*
Y58579D01*
X-15631Y30440D02*
X-11391Y26200D01*
X13353Y-10028D02*
Y23497D01*
X15153Y-4348D02*
Y24242D01*
X-24400Y60765D02*
Y71900D01*
X-29100Y86600D02*
X-22600Y80100D01*
D46*
X65800Y91181D02*
X66030D01*
X58600Y83880D02*
X66880D01*
X67100Y84100D01*
X51746Y77027D02*
X58600Y83880D01*
X67100Y84100D02*
Y90111D01*
X66030Y91181D02*
X67100Y90111D01*
X1957Y-73093D02*
X8000Y-67050D01*
X-70400Y-123000D02*
X8000D01*
X-80000Y-113400D02*
X-70400Y-123000D01*
X1957Y-116957D02*
Y-73093D01*
Y-116957D02*
X8000Y-123000D01*
X8287Y-122713D01*
X17100Y-118700D02*
Y-106500D01*
X25000Y-98600D01*
X8287Y-122713D02*
X13088D01*
X17100Y-118700D01*
X64043Y-98600D02*
X65800Y-96843D01*
X25000Y-98600D02*
X64043D01*
X49605Y58645D02*
X65443D01*
X65800Y58288D01*
X49605Y76755D02*
X49876Y77027D01*
X51746D01*
X65800Y-96843D02*
Y58288D01*
X-89100Y-113400D02*
X-80000D01*
D47*
X-2310Y57133D02*
Y67910D01*
X-2400Y68000D02*
X-2310Y67910D01*
Y57133D02*
X-2200Y57023D01*
D48*
X-29100Y-113400D02*
D03*
X-59100Y66600D02*
D03*
X-89100Y26600D02*
D03*
D49*
Y-103400D02*
D03*
D50*
Y-113400D02*
D03*
D51*
Y-93400D02*
D03*
X-49100Y66600D02*
D03*
X-29100Y26600D02*
D03*
D52*
X-39100Y66600D02*
D03*
X-69100D02*
D03*
X-79100D02*
D03*
X-89100Y16600D02*
D03*
X-29100D02*
D03*
Y-103400D02*
D03*
Y-93400D02*
D03*
Y-83400D02*
D03*
Y-73400D02*
D03*
Y-63400D02*
D03*
Y-53400D02*
D03*
Y-43400D02*
D03*
Y-33400D02*
D03*
Y-23400D02*
D03*
Y-13400D02*
D03*
Y-3400D02*
D03*
Y6600D02*
D03*
X-79100Y-103400D02*
D03*
X-89100Y6600D02*
D03*
Y-3400D02*
D03*
Y-13400D02*
D03*
Y-23400D02*
D03*
Y-33400D02*
D03*
Y-43400D02*
D03*
Y-53400D02*
D03*
Y-63400D02*
D03*
Y-73400D02*
D03*
Y-83400D02*
D03*
X-29100Y46600D02*
D03*
Y56600D02*
D03*
Y66600D02*
D03*
Y76600D02*
D03*
Y86600D02*
D03*
Y96600D02*
D03*
Y106600D02*
D03*
Y116600D02*
D03*
X-89100Y36600D02*
D03*
Y46600D02*
D03*
Y56600D02*
D03*
Y66600D02*
D03*
Y76600D02*
D03*
Y86600D02*
D03*
Y96600D02*
D03*
Y106600D02*
D03*
Y116600D02*
D03*
X-40911Y-88400D02*
D03*
Y-78400D02*
D03*
Y-68400D02*
D03*
Y-58400D02*
D03*
Y-48400D02*
D03*
X-29100Y36600D02*
D03*
X-63037Y-112494D02*
D03*
X-55163D02*
D03*
D53*
X-79100Y-62337D02*
D03*
X-71226D02*
D03*
X-63352D02*
D03*
X-79100Y-54463D02*
D03*
X-71226D02*
D03*
X-63352D02*
D03*
D54*
X53800Y152400D02*
D03*
D55*
X62068D02*
D03*
X29784D02*
D03*
D56*
X38052D02*
D03*
X45926D02*
D03*
D57*
X8000Y-133000D02*
D03*
Y-103000D02*
D03*
Y-113000D02*
D03*
Y-123000D02*
D03*
Y-77050D02*
D03*
Y-47050D02*
D03*
Y-57050D02*
D03*
Y-67050D02*
D03*
Y-11100D02*
D03*
Y-1100D02*
D03*
Y8900D02*
D03*
Y-21100D02*
D03*
D58*
Y-93000D02*
D03*
Y-37050D02*
D03*
Y18900D02*
D03*
D59*
X-47300Y35400D02*
D03*
X-38800Y21400D02*
D03*
X-53316Y6184D02*
D03*
X82000Y119000D02*
D03*
X72000Y99000D02*
D03*
X82000Y39000D02*
D03*
X72000Y19000D02*
D03*
Y-21000D02*
D03*
X82000Y-81000D02*
D03*
Y-121000D02*
D03*
X62000Y39000D02*
D03*
X52000Y19000D02*
D03*
X32000D02*
D03*
X22000Y119000D02*
D03*
X2000Y39000D02*
D03*
X-8000Y19000D02*
D03*
X2000Y-41000D02*
D03*
X-38000Y119000D02*
D03*
X-48000Y99000D02*
D03*
X-38000Y79000D02*
D03*
Y-1000D02*
D03*
Y-41000D02*
D03*
X-48000Y-61000D02*
D03*
Y-101000D02*
D03*
X-58000Y119000D02*
D03*
X-68000Y99000D02*
D03*
X-58000Y79000D02*
D03*
X-68000Y-21000D02*
D03*
X-58000Y-41000D02*
D03*
Y-81000D02*
D03*
X-68000Y-101000D02*
D03*
X-78000Y119000D02*
D03*
Y79000D02*
D03*
Y-41000D02*
D03*
Y-81000D02*
D03*
Y-121000D02*
D03*
X-45800Y136100D02*
D03*
X0Y83800D02*
D03*
X-2400Y68000D02*
D03*
X23700Y-51100D02*
D03*
X27400Y-41600D02*
D03*
X48900Y-51500D02*
D03*
X26100Y79900D02*
D03*
X14500Y50837D02*
D03*
X22000Y98000D02*
D03*
Y92800D02*
D03*
X22100Y38800D02*
D03*
Y42500D02*
D03*
X22200Y30638D02*
D03*
X22126Y34226D02*
D03*
X56700Y-64500D02*
D03*
Y-74200D02*
D03*
X56936Y-84236D02*
D03*
X56900Y-18300D02*
D03*
X56626Y-94326D02*
D03*
X56700Y-28500D02*
D03*
X56600Y1100D02*
D03*
X14178Y84578D02*
D03*
X21643Y105184D02*
D03*
X23038Y-16194D02*
D03*
X22900Y1300D02*
D03*
X56595Y-8187D02*
D03*
X50100Y-41700D02*
D03*
X-2007Y39893D02*
D03*
X-1919Y19053D02*
D03*
X2900Y51500D02*
D03*
D60*
X67100Y84100D02*
D03*
X37400Y68000D02*
D03*
D61*
X83000Y144500D02*
D03*
Y-144500D02*
D03*
X-83000Y144500D02*
D03*
Y-145500D02*
D03*
D62*
X-50301Y-18300D02*
D03*
X-62899D02*
D03*
D63*
X-75400Y39788D02*
D03*
Y51412D02*
D03*
X65800Y58288D02*
D03*
Y69912D02*
D03*
X-75500Y-5312D02*
D03*
Y6312D02*
D03*
D64*
X-73743Y17879D02*
D03*
Y27721D02*
D03*
D65*
X-51347Y11046D02*
D03*
X-53316D02*
D03*
X-55284D02*
D03*
X-57253D02*
D03*
Y30754D02*
D03*
X-55284D02*
D03*
X-53316D02*
D03*
X-51347D02*
D03*
D66*
X-61202Y12042D02*
D03*
Y14010D02*
D03*
Y15979D02*
D03*
Y17947D02*
D03*
Y19916D02*
D03*
Y21884D02*
D03*
Y23853D02*
D03*
Y25821D02*
D03*
Y27790D02*
D03*
Y29758D02*
D03*
X-47398Y12042D02*
D03*
Y14010D02*
D03*
Y15979D02*
D03*
Y17947D02*
D03*
Y19916D02*
D03*
Y21884D02*
D03*
Y23853D02*
D03*
Y25821D02*
D03*
Y27790D02*
D03*
Y29758D02*
D03*
D67*
X30500Y122907D02*
D03*
Y111293D02*
D03*
X40000Y111293D02*
D03*
Y122907D02*
D03*
X49500Y111300D02*
D03*
Y122914D02*
D03*
X39900Y23607D02*
D03*
Y11993D02*
D03*
X49600D02*
D03*
Y23607D02*
D03*
D68*
X30295Y102700D02*
D03*
Y97700D02*
D03*
Y92700D02*
D03*
Y87700D02*
D03*
X49705D02*
D03*
Y92700D02*
D03*
Y97700D02*
D03*
Y102700D02*
D03*
X30395Y46500D02*
D03*
Y41500D02*
D03*
Y36500D02*
D03*
Y31500D02*
D03*
X49805D02*
D03*
Y36500D02*
D03*
Y41500D02*
D03*
Y46500D02*
D03*
D69*
X65800Y91181D02*
D03*
Y102019D02*
D03*
D70*
X17800Y39261D02*
D03*
Y34339D02*
D03*
Y97661D02*
D03*
Y92739D02*
D03*
D71*
X8100Y34888D02*
D03*
Y45912D02*
D03*
X-1300Y34888D02*
D03*
Y45912D02*
D03*
X9200Y88235D02*
D03*
Y99259D02*
D03*
X-64400Y40088D02*
D03*
Y51112D02*
D03*
X-45291Y51012D02*
D03*
Y39988D02*
D03*
X-54900Y51112D02*
D03*
Y40088D02*
D03*
D72*
X-2200Y57023D02*
D03*
X2800D02*
D03*
X7800D02*
D03*
X12800D02*
D03*
Y78377D02*
D03*
X7800D02*
D03*
X2800D02*
D03*
X-2200D02*
D03*
D73*
X43321Y-7540D02*
D03*
Y-3800D02*
D03*
Y-60D02*
D03*
X33479D02*
D03*
Y-3800D02*
D03*
Y-7540D02*
D03*
Y-58940D02*
D03*
Y-55200D02*
D03*
Y-51460D02*
D03*
X43321D02*
D03*
Y-55200D02*
D03*
Y-58940D02*
D03*
X33479Y-41807D02*
D03*
Y-38067D02*
D03*
Y-34326D02*
D03*
X43321D02*
D03*
Y-38067D02*
D03*
Y-41807D02*
D03*
Y-24674D02*
D03*
Y-20933D02*
D03*
Y-17193D02*
D03*
X33479D02*
D03*
Y-20933D02*
D03*
Y-24674D02*
D03*
D74*
X49605Y76755D02*
D03*
Y67700D02*
D03*
Y58645D02*
D03*
D75*
X25195Y67700D02*
D03*
D76*
X-497Y88334D02*
D03*
Y99161D02*
D03*
D77*
X-9800Y98870D02*
D03*
Y88625D02*
D03*
D78*
X-11450Y-83676D02*
D03*
X-17750D02*
D03*
X-11450Y-86825D02*
D03*
X-17750D02*
D03*
X-11450Y-89975D02*
D03*
X-17750D02*
D03*
X-11450Y-93124D02*
D03*
X-17750D02*
D03*
X-11450Y-12476D02*
D03*
X-17750D02*
D03*
X-11450Y-15625D02*
D03*
X-17750D02*
D03*
X-11450Y-18775D02*
D03*
X-17750D02*
D03*
X-11450Y-21924D02*
D03*
X-17750D02*
D03*
Y-60324D02*
D03*
X-11450D02*
D03*
X-17750Y-57175D02*
D03*
X-11450D02*
D03*
X-17750Y-54025D02*
D03*
X-11450D02*
D03*
X-17750Y-50876D02*
D03*
X-11450D02*
D03*
D79*
X-51187Y-1000D02*
D03*
X-62014D02*
D03*
Y-9500D02*
D03*
X-51187D02*
D03*
M02*
