G04*
G04 #@! TF.GenerationSoftware,Altium Limited,Altium Designer,24.3.1 (35)*
G04*
G04 Layer_Color=8388736*
%FSLAX25Y25*%
%MOIN*%
G70*
G04*
G04 #@! TF.SameCoordinates,A7121B57-4D76-4085-BD87-85E80D54BB1B*
G04*
G04*
G04 #@! TF.FilePolarity,Negative*
G04*
G01*
G75*
%ADD23R,0.00700X0.01300*%
%ADD24R,0.00800X0.03200*%
%ADD25C,0.06800*%
%ADD26R,0.29147X0.03792*%
%ADD27R,0.29147X0.03792*%
%ADD28R,0.06312X0.07099*%
%ADD29R,0.05524X0.07887*%
%ADD30R,0.03950X0.02572*%
%ADD31R,0.06737X0.06737*%
%ADD32R,0.06737X0.06737*%
%ADD33C,0.07400*%
G04:AMPARAMS|DCode=34|XSize=67.37mil|YSize=67.37mil|CornerRadius=0mil|HoleSize=0mil|Usage=FLASHONLY|Rotation=180.000|XOffset=0mil|YOffset=0mil|HoleType=Round|Shape=Octagon|*
%AMOCTAGOND34*
4,1,8,-0.03369,0.01684,-0.03369,-0.01684,-0.01684,-0.03369,0.01684,-0.03369,0.03369,-0.01684,0.03369,0.01684,0.01684,0.03369,-0.01684,0.03369,-0.03369,0.01684,0.0*
%
%ADD34OCTAGOND34*%

%ADD35C,0.06737*%
%ADD36C,0.05162*%
%ADD37R,0.05918X0.05918*%
%ADD38C,0.10603*%
%ADD39C,0.05918*%
%ADD40C,0.07887*%
%ADD41R,0.07887X0.07887*%
%ADD42C,0.00800*%
%ADD43C,0.02769*%
%ADD44C,0.05800*%
%ADD45C,0.20485*%
G36*
X12463Y156755D02*
X12508Y156731D01*
X12517Y156692D01*
X12522Y147374D01*
X12493Y147334D01*
X12454Y147325D01*
X12385Y147315D01*
X9755Y147305D01*
X9730Y147281D01*
X9721Y147241D01*
X9730Y147114D01*
X9725Y144930D01*
X9745Y144881D01*
X9775Y144852D01*
X9824Y144832D01*
X9922Y144822D01*
X9951Y144832D01*
X17954Y144827D01*
X18018Y144852D01*
X18086Y144842D01*
X18111Y144817D01*
X18121Y144778D01*
X18111Y144719D01*
X18057Y144665D01*
X18037Y144655D01*
X18003Y144621D01*
X17993Y144601D01*
X17969Y144577D01*
X17949Y144567D01*
X17915Y144533D01*
X17866Y144444D01*
X17817Y144395D01*
X17782Y144332D01*
X17763Y144322D01*
X17738Y144297D01*
X17728Y144278D01*
X17679Y144209D01*
X17645Y144184D01*
X17630Y144170D01*
X17620Y144150D01*
X17576Y144096D01*
X17532Y144052D01*
X17493Y143983D01*
X17454Y143944D01*
X17444Y143924D01*
X17395Y143856D01*
X17380Y143841D01*
X17360Y143831D01*
X17336Y143807D01*
X17326Y143787D01*
X17277Y143738D01*
X17267Y143718D01*
X17213Y143635D01*
X17193Y143625D01*
X17169Y143600D01*
X17120Y143512D01*
X17071Y143463D01*
X17061Y143444D01*
X17017Y143380D01*
X16997Y143370D01*
X16953Y143326D01*
X16943Y143306D01*
X16894Y143237D01*
X16884Y143218D01*
X16850Y143174D01*
X16830Y143164D01*
X16786Y143120D01*
X16747Y143051D01*
X16619Y142923D01*
X16610Y142904D01*
X16590Y142884D01*
X16551Y142815D01*
X16536Y142801D01*
X16521Y142796D01*
X16511Y142776D01*
X16472Y142708D01*
X16448Y142683D01*
X16428Y142673D01*
X16404Y142639D01*
X16359Y142595D01*
X16340Y142585D01*
X16325Y142570D01*
X16315Y142551D01*
X16276Y142482D01*
X16227Y142433D01*
X16217Y142413D01*
X16168Y142344D01*
X16153Y142330D01*
X16138Y142325D01*
X16129Y142305D01*
X16080Y142236D01*
X16065Y142222D01*
X16045Y142212D01*
X16030Y142197D01*
X16001Y142148D01*
X15942Y142089D01*
X15903Y142020D01*
X15888Y141996D01*
X15874Y141991D01*
X15864Y141972D01*
X15844Y141952D01*
X15834Y141932D01*
X15790Y141878D01*
X15756Y141844D01*
X15707Y141756D01*
X15648Y141697D01*
X15609Y141628D01*
X15481Y141500D01*
X15471Y141481D01*
X15422Y141412D01*
X15373Y141363D01*
X15344Y141314D01*
X15265Y141235D01*
X15255Y141216D01*
X15231Y141182D01*
X15211Y141172D01*
X15187Y141147D01*
X15137Y141059D01*
X15089Y141010D01*
X15049Y140941D01*
X15034Y140926D01*
X15015Y140917D01*
X14961Y140833D01*
X14936Y140809D01*
X14917Y140799D01*
X14902Y140784D01*
X14892Y140764D01*
X14848Y140710D01*
X14804Y140666D01*
X14765Y140598D01*
X14725Y140558D01*
X14716Y140539D01*
X14667Y140470D01*
X14642Y140445D01*
X14622Y140436D01*
X14608Y140421D01*
X14598Y140401D01*
X14549Y140333D01*
X14519Y140284D01*
X14465Y140230D01*
X14446Y140220D01*
X14401Y140146D01*
X14392Y140127D01*
X14333Y140068D01*
X14294Y139999D01*
X14156Y139862D01*
X14117Y139793D01*
X14058Y139734D01*
X14048Y139714D01*
X13984Y139621D01*
X13950Y139597D01*
X13940Y139577D01*
X13862Y139498D01*
X13823Y139430D01*
X13773Y139381D01*
X13734Y139312D01*
X13612Y139189D01*
X13597Y139184D01*
X13587Y139165D01*
X13548Y139096D01*
X13499Y139047D01*
X13489Y139028D01*
X13440Y138959D01*
X13410Y138929D01*
X13401Y138910D01*
X13347Y138826D01*
X13327Y138816D01*
X13302Y138792D01*
X13253Y138704D01*
X13116Y138566D01*
X13106Y138547D01*
X13057Y138478D01*
X13028Y138449D01*
X12988Y138380D01*
X12910Y138301D01*
X12900Y138282D01*
X12866Y138257D01*
X12831Y138223D01*
X12822Y138203D01*
X12773Y138134D01*
X12753Y138115D01*
X12743Y138095D01*
X12674Y138007D01*
X12645Y137977D01*
X12606Y137909D01*
X12571Y137884D01*
X12537Y137850D01*
X12527Y137830D01*
X12493Y137786D01*
X12473Y137776D01*
X12459Y137762D01*
X12409Y137673D01*
X12360Y137624D01*
X12321Y137556D01*
X12184Y137418D01*
X12174Y137379D01*
X12198Y137345D01*
X12218Y137335D01*
X12252Y137300D01*
X12292Y137232D01*
X12341Y137192D01*
X12350Y137173D01*
X12385Y137138D01*
X12404Y137129D01*
X12483Y137011D01*
X12517Y136977D01*
X12557Y136908D01*
X12625Y136839D01*
X12665Y136770D01*
X12704Y136731D01*
X12714Y136712D01*
X12768Y136658D01*
X12787Y136648D01*
X12802Y136633D01*
X12841Y136564D01*
X12890Y136515D01*
X12939Y136427D01*
X12964Y136402D01*
X12983Y136393D01*
X13052Y136285D01*
X13096Y136240D01*
X13106Y136221D01*
X13131Y136196D01*
X13150Y136187D01*
X13185Y136152D01*
X13224Y136083D01*
X13273Y136034D01*
X13312Y135966D01*
X13469Y135809D01*
X13509Y135740D01*
X13548Y135701D01*
X13558Y135681D01*
X13607Y135612D01*
X13626Y135593D01*
X13636Y135573D01*
X13656Y135554D01*
X13695Y135485D01*
X13720Y135460D01*
X13739Y135450D01*
X13764Y135426D01*
X13773Y135406D01*
X13852Y135328D01*
X13891Y135259D01*
X13930Y135220D01*
X13940Y135200D01*
X13989Y135132D01*
X14117Y135004D01*
X14146Y134925D01*
X14190Y134881D01*
X14210Y134871D01*
X14264Y134788D01*
X14323Y134729D01*
X14362Y134660D01*
X14500Y134523D01*
X14539Y134455D01*
X14608Y134386D01*
X14647Y134317D01*
X14706Y134258D01*
X14745Y134189D01*
X14765Y134170D01*
X14774Y134150D01*
X14799Y134126D01*
X14819Y134116D01*
X14863Y134072D01*
X14873Y134052D01*
X14912Y133983D01*
X14946Y133949D01*
X14961Y133944D01*
X14971Y133924D01*
X14990Y133905D01*
X15000Y133876D01*
X15044Y133821D01*
X15157Y133709D01*
X15167Y133689D01*
X15216Y133620D01*
X15246Y133591D01*
X15255Y133571D01*
X15304Y133503D01*
X15344Y133463D01*
X15353Y133444D01*
X15398Y133390D01*
X15452Y133346D01*
X15501Y133277D01*
X15530Y133247D01*
X15569Y133179D01*
X15609Y133140D01*
X15618Y133120D01*
X15658Y133061D01*
X15667Y133041D01*
X15702Y133007D01*
X15721Y132997D01*
X15756Y132963D01*
X15795Y132894D01*
X15815Y132875D01*
X15824Y132855D01*
X15913Y132767D01*
X15952Y132698D01*
X16001Y132649D01*
X16050Y132561D01*
X16065Y132546D01*
X16084Y132536D01*
X16138Y132482D01*
X16148Y132462D01*
X16183Y132438D01*
X16197Y132423D01*
X16237Y132354D01*
X16266Y132325D01*
X16276Y132305D01*
X16296Y132286D01*
X16325Y132237D01*
X16369Y132183D01*
X16384Y132168D01*
X16423Y132099D01*
X16467Y132055D01*
X16482Y132050D01*
X16492Y132031D01*
X16580Y131942D01*
X16619Y131874D01*
X16668Y131825D01*
X16708Y131756D01*
X16747Y131717D01*
X16757Y131697D01*
X16796Y131628D01*
X16865Y131560D01*
X16874Y131540D01*
X16889Y131515D01*
X16909Y131506D01*
X16928Y131486D01*
X16948Y131476D01*
X16963Y131461D01*
X17002Y131393D01*
X17051Y131344D01*
X17061Y131324D01*
X17086Y131299D01*
X17105Y131290D01*
X17140Y131255D01*
X17179Y131187D01*
X17228Y131138D01*
X17267Y131069D01*
X17336Y131000D01*
X17375Y130931D01*
X17414Y130892D01*
X17424Y130873D01*
X17444Y130853D01*
X17449Y130838D01*
X17468Y130828D01*
X17488Y130809D01*
X17503Y130804D01*
X17512Y130784D01*
X17566Y130701D01*
X17586Y130691D01*
X17630Y130617D01*
X17640Y130598D01*
X17718Y130519D01*
X17758Y130451D01*
X17797Y130411D01*
X17807Y130392D01*
X17851Y130348D01*
X17871Y130338D01*
X17895Y130313D01*
X17934Y130245D01*
X17983Y130195D01*
X18028Y130112D01*
X18047Y130102D01*
X18101Y130058D01*
X18121Y130009D01*
X18111Y129970D01*
X18086Y129945D01*
X18047Y129935D01*
X9780Y129940D01*
X9740Y129911D01*
X9730Y129872D01*
X9721Y122286D01*
X9652Y122198D01*
X8406Y120951D01*
X8366Y120883D01*
X8342Y120858D01*
X8322Y120848D01*
X8278Y120804D01*
X8268Y120784D01*
X8253Y120770D01*
X8234Y120760D01*
X8190Y120716D01*
X8180Y120696D01*
X8155Y120672D01*
X8136Y120662D01*
X8092Y120618D01*
X8082Y120598D01*
X8067Y120583D01*
X8047Y120573D01*
X7959Y120505D01*
X7935Y120480D01*
X7925Y120461D01*
X7876Y120392D01*
X7797Y120343D01*
X7748Y120294D01*
X7738Y120274D01*
X7689Y120205D01*
X7611Y120156D01*
X7552Y120098D01*
X7513Y120029D01*
X7498Y120014D01*
X7478Y120004D01*
X7410Y119955D01*
X7375Y119921D01*
X7365Y119901D01*
X7311Y119828D01*
X7292Y119818D01*
X7223Y119769D01*
X7179Y119725D01*
X7140Y119656D01*
X7125Y119641D01*
X7105Y119631D01*
X7061Y119587D01*
X7051Y119568D01*
X7027Y119543D01*
X7007Y119533D01*
X6963Y119489D01*
X6953Y119469D01*
X6929Y119445D01*
X6909Y119435D01*
X6865Y119391D01*
X6855Y119371D01*
X6654Y119170D01*
X6634Y119160D01*
X6590Y119116D01*
X6580Y119097D01*
X6556Y119072D01*
X6536Y119062D01*
X6492Y119018D01*
X6482Y118999D01*
X6458Y118974D01*
X6438Y118964D01*
X6394Y118920D01*
X6384Y118900D01*
X6369Y118886D01*
X6350Y118876D01*
X6306Y118832D01*
X6296Y118812D01*
X6271Y118788D01*
X6252Y118778D01*
X6207Y118734D01*
X6198Y118714D01*
X6183Y118699D01*
X6163Y118689D01*
X6119Y118645D01*
X6109Y118626D01*
X6085Y118601D01*
X6065Y118591D01*
X6021Y118547D01*
X6011Y118527D01*
X5987Y118503D01*
X5967Y118493D01*
X5923Y118449D01*
X5913Y118429D01*
X5898Y118415D01*
X5879Y118405D01*
X5835Y118361D01*
X5825Y118341D01*
X5800Y118316D01*
X5781Y118307D01*
X5736Y118263D01*
X5726Y118243D01*
X5712Y118228D01*
X5692Y118218D01*
X5648Y118174D01*
X5638Y118155D01*
X5305Y117821D01*
X5295Y117801D01*
X5251Y117747D01*
X5182Y117708D01*
X5157Y117674D01*
X5045Y117561D01*
X5025Y117551D01*
X4976Y117473D01*
X4907Y117423D01*
X4858Y117374D01*
X4843Y117369D01*
X4834Y117350D01*
X4780Y117276D01*
X4760Y117266D01*
X4706Y117212D01*
X4696Y117193D01*
X4681Y117178D01*
X4613Y117139D01*
X4564Y117080D01*
X4485Y117001D01*
X4465Y116992D01*
X4412Y116908D01*
X4397Y116893D01*
X4377Y116884D01*
X4333Y116840D01*
X4323Y116820D01*
X4309Y116805D01*
X4289Y116795D01*
X4235Y116741D01*
X4225Y116722D01*
X4191Y116687D01*
X4171Y116678D01*
X4122Y116619D01*
X4103Y116599D01*
X4083Y116589D01*
X4068Y116575D01*
X4058Y116555D01*
X4004Y116501D01*
X3985Y116491D01*
X3970Y116476D01*
X3960Y116457D01*
X3916Y116413D01*
X3896Y116403D01*
X3882Y116388D01*
X3872Y116368D01*
X3818Y116314D01*
X3798Y116305D01*
X3783Y116290D01*
X3774Y116270D01*
X3729Y116226D01*
X3710Y116216D01*
X3685Y116192D01*
X3676Y116172D01*
X3631Y116128D01*
X3612Y116118D01*
X3597Y116103D01*
X3587Y116084D01*
X3533Y116030D01*
X3514Y116020D01*
X3499Y116005D01*
X3489Y115986D01*
X3445Y115942D01*
X3425Y115932D01*
X3411Y115917D01*
X3401Y115898D01*
X3347Y115843D01*
X3327Y115834D01*
X3312Y115819D01*
X3303Y115799D01*
X3249Y115745D01*
X3229Y115735D01*
X3214Y115721D01*
X3204Y115701D01*
X3160Y115657D01*
X3141Y115647D01*
X3126Y115632D01*
X3116Y115613D01*
X3072Y115569D01*
X-11790Y115564D01*
X-11829Y115574D01*
X-11888Y115623D01*
X-12605Y116339D01*
X-12615Y116359D01*
X-12659Y116413D01*
X-12678Y116422D01*
X-12732Y116467D01*
X-14018Y117752D01*
X-14028Y117772D01*
X-14072Y117826D01*
X-14092Y117836D01*
X-14145Y117880D01*
X-15431Y119165D01*
X-15441Y119185D01*
X-15485Y119239D01*
X-15505Y119249D01*
X-15559Y119293D01*
X-16844Y120578D01*
X-16854Y120598D01*
X-16898Y120652D01*
X-16918Y120662D01*
X-16972Y120706D01*
X-18257Y121992D01*
X-18267Y122011D01*
X-18311Y122065D01*
X-18331Y122075D01*
X-18385Y122119D01*
X-18439Y122173D01*
X-18458Y122183D01*
X-18493Y122247D01*
X-18512Y122315D01*
X-18517Y129729D01*
X-18498Y129778D01*
X-18483Y129823D01*
X-18493Y129881D01*
X-18517Y129906D01*
X-18566Y129926D01*
X-18635Y129935D01*
X-26849Y129926D01*
X-26868Y129916D01*
X-26903Y129940D01*
X-26893Y129980D01*
X-26824Y130107D01*
X-26756Y130176D01*
X-26716Y130245D01*
X-26579Y130382D01*
X-26540Y130451D01*
X-26461Y130529D01*
X-26456Y130544D01*
X-26437Y130554D01*
X-26383Y130608D01*
X-26343Y130676D01*
X-26304Y130716D01*
X-26294Y130735D01*
X-26245Y130804D01*
X-26196Y130853D01*
X-26157Y130922D01*
X-26123Y130946D01*
X-26088Y130981D01*
X-26078Y131000D01*
X-26044Y131044D01*
X-26024Y131054D01*
X-25980Y131128D01*
X-25971Y131147D01*
X-25912Y131206D01*
X-25872Y131275D01*
X-25848Y131299D01*
X-25833Y131304D01*
X-25823Y131324D01*
X-25774Y131393D01*
X-25760Y131407D01*
X-25740Y131417D01*
X-25725Y131432D01*
X-25715Y131452D01*
X-25671Y131506D01*
X-25627Y131550D01*
X-25578Y131638D01*
X-25539Y131677D01*
X-25529Y131697D01*
X-25485Y131751D01*
X-25450Y131785D01*
X-25441Y131805D01*
X-25396Y131869D01*
X-25377Y131878D01*
X-25343Y131913D01*
X-25333Y131932D01*
X-25289Y131986D01*
X-25244Y132031D01*
X-25205Y132099D01*
X-25166Y132139D01*
X-25156Y132158D01*
X-25107Y132227D01*
X-25092Y132242D01*
X-25073Y132251D01*
X-25048Y132276D01*
X-25038Y132296D01*
X-24989Y132345D01*
X-24979Y132364D01*
X-24925Y132448D01*
X-24906Y132457D01*
X-24881Y132482D01*
X-24832Y132570D01*
X-24783Y132619D01*
X-24744Y132688D01*
X-24729Y132703D01*
X-24710Y132713D01*
X-24656Y132767D01*
X-24646Y132786D01*
X-24597Y132835D01*
X-24557Y132904D01*
X-24498Y132963D01*
X-24459Y133031D01*
X-24322Y133169D01*
X-24312Y133188D01*
X-24258Y133272D01*
X-24243Y133277D01*
X-24234Y133297D01*
X-24194Y133355D01*
X-24184Y133375D01*
X-24160Y133399D01*
X-24140Y133409D01*
X-24072Y133517D01*
X-23939Y133650D01*
X-23900Y133719D01*
X-23875Y133743D01*
X-23856Y133753D01*
X-23831Y133797D01*
X-23802Y133846D01*
X-23733Y133915D01*
X-23723Y133934D01*
X-23708Y133949D01*
X-23689Y133959D01*
X-23655Y133993D01*
X-23615Y134062D01*
X-23571Y134116D01*
X-23556Y134131D01*
X-23547Y134150D01*
X-23502Y134204D01*
X-23468Y134239D01*
X-23429Y134307D01*
X-23414Y134322D01*
X-23394Y134332D01*
X-23360Y134366D01*
X-23350Y134386D01*
X-23306Y134440D01*
X-23272Y134474D01*
X-23233Y134543D01*
X-23193Y134582D01*
X-23183Y134602D01*
X-23134Y134670D01*
X-23105Y134700D01*
X-23095Y134719D01*
X-23041Y134803D01*
X-23022Y134813D01*
X-22997Y134837D01*
X-22987Y134857D01*
X-22943Y134901D01*
X-22923Y134911D01*
X-22899Y134935D01*
X-22850Y135024D01*
X-22801Y135073D01*
X-22761Y135141D01*
X-22722Y135181D01*
X-22713Y135200D01*
X-22663Y135269D01*
X-22516Y135416D01*
X-22477Y135485D01*
X-22438Y135524D01*
X-22428Y135544D01*
X-22379Y135612D01*
X-22354Y135637D01*
X-22335Y135647D01*
X-22320Y135661D01*
X-22310Y135681D01*
X-22290Y135701D01*
X-22281Y135720D01*
X-22241Y135760D01*
X-22202Y135828D01*
X-22187Y135843D01*
X-22168Y135853D01*
X-22153Y135868D01*
X-22143Y135887D01*
X-22104Y135956D01*
X-22055Y136005D01*
X-22045Y136025D01*
X-21996Y136093D01*
X-21869Y136221D01*
X-21829Y136290D01*
X-21770Y136348D01*
X-21761Y136368D01*
X-21697Y136461D01*
X-21663Y136496D01*
X-21623Y136564D01*
X-21609Y136579D01*
X-21589Y136589D01*
X-21574Y136604D01*
X-21564Y136623D01*
X-21486Y136702D01*
X-21447Y136770D01*
X-21388Y136829D01*
X-21378Y136849D01*
X-21329Y136918D01*
X-21231Y137016D01*
X-21221Y137035D01*
X-21172Y137104D01*
X-21103Y137173D01*
X-21074Y137222D01*
X-21039Y137256D01*
X-21025Y137261D01*
X-21015Y137281D01*
X-20976Y137340D01*
X-20966Y137379D01*
X-20976Y137418D01*
X-21015Y137487D01*
X-21059Y137541D01*
X-21172Y137654D01*
X-21182Y137673D01*
X-21231Y137742D01*
X-21260Y137771D01*
X-21270Y137791D01*
X-21309Y137860D01*
X-21334Y137884D01*
X-21353Y137894D01*
X-21393Y137953D01*
X-21476Y138036D01*
X-21505Y138085D01*
X-21554Y138134D01*
X-21564Y138154D01*
X-21613Y138223D01*
X-21653Y138262D01*
X-21692Y138331D01*
X-21741Y138380D01*
X-21751Y138399D01*
X-21795Y138453D01*
X-21839Y138488D01*
X-21849Y138507D01*
X-21898Y138576D01*
X-21937Y138615D01*
X-21947Y138635D01*
X-21991Y138689D01*
X-22006Y138704D01*
X-22016Y138723D01*
X-22080Y138816D01*
X-22124Y138861D01*
X-22133Y138880D01*
X-22168Y138924D01*
X-22187Y138934D01*
X-22222Y138959D01*
X-22232Y138978D01*
X-22281Y139047D01*
X-22310Y139076D01*
X-22349Y139145D01*
X-22487Y139283D01*
X-22497Y139302D01*
X-22536Y139371D01*
X-22585Y139410D01*
X-22634Y139498D01*
X-22693Y139557D01*
X-22732Y139626D01*
X-22781Y139675D01*
X-22820Y139744D01*
X-22855Y139778D01*
X-22874Y139788D01*
X-22899Y139822D01*
X-22977Y139901D01*
X-23017Y139970D01*
X-23056Y140009D01*
X-23066Y140028D01*
X-23115Y140097D01*
X-23233Y140215D01*
X-23242Y140234D01*
X-23306Y140328D01*
X-23340Y140352D01*
X-23350Y140372D01*
X-23390Y140441D01*
X-23537Y140588D01*
X-23576Y140656D01*
X-23625Y140706D01*
X-23664Y140774D01*
X-23763Y140872D01*
X-23792Y140921D01*
X-23856Y141005D01*
X-23875Y141015D01*
X-23900Y141039D01*
X-23910Y141059D01*
X-23959Y141128D01*
X-23988Y141157D01*
X-23998Y141177D01*
X-24037Y141245D01*
X-24106Y141314D01*
X-24116Y141334D01*
X-24140Y141368D01*
X-24160Y141378D01*
X-24204Y141422D01*
X-24238Y141486D01*
X-24258Y141496D01*
X-24292Y141530D01*
X-24332Y141599D01*
X-24371Y141638D01*
X-24381Y141657D01*
X-24420Y141726D01*
X-24435Y141741D01*
X-24454Y141751D01*
X-24508Y141805D01*
X-24518Y141824D01*
X-24533Y141839D01*
X-24553Y141849D01*
X-24567Y141864D01*
X-24577Y141883D01*
X-24626Y141952D01*
X-24646Y141972D01*
X-24656Y141991D01*
X-24705Y142060D01*
X-24714Y142079D01*
X-24852Y142217D01*
X-24891Y142286D01*
X-24950Y142344D01*
X-24960Y142364D01*
X-25009Y142433D01*
X-25048Y142472D01*
X-25058Y142492D01*
X-25151Y142614D01*
X-25171Y142624D01*
X-25215Y142668D01*
X-25225Y142688D01*
X-25264Y142756D01*
X-25289Y142781D01*
X-25308Y142791D01*
X-25323Y142806D01*
X-25372Y142894D01*
X-25421Y142943D01*
X-25460Y143012D01*
X-25598Y143149D01*
X-25607Y143169D01*
X-25657Y143237D01*
X-25706Y143287D01*
X-25745Y143355D01*
X-25813Y143424D01*
X-25823Y143444D01*
X-25858Y143468D01*
X-25882Y143492D01*
X-25921Y143561D01*
X-25961Y143600D01*
X-25971Y143620D01*
X-26034Y143713D01*
X-26088Y143767D01*
X-26127Y143836D01*
X-26265Y143973D01*
X-26304Y144042D01*
X-26353Y144091D01*
X-26402Y144179D01*
X-26437Y144204D01*
X-26491Y144258D01*
X-26500Y144278D01*
X-26535Y144302D01*
X-26550Y144317D01*
X-26589Y144386D01*
X-26618Y144415D01*
X-26628Y144435D01*
X-26648Y144454D01*
X-26687Y144523D01*
X-26736Y144572D01*
X-26775Y144641D01*
X-26810Y144675D01*
X-26829Y144685D01*
X-26854Y144709D01*
X-26864Y144729D01*
X-26903Y144817D01*
X-26878Y144842D01*
X-26839Y144852D01*
X-26741Y144842D01*
X-26711Y144832D01*
X-26672Y144822D01*
X-26515Y144832D01*
X-18610Y144827D01*
X-18571Y144837D01*
X-18537Y144861D01*
X-18522Y144876D01*
X-18512Y144915D01*
X-18507Y147256D01*
X-18522Y147290D01*
X-18576Y147315D01*
X-18674Y147325D01*
X-18704Y147315D01*
X-21226Y147325D01*
X-21270Y147359D01*
X-21280Y147398D01*
X-21290Y147545D01*
X-21280Y147575D01*
X-21285Y148777D01*
X-21275Y148836D01*
X-21270Y148900D01*
X-21280Y148929D01*
X-21290Y149027D01*
X-21280Y149214D01*
X-21270Y149243D01*
X-21285Y149336D01*
X-21290Y149538D01*
X-21280Y149567D01*
X-21270Y149636D01*
X-21280Y149704D01*
X-21290Y149744D01*
X-21280Y149960D01*
X-21270Y149989D01*
X-21280Y150087D01*
X-21290Y150117D01*
Y150185D01*
Y150195D01*
X-21280Y150411D01*
X-21285Y151603D01*
X-21275Y151662D01*
X-21270Y151726D01*
X-21280Y151755D01*
X-21290Y151854D01*
X-21280Y152040D01*
X-21270Y152069D01*
X-21285Y152163D01*
X-21290Y152364D01*
X-21280Y152393D01*
X-21270Y152462D01*
X-21280Y152531D01*
X-21290Y152570D01*
X-21280Y152786D01*
X-21270Y152815D01*
X-21280Y152913D01*
X-21290Y152943D01*
X-21280Y153394D01*
X-21285Y154626D01*
X-21275Y154675D01*
X-21270Y154748D01*
X-21280Y154778D01*
X-21290Y154847D01*
X-21280Y155053D01*
X-21270Y155082D01*
X-21285Y155175D01*
X-21290Y155377D01*
X-21280Y155406D01*
X-21270Y155475D01*
X-21280Y155543D01*
X-21290Y155583D01*
X-21280Y155808D01*
X-21270Y155838D01*
X-21285Y155941D01*
X-21290Y156024D01*
X-21280Y156054D01*
X-21285Y156490D01*
X-21280Y156593D01*
X-21290Y156623D01*
X-21280Y156731D01*
X-21255Y156755D01*
X-21186Y156765D01*
X-21118Y156755D01*
X-20877Y156760D01*
X-20819Y156750D01*
X-20716Y156745D01*
X-20686Y156755D01*
X-20632Y156760D01*
X-20539Y156755D01*
X-20509Y156765D01*
X-20480Y156755D01*
X-20382Y156745D01*
X-20279Y156760D01*
X-20254Y156765D01*
X-20225Y156755D01*
X-20132Y156760D01*
X-19999Y156745D01*
X-19867Y156760D01*
X-18095Y156755D01*
X-18066Y156765D01*
X-18027Y156755D01*
X-17929Y156745D01*
X-17825Y156760D01*
X-17811Y156765D01*
X-17781Y156755D01*
X-17678Y156760D01*
X-17619Y156750D01*
X-17516Y156745D01*
X-17487Y156755D01*
X-17423Y156760D01*
X-17330Y156755D01*
X-17310Y156765D01*
X-17281Y156755D01*
X-17153Y156745D01*
X-17114Y156755D01*
X-17040Y156760D01*
X-15269Y156755D01*
X-15240Y156765D01*
X-15200Y156755D01*
X-15102Y156745D01*
X-14999Y156760D01*
X-14985Y156765D01*
X-14955Y156755D01*
X-14852Y156760D01*
X-14793Y156750D01*
X-14690Y156745D01*
X-14661Y156755D01*
X-14597Y156760D01*
X-14504Y156755D01*
X-14484Y156765D01*
X-14455Y156755D01*
X-14327Y156745D01*
X-14288Y156755D01*
X-14214Y156760D01*
X-12443Y156755D01*
X-12413Y156765D01*
X-12374Y156755D01*
X-12276Y156745D01*
X-12173Y156760D01*
X-12158Y156765D01*
X-12129Y156755D01*
X-12026Y156760D01*
X-11967Y156750D01*
X-11864Y156745D01*
X-11834Y156755D01*
X-11771Y156760D01*
X-11677Y156755D01*
X-11658Y156765D01*
X-11628Y156755D01*
X-11501Y156745D01*
X-11462Y156755D01*
X-11388Y156760D01*
X-9617Y156755D01*
X-9587Y156765D01*
X-9548Y156755D01*
X-9450Y156745D01*
X-9347Y156760D01*
X-9332Y156765D01*
X-9303Y156755D01*
X-9200Y156760D01*
X-9141Y156750D01*
X-9038Y156745D01*
X-9008Y156755D01*
X-8944Y156760D01*
X-8851Y156755D01*
X-8832Y156765D01*
X-8802Y156755D01*
X-8675Y156745D01*
X-8635Y156755D01*
X-8562Y156760D01*
X-7708Y156750D01*
X-7678Y156731D01*
X-7669Y156692D01*
X-7659Y147516D01*
X-7639Y147467D01*
X-7649Y147388D01*
X-7703Y147334D01*
X-7782Y147315D01*
X-8228Y147320D01*
X-8277Y147310D01*
X-8326Y147281D01*
X-8336Y147212D01*
X-8326Y147182D01*
X-8316Y144876D01*
X-8282Y144842D01*
X-8203Y144822D01*
X-8076Y144832D01*
X-515Y144827D01*
X-480Y144852D01*
X-426Y144906D01*
X-417Y144945D01*
X-426Y145023D01*
X-446Y145072D01*
X-456Y145171D01*
X-446Y145200D01*
X-456Y145269D01*
X-426Y145377D01*
X-436Y145445D01*
X-446Y145475D01*
X-456Y145514D01*
X-451Y145598D01*
X-456Y145661D01*
X-446Y145691D01*
X-426Y145759D01*
X-436Y145818D01*
X-446Y145848D01*
X-456Y145887D01*
X-446Y146044D01*
X-451Y147158D01*
X-446Y147271D01*
X-471Y147305D01*
X-539Y147325D01*
X-608Y147315D01*
X-1079Y147325D01*
X-1103Y147349D01*
X-1113Y147388D01*
X-1108Y147501D01*
X-1113Y156544D01*
X-1103Y156574D01*
X-1113Y156613D01*
X-1103Y156711D01*
X-1079Y156736D01*
X-1001Y156755D01*
X-721Y156760D01*
X-662Y156750D01*
X-559Y156745D01*
X-530Y156755D01*
X-466Y156760D01*
X-372Y156755D01*
X-353Y156765D01*
X-323Y156755D01*
X-196Y156745D01*
X-157Y156755D01*
X-83Y156760D01*
X1688Y156755D01*
X1718Y156765D01*
X1757Y156755D01*
X1855Y156745D01*
X1958Y156760D01*
X1973Y156765D01*
X2002Y156755D01*
X2105Y156760D01*
X2164Y156750D01*
X2267Y156745D01*
X2297Y156755D01*
X2361Y156760D01*
X2454Y156755D01*
X2473Y156765D01*
X2503Y156755D01*
X2630Y156745D01*
X2670Y156755D01*
X2743Y156760D01*
X4515Y156755D01*
X4544Y156765D01*
X4583Y156755D01*
X4681Y156745D01*
X4784Y156760D01*
X4799Y156765D01*
X4829Y156755D01*
X4932Y156760D01*
X4991Y156750D01*
X5094Y156745D01*
X5123Y156755D01*
X5187Y156760D01*
X5280Y156755D01*
X5300Y156765D01*
X5329Y156755D01*
X5457Y156745D01*
X5496Y156755D01*
X5570Y156760D01*
X7341Y156755D01*
X7370Y156765D01*
X7410Y156755D01*
X7508Y156745D01*
X7611Y156760D01*
X7625Y156765D01*
X7655Y156755D01*
X7758Y156760D01*
X7817Y156750D01*
X7920Y156745D01*
X7949Y156755D01*
X8013Y156760D01*
X8106Y156755D01*
X8126Y156765D01*
X8155Y156755D01*
X8283Y156745D01*
X8322Y156755D01*
X8396Y156760D01*
X10167Y156755D01*
X10197Y156765D01*
X10236Y156755D01*
X10334Y156745D01*
X10437Y156760D01*
X10452Y156765D01*
X10481Y156755D01*
X10584Y156760D01*
X10643Y156750D01*
X10746Y156745D01*
X10775Y156755D01*
X10839Y156760D01*
X10932Y156755D01*
X10952Y156765D01*
X10982Y156755D01*
X11109Y156745D01*
X11148Y156755D01*
X11222Y156760D01*
X12424Y156755D01*
X12434Y156765D01*
X12463Y156755D01*
D02*
G37*
G36*
X-63116Y-140516D02*
X-64953Y-140511D01*
X-64942Y-144179D01*
X-65869D01*
Y-140516D01*
X-67706Y-140511D01*
Y-139595D01*
X-63116D01*
Y-140516D01*
D02*
G37*
G36*
X-46488Y-140494D02*
X-46421Y-140505D01*
X-46355Y-140516D01*
X-46277Y-140539D01*
X-46199Y-140572D01*
X-46122Y-140611D01*
X-46110Y-140616D01*
X-46088Y-140633D01*
X-46049Y-140661D01*
X-46005Y-140700D01*
X-45955Y-140744D01*
X-45900Y-140799D01*
X-45844Y-140866D01*
X-45794Y-140938D01*
X-45789Y-140949D01*
X-45772Y-140972D01*
X-45755Y-141016D01*
X-45733Y-141071D01*
X-45705Y-141138D01*
X-45689Y-141216D01*
X-45678Y-141299D01*
X-45672Y-141388D01*
X-45667Y-141549D01*
X-46582D01*
Y-141432D01*
Y-141427D01*
Y-141421D01*
X-46588Y-141410D01*
X-46593Y-141404D01*
X-46599Y-141399D01*
X-46621Y-141393D01*
X-48491D01*
X-48514Y-141404D01*
Y-141410D01*
X-48519Y-141416D01*
Y-141432D01*
Y-141843D01*
Y-141848D01*
X-48514Y-141871D01*
X-48503Y-141876D01*
X-46532D01*
X-46488Y-141882D01*
X-46421Y-141893D01*
X-46355Y-141910D01*
X-46277Y-141932D01*
X-46199Y-141965D01*
X-46122Y-142004D01*
X-46110Y-142009D01*
X-46088Y-142026D01*
X-46049Y-142054D01*
X-46005Y-142093D01*
X-45955Y-142137D01*
X-45900Y-142192D01*
X-45844Y-142259D01*
X-45794Y-142331D01*
X-45789Y-142342D01*
X-45772Y-142365D01*
X-45755Y-142409D01*
X-45733Y-142464D01*
X-45705Y-142531D01*
X-45689Y-142609D01*
X-45678Y-142692D01*
X-45672Y-142781D01*
Y-143286D01*
Y-143297D01*
Y-143325D01*
X-45678Y-143375D01*
X-45683Y-143430D01*
X-45700Y-143497D01*
X-45722Y-143575D01*
X-45750Y-143652D01*
X-45794Y-143730D01*
X-45800Y-143741D01*
X-45816Y-143763D01*
X-45844Y-143802D01*
X-45883Y-143846D01*
X-45927Y-143902D01*
X-45988Y-143952D01*
X-46049Y-144007D01*
X-46122Y-144057D01*
X-46133Y-144063D01*
X-46155Y-144074D01*
X-46199Y-144096D01*
X-46255Y-144118D01*
X-46321Y-144141D01*
X-46399Y-144163D01*
X-46482Y-144174D01*
X-46577Y-144179D01*
X-48569D01*
X-48619Y-144174D01*
X-48675Y-144163D01*
X-48741Y-144152D01*
X-48819Y-144130D01*
X-48897Y-144096D01*
X-48974Y-144057D01*
X-48985Y-144052D01*
X-49008Y-144035D01*
X-49046Y-144007D01*
X-49091Y-143968D01*
X-49146Y-143924D01*
X-49196Y-143869D01*
X-49252Y-143802D01*
X-49302Y-143730D01*
X-49307Y-143719D01*
X-49318Y-143697D01*
X-49341Y-143652D01*
X-49363Y-143597D01*
X-49385Y-143530D01*
X-49407Y-143458D01*
X-49418Y-143375D01*
X-49424Y-143286D01*
Y-143119D01*
X-48519D01*
Y-143242D01*
Y-143253D01*
X-48514Y-143269D01*
X-48503D01*
X-48480Y-143275D01*
X-46610D01*
X-46593Y-143269D01*
X-46588Y-143264D01*
X-46582Y-143242D01*
Y-142825D01*
Y-142820D01*
X-46593Y-142803D01*
X-46599Y-142798D01*
X-46610Y-142792D01*
X-48541D01*
X-48569Y-142786D01*
X-48619Y-142781D01*
X-48675Y-142775D01*
X-48741Y-142759D01*
X-48819Y-142736D01*
X-48897Y-142703D01*
X-48974Y-142664D01*
X-48985Y-142659D01*
X-49008Y-142642D01*
X-49046Y-142614D01*
X-49091Y-142576D01*
X-49146Y-142531D01*
X-49196Y-142476D01*
X-49252Y-142409D01*
X-49302Y-142337D01*
X-49307Y-142326D01*
X-49318Y-142298D01*
X-49341Y-142259D01*
X-49363Y-142204D01*
X-49385Y-142137D01*
X-49407Y-142059D01*
X-49418Y-141976D01*
X-49424Y-141887D01*
Y-141388D01*
Y-141382D01*
Y-141377D01*
Y-141349D01*
X-49418Y-141299D01*
X-49407Y-141238D01*
X-49396Y-141171D01*
X-49374Y-141094D01*
X-49341Y-141016D01*
X-49302Y-140938D01*
X-49296Y-140927D01*
X-49280Y-140905D01*
X-49252Y-140866D01*
X-49213Y-140822D01*
X-49169Y-140766D01*
X-49113Y-140711D01*
X-49046Y-140661D01*
X-48974Y-140611D01*
X-48963Y-140605D01*
X-48941Y-140594D01*
X-48897Y-140572D01*
X-48841Y-140550D01*
X-48774Y-140527D01*
X-48702Y-140505D01*
X-48619Y-140494D01*
X-48530Y-140489D01*
X-46532D01*
X-46488Y-140494D01*
D02*
G37*
G36*
X-35221Y-142126D02*
X-34594D01*
X-34600Y-143036D01*
X-35221Y-143031D01*
Y-144179D01*
X-36126D01*
Y-143036D01*
X-38945Y-143031D01*
Y-142209D01*
X-36048Y-139595D01*
X-35221Y-139590D01*
Y-142126D01*
D02*
G37*
G36*
X-41337Y-144623D02*
Y-144634D01*
Y-144668D01*
X-41343Y-144712D01*
X-41349Y-144773D01*
X-41365Y-144845D01*
X-41382Y-144923D01*
X-41415Y-145001D01*
X-41454Y-145079D01*
X-41460Y-145090D01*
X-41476Y-145112D01*
X-41504Y-145151D01*
X-41543Y-145195D01*
X-41587Y-145245D01*
X-41643Y-145300D01*
X-41709Y-145351D01*
X-41781Y-145400D01*
X-41793Y-145406D01*
X-41815Y-145417D01*
X-41859Y-145439D01*
X-41915Y-145461D01*
X-41981Y-145484D01*
X-42059Y-145506D01*
X-42148Y-145517D01*
X-42237Y-145522D01*
X-44484Y-145528D01*
X-44490Y-144612D01*
X-42270D01*
X-42253Y-144601D01*
X-42248Y-144596D01*
X-42242Y-144573D01*
Y-144179D01*
X-44229D01*
X-44273Y-144174D01*
X-44335Y-144163D01*
X-44407Y-144152D01*
X-44484Y-144130D01*
X-44562Y-144102D01*
X-44645Y-144063D01*
X-44656Y-144057D01*
X-44679Y-144041D01*
X-44717Y-144013D01*
X-44762Y-143974D01*
X-44817Y-143930D01*
X-44867Y-143874D01*
X-44923Y-143808D01*
X-44973Y-143735D01*
X-44978Y-143724D01*
X-44989Y-143697D01*
X-45012Y-143658D01*
X-45028Y-143602D01*
X-45050Y-143530D01*
X-45073Y-143458D01*
X-45084Y-143375D01*
X-45089Y-143286D01*
Y-140500D01*
X-44185D01*
Y-143242D01*
Y-143253D01*
X-44179Y-143269D01*
X-44168D01*
X-44146Y-143275D01*
X-42270D01*
X-42253Y-143269D01*
X-42248Y-143264D01*
X-42242Y-143242D01*
Y-140500D01*
X-41337D01*
Y-144623D01*
D02*
G37*
G36*
X-30465Y-144179D02*
X-31375D01*
Y-140944D01*
X-31653Y-141293D01*
X-32857D01*
X-31431Y-139595D01*
X-30465D01*
Y-144179D01*
D02*
G37*
G36*
X-33079D02*
X-33989D01*
Y-143275D01*
X-33079D01*
Y-144179D01*
D02*
G37*
G36*
X-50884Y-140494D02*
X-50822Y-140505D01*
X-50756Y-140516D01*
X-50678Y-140539D01*
X-50600Y-140572D01*
X-50523Y-140611D01*
X-50512Y-140616D01*
X-50489Y-140633D01*
X-50451Y-140661D01*
X-50406Y-140700D01*
X-50351Y-140744D01*
X-50295Y-140799D01*
X-50245Y-140866D01*
X-50195Y-140938D01*
X-50190Y-140949D01*
X-50173Y-140972D01*
X-50156Y-141016D01*
X-50134Y-141071D01*
X-50107Y-141138D01*
X-50090Y-141216D01*
X-50079Y-141299D01*
X-50073Y-141388D01*
X-50068Y-144179D01*
X-50978D01*
Y-141432D01*
Y-141427D01*
Y-141421D01*
X-50983Y-141410D01*
X-50989Y-141404D01*
X-50994Y-141399D01*
X-51017Y-141393D01*
X-52887D01*
X-52904Y-141404D01*
X-52909Y-141410D01*
X-52915Y-141416D01*
Y-141432D01*
Y-144179D01*
X-53825D01*
Y-140489D01*
X-50933D01*
X-50884Y-140494D01*
D02*
G37*
G36*
X-55312D02*
X-55251Y-140505D01*
X-55179Y-140516D01*
X-55107Y-140539D01*
X-55024Y-140572D01*
X-54946Y-140611D01*
X-54935Y-140616D01*
X-54913Y-140633D01*
X-54874Y-140661D01*
X-54830Y-140694D01*
X-54780Y-140744D01*
X-54724Y-140799D01*
X-54669Y-140866D01*
X-54624Y-140938D01*
X-54619Y-140949D01*
X-54608Y-140972D01*
X-54585Y-141016D01*
X-54563Y-141071D01*
X-54546Y-141138D01*
X-54524Y-141216D01*
X-54513Y-141299D01*
X-54508Y-141388D01*
X-54502Y-142786D01*
X-57349Y-142792D01*
Y-143242D01*
Y-143253D01*
X-57338Y-143269D01*
X-57333D01*
X-57310Y-143275D01*
X-54502D01*
X-54508Y-144179D01*
X-57394D01*
X-57444Y-144174D01*
X-57505Y-144163D01*
X-57571Y-144152D01*
X-57649Y-144130D01*
X-57727Y-144096D01*
X-57804Y-144057D01*
X-57815Y-144052D01*
X-57838Y-144035D01*
X-57876Y-144007D01*
X-57921Y-143968D01*
X-57971Y-143924D01*
X-58026Y-143869D01*
X-58082Y-143802D01*
X-58132Y-143730D01*
X-58137Y-143719D01*
X-58148Y-143697D01*
X-58171Y-143652D01*
X-58193Y-143597D01*
X-58215Y-143530D01*
X-58237Y-143458D01*
X-58248Y-143375D01*
X-58254Y-143286D01*
Y-141388D01*
Y-141382D01*
Y-141377D01*
Y-141349D01*
X-58248Y-141299D01*
X-58237Y-141238D01*
X-58226Y-141171D01*
X-58204Y-141094D01*
X-58171Y-141016D01*
X-58132Y-140938D01*
X-58126Y-140927D01*
X-58110Y-140905D01*
X-58082Y-140866D01*
X-58043Y-140822D01*
X-57993Y-140766D01*
X-57938Y-140711D01*
X-57876Y-140661D01*
X-57804Y-140611D01*
X-57793Y-140605D01*
X-57766Y-140594D01*
X-57727Y-140572D01*
X-57671Y-140550D01*
X-57604Y-140527D01*
X-57527Y-140505D01*
X-57444Y-140494D01*
X-57355Y-140489D01*
X-55362D01*
X-55312Y-140494D01*
D02*
G37*
G36*
X-59725D02*
X-59664Y-140505D01*
X-59591Y-140516D01*
X-59519Y-140539D01*
X-59436Y-140572D01*
X-59358Y-140611D01*
X-59347Y-140616D01*
X-59325Y-140633D01*
X-59286Y-140661D01*
X-59242Y-140694D01*
X-59192Y-140744D01*
X-59136Y-140799D01*
X-59081Y-140866D01*
X-59036Y-140938D01*
X-59031Y-140949D01*
X-59020Y-140972D01*
X-58998Y-141016D01*
X-58975Y-141071D01*
X-58959Y-141138D01*
X-58937Y-141216D01*
X-58925Y-141299D01*
X-58920Y-141388D01*
X-58914Y-142786D01*
X-61761Y-142792D01*
Y-143242D01*
Y-143253D01*
X-61750Y-143269D01*
X-61745D01*
X-61723Y-143275D01*
X-58914D01*
X-58920Y-144179D01*
X-61806D01*
X-61856Y-144174D01*
X-61917Y-144163D01*
X-61984Y-144152D01*
X-62061Y-144130D01*
X-62139Y-144096D01*
X-62217Y-144057D01*
X-62228Y-144052D01*
X-62250Y-144035D01*
X-62289Y-144007D01*
X-62333Y-143968D01*
X-62383Y-143924D01*
X-62439Y-143869D01*
X-62494Y-143802D01*
X-62544Y-143730D01*
X-62550Y-143719D01*
X-62561Y-143697D01*
X-62583Y-143652D01*
X-62605Y-143597D01*
X-62627Y-143530D01*
X-62650Y-143458D01*
X-62661Y-143375D01*
X-62666Y-143286D01*
Y-141388D01*
Y-141382D01*
Y-141377D01*
Y-141349D01*
X-62661Y-141299D01*
X-62650Y-141238D01*
X-62638Y-141171D01*
X-62616Y-141094D01*
X-62583Y-141016D01*
X-62544Y-140938D01*
X-62538Y-140927D01*
X-62522Y-140905D01*
X-62494Y-140866D01*
X-62455Y-140822D01*
X-62405Y-140766D01*
X-62350Y-140711D01*
X-62289Y-140661D01*
X-62217Y-140611D01*
X-62205Y-140605D01*
X-62178Y-140594D01*
X-62139Y-140572D01*
X-62083Y-140550D01*
X-62017Y-140527D01*
X-61939Y-140505D01*
X-61856Y-140494D01*
X-61767Y-140489D01*
X-59775D01*
X-59725Y-140494D01*
D02*
G37*
G36*
X-8415Y-147350D02*
X-8348Y-147361D01*
X-8282Y-147372D01*
X-8204Y-147394D01*
X-8126Y-147427D01*
X-8049Y-147466D01*
X-8038Y-147472D01*
X-8015Y-147488D01*
X-7976Y-147516D01*
X-7932Y-147555D01*
X-7882Y-147599D01*
X-7827Y-147655D01*
X-7771Y-147722D01*
X-7721Y-147794D01*
X-7716Y-147805D01*
X-7699Y-147827D01*
X-7682Y-147871D01*
X-7660Y-147927D01*
X-7632Y-147993D01*
X-7616Y-148071D01*
X-7605Y-148154D01*
X-7599Y-148243D01*
X-7593Y-148404D01*
X-8509D01*
Y-148288D01*
Y-148282D01*
Y-148276D01*
X-8515Y-148265D01*
X-8520Y-148260D01*
X-8526Y-148254D01*
X-8548Y-148249D01*
X-10418D01*
X-10441Y-148260D01*
Y-148265D01*
X-10446Y-148271D01*
Y-148288D01*
Y-148698D01*
Y-148704D01*
X-10441Y-148726D01*
X-10430Y-148732D01*
X-8459D01*
X-8415Y-148737D01*
X-8348Y-148748D01*
X-8282Y-148765D01*
X-8204Y-148787D01*
X-8126Y-148820D01*
X-8049Y-148859D01*
X-8038Y-148865D01*
X-8015Y-148881D01*
X-7976Y-148909D01*
X-7932Y-148948D01*
X-7882Y-148992D01*
X-7827Y-149048D01*
X-7771Y-149115D01*
X-7721Y-149187D01*
X-7716Y-149198D01*
X-7699Y-149220D01*
X-7682Y-149264D01*
X-7660Y-149320D01*
X-7632Y-149386D01*
X-7616Y-149464D01*
X-7605Y-149547D01*
X-7599Y-149636D01*
Y-150141D01*
Y-150152D01*
Y-150180D01*
X-7605Y-150230D01*
X-7610Y-150285D01*
X-7627Y-150352D01*
X-7649Y-150430D01*
X-7677Y-150507D01*
X-7721Y-150585D01*
X-7727Y-150596D01*
X-7743Y-150619D01*
X-7771Y-150657D01*
X-7810Y-150702D01*
X-7854Y-150757D01*
X-7915Y-150807D01*
X-7976Y-150863D01*
X-8049Y-150913D01*
X-8060Y-150918D01*
X-8082Y-150929D01*
X-8126Y-150952D01*
X-8182Y-150974D01*
X-8248Y-150996D01*
X-8326Y-151018D01*
X-8409Y-151029D01*
X-8504Y-151035D01*
X-10496D01*
X-10546Y-151029D01*
X-10602Y-151018D01*
X-10668Y-151007D01*
X-10746Y-150985D01*
X-10824Y-150952D01*
X-10901Y-150913D01*
X-10912Y-150907D01*
X-10935Y-150891D01*
X-10973Y-150863D01*
X-11018Y-150824D01*
X-11073Y-150779D01*
X-11123Y-150724D01*
X-11179Y-150657D01*
X-11229Y-150585D01*
X-11234Y-150574D01*
X-11245Y-150552D01*
X-11268Y-150507D01*
X-11290Y-150452D01*
X-11312Y-150385D01*
X-11334Y-150313D01*
X-11345Y-150230D01*
X-11351Y-150141D01*
Y-149975D01*
X-10446D01*
Y-150097D01*
Y-150108D01*
X-10441Y-150125D01*
X-10430D01*
X-10407Y-150130D01*
X-8537D01*
X-8520Y-150125D01*
X-8515Y-150119D01*
X-8509Y-150097D01*
Y-149681D01*
Y-149675D01*
X-8520Y-149658D01*
X-8526Y-149653D01*
X-8537Y-149647D01*
X-10468D01*
X-10496Y-149642D01*
X-10546Y-149636D01*
X-10602Y-149631D01*
X-10668Y-149614D01*
X-10746Y-149592D01*
X-10824Y-149558D01*
X-10901Y-149520D01*
X-10912Y-149514D01*
X-10935Y-149497D01*
X-10973Y-149470D01*
X-11018Y-149431D01*
X-11073Y-149386D01*
X-11123Y-149331D01*
X-11179Y-149264D01*
X-11229Y-149192D01*
X-11234Y-149181D01*
X-11245Y-149153D01*
X-11268Y-149115D01*
X-11290Y-149059D01*
X-11312Y-148992D01*
X-11334Y-148915D01*
X-11345Y-148831D01*
X-11351Y-148743D01*
Y-148243D01*
Y-148238D01*
Y-148232D01*
Y-148204D01*
X-11345Y-148154D01*
X-11334Y-148093D01*
X-11323Y-148027D01*
X-11301Y-147949D01*
X-11268Y-147871D01*
X-11229Y-147794D01*
X-11223Y-147783D01*
X-11207Y-147760D01*
X-11179Y-147722D01*
X-11140Y-147677D01*
X-11096Y-147622D01*
X-11040Y-147566D01*
X-10973Y-147516D01*
X-10901Y-147466D01*
X-10890Y-147461D01*
X-10868Y-147450D01*
X-10824Y-147427D01*
X-10768Y-147405D01*
X-10701Y-147383D01*
X-10629Y-147361D01*
X-10546Y-147350D01*
X-10457Y-147344D01*
X-8459D01*
X-8415Y-147350D01*
D02*
G37*
G36*
X-12788D02*
X-12722Y-147361D01*
X-12655Y-147372D01*
X-12577Y-147394D01*
X-12500Y-147427D01*
X-12422Y-147466D01*
X-12411Y-147472D01*
X-12389Y-147488D01*
X-12350Y-147516D01*
X-12306Y-147555D01*
X-12256Y-147599D01*
X-12200Y-147655D01*
X-12145Y-147722D01*
X-12094Y-147794D01*
X-12089Y-147805D01*
X-12072Y-147827D01*
X-12056Y-147871D01*
X-12033Y-147927D01*
X-12006Y-147993D01*
X-11989Y-148071D01*
X-11978Y-148154D01*
X-11972Y-148243D01*
X-11967Y-148404D01*
X-12883D01*
Y-148288D01*
Y-148282D01*
Y-148276D01*
X-12888Y-148265D01*
X-12894Y-148260D01*
X-12899Y-148254D01*
X-12922Y-148249D01*
X-14792D01*
X-14814Y-148260D01*
Y-148265D01*
X-14820Y-148271D01*
Y-148288D01*
Y-148698D01*
Y-148704D01*
X-14814Y-148726D01*
X-14803Y-148732D01*
X-12833D01*
X-12788Y-148737D01*
X-12722Y-148748D01*
X-12655Y-148765D01*
X-12577Y-148787D01*
X-12500Y-148820D01*
X-12422Y-148859D01*
X-12411Y-148865D01*
X-12389Y-148881D01*
X-12350Y-148909D01*
X-12306Y-148948D01*
X-12256Y-148992D01*
X-12200Y-149048D01*
X-12145Y-149115D01*
X-12094Y-149187D01*
X-12089Y-149198D01*
X-12072Y-149220D01*
X-12056Y-149264D01*
X-12033Y-149320D01*
X-12006Y-149386D01*
X-11989Y-149464D01*
X-11978Y-149547D01*
X-11972Y-149636D01*
Y-150141D01*
Y-150152D01*
Y-150180D01*
X-11978Y-150230D01*
X-11983Y-150285D01*
X-12000Y-150352D01*
X-12022Y-150430D01*
X-12050Y-150507D01*
X-12094Y-150585D01*
X-12100Y-150596D01*
X-12117Y-150619D01*
X-12145Y-150657D01*
X-12183Y-150702D01*
X-12228Y-150757D01*
X-12289Y-150807D01*
X-12350Y-150863D01*
X-12422Y-150913D01*
X-12433Y-150918D01*
X-12455Y-150929D01*
X-12500Y-150952D01*
X-12555Y-150974D01*
X-12622Y-150996D01*
X-12699Y-151018D01*
X-12783Y-151029D01*
X-12877Y-151035D01*
X-14870D01*
X-14920Y-151029D01*
X-14975Y-151018D01*
X-15042Y-151007D01*
X-15119Y-150985D01*
X-15197Y-150952D01*
X-15275Y-150913D01*
X-15286Y-150907D01*
X-15308Y-150891D01*
X-15347Y-150863D01*
X-15391Y-150824D01*
X-15447Y-150779D01*
X-15497Y-150724D01*
X-15552Y-150657D01*
X-15602Y-150585D01*
X-15608Y-150574D01*
X-15619Y-150552D01*
X-15641Y-150507D01*
X-15663Y-150452D01*
X-15685Y-150385D01*
X-15708Y-150313D01*
X-15719Y-150230D01*
X-15724Y-150141D01*
Y-149975D01*
X-14820D01*
Y-150097D01*
Y-150108D01*
X-14814Y-150125D01*
X-14803D01*
X-14781Y-150130D01*
X-12910D01*
X-12894Y-150125D01*
X-12888Y-150119D01*
X-12883Y-150097D01*
Y-149681D01*
Y-149675D01*
X-12894Y-149658D01*
X-12899Y-149653D01*
X-12910Y-149647D01*
X-14842D01*
X-14870Y-149642D01*
X-14920Y-149636D01*
X-14975Y-149631D01*
X-15042Y-149614D01*
X-15119Y-149592D01*
X-15197Y-149558D01*
X-15275Y-149520D01*
X-15286Y-149514D01*
X-15308Y-149497D01*
X-15347Y-149470D01*
X-15391Y-149431D01*
X-15447Y-149386D01*
X-15497Y-149331D01*
X-15552Y-149264D01*
X-15602Y-149192D01*
X-15608Y-149181D01*
X-15619Y-149153D01*
X-15641Y-149115D01*
X-15663Y-149059D01*
X-15685Y-148992D01*
X-15708Y-148915D01*
X-15719Y-148831D01*
X-15724Y-148743D01*
Y-148243D01*
Y-148238D01*
Y-148232D01*
Y-148204D01*
X-15719Y-148154D01*
X-15708Y-148093D01*
X-15697Y-148027D01*
X-15674Y-147949D01*
X-15641Y-147871D01*
X-15602Y-147794D01*
X-15597Y-147783D01*
X-15580Y-147760D01*
X-15552Y-147722D01*
X-15513Y-147677D01*
X-15469Y-147622D01*
X-15414Y-147566D01*
X-15347Y-147516D01*
X-15275Y-147466D01*
X-15264Y-147461D01*
X-15241Y-147450D01*
X-15197Y-147427D01*
X-15142Y-147405D01*
X-15075Y-147383D01*
X-15003Y-147361D01*
X-14920Y-147350D01*
X-14831Y-147344D01*
X-12833D01*
X-12788Y-147350D01*
D02*
G37*
G36*
X-51233Y-148704D02*
X-51228Y-149608D01*
X-53858Y-149603D01*
Y-148698D01*
X-51233Y-148704D01*
D02*
G37*
G36*
X-64253Y-151035D02*
X-65047D01*
X-67700Y-146450D01*
X-66640D01*
X-64648Y-149897D01*
X-62661Y-146450D01*
X-61601D01*
X-64253Y-151035D01*
D02*
G37*
G36*
X-56644Y-147355D02*
X-60235D01*
X-60257Y-147366D01*
Y-147372D01*
X-60263Y-147377D01*
Y-147394D01*
Y-148215D01*
Y-148221D01*
X-60257Y-148243D01*
X-60246Y-148249D01*
X-57505D01*
X-57460Y-148254D01*
X-57399Y-148265D01*
X-57327Y-148282D01*
X-57249Y-148304D01*
X-57172Y-148337D01*
X-57094Y-148376D01*
X-57083Y-148382D01*
X-57061Y-148399D01*
X-57022Y-148426D01*
X-56977Y-148460D01*
X-56922Y-148504D01*
X-56866Y-148559D01*
X-56816Y-148626D01*
X-56766Y-148698D01*
X-56761Y-148709D01*
X-56750Y-148732D01*
X-56728Y-148776D01*
X-56705Y-148831D01*
X-56683Y-148898D01*
X-56661Y-148976D01*
X-56650Y-149065D01*
X-56644Y-149153D01*
Y-150141D01*
Y-150152D01*
Y-150180D01*
X-56650Y-150230D01*
X-56661Y-150285D01*
X-56678Y-150352D01*
X-56700Y-150430D01*
X-56728Y-150507D01*
X-56772Y-150585D01*
X-56778Y-150596D01*
X-56794Y-150619D01*
X-56822Y-150657D01*
X-56861Y-150702D01*
X-56905Y-150757D01*
X-56961Y-150807D01*
X-57027Y-150863D01*
X-57099Y-150913D01*
X-57111Y-150918D01*
X-57133Y-150929D01*
X-57177Y-150952D01*
X-57233Y-150974D01*
X-57299Y-150996D01*
X-57371Y-151018D01*
X-57460Y-151029D01*
X-57549Y-151035D01*
X-60307D01*
X-60352Y-151029D01*
X-60413Y-151018D01*
X-60485Y-151007D01*
X-60563Y-150985D01*
X-60640Y-150952D01*
X-60718Y-150913D01*
X-60729Y-150907D01*
X-60751Y-150891D01*
X-60790Y-150863D01*
X-60835Y-150824D01*
X-60885Y-150779D01*
X-60940Y-150724D01*
X-60996Y-150657D01*
X-61046Y-150585D01*
X-61051Y-150574D01*
X-61062Y-150552D01*
X-61084Y-150507D01*
X-61107Y-150452D01*
X-61129Y-150385D01*
X-61151Y-150313D01*
X-61162Y-150230D01*
X-61168Y-150141D01*
Y-149808D01*
X-60263D01*
Y-150097D01*
Y-150108D01*
X-60257Y-150125D01*
X-60246D01*
X-60224Y-150130D01*
X-57566D01*
X-57560Y-150125D01*
X-57555Y-150119D01*
X-57549Y-150097D01*
Y-149203D01*
Y-149198D01*
Y-149192D01*
X-57560Y-149170D01*
X-57566Y-149164D01*
X-57588D01*
X-61168Y-149159D01*
Y-146450D01*
X-56644Y-146445D01*
Y-147355D01*
D02*
G37*
G36*
X410Y-148249D02*
X-1611D01*
X-1627Y-148260D01*
X-1633Y-148265D01*
X-1638Y-148271D01*
Y-148288D01*
Y-151035D01*
X-2543D01*
Y-148243D01*
Y-148238D01*
Y-148232D01*
Y-148204D01*
X-2537Y-148154D01*
X-2526Y-148093D01*
X-2515Y-148027D01*
X-2493Y-147949D01*
X-2460Y-147871D01*
X-2421Y-147794D01*
X-2415Y-147783D01*
X-2399Y-147760D01*
X-2371Y-147722D01*
X-2332Y-147677D01*
X-2282Y-147622D01*
X-2227Y-147566D01*
X-2166Y-147516D01*
X-2093Y-147466D01*
X-2082Y-147461D01*
X-2055Y-147450D01*
X-2016Y-147427D01*
X-1960Y-147405D01*
X-1894Y-147383D01*
X-1816Y-147361D01*
X-1727Y-147350D01*
X-1638Y-147344D01*
X410D01*
Y-148249D01*
D02*
G37*
G36*
X-4019Y-147350D02*
X-3958Y-147361D01*
X-3886Y-147372D01*
X-3814Y-147394D01*
X-3731Y-147427D01*
X-3653Y-147466D01*
X-3642Y-147472D01*
X-3620Y-147488D01*
X-3581Y-147516D01*
X-3536Y-147549D01*
X-3486Y-147599D01*
X-3431Y-147655D01*
X-3376Y-147722D01*
X-3331Y-147794D01*
X-3325Y-147805D01*
X-3314Y-147827D01*
X-3292Y-147871D01*
X-3270Y-147927D01*
X-3253Y-147993D01*
X-3231Y-148071D01*
X-3220Y-148154D01*
X-3215Y-148243D01*
Y-150141D01*
Y-150152D01*
Y-150180D01*
X-3220Y-150230D01*
X-3226Y-150285D01*
X-3242Y-150352D01*
X-3264Y-150430D01*
X-3292Y-150507D01*
X-3337Y-150585D01*
X-3342Y-150596D01*
X-3359Y-150619D01*
X-3387Y-150657D01*
X-3420Y-150702D01*
X-3470Y-150757D01*
X-3525Y-150807D01*
X-3586Y-150863D01*
X-3659Y-150913D01*
X-3670Y-150918D01*
X-3692Y-150929D01*
X-3736Y-150952D01*
X-3792Y-150974D01*
X-3858Y-150996D01*
X-3936Y-151018D01*
X-4019Y-151029D01*
X-4114Y-151035D01*
X-6101D01*
X-6151Y-151029D01*
X-6211Y-151018D01*
X-6278Y-151007D01*
X-6356Y-150985D01*
X-6434Y-150952D01*
X-6511Y-150913D01*
X-6522Y-150907D01*
X-6544Y-150891D01*
X-6583Y-150863D01*
X-6628Y-150824D01*
X-6678Y-150779D01*
X-6733Y-150724D01*
X-6789Y-150657D01*
X-6839Y-150585D01*
X-6844Y-150574D01*
X-6855Y-150552D01*
X-6877Y-150507D01*
X-6900Y-150452D01*
X-6922Y-150385D01*
X-6944Y-150313D01*
X-6955Y-150230D01*
X-6961Y-150141D01*
Y-148243D01*
Y-148238D01*
Y-148232D01*
Y-148204D01*
X-6955Y-148154D01*
X-6944Y-148093D01*
X-6933Y-148027D01*
X-6911Y-147949D01*
X-6877Y-147871D01*
X-6839Y-147794D01*
X-6833Y-147783D01*
X-6816Y-147760D01*
X-6789Y-147722D01*
X-6750Y-147677D01*
X-6700Y-147622D01*
X-6645Y-147566D01*
X-6583Y-147516D01*
X-6511Y-147466D01*
X-6500Y-147461D01*
X-6472Y-147450D01*
X-6434Y-147427D01*
X-6378Y-147405D01*
X-6311Y-147383D01*
X-6234Y-147361D01*
X-6151Y-147350D01*
X-6062Y-147344D01*
X-4069D01*
X-4019Y-147350D01*
D02*
G37*
G36*
X-17178D02*
X-17117Y-147361D01*
X-17045Y-147372D01*
X-16973Y-147394D01*
X-16890Y-147427D01*
X-16812Y-147466D01*
X-16801Y-147472D01*
X-16779Y-147488D01*
X-16740Y-147516D01*
X-16695Y-147549D01*
X-16646Y-147599D01*
X-16590Y-147655D01*
X-16534Y-147722D01*
X-16490Y-147794D01*
X-16485Y-147805D01*
X-16474Y-147827D01*
X-16451Y-147871D01*
X-16429Y-147927D01*
X-16412Y-147993D01*
X-16390Y-148071D01*
X-16379Y-148154D01*
X-16374Y-148243D01*
X-16368Y-149642D01*
X-19215Y-149647D01*
Y-150097D01*
Y-150108D01*
X-19204Y-150125D01*
X-19199D01*
X-19176Y-150130D01*
X-16368D01*
X-16374Y-151035D01*
X-19260D01*
X-19309Y-151029D01*
X-19371Y-151018D01*
X-19437Y-151007D01*
X-19515Y-150985D01*
X-19593Y-150952D01*
X-19670Y-150913D01*
X-19681Y-150907D01*
X-19704Y-150891D01*
X-19742Y-150863D01*
X-19787Y-150824D01*
X-19837Y-150779D01*
X-19892Y-150724D01*
X-19948Y-150657D01*
X-19998Y-150585D01*
X-20003Y-150574D01*
X-20014Y-150552D01*
X-20037Y-150507D01*
X-20059Y-150452D01*
X-20081Y-150385D01*
X-20103Y-150313D01*
X-20114Y-150230D01*
X-20120Y-150141D01*
Y-148243D01*
Y-148238D01*
Y-148232D01*
Y-148204D01*
X-20114Y-148154D01*
X-20103Y-148093D01*
X-20092Y-148027D01*
X-20070Y-147949D01*
X-20037Y-147871D01*
X-19998Y-147794D01*
X-19992Y-147783D01*
X-19976Y-147760D01*
X-19948Y-147722D01*
X-19909Y-147677D01*
X-19859Y-147622D01*
X-19804Y-147566D01*
X-19742Y-147516D01*
X-19670Y-147466D01*
X-19659Y-147461D01*
X-19632Y-147450D01*
X-19593Y-147427D01*
X-19537Y-147405D01*
X-19470Y-147383D01*
X-19393Y-147361D01*
X-19309Y-147350D01*
X-19221Y-147344D01*
X-17228D01*
X-17178Y-147350D01*
D02*
G37*
G36*
X-20808Y-148249D02*
X-23616D01*
X-23633Y-148260D01*
X-23639Y-148265D01*
X-23644Y-148271D01*
Y-148288D01*
Y-150097D01*
Y-150108D01*
X-23633Y-150125D01*
X-23627D01*
X-23605Y-150130D01*
X-20797D01*
X-20802Y-151035D01*
X-23688D01*
X-23739Y-151029D01*
X-23799Y-151018D01*
X-23866Y-151007D01*
X-23944Y-150985D01*
X-24022Y-150952D01*
X-24099Y-150913D01*
X-24110Y-150907D01*
X-24133Y-150891D01*
X-24171Y-150863D01*
X-24216Y-150824D01*
X-24266Y-150779D01*
X-24321Y-150724D01*
X-24377Y-150657D01*
X-24427Y-150585D01*
X-24432Y-150574D01*
X-24443Y-150552D01*
X-24465Y-150507D01*
X-24488Y-150452D01*
X-24510Y-150385D01*
X-24532Y-150313D01*
X-24543Y-150230D01*
X-24549Y-150141D01*
Y-148243D01*
Y-148238D01*
Y-148232D01*
Y-148204D01*
X-24543Y-148154D01*
X-24532Y-148093D01*
X-24521Y-148027D01*
X-24499Y-147949D01*
X-24465Y-147871D01*
X-24427Y-147794D01*
X-24421Y-147783D01*
X-24404Y-147760D01*
X-24377Y-147722D01*
X-24338Y-147677D01*
X-24288Y-147622D01*
X-24232Y-147566D01*
X-24171Y-147516D01*
X-24099Y-147466D01*
X-24088Y-147461D01*
X-24060Y-147450D01*
X-24022Y-147427D01*
X-23966Y-147405D01*
X-23899Y-147383D01*
X-23822Y-147361D01*
X-23739Y-147350D01*
X-23650Y-147344D01*
X-20802D01*
X-20808Y-148249D01*
D02*
G37*
G36*
X-25237D02*
X-28045D01*
X-28062Y-148260D01*
X-28067Y-148265D01*
X-28073Y-148271D01*
Y-148288D01*
Y-150097D01*
Y-150108D01*
X-28062Y-150125D01*
X-28056D01*
X-28034Y-150130D01*
X-25226D01*
X-25231Y-151035D01*
X-28117D01*
X-28167Y-151029D01*
X-28228Y-151018D01*
X-28295Y-151007D01*
X-28373Y-150985D01*
X-28450Y-150952D01*
X-28528Y-150913D01*
X-28539Y-150907D01*
X-28561Y-150891D01*
X-28600Y-150863D01*
X-28645Y-150824D01*
X-28695Y-150779D01*
X-28750Y-150724D01*
X-28806Y-150657D01*
X-28855Y-150585D01*
X-28861Y-150574D01*
X-28872Y-150552D01*
X-28894Y-150507D01*
X-28917Y-150452D01*
X-28939Y-150385D01*
X-28961Y-150313D01*
X-28972Y-150230D01*
X-28978Y-150141D01*
Y-148243D01*
Y-148238D01*
Y-148232D01*
Y-148204D01*
X-28972Y-148154D01*
X-28961Y-148093D01*
X-28950Y-148027D01*
X-28928Y-147949D01*
X-28894Y-147871D01*
X-28855Y-147794D01*
X-28850Y-147783D01*
X-28833Y-147760D01*
X-28806Y-147722D01*
X-28767Y-147677D01*
X-28717Y-147622D01*
X-28661Y-147566D01*
X-28600Y-147516D01*
X-28528Y-147466D01*
X-28517Y-147461D01*
X-28489Y-147450D01*
X-28450Y-147427D01*
X-28395Y-147405D01*
X-28328Y-147383D01*
X-28251Y-147361D01*
X-28167Y-147350D01*
X-28079Y-147344D01*
X-25231D01*
X-25237Y-148249D01*
D02*
G37*
G36*
X-30448Y-147350D02*
X-30387Y-147361D01*
X-30315Y-147372D01*
X-30243Y-147394D01*
X-30160Y-147427D01*
X-30082Y-147466D01*
X-30071Y-147472D01*
X-30049Y-147488D01*
X-30010Y-147516D01*
X-29966Y-147549D01*
X-29916Y-147599D01*
X-29860Y-147655D01*
X-29805Y-147722D01*
X-29760Y-147794D01*
X-29755Y-147805D01*
X-29743Y-147827D01*
X-29721Y-147871D01*
X-29699Y-147927D01*
X-29682Y-147993D01*
X-29660Y-148071D01*
X-29649Y-148154D01*
X-29644Y-148243D01*
Y-150141D01*
Y-150152D01*
Y-150180D01*
X-29649Y-150230D01*
X-29655Y-150285D01*
X-29671Y-150352D01*
X-29694Y-150430D01*
X-29721Y-150507D01*
X-29766Y-150585D01*
X-29771Y-150596D01*
X-29788Y-150619D01*
X-29816Y-150657D01*
X-29849Y-150702D01*
X-29899Y-150757D01*
X-29954Y-150807D01*
X-30016Y-150863D01*
X-30088Y-150913D01*
X-30099Y-150918D01*
X-30121Y-150929D01*
X-30165Y-150952D01*
X-30221Y-150974D01*
X-30288Y-150996D01*
X-30365Y-151018D01*
X-30448Y-151029D01*
X-30543Y-151035D01*
X-32530D01*
X-32580Y-151029D01*
X-32641Y-151018D01*
X-32707Y-151007D01*
X-32785Y-150985D01*
X-32863Y-150952D01*
X-32940Y-150913D01*
X-32951Y-150907D01*
X-32974Y-150891D01*
X-33013Y-150863D01*
X-33057Y-150824D01*
X-33107Y-150779D01*
X-33162Y-150724D01*
X-33218Y-150657D01*
X-33268Y-150585D01*
X-33273Y-150574D01*
X-33284Y-150552D01*
X-33307Y-150507D01*
X-33329Y-150452D01*
X-33351Y-150385D01*
X-33373Y-150313D01*
X-33384Y-150230D01*
X-33390Y-150141D01*
Y-148243D01*
Y-148238D01*
Y-148232D01*
Y-148204D01*
X-33384Y-148154D01*
X-33373Y-148093D01*
X-33362Y-148027D01*
X-33340Y-147949D01*
X-33307Y-147871D01*
X-33268Y-147794D01*
X-33262Y-147783D01*
X-33246Y-147760D01*
X-33218Y-147722D01*
X-33179Y-147677D01*
X-33129Y-147622D01*
X-33074Y-147566D01*
X-33013Y-147516D01*
X-32940Y-147466D01*
X-32929Y-147461D01*
X-32901Y-147450D01*
X-32863Y-147427D01*
X-32807Y-147405D01*
X-32741Y-147383D01*
X-32663Y-147361D01*
X-32580Y-147350D01*
X-32491Y-147344D01*
X-30498D01*
X-30448Y-147350D01*
D02*
G37*
G36*
X-33773Y-148249D02*
X-35793D01*
X-35810Y-148260D01*
X-35815Y-148265D01*
X-35821Y-148271D01*
Y-148288D01*
Y-151035D01*
X-36726D01*
Y-148243D01*
Y-148238D01*
Y-148232D01*
Y-148204D01*
X-36720Y-148154D01*
X-36709Y-148093D01*
X-36698Y-148027D01*
X-36676Y-147949D01*
X-36642Y-147871D01*
X-36603Y-147794D01*
X-36598Y-147783D01*
X-36581Y-147760D01*
X-36553Y-147722D01*
X-36515Y-147677D01*
X-36465Y-147622D01*
X-36409Y-147566D01*
X-36348Y-147516D01*
X-36276Y-147466D01*
X-36265Y-147461D01*
X-36237Y-147450D01*
X-36198Y-147427D01*
X-36143Y-147405D01*
X-36076Y-147383D01*
X-35998Y-147361D01*
X-35910Y-147350D01*
X-35821Y-147344D01*
X-33773D01*
Y-148249D01*
D02*
G37*
G36*
X-42431Y-147350D02*
X-42370Y-147361D01*
X-42298Y-147372D01*
X-42226Y-147394D01*
X-42142Y-147427D01*
X-42065Y-147466D01*
X-42053Y-147472D01*
X-42031Y-147488D01*
X-41992Y-147516D01*
X-41948Y-147549D01*
X-41898Y-147599D01*
X-41842Y-147655D01*
X-41787Y-147722D01*
X-41743Y-147794D01*
X-41737Y-147805D01*
X-41726Y-147827D01*
X-41704Y-147871D01*
X-41682Y-147927D01*
X-41665Y-147993D01*
X-41643Y-148071D01*
X-41632Y-148154D01*
X-41626Y-148243D01*
Y-150141D01*
Y-150152D01*
Y-150180D01*
X-41632Y-150230D01*
X-41637Y-150285D01*
X-41654Y-150352D01*
X-41676Y-150430D01*
X-41704Y-150507D01*
X-41748Y-150585D01*
X-41754Y-150596D01*
X-41770Y-150619D01*
X-41798Y-150657D01*
X-41831Y-150702D01*
X-41881Y-150757D01*
X-41937Y-150807D01*
X-41998Y-150863D01*
X-42070Y-150913D01*
X-42081Y-150918D01*
X-42103Y-150929D01*
X-42148Y-150952D01*
X-42203Y-150974D01*
X-42270Y-150996D01*
X-42348Y-151018D01*
X-42431Y-151029D01*
X-42525Y-151035D01*
X-44512D01*
X-44562Y-151029D01*
X-44623Y-151018D01*
X-44690Y-151007D01*
X-44767Y-150985D01*
X-44845Y-150952D01*
X-44923Y-150913D01*
X-44934Y-150907D01*
X-44956Y-150891D01*
X-44995Y-150863D01*
X-45039Y-150824D01*
X-45089Y-150779D01*
X-45145Y-150724D01*
X-45200Y-150657D01*
X-45250Y-150585D01*
X-45256Y-150574D01*
X-45267Y-150552D01*
X-45289Y-150507D01*
X-45311Y-150452D01*
X-45333Y-150385D01*
X-45356Y-150313D01*
X-45367Y-150230D01*
X-45372Y-150141D01*
Y-148243D01*
Y-148238D01*
Y-148232D01*
Y-148204D01*
X-45367Y-148154D01*
X-45356Y-148093D01*
X-45345Y-148027D01*
X-45322Y-147949D01*
X-45289Y-147871D01*
X-45250Y-147794D01*
X-45245Y-147783D01*
X-45228Y-147760D01*
X-45200Y-147722D01*
X-45162Y-147677D01*
X-45112Y-147622D01*
X-45056Y-147566D01*
X-44995Y-147516D01*
X-44923Y-147466D01*
X-44912Y-147461D01*
X-44884Y-147450D01*
X-44845Y-147427D01*
X-44790Y-147405D01*
X-44723Y-147383D01*
X-44645Y-147361D01*
X-44562Y-147350D01*
X-44473Y-147344D01*
X-42481D01*
X-42431Y-147350D01*
D02*
G37*
G36*
X-46005Y-147372D02*
X-49479D01*
X-49501Y-147377D01*
X-49557Y-147394D01*
X-49607Y-147427D01*
X-49618Y-147438D01*
X-49635Y-147466D01*
X-49651Y-147516D01*
X-49663Y-147588D01*
Y-149897D01*
Y-149903D01*
Y-149914D01*
X-49657Y-149930D01*
Y-149952D01*
X-49640Y-150008D01*
X-49607Y-150058D01*
X-49601D01*
X-49596Y-150069D01*
X-49563Y-150086D01*
X-49513Y-150102D01*
X-49446Y-150113D01*
X-46005D01*
Y-151035D01*
X-49707D01*
X-49751Y-151029D01*
X-49818Y-151018D01*
X-49885Y-151007D01*
X-49962Y-150985D01*
X-50045Y-150952D01*
X-50123Y-150913D01*
X-50134Y-150907D01*
X-50156Y-150891D01*
X-50195Y-150863D01*
X-50240Y-150824D01*
X-50295Y-150779D01*
X-50351Y-150724D01*
X-50406Y-150657D01*
X-50456Y-150585D01*
X-50462Y-150574D01*
X-50473Y-150546D01*
X-50495Y-150507D01*
X-50517Y-150446D01*
X-50539Y-150380D01*
X-50562Y-150297D01*
X-50573Y-150213D01*
X-50578Y-150119D01*
Y-147366D01*
Y-147361D01*
Y-147355D01*
Y-147322D01*
X-50573Y-147272D01*
X-50562Y-147211D01*
X-50551Y-147139D01*
X-50528Y-147067D01*
X-50495Y-146983D01*
X-50456Y-146906D01*
X-50451Y-146895D01*
X-50434Y-146872D01*
X-50406Y-146833D01*
X-50367Y-146789D01*
X-50317Y-146733D01*
X-50262Y-146678D01*
X-50195Y-146628D01*
X-50123Y-146578D01*
X-50112Y-146573D01*
X-50084Y-146556D01*
X-50045Y-146539D01*
X-49990Y-146512D01*
X-49918Y-146489D01*
X-49840Y-146473D01*
X-49757Y-146456D01*
X-49663Y-146450D01*
X-46005D01*
Y-147372D01*
D02*
G37*
G36*
X-38002Y-147350D02*
X-37941Y-147361D01*
X-37874Y-147372D01*
X-37797Y-147394D01*
X-37719Y-147427D01*
X-37641Y-147466D01*
X-37630Y-147472D01*
X-37608Y-147488D01*
X-37569Y-147516D01*
X-37525Y-147555D01*
X-37469Y-147599D01*
X-37414Y-147655D01*
X-37364Y-147722D01*
X-37314Y-147794D01*
X-37308Y-147805D01*
X-37292Y-147827D01*
X-37275Y-147871D01*
X-37253Y-147927D01*
X-37225Y-147993D01*
X-37208Y-148071D01*
X-37197Y-148154D01*
X-37192Y-148243D01*
Y-150141D01*
Y-150152D01*
Y-150180D01*
X-37197Y-150230D01*
X-37203Y-150285D01*
X-37219Y-150352D01*
X-37242Y-150430D01*
X-37269Y-150507D01*
X-37314Y-150585D01*
X-37319Y-150596D01*
X-37336Y-150619D01*
X-37364Y-150657D01*
X-37403Y-150702D01*
X-37447Y-150757D01*
X-37502Y-150807D01*
X-37569Y-150863D01*
X-37641Y-150913D01*
X-37652Y-150918D01*
X-37674Y-150929D01*
X-37719Y-150952D01*
X-37774Y-150974D01*
X-37841Y-150996D01*
X-37919Y-151018D01*
X-38002Y-151029D01*
X-38091Y-151035D01*
X-40033D01*
Y-152500D01*
X-40944D01*
Y-147344D01*
X-38052D01*
X-38002Y-147350D01*
D02*
G37*
G36*
X70126Y-141771D02*
X65920Y-146768D01*
X70126Y-151778D01*
Y-152500D01*
X67669D01*
X63838Y-147933D01*
X61367D01*
Y-152500D01*
X59063D01*
Y-141035D01*
X61367D01*
Y-145602D01*
X63838D01*
X67669Y-141035D01*
X70126D01*
Y-141771D01*
D02*
G37*
G36*
X57259Y-152500D02*
X54830D01*
X48084Y-144477D01*
Y-152500D01*
X45794Y-152500D01*
Y-141035D01*
X48223Y-141035D01*
X54941Y-149030D01*
Y-141035D01*
X57259D01*
Y-152500D01*
D02*
G37*
G36*
X30679Y-150210D02*
Y-150238D01*
Y-150321D01*
X30665Y-150446D01*
X30637Y-150598D01*
X30595Y-150779D01*
X30540Y-150973D01*
X30471Y-151168D01*
X30360Y-151376D01*
X30346Y-151403D01*
X30304Y-151459D01*
X30235Y-151556D01*
X30137Y-151667D01*
X30013Y-151806D01*
X29874Y-151931D01*
X29707Y-152070D01*
X29527Y-152195D01*
X29499Y-152208D01*
X29443Y-152236D01*
X29332Y-152292D01*
X29194Y-152347D01*
X29027Y-152403D01*
X28819Y-152458D01*
X28611Y-152486D01*
X28375Y-152500D01*
X21379D01*
X21268Y-152486D01*
X21102Y-152458D01*
X20935Y-152431D01*
X20741Y-152375D01*
X20533Y-152292D01*
X20338Y-152195D01*
X20310Y-152181D01*
X20255Y-152139D01*
X20158Y-152070D01*
X20047Y-151973D01*
X19908Y-151862D01*
X19769Y-151723D01*
X19630Y-151556D01*
X19505Y-151376D01*
X19491Y-151348D01*
X19464Y-151279D01*
X19408Y-151181D01*
X19353Y-151029D01*
X19297Y-150862D01*
X19242Y-150654D01*
X19214Y-150446D01*
X19200Y-150210D01*
Y-148822D01*
X21490D01*
Y-150099D01*
Y-150113D01*
Y-150127D01*
X21518Y-150182D01*
X21532Y-150196D01*
X28305D01*
X28333Y-150182D01*
X28347Y-150154D01*
Y-150140D01*
Y-150099D01*
X28361Y-141035D01*
X30679D01*
Y-150210D01*
D02*
G37*
G36*
X41894Y-141049D02*
X42046Y-141077D01*
X42227Y-141118D01*
X42407Y-141174D01*
X42616Y-141243D01*
X42810Y-141354D01*
X42838Y-141368D01*
X42893Y-141410D01*
X42990Y-141479D01*
X43115Y-141576D01*
X43254Y-141688D01*
X43393Y-141826D01*
X43532Y-141993D01*
X43657Y-142173D01*
X43670Y-142201D01*
X43712Y-142257D01*
X43754Y-142368D01*
X43823Y-142506D01*
X43879Y-142673D01*
X43920Y-142881D01*
X43962Y-143089D01*
X43976Y-143325D01*
Y-152500D01*
X41644D01*
X41658Y-148725D01*
X34787D01*
Y-152500D01*
X32497D01*
Y-143325D01*
Y-143311D01*
Y-143298D01*
Y-143214D01*
X32511Y-143089D01*
X32539Y-142937D01*
X32566Y-142756D01*
X32622Y-142576D01*
X32705Y-142368D01*
X32802Y-142173D01*
X32816Y-142146D01*
X32858Y-142090D01*
X32927Y-141993D01*
X33024Y-141882D01*
X33149Y-141743D01*
X33288Y-141604D01*
X33455Y-141479D01*
X33635Y-141354D01*
X33663Y-141340D01*
X33732Y-141299D01*
X33830Y-141257D01*
X33968Y-141188D01*
X34149Y-141132D01*
X34343Y-141091D01*
X34551Y-141049D01*
X34787Y-141035D01*
X41769D01*
X41894Y-141049D01*
D02*
G37*
%LPC*%
G36*
X10138Y154479D02*
X1257Y154469D01*
X1242Y154454D01*
X1208Y154390D01*
X1188Y154380D01*
X1144Y154336D01*
X1154Y154061D01*
X1149Y149719D01*
X1198Y149670D01*
X1217Y149660D01*
X1232Y149645D01*
X1242Y149626D01*
X1276Y149592D01*
X1320Y149587D01*
X1767Y149592D01*
X1801Y149567D01*
X1811Y149498D01*
X1806Y144920D01*
X1836Y144881D01*
X1855Y144871D01*
X1880Y144847D01*
X1909Y144798D01*
X1934Y144773D01*
X7321Y144783D01*
X7346Y144808D01*
X7356Y144827D01*
X7380Y144861D01*
X7429Y144891D01*
X7444Y144906D01*
X7454Y144945D01*
X7444Y145102D01*
Y147742D01*
Y147751D01*
X7454Y149557D01*
X7468Y149582D01*
X7537Y149601D01*
X7606Y149592D01*
X10103Y149587D01*
X10142Y149596D01*
X10172Y149626D01*
X10182Y149645D01*
X10216Y149680D01*
X10236Y149690D01*
X10260Y149714D01*
X10270Y149753D01*
X10260Y149852D01*
X10265Y154322D01*
X10250Y154356D01*
X10236Y154371D01*
X10216Y154380D01*
X10192Y154405D01*
X10162Y154454D01*
X10138Y154479D01*
D02*
G37*
G36*
X-10019D02*
X-18900Y154469D01*
X-18925Y154444D01*
X-18954Y154395D01*
X-18979Y154371D01*
X-18998Y154361D01*
X-19023Y154297D01*
X-19013Y154268D01*
X-19018Y149749D01*
X-19008Y149709D01*
X-18988Y149690D01*
X-18969Y149680D01*
X-18915Y149626D01*
X-18905Y149606D01*
X-18890Y149592D01*
X-18836Y149587D01*
X-16324Y149596D01*
X-16241Y149601D01*
X-16206Y149577D01*
X-16196Y149538D01*
X-16226Y149488D01*
X-16260Y149464D01*
X-16275Y149449D01*
X-16280Y149425D01*
X-16270Y149405D01*
X-16250Y149395D01*
X-16196Y149351D01*
X-16206Y149135D01*
X-16221Y149120D01*
X-16241Y149111D01*
X-16275Y149086D01*
X-16265Y149027D01*
X-16206Y148988D01*
X-16196Y148949D01*
X-16206Y148762D01*
X-16231Y148738D01*
X-16250Y148728D01*
X-16275Y148703D01*
X-16265Y148654D01*
X-16250Y148640D01*
X-16231Y148630D01*
X-16206Y148615D01*
X-16196Y148576D01*
X-16206Y148380D01*
X-16221Y148365D01*
X-16270Y148335D01*
X-16275Y148291D01*
X-16241Y148257D01*
X-16221Y148247D01*
X-16196Y148223D01*
X-16206Y148007D01*
X-16231Y147982D01*
X-16250Y147972D01*
X-16275Y147948D01*
X-16265Y147899D01*
X-16250Y147884D01*
X-16206Y147860D01*
X-16196Y147820D01*
X-16206Y147634D01*
X-16241Y147599D01*
X-16260Y147590D01*
X-16275Y147575D01*
X-16265Y147526D01*
X-16250Y147511D01*
X-16231Y147501D01*
X-16196Y147467D01*
X-16206Y147251D01*
X-16221Y147236D01*
X-16241Y147227D01*
X-16275Y147202D01*
X-16265Y147143D01*
X-16206Y147104D01*
X-16196Y147065D01*
X-16206Y146878D01*
X-16231Y146854D01*
X-16250Y146844D01*
X-16275Y146819D01*
X-16265Y146770D01*
X-16250Y146756D01*
X-16231Y146746D01*
X-16206Y146731D01*
X-16196Y146692D01*
X-16206Y146495D01*
X-16221Y146481D01*
X-16270Y146451D01*
X-16275Y146407D01*
X-16241Y146373D01*
X-16221Y146363D01*
X-16196Y146338D01*
X-16206Y146123D01*
X-16231Y146098D01*
X-16250Y146088D01*
X-16275Y146064D01*
X-16265Y146015D01*
X-16206Y145975D01*
X-16196Y145936D01*
X-16206Y145750D01*
X-16241Y145715D01*
X-16260Y145705D01*
X-16275Y145691D01*
X-16265Y145642D01*
X-16250Y145627D01*
X-16231Y145617D01*
X-16196Y145583D01*
X-16206Y145367D01*
X-16221Y145352D01*
X-16241Y145342D01*
X-16275Y145318D01*
X-16265Y145259D01*
X-16211Y145225D01*
X-16196Y145180D01*
X-16206Y144994D01*
X-16231Y144969D01*
X-16250Y144960D01*
X-16275Y144935D01*
X-16265Y144886D01*
X-16250Y144871D01*
X-16201Y144842D01*
X-16177Y144817D01*
X-16167Y144798D01*
X-16103Y144773D01*
X-11932D01*
X-10696Y144783D01*
X-10652Y144817D01*
X-10642Y144837D01*
X-10617Y144861D01*
X-10569Y144891D01*
X-10564Y144935D01*
X-10598Y144969D01*
X-10617Y144979D01*
X-10632Y144994D01*
X-10652Y145043D01*
X-10642Y145112D01*
X-10608Y145146D01*
X-10588Y145156D01*
X-10564Y145180D01*
X-10573Y145229D01*
X-10588Y145244D01*
X-10608Y145254D01*
X-10642Y145288D01*
X-10632Y145504D01*
X-10617Y145519D01*
X-10569Y145548D01*
X-10554Y145573D01*
X-10578Y145607D01*
X-10627Y145637D01*
X-10642Y145681D01*
X-10617Y145715D01*
X-10569Y145745D01*
X-10564Y145779D01*
X-10588Y145804D01*
X-10632Y145828D01*
X-10642Y145867D01*
X-10617Y145902D01*
X-10598Y145912D01*
X-10564Y145936D01*
X-10569Y145980D01*
X-10632Y146015D01*
X-10642Y146054D01*
X-10632Y146073D01*
X-10608Y146098D01*
X-10588Y146108D01*
X-10564Y146123D01*
X-10573Y146172D01*
X-10598Y146196D01*
X-10617Y146206D01*
X-10642Y146230D01*
X-10632Y146446D01*
X-10617Y146461D01*
X-10569Y146491D01*
X-10554Y146515D01*
X-10578Y146549D01*
X-10627Y146579D01*
X-10642Y146623D01*
X-10617Y146657D01*
X-10569Y146687D01*
X-10564Y146721D01*
X-10588Y146746D01*
X-10632Y146770D01*
X-10642Y146809D01*
X-10617Y146844D01*
X-10598Y146854D01*
X-10564Y146878D01*
X-10569Y146922D01*
X-10632Y146957D01*
X-10642Y146996D01*
X-10632Y147016D01*
X-10608Y147040D01*
X-10588Y147050D01*
X-10564Y147065D01*
X-10573Y147114D01*
X-10598Y147138D01*
X-10617Y147148D01*
X-10642Y147172D01*
X-10632Y147388D01*
X-10617Y147403D01*
X-10569Y147433D01*
X-10554Y147457D01*
X-10578Y147492D01*
X-10627Y147521D01*
X-10642Y147565D01*
X-10617Y147599D01*
X-10569Y147629D01*
X-10564Y147663D01*
X-10588Y147688D01*
X-10632Y147712D01*
X-10642Y147751D01*
X-10617Y147786D01*
X-10598Y147796D01*
X-10564Y147820D01*
X-10569Y147864D01*
X-10632Y147899D01*
X-10642Y147938D01*
X-10632Y147958D01*
X-10608Y147982D01*
X-10588Y147992D01*
X-10564Y148007D01*
X-10573Y148056D01*
X-10598Y148080D01*
X-10617Y148090D01*
X-10642Y148115D01*
X-10632Y148330D01*
X-10617Y148345D01*
X-10569Y148375D01*
X-10554Y148399D01*
X-10578Y148433D01*
X-10627Y148463D01*
X-10642Y148507D01*
X-10617Y148541D01*
X-10569Y148571D01*
X-10564Y148605D01*
X-10588Y148630D01*
X-10632Y148654D01*
X-10642Y148694D01*
X-10632Y148713D01*
X-10608Y148738D01*
X-10564Y148762D01*
X-10573Y148811D01*
X-10588Y148826D01*
X-10608Y148836D01*
X-10632Y148851D01*
X-10642Y148890D01*
X-10632Y149076D01*
X-10598Y149111D01*
X-10578Y149120D01*
X-10564Y149135D01*
X-10559Y149160D01*
X-10578Y149189D01*
X-10627Y149219D01*
X-10642Y149233D01*
X-10632Y149282D01*
X-10617Y149297D01*
X-10569Y149327D01*
X-10554Y149351D01*
X-10588Y149395D01*
X-10632Y149420D01*
X-10652Y149488D01*
X-10642Y149518D01*
X-10632Y149557D01*
X-10617Y149582D01*
X-10549Y149601D01*
X-10510Y149592D01*
X-10053Y149587D01*
X-10004Y149606D01*
X-9960Y149670D01*
X-9940Y149680D01*
X-9906Y149704D01*
X-9896Y149744D01*
X-9906Y154346D01*
X-9975Y154415D01*
X-10004Y154464D01*
X-10019Y154479D01*
D02*
G37*
G36*
X-2011Y142781D02*
X-2065Y142766D01*
X-2080Y142752D01*
X-2124Y142747D01*
X-2159Y142761D01*
X-2207Y142781D01*
X-2247Y142771D01*
X-2306Y142742D01*
X-2394Y142781D01*
X-2433Y142771D01*
X-2502Y142742D01*
X-2590Y142781D01*
X-2679Y142742D01*
X-2767Y142781D01*
X-2821Y142766D01*
X-2836Y142752D01*
X-2880Y142747D01*
X-2963Y142781D01*
X-3061Y142742D01*
X-3150Y142781D01*
X-3189Y142771D01*
X-3248Y142742D01*
X-3336Y142781D01*
X-3375Y142771D01*
X-3444Y142742D01*
X-3532Y142781D01*
X-3621Y142742D01*
X-3709Y142781D01*
X-3763Y142766D01*
X-3778Y142752D01*
X-3822Y142747D01*
X-3905Y142781D01*
X-4003Y142742D01*
X-4092Y142781D01*
X-4131Y142771D01*
X-4190Y142742D01*
X-4278Y142781D01*
X-4317Y142771D01*
X-4386Y142742D01*
X-4425Y142761D01*
X-4430Y142766D01*
X-4474Y142781D01*
X-4563Y142742D01*
X-4651Y142781D01*
X-4705Y142766D01*
X-4720Y142752D01*
X-4764Y142747D01*
X-4847Y142781D01*
X-4945Y142742D01*
X-5034Y142781D01*
X-5073Y142771D01*
X-5132Y142742D01*
X-5220Y142781D01*
X-5260Y142771D01*
X-5328Y142742D01*
X-5416Y142781D01*
X-5505Y142742D01*
X-5593Y142781D01*
X-5647Y142766D01*
X-5662Y142752D01*
X-5706Y142747D01*
X-5789Y142781D01*
X-5887Y142742D01*
X-5976Y142781D01*
X-6015Y142771D01*
X-6074Y142742D01*
X-6162Y142781D01*
X-6202Y142771D01*
X-6270Y142742D01*
X-6359Y142781D01*
X-6447Y142742D01*
X-6516Y142771D01*
X-6555Y142781D01*
X-6643Y142742D01*
X-6722Y142752D01*
X-6830Y142703D01*
X-6898Y142693D01*
X-6967Y142654D01*
X-6987Y142634D01*
X-7075Y142585D01*
X-7114Y142546D01*
X-7134Y142536D01*
X-7227Y142472D01*
X-7271Y142418D01*
X-7325Y142374D01*
X-7335Y142354D01*
X-7399Y142261D01*
X-7433Y142227D01*
X-7472Y142158D01*
X-7521Y142109D01*
X-7531Y142070D01*
X-7570Y142001D01*
X-7590Y141981D01*
X-7620Y141913D01*
X-7634Y141859D01*
X-7674Y141800D01*
X-7688Y141785D01*
X-7708Y141736D01*
X-7718Y141697D01*
X-7732Y141633D01*
X-7742Y141584D01*
X-7752Y141545D01*
X-7806Y141442D01*
X-7826Y141245D01*
X-7835Y141216D01*
X-7850Y141162D01*
X-7875Y141108D01*
X-7894Y141029D01*
X-7885Y140961D01*
X-7894Y140931D01*
X-7904Y140833D01*
X-7894Y140028D01*
X-7885Y139999D01*
X-7860Y139935D01*
X-7835Y139852D01*
X-7826Y139813D01*
X-7816Y139744D01*
X-7806Y139616D01*
X-7757Y139548D01*
X-7742Y139494D01*
X-7723Y139395D01*
X-7703Y139317D01*
X-7664Y139258D01*
X-7649Y139243D01*
X-7605Y139121D01*
X-7580Y139096D01*
X-7570Y139057D01*
X-7580Y139028D01*
X-7620Y138939D01*
X-7629Y138871D01*
X-7664Y138826D01*
X-7683Y138816D01*
X-7698Y138802D01*
X-7718Y138733D01*
X-7728Y138615D01*
X-7777Y138547D01*
X-7806Y138478D01*
X-7816Y138272D01*
X-7826Y138242D01*
X-7840Y138179D01*
X-7870Y138100D01*
X-7894Y138017D01*
X-7904Y137919D01*
X-7894Y137114D01*
X-7885Y137084D01*
X-7894Y137055D01*
X-7885Y136986D01*
X-7845Y136947D01*
X-7826Y136898D01*
X-7816Y136712D01*
X-7806Y136682D01*
X-7782Y136569D01*
X-7728Y136466D01*
X-7718Y136427D01*
X-7703Y136353D01*
X-7669Y136299D01*
X-7629Y136211D01*
X-7615Y136137D01*
X-7551Y136074D01*
X-7531Y136025D01*
X-7517Y135971D01*
X-7443Y135897D01*
X-7433Y135858D01*
X-7394Y135789D01*
X-7163Y135558D01*
X-7095Y135519D01*
X-7070Y135495D01*
X-7060Y135475D01*
X-7045Y135460D01*
X-6938Y135421D01*
X-6869Y135372D01*
X-6830Y135362D01*
X-6702Y135352D01*
X-6633Y135343D01*
X-6594Y135333D01*
X-6555Y135343D01*
X-1947Y135338D01*
X-1751Y135367D01*
X-1717Y135392D01*
X-1702Y135406D01*
X-1692Y135426D01*
X-1658Y135460D01*
X-1638Y135470D01*
X-1614Y135495D01*
X-1594Y135544D01*
X-1579Y135598D01*
X-1565Y135612D01*
X-1555Y135632D01*
X-1516Y135691D01*
X-1496Y135828D01*
X-1486Y135868D01*
X-1476Y136025D01*
X-1457Y136074D01*
X-1467Y136191D01*
X-1476Y136221D01*
X-1496Y136290D01*
X-1506Y136417D01*
X-1516Y136476D01*
X-1565Y136545D01*
X-1624Y136653D01*
X-1638Y136667D01*
X-1658Y136677D01*
X-1692Y136712D01*
X-1702Y136731D01*
X-1736Y136766D01*
X-1800Y136790D01*
X-1835Y136815D01*
X-1903Y136844D01*
X-1962Y136834D01*
X-2011Y136815D01*
X-2060Y136824D01*
X-2109Y136844D01*
X-2159Y136834D01*
X-2178Y136815D01*
X-2247Y136824D01*
X-2296Y136844D01*
X-2345Y136834D01*
X-2394Y136815D01*
X-2443Y136824D01*
X-2492Y136844D01*
X-2531Y136834D01*
X-2580Y136815D01*
X-2630Y136824D01*
X-2679Y136844D01*
X-2718Y136834D01*
X-2767Y136815D01*
X-2816Y136824D01*
X-2865Y136844D01*
X-2914Y136834D01*
X-2934Y136815D01*
X-3002Y136824D01*
X-3052Y136844D01*
X-3101Y136834D01*
X-3120Y136815D01*
X-3189Y136824D01*
X-3238Y136844D01*
X-3287Y136834D01*
X-3336Y136815D01*
X-3385Y136824D01*
X-3434Y136844D01*
X-3473Y136834D01*
X-3523Y136815D01*
X-3572Y136824D01*
X-3621Y136844D01*
X-3660Y136834D01*
X-3709Y136815D01*
X-3758Y136824D01*
X-3807Y136844D01*
X-3856Y136834D01*
X-3876Y136815D01*
X-3945Y136824D01*
X-3994Y136844D01*
X-4043Y136834D01*
X-4062Y136815D01*
X-4131Y136824D01*
X-4180Y136844D01*
X-4229Y136834D01*
X-4278Y136815D01*
X-4327Y136824D01*
X-4376Y136844D01*
X-4416Y136834D01*
X-4465Y136815D01*
X-4514Y136824D01*
X-4563Y136844D01*
X-4602Y136834D01*
X-4651Y136815D01*
X-4700Y136824D01*
X-4749Y136844D01*
X-4798Y136834D01*
X-4818Y136815D01*
X-4887Y136824D01*
X-4936Y136844D01*
X-4985Y136834D01*
X-5004Y136815D01*
X-5073Y136824D01*
X-5122Y136844D01*
X-5171Y136834D01*
X-5220Y136815D01*
X-5269Y136824D01*
X-5318Y136844D01*
X-5358Y136834D01*
X-5407Y136815D01*
X-5456Y136824D01*
X-5505Y136844D01*
X-5544Y136834D01*
X-5593Y136815D01*
X-5642Y136824D01*
X-5691Y136844D01*
X-5740Y136834D01*
X-5760Y136815D01*
X-5829Y136824D01*
X-5878Y136844D01*
X-5927Y136834D01*
X-5946Y136815D01*
X-6015Y136824D01*
X-6064Y136844D01*
X-6113Y136834D01*
X-6162Y136815D01*
X-6211Y136824D01*
X-6260Y136844D01*
X-6300Y136834D01*
X-6349Y136815D01*
X-6398Y136824D01*
X-6447Y136844D01*
X-6486Y136834D01*
X-6535Y136815D01*
X-6575Y136824D01*
X-6623Y136854D01*
X-6692Y136864D01*
X-6741Y136883D01*
X-6756Y136898D01*
X-6766Y136918D01*
X-6820Y136972D01*
X-6839Y136981D01*
X-6854Y136996D01*
X-6874Y137045D01*
X-6884Y137084D01*
X-6952Y137192D01*
X-6962Y137261D01*
X-6982Y137526D01*
X-6972Y137840D01*
X-6962Y137870D01*
X-6952Y137909D01*
X-6908Y137963D01*
X-6884Y138017D01*
X-6874Y138056D01*
X-6825Y138144D01*
X-6766Y138193D01*
X-6736Y138223D01*
X-6731Y138238D01*
X-6712Y138247D01*
X-6643Y138277D01*
X-6565Y138296D01*
X-6452Y138282D01*
X-6349Y138277D01*
X-6319Y138287D01*
X-6231Y138296D01*
X-6202Y138287D01*
X-6103Y138277D01*
X-6010Y138292D01*
X-5956Y138296D01*
X-5927Y138287D01*
X-5829Y138277D01*
X-5726Y138292D01*
X-5672Y138296D01*
X-5642Y138287D01*
X-5544Y138277D01*
X-5441Y138292D01*
X-5387Y138296D01*
X-5358Y138287D01*
X-5260Y138277D01*
X-5156Y138292D01*
X-5102Y138296D01*
X-5073Y138287D01*
X-4975Y138277D01*
X-4872Y138292D01*
X-4818Y138296D01*
X-4788Y138287D01*
X-4690Y138277D01*
X-4597Y138292D01*
X-4543Y138296D01*
X-4514Y138287D01*
X-4416Y138277D01*
X-4312Y138292D01*
X-4259Y138296D01*
X-4229Y138287D01*
X-4131Y138277D01*
X-4028Y138292D01*
X-3974Y138296D01*
X-3945Y138287D01*
X-3846Y138277D01*
X-3743Y138292D01*
X-3689Y138296D01*
X-3660Y138287D01*
X-3562Y138277D01*
X-3459Y138292D01*
X-3405Y138296D01*
X-3375Y138287D01*
X-3277Y138277D01*
X-3184Y138292D01*
X-3130Y138296D01*
X-3101Y138287D01*
X-3002Y138277D01*
X-2899Y138292D01*
X-2845Y138296D01*
X-2816Y138287D01*
X-2718Y138277D01*
X-2615Y138292D01*
X-2561Y138296D01*
X-2531Y138287D01*
X-2433Y138277D01*
X-2330Y138292D01*
X-2276Y138296D01*
X-2247Y138287D01*
X-2149Y138277D01*
X-2055Y138292D01*
X-2001Y138296D01*
X-1972Y138287D01*
X-1874Y138277D01*
X-1805Y138316D01*
X-1785Y138346D01*
X-1766Y138355D01*
X-1697Y138394D01*
X-1653Y138439D01*
X-1648Y138453D01*
X-1633Y138458D01*
X-1624Y138478D01*
X-1604Y138498D01*
X-1594Y138537D01*
X-1555Y138605D01*
X-1526Y138635D01*
X-1506Y138704D01*
X-1496Y138861D01*
X-1486Y138890D01*
X-1476Y138929D01*
X-1457Y138998D01*
X-1467Y139106D01*
X-1486Y139155D01*
X-1496Y139341D01*
X-1506Y139371D01*
X-1516Y139450D01*
X-1584Y139518D01*
X-1604Y139567D01*
X-1643Y139636D01*
X-1678Y139670D01*
X-1697Y139680D01*
X-1766Y139729D01*
X-1805Y139768D01*
X-1844Y139778D01*
X-1903Y139788D01*
X-1933Y139778D01*
X-6530Y139783D01*
X-6633Y139778D01*
X-6682Y139808D01*
X-6854Y139979D01*
X-6874Y140028D01*
X-6913Y140097D01*
X-6933Y140117D01*
X-6942Y140136D01*
X-6962Y140185D01*
X-6972Y140362D01*
X-6982Y140392D01*
X-6991Y140431D01*
X-6982Y140499D01*
X-6972Y140745D01*
X-6962Y140774D01*
X-6952Y140872D01*
X-6908Y140926D01*
X-6884Y140980D01*
X-6854Y141059D01*
X-6805Y141108D01*
X-6795Y141128D01*
X-6761Y141182D01*
X-6594Y141260D01*
X-6555Y141250D01*
X-1864Y141260D01*
X-1815Y141280D01*
X-1776Y141289D01*
X-1727Y141319D01*
X-1692Y141353D01*
X-1682Y141373D01*
X-1668Y141388D01*
X-1648Y141397D01*
X-1614Y141432D01*
X-1594Y141481D01*
X-1570Y141545D01*
X-1545Y141579D01*
X-1506Y141667D01*
X-1491Y141780D01*
X-1476Y141962D01*
X-1457Y142011D01*
X-1467Y142129D01*
X-1486Y142177D01*
X-1506Y142315D01*
X-1535Y142433D01*
X-1614Y142580D01*
X-1638Y142604D01*
X-1658Y142614D01*
X-1692Y142649D01*
X-1702Y142668D01*
X-1727Y142693D01*
X-1854Y142752D01*
X-1923Y142742D01*
X-2011Y142781D01*
D02*
G37*
G36*
X9245Y139052D02*
X9166Y139042D01*
X9137Y139032D01*
X8965Y139037D01*
X8862Y139032D01*
X8833Y139042D01*
X8675Y139032D01*
X8646Y139042D01*
X8479Y139032D01*
X8450Y139042D01*
X8293Y139032D01*
X8263Y139042D01*
X8106Y139032D01*
X8077Y139042D01*
X7920Y139032D01*
X7890Y139042D01*
X7733Y139032D01*
X7704Y139042D01*
X7537Y139032D01*
X7508Y139042D01*
X7351Y139032D01*
X7272Y139052D01*
X7179Y139037D01*
X7041Y139028D01*
X7002Y139018D01*
X6938Y138954D01*
X6919Y138944D01*
X6850Y138895D01*
X6821Y138866D01*
X6801Y138856D01*
X6732Y138816D01*
X6708Y138792D01*
X6698Y138772D01*
X6561Y138704D01*
X6526Y138669D01*
X6458Y138630D01*
X6389Y138561D01*
X6320Y138522D01*
X6281Y138483D01*
X6212Y138444D01*
X6173Y138404D01*
X6153Y138394D01*
X6085Y138365D01*
X6036Y138336D01*
X5987Y138287D01*
X5918Y138247D01*
X5869Y138198D01*
X5781Y138149D01*
X5756Y138115D01*
X5741Y138100D01*
X5648Y138066D01*
X5633Y138051D01*
X5614Y138041D01*
X5574Y138002D01*
X5506Y137963D01*
X5457Y137914D01*
X5368Y137865D01*
X5354Y137850D01*
X5344Y137830D01*
X5329Y137815D01*
X5275Y137801D01*
X5226Y137781D01*
X5197Y137752D01*
X5187Y137732D01*
X5113Y137688D01*
X5094Y137678D01*
X5045Y137629D01*
X4976Y137590D01*
X4927Y137541D01*
X4834Y137506D01*
X4780Y137452D01*
X4760Y137443D01*
X4691Y137394D01*
X4662Y137364D01*
X4642Y137354D01*
X4623Y137335D01*
X4495Y137276D01*
X4367Y137345D01*
X4333Y137379D01*
X4323Y137399D01*
X4299Y137423D01*
X4259Y137433D01*
X4191Y137472D01*
X4152Y137511D01*
X4132Y137521D01*
X4063Y137570D01*
X4034Y137600D01*
X3985Y137619D01*
X3916Y137659D01*
X3877Y137698D01*
X3808Y137737D01*
X3749Y137796D01*
X3681Y137835D01*
X3631Y137884D01*
X3543Y137933D01*
X3504Y137972D01*
X3411Y138007D01*
X3337Y138081D01*
X3268Y138120D01*
X3229Y138159D01*
X3209Y138169D01*
X3126Y138223D01*
X3116Y138242D01*
X3072Y138267D01*
X3023Y138287D01*
X2974Y138316D01*
X2935Y138355D01*
X2915Y138365D01*
X2846Y138414D01*
X2817Y138444D01*
X2768Y138463D01*
X2679Y138512D01*
X2640Y138551D01*
X2572Y138591D01*
X2523Y138640D01*
X2454Y138679D01*
X2395Y138738D01*
X2326Y138777D01*
X2287Y138816D01*
X2194Y138851D01*
X2179Y138866D01*
X2164Y138871D01*
X2155Y138890D01*
X2120Y138924D01*
X2032Y138973D01*
X1993Y139013D01*
X1924Y139032D01*
X1855Y139042D01*
X1728Y139032D01*
X1630Y139042D01*
X1590Y139032D01*
X1428Y139037D01*
X1325Y139032D01*
X1296Y139042D01*
X1139Y139032D01*
X1109Y139042D01*
X943Y139032D01*
X913Y139042D01*
X756Y139032D01*
X727Y139042D01*
X570Y139032D01*
X540Y139042D01*
X383Y139032D01*
X354Y139042D01*
X197Y139032D01*
X167Y139042D01*
X0Y139032D01*
X-29Y139042D01*
X-186Y139032D01*
X-264Y139052D01*
X-358Y139037D01*
X-397Y139028D01*
X-446Y139008D01*
X-456Y138988D01*
X-466Y138959D01*
X-476Y138919D01*
X-466Y138890D01*
X-456Y138871D01*
X-431Y138846D01*
X-422D01*
X-417Y138841D01*
X-363Y138807D01*
X-314Y138758D01*
X-245Y138718D01*
X-206Y138679D01*
X-108Y138640D01*
X-83Y138625D01*
X-73Y138605D01*
X-39Y138571D01*
X50Y138522D01*
X89Y138483D01*
X128Y138473D01*
X177Y138444D01*
X202Y138419D01*
X212Y138399D01*
X236Y138375D01*
X314Y138346D01*
X354Y138306D01*
X422Y138277D01*
X471Y138247D01*
X501Y138198D01*
X521Y138188D01*
X570Y138169D01*
X619Y138139D01*
X658Y138100D01*
X727Y138061D01*
X776Y138012D01*
X825Y137992D01*
X908Y137948D01*
X913Y137933D01*
X933Y137924D01*
X952Y137904D01*
X1021Y137865D01*
X1070Y137815D01*
X1163Y137781D01*
X1217Y137727D01*
X1237Y137717D01*
X1306Y137668D01*
X1335Y137639D01*
X1423Y137590D01*
X1448Y137556D01*
X1463Y137541D01*
X1512Y137521D01*
X1551Y137511D01*
X1605Y137467D01*
X1630Y137443D01*
X1698Y137403D01*
X1757Y137345D01*
X1796Y137335D01*
X1845Y137315D01*
X1880Y137291D01*
X1885Y137276D01*
X1904Y137266D01*
X1924Y137246D01*
X1993Y137207D01*
X2007Y137192D01*
X2017Y137173D01*
X2071Y137148D01*
X2110Y137138D01*
X2164Y137094D01*
X2174Y137075D01*
X2258Y137030D01*
X2316Y136972D01*
X2336Y136962D01*
X2429Y136898D01*
X2444Y136883D01*
X2508Y136859D01*
X2542Y136844D01*
X2611Y136775D01*
X2679Y136736D01*
X2719Y136697D01*
X2812Y136662D01*
X2827Y136648D01*
X2841Y136643D01*
X2851Y136623D01*
X2876Y136599D01*
X2895Y136589D01*
X2989Y136525D01*
X3013Y136501D01*
X3052Y136491D01*
X3121Y136451D01*
X3146Y136427D01*
X3165Y136378D01*
X3156Y136329D01*
X3141Y136314D01*
X3101Y136304D01*
X3038Y136280D01*
X2974Y136216D01*
X2905Y136177D01*
X2866Y136137D01*
X2846Y136128D01*
X2797Y136108D01*
X2729Y136069D01*
X2709Y136039D01*
X2689Y136030D01*
X2596Y135966D01*
X2572Y135941D01*
X2523Y135922D01*
X2454Y135882D01*
X2414Y135843D01*
X2346Y135804D01*
X2307Y135765D01*
X2287Y135755D01*
X2218Y135725D01*
X2169Y135696D01*
X2120Y135647D01*
X2052Y135608D01*
X2002Y135558D01*
X1963Y135549D01*
X1894Y135509D01*
X1855Y135470D01*
X1787Y135431D01*
X1747Y135392D01*
X1728Y135382D01*
X1659Y135352D01*
X1610Y135323D01*
X1561Y135274D01*
X1492Y135235D01*
X1453Y135195D01*
X1433Y135186D01*
X1384Y135166D01*
X1316Y135127D01*
X1296Y135097D01*
X1276Y135087D01*
X1183Y135024D01*
X1158Y134999D01*
X1095Y134975D01*
X1060Y134950D01*
X1046Y134935D01*
X1036Y134916D01*
X1011Y134891D01*
X962Y134871D01*
X913Y134842D01*
X884Y134813D01*
X864Y134803D01*
X795Y134764D01*
X727Y134714D01*
X638Y134665D01*
X589Y134616D01*
X570Y134607D01*
X481Y134557D01*
X462Y134538D01*
X373Y134489D01*
X344Y134459D01*
X324Y134450D01*
X295Y134420D01*
X207Y134371D01*
X148Y134332D01*
X79Y134292D01*
X30Y134244D01*
X-58Y134194D01*
X-73Y134180D01*
X-83Y134160D01*
X-98Y134145D01*
X-196Y134106D01*
X-250Y134062D01*
X-264Y134047D01*
X-333Y134008D01*
X-392Y133949D01*
X-446Y133934D01*
X-500Y133900D01*
X-530Y133871D01*
X-549Y133861D01*
X-618Y133821D01*
X-677Y133763D01*
X-726Y133733D01*
X-750Y133709D01*
X-765Y133645D01*
X-770Y133620D01*
X-735Y133566D01*
X-686Y133547D01*
X1698Y133556D01*
X1772Y133601D01*
X1782Y133620D01*
X1806Y133645D01*
X1904Y133684D01*
X1943Y133723D01*
X1963Y133733D01*
X2032Y133772D01*
X2101Y133841D01*
X2140Y133851D01*
X2159Y133871D01*
X2179Y133880D01*
X2218Y133929D01*
X2258Y133939D01*
X2321Y133964D01*
X2341Y133983D01*
X2351Y134003D01*
X2375Y134028D01*
X2464Y134077D01*
X2473Y134096D01*
X2493Y134106D01*
X2513Y134126D01*
X2581Y134165D01*
X2621Y134204D01*
X2719Y134244D01*
X2778Y134302D01*
X2846Y134342D01*
X2895Y134391D01*
X2984Y134440D01*
X3043Y134499D01*
X3121Y134528D01*
X3175Y134572D01*
X3190Y134587D01*
X3258Y134626D01*
X3317Y134685D01*
X3381Y134710D01*
X3430Y134759D01*
X3435Y134773D01*
X3504Y134793D01*
X3553Y134822D01*
X3612Y134881D01*
X3681Y134921D01*
X3720Y134960D01*
X3739Y134970D01*
X3808Y135019D01*
X3838Y135048D01*
X3936Y135087D01*
X3970Y135112D01*
X3980Y135132D01*
X4088Y135200D01*
X4132Y135244D01*
X4152Y135254D01*
X4220Y135303D01*
X4259Y135343D01*
X4358Y135382D01*
X4407Y135431D01*
X4426Y135441D01*
X4495Y135470D01*
X4564Y135460D01*
X4613Y135431D01*
X4681Y135362D01*
X4750Y135323D01*
X4780Y135293D01*
X4848Y135264D01*
X4897Y135235D01*
X4922Y135200D01*
X4956Y135166D01*
X5010Y135151D01*
X5025Y135136D01*
X5045Y135127D01*
X5084Y135087D01*
X5103Y135078D01*
X5172Y135029D01*
X5201Y134999D01*
X5270Y134960D01*
X5329Y134901D01*
X5422Y134867D01*
X5486Y134803D01*
X5574Y134754D01*
X5624Y134705D01*
X5692Y134665D01*
X5731Y134626D01*
X5830Y134587D01*
X5864Y134562D01*
X5874Y134543D01*
X5898Y134518D01*
X5987Y134469D01*
X6036Y134420D01*
X6104Y134381D01*
X6153Y134332D01*
X6222Y134292D01*
X6281Y134234D01*
X6345Y134219D01*
X6404Y134180D01*
X6409Y134165D01*
X6428Y134155D01*
X6521Y134091D01*
X6531Y134072D01*
X6546Y134057D01*
X6566Y134047D01*
X6634Y134008D01*
X6673Y133969D01*
X6723Y133949D01*
X6791Y133910D01*
X6840Y133861D01*
X6909Y133821D01*
X6963Y133777D01*
X6978Y133763D01*
X6997Y133753D01*
X7066Y133704D01*
X7096Y133674D01*
X7145Y133655D01*
X7213Y133615D01*
X7262Y133566D01*
X7311Y133547D01*
X9676Y133556D01*
X9701Y133581D01*
X9716Y133665D01*
X9706Y133714D01*
X9667Y133753D01*
X9618Y133782D01*
X9568Y133831D01*
X9549Y133841D01*
X9480Y133880D01*
X9441Y133920D01*
X9343Y133959D01*
X9274Y134028D01*
X9205Y134067D01*
X9176Y134096D01*
X9156Y134106D01*
X9107Y134126D01*
X9038Y134165D01*
X9009Y134204D01*
X8990Y134214D01*
X8921Y134253D01*
X8882Y134292D01*
X8833Y134312D01*
X8764Y134351D01*
X8715Y134400D01*
X8646Y134440D01*
X8626Y134459D01*
X8607Y134469D01*
X8587Y134489D01*
X8494Y134523D01*
X8455Y134562D01*
X8450Y134577D01*
X8430Y134587D01*
X8361Y134626D01*
X8322Y134665D01*
X8303Y134675D01*
X8253Y134695D01*
X8204Y134724D01*
X8155Y134773D01*
X8136Y134783D01*
X8067Y134822D01*
X8018Y134871D01*
X7998Y134881D01*
X7930Y134930D01*
X7900Y134960D01*
X7851Y134979D01*
X7783Y135019D01*
X7753Y135048D01*
X7733Y135058D01*
X7650Y135112D01*
X7640Y135132D01*
X7576Y135166D01*
X7527Y135186D01*
X7473Y135230D01*
X7449Y135254D01*
X7380Y135293D01*
X7331Y135343D01*
X7238Y135377D01*
X7223Y135392D01*
X7203Y135401D01*
X7194Y135421D01*
X7174Y135431D01*
X7115Y135470D01*
X7096Y135480D01*
X7046Y135529D01*
X6983Y135554D01*
X6948Y135568D01*
X6899Y135617D01*
X6880Y135627D01*
X6811Y135676D01*
X6772Y135715D01*
X6708Y135740D01*
X6673Y135755D01*
X6620Y135799D01*
X6605Y135814D01*
X6585Y135823D01*
X6516Y135872D01*
X6487Y135902D01*
X6418Y135941D01*
X6359Y136000D01*
X6266Y136034D01*
X6237Y136054D01*
X6227Y136074D01*
X6153Y136118D01*
X6134Y136128D01*
X6109Y136152D01*
X6100Y136172D01*
X6085Y136187D01*
X6016Y136206D01*
X5967Y136236D01*
X5952Y136250D01*
X5943Y136270D01*
X5898Y136294D01*
X5835Y136329D01*
X5815Y136388D01*
X5844Y136437D01*
X5859Y136451D01*
X5947Y136501D01*
X5996Y136550D01*
X6016Y136559D01*
X6065Y136579D01*
X6134Y136618D01*
X6183Y136667D01*
X6252Y136707D01*
X6291Y136746D01*
X6389Y136785D01*
X6448Y136844D01*
X6516Y136883D01*
X6536Y136903D01*
X6556Y136913D01*
X6585Y136942D01*
X6678Y136977D01*
X6742Y137040D01*
X6811Y137080D01*
X6860Y137129D01*
X6968Y137188D01*
X6988Y137207D01*
X7096Y137266D01*
X7145Y137315D01*
X7164Y137325D01*
X7233Y137374D01*
X7272Y137413D01*
X7321Y137433D01*
X7390Y137472D01*
X7410Y137492D01*
X7429Y137502D01*
X7522Y137565D01*
X7566Y137609D01*
X7660Y137644D01*
X7714Y137698D01*
X7783Y137737D01*
X7831Y137786D01*
X7881Y137806D01*
X7949Y137845D01*
X8018Y137894D01*
X8038Y137904D01*
X8092Y137948D01*
X8126Y137982D01*
X8209Y138026D01*
X8219Y138046D01*
X8244Y138071D01*
X8337Y138105D01*
X8366Y138125D01*
X8376Y138144D01*
X8391Y138159D01*
X8410Y138169D01*
X8479Y138208D01*
X8538Y138267D01*
X8602Y138282D01*
X8636Y138306D01*
X8695Y138365D01*
X8764Y138404D01*
X8803Y138444D01*
X8852Y138463D01*
X8891Y138473D01*
X8945Y138517D01*
X8955Y138537D01*
X9029Y138581D01*
X9048Y138591D01*
X9097Y138640D01*
X9137Y138650D01*
X9186Y138669D01*
X9210Y138684D01*
X9220Y138704D01*
X9254Y138738D01*
X9323Y138777D01*
X9372Y138826D01*
X9392Y138836D01*
X9436Y138871D01*
X9456Y138949D01*
X9421Y139013D01*
X9353Y139032D01*
X9284Y139042D01*
X9245Y139052D01*
D02*
G37*
G36*
X-10441D02*
X-10539Y139042D01*
X-10593Y139028D01*
X-10627Y139003D01*
X-10667Y138944D01*
X-10721Y138900D01*
X-10784Y138816D01*
X-10799Y138812D01*
X-10809Y138792D01*
X-10848Y138723D01*
X-10907Y138664D01*
X-10946Y138596D01*
X-10981Y138561D01*
X-11000Y138551D01*
X-11025Y138527D01*
X-11035Y138507D01*
X-11084Y138458D01*
X-11094Y138439D01*
X-11133Y138370D01*
X-11147Y138355D01*
X-11167Y138346D01*
X-11192Y138321D01*
X-11241Y138233D01*
X-11378Y138095D01*
X-11388Y138076D01*
X-11437Y138007D01*
X-11466Y137977D01*
X-11476Y137958D01*
X-11520Y137904D01*
X-11574Y137860D01*
X-11584Y137840D01*
X-11628Y137786D01*
X-11663Y137752D01*
X-11672Y137732D01*
X-11722Y137663D01*
X-11751Y137634D01*
X-11790Y137565D01*
X-11849Y137506D01*
X-11888Y137438D01*
X-11923Y137413D01*
X-11957Y137379D01*
X-11967Y137359D01*
X-12001Y137315D01*
X-12021Y137305D01*
X-12036Y137291D01*
X-12085Y137202D01*
X-12232Y137055D01*
X-12271Y136986D01*
X-12310Y136947D01*
X-12320Y136927D01*
X-12364Y136873D01*
X-12384Y136854D01*
X-12404Y136844D01*
X-12418Y136829D01*
X-12428Y136810D01*
X-12472Y136756D01*
X-12516Y136712D01*
X-12565Y136623D01*
X-12585Y136613D01*
X-12595Y136594D01*
X-12664Y136505D01*
X-12693Y136476D01*
X-12703Y136456D01*
X-12747Y136393D01*
X-12767Y136383D01*
X-12801Y136348D01*
X-12811Y136329D01*
X-12855Y136275D01*
X-12899Y136231D01*
X-12938Y136162D01*
X-13066Y136034D01*
X-13076Y136015D01*
X-13125Y135946D01*
X-13154Y135917D01*
X-13164Y135897D01*
X-13218Y135814D01*
X-13238Y135804D01*
X-13262Y135779D01*
X-13272Y135760D01*
X-13316Y135715D01*
X-13336Y135706D01*
X-13360Y135681D01*
X-13409Y135593D01*
X-13458Y135544D01*
X-13498Y135475D01*
X-13532Y135450D01*
X-13586Y135367D01*
X-13601Y135352D01*
X-13620Y135343D01*
X-13645Y135318D01*
X-13655Y135298D01*
X-13699Y135244D01*
X-13743Y135200D01*
X-13782Y135132D01*
X-13822Y135092D01*
X-13831Y135073D01*
X-13881Y135004D01*
X-13915Y134970D01*
X-13935Y134960D01*
X-13964Y134930D01*
X-14013Y134940D01*
X-14038Y134965D01*
X-14047Y134984D01*
X-14087Y135024D01*
X-14096Y135043D01*
X-14116Y135063D01*
X-14155Y135132D01*
X-14214Y135190D01*
X-14224Y135210D01*
X-14258Y135254D01*
X-14278Y135264D01*
X-14312Y135298D01*
X-14342Y135347D01*
X-14391Y135397D01*
X-14401Y135416D01*
X-14450Y135485D01*
X-14479Y135514D01*
X-14489Y135534D01*
X-14528Y135603D01*
X-14543Y135617D01*
X-14562Y135627D01*
X-14577Y135642D01*
X-14587Y135661D01*
X-14631Y135715D01*
X-14651Y135735D01*
X-14670Y135745D01*
X-14724Y135828D01*
X-14773Y135877D01*
X-14783Y135897D01*
X-14852Y135985D01*
X-14891Y136044D01*
X-14901Y136064D01*
X-14960Y136123D01*
X-14970Y136142D01*
X-15014Y136196D01*
X-15033Y136206D01*
X-15058Y136231D01*
X-15097Y136299D01*
X-15112Y136314D01*
X-15132Y136324D01*
X-15146Y136339D01*
X-15186Y136407D01*
X-15225Y136447D01*
X-15235Y136466D01*
X-15299Y136559D01*
X-15323Y136574D01*
X-15333Y136594D01*
X-15377Y136658D01*
X-15397Y136667D01*
X-15441Y136712D01*
X-15470Y136761D01*
X-15529Y136820D01*
X-15568Y136888D01*
X-15617Y136937D01*
X-15662Y137021D01*
X-15681Y137030D01*
X-15804Y137153D01*
X-15853Y137241D01*
X-15912Y137300D01*
X-15941Y137349D01*
X-15980Y137389D01*
X-15990Y137408D01*
X-16030Y137477D01*
X-16064Y137511D01*
X-16084Y137521D01*
X-16108Y137546D01*
X-16118Y137565D01*
X-16196Y137644D01*
X-16236Y137713D01*
X-16275Y137752D01*
X-16285Y137771D01*
X-16334Y137840D01*
X-16363Y137870D01*
X-16373Y137889D01*
X-16412Y137958D01*
X-16427Y137972D01*
X-16447Y137982D01*
X-16501Y138036D01*
X-16511Y138056D01*
X-16525Y138071D01*
X-16545Y138081D01*
X-16589Y138154D01*
X-16599Y138174D01*
X-16668Y138242D01*
X-16707Y138311D01*
X-16844Y138449D01*
X-16883Y138517D01*
X-16942Y138576D01*
X-16952Y138596D01*
X-17001Y138664D01*
X-17031Y138694D01*
X-17070Y138762D01*
X-17207Y138900D01*
X-17217Y138919D01*
X-17256Y138988D01*
X-17281Y139013D01*
X-17349Y139042D01*
X-17516Y139032D01*
X-17546Y139042D01*
X-17703Y139032D01*
X-17732Y139042D01*
X-17899Y139032D01*
X-17929Y139042D01*
X-18086Y139032D01*
X-18115Y139042D01*
X-18272Y139032D01*
X-18301Y139042D01*
X-18458Y139032D01*
X-18488Y139042D01*
X-18645Y139032D01*
X-18674Y139042D01*
X-18841Y139032D01*
X-18871Y139042D01*
X-19028Y139032D01*
X-19106Y139052D01*
X-19209Y139037D01*
X-19268Y139028D01*
X-19332Y139003D01*
X-19346Y138988D01*
X-19366Y138939D01*
X-19356Y138900D01*
X-19307Y138831D01*
X-19278Y138782D01*
X-19219Y138723D01*
X-19180Y138655D01*
X-19131Y138605D01*
X-19121Y138586D01*
X-19077Y138542D01*
X-19057Y138532D01*
X-19042Y138517D01*
X-19033Y138498D01*
X-18983Y138429D01*
X-18954Y138399D01*
X-18944Y138380D01*
X-18905Y138311D01*
X-18890Y138296D01*
X-18871Y138287D01*
X-18856Y138272D01*
X-18846Y138252D01*
X-18802Y138198D01*
X-18782Y138179D01*
X-18763Y138169D01*
X-18709Y138085D01*
X-18650Y138026D01*
X-18610Y137958D01*
X-18473Y137820D01*
X-18434Y137752D01*
X-18375Y137693D01*
X-18365Y137673D01*
X-18321Y137619D01*
X-18301Y137609D01*
X-18277Y137585D01*
X-18238Y137516D01*
X-18223Y137502D01*
X-18203Y137492D01*
X-18149Y137408D01*
X-18012Y137271D01*
X-17963Y137183D01*
X-17938Y137158D01*
X-17919Y137148D01*
X-17850Y137040D01*
X-17806Y136996D01*
X-17796Y136977D01*
X-17772Y136952D01*
X-17752Y136942D01*
X-17718Y136908D01*
X-17678Y136839D01*
X-17629Y136790D01*
X-17590Y136721D01*
X-17531Y136662D01*
X-17521Y136643D01*
X-17477Y136589D01*
X-17433Y136555D01*
X-17394Y136486D01*
X-17271Y136363D01*
X-17256Y136358D01*
X-17246Y136339D01*
X-17197Y136270D01*
X-17178Y136250D01*
X-17168Y136231D01*
X-17148Y136211D01*
X-17109Y136142D01*
X-17050Y136083D01*
X-17021Y136034D01*
X-16986Y136010D01*
X-16952Y135976D01*
X-16918Y135912D01*
X-16898Y135902D01*
X-16873Y135877D01*
X-16864Y135858D01*
X-16815Y135789D01*
X-16785Y135760D01*
X-16775Y135740D01*
X-16736Y135671D01*
X-16721Y135657D01*
X-16702Y135647D01*
X-16648Y135593D01*
X-16638Y135573D01*
X-16623Y135558D01*
X-16604Y135549D01*
X-16589Y135534D01*
X-16579Y135514D01*
X-16530Y135446D01*
X-16486Y135392D01*
X-16461Y135357D01*
X-16427Y135333D01*
X-16393Y135298D01*
X-16353Y135230D01*
X-16304Y135181D01*
X-16265Y135112D01*
X-16206Y135053D01*
X-16196Y135033D01*
X-16152Y134979D01*
X-16133Y134970D01*
X-16108Y134945D01*
X-16069Y134876D01*
X-16054Y134862D01*
X-16035Y134852D01*
X-15980Y134768D01*
X-15843Y134631D01*
X-15794Y134543D01*
X-15725Y134474D01*
X-15716Y134455D01*
X-15701Y134430D01*
X-15681Y134420D01*
X-15637Y134376D01*
X-15608Y134327D01*
X-15549Y134268D01*
X-15539Y134248D01*
X-15490Y134180D01*
X-15372Y134062D01*
X-15362Y134042D01*
X-15313Y133974D01*
X-15264Y133924D01*
X-15225Y133856D01*
X-15186Y133817D01*
X-15176Y133797D01*
X-15102Y133723D01*
X-15088Y133719D01*
X-15078Y133699D01*
X-15029Y133630D01*
X-14965Y133566D01*
X-14916Y133547D01*
X-13002Y133556D01*
X-12934Y133596D01*
X-12919Y133610D01*
X-12870Y133699D01*
X-12821Y133748D01*
X-12811Y133767D01*
X-12767Y133831D01*
X-12747Y133841D01*
X-12732Y133856D01*
X-12722Y133876D01*
X-12673Y133944D01*
X-12639Y133969D01*
X-12624Y133983D01*
X-12615Y134003D01*
X-12570Y134057D01*
X-12516Y134111D01*
X-12512Y134126D01*
X-12492Y134135D01*
X-12438Y134189D01*
X-12399Y134258D01*
X-12359Y134297D01*
X-12350Y134317D01*
X-12301Y134386D01*
X-12276Y134410D01*
X-12256Y134420D01*
X-12242Y134435D01*
X-12232Y134455D01*
X-12212Y134474D01*
X-12202Y134494D01*
X-12163Y134533D01*
X-12124Y134602D01*
X-12109Y134616D01*
X-12089Y134626D01*
X-12075Y134641D01*
X-12065Y134660D01*
X-12011Y134714D01*
X-11991Y134724D01*
X-11977Y134739D01*
X-11928Y134827D01*
X-11879Y134876D01*
X-11869Y134896D01*
X-11820Y134965D01*
X-11761Y135014D01*
X-11751Y135033D01*
X-11692Y135092D01*
X-11653Y135161D01*
X-11584Y135230D01*
X-11574Y135249D01*
X-11560Y135264D01*
X-11540Y135274D01*
X-11496Y135318D01*
X-11447Y135406D01*
X-11398Y135455D01*
X-11363Y135519D01*
X-11344Y135529D01*
X-11324Y135549D01*
X-11309Y135554D01*
X-11300Y135573D01*
X-11280Y135593D01*
X-11270Y135612D01*
X-11221Y135661D01*
X-11182Y135730D01*
X-11025Y135887D01*
X-10986Y135956D01*
X-10937Y136005D01*
X-10897Y136074D01*
X-10878Y136093D01*
X-10873Y136098D01*
X-10853Y136108D01*
X-10819Y136142D01*
X-10809Y136162D01*
X-10760Y136211D01*
X-10750Y136231D01*
X-10701Y136299D01*
X-10652Y136348D01*
X-10642Y136368D01*
X-10608Y136402D01*
X-10588Y136412D01*
X-10564Y136437D01*
X-10554Y136456D01*
X-10490Y136550D01*
X-10465Y136574D01*
X-10456Y136594D01*
X-10412Y136658D01*
X-10392Y136667D01*
X-10338Y136721D01*
X-10328Y136741D01*
X-10279Y136790D01*
X-10240Y136859D01*
X-10083Y137016D01*
X-10044Y137084D01*
X-10004Y137124D01*
X-9994Y137143D01*
X-9945Y137212D01*
X-9921Y137236D01*
X-9901Y137246D01*
X-9887Y137261D01*
X-9877Y137281D01*
X-9857Y137300D01*
X-9852Y137315D01*
X-9832Y137325D01*
X-9764Y137433D01*
X-9720Y137467D01*
X-9710Y137487D01*
X-9656Y137541D01*
X-9636Y137551D01*
X-9622Y137565D01*
X-9572Y137654D01*
X-9523Y137703D01*
X-9514Y137722D01*
X-9469Y137786D01*
X-9450Y137796D01*
X-9406Y137840D01*
X-9396Y137860D01*
X-9337Y137919D01*
X-9298Y137987D01*
X-9229Y138056D01*
X-9219Y138076D01*
X-9204Y138090D01*
X-9185Y138100D01*
X-9141Y138144D01*
X-9092Y138233D01*
X-9072Y138242D01*
X-9062Y138262D01*
X-9042Y138282D01*
X-9008Y138346D01*
X-8988Y138355D01*
X-8866Y138478D01*
X-8817Y138566D01*
X-8670Y138713D01*
X-8630Y138782D01*
X-8581Y138831D01*
X-8572Y138851D01*
X-8542Y138919D01*
X-8552Y138988D01*
X-8576Y139013D01*
X-8625Y139032D01*
X-8694Y139042D01*
X-8851Y139032D01*
X-8881Y139042D01*
X-9038Y139032D01*
X-9067Y139042D01*
X-9224Y139032D01*
X-9253Y139042D01*
X-9420Y139032D01*
X-9450Y139042D01*
X-9607Y139032D01*
X-9636Y139042D01*
X-9793Y139032D01*
X-9823Y139042D01*
X-9980Y139032D01*
X-10009Y139042D01*
X-10166Y139032D01*
X-10196Y139042D01*
X-10372Y139032D01*
X-10402Y139042D01*
X-10441Y139052D01*
D02*
G37*
G36*
X7262Y129994D02*
X7233Y129984D01*
X1968Y129989D01*
X1929Y129980D01*
X1899Y129960D01*
X1860Y129891D01*
X1826Y129867D01*
X1811Y129852D01*
X1801Y129813D01*
X1811Y129685D01*
X1801Y125495D01*
X1767Y125461D01*
X1747Y125451D01*
X1703Y125407D01*
X1693Y125387D01*
X1678Y125372D01*
X1659Y125362D01*
X1605Y125308D01*
X1595Y125289D01*
X1580Y125274D01*
X1561Y125264D01*
X1517Y125220D01*
X1507Y125200D01*
X1482Y125176D01*
X1463Y125166D01*
X1419Y125122D01*
X1409Y125102D01*
X1394Y125088D01*
X1374Y125078D01*
X1330Y125034D01*
X1320Y125014D01*
X1296Y124989D01*
X1276Y124980D01*
X1232Y124935D01*
X1222Y124916D01*
X1208Y124901D01*
X1188Y124891D01*
X1134Y124837D01*
X1124Y124818D01*
X1109Y124803D01*
X1090Y124793D01*
X1046Y124749D01*
X1036Y124729D01*
X1011Y124705D01*
X992Y124695D01*
X948Y124651D01*
X938Y124631D01*
X923Y124617D01*
X903Y124607D01*
X859Y124563D01*
X849Y124543D01*
X825Y124519D01*
X805Y124509D01*
X761Y124464D01*
X751Y124445D01*
X736Y124430D01*
X717Y124420D01*
X663Y124366D01*
X653Y124347D01*
X638Y124332D01*
X619Y124322D01*
X575Y124278D01*
X565Y124258D01*
X540Y124234D01*
X521Y124224D01*
X476Y124180D01*
X467Y124160D01*
X452Y124146D01*
X432Y124136D01*
X388Y124092D01*
X378Y124072D01*
X354Y124047D01*
X334Y124038D01*
X290Y123994D01*
X280Y123974D01*
X265Y123959D01*
X246Y123949D01*
X192Y123895D01*
X182Y123876D01*
X167Y123861D01*
X148Y123851D01*
X103Y123807D01*
X94Y123787D01*
X69Y123763D01*
X50Y123753D01*
X5Y123709D01*
X-4Y123689D01*
X-19Y123674D01*
X-39Y123665D01*
X-83Y123621D01*
X-93Y123513D01*
X-117Y123488D01*
X-255Y123468D01*
X-8606Y123478D01*
X-8660Y123522D01*
X-8670Y123542D01*
X-8714Y123586D01*
X-8733Y123596D01*
X-8748Y123611D01*
X-8758Y123630D01*
X-8802Y123674D01*
X-8822Y123684D01*
X-8841Y123704D01*
X-8846Y123709D01*
X-8856Y123729D01*
X-8900Y123773D01*
X-8920Y123783D01*
X-8935Y123797D01*
X-8944Y123817D01*
X-8998Y123871D01*
X-9018Y123881D01*
X-9033Y123895D01*
X-9042Y123915D01*
X-9087Y123959D01*
X-9106Y123969D01*
X-9131Y123994D01*
X-9141Y124013D01*
X-9185Y124057D01*
X-9204Y124067D01*
X-9219Y124082D01*
X-9229Y124101D01*
X-9273Y124146D01*
X-9293Y124155D01*
X-9317Y124180D01*
X-9327Y124199D01*
X-9371Y124244D01*
X-9391Y124253D01*
X-9406Y124268D01*
X-9415Y124288D01*
X-9469Y124342D01*
X-9489Y124352D01*
X-9504Y124366D01*
X-9514Y124386D01*
X-9558Y124430D01*
X-9577Y124440D01*
X-9602Y124464D01*
X-9612Y124484D01*
X-9656Y124528D01*
X-9675Y124538D01*
X-9690Y124553D01*
X-9700Y124572D01*
X-9744Y124617D01*
X-9764Y124626D01*
X-9788Y124651D01*
X-9798Y124671D01*
X-9842Y124715D01*
X-9862Y124724D01*
X-9877Y124739D01*
X-9887Y124759D01*
X-9940Y124813D01*
X-9960Y124823D01*
X-9975Y124837D01*
X-9985Y124857D01*
X-10029Y124901D01*
X-10048Y124911D01*
X-10073Y124935D01*
X-10083Y124955D01*
X-10127Y124999D01*
X-10147Y125009D01*
X-10161Y125024D01*
X-10171Y125043D01*
X-10215Y125088D01*
X-10235Y125098D01*
X-10259Y125122D01*
X-10269Y125142D01*
X-10313Y125186D01*
X-10333Y125196D01*
X-10348Y125210D01*
X-10357Y125230D01*
X-10412Y125284D01*
X-10431Y125294D01*
X-10446Y125308D01*
X-10456Y125328D01*
X-10500Y125372D01*
X-10519Y125382D01*
X-10544Y125407D01*
X-10554Y125446D01*
X-10564Y125524D01*
X-10578Y125539D01*
X-10598Y125549D01*
X-10632Y125583D01*
X-10652Y125662D01*
X-10627Y125725D01*
X-10608Y125735D01*
X-10564Y125770D01*
X-10573Y125829D01*
X-10627Y125863D01*
X-10642Y125907D01*
X-10632Y126093D01*
X-10608Y126118D01*
X-10564Y126143D01*
X-10573Y126192D01*
X-10588Y126206D01*
X-10608Y126216D01*
X-10632Y126231D01*
X-10642Y126270D01*
X-10632Y126290D01*
X-10608Y126314D01*
X-10564Y126339D01*
X-10573Y126388D01*
X-10627Y126422D01*
X-10642Y126437D01*
X-10632Y126476D01*
X-10608Y126501D01*
X-10588Y126511D01*
X-10564Y126525D01*
X-10573Y126574D01*
X-10627Y126609D01*
X-10642Y126623D01*
X-10632Y126672D01*
X-10617Y126687D01*
X-10569Y126717D01*
X-10554Y126741D01*
X-10578Y126776D01*
X-10598Y126785D01*
X-10632Y126810D01*
X-10642Y126849D01*
X-10632Y127036D01*
X-10608Y127060D01*
X-10564Y127085D01*
X-10573Y127134D01*
X-10588Y127148D01*
X-10608Y127158D01*
X-10632Y127173D01*
X-10642Y127212D01*
X-10632Y127232D01*
X-10608Y127256D01*
X-10564Y127281D01*
X-10573Y127330D01*
X-10627Y127364D01*
X-10642Y127379D01*
X-10632Y127418D01*
X-10608Y127443D01*
X-10588Y127453D01*
X-10564Y127467D01*
X-10573Y127516D01*
X-10627Y127551D01*
X-10642Y127566D01*
X-10632Y127615D01*
X-10617Y127629D01*
X-10569Y127659D01*
X-10564Y127703D01*
X-10578Y127718D01*
X-10598Y127727D01*
X-10632Y127752D01*
X-10642Y127791D01*
X-10632Y127978D01*
X-10608Y128002D01*
X-10564Y128027D01*
X-10559Y128051D01*
X-10588Y128091D01*
X-10608Y128100D01*
X-10632Y128115D01*
X-10642Y128154D01*
X-10632Y128174D01*
X-10608Y128199D01*
X-10564Y128223D01*
X-10573Y128272D01*
X-10627Y128306D01*
X-10642Y128321D01*
X-10632Y128360D01*
X-10608Y128385D01*
X-10588Y128395D01*
X-10564Y128409D01*
X-10573Y128458D01*
X-10627Y128493D01*
X-10642Y128508D01*
X-10632Y128557D01*
X-10617Y128571D01*
X-10569Y128601D01*
X-10564Y128635D01*
X-10588Y128660D01*
X-10632Y128684D01*
X-10642Y128724D01*
X-10617Y128758D01*
X-10569Y128787D01*
X-10564Y128822D01*
X-10588Y128846D01*
X-10632Y128871D01*
X-10642Y128910D01*
X-10632Y128929D01*
X-10608Y128954D01*
X-10564Y128979D01*
X-10569Y129023D01*
X-10588Y129033D01*
X-10642Y129077D01*
X-10632Y129116D01*
X-10608Y129140D01*
X-10564Y129165D01*
X-10573Y129214D01*
X-10627Y129248D01*
X-10642Y129263D01*
X-10632Y129303D01*
X-10608Y129327D01*
X-10588Y129337D01*
X-10564Y129351D01*
X-10573Y129401D01*
X-10627Y129435D01*
X-10642Y129450D01*
X-10632Y129499D01*
X-10617Y129513D01*
X-10569Y129543D01*
X-10564Y129577D01*
X-10588Y129602D01*
X-10632Y129626D01*
X-10642Y129666D01*
X-10608Y129710D01*
X-10564Y129734D01*
X-10559Y129759D01*
X-10583Y129793D01*
X-10617Y129818D01*
X-10642Y129842D01*
X-10672Y129891D01*
X-10755Y129975D01*
X-10794Y129984D01*
X-16084Y129975D01*
X-16128Y129930D01*
X-16138Y129911D01*
X-16196Y129862D01*
X-16206Y129734D01*
X-16241Y129700D01*
X-16260Y129690D01*
X-16275Y129675D01*
X-16265Y129626D01*
X-16250Y129612D01*
X-16231Y129602D01*
X-16196Y129567D01*
X-16206Y129351D01*
X-16221Y129337D01*
X-16241Y129327D01*
X-16275Y129303D01*
X-16265Y129244D01*
X-16211Y129209D01*
X-16196Y129194D01*
X-16206Y128979D01*
X-16231Y128954D01*
X-16250Y128944D01*
X-16275Y128920D01*
X-16265Y128871D01*
X-16250Y128856D01*
X-16231Y128846D01*
X-16206Y128831D01*
X-16196Y128792D01*
X-16206Y128596D01*
X-16265Y128557D01*
X-16275Y128527D01*
X-16265Y128498D01*
X-16241Y128473D01*
X-16221Y128463D01*
X-16196Y128439D01*
X-16206Y128223D01*
X-16231Y128199D01*
X-16275Y128174D01*
X-16265Y128115D01*
X-16206Y128076D01*
X-16196Y128036D01*
X-16206Y127850D01*
X-16241Y127816D01*
X-16260Y127806D01*
X-16275Y127791D01*
X-16265Y127742D01*
X-16250Y127727D01*
X-16231Y127718D01*
X-16196Y127683D01*
X-16206Y127467D01*
X-16221Y127453D01*
X-16241Y127443D01*
X-16275Y127418D01*
X-16265Y127359D01*
X-16211Y127325D01*
X-16196Y127310D01*
X-16206Y127094D01*
X-16231Y127070D01*
X-16250Y127060D01*
X-16275Y127036D01*
X-16265Y126987D01*
X-16250Y126972D01*
X-16231Y126962D01*
X-16206Y126947D01*
X-16196Y126908D01*
X-16206Y126712D01*
X-16265Y126672D01*
X-16275Y126643D01*
X-16265Y126614D01*
X-16241Y126589D01*
X-16221Y126579D01*
X-16196Y126555D01*
X-16206Y126339D01*
X-16231Y126314D01*
X-16275Y126290D01*
X-16265Y126231D01*
X-16206Y126192D01*
X-16196Y126152D01*
X-16206Y125966D01*
X-16241Y125932D01*
X-16260Y125922D01*
X-16275Y125907D01*
X-16265Y125858D01*
X-16250Y125843D01*
X-16231Y125833D01*
X-16196Y125799D01*
X-16206Y125583D01*
X-16221Y125568D01*
X-16241Y125559D01*
X-16275Y125534D01*
X-16265Y125485D01*
X-16241Y125461D01*
X-16221Y125451D01*
X-16196Y125426D01*
X-16206Y125210D01*
X-16231Y125186D01*
X-16250Y125176D01*
X-16275Y125151D01*
X-16265Y125102D01*
X-16250Y125088D01*
X-16231Y125078D01*
X-16206Y125063D01*
X-16196Y125024D01*
X-16206Y124828D01*
X-16265Y124788D01*
X-16275Y124759D01*
X-16265Y124729D01*
X-16241Y124705D01*
X-16221Y124695D01*
X-16196Y124671D01*
X-16206Y124455D01*
X-16231Y124430D01*
X-16275Y124406D01*
X-16265Y124347D01*
X-16206Y124308D01*
X-16196Y124268D01*
X-16206Y124082D01*
X-16241Y124047D01*
X-16260Y124038D01*
X-16275Y124023D01*
X-16265Y123974D01*
X-16250Y123959D01*
X-16231Y123949D01*
X-16196Y123915D01*
X-16206Y123699D01*
X-16221Y123684D01*
X-16241Y123674D01*
X-16275Y123650D01*
X-16265Y123601D01*
X-16241Y123576D01*
X-16221Y123567D01*
X-16196Y123542D01*
X-16206Y123326D01*
X-16231Y123302D01*
X-16250Y123292D01*
X-16275Y123267D01*
X-16265Y123218D01*
X-16250Y123204D01*
X-16201Y123174D01*
X-16079Y123051D01*
X-16074Y123037D01*
X-16054Y123027D01*
X-15990Y122963D01*
X-15980Y122943D01*
X-15922Y122894D01*
X-15608Y122580D01*
X-15603Y122566D01*
X-15583Y122556D01*
X-15519Y122492D01*
X-15509Y122472D01*
X-15451Y122423D01*
X-15137Y122109D01*
X-15132Y122095D01*
X-15112Y122085D01*
X-15039Y122011D01*
X-15033Y121996D01*
X-15014Y121987D01*
X-14665Y121638D01*
X-14661Y121624D01*
X-14641Y121614D01*
X-14567Y121540D01*
X-14562Y121525D01*
X-14543Y121516D01*
X-14195Y121167D01*
X-14190Y121152D01*
X-14170Y121143D01*
X-14096Y121069D01*
X-14092Y121054D01*
X-14072Y121045D01*
X-13724Y120696D01*
X-13719Y120681D01*
X-13699Y120672D01*
X-13625Y120598D01*
X-13620Y120583D01*
X-13601Y120573D01*
X-13252Y120225D01*
X-13248Y120210D01*
X-13228Y120201D01*
X-13154Y120127D01*
X-13149Y120112D01*
X-13130Y120103D01*
X-12781Y119754D01*
X-12776Y119739D01*
X-12757Y119730D01*
X-12683Y119656D01*
X-12678Y119641D01*
X-12659Y119631D01*
X-12310Y119283D01*
X-12305Y119268D01*
X-12286Y119258D01*
X-12212Y119185D01*
X-12207Y119170D01*
X-12188Y119160D01*
X-11839Y118812D01*
X-11834Y118797D01*
X-11815Y118788D01*
X-11741Y118714D01*
X-11736Y118699D01*
X-11717Y118689D01*
X-11368Y118341D01*
X-11363Y118326D01*
X-11344Y118316D01*
X-11270Y118243D01*
X-11265Y118228D01*
X-11246Y118218D01*
X-10907Y117880D01*
X-10897Y117860D01*
X-10882Y117845D01*
X-10814Y117836D01*
X-10657Y117845D01*
X-10627Y117836D01*
X-10446Y117841D01*
X-10372Y117836D01*
X-10343Y117845D01*
X-10166Y117836D01*
X-10137Y117845D01*
X-9990Y117836D01*
X-9960Y117845D01*
X-9793Y117836D01*
X-9764Y117845D01*
X-9617Y117836D01*
X-9587Y117845D01*
X-9410Y117836D01*
X-9381Y117845D01*
X-9244Y117836D01*
X-9214Y117845D01*
X-9038Y117836D01*
X-9008Y117845D01*
X-8861Y117836D01*
X-8832Y117845D01*
X-8655Y117836D01*
X-8625Y117845D01*
X-8488Y117836D01*
X-8459Y117845D01*
X-8282Y117836D01*
X-8252Y117845D01*
X-8105Y117836D01*
X-8076Y117845D01*
X-7909Y117836D01*
X-7880Y117845D01*
X-7732Y117836D01*
X-7703Y117845D01*
X-7526Y117836D01*
X-7497Y117845D01*
X-7360Y117836D01*
X-7330Y117845D01*
X-7153Y117836D01*
X-7124Y117845D01*
X-6977Y117836D01*
X-6947Y117845D01*
X-6771Y117836D01*
X-6741Y117845D01*
X-6604Y117836D01*
X-6575Y117845D01*
X-6398Y117836D01*
X-6368Y117845D01*
X-6221Y117836D01*
X-6192Y117845D01*
X-6025Y117836D01*
X-5996Y117845D01*
X-5848Y117836D01*
X-5819Y117845D01*
X-5642Y117836D01*
X-5613Y117845D01*
X-5475Y117836D01*
X-5446Y117845D01*
X-5269Y117836D01*
X-5240Y117845D01*
X-5093Y117836D01*
X-5063Y117845D01*
X-4887Y117836D01*
X-4857Y117845D01*
X-4720Y117836D01*
X-4690Y117845D01*
X-4514Y117836D01*
X-4484Y117845D01*
X-4337Y117836D01*
X-4308Y117845D01*
X-4141Y117836D01*
X-4111Y117845D01*
X-3964Y117836D01*
X-3935Y117845D01*
X-3758Y117836D01*
X-3729Y117845D01*
X-3591Y117836D01*
X-3562Y117845D01*
X-3385Y117836D01*
X-3356Y117845D01*
X-3209Y117836D01*
X-3179Y117845D01*
X-3002Y117836D01*
X-2973Y117845D01*
X-2836Y117836D01*
X-2806Y117845D01*
X-2630Y117836D01*
X-2600Y117845D01*
X-2453Y117836D01*
X-2423Y117845D01*
X-2257Y117836D01*
X-2227Y117845D01*
X-2080Y117836D01*
X-2050Y117845D01*
X-1874Y117836D01*
X-1844Y117845D01*
X-1707Y117836D01*
X-1678Y117845D01*
X-1501Y117836D01*
X-1472Y117845D01*
X-1324Y117836D01*
X-1295Y117845D01*
X-1118Y117836D01*
X-1089Y117845D01*
X-951Y117836D01*
X-922Y117845D01*
X-745Y117836D01*
X-716Y117845D01*
X-569Y117836D01*
X-539Y117845D01*
X-372Y117836D01*
X-343Y117845D01*
X-196Y117836D01*
X-166Y117845D01*
X10Y117836D01*
X40Y117845D01*
X177Y117836D01*
X207Y117845D01*
X383Y117836D01*
X413Y117845D01*
X560Y117836D01*
X589Y117845D01*
X766Y117836D01*
X795Y117845D01*
X933Y117836D01*
X962Y117845D01*
X1139Y117836D01*
X1168Y117845D01*
X1316Y117836D01*
X1345Y117845D01*
X1512Y117836D01*
X1541Y117845D01*
X1688Y117836D01*
X1718Y117845D01*
X1885Y117836D01*
X1914Y117845D01*
X2110Y117836D01*
X2155Y117870D01*
X2164Y117890D01*
X2218Y117944D01*
X2238Y117953D01*
X2253Y117968D01*
X2262Y117988D01*
X2307Y118032D01*
X2326Y118042D01*
X2351Y118066D01*
X2361Y118086D01*
X2405Y118130D01*
X2424Y118140D01*
X2439Y118155D01*
X2449Y118174D01*
X2503Y118228D01*
X2523Y118238D01*
X2537Y118253D01*
X2547Y118272D01*
X2591Y118316D01*
X2611Y118326D01*
X2626Y118341D01*
X2635Y118361D01*
X2689Y118415D01*
X2709Y118424D01*
X2724Y118439D01*
X2733Y118459D01*
X2778Y118503D01*
X2797Y118513D01*
X2822Y118537D01*
X2832Y118557D01*
X2876Y118601D01*
X2895Y118611D01*
X2910Y118626D01*
X2920Y118645D01*
X2974Y118699D01*
X2994Y118709D01*
X3008Y118724D01*
X3018Y118743D01*
X3062Y118788D01*
X3082Y118797D01*
X3097Y118812D01*
X3106Y118832D01*
X3160Y118886D01*
X3180Y118895D01*
X3195Y118910D01*
X3204Y118930D01*
X3249Y118974D01*
X3268Y118984D01*
X3293Y119008D01*
X3303Y119028D01*
X3347Y119072D01*
X3366Y119082D01*
X3381Y119097D01*
X3391Y119116D01*
X3435Y119160D01*
X3455Y119170D01*
X3479Y119195D01*
X3489Y119214D01*
X3533Y119258D01*
X3553Y119268D01*
X3568Y119283D01*
X3577Y119303D01*
X3631Y119357D01*
X3651Y119367D01*
X3666Y119381D01*
X3676Y119401D01*
X3720Y119445D01*
X3739Y119455D01*
X3764Y119479D01*
X3774Y119499D01*
X3818Y119543D01*
X3838Y119553D01*
X3852Y119568D01*
X3862Y119587D01*
X3916Y119641D01*
X3936Y119651D01*
X3950Y119666D01*
X3960Y119685D01*
X4004Y119730D01*
X4024Y119739D01*
X4039Y119754D01*
X4048Y119774D01*
X4103Y119828D01*
X4122Y119837D01*
X4137Y119852D01*
X4147Y119872D01*
X4191Y119916D01*
X4210Y119926D01*
X4235Y119950D01*
X4245Y119970D01*
X4289Y120014D01*
X4309Y120024D01*
X4323Y120039D01*
X4333Y120058D01*
X4377Y120103D01*
X4397Y120112D01*
X4421Y120137D01*
X4431Y120156D01*
X4475Y120201D01*
X4495Y120210D01*
X4510Y120225D01*
X4519Y120245D01*
X4574Y120299D01*
X4593Y120308D01*
X4608Y120323D01*
X4618Y120392D01*
X4628Y120441D01*
X4652Y120466D01*
X4701Y120495D01*
X4740Y120554D01*
X4760Y120564D01*
X4794Y120588D01*
X4804Y120608D01*
X4824Y120627D01*
X4829Y120642D01*
X4848Y120652D01*
X4868Y120672D01*
X4888Y120681D01*
X4922Y120726D01*
X4927Y120740D01*
X4946Y120750D01*
X4966Y120770D01*
X4986Y120780D01*
X5035Y120838D01*
X5054Y120858D01*
X5074Y120868D01*
X5123Y120927D01*
X5153Y120956D01*
X5172Y120966D01*
X5221Y121025D01*
X5241Y121045D01*
X5260Y121054D01*
X5285Y121089D01*
X5300Y121113D01*
X5319Y121123D01*
X5339Y121143D01*
X5359Y121152D01*
X5383Y121187D01*
X5398Y121211D01*
X5417Y121221D01*
X5437Y121241D01*
X5457Y121251D01*
X5481Y121285D01*
X5525Y121329D01*
X5545Y121339D01*
X5570Y121373D01*
X5584Y121398D01*
X5604Y121408D01*
X5624Y121427D01*
X5643Y121437D01*
X5668Y121471D01*
X5682Y121496D01*
X5702Y121506D01*
X5736Y121530D01*
X5746Y121550D01*
X5766Y121570D01*
X5771Y121584D01*
X5790Y121594D01*
X5810Y121614D01*
X5830Y121624D01*
X5854Y121658D01*
X5869Y121682D01*
X5889Y121692D01*
X5908Y121712D01*
X5928Y121722D01*
X5952Y121756D01*
X5996Y121800D01*
X6016Y121810D01*
X6050Y121854D01*
X6055Y121869D01*
X6075Y121879D01*
X6095Y121898D01*
X6114Y121908D01*
X6148Y121952D01*
X6153Y121967D01*
X6173Y121977D01*
X6207Y122001D01*
X6217Y122021D01*
X6237Y122041D01*
X6242Y122055D01*
X6261Y122065D01*
X6281Y122085D01*
X6301Y122095D01*
X6350Y122153D01*
X6379Y122183D01*
X6399Y122193D01*
X6448Y122252D01*
X6468Y122271D01*
X6487Y122281D01*
X6512Y122315D01*
X6526Y122340D01*
X6546Y122350D01*
X6566Y122369D01*
X6585Y122379D01*
X6610Y122414D01*
X6624Y122438D01*
X6644Y122448D01*
X6688Y122482D01*
X6698Y122502D01*
X6752Y122556D01*
X6772Y122566D01*
X6796Y122600D01*
X6850Y122654D01*
X6870Y122664D01*
X6894Y122698D01*
X6938Y122742D01*
X6958Y122752D01*
X6983Y122786D01*
X6997Y122811D01*
X7017Y122821D01*
X7037Y122840D01*
X7056Y122850D01*
X7081Y122885D01*
X7096Y122909D01*
X7115Y122919D01*
X7159Y122953D01*
X7169Y122973D01*
X7223Y123027D01*
X7243Y123037D01*
X7292Y123096D01*
X7321Y123125D01*
X7341Y123135D01*
X7380Y123194D01*
X7400Y123204D01*
X7444Y123238D01*
X7454Y123277D01*
X7444Y123434D01*
X7449Y129837D01*
X7424Y129872D01*
X7410Y129886D01*
X7390Y129896D01*
X7356Y129930D01*
X7346Y129950D01*
X7331Y129975D01*
X7262Y129994D01*
D02*
G37*
G36*
X-549Y129935D02*
X-8282Y129926D01*
X-8351Y129876D01*
X-8356Y129803D01*
X-8316Y129715D01*
X-8326Y129675D01*
X-8321Y126658D01*
X-8336Y126623D01*
X-8356Y126574D01*
X-8360Y126550D01*
X-8341Y126501D01*
X-8307Y126466D01*
X-8297Y126447D01*
X-8135Y126285D01*
X-8120Y126280D01*
X-8110Y126260D01*
X-8037Y126187D01*
X-8022Y126182D01*
X-8012Y126162D01*
X-7948Y126098D01*
X-7934Y126093D01*
X-7924Y126074D01*
X-7850Y126000D01*
X-7835Y125995D01*
X-7826Y125976D01*
X-7674Y125824D01*
X-7654Y125814D01*
X-7595Y125755D01*
X-7526Y125745D01*
X-7428Y125755D01*
X-6417Y125745D01*
X-4268Y125755D01*
X-4239Y125745D01*
X-3886D01*
X-1442Y125755D01*
X-1413Y125745D01*
X-1167Y125755D01*
X-1143Y125770D01*
X-1133Y125789D01*
X-1108Y125824D01*
X-1089Y125833D01*
X-1035Y125878D01*
X-1025Y125897D01*
X-1005Y125917D01*
X-1001Y125932D01*
X-981Y125941D01*
X-927Y125995D01*
X-922Y126010D01*
X-902Y126020D01*
X-848Y126064D01*
X-839Y126084D01*
X-819Y126103D01*
X-814Y126118D01*
X-794Y126128D01*
X-740Y126182D01*
X-731Y126201D01*
X-716Y126216D01*
X-696Y126226D01*
X-652Y126270D01*
X-642Y126290D01*
X-618Y126314D01*
X-598Y126324D01*
X-554Y126368D01*
X-544Y126388D01*
X-530Y126403D01*
X-510Y126412D01*
X-466Y126457D01*
X-456Y126525D01*
X-446Y126565D01*
X-451Y127953D01*
X-441Y127992D01*
X-426Y128046D01*
X-436Y128105D01*
X-446Y128135D01*
X-456Y128174D01*
X-446Y128262D01*
X-456Y128292D01*
X-446Y128370D01*
X-426Y128419D01*
X-436Y128488D01*
X-446Y128517D01*
X-456Y128557D01*
X-451Y128640D01*
X-456Y128704D01*
X-446Y128733D01*
X-426Y128802D01*
X-436Y128861D01*
X-446Y128890D01*
X-456Y128929D01*
X-446Y129087D01*
X-456Y129891D01*
X-480Y129926D01*
X-549Y129935D01*
D02*
G37*
G36*
X-36126Y-140994D02*
X-37497Y-142126D01*
X-36126D01*
Y-140994D01*
D02*
G37*
G36*
X-55435Y-141393D02*
X-57322D01*
X-57338Y-141404D01*
X-57344Y-141410D01*
X-57349Y-141416D01*
Y-141432D01*
Y-141993D01*
X-55412Y-141982D01*
Y-141432D01*
Y-141427D01*
Y-141421D01*
X-55418Y-141410D01*
X-55423Y-141404D01*
X-55429Y-141399D01*
X-55435Y-141393D01*
D02*
G37*
G36*
X-59847D02*
X-61734D01*
X-61750Y-141404D01*
X-61756Y-141410D01*
X-61761Y-141416D01*
Y-141432D01*
Y-141993D01*
X-59825Y-141982D01*
Y-141432D01*
Y-141427D01*
Y-141421D01*
X-59830Y-141410D01*
X-59836Y-141404D01*
X-59841Y-141399D01*
X-59847Y-141393D01*
D02*
G37*
G36*
X-4141Y-148249D02*
X-6028D01*
X-6045Y-148260D01*
X-6051Y-148265D01*
X-6056Y-148271D01*
Y-148288D01*
Y-150097D01*
Y-150108D01*
X-6045Y-150125D01*
X-6039D01*
X-6017Y-150130D01*
X-4136D01*
X-4130Y-150125D01*
X-4125Y-150119D01*
X-4119Y-150097D01*
Y-148288D01*
Y-148282D01*
Y-148276D01*
X-4125Y-148265D01*
X-4130Y-148260D01*
X-4136Y-148254D01*
X-4141Y-148249D01*
D02*
G37*
G36*
X-17300D02*
X-19187D01*
X-19204Y-148260D01*
X-19210Y-148265D01*
X-19215Y-148271D01*
Y-148288D01*
Y-148848D01*
X-17278Y-148837D01*
Y-148288D01*
Y-148282D01*
Y-148276D01*
X-17284Y-148265D01*
X-17289Y-148260D01*
X-17295Y-148254D01*
X-17300Y-148249D01*
D02*
G37*
G36*
X-30571D02*
X-32458D01*
X-32474Y-148260D01*
X-32480Y-148265D01*
X-32485Y-148271D01*
Y-148288D01*
Y-150097D01*
Y-150108D01*
X-32474Y-150125D01*
X-32469D01*
X-32446Y-150130D01*
X-30565D01*
X-30559Y-150125D01*
X-30554Y-150119D01*
X-30548Y-150097D01*
Y-148288D01*
Y-148282D01*
Y-148276D01*
X-30554Y-148265D01*
X-30559Y-148260D01*
X-30565Y-148254D01*
X-30571Y-148249D01*
D02*
G37*
G36*
X-42553D02*
X-44440D01*
X-44457Y-148260D01*
X-44462Y-148265D01*
X-44468Y-148271D01*
Y-148288D01*
Y-150097D01*
Y-150108D01*
X-44457Y-150125D01*
X-44451D01*
X-44429Y-150130D01*
X-42547D01*
X-42542Y-150125D01*
X-42536Y-150119D01*
X-42531Y-150097D01*
Y-148288D01*
Y-148282D01*
Y-148276D01*
X-42536Y-148265D01*
X-42542Y-148260D01*
X-42547Y-148254D01*
X-42553Y-148249D01*
D02*
G37*
G36*
X-38135D02*
X-40005D01*
X-40022Y-148260D01*
X-40028Y-148265D01*
X-40033Y-148271D01*
Y-148288D01*
Y-150097D01*
Y-150108D01*
X-40022Y-150125D01*
X-40017D01*
X-40000Y-150130D01*
X-38124D01*
X-38107Y-150125D01*
X-38102Y-150119D01*
X-38096Y-150097D01*
Y-148288D01*
Y-148282D01*
Y-148276D01*
X-38102Y-148265D01*
X-38107Y-148260D01*
X-38113Y-148254D01*
X-38135Y-148249D01*
D02*
G37*
G36*
X41588Y-143339D02*
X34843D01*
X34815Y-143367D01*
X34801Y-143381D01*
X34787Y-143436D01*
Y-146434D01*
X41644D01*
Y-143436D01*
Y-143422D01*
Y-143409D01*
Y-143395D01*
X41630Y-143367D01*
X41616Y-143353D01*
X41588Y-143339D01*
D02*
G37*
%LPD*%
D23*
X35050Y152350D02*
D03*
D24*
X56900Y152200D02*
D03*
D25*
X-64000Y144500D02*
D03*
X-46000D02*
D03*
X-55000D02*
D03*
D26*
X39824Y1400D02*
D03*
Y-3600D02*
D03*
Y-8600D02*
D03*
Y-13600D02*
D03*
Y-18600D02*
D03*
Y-23600D02*
D03*
Y-28600D02*
D03*
Y-33600D02*
D03*
Y-64600D02*
D03*
Y-69600D02*
D03*
Y-74600D02*
D03*
Y-79600D02*
D03*
Y-84600D02*
D03*
Y-89600D02*
D03*
Y-94600D02*
D03*
Y-99600D02*
D03*
D27*
X40233Y100500D02*
D03*
Y95500D02*
D03*
Y90500D02*
D03*
Y85500D02*
D03*
Y48700D02*
D03*
Y43700D02*
D03*
Y38700D02*
D03*
Y33700D02*
D03*
D28*
X8589Y51700D02*
D03*
X20400D02*
D03*
X7901Y83600D02*
D03*
X19712D02*
D03*
D29*
X7704Y62727D02*
D03*
X19515D02*
D03*
X7704Y73361D02*
D03*
X19515D02*
D03*
D30*
X-17650Y-60241D02*
D03*
Y-57091D02*
D03*
Y-53942D02*
D03*
Y-50792D02*
D03*
X-11350D02*
D03*
Y-53942D02*
D03*
Y-57091D02*
D03*
Y-60241D02*
D03*
X-17650Y-116191D02*
D03*
Y-113041D02*
D03*
Y-109892D02*
D03*
Y-106742D02*
D03*
X-11350D02*
D03*
Y-109892D02*
D03*
Y-113041D02*
D03*
Y-116191D02*
D03*
X-17650Y-4291D02*
D03*
Y-1141D02*
D03*
Y2008D02*
D03*
Y5158D02*
D03*
X-11350D02*
D03*
Y2008D02*
D03*
Y-1141D02*
D03*
Y-4291D02*
D03*
D31*
X-29100Y-113400D02*
D03*
X-59100Y66600D02*
D03*
X-89100Y26600D02*
D03*
D32*
Y-103400D02*
D03*
D33*
Y-113400D02*
D03*
D34*
Y-93400D02*
D03*
X-49100Y66600D02*
D03*
X-29100Y26600D02*
D03*
D35*
X-39100Y66600D02*
D03*
X-69100D02*
D03*
X-79100D02*
D03*
X-89100Y16600D02*
D03*
X-29100D02*
D03*
Y-103400D02*
D03*
Y-93400D02*
D03*
Y-83400D02*
D03*
Y-73400D02*
D03*
Y-63400D02*
D03*
Y-53400D02*
D03*
Y-43400D02*
D03*
Y-33400D02*
D03*
Y-23400D02*
D03*
Y-13400D02*
D03*
Y-3400D02*
D03*
Y6600D02*
D03*
X-79100Y-103400D02*
D03*
X-89100Y6600D02*
D03*
Y-3400D02*
D03*
Y-13400D02*
D03*
Y-23400D02*
D03*
Y-33400D02*
D03*
Y-43400D02*
D03*
Y-53400D02*
D03*
Y-63400D02*
D03*
Y-73400D02*
D03*
Y-83400D02*
D03*
X-29100Y46600D02*
D03*
Y56600D02*
D03*
Y66600D02*
D03*
Y76600D02*
D03*
Y86600D02*
D03*
Y96600D02*
D03*
Y106600D02*
D03*
Y116600D02*
D03*
X-89100Y36600D02*
D03*
Y46600D02*
D03*
Y56600D02*
D03*
Y66600D02*
D03*
Y76600D02*
D03*
Y86600D02*
D03*
Y96600D02*
D03*
Y106600D02*
D03*
Y116600D02*
D03*
X-40911Y-88400D02*
D03*
Y-78400D02*
D03*
Y-68400D02*
D03*
Y-58400D02*
D03*
Y-48400D02*
D03*
X-29100Y36600D02*
D03*
X-63037Y-112494D02*
D03*
X-55163D02*
D03*
D36*
X-79100Y-62337D02*
D03*
X-71226D02*
D03*
X-63352D02*
D03*
X-79100Y-54463D02*
D03*
X-71226D02*
D03*
X-63352D02*
D03*
D37*
X53800Y152400D02*
D03*
D38*
X62068D02*
D03*
X29784D02*
D03*
D39*
X38052D02*
D03*
X45926D02*
D03*
D40*
X8000Y-133000D02*
D03*
Y-103000D02*
D03*
Y-113000D02*
D03*
Y-123000D02*
D03*
Y-77050D02*
D03*
Y-47050D02*
D03*
Y-57050D02*
D03*
Y-67050D02*
D03*
Y-11100D02*
D03*
Y-1100D02*
D03*
Y8900D02*
D03*
Y-21100D02*
D03*
D41*
Y-93000D02*
D03*
Y-37050D02*
D03*
Y18900D02*
D03*
D42*
X78800Y6400D02*
D03*
Y-38600D02*
D03*
Y-59600D02*
D03*
Y-104600D02*
D03*
X79210Y108000D02*
D03*
Y78000D02*
D03*
Y56200D02*
D03*
Y26200D02*
D03*
D43*
X-47300Y35400D02*
D03*
X-38800Y21400D02*
D03*
X-53316Y6184D02*
D03*
X82000Y119000D02*
D03*
X72000Y99000D02*
D03*
X82000Y39000D02*
D03*
X72000Y19000D02*
D03*
Y-21000D02*
D03*
X82000Y-81000D02*
D03*
Y-121000D02*
D03*
X62000Y39000D02*
D03*
X52000Y19000D02*
D03*
X32000D02*
D03*
X22000Y119000D02*
D03*
X2000Y39000D02*
D03*
X-8000Y19000D02*
D03*
X2000Y-41000D02*
D03*
X-38000Y119000D02*
D03*
X-48000Y99000D02*
D03*
X-38000Y79000D02*
D03*
Y-1000D02*
D03*
Y-41000D02*
D03*
X-48000Y-61000D02*
D03*
Y-101000D02*
D03*
X-58000Y119000D02*
D03*
X-68000Y99000D02*
D03*
X-58000Y79000D02*
D03*
X-68000Y-21000D02*
D03*
X-58000Y-41000D02*
D03*
Y-81000D02*
D03*
X-68000Y-101000D02*
D03*
X-78000Y119000D02*
D03*
Y79000D02*
D03*
Y-41000D02*
D03*
Y-81000D02*
D03*
Y-121000D02*
D03*
X-45800Y136100D02*
D03*
X0Y83800D02*
D03*
X-2400Y68000D02*
D03*
X23700Y-51100D02*
D03*
X27400Y-41600D02*
D03*
X48900Y-51500D02*
D03*
X26100Y79900D02*
D03*
X14500Y50837D02*
D03*
X22000Y98000D02*
D03*
Y92800D02*
D03*
X22100Y38800D02*
D03*
Y42500D02*
D03*
X22200Y30638D02*
D03*
X22126Y34226D02*
D03*
X56700Y-64500D02*
D03*
Y-74200D02*
D03*
X56936Y-84236D02*
D03*
X56900Y-18300D02*
D03*
X56626Y-94326D02*
D03*
X56700Y-28500D02*
D03*
X56600Y1100D02*
D03*
X14178Y84578D02*
D03*
X21643Y105184D02*
D03*
X23038Y-16194D02*
D03*
X22900Y1300D02*
D03*
X56595Y-8187D02*
D03*
X50100Y-41700D02*
D03*
X-2007Y39893D02*
D03*
X-1919Y19053D02*
D03*
X2900Y51500D02*
D03*
D44*
X67100Y84100D02*
D03*
X37400Y68000D02*
D03*
D45*
X83000Y144500D02*
D03*
Y-144500D02*
D03*
X-83000Y144500D02*
D03*
Y-145500D02*
D03*
M02*
