G04*
G04 #@! TF.GenerationSoftware,Altium Limited,Altium Designer,24.3.1 (35)*
G04*
G04 Layer_Color=65535*
%FSLAX25Y25*%
%MOIN*%
G70*
G04*
G04 #@! TF.SameCoordinates,A7121B57-4D76-4085-BD87-85E80D54BB1B*
G04*
G04*
G04 #@! TF.FilePolarity,Positive*
G04*
G01*
G75*
%ADD10C,0.00394*%
%ADD11C,0.00984*%
%ADD12C,0.00787*%
%ADD13C,0.00400*%
%ADD14C,0.01000*%
%ADD15C,0.00800*%
%ADD16R,0.00787X0.05906*%
D10*
X69154Y152400D02*
G03*
X69548Y152400I197J0D01*
G01*
D02*
G03*
X69154Y152400I-197J0D01*
G01*
X-7807Y-60241D02*
G03*
X-8201Y-60241I-197J0D01*
G01*
D02*
G03*
X-7807Y-60241I197J0D01*
G01*
Y-116191D02*
G03*
X-8201Y-116191I-197J0D01*
G01*
D02*
G03*
X-7807Y-116191I197J0D01*
G01*
Y-4291D02*
G03*
X-8201Y-4291I-197J0D01*
G01*
D02*
G03*
X-7807Y-4291I197J0D01*
G01*
D11*
X8500Y-85433D02*
G03*
X8500Y-85433I-500J0D01*
G01*
Y-29483D02*
G03*
X8500Y-29483I-500J0D01*
G01*
Y26467D02*
G03*
X8500Y26467I-500J0D01*
G01*
D12*
X62855Y159290D02*
Y161258D01*
X28997D02*
X62855D01*
X28997Y159290D02*
Y161258D01*
X62855Y143542D02*
Y145510D01*
X28997Y143542D02*
X62855D01*
X28997D02*
Y145510D01*
X-4520Y-138000D02*
X18000D01*
Y-88000D01*
X-4520D02*
X18000D01*
X-4520Y-138000D02*
Y-88000D01*
Y-82050D02*
X18000D01*
Y-32050D01*
X-4520D02*
X18000D01*
X-4520Y-82050D02*
Y-32050D01*
Y-26100D02*
Y23900D01*
X18000D01*
Y-26100D02*
Y23900D01*
X-4520Y-26100D02*
X18000D01*
X13610Y59971D02*
Y65483D01*
X13610Y70604D02*
Y76117D01*
D13*
X-46250Y140199D02*
X-47250D01*
Y139450D01*
X-46750Y139700D01*
X-46500D01*
X-46250Y139450D01*
Y138950D01*
X-46500Y138700D01*
X-47000D01*
X-47250Y138950D01*
X-45750Y140199D02*
Y139200D01*
X-45250Y138700D01*
X-44750Y139200D01*
Y140199D01*
X-56999Y139950D02*
X-56749Y140199D01*
X-56250D01*
X-56000Y139950D01*
Y139700D01*
X-56250Y139450D01*
X-56499D01*
X-56250D01*
X-56000Y139200D01*
Y138950D01*
X-56250Y138700D01*
X-56749D01*
X-56999Y138950D01*
X-55500Y140199D02*
Y139200D01*
X-55000Y138700D01*
X-54500Y139200D01*
Y140199D01*
X-54000Y139950D02*
X-53750Y140199D01*
X-53251D01*
X-53001Y139950D01*
Y139700D01*
X-53251Y139450D01*
X-53500D01*
X-53251D01*
X-53001Y139200D01*
Y138950D01*
X-53251Y138700D01*
X-53750D01*
X-54000Y138950D01*
X-65000Y139950D02*
X-65250Y140199D01*
X-65749D01*
X-65999Y139950D01*
Y138950D01*
X-65749Y138700D01*
X-65250D01*
X-65000Y138950D01*
Y139450D01*
X-65500D01*
X-64500Y138700D02*
Y140199D01*
X-63500Y138700D01*
Y140199D01*
X-63000D02*
Y138700D01*
X-62251D01*
X-62001Y138950D01*
Y139950D01*
X-62251Y140199D01*
X-63000D01*
D14*
X8800Y46498D02*
X12799D01*
X10799D01*
Y40500D01*
X14798Y46498D02*
X18797Y40500D01*
Y46498D02*
X14798Y40500D01*
X8800Y88600D02*
Y94598D01*
X11799D01*
X12799Y93598D01*
Y91599D01*
X11799Y90599D01*
X8800D01*
X10799D02*
X12799Y88600D01*
X14798Y94598D02*
X18797Y88600D01*
Y94598D02*
X14798Y88600D01*
X-63099Y130999D02*
Y126001D01*
X-62099Y125001D01*
X-60100D01*
X-59100Y126001D01*
Y130999D01*
X-57101Y125001D02*
X-55101D01*
X-56101D01*
Y130999D01*
X-57101Y129999D01*
X30300Y-54601D02*
X28301D01*
X29301D01*
Y-59599D01*
X28301Y-60599D01*
X27301D01*
X26302Y-59599D01*
X35299Y-60599D02*
Y-54601D01*
X32300Y-57600D01*
X36298D01*
X29800Y11899D02*
X27801D01*
X28801D01*
Y6901D01*
X27801Y5901D01*
X26801D01*
X25802Y6901D01*
X31800Y10899D02*
X32799Y11899D01*
X34799D01*
X35798Y10899D01*
Y9900D01*
X34799Y8900D01*
X33799D01*
X34799D01*
X35798Y7900D01*
Y6901D01*
X34799Y5901D01*
X32799D01*
X31800Y6901D01*
X30710Y58699D02*
X28710D01*
X29710D01*
Y53701D01*
X28710Y52701D01*
X27711D01*
X26711Y53701D01*
X36708Y52701D02*
X32709D01*
X36708Y56700D01*
Y57699D01*
X35708Y58699D01*
X33709D01*
X32709Y57699D01*
X30209Y110499D02*
X28210D01*
X29210D01*
Y105501D01*
X28210Y104501D01*
X27210D01*
X26211Y105501D01*
X32209Y104501D02*
X34208D01*
X33209D01*
Y110499D01*
X32209Y109499D01*
D15*
X31700Y141033D02*
X31034Y141699D01*
X29701D01*
X29034Y141033D01*
Y140366D01*
X29701Y139700D01*
X31034D01*
X31700Y139033D01*
Y138367D01*
X31034Y137701D01*
X29701D01*
X29034Y138367D01*
X33033Y137701D02*
X34366D01*
X33699D01*
Y141699D01*
X33033Y141033D01*
X-6898Y60501D02*
Y64499D01*
X-4899D01*
X-4233Y63833D01*
Y62500D01*
X-4899Y61834D01*
X-6898D01*
X-5565D02*
X-4233Y60501D01*
X-2900D02*
X-1567D01*
X-2233D01*
Y64499D01*
X-2900Y63833D01*
X433Y60501D02*
X1766D01*
X1099D01*
Y64499D01*
X433Y63833D01*
X-6898Y71301D02*
Y75299D01*
X-4899D01*
X-4233Y74633D01*
Y73300D01*
X-4899Y72634D01*
X-6898D01*
X-5565D02*
X-4233Y71301D01*
X-2900D02*
X-1567D01*
X-2233D01*
Y75299D01*
X-2900Y74633D01*
X433D02*
X1099Y75299D01*
X2432D01*
X3098Y74633D01*
Y71967D01*
X2432Y71301D01*
X1099D01*
X433Y71967D01*
Y74633D01*
X-13032Y-137999D02*
Y-134001D01*
X-11033D01*
X-10367Y-134667D01*
Y-136000D01*
X-11033Y-136667D01*
X-13032D01*
X-9033Y-134667D02*
X-8367Y-134001D01*
X-7034D01*
X-6368Y-134667D01*
Y-135334D01*
X-7034Y-136000D01*
X-7701D01*
X-7034D01*
X-6368Y-136667D01*
Y-137333D01*
X-7034Y-137999D01*
X-8367D01*
X-9033Y-137333D01*
X-13032Y-81999D02*
Y-78001D01*
X-11033D01*
X-10367Y-78667D01*
Y-80000D01*
X-11033Y-80666D01*
X-13032D01*
X-6368Y-81999D02*
X-9033D01*
X-6368Y-79334D01*
Y-78667D01*
X-7034Y-78001D01*
X-8367D01*
X-9033Y-78667D01*
X-11666Y-26099D02*
Y-22101D01*
X-9667D01*
X-9000Y-22767D01*
Y-24100D01*
X-9667Y-24767D01*
X-11666D01*
X-7667Y-26099D02*
X-6334D01*
X-7001D01*
Y-22101D01*
X-7667Y-22767D01*
X-19932Y-44716D02*
Y-40717D01*
X-17932D01*
X-17266Y-41384D01*
Y-42717D01*
X-17932Y-43383D01*
X-19932D01*
X-18599D02*
X-17266Y-44716D01*
X-15933D02*
Y-40717D01*
X-13267Y-44716D01*
Y-40717D01*
X-11934Y-41384D02*
X-11268Y-40717D01*
X-9935D01*
X-9268Y-41384D01*
Y-42050D01*
X-9935Y-42717D01*
X-10601D01*
X-9935D01*
X-9268Y-43383D01*
Y-44049D01*
X-9935Y-44716D01*
X-11268D01*
X-11934Y-44049D01*
X-19632Y-100566D02*
Y-96567D01*
X-17632D01*
X-16966Y-97234D01*
Y-98567D01*
X-17632Y-99233D01*
X-19632D01*
X-18299D02*
X-16966Y-100566D01*
X-15633D02*
Y-96567D01*
X-12967Y-100566D01*
Y-96567D01*
X-8968D02*
X-11634D01*
Y-98567D01*
X-10301Y-97900D01*
X-9635D01*
X-8968Y-98567D01*
Y-99899D01*
X-9635Y-100566D01*
X-10968D01*
X-11634Y-99899D01*
X-19116Y11259D02*
Y15258D01*
X-17116D01*
X-16450Y14592D01*
Y13259D01*
X-17116Y12592D01*
X-19116D01*
X-17783D02*
X-16450Y11259D01*
X-15117D02*
Y15258D01*
X-12451Y11259D01*
Y15258D01*
X-11118Y11259D02*
X-9785D01*
X-10452D01*
Y15258D01*
X-11118Y14592D01*
X-6898Y54199D02*
Y50201D01*
X-4899D01*
X-4233Y50867D01*
Y53533D01*
X-4899Y54199D01*
X-6898D01*
X-234Y50201D02*
X-2900D01*
X-234Y52866D01*
Y53533D01*
X-900Y54199D01*
X-2233D01*
X-2900Y53533D01*
X-6898Y85499D02*
Y81501D01*
X-4899D01*
X-4233Y82167D01*
Y84833D01*
X-4899Y85499D01*
X-6898D01*
X-2900Y81501D02*
X-1567D01*
X-2233D01*
Y85499D01*
X-2900Y84833D01*
D16*
X24336Y51702D02*
D03*
X23648Y83603D02*
D03*
M02*
