G04*
G04 #@! TF.GenerationSoftware,Altium Limited,Altium Designer,24.3.1 (35)*
G04*
G04 Layer_Color=16711935*
%FSLAX25Y25*%
%MOIN*%
G70*
G04*
G04 #@! TF.SameCoordinates,A7121B57-4D76-4085-BD87-85E80D54BB1B*
G04*
G04*
G04 #@! TF.FilePolarity,Negative*
G04*
G01*
G75*
%ADD31R,0.06737X0.06737*%
%ADD32R,0.06737X0.06737*%
%ADD33C,0.07400*%
G04:AMPARAMS|DCode=34|XSize=67.37mil|YSize=67.37mil|CornerRadius=0mil|HoleSize=0mil|Usage=FLASHONLY|Rotation=180.000|XOffset=0mil|YOffset=0mil|HoleType=Round|Shape=Octagon|*
%AMOCTAGOND34*
4,1,8,-0.03369,0.01684,-0.03369,-0.01684,-0.01684,-0.03369,0.01684,-0.03369,0.03369,-0.01684,0.03369,0.01684,0.01684,0.03369,-0.01684,0.03369,-0.03369,0.01684,0.0*
%
%ADD34OCTAGOND34*%

%ADD35C,0.06737*%
%ADD36C,0.05162*%
%ADD37R,0.05918X0.05918*%
%ADD38C,0.10603*%
%ADD39C,0.05918*%
%ADD40C,0.07887*%
%ADD41R,0.07887X0.07887*%
%ADD42C,0.00800*%
%ADD43C,0.02769*%
%ADD44C,0.05800*%
%ADD45C,0.20485*%
%ADD62R,0.03937X0.05906*%
%ADD63R,0.07316X0.05927*%
%ADD65R,0.00984X0.03764*%
%ADD66R,0.04158X0.00984*%
%ADD68R,0.07795X0.02087*%
%ADD69R,0.06922X0.05140*%
%ADD71R,0.06693X0.03740*%
%ADD77R,0.06338X0.03764*%
%ADD80R,0.07887X0.04737*%
%ADD81R,0.07887X0.05328*%
%ADD82R,0.04147X0.03556*%
%ADD83R,0.03359X0.06804*%
%ADD84R,0.05721X0.03162*%
%ADD85R,0.08083X0.04343*%
%ADD86R,0.08083X0.13398*%
%ADD87R,0.07493X0.04540*%
%ADD88R,0.04343X0.02375*%
%ADD89R,0.04540X0.07493*%
G36*
X28835Y-102401D02*
X28791Y-102426D01*
X28781Y-102465D01*
X28776Y-111783D01*
X28805Y-111822D01*
X28845Y-111832D01*
X28913Y-111842D01*
X31543Y-111852D01*
X31568Y-111876D01*
X31578Y-111915D01*
X31568Y-112043D01*
X31573Y-114226D01*
X31553Y-114275D01*
X31524Y-114305D01*
X31475Y-114324D01*
X31376Y-114334D01*
X31347Y-114324D01*
X23344Y-114329D01*
X23280Y-114305D01*
X23212Y-114315D01*
X23187Y-114339D01*
X23177Y-114378D01*
X23187Y-114437D01*
X23241Y-114491D01*
X23261Y-114501D01*
X23295Y-114535D01*
X23305Y-114555D01*
X23329Y-114580D01*
X23349Y-114590D01*
X23383Y-114624D01*
X23433Y-114712D01*
X23482Y-114761D01*
X23516Y-114825D01*
X23536Y-114835D01*
X23560Y-114859D01*
X23570Y-114879D01*
X23619Y-114948D01*
X23653Y-114972D01*
X23668Y-114987D01*
X23678Y-115006D01*
X23722Y-115060D01*
X23766Y-115105D01*
X23805Y-115173D01*
X23845Y-115213D01*
X23855Y-115232D01*
X23904Y-115301D01*
X23918Y-115316D01*
X23938Y-115325D01*
X23963Y-115350D01*
X23972Y-115370D01*
X24021Y-115419D01*
X24031Y-115438D01*
X24085Y-115522D01*
X24105Y-115532D01*
X24129Y-115556D01*
X24178Y-115644D01*
X24227Y-115693D01*
X24237Y-115713D01*
X24281Y-115777D01*
X24301Y-115787D01*
X24345Y-115831D01*
X24355Y-115850D01*
X24404Y-115919D01*
X24414Y-115939D01*
X24448Y-115983D01*
X24468Y-115993D01*
X24512Y-116037D01*
X24551Y-116106D01*
X24679Y-116233D01*
X24689Y-116253D01*
X24708Y-116272D01*
X24747Y-116341D01*
X24762Y-116356D01*
X24777Y-116361D01*
X24787Y-116380D01*
X24826Y-116449D01*
X24851Y-116474D01*
X24870Y-116483D01*
X24895Y-116518D01*
X24939Y-116562D01*
X24959Y-116572D01*
X24973Y-116586D01*
X24983Y-116606D01*
X25022Y-116675D01*
X25071Y-116724D01*
X25081Y-116744D01*
X25130Y-116812D01*
X25145Y-116827D01*
X25160Y-116832D01*
X25170Y-116851D01*
X25219Y-116920D01*
X25233Y-116935D01*
X25253Y-116945D01*
X25268Y-116959D01*
X25297Y-117008D01*
X25356Y-117067D01*
X25395Y-117136D01*
X25410Y-117160D01*
X25425Y-117166D01*
X25434Y-117185D01*
X25454Y-117205D01*
X25464Y-117224D01*
X25508Y-117278D01*
X25542Y-117313D01*
X25591Y-117401D01*
X25650Y-117460D01*
X25690Y-117528D01*
X25817Y-117656D01*
X25827Y-117676D01*
X25876Y-117745D01*
X25925Y-117794D01*
X25955Y-117843D01*
X26033Y-117921D01*
X26043Y-117941D01*
X26067Y-117975D01*
X26087Y-117985D01*
X26112Y-118009D01*
X26161Y-118098D01*
X26210Y-118147D01*
X26249Y-118216D01*
X26264Y-118230D01*
X26283Y-118240D01*
X26337Y-118323D01*
X26362Y-118348D01*
X26381Y-118358D01*
X26396Y-118372D01*
X26406Y-118392D01*
X26450Y-118446D01*
X26494Y-118490D01*
X26534Y-118559D01*
X26573Y-118598D01*
X26583Y-118618D01*
X26632Y-118686D01*
X26656Y-118711D01*
X26676Y-118721D01*
X26691Y-118736D01*
X26700Y-118755D01*
X26750Y-118824D01*
X26779Y-118873D01*
X26833Y-118927D01*
X26853Y-118937D01*
X26897Y-119010D01*
X26906Y-119030D01*
X26965Y-119089D01*
X27005Y-119158D01*
X27142Y-119295D01*
X27181Y-119364D01*
X27240Y-119422D01*
X27250Y-119442D01*
X27314Y-119535D01*
X27348Y-119560D01*
X27358Y-119580D01*
X27436Y-119658D01*
X27476Y-119727D01*
X27525Y-119776D01*
X27564Y-119844D01*
X27687Y-119967D01*
X27701Y-119972D01*
X27711Y-119992D01*
X27750Y-120060D01*
X27799Y-120109D01*
X27809Y-120129D01*
X27858Y-120198D01*
X27888Y-120227D01*
X27898Y-120247D01*
X27952Y-120330D01*
X27971Y-120340D01*
X27996Y-120365D01*
X28045Y-120453D01*
X28182Y-120590D01*
X28192Y-120610D01*
X28241Y-120679D01*
X28271Y-120708D01*
X28310Y-120777D01*
X28388Y-120855D01*
X28398Y-120875D01*
X28432Y-120899D01*
X28467Y-120934D01*
X28477Y-120953D01*
X28526Y-121022D01*
X28545Y-121042D01*
X28555Y-121061D01*
X28624Y-121150D01*
X28653Y-121179D01*
X28692Y-121248D01*
X28727Y-121272D01*
X28761Y-121307D01*
X28771Y-121326D01*
X28805Y-121370D01*
X28825Y-121380D01*
X28840Y-121395D01*
X28889Y-121483D01*
X28938Y-121532D01*
X28977Y-121601D01*
X29114Y-121739D01*
X29124Y-121778D01*
X29100Y-121812D01*
X29080Y-121822D01*
X29046Y-121856D01*
X29006Y-121925D01*
X28958Y-121964D01*
X28948Y-121984D01*
X28913Y-122018D01*
X28894Y-122028D01*
X28815Y-122146D01*
X28781Y-122180D01*
X28742Y-122249D01*
X28673Y-122318D01*
X28634Y-122386D01*
X28594Y-122425D01*
X28585Y-122445D01*
X28531Y-122499D01*
X28511Y-122509D01*
X28496Y-122523D01*
X28457Y-122592D01*
X28408Y-122641D01*
X28359Y-122730D01*
X28334Y-122754D01*
X28315Y-122764D01*
X28246Y-122872D01*
X28202Y-122916D01*
X28192Y-122936D01*
X28168Y-122960D01*
X28148Y-122970D01*
X28113Y-123004D01*
X28074Y-123073D01*
X28025Y-123122D01*
X27986Y-123191D01*
X27829Y-123348D01*
X27790Y-123416D01*
X27750Y-123456D01*
X27741Y-123475D01*
X27692Y-123544D01*
X27672Y-123564D01*
X27662Y-123583D01*
X27643Y-123603D01*
X27603Y-123672D01*
X27579Y-123696D01*
X27559Y-123706D01*
X27534Y-123731D01*
X27525Y-123750D01*
X27446Y-123829D01*
X27407Y-123897D01*
X27368Y-123937D01*
X27358Y-123956D01*
X27309Y-124025D01*
X27181Y-124153D01*
X27152Y-124231D01*
X27108Y-124275D01*
X27088Y-124285D01*
X27034Y-124368D01*
X26975Y-124427D01*
X26936Y-124496D01*
X26798Y-124633D01*
X26759Y-124702D01*
X26691Y-124771D01*
X26651Y-124839D01*
X26592Y-124898D01*
X26553Y-124967D01*
X26534Y-124987D01*
X26524Y-125006D01*
X26499Y-125031D01*
X26480Y-125041D01*
X26435Y-125085D01*
X26426Y-125104D01*
X26386Y-125173D01*
X26352Y-125207D01*
X26337Y-125212D01*
X26327Y-125232D01*
X26308Y-125252D01*
X26298Y-125281D01*
X26254Y-125335D01*
X26141Y-125448D01*
X26131Y-125468D01*
X26082Y-125536D01*
X26053Y-125566D01*
X26043Y-125585D01*
X25994Y-125654D01*
X25955Y-125693D01*
X25945Y-125713D01*
X25901Y-125767D01*
X25847Y-125811D01*
X25798Y-125880D01*
X25768Y-125909D01*
X25729Y-125978D01*
X25690Y-126017D01*
X25680Y-126037D01*
X25641Y-126096D01*
X25631Y-126115D01*
X25596Y-126149D01*
X25577Y-126159D01*
X25542Y-126194D01*
X25503Y-126262D01*
X25484Y-126282D01*
X25474Y-126302D01*
X25385Y-126390D01*
X25346Y-126459D01*
X25297Y-126508D01*
X25248Y-126596D01*
X25233Y-126611D01*
X25214Y-126621D01*
X25160Y-126675D01*
X25150Y-126694D01*
X25115Y-126719D01*
X25101Y-126733D01*
X25062Y-126802D01*
X25032Y-126832D01*
X25022Y-126851D01*
X25003Y-126871D01*
X24973Y-126920D01*
X24929Y-126974D01*
X24914Y-126989D01*
X24875Y-127057D01*
X24831Y-127101D01*
X24816Y-127106D01*
X24806Y-127126D01*
X24718Y-127214D01*
X24679Y-127283D01*
X24630Y-127332D01*
X24590Y-127401D01*
X24551Y-127440D01*
X24542Y-127460D01*
X24502Y-127528D01*
X24433Y-127597D01*
X24424Y-127617D01*
X24409Y-127641D01*
X24389Y-127651D01*
X24370Y-127671D01*
X24350Y-127680D01*
X24335Y-127695D01*
X24296Y-127764D01*
X24247Y-127813D01*
X24237Y-127832D01*
X24213Y-127857D01*
X24193Y-127867D01*
X24159Y-127901D01*
X24119Y-127970D01*
X24070Y-128019D01*
X24031Y-128088D01*
X23963Y-128156D01*
X23923Y-128225D01*
X23884Y-128264D01*
X23874Y-128284D01*
X23855Y-128304D01*
X23850Y-128318D01*
X23830Y-128328D01*
X23810Y-128348D01*
X23796Y-128353D01*
X23786Y-128372D01*
X23732Y-128456D01*
X23712Y-128465D01*
X23668Y-128539D01*
X23658Y-128559D01*
X23580Y-128637D01*
X23540Y-128706D01*
X23501Y-128745D01*
X23491Y-128765D01*
X23447Y-128809D01*
X23428Y-128819D01*
X23403Y-128843D01*
X23364Y-128912D01*
X23315Y-128961D01*
X23271Y-129044D01*
X23251Y-129054D01*
X23197Y-129098D01*
X23177Y-129148D01*
X23187Y-129187D01*
X23212Y-129211D01*
X23251Y-129221D01*
X31519Y-129216D01*
X31558Y-129246D01*
X31568Y-129285D01*
X31578Y-136871D01*
X31646Y-136959D01*
X32893Y-138205D01*
X32932Y-138274D01*
X32956Y-138298D01*
X32976Y-138308D01*
X33020Y-138352D01*
X33030Y-138372D01*
X33045Y-138387D01*
X33064Y-138397D01*
X33108Y-138441D01*
X33118Y-138460D01*
X33143Y-138485D01*
X33163Y-138495D01*
X33207Y-138539D01*
X33216Y-138558D01*
X33231Y-138573D01*
X33251Y-138583D01*
X33339Y-138652D01*
X33364Y-138676D01*
X33373Y-138696D01*
X33422Y-138765D01*
X33501Y-138814D01*
X33550Y-138863D01*
X33560Y-138882D01*
X33609Y-138951D01*
X33687Y-139000D01*
X33746Y-139059D01*
X33786Y-139128D01*
X33800Y-139142D01*
X33820Y-139152D01*
X33889Y-139201D01*
X33923Y-139236D01*
X33933Y-139255D01*
X33987Y-139329D01*
X34006Y-139339D01*
X34075Y-139388D01*
X34119Y-139432D01*
X34159Y-139501D01*
X34173Y-139515D01*
X34193Y-139525D01*
X34237Y-139569D01*
X34247Y-139589D01*
X34271Y-139613D01*
X34291Y-139623D01*
X34335Y-139667D01*
X34345Y-139687D01*
X34370Y-139712D01*
X34389Y-139721D01*
X34433Y-139766D01*
X34443Y-139785D01*
X34644Y-139986D01*
X34664Y-139996D01*
X34708Y-140040D01*
X34718Y-140060D01*
X34742Y-140085D01*
X34762Y-140094D01*
X34806Y-140138D01*
X34816Y-140158D01*
X34841Y-140183D01*
X34860Y-140192D01*
X34904Y-140237D01*
X34914Y-140256D01*
X34929Y-140271D01*
X34949Y-140281D01*
X34993Y-140325D01*
X35002Y-140345D01*
X35027Y-140369D01*
X35047Y-140379D01*
X35091Y-140423D01*
X35101Y-140443D01*
X35115Y-140457D01*
X35135Y-140467D01*
X35179Y-140511D01*
X35189Y-140531D01*
X35214Y-140556D01*
X35233Y-140565D01*
X35277Y-140610D01*
X35287Y-140629D01*
X35312Y-140654D01*
X35331Y-140664D01*
X35375Y-140708D01*
X35385Y-140727D01*
X35400Y-140742D01*
X35419Y-140752D01*
X35464Y-140796D01*
X35473Y-140816D01*
X35498Y-140840D01*
X35518Y-140850D01*
X35562Y-140894D01*
X35572Y-140914D01*
X35586Y-140928D01*
X35606Y-140938D01*
X35650Y-140982D01*
X35660Y-141002D01*
X35994Y-141336D01*
X36003Y-141355D01*
X36048Y-141409D01*
X36116Y-141448D01*
X36141Y-141483D01*
X36254Y-141596D01*
X36273Y-141605D01*
X36322Y-141684D01*
X36391Y-141733D01*
X36440Y-141782D01*
X36455Y-141787D01*
X36465Y-141807D01*
X36519Y-141880D01*
X36538Y-141890D01*
X36592Y-141944D01*
X36602Y-141964D01*
X36617Y-141979D01*
X36685Y-142018D01*
X36735Y-142077D01*
X36813Y-142155D01*
X36833Y-142165D01*
X36887Y-142248D01*
X36901Y-142263D01*
X36921Y-142273D01*
X36965Y-142317D01*
X36975Y-142337D01*
X36990Y-142351D01*
X37009Y-142361D01*
X37063Y-142415D01*
X37073Y-142435D01*
X37107Y-142469D01*
X37127Y-142479D01*
X37176Y-142538D01*
X37196Y-142557D01*
X37215Y-142567D01*
X37230Y-142582D01*
X37240Y-142602D01*
X37294Y-142656D01*
X37314Y-142665D01*
X37328Y-142680D01*
X37338Y-142700D01*
X37382Y-142744D01*
X37402Y-142754D01*
X37416Y-142768D01*
X37426Y-142788D01*
X37480Y-142842D01*
X37500Y-142852D01*
X37515Y-142867D01*
X37525Y-142886D01*
X37569Y-142930D01*
X37588Y-142940D01*
X37613Y-142965D01*
X37623Y-142984D01*
X37667Y-143028D01*
X37686Y-143038D01*
X37701Y-143053D01*
X37711Y-143073D01*
X37765Y-143127D01*
X37784Y-143136D01*
X37799Y-143151D01*
X37809Y-143171D01*
X37853Y-143215D01*
X37873Y-143225D01*
X37888Y-143239D01*
X37897Y-143259D01*
X37951Y-143313D01*
X37971Y-143323D01*
X37986Y-143338D01*
X37995Y-143357D01*
X38050Y-143411D01*
X38069Y-143421D01*
X38084Y-143436D01*
X38094Y-143455D01*
X38138Y-143500D01*
X38157Y-143509D01*
X38172Y-143524D01*
X38182Y-143544D01*
X38226Y-143588D01*
X53088Y-143593D01*
X53128Y-143583D01*
X53187Y-143534D01*
X53903Y-142817D01*
X53913Y-142798D01*
X53957Y-142744D01*
X53977Y-142734D01*
X54031Y-142690D01*
X55316Y-141404D01*
X55326Y-141385D01*
X55370Y-141331D01*
X55390Y-141321D01*
X55444Y-141277D01*
X56729Y-139991D01*
X56739Y-139972D01*
X56783Y-139918D01*
X56803Y-139908D01*
X56857Y-139864D01*
X58142Y-138578D01*
X58152Y-138558D01*
X58196Y-138505D01*
X58216Y-138495D01*
X58270Y-138451D01*
X59555Y-137165D01*
X59565Y-137145D01*
X59609Y-137091D01*
X59629Y-137082D01*
X59683Y-137037D01*
X59737Y-136984D01*
X59757Y-136974D01*
X59791Y-136910D01*
X59811Y-136841D01*
X59816Y-129427D01*
X59796Y-129378D01*
X59781Y-129334D01*
X59791Y-129275D01*
X59816Y-129251D01*
X59864Y-129231D01*
X59933Y-129221D01*
X68147Y-129231D01*
X68167Y-129241D01*
X68201Y-129216D01*
X68191Y-129177D01*
X68123Y-129049D01*
X68054Y-128981D01*
X68015Y-128912D01*
X67877Y-128775D01*
X67838Y-128706D01*
X67759Y-128627D01*
X67754Y-128613D01*
X67735Y-128603D01*
X67681Y-128549D01*
X67642Y-128480D01*
X67602Y-128441D01*
X67593Y-128421D01*
X67544Y-128353D01*
X67494Y-128304D01*
X67455Y-128235D01*
X67421Y-128210D01*
X67387Y-128176D01*
X67377Y-128156D01*
X67342Y-128112D01*
X67323Y-128102D01*
X67278Y-128029D01*
X67269Y-128009D01*
X67210Y-127950D01*
X67171Y-127882D01*
X67146Y-127857D01*
X67131Y-127852D01*
X67121Y-127832D01*
X67072Y-127764D01*
X67058Y-127749D01*
X67038Y-127739D01*
X67023Y-127725D01*
X67014Y-127705D01*
X66969Y-127651D01*
X66925Y-127607D01*
X66876Y-127518D01*
X66837Y-127479D01*
X66827Y-127460D01*
X66783Y-127406D01*
X66749Y-127371D01*
X66739Y-127352D01*
X66695Y-127288D01*
X66675Y-127278D01*
X66641Y-127244D01*
X66631Y-127224D01*
X66587Y-127170D01*
X66543Y-127126D01*
X66503Y-127057D01*
X66464Y-127018D01*
X66454Y-126998D01*
X66405Y-126930D01*
X66390Y-126915D01*
X66371Y-126905D01*
X66346Y-126881D01*
X66336Y-126861D01*
X66287Y-126812D01*
X66277Y-126792D01*
X66224Y-126709D01*
X66204Y-126699D01*
X66179Y-126675D01*
X66130Y-126586D01*
X66081Y-126537D01*
X66042Y-126469D01*
X66027Y-126454D01*
X66008Y-126444D01*
X65954Y-126390D01*
X65944Y-126370D01*
X65895Y-126321D01*
X65856Y-126253D01*
X65797Y-126194D01*
X65757Y-126125D01*
X65620Y-125988D01*
X65610Y-125968D01*
X65556Y-125885D01*
X65541Y-125880D01*
X65532Y-125860D01*
X65492Y-125801D01*
X65483Y-125782D01*
X65458Y-125757D01*
X65438Y-125747D01*
X65370Y-125639D01*
X65237Y-125507D01*
X65198Y-125438D01*
X65174Y-125414D01*
X65154Y-125404D01*
X65129Y-125360D01*
X65100Y-125311D01*
X65031Y-125242D01*
X65021Y-125222D01*
X65007Y-125207D01*
X64987Y-125198D01*
X64953Y-125163D01*
X64913Y-125095D01*
X64869Y-125041D01*
X64855Y-125026D01*
X64845Y-125006D01*
X64801Y-124952D01*
X64766Y-124918D01*
X64727Y-124849D01*
X64712Y-124835D01*
X64693Y-124825D01*
X64658Y-124790D01*
X64648Y-124771D01*
X64604Y-124717D01*
X64570Y-124682D01*
X64531Y-124614D01*
X64491Y-124574D01*
X64482Y-124555D01*
X64433Y-124486D01*
X64403Y-124457D01*
X64393Y-124437D01*
X64339Y-124354D01*
X64320Y-124344D01*
X64295Y-124319D01*
X64285Y-124300D01*
X64241Y-124256D01*
X64222Y-124246D01*
X64197Y-124221D01*
X64148Y-124133D01*
X64099Y-124084D01*
X64060Y-124015D01*
X64021Y-123976D01*
X64011Y-123956D01*
X63962Y-123888D01*
X63814Y-123740D01*
X63775Y-123672D01*
X63736Y-123632D01*
X63726Y-123613D01*
X63677Y-123544D01*
X63652Y-123520D01*
X63633Y-123510D01*
X63618Y-123495D01*
X63608Y-123475D01*
X63589Y-123456D01*
X63579Y-123436D01*
X63540Y-123397D01*
X63500Y-123328D01*
X63486Y-123313D01*
X63466Y-123304D01*
X63451Y-123289D01*
X63441Y-123269D01*
X63402Y-123201D01*
X63353Y-123152D01*
X63343Y-123132D01*
X63294Y-123063D01*
X63167Y-122936D01*
X63127Y-122867D01*
X63069Y-122808D01*
X63059Y-122789D01*
X62995Y-122695D01*
X62961Y-122661D01*
X62921Y-122592D01*
X62907Y-122578D01*
X62887Y-122568D01*
X62872Y-122553D01*
X62862Y-122533D01*
X62784Y-122455D01*
X62745Y-122386D01*
X62686Y-122327D01*
X62676Y-122308D01*
X62627Y-122239D01*
X62529Y-122141D01*
X62519Y-122121D01*
X62470Y-122053D01*
X62401Y-121984D01*
X62372Y-121935D01*
X62337Y-121900D01*
X62323Y-121896D01*
X62313Y-121876D01*
X62274Y-121817D01*
X62264Y-121778D01*
X62274Y-121739D01*
X62313Y-121670D01*
X62357Y-121616D01*
X62470Y-121503D01*
X62480Y-121483D01*
X62529Y-121415D01*
X62558Y-121385D01*
X62568Y-121366D01*
X62607Y-121297D01*
X62632Y-121272D01*
X62651Y-121263D01*
X62691Y-121204D01*
X62774Y-121120D01*
X62804Y-121071D01*
X62853Y-121022D01*
X62862Y-121002D01*
X62912Y-120934D01*
X62951Y-120895D01*
X62990Y-120826D01*
X63039Y-120777D01*
X63049Y-120757D01*
X63093Y-120703D01*
X63137Y-120669D01*
X63147Y-120649D01*
X63196Y-120580D01*
X63235Y-120541D01*
X63245Y-120522D01*
X63289Y-120468D01*
X63304Y-120453D01*
X63314Y-120433D01*
X63378Y-120340D01*
X63422Y-120296D01*
X63432Y-120276D01*
X63466Y-120232D01*
X63486Y-120222D01*
X63520Y-120198D01*
X63530Y-120178D01*
X63579Y-120109D01*
X63608Y-120080D01*
X63648Y-120011D01*
X63785Y-119874D01*
X63795Y-119854D01*
X63834Y-119786D01*
X63883Y-119746D01*
X63932Y-119658D01*
X63991Y-119599D01*
X64030Y-119530D01*
X64079Y-119481D01*
X64119Y-119413D01*
X64153Y-119378D01*
X64173Y-119369D01*
X64197Y-119334D01*
X64276Y-119256D01*
X64315Y-119187D01*
X64354Y-119148D01*
X64364Y-119128D01*
X64413Y-119059D01*
X64531Y-118942D01*
X64541Y-118922D01*
X64604Y-118829D01*
X64639Y-118804D01*
X64648Y-118785D01*
X64688Y-118716D01*
X64835Y-118569D01*
X64874Y-118500D01*
X64923Y-118451D01*
X64963Y-118382D01*
X65061Y-118284D01*
X65090Y-118235D01*
X65154Y-118152D01*
X65174Y-118142D01*
X65198Y-118117D01*
X65208Y-118098D01*
X65257Y-118029D01*
X65286Y-118000D01*
X65296Y-117980D01*
X65336Y-117911D01*
X65404Y-117843D01*
X65414Y-117823D01*
X65438Y-117789D01*
X65458Y-117779D01*
X65502Y-117735D01*
X65537Y-117671D01*
X65556Y-117661D01*
X65591Y-117627D01*
X65630Y-117558D01*
X65669Y-117519D01*
X65679Y-117499D01*
X65718Y-117430D01*
X65733Y-117416D01*
X65753Y-117406D01*
X65807Y-117352D01*
X65816Y-117332D01*
X65831Y-117318D01*
X65851Y-117308D01*
X65865Y-117293D01*
X65875Y-117273D01*
X65924Y-117205D01*
X65944Y-117185D01*
X65954Y-117166D01*
X66003Y-117097D01*
X66013Y-117077D01*
X66150Y-116940D01*
X66189Y-116871D01*
X66248Y-116812D01*
X66258Y-116793D01*
X66307Y-116724D01*
X66346Y-116685D01*
X66356Y-116665D01*
X66449Y-116542D01*
X66469Y-116533D01*
X66513Y-116488D01*
X66523Y-116469D01*
X66562Y-116400D01*
X66587Y-116376D01*
X66606Y-116366D01*
X66621Y-116351D01*
X66670Y-116263D01*
X66719Y-116214D01*
X66758Y-116145D01*
X66896Y-116007D01*
X66906Y-115988D01*
X66955Y-115919D01*
X67004Y-115870D01*
X67043Y-115801D01*
X67112Y-115733D01*
X67121Y-115713D01*
X67156Y-115689D01*
X67180Y-115664D01*
X67220Y-115595D01*
X67259Y-115556D01*
X67269Y-115536D01*
X67333Y-115443D01*
X67387Y-115389D01*
X67426Y-115321D01*
X67563Y-115183D01*
X67602Y-115114D01*
X67651Y-115065D01*
X67700Y-114977D01*
X67735Y-114953D01*
X67789Y-114899D01*
X67799Y-114879D01*
X67833Y-114854D01*
X67848Y-114840D01*
X67887Y-114771D01*
X67916Y-114742D01*
X67926Y-114722D01*
X67946Y-114702D01*
X67985Y-114634D01*
X68034Y-114585D01*
X68073Y-114516D01*
X68108Y-114481D01*
X68127Y-114472D01*
X68152Y-114447D01*
X68162Y-114427D01*
X68201Y-114339D01*
X68176Y-114315D01*
X68137Y-114305D01*
X68039Y-114315D01*
X68010Y-114324D01*
X67970Y-114334D01*
X67813Y-114324D01*
X59909Y-114329D01*
X59869Y-114320D01*
X59835Y-114295D01*
X59820Y-114280D01*
X59811Y-114241D01*
X59806Y-111901D01*
X59820Y-111866D01*
X59874Y-111842D01*
X59973Y-111832D01*
X60002Y-111842D01*
X62524Y-111832D01*
X62568Y-111798D01*
X62578Y-111758D01*
X62588Y-111611D01*
X62578Y-111582D01*
X62583Y-110380D01*
X62573Y-110321D01*
X62568Y-110257D01*
X62578Y-110227D01*
X62588Y-110129D01*
X62578Y-109943D01*
X62568Y-109913D01*
X62583Y-109820D01*
X62588Y-109619D01*
X62578Y-109590D01*
X62568Y-109521D01*
X62578Y-109452D01*
X62588Y-109413D01*
X62578Y-109197D01*
X62568Y-109168D01*
X62578Y-109070D01*
X62588Y-109040D01*
Y-108971D01*
Y-108961D01*
X62578Y-108746D01*
X62583Y-107553D01*
X62573Y-107494D01*
X62568Y-107431D01*
X62578Y-107401D01*
X62588Y-107303D01*
X62578Y-107117D01*
X62568Y-107087D01*
X62583Y-106994D01*
X62588Y-106793D01*
X62578Y-106763D01*
X62568Y-106695D01*
X62578Y-106626D01*
X62588Y-106587D01*
X62578Y-106371D01*
X62568Y-106341D01*
X62578Y-106243D01*
X62588Y-106214D01*
X62578Y-105762D01*
X62583Y-104531D01*
X62573Y-104482D01*
X62568Y-104408D01*
X62578Y-104379D01*
X62588Y-104310D01*
X62578Y-104104D01*
X62568Y-104075D01*
X62583Y-103981D01*
X62588Y-103780D01*
X62578Y-103751D01*
X62568Y-103682D01*
X62578Y-103613D01*
X62588Y-103574D01*
X62578Y-103348D01*
X62568Y-103319D01*
X62583Y-103216D01*
X62588Y-103132D01*
X62578Y-103103D01*
X62583Y-102666D01*
X62578Y-102563D01*
X62588Y-102534D01*
X62578Y-102426D01*
X62553Y-102401D01*
X62485Y-102392D01*
X62416Y-102401D01*
X62176Y-102396D01*
X62117Y-102406D01*
X62014Y-102411D01*
X61984Y-102401D01*
X61930Y-102396D01*
X61837Y-102401D01*
X61808Y-102392D01*
X61778Y-102401D01*
X61680Y-102411D01*
X61577Y-102396D01*
X61552Y-102392D01*
X61523Y-102401D01*
X61430Y-102396D01*
X61297Y-102411D01*
X61165Y-102396D01*
X59394Y-102401D01*
X59364Y-102392D01*
X59325Y-102401D01*
X59227Y-102411D01*
X59124Y-102396D01*
X59109Y-102392D01*
X59079Y-102401D01*
X58976Y-102396D01*
X58918Y-102406D01*
X58815Y-102411D01*
X58785Y-102401D01*
X58721Y-102396D01*
X58628Y-102401D01*
X58608Y-102392D01*
X58579Y-102401D01*
X58451Y-102411D01*
X58412Y-102401D01*
X58339Y-102396D01*
X56567Y-102401D01*
X56538Y-102392D01*
X56499Y-102401D01*
X56400Y-102411D01*
X56297Y-102396D01*
X56283Y-102392D01*
X56253Y-102401D01*
X56150Y-102396D01*
X56091Y-102406D01*
X55988Y-102411D01*
X55959Y-102401D01*
X55895Y-102396D01*
X55802Y-102401D01*
X55782Y-102392D01*
X55753Y-102401D01*
X55625Y-102411D01*
X55586Y-102401D01*
X55512Y-102396D01*
X53741Y-102401D01*
X53712Y-102392D01*
X53672Y-102401D01*
X53574Y-102411D01*
X53471Y-102396D01*
X53456Y-102392D01*
X53427Y-102401D01*
X53324Y-102396D01*
X53265Y-102406D01*
X53162Y-102411D01*
X53133Y-102401D01*
X53069Y-102396D01*
X52976Y-102401D01*
X52956Y-102392D01*
X52926Y-102401D01*
X52799Y-102411D01*
X52760Y-102401D01*
X52686Y-102396D01*
X50915Y-102401D01*
X50885Y-102392D01*
X50846Y-102401D01*
X50748Y-102411D01*
X50645Y-102396D01*
X50630Y-102392D01*
X50601Y-102401D01*
X50498Y-102396D01*
X50439Y-102406D01*
X50336Y-102411D01*
X50306Y-102401D01*
X50243Y-102396D01*
X50149Y-102401D01*
X50130Y-102392D01*
X50100Y-102401D01*
X49973Y-102411D01*
X49933Y-102401D01*
X49860Y-102396D01*
X49006Y-102406D01*
X48977Y-102426D01*
X48967Y-102465D01*
X48957Y-111641D01*
X48937Y-111690D01*
X48947Y-111768D01*
X49001Y-111822D01*
X49080Y-111842D01*
X49526Y-111837D01*
X49575Y-111847D01*
X49624Y-111876D01*
X49634Y-111945D01*
X49624Y-111974D01*
X49615Y-114280D01*
X49580Y-114315D01*
X49502Y-114334D01*
X49374Y-114324D01*
X41813Y-114329D01*
X41779Y-114305D01*
X41725Y-114251D01*
X41715Y-114212D01*
X41725Y-114133D01*
X41744Y-114084D01*
X41754Y-113986D01*
X41744Y-113956D01*
X41754Y-113888D01*
X41725Y-113780D01*
X41734Y-113711D01*
X41744Y-113682D01*
X41754Y-113643D01*
X41749Y-113559D01*
X41754Y-113495D01*
X41744Y-113466D01*
X41725Y-113397D01*
X41734Y-113338D01*
X41744Y-113309D01*
X41754Y-113270D01*
X41744Y-113113D01*
X41749Y-111999D01*
X41744Y-111886D01*
X41769Y-111852D01*
X41837Y-111832D01*
X41906Y-111842D01*
X42377Y-111832D01*
X42402Y-111807D01*
X42412Y-111768D01*
X42407Y-111655D01*
X42412Y-102612D01*
X42402Y-102583D01*
X42412Y-102544D01*
X42402Y-102445D01*
X42377Y-102421D01*
X42299Y-102401D01*
X42019Y-102396D01*
X41960Y-102406D01*
X41857Y-102411D01*
X41828Y-102401D01*
X41764Y-102396D01*
X41671Y-102401D01*
X41651Y-102392D01*
X41622Y-102401D01*
X41494Y-102411D01*
X41455Y-102401D01*
X41381Y-102396D01*
X39610Y-102401D01*
X39580Y-102392D01*
X39541Y-102401D01*
X39443Y-102411D01*
X39340Y-102396D01*
X39325Y-102392D01*
X39296Y-102401D01*
X39193Y-102396D01*
X39134Y-102406D01*
X39031Y-102411D01*
X39001Y-102401D01*
X38938Y-102396D01*
X38844Y-102401D01*
X38825Y-102392D01*
X38795Y-102401D01*
X38668Y-102411D01*
X38629Y-102401D01*
X38555Y-102396D01*
X36784Y-102401D01*
X36754Y-102392D01*
X36715Y-102401D01*
X36617Y-102411D01*
X36514Y-102396D01*
X36499Y-102392D01*
X36470Y-102401D01*
X36367Y-102396D01*
X36308Y-102406D01*
X36205Y-102411D01*
X36175Y-102401D01*
X36111Y-102396D01*
X36018Y-102401D01*
X35998Y-102392D01*
X35969Y-102401D01*
X35842Y-102411D01*
X35802Y-102401D01*
X35729Y-102396D01*
X33957Y-102401D01*
X33928Y-102392D01*
X33889Y-102401D01*
X33790Y-102411D01*
X33687Y-102396D01*
X33673Y-102392D01*
X33643Y-102401D01*
X33540Y-102396D01*
X33481Y-102406D01*
X33378Y-102411D01*
X33349Y-102401D01*
X33285Y-102396D01*
X33192Y-102401D01*
X33172Y-102392D01*
X33143Y-102401D01*
X33015Y-102411D01*
X32976Y-102401D01*
X32902Y-102396D01*
X31131Y-102401D01*
X31102Y-102392D01*
X31062Y-102401D01*
X30964Y-102411D01*
X30861Y-102396D01*
X30847Y-102392D01*
X30817Y-102401D01*
X30714Y-102396D01*
X30655Y-102406D01*
X30552Y-102411D01*
X30523Y-102401D01*
X30459Y-102396D01*
X30366Y-102401D01*
X30346Y-102392D01*
X30317Y-102401D01*
X30189Y-102411D01*
X30150Y-102401D01*
X30076Y-102396D01*
X28874Y-102401D01*
X28864Y-102392D01*
X28835Y-102401D01*
D02*
G37*
G36*
X-28805Y-128854D02*
X-29709D01*
Y-127944D01*
X-28805D01*
Y-128854D01*
D02*
G37*
G36*
X-53896Y-131951D02*
X-53902Y-132040D01*
X-53913Y-132123D01*
X-53935Y-132195D01*
X-53957Y-132268D01*
X-53974Y-132323D01*
X-53996Y-132362D01*
X-54007Y-132390D01*
X-54013Y-132401D01*
X-54063Y-132473D01*
X-54118Y-132539D01*
X-54168Y-132595D01*
X-54224Y-132639D01*
X-54268Y-132678D01*
X-54307Y-132706D01*
X-54329Y-132723D01*
X-54340Y-132728D01*
X-54423Y-132767D01*
X-54501Y-132795D01*
X-54579Y-132817D01*
X-54651Y-132828D01*
X-54712Y-132839D01*
X-54756Y-132845D01*
X-56743D01*
Y-133239D01*
X-56738Y-133261D01*
X-56732Y-133267D01*
X-56716Y-133278D01*
X-54496D01*
X-54501Y-134193D01*
X-56749Y-134188D01*
X-56838Y-134182D01*
X-56927Y-134171D01*
X-57004Y-134149D01*
X-57071Y-134127D01*
X-57126Y-134105D01*
X-57171Y-134082D01*
X-57193Y-134071D01*
X-57204Y-134066D01*
X-57276Y-134016D01*
X-57343Y-133966D01*
X-57398Y-133910D01*
X-57443Y-133860D01*
X-57481Y-133816D01*
X-57509Y-133777D01*
X-57526Y-133755D01*
X-57531Y-133744D01*
X-57570Y-133666D01*
X-57604Y-133588D01*
X-57620Y-133511D01*
X-57637Y-133439D01*
X-57642Y-133378D01*
X-57648Y-133333D01*
Y-133300D01*
Y-133289D01*
Y-129165D01*
X-56743D01*
Y-131907D01*
X-56738Y-131929D01*
X-56732Y-131934D01*
X-56716Y-131940D01*
X-54840D01*
X-54817Y-131934D01*
X-54806D01*
X-54801Y-131918D01*
Y-131907D01*
Y-129165D01*
X-53896D01*
Y-131951D01*
D02*
G37*
G36*
X-14741Y-132845D02*
X-18404D01*
X-18498Y-132839D01*
X-18582Y-132828D01*
X-18665Y-132806D01*
X-18731Y-132784D01*
X-18787Y-132762D01*
X-18831Y-132739D01*
X-18854Y-132728D01*
X-18865Y-132723D01*
X-18942Y-132673D01*
X-19009Y-132617D01*
X-19064Y-132567D01*
X-19114Y-132512D01*
X-19153Y-132467D01*
X-19181Y-132429D01*
X-19198Y-132406D01*
X-19203Y-132395D01*
X-19248Y-132312D01*
X-19275Y-132234D01*
X-19297Y-132157D01*
X-19314Y-132084D01*
X-19325Y-132023D01*
X-19331Y-131973D01*
Y-131940D01*
Y-131929D01*
Y-129176D01*
X-19325Y-129082D01*
X-19309Y-128999D01*
X-19292Y-128915D01*
X-19270Y-128849D01*
X-19242Y-128793D01*
X-19225Y-128749D01*
X-19209Y-128727D01*
X-19203Y-128716D01*
X-19153Y-128643D01*
X-19098Y-128577D01*
X-19042Y-128521D01*
X-18987Y-128477D01*
X-18937Y-128438D01*
X-18898Y-128410D01*
X-18876Y-128394D01*
X-18865Y-128388D01*
X-18787Y-128344D01*
X-18704Y-128316D01*
X-18632Y-128294D01*
X-18559Y-128277D01*
X-18498Y-128266D01*
X-18448Y-128260D01*
X-14741D01*
Y-132845D01*
D02*
G37*
G36*
X-20824Y-129159D02*
X-20741Y-129171D01*
X-20663Y-129193D01*
X-20596Y-129215D01*
X-20541Y-129237D01*
X-20502Y-129259D01*
X-20474Y-129271D01*
X-20463Y-129276D01*
X-20391Y-129326D01*
X-20330Y-129376D01*
X-20274Y-129431D01*
X-20224Y-129487D01*
X-20186Y-129531D01*
X-20158Y-129570D01*
X-20141Y-129592D01*
X-20135Y-129604D01*
X-20097Y-129681D01*
X-20063Y-129759D01*
X-20041Y-129837D01*
X-20030Y-129903D01*
X-20019Y-129964D01*
X-20013Y-130014D01*
Y-130042D01*
Y-130048D01*
Y-130053D01*
Y-131951D01*
X-20019Y-132040D01*
X-20030Y-132123D01*
X-20052Y-132195D01*
X-20075Y-132262D01*
X-20097Y-132317D01*
X-20119Y-132362D01*
X-20130Y-132384D01*
X-20135Y-132395D01*
X-20186Y-132467D01*
X-20241Y-132534D01*
X-20297Y-132589D01*
X-20346Y-132634D01*
X-20391Y-132673D01*
X-20430Y-132700D01*
X-20452Y-132717D01*
X-20463Y-132723D01*
X-20541Y-132762D01*
X-20618Y-132795D01*
X-20696Y-132817D01*
X-20763Y-132828D01*
X-20824Y-132839D01*
X-20874Y-132845D01*
X-23760D01*
X-23765Y-131940D01*
X-20957D01*
X-20935Y-131934D01*
X-20929D01*
X-20918Y-131918D01*
Y-131907D01*
Y-131457D01*
X-23765Y-131452D01*
X-23760Y-130053D01*
X-23754Y-129964D01*
X-23743Y-129881D01*
X-23721Y-129803D01*
X-23704Y-129737D01*
X-23682Y-129681D01*
X-23660Y-129637D01*
X-23649Y-129615D01*
X-23643Y-129604D01*
X-23599Y-129531D01*
X-23543Y-129465D01*
X-23488Y-129409D01*
X-23438Y-129359D01*
X-23393Y-129326D01*
X-23355Y-129298D01*
X-23332Y-129282D01*
X-23321Y-129276D01*
X-23244Y-129237D01*
X-23160Y-129204D01*
X-23088Y-129182D01*
X-23016Y-129171D01*
X-22955Y-129159D01*
X-22905Y-129154D01*
X-20912D01*
X-20824Y-129159D01*
D02*
G37*
G36*
X-25214D02*
X-25131Y-129171D01*
X-25058Y-129193D01*
X-24992Y-129215D01*
X-24936Y-129237D01*
X-24892Y-129259D01*
X-24870Y-129271D01*
X-24859Y-129276D01*
X-24786Y-129326D01*
X-24720Y-129376D01*
X-24664Y-129431D01*
X-24620Y-129487D01*
X-24581Y-129531D01*
X-24553Y-129570D01*
X-24537Y-129592D01*
X-24531Y-129604D01*
X-24492Y-129681D01*
X-24459Y-129759D01*
X-24437Y-129837D01*
X-24426Y-129903D01*
X-24415Y-129964D01*
X-24409Y-130014D01*
Y-130042D01*
Y-130048D01*
Y-130053D01*
Y-130553D01*
X-24415Y-130641D01*
X-24426Y-130725D01*
X-24448Y-130802D01*
X-24470Y-130869D01*
X-24492Y-130924D01*
X-24514Y-130963D01*
X-24526Y-130991D01*
X-24531Y-131002D01*
X-24581Y-131074D01*
X-24637Y-131141D01*
X-24687Y-131196D01*
X-24742Y-131241D01*
X-24786Y-131280D01*
X-24825Y-131307D01*
X-24848Y-131324D01*
X-24859Y-131330D01*
X-24936Y-131368D01*
X-25014Y-131402D01*
X-25092Y-131424D01*
X-25158Y-131441D01*
X-25214Y-131446D01*
X-25264Y-131452D01*
X-25291Y-131457D01*
X-27223D01*
X-27234Y-131463D01*
X-27240Y-131468D01*
X-27251Y-131485D01*
Y-131491D01*
Y-131907D01*
X-27245Y-131929D01*
X-27240Y-131934D01*
X-27223Y-131940D01*
X-25352D01*
X-25330Y-131934D01*
X-25319D01*
X-25314Y-131918D01*
Y-131907D01*
Y-131785D01*
X-24409D01*
Y-131951D01*
X-24415Y-132040D01*
X-24426Y-132123D01*
X-24448Y-132195D01*
X-24470Y-132262D01*
X-24492Y-132317D01*
X-24514Y-132362D01*
X-24526Y-132384D01*
X-24531Y-132395D01*
X-24581Y-132467D01*
X-24637Y-132534D01*
X-24687Y-132589D01*
X-24742Y-132634D01*
X-24786Y-132673D01*
X-24825Y-132700D01*
X-24848Y-132717D01*
X-24859Y-132723D01*
X-24936Y-132762D01*
X-25014Y-132795D01*
X-25092Y-132817D01*
X-25158Y-132828D01*
X-25214Y-132839D01*
X-25264Y-132845D01*
X-27256D01*
X-27351Y-132839D01*
X-27434Y-132828D01*
X-27512Y-132806D01*
X-27578Y-132784D01*
X-27634Y-132762D01*
X-27678Y-132739D01*
X-27700Y-132728D01*
X-27711Y-132723D01*
X-27783Y-132673D01*
X-27845Y-132617D01*
X-27905Y-132567D01*
X-27950Y-132512D01*
X-27989Y-132467D01*
X-28016Y-132429D01*
X-28033Y-132406D01*
X-28039Y-132395D01*
X-28083Y-132317D01*
X-28111Y-132240D01*
X-28133Y-132162D01*
X-28150Y-132096D01*
X-28155Y-132040D01*
X-28161Y-131990D01*
Y-131962D01*
Y-131951D01*
Y-131446D01*
X-28155Y-131357D01*
X-28144Y-131274D01*
X-28128Y-131196D01*
X-28100Y-131130D01*
X-28078Y-131074D01*
X-28061Y-131030D01*
X-28044Y-131008D01*
X-28039Y-130997D01*
X-27989Y-130924D01*
X-27933Y-130858D01*
X-27878Y-130802D01*
X-27828Y-130758D01*
X-27783Y-130719D01*
X-27745Y-130691D01*
X-27722Y-130675D01*
X-27711Y-130669D01*
X-27634Y-130630D01*
X-27556Y-130597D01*
X-27478Y-130575D01*
X-27412Y-130558D01*
X-27345Y-130547D01*
X-27301Y-130542D01*
X-25330D01*
X-25319Y-130536D01*
X-25314Y-130514D01*
Y-130508D01*
Y-130097D01*
Y-130081D01*
X-25319Y-130075D01*
Y-130070D01*
X-25341Y-130059D01*
X-27212D01*
X-27234Y-130064D01*
X-27240Y-130070D01*
X-27245Y-130075D01*
X-27251Y-130086D01*
Y-130092D01*
Y-130097D01*
Y-130214D01*
X-28166D01*
X-28161Y-130053D01*
X-28155Y-129964D01*
X-28144Y-129881D01*
X-28128Y-129803D01*
X-28100Y-129737D01*
X-28078Y-129681D01*
X-28061Y-129637D01*
X-28044Y-129615D01*
X-28039Y-129604D01*
X-27989Y-129531D01*
X-27933Y-129465D01*
X-27878Y-129409D01*
X-27828Y-129365D01*
X-27783Y-129326D01*
X-27745Y-129298D01*
X-27722Y-129282D01*
X-27711Y-129276D01*
X-27634Y-129237D01*
X-27556Y-129204D01*
X-27478Y-129182D01*
X-27412Y-129171D01*
X-27345Y-129159D01*
X-27301Y-129154D01*
X-25303D01*
X-25214Y-129159D01*
D02*
G37*
G36*
X-28805Y-132845D02*
X-29709D01*
Y-129154D01*
X-28805D01*
Y-132845D01*
D02*
G37*
G36*
X-34610D02*
X-35520D01*
Y-130097D01*
Y-130081D01*
X-35526Y-130075D01*
X-35531Y-130070D01*
X-35548Y-130059D01*
X-37418D01*
X-37440Y-130064D01*
X-37446Y-130070D01*
X-37451Y-130075D01*
X-37457Y-130086D01*
Y-130092D01*
Y-130097D01*
Y-132845D01*
X-38367D01*
X-38362Y-130053D01*
X-38356Y-129964D01*
X-38345Y-129881D01*
X-38328Y-129803D01*
X-38301Y-129737D01*
X-38278Y-129681D01*
X-38262Y-129637D01*
X-38245Y-129615D01*
X-38240Y-129604D01*
X-38190Y-129531D01*
X-38140Y-129465D01*
X-38084Y-129409D01*
X-38029Y-129365D01*
X-37984Y-129326D01*
X-37946Y-129298D01*
X-37923Y-129282D01*
X-37912Y-129276D01*
X-37835Y-129237D01*
X-37757Y-129204D01*
X-37679Y-129182D01*
X-37613Y-129171D01*
X-37551Y-129159D01*
X-37501Y-129154D01*
X-34610D01*
Y-132845D01*
D02*
G37*
G36*
X-39838Y-129159D02*
X-39755Y-129171D01*
X-39677Y-129193D01*
X-39610Y-129215D01*
X-39555Y-129237D01*
X-39516Y-129259D01*
X-39488Y-129271D01*
X-39477Y-129276D01*
X-39405Y-129326D01*
X-39344Y-129376D01*
X-39289Y-129431D01*
X-39239Y-129487D01*
X-39200Y-129531D01*
X-39172Y-129570D01*
X-39155Y-129592D01*
X-39150Y-129604D01*
X-39111Y-129681D01*
X-39078Y-129759D01*
X-39055Y-129837D01*
X-39044Y-129903D01*
X-39033Y-129964D01*
X-39028Y-130014D01*
Y-130042D01*
Y-130048D01*
Y-130053D01*
Y-131951D01*
X-39033Y-132040D01*
X-39044Y-132123D01*
X-39067Y-132195D01*
X-39089Y-132262D01*
X-39111Y-132317D01*
X-39133Y-132362D01*
X-39144Y-132384D01*
X-39150Y-132395D01*
X-39200Y-132467D01*
X-39255Y-132534D01*
X-39311Y-132589D01*
X-39361Y-132634D01*
X-39405Y-132673D01*
X-39444Y-132700D01*
X-39466Y-132717D01*
X-39477Y-132723D01*
X-39555Y-132762D01*
X-39633Y-132795D01*
X-39710Y-132817D01*
X-39777Y-132828D01*
X-39838Y-132839D01*
X-39888Y-132845D01*
X-42774Y-132845D01*
X-42779Y-131940D01*
X-39971Y-131940D01*
X-39949Y-131934D01*
X-39944D01*
X-39932Y-131918D01*
Y-131907D01*
Y-131457D01*
X-42779Y-131452D01*
X-42774Y-130053D01*
X-42768Y-129964D01*
X-42757Y-129881D01*
X-42735Y-129803D01*
X-42718Y-129737D01*
X-42696Y-129681D01*
X-42674Y-129637D01*
X-42663Y-129615D01*
X-42657Y-129604D01*
X-42613Y-129531D01*
X-42557Y-129465D01*
X-42502Y-129409D01*
X-42452Y-129359D01*
X-42408Y-129326D01*
X-42369Y-129298D01*
X-42347Y-129282D01*
X-42336Y-129276D01*
X-42258Y-129237D01*
X-42175Y-129204D01*
X-42102Y-129182D01*
X-42030Y-129171D01*
X-41969Y-129159D01*
X-41919Y-129154D01*
X-39927D01*
X-39838Y-129159D01*
D02*
G37*
G36*
X-46110Y-129154D02*
X-44167D01*
X-44073Y-129159D01*
X-43989Y-129171D01*
X-43912Y-129193D01*
X-43840Y-129215D01*
X-43784Y-129237D01*
X-43745Y-129259D01*
X-43718Y-129271D01*
X-43706Y-129276D01*
X-43634Y-129326D01*
X-43573Y-129376D01*
X-43518Y-129431D01*
X-43473Y-129487D01*
X-43434Y-129531D01*
X-43407Y-129570D01*
X-43390Y-129593D01*
X-43385Y-129604D01*
X-43346Y-129681D01*
X-43312Y-129759D01*
X-43290Y-129837D01*
X-43279Y-129903D01*
X-43268Y-129964D01*
X-43262Y-130014D01*
Y-130042D01*
Y-130048D01*
Y-130053D01*
Y-131951D01*
X-43268Y-132040D01*
X-43279Y-132123D01*
X-43301Y-132195D01*
X-43323Y-132268D01*
X-43346Y-132323D01*
X-43368Y-132362D01*
X-43379Y-132390D01*
X-43385Y-132401D01*
X-43434Y-132473D01*
X-43484Y-132539D01*
X-43540Y-132595D01*
X-43590Y-132639D01*
X-43634Y-132678D01*
X-43673Y-132706D01*
X-43695Y-132723D01*
X-43706Y-132728D01*
X-43784Y-132767D01*
X-43867Y-132795D01*
X-43945Y-132817D01*
X-44012Y-132828D01*
X-44078Y-132839D01*
X-44123Y-132845D01*
X-47014D01*
X-47020Y-127944D01*
X-46110D01*
Y-129154D01*
D02*
G37*
G36*
X-49717Y-132845D02*
X-52570D01*
X-52658Y-132839D01*
X-52742Y-132828D01*
X-52820Y-132806D01*
X-52886Y-132784D01*
X-52942Y-132762D01*
X-52986Y-132739D01*
X-53008Y-132728D01*
X-53019Y-132723D01*
X-53091Y-132673D01*
X-53158Y-132617D01*
X-53214Y-132567D01*
X-53258Y-132512D01*
X-53297Y-132467D01*
X-53325Y-132429D01*
X-53341Y-132406D01*
X-53347Y-132395D01*
X-53391Y-132317D01*
X-53419Y-132240D01*
X-53441Y-132162D01*
X-53458Y-132096D01*
X-53463Y-132040D01*
X-53469Y-131990D01*
Y-131962D01*
Y-131951D01*
Y-130053D01*
X-53463Y-129964D01*
X-53452Y-129881D01*
X-53435Y-129803D01*
X-53408Y-129737D01*
X-53386Y-129681D01*
X-53369Y-129637D01*
X-53352Y-129615D01*
X-53347Y-129604D01*
X-53297Y-129531D01*
X-53247Y-129465D01*
X-53191Y-129409D01*
X-53136Y-129365D01*
X-53091Y-129326D01*
X-53053Y-129298D01*
X-53030Y-129282D01*
X-53019Y-129276D01*
X-52942Y-129237D01*
X-52864Y-129204D01*
X-52786Y-129182D01*
X-52720Y-129171D01*
X-52658Y-129159D01*
X-52609Y-129154D01*
X-50627D01*
Y-127944D01*
X-49717D01*
Y-132845D01*
D02*
G37*
G36*
X-30997Y-129159D02*
X-30908Y-129171D01*
X-30830Y-129193D01*
X-30764Y-129215D01*
X-30708Y-129237D01*
X-30669Y-129259D01*
X-30642Y-129271D01*
X-30631Y-129276D01*
X-30558Y-129326D01*
X-30492Y-129376D01*
X-30436Y-129431D01*
X-30392Y-129487D01*
X-30353Y-129531D01*
X-30325Y-129570D01*
X-30309Y-129592D01*
X-30303Y-129604D01*
X-30264Y-129681D01*
X-30231Y-129759D01*
X-30209Y-129837D01*
X-30198Y-129903D01*
X-30187Y-129964D01*
X-30181Y-130014D01*
Y-130042D01*
Y-130048D01*
Y-130053D01*
Y-131951D01*
X-30187Y-132040D01*
X-30198Y-132123D01*
X-30220Y-132195D01*
X-30242Y-132267D01*
X-30259Y-132323D01*
X-30281Y-132362D01*
X-30292Y-132390D01*
X-30298Y-132401D01*
X-30347Y-132473D01*
X-30403Y-132539D01*
X-30453Y-132595D01*
X-30509Y-132639D01*
X-30553Y-132678D01*
X-30592Y-132706D01*
X-30614Y-132723D01*
X-30625Y-132728D01*
X-30708Y-132767D01*
X-30786Y-132795D01*
X-30864Y-132817D01*
X-30936Y-132828D01*
X-30997Y-132839D01*
X-31041Y-132845D01*
X-33028D01*
Y-133350D01*
Y-133361D01*
X-33023Y-133372D01*
X-33017Y-133378D01*
X-33000Y-133389D01*
X-30775D01*
X-30786Y-134299D01*
X-33034D01*
X-33123Y-134293D01*
X-33211Y-134282D01*
X-33289Y-134260D01*
X-33356Y-134238D01*
X-33411Y-134216D01*
X-33456Y-134193D01*
X-33478Y-134182D01*
X-33489Y-134177D01*
X-33561Y-134127D01*
X-33628Y-134077D01*
X-33683Y-134021D01*
X-33727Y-133971D01*
X-33766Y-133927D01*
X-33794Y-133888D01*
X-33811Y-133866D01*
X-33816Y-133855D01*
X-33855Y-133777D01*
X-33888Y-133694D01*
X-33905Y-133616D01*
X-33922Y-133550D01*
X-33927Y-133483D01*
X-33933Y-133439D01*
Y-133405D01*
Y-133394D01*
Y-130053D01*
X-33927Y-129964D01*
X-33916Y-129881D01*
X-33900Y-129803D01*
X-33872Y-129737D01*
X-33850Y-129681D01*
X-33833Y-129637D01*
X-33816Y-129615D01*
X-33811Y-129604D01*
X-33761Y-129531D01*
X-33711Y-129465D01*
X-33655Y-129409D01*
X-33605Y-129365D01*
X-33561Y-129326D01*
X-33522Y-129298D01*
X-33500Y-129282D01*
X-33489Y-129276D01*
X-33411Y-129237D01*
X-33333Y-129204D01*
X-33256Y-129182D01*
X-33189Y-129171D01*
X-33123Y-129159D01*
X-33078Y-129154D01*
X-31086D01*
X-30997Y-129159D01*
D02*
G37*
G36*
X-28724Y-138840D02*
Y-138856D01*
Y-138862D01*
X-28719Y-138873D01*
X-28708Y-138879D01*
X-25999D01*
X-25993Y-138873D01*
X-25982Y-138851D01*
Y-138845D01*
Y-138840D01*
Y-138329D01*
X-25067D01*
Y-138884D01*
X-25072Y-138979D01*
X-25083Y-139062D01*
X-25106Y-139145D01*
X-25128Y-139212D01*
X-25150Y-139273D01*
X-25172Y-139312D01*
X-25183Y-139339D01*
X-25189Y-139350D01*
X-25239Y-139423D01*
X-25294Y-139489D01*
X-25350Y-139545D01*
X-25405Y-139589D01*
X-25450Y-139628D01*
X-25488Y-139656D01*
X-25511Y-139672D01*
X-25522Y-139678D01*
X-25600Y-139717D01*
X-25683Y-139750D01*
X-25760Y-139772D01*
X-25827Y-139783D01*
X-25894Y-139795D01*
X-25938Y-139800D01*
X-28735D01*
X-28830Y-139795D01*
X-28913Y-139783D01*
X-28996Y-139761D01*
X-29063Y-139739D01*
X-29118Y-139717D01*
X-29163Y-139695D01*
X-29185Y-139683D01*
X-29196Y-139678D01*
X-29268Y-139628D01*
X-29335Y-139573D01*
X-29390Y-139523D01*
X-29440Y-139467D01*
X-29479Y-139423D01*
X-29507Y-139384D01*
X-29523Y-139362D01*
X-29529Y-139350D01*
X-29573Y-139267D01*
X-29601Y-139190D01*
X-29623Y-139112D01*
X-29640Y-139040D01*
X-29651Y-138979D01*
X-29656Y-138929D01*
Y-138895D01*
Y-138884D01*
Y-135216D01*
X-28730D01*
X-28724Y-138840D01*
D02*
G37*
G36*
X-30345Y-137014D02*
X-33164D01*
X-33170Y-137020D01*
X-33175Y-137025D01*
X-33181Y-137030D01*
X-33186Y-137042D01*
Y-137047D01*
Y-137053D01*
Y-137497D01*
X-30345Y-137502D01*
Y-138906D01*
X-30350Y-138995D01*
X-30361Y-139078D01*
X-30384Y-139151D01*
X-30406Y-139217D01*
X-30428Y-139273D01*
X-30450Y-139317D01*
X-30461Y-139339D01*
X-30467Y-139350D01*
X-30517Y-139423D01*
X-30567Y-139489D01*
X-30622Y-139545D01*
X-30672Y-139589D01*
X-30717Y-139628D01*
X-30755Y-139656D01*
X-30778Y-139672D01*
X-30789Y-139678D01*
X-30866Y-139717D01*
X-30944Y-139750D01*
X-31022Y-139772D01*
X-31094Y-139783D01*
X-31155Y-139795D01*
X-31199Y-139800D01*
X-34097D01*
X-34091Y-137008D01*
X-34085Y-136920D01*
X-34074Y-136836D01*
X-34052Y-136759D01*
X-34036Y-136692D01*
X-34013Y-136636D01*
X-33991Y-136592D01*
X-33980Y-136570D01*
X-33974Y-136559D01*
X-33930Y-136487D01*
X-33874Y-136420D01*
X-33819Y-136365D01*
X-33769Y-136315D01*
X-33725Y-136281D01*
X-33686Y-136253D01*
X-33664Y-136237D01*
X-33653Y-136231D01*
X-33575Y-136193D01*
X-33492Y-136159D01*
X-33419Y-136137D01*
X-33347Y-136126D01*
X-33286Y-136115D01*
X-33236Y-136109D01*
X-30345D01*
Y-137014D01*
D02*
G37*
G36*
X-35551Y-136115D02*
X-35467Y-136126D01*
X-35395Y-136148D01*
X-35329Y-136170D01*
X-35273Y-136193D01*
X-35229Y-136215D01*
X-35206Y-136226D01*
X-35195Y-136231D01*
X-35123Y-136281D01*
X-35057Y-136331D01*
X-35001Y-136387D01*
X-34957Y-136442D01*
X-34918Y-136487D01*
X-34890Y-136525D01*
X-34874Y-136548D01*
X-34868Y-136559D01*
X-34829Y-136636D01*
X-34796Y-136714D01*
X-34774Y-136792D01*
X-34762Y-136858D01*
X-34751Y-136920D01*
X-34746Y-136969D01*
Y-136997D01*
Y-137003D01*
Y-137008D01*
Y-137508D01*
X-34751Y-137597D01*
X-34762Y-137680D01*
X-34785Y-137758D01*
X-34807Y-137824D01*
X-34829Y-137880D01*
X-34851Y-137919D01*
X-34863Y-137946D01*
X-34868Y-137957D01*
X-34918Y-138030D01*
X-34973Y-138096D01*
X-35023Y-138152D01*
X-35079Y-138196D01*
X-35123Y-138235D01*
X-35162Y-138263D01*
X-35184Y-138279D01*
X-35195Y-138285D01*
X-35273Y-138324D01*
X-35351Y-138357D01*
X-35429Y-138379D01*
X-35495Y-138396D01*
X-35551Y-138401D01*
X-35601Y-138407D01*
X-35628Y-138412D01*
X-37560D01*
X-37571Y-138418D01*
X-37576Y-138424D01*
X-37587Y-138440D01*
Y-138446D01*
Y-138862D01*
X-37582Y-138884D01*
X-37576Y-138890D01*
X-37560Y-138895D01*
X-35689D01*
X-35667Y-138890D01*
X-35656D01*
X-35651Y-138873D01*
Y-138862D01*
Y-138740D01*
X-34746D01*
Y-138906D01*
X-34751Y-138995D01*
X-34762Y-139078D01*
X-34785Y-139151D01*
X-34807Y-139217D01*
X-34829Y-139273D01*
X-34851Y-139317D01*
X-34863Y-139339D01*
X-34868Y-139350D01*
X-34918Y-139423D01*
X-34973Y-139489D01*
X-35023Y-139545D01*
X-35079Y-139589D01*
X-35123Y-139628D01*
X-35162Y-139656D01*
X-35184Y-139672D01*
X-35195Y-139678D01*
X-35273Y-139717D01*
X-35351Y-139750D01*
X-35429Y-139772D01*
X-35495Y-139783D01*
X-35551Y-139795D01*
X-35601Y-139800D01*
X-37593D01*
X-37687Y-139795D01*
X-37771Y-139783D01*
X-37848Y-139761D01*
X-37915Y-139739D01*
X-37970Y-139717D01*
X-38015Y-139695D01*
X-38037Y-139683D01*
X-38048Y-139678D01*
X-38120Y-139628D01*
X-38181Y-139573D01*
X-38242Y-139523D01*
X-38287Y-139467D01*
X-38326Y-139423D01*
X-38353Y-139384D01*
X-38370Y-139362D01*
X-38376Y-139350D01*
X-38420Y-139273D01*
X-38448Y-139195D01*
X-38470Y-139117D01*
X-38487Y-139051D01*
X-38492Y-138995D01*
X-38498Y-138945D01*
Y-138918D01*
Y-138906D01*
Y-138401D01*
X-38492Y-138313D01*
X-38481Y-138229D01*
X-38464Y-138152D01*
X-38437Y-138085D01*
X-38414Y-138030D01*
X-38398Y-137985D01*
X-38381Y-137963D01*
X-38376Y-137952D01*
X-38326Y-137880D01*
X-38270Y-137813D01*
X-38215Y-137758D01*
X-38165Y-137713D01*
X-38120Y-137674D01*
X-38081Y-137647D01*
X-38059Y-137630D01*
X-38048Y-137624D01*
X-37970Y-137585D01*
X-37893Y-137552D01*
X-37815Y-137530D01*
X-37749Y-137513D01*
X-37682Y-137502D01*
X-37637Y-137497D01*
X-35667D01*
X-35656Y-137491D01*
X-35651Y-137469D01*
Y-137463D01*
Y-137053D01*
Y-137036D01*
X-35656Y-137030D01*
Y-137025D01*
X-35678Y-137014D01*
X-37549D01*
X-37571Y-137020D01*
X-37576Y-137025D01*
X-37582Y-137030D01*
X-37587Y-137042D01*
Y-137047D01*
Y-137053D01*
Y-137169D01*
X-38503D01*
X-38498Y-137008D01*
X-38492Y-136920D01*
X-38481Y-136836D01*
X-38464Y-136759D01*
X-38437Y-136692D01*
X-38414Y-136636D01*
X-38398Y-136592D01*
X-38381Y-136570D01*
X-38376Y-136559D01*
X-38326Y-136487D01*
X-38270Y-136420D01*
X-38215Y-136365D01*
X-38165Y-136320D01*
X-38120Y-136281D01*
X-38081Y-136253D01*
X-38059Y-136237D01*
X-38048Y-136231D01*
X-37970Y-136193D01*
X-37893Y-136159D01*
X-37815Y-136137D01*
X-37749Y-136126D01*
X-37682Y-136115D01*
X-37637Y-136109D01*
X-35639D01*
X-35551Y-136115D01*
D02*
G37*
G36*
X-39946D02*
X-39863Y-136126D01*
X-39785Y-136148D01*
X-39719Y-136170D01*
X-39663Y-136193D01*
X-39624Y-136215D01*
X-39597Y-136226D01*
X-39586Y-136231D01*
X-39513Y-136281D01*
X-39452Y-136331D01*
X-39397Y-136387D01*
X-39347Y-136442D01*
X-39308Y-136487D01*
X-39280Y-136525D01*
X-39264Y-136548D01*
X-39258Y-136559D01*
X-39219Y-136636D01*
X-39186Y-136714D01*
X-39164Y-136792D01*
X-39153Y-136858D01*
X-39141Y-136920D01*
X-39136Y-136969D01*
Y-136997D01*
Y-137003D01*
Y-137008D01*
Y-138906D01*
X-39141Y-138995D01*
X-39153Y-139078D01*
X-39175Y-139151D01*
X-39197Y-139217D01*
X-39219Y-139273D01*
X-39241Y-139317D01*
X-39252Y-139339D01*
X-39258Y-139350D01*
X-39308Y-139423D01*
X-39364Y-139489D01*
X-39419Y-139545D01*
X-39469Y-139589D01*
X-39513Y-139628D01*
X-39552Y-139656D01*
X-39574Y-139672D01*
X-39586Y-139678D01*
X-39663Y-139717D01*
X-39741Y-139750D01*
X-39819Y-139772D01*
X-39885Y-139783D01*
X-39946Y-139795D01*
X-39996Y-139800D01*
X-41983D01*
X-42077Y-139795D01*
X-42161Y-139783D01*
X-42238Y-139761D01*
X-42305Y-139739D01*
X-42360Y-139717D01*
X-42405Y-139695D01*
X-42427Y-139683D01*
X-42438Y-139678D01*
X-42510Y-139628D01*
X-42571Y-139573D01*
X-42627Y-139523D01*
X-42677Y-139467D01*
X-42710Y-139423D01*
X-42738Y-139384D01*
X-42755Y-139362D01*
X-42760Y-139350D01*
X-42805Y-139273D01*
X-42832Y-139195D01*
X-42854Y-139117D01*
X-42871Y-139051D01*
X-42877Y-138995D01*
X-42882Y-138945D01*
Y-138918D01*
Y-138907D01*
Y-137008D01*
X-42877Y-136920D01*
X-42866Y-136836D01*
X-42843Y-136759D01*
X-42827Y-136692D01*
X-42805Y-136636D01*
X-42782Y-136592D01*
X-42771Y-136570D01*
X-42766Y-136559D01*
X-42721Y-136487D01*
X-42666Y-136420D01*
X-42610Y-136365D01*
X-42560Y-136315D01*
X-42516Y-136281D01*
X-42477Y-136254D01*
X-42455Y-136237D01*
X-42444Y-136231D01*
X-42366Y-136193D01*
X-42283Y-136159D01*
X-42211Y-136137D01*
X-42138Y-136126D01*
X-42077Y-136115D01*
X-42028Y-136109D01*
X-40035D01*
X-39946Y-136115D01*
D02*
G37*
G36*
X-43565Y-139800D02*
X-44475D01*
Y-137053D01*
Y-137036D01*
X-44481Y-137031D01*
X-44486Y-137025D01*
X-44503Y-137014D01*
X-46373D01*
X-46395Y-137020D01*
X-46401Y-137025D01*
X-46406Y-137031D01*
X-46412Y-137042D01*
Y-137047D01*
Y-137053D01*
Y-139800D01*
X-47322D01*
X-47317Y-137008D01*
X-47311Y-136920D01*
X-47300Y-136836D01*
X-47283Y-136759D01*
X-47256Y-136692D01*
X-47233Y-136636D01*
X-47217Y-136592D01*
X-47200Y-136570D01*
X-47194Y-136559D01*
X-47145Y-136487D01*
X-47095Y-136420D01*
X-47039Y-136365D01*
X-46984Y-136320D01*
X-46939Y-136281D01*
X-46900Y-136254D01*
X-46878Y-136237D01*
X-46867Y-136231D01*
X-46789Y-136193D01*
X-46712Y-136159D01*
X-46634Y-136137D01*
X-46567Y-136126D01*
X-46506Y-136115D01*
X-46456Y-136109D01*
X-43565D01*
Y-139800D01*
D02*
G37*
%LPC*%
G36*
X31161Y-104678D02*
X40042Y-104688D01*
X40056Y-104702D01*
X40091Y-104766D01*
X40110Y-104776D01*
X40154Y-104820D01*
X40145Y-105095D01*
X40150Y-109438D01*
X40100Y-109486D01*
X40081Y-109496D01*
X40066Y-109511D01*
X40056Y-109531D01*
X40022Y-109565D01*
X39978Y-109570D01*
X39531Y-109565D01*
X39497Y-109590D01*
X39487Y-109658D01*
X39492Y-114236D01*
X39463Y-114275D01*
X39443Y-114285D01*
X39419Y-114310D01*
X39389Y-114359D01*
X39364Y-114383D01*
X33977Y-114374D01*
X33952Y-114349D01*
X33943Y-114329D01*
X33918Y-114295D01*
X33869Y-114266D01*
X33854Y-114251D01*
X33845Y-114212D01*
X33854Y-114055D01*
Y-111415D01*
Y-111405D01*
X33845Y-109599D01*
X33830Y-109575D01*
X33761Y-109555D01*
X33692Y-109565D01*
X31195Y-109570D01*
X31156Y-109560D01*
X31126Y-109531D01*
X31116Y-109511D01*
X31082Y-109477D01*
X31062Y-109467D01*
X31038Y-109442D01*
X31028Y-109403D01*
X31038Y-109305D01*
X31033Y-104835D01*
X31048Y-104801D01*
X31062Y-104786D01*
X31082Y-104776D01*
X31107Y-104752D01*
X31136Y-104702D01*
X31161Y-104678D01*
D02*
G37*
G36*
X51317D02*
X60198Y-104688D01*
X60223Y-104712D01*
X60252Y-104761D01*
X60277Y-104786D01*
X60296Y-104796D01*
X60321Y-104859D01*
X60311Y-104889D01*
X60316Y-109408D01*
X60306Y-109447D01*
X60286Y-109467D01*
X60267Y-109477D01*
X60213Y-109531D01*
X60203Y-109550D01*
X60188Y-109565D01*
X60134Y-109570D01*
X57622Y-109560D01*
X57539Y-109555D01*
X57504Y-109580D01*
X57495Y-109619D01*
X57524Y-109668D01*
X57558Y-109693D01*
X57573Y-109707D01*
X57578Y-109732D01*
X57568Y-109751D01*
X57549Y-109761D01*
X57495Y-109805D01*
X57504Y-110021D01*
X57519Y-110036D01*
X57539Y-110046D01*
X57573Y-110070D01*
X57563Y-110129D01*
X57504Y-110169D01*
X57495Y-110208D01*
X57504Y-110394D01*
X57529Y-110419D01*
X57549Y-110429D01*
X57573Y-110453D01*
X57563Y-110502D01*
X57549Y-110517D01*
X57529Y-110527D01*
X57504Y-110541D01*
X57495Y-110581D01*
X57504Y-110777D01*
X57519Y-110792D01*
X57568Y-110821D01*
X57573Y-110865D01*
X57539Y-110900D01*
X57519Y-110909D01*
X57495Y-110934D01*
X57504Y-111150D01*
X57529Y-111174D01*
X57549Y-111184D01*
X57573Y-111209D01*
X57563Y-111258D01*
X57549Y-111273D01*
X57504Y-111297D01*
X57495Y-111336D01*
X57504Y-111523D01*
X57539Y-111557D01*
X57558Y-111567D01*
X57573Y-111582D01*
X57563Y-111631D01*
X57549Y-111645D01*
X57529Y-111655D01*
X57495Y-111690D01*
X57504Y-111906D01*
X57519Y-111920D01*
X57539Y-111930D01*
X57573Y-111955D01*
X57563Y-112013D01*
X57504Y-112053D01*
X57495Y-112092D01*
X57504Y-112278D01*
X57529Y-112303D01*
X57549Y-112313D01*
X57573Y-112337D01*
X57563Y-112386D01*
X57549Y-112401D01*
X57529Y-112411D01*
X57504Y-112426D01*
X57495Y-112465D01*
X57504Y-112661D01*
X57519Y-112676D01*
X57568Y-112705D01*
X57573Y-112750D01*
X57539Y-112784D01*
X57519Y-112794D01*
X57495Y-112818D01*
X57504Y-113034D01*
X57529Y-113059D01*
X57549Y-113068D01*
X57573Y-113093D01*
X57563Y-113142D01*
X57504Y-113181D01*
X57495Y-113221D01*
X57504Y-113407D01*
X57539Y-113441D01*
X57558Y-113451D01*
X57573Y-113466D01*
X57563Y-113515D01*
X57549Y-113530D01*
X57529Y-113539D01*
X57495Y-113574D01*
X57504Y-113790D01*
X57519Y-113804D01*
X57539Y-113814D01*
X57573Y-113839D01*
X57563Y-113898D01*
X57509Y-113932D01*
X57495Y-113976D01*
X57504Y-114163D01*
X57529Y-114187D01*
X57549Y-114197D01*
X57573Y-114222D01*
X57563Y-114270D01*
X57549Y-114285D01*
X57499Y-114315D01*
X57475Y-114339D01*
X57465Y-114359D01*
X57401Y-114383D01*
X53231D01*
X51994Y-114374D01*
X51950Y-114339D01*
X51940Y-114320D01*
X51916Y-114295D01*
X51867Y-114266D01*
X51862Y-114222D01*
X51896Y-114187D01*
X51916Y-114177D01*
X51930Y-114163D01*
X51950Y-114113D01*
X51940Y-114045D01*
X51906Y-114011D01*
X51886Y-114001D01*
X51862Y-113976D01*
X51872Y-113927D01*
X51886Y-113912D01*
X51906Y-113902D01*
X51940Y-113868D01*
X51930Y-113652D01*
X51916Y-113638D01*
X51867Y-113608D01*
X51852Y-113584D01*
X51876Y-113549D01*
X51925Y-113520D01*
X51940Y-113476D01*
X51916Y-113441D01*
X51867Y-113412D01*
X51862Y-113377D01*
X51886Y-113353D01*
X51930Y-113328D01*
X51940Y-113289D01*
X51916Y-113255D01*
X51896Y-113245D01*
X51862Y-113221D01*
X51867Y-113176D01*
X51930Y-113142D01*
X51940Y-113103D01*
X51930Y-113083D01*
X51906Y-113059D01*
X51886Y-113049D01*
X51862Y-113034D01*
X51872Y-112985D01*
X51896Y-112960D01*
X51916Y-112951D01*
X51940Y-112926D01*
X51930Y-112710D01*
X51916Y-112696D01*
X51867Y-112666D01*
X51852Y-112642D01*
X51876Y-112607D01*
X51925Y-112578D01*
X51940Y-112534D01*
X51916Y-112499D01*
X51867Y-112470D01*
X51862Y-112435D01*
X51886Y-112411D01*
X51930Y-112386D01*
X51940Y-112347D01*
X51916Y-112313D01*
X51896Y-112303D01*
X51862Y-112278D01*
X51867Y-112234D01*
X51930Y-112200D01*
X51940Y-112161D01*
X51930Y-112141D01*
X51906Y-112117D01*
X51886Y-112107D01*
X51862Y-112092D01*
X51872Y-112043D01*
X51896Y-112018D01*
X51916Y-112009D01*
X51940Y-111984D01*
X51930Y-111768D01*
X51916Y-111753D01*
X51867Y-111724D01*
X51852Y-111699D01*
X51876Y-111665D01*
X51925Y-111636D01*
X51940Y-111591D01*
X51916Y-111557D01*
X51867Y-111528D01*
X51862Y-111493D01*
X51886Y-111469D01*
X51930Y-111444D01*
X51940Y-111405D01*
X51916Y-111371D01*
X51896Y-111361D01*
X51862Y-111336D01*
X51867Y-111292D01*
X51930Y-111258D01*
X51940Y-111219D01*
X51930Y-111199D01*
X51906Y-111174D01*
X51886Y-111165D01*
X51862Y-111150D01*
X51872Y-111101D01*
X51896Y-111076D01*
X51916Y-111066D01*
X51940Y-111042D01*
X51930Y-110826D01*
X51916Y-110811D01*
X51867Y-110782D01*
X51852Y-110757D01*
X51876Y-110723D01*
X51925Y-110694D01*
X51940Y-110649D01*
X51916Y-110615D01*
X51867Y-110586D01*
X51862Y-110551D01*
X51886Y-110527D01*
X51930Y-110502D01*
X51940Y-110463D01*
X51930Y-110443D01*
X51906Y-110419D01*
X51862Y-110394D01*
X51872Y-110345D01*
X51886Y-110330D01*
X51906Y-110321D01*
X51930Y-110306D01*
X51940Y-110267D01*
X51930Y-110080D01*
X51896Y-110046D01*
X51876Y-110036D01*
X51862Y-110021D01*
X51857Y-109997D01*
X51876Y-109967D01*
X51925Y-109938D01*
X51940Y-109923D01*
X51930Y-109874D01*
X51916Y-109859D01*
X51867Y-109830D01*
X51852Y-109805D01*
X51886Y-109761D01*
X51930Y-109737D01*
X51950Y-109668D01*
X51940Y-109639D01*
X51930Y-109599D01*
X51916Y-109575D01*
X51847Y-109555D01*
X51808Y-109565D01*
X51351Y-109570D01*
X51302Y-109550D01*
X51258Y-109486D01*
X51239Y-109477D01*
X51204Y-109452D01*
X51195Y-109413D01*
X51204Y-104811D01*
X51273Y-104742D01*
X51302Y-104693D01*
X51317Y-104678D01*
D02*
G37*
G36*
X43309Y-116376D02*
X43363Y-116390D01*
X43378Y-116405D01*
X43422Y-116410D01*
X43457Y-116395D01*
X43506Y-116376D01*
X43545Y-116385D01*
X43604Y-116415D01*
X43692Y-116376D01*
X43731Y-116385D01*
X43800Y-116415D01*
X43888Y-116376D01*
X43977Y-116415D01*
X44065Y-116376D01*
X44119Y-116390D01*
X44134Y-116405D01*
X44178Y-116410D01*
X44261Y-116376D01*
X44359Y-116415D01*
X44448Y-116376D01*
X44487Y-116385D01*
X44546Y-116415D01*
X44634Y-116376D01*
X44673Y-116385D01*
X44742Y-116415D01*
X44831Y-116376D01*
X44919Y-116415D01*
X45007Y-116376D01*
X45061Y-116390D01*
X45076Y-116405D01*
X45120Y-116410D01*
X45203Y-116376D01*
X45301Y-116415D01*
X45390Y-116376D01*
X45429Y-116385D01*
X45488Y-116415D01*
X45576Y-116376D01*
X45616Y-116385D01*
X45684Y-116415D01*
X45724Y-116395D01*
X45728Y-116390D01*
X45773Y-116376D01*
X45861Y-116415D01*
X45949Y-116376D01*
X46003Y-116390D01*
X46018Y-116405D01*
X46062Y-116410D01*
X46145Y-116376D01*
X46244Y-116415D01*
X46332Y-116376D01*
X46371Y-116385D01*
X46430Y-116415D01*
X46518Y-116376D01*
X46558Y-116385D01*
X46626Y-116415D01*
X46715Y-116376D01*
X46803Y-116415D01*
X46891Y-116376D01*
X46945Y-116390D01*
X46960Y-116405D01*
X47004Y-116410D01*
X47088Y-116376D01*
X47186Y-116415D01*
X47274Y-116376D01*
X47313Y-116385D01*
X47372Y-116415D01*
X47460Y-116376D01*
X47500Y-116385D01*
X47568Y-116415D01*
X47657Y-116376D01*
X47745Y-116415D01*
X47814Y-116385D01*
X47853Y-116376D01*
X47941Y-116415D01*
X48020Y-116405D01*
X48128Y-116454D01*
X48197Y-116464D01*
X48265Y-116503D01*
X48285Y-116523D01*
X48373Y-116572D01*
X48412Y-116611D01*
X48432Y-116621D01*
X48525Y-116685D01*
X48569Y-116739D01*
X48623Y-116783D01*
X48633Y-116802D01*
X48697Y-116896D01*
X48731Y-116930D01*
X48771Y-116999D01*
X48820Y-117048D01*
X48829Y-117087D01*
X48869Y-117156D01*
X48888Y-117175D01*
X48918Y-117244D01*
X48932Y-117298D01*
X48972Y-117357D01*
X48987Y-117371D01*
X49006Y-117421D01*
X49016Y-117460D01*
X49031Y-117524D01*
X49040Y-117573D01*
X49050Y-117612D01*
X49104Y-117715D01*
X49124Y-117911D01*
X49134Y-117941D01*
X49148Y-117995D01*
X49173Y-118049D01*
X49193Y-118127D01*
X49183Y-118196D01*
X49193Y-118225D01*
X49202Y-118323D01*
X49193Y-119128D01*
X49183Y-119158D01*
X49158Y-119221D01*
X49134Y-119305D01*
X49124Y-119344D01*
X49114Y-119413D01*
X49104Y-119540D01*
X49055Y-119609D01*
X49040Y-119663D01*
X49021Y-119761D01*
X49001Y-119840D01*
X48962Y-119898D01*
X48947Y-119913D01*
X48903Y-120036D01*
X48878Y-120060D01*
X48869Y-120100D01*
X48878Y-120129D01*
X48918Y-120217D01*
X48928Y-120286D01*
X48962Y-120330D01*
X48981Y-120340D01*
X48996Y-120355D01*
X49016Y-120423D01*
X49026Y-120541D01*
X49075Y-120610D01*
X49104Y-120679D01*
X49114Y-120885D01*
X49124Y-120914D01*
X49139Y-120978D01*
X49168Y-121056D01*
X49193Y-121140D01*
X49202Y-121238D01*
X49193Y-122043D01*
X49183Y-122072D01*
X49193Y-122102D01*
X49183Y-122170D01*
X49143Y-122210D01*
X49124Y-122259D01*
X49114Y-122445D01*
X49104Y-122475D01*
X49080Y-122587D01*
X49026Y-122690D01*
X49016Y-122730D01*
X49001Y-122803D01*
X48967Y-122857D01*
X48928Y-122945D01*
X48913Y-123019D01*
X48849Y-123083D01*
X48829Y-123132D01*
X48815Y-123186D01*
X48741Y-123259D01*
X48731Y-123299D01*
X48692Y-123368D01*
X48461Y-123598D01*
X48393Y-123637D01*
X48368Y-123662D01*
X48358Y-123681D01*
X48344Y-123696D01*
X48236Y-123735D01*
X48167Y-123784D01*
X48128Y-123794D01*
X48000Y-123804D01*
X47932Y-123814D01*
X47892Y-123824D01*
X47853Y-123814D01*
X43246Y-123819D01*
X43049Y-123790D01*
X43015Y-123765D01*
X43000Y-123750D01*
X42990Y-123731D01*
X42956Y-123696D01*
X42937Y-123686D01*
X42912Y-123662D01*
X42892Y-123613D01*
X42878Y-123559D01*
X42863Y-123544D01*
X42853Y-123524D01*
X42814Y-123466D01*
X42794Y-123328D01*
X42784Y-123289D01*
X42775Y-123132D01*
X42755Y-123083D01*
X42765Y-122965D01*
X42775Y-122936D01*
X42794Y-122867D01*
X42804Y-122739D01*
X42814Y-122680D01*
X42863Y-122612D01*
X42922Y-122504D01*
X42937Y-122489D01*
X42956Y-122479D01*
X42990Y-122445D01*
X43000Y-122425D01*
X43035Y-122391D01*
X43099Y-122366D01*
X43133Y-122342D01*
X43202Y-122312D01*
X43260Y-122322D01*
X43309Y-122342D01*
X43358Y-122332D01*
X43408Y-122312D01*
X43457Y-122322D01*
X43476Y-122342D01*
X43545Y-122332D01*
X43594Y-122312D01*
X43643Y-122322D01*
X43692Y-122342D01*
X43741Y-122332D01*
X43790Y-122312D01*
X43830Y-122322D01*
X43879Y-122342D01*
X43928Y-122332D01*
X43977Y-122312D01*
X44016Y-122322D01*
X44065Y-122342D01*
X44114Y-122332D01*
X44163Y-122312D01*
X44212Y-122322D01*
X44232Y-122342D01*
X44301Y-122332D01*
X44350Y-122312D01*
X44399Y-122322D01*
X44418Y-122342D01*
X44487Y-122332D01*
X44536Y-122312D01*
X44585Y-122322D01*
X44634Y-122342D01*
X44683Y-122332D01*
X44732Y-122312D01*
X44772Y-122322D01*
X44821Y-122342D01*
X44870Y-122332D01*
X44919Y-122312D01*
X44958Y-122322D01*
X45007Y-122342D01*
X45056Y-122332D01*
X45105Y-122312D01*
X45154Y-122322D01*
X45174Y-122342D01*
X45243Y-122332D01*
X45292Y-122312D01*
X45341Y-122322D01*
X45360Y-122342D01*
X45429Y-122332D01*
X45478Y-122312D01*
X45527Y-122322D01*
X45576Y-122342D01*
X45625Y-122332D01*
X45674Y-122312D01*
X45714Y-122322D01*
X45763Y-122342D01*
X45812Y-122332D01*
X45861Y-122312D01*
X45900Y-122322D01*
X45949Y-122342D01*
X45998Y-122332D01*
X46047Y-122312D01*
X46096Y-122322D01*
X46116Y-122342D01*
X46185Y-122332D01*
X46234Y-122312D01*
X46283Y-122322D01*
X46303Y-122342D01*
X46371Y-122332D01*
X46420Y-122312D01*
X46469Y-122322D01*
X46518Y-122342D01*
X46567Y-122332D01*
X46617Y-122312D01*
X46656Y-122322D01*
X46705Y-122342D01*
X46754Y-122332D01*
X46803Y-122312D01*
X46842Y-122322D01*
X46891Y-122342D01*
X46940Y-122332D01*
X46989Y-122312D01*
X47038Y-122322D01*
X47058Y-122342D01*
X47127Y-122332D01*
X47176Y-122312D01*
X47225Y-122322D01*
X47245Y-122342D01*
X47313Y-122332D01*
X47362Y-122312D01*
X47411Y-122322D01*
X47460Y-122342D01*
X47510Y-122332D01*
X47559Y-122312D01*
X47598Y-122322D01*
X47647Y-122342D01*
X47696Y-122332D01*
X47745Y-122312D01*
X47784Y-122322D01*
X47833Y-122342D01*
X47873Y-122332D01*
X47922Y-122303D01*
X47990Y-122293D01*
X48039Y-122273D01*
X48054Y-122259D01*
X48064Y-122239D01*
X48118Y-122185D01*
X48138Y-122175D01*
X48152Y-122160D01*
X48172Y-122111D01*
X48182Y-122072D01*
X48250Y-121964D01*
X48260Y-121896D01*
X48280Y-121631D01*
X48270Y-121317D01*
X48260Y-121287D01*
X48250Y-121248D01*
X48206Y-121194D01*
X48182Y-121140D01*
X48172Y-121101D01*
X48123Y-121012D01*
X48064Y-120963D01*
X48035Y-120934D01*
X48030Y-120919D01*
X48010Y-120909D01*
X47941Y-120880D01*
X47863Y-120860D01*
X47750Y-120875D01*
X47647Y-120880D01*
X47618Y-120870D01*
X47529Y-120860D01*
X47500Y-120870D01*
X47402Y-120880D01*
X47308Y-120865D01*
X47254Y-120860D01*
X47225Y-120870D01*
X47127Y-120880D01*
X47024Y-120865D01*
X46970Y-120860D01*
X46940Y-120870D01*
X46842Y-120880D01*
X46739Y-120865D01*
X46685Y-120860D01*
X46656Y-120870D01*
X46558Y-120880D01*
X46455Y-120865D01*
X46401Y-120860D01*
X46371Y-120870D01*
X46273Y-120880D01*
X46170Y-120865D01*
X46116Y-120860D01*
X46087Y-120870D01*
X45989Y-120880D01*
X45895Y-120865D01*
X45841Y-120860D01*
X45812Y-120870D01*
X45714Y-120880D01*
X45611Y-120865D01*
X45557Y-120860D01*
X45527Y-120870D01*
X45429Y-120880D01*
X45326Y-120865D01*
X45272Y-120860D01*
X45243Y-120870D01*
X45145Y-120880D01*
X45041Y-120865D01*
X44987Y-120860D01*
X44958Y-120870D01*
X44860Y-120880D01*
X44757Y-120865D01*
X44703Y-120860D01*
X44673Y-120870D01*
X44575Y-120880D01*
X44482Y-120865D01*
X44428Y-120860D01*
X44399Y-120870D01*
X44301Y-120880D01*
X44198Y-120865D01*
X44144Y-120860D01*
X44114Y-120870D01*
X44016Y-120880D01*
X43913Y-120865D01*
X43859Y-120860D01*
X43830Y-120870D01*
X43731Y-120880D01*
X43628Y-120865D01*
X43574Y-120860D01*
X43545Y-120870D01*
X43447Y-120880D01*
X43354Y-120865D01*
X43300Y-120860D01*
X43270Y-120870D01*
X43172Y-120880D01*
X43103Y-120841D01*
X43084Y-120811D01*
X43064Y-120801D01*
X42995Y-120762D01*
X42951Y-120718D01*
X42946Y-120703D01*
X42932Y-120698D01*
X42922Y-120679D01*
X42902Y-120659D01*
X42892Y-120620D01*
X42853Y-120551D01*
X42824Y-120522D01*
X42804Y-120453D01*
X42794Y-120296D01*
X42784Y-120266D01*
X42775Y-120227D01*
X42755Y-120159D01*
X42765Y-120051D01*
X42784Y-120001D01*
X42794Y-119815D01*
X42804Y-119786D01*
X42814Y-119707D01*
X42883Y-119638D01*
X42902Y-119589D01*
X42941Y-119521D01*
X42976Y-119486D01*
X42995Y-119476D01*
X43064Y-119427D01*
X43103Y-119388D01*
X43143Y-119378D01*
X43202Y-119369D01*
X43231Y-119378D01*
X47829Y-119374D01*
X47932Y-119378D01*
X47981Y-119349D01*
X48152Y-119177D01*
X48172Y-119128D01*
X48211Y-119059D01*
X48231Y-119040D01*
X48241Y-119020D01*
X48260Y-118971D01*
X48270Y-118795D01*
X48280Y-118765D01*
X48290Y-118726D01*
X48280Y-118657D01*
X48270Y-118412D01*
X48260Y-118382D01*
X48250Y-118284D01*
X48206Y-118230D01*
X48182Y-118176D01*
X48152Y-118098D01*
X48103Y-118049D01*
X48093Y-118029D01*
X48059Y-117975D01*
X47892Y-117897D01*
X47853Y-117906D01*
X43162Y-117897D01*
X43113Y-117877D01*
X43074Y-117867D01*
X43025Y-117838D01*
X42990Y-117803D01*
X42981Y-117784D01*
X42966Y-117769D01*
X42946Y-117759D01*
X42912Y-117725D01*
X42892Y-117676D01*
X42868Y-117612D01*
X42843Y-117578D01*
X42804Y-117489D01*
X42789Y-117376D01*
X42775Y-117195D01*
X42755Y-117146D01*
X42765Y-117028D01*
X42784Y-116979D01*
X42804Y-116842D01*
X42834Y-116724D01*
X42912Y-116577D01*
X42937Y-116552D01*
X42956Y-116542D01*
X42990Y-116508D01*
X43000Y-116488D01*
X43025Y-116464D01*
X43152Y-116405D01*
X43221Y-116415D01*
X43309Y-116376D01*
D02*
G37*
G36*
X32054Y-120105D02*
X32132Y-120114D01*
X32162Y-120124D01*
X32333Y-120119D01*
X32436Y-120124D01*
X32466Y-120114D01*
X32623Y-120124D01*
X32652Y-120114D01*
X32819Y-120124D01*
X32848Y-120114D01*
X33005Y-120124D01*
X33035Y-120114D01*
X33192Y-120124D01*
X33221Y-120114D01*
X33378Y-120124D01*
X33408Y-120114D01*
X33565Y-120124D01*
X33594Y-120114D01*
X33761Y-120124D01*
X33790Y-120114D01*
X33948Y-120124D01*
X34026Y-120105D01*
X34119Y-120119D01*
X34257Y-120129D01*
X34296Y-120139D01*
X34360Y-120203D01*
X34379Y-120212D01*
X34448Y-120262D01*
X34477Y-120291D01*
X34497Y-120301D01*
X34566Y-120340D01*
X34590Y-120365D01*
X34600Y-120384D01*
X34738Y-120453D01*
X34772Y-120487D01*
X34841Y-120527D01*
X34909Y-120595D01*
X34978Y-120634D01*
X35017Y-120674D01*
X35086Y-120713D01*
X35125Y-120752D01*
X35145Y-120762D01*
X35214Y-120791D01*
X35263Y-120821D01*
X35312Y-120870D01*
X35380Y-120909D01*
X35429Y-120958D01*
X35518Y-121007D01*
X35542Y-121042D01*
X35557Y-121056D01*
X35650Y-121091D01*
X35665Y-121106D01*
X35684Y-121115D01*
X35724Y-121155D01*
X35792Y-121194D01*
X35842Y-121243D01*
X35930Y-121292D01*
X35945Y-121307D01*
X35954Y-121326D01*
X35969Y-121341D01*
X36023Y-121356D01*
X36072Y-121375D01*
X36102Y-121405D01*
X36111Y-121424D01*
X36185Y-121469D01*
X36205Y-121478D01*
X36254Y-121528D01*
X36322Y-121567D01*
X36371Y-121616D01*
X36465Y-121650D01*
X36519Y-121704D01*
X36538Y-121714D01*
X36607Y-121763D01*
X36636Y-121792D01*
X36656Y-121802D01*
X36676Y-121822D01*
X36803Y-121881D01*
X36931Y-121812D01*
X36965Y-121778D01*
X36975Y-121758D01*
X36999Y-121734D01*
X37039Y-121724D01*
X37107Y-121685D01*
X37147Y-121645D01*
X37166Y-121635D01*
X37235Y-121586D01*
X37264Y-121557D01*
X37314Y-121537D01*
X37382Y-121498D01*
X37421Y-121459D01*
X37490Y-121420D01*
X37549Y-121361D01*
X37618Y-121321D01*
X37667Y-121272D01*
X37755Y-121223D01*
X37794Y-121184D01*
X37888Y-121150D01*
X37961Y-121076D01*
X38030Y-121037D01*
X38069Y-120998D01*
X38089Y-120988D01*
X38172Y-120934D01*
X38182Y-120914D01*
X38226Y-120890D01*
X38275Y-120870D01*
X38324Y-120841D01*
X38364Y-120801D01*
X38383Y-120791D01*
X38452Y-120742D01*
X38481Y-120713D01*
X38530Y-120693D01*
X38619Y-120644D01*
X38658Y-120605D01*
X38727Y-120566D01*
X38776Y-120517D01*
X38844Y-120477D01*
X38903Y-120419D01*
X38972Y-120379D01*
X39011Y-120340D01*
X39104Y-120306D01*
X39119Y-120291D01*
X39134Y-120286D01*
X39144Y-120266D01*
X39178Y-120232D01*
X39266Y-120183D01*
X39306Y-120144D01*
X39374Y-120124D01*
X39443Y-120114D01*
X39571Y-120124D01*
X39669Y-120114D01*
X39708Y-120124D01*
X39870Y-120119D01*
X39973Y-120124D01*
X40002Y-120114D01*
X40159Y-120124D01*
X40189Y-120114D01*
X40356Y-120124D01*
X40385Y-120114D01*
X40542Y-120124D01*
X40571Y-120114D01*
X40729Y-120124D01*
X40758Y-120114D01*
X40915Y-120124D01*
X40944Y-120114D01*
X41101Y-120124D01*
X41131Y-120114D01*
X41298Y-120124D01*
X41327Y-120114D01*
X41484Y-120124D01*
X41563Y-120105D01*
X41656Y-120119D01*
X41695Y-120129D01*
X41744Y-120149D01*
X41754Y-120168D01*
X41764Y-120198D01*
X41774Y-120237D01*
X41764Y-120266D01*
X41754Y-120286D01*
X41730Y-120311D01*
X41720D01*
X41715Y-120316D01*
X41661Y-120350D01*
X41612Y-120399D01*
X41543Y-120438D01*
X41504Y-120477D01*
X41406Y-120517D01*
X41381Y-120531D01*
X41371Y-120551D01*
X41337Y-120585D01*
X41249Y-120634D01*
X41209Y-120674D01*
X41170Y-120684D01*
X41121Y-120713D01*
X41096Y-120738D01*
X41087Y-120757D01*
X41062Y-120782D01*
X40984Y-120811D01*
X40944Y-120850D01*
X40876Y-120880D01*
X40827Y-120909D01*
X40797Y-120958D01*
X40778Y-120968D01*
X40729Y-120988D01*
X40679Y-121017D01*
X40640Y-121056D01*
X40571Y-121096D01*
X40523Y-121145D01*
X40473Y-121164D01*
X40390Y-121209D01*
X40385Y-121223D01*
X40365Y-121233D01*
X40346Y-121253D01*
X40277Y-121292D01*
X40228Y-121341D01*
X40135Y-121375D01*
X40081Y-121429D01*
X40061Y-121439D01*
X39992Y-121488D01*
X39963Y-121518D01*
X39875Y-121567D01*
X39850Y-121601D01*
X39836Y-121616D01*
X39786Y-121635D01*
X39747Y-121645D01*
X39693Y-121689D01*
X39669Y-121714D01*
X39600Y-121753D01*
X39541Y-121812D01*
X39502Y-121822D01*
X39453Y-121842D01*
X39419Y-121866D01*
X39414Y-121881D01*
X39394Y-121891D01*
X39374Y-121910D01*
X39306Y-121950D01*
X39291Y-121964D01*
X39281Y-121984D01*
X39227Y-122008D01*
X39188Y-122018D01*
X39134Y-122062D01*
X39124Y-122082D01*
X39041Y-122126D01*
X38982Y-122185D01*
X38962Y-122195D01*
X38869Y-122259D01*
X38854Y-122273D01*
X38790Y-122298D01*
X38756Y-122312D01*
X38687Y-122381D01*
X38619Y-122421D01*
X38579Y-122460D01*
X38486Y-122494D01*
X38471Y-122509D01*
X38457Y-122514D01*
X38447Y-122533D01*
X38422Y-122558D01*
X38403Y-122568D01*
X38310Y-122632D01*
X38285Y-122656D01*
X38246Y-122666D01*
X38177Y-122705D01*
X38153Y-122730D01*
X38133Y-122779D01*
X38143Y-122828D01*
X38157Y-122843D01*
X38197Y-122852D01*
X38260Y-122877D01*
X38324Y-122941D01*
X38393Y-122980D01*
X38432Y-123019D01*
X38452Y-123029D01*
X38501Y-123048D01*
X38570Y-123088D01*
X38589Y-123117D01*
X38609Y-123127D01*
X38702Y-123191D01*
X38727Y-123215D01*
X38776Y-123235D01*
X38844Y-123274D01*
X38884Y-123313D01*
X38952Y-123353D01*
X38992Y-123392D01*
X39011Y-123402D01*
X39080Y-123431D01*
X39129Y-123461D01*
X39178Y-123510D01*
X39247Y-123549D01*
X39296Y-123598D01*
X39335Y-123608D01*
X39404Y-123647D01*
X39443Y-123686D01*
X39512Y-123726D01*
X39551Y-123765D01*
X39571Y-123775D01*
X39639Y-123804D01*
X39688Y-123834D01*
X39737Y-123883D01*
X39806Y-123922D01*
X39845Y-123961D01*
X39865Y-123971D01*
X39914Y-123991D01*
X39983Y-124030D01*
X40002Y-124059D01*
X40022Y-124069D01*
X40115Y-124133D01*
X40140Y-124157D01*
X40203Y-124182D01*
X40238Y-124206D01*
X40253Y-124221D01*
X40262Y-124241D01*
X40287Y-124265D01*
X40336Y-124285D01*
X40385Y-124314D01*
X40415Y-124344D01*
X40434Y-124354D01*
X40503Y-124393D01*
X40571Y-124442D01*
X40660Y-124491D01*
X40709Y-124540D01*
X40729Y-124550D01*
X40817Y-124599D01*
X40837Y-124619D01*
X40925Y-124668D01*
X40954Y-124697D01*
X40974Y-124707D01*
X41003Y-124736D01*
X41092Y-124785D01*
X41151Y-124825D01*
X41219Y-124864D01*
X41268Y-124913D01*
X41357Y-124962D01*
X41371Y-124977D01*
X41381Y-124996D01*
X41396Y-125011D01*
X41494Y-125050D01*
X41548Y-125095D01*
X41563Y-125109D01*
X41631Y-125149D01*
X41690Y-125207D01*
X41744Y-125222D01*
X41798Y-125257D01*
X41828Y-125286D01*
X41847Y-125296D01*
X41916Y-125335D01*
X41975Y-125394D01*
X42024Y-125423D01*
X42048Y-125448D01*
X42063Y-125512D01*
X42068Y-125536D01*
X42034Y-125590D01*
X41985Y-125610D01*
X39600Y-125600D01*
X39526Y-125556D01*
X39517Y-125536D01*
X39492Y-125512D01*
X39394Y-125472D01*
X39355Y-125433D01*
X39335Y-125423D01*
X39266Y-125384D01*
X39198Y-125315D01*
X39158Y-125306D01*
X39139Y-125286D01*
X39119Y-125276D01*
X39080Y-125227D01*
X39041Y-125217D01*
X38977Y-125193D01*
X38957Y-125173D01*
X38947Y-125154D01*
X38923Y-125129D01*
X38835Y-125080D01*
X38825Y-125060D01*
X38805Y-125050D01*
X38785Y-125031D01*
X38717Y-124992D01*
X38678Y-124952D01*
X38579Y-124913D01*
X38521Y-124854D01*
X38452Y-124815D01*
X38403Y-124766D01*
X38315Y-124717D01*
X38256Y-124658D01*
X38177Y-124628D01*
X38123Y-124584D01*
X38108Y-124570D01*
X38040Y-124530D01*
X37981Y-124471D01*
X37917Y-124447D01*
X37868Y-124398D01*
X37863Y-124383D01*
X37794Y-124364D01*
X37745Y-124334D01*
X37686Y-124275D01*
X37618Y-124236D01*
X37578Y-124197D01*
X37559Y-124187D01*
X37490Y-124138D01*
X37461Y-124108D01*
X37363Y-124069D01*
X37328Y-124045D01*
X37318Y-124025D01*
X37211Y-123956D01*
X37166Y-123912D01*
X37147Y-123902D01*
X37078Y-123853D01*
X37039Y-123814D01*
X36941Y-123775D01*
X36891Y-123726D01*
X36872Y-123716D01*
X36803Y-123686D01*
X36735Y-123696D01*
X36685Y-123726D01*
X36617Y-123794D01*
X36548Y-123834D01*
X36519Y-123863D01*
X36450Y-123892D01*
X36401Y-123922D01*
X36376Y-123956D01*
X36342Y-123991D01*
X36288Y-124005D01*
X36273Y-124020D01*
X36254Y-124030D01*
X36214Y-124069D01*
X36195Y-124079D01*
X36126Y-124128D01*
X36097Y-124157D01*
X36028Y-124197D01*
X35969Y-124256D01*
X35876Y-124290D01*
X35812Y-124354D01*
X35724Y-124403D01*
X35675Y-124452D01*
X35606Y-124491D01*
X35567Y-124530D01*
X35469Y-124570D01*
X35434Y-124594D01*
X35424Y-124614D01*
X35400Y-124638D01*
X35312Y-124687D01*
X35263Y-124736D01*
X35194Y-124776D01*
X35145Y-124825D01*
X35076Y-124864D01*
X35017Y-124923D01*
X34953Y-124938D01*
X34894Y-124977D01*
X34890Y-124992D01*
X34870Y-125001D01*
X34777Y-125065D01*
X34767Y-125085D01*
X34752Y-125100D01*
X34733Y-125109D01*
X34664Y-125149D01*
X34625Y-125188D01*
X34576Y-125207D01*
X34507Y-125247D01*
X34458Y-125296D01*
X34389Y-125335D01*
X34335Y-125379D01*
X34320Y-125394D01*
X34301Y-125404D01*
X34232Y-125453D01*
X34203Y-125482D01*
X34154Y-125502D01*
X34085Y-125541D01*
X34036Y-125590D01*
X33987Y-125610D01*
X31622Y-125600D01*
X31597Y-125575D01*
X31582Y-125492D01*
X31592Y-125443D01*
X31632Y-125404D01*
X31681Y-125374D01*
X31730Y-125325D01*
X31749Y-125315D01*
X31818Y-125276D01*
X31857Y-125237D01*
X31955Y-125198D01*
X32024Y-125129D01*
X32093Y-125090D01*
X32122Y-125060D01*
X32142Y-125050D01*
X32191Y-125031D01*
X32260Y-124992D01*
X32289Y-124952D01*
X32309Y-124943D01*
X32377Y-124903D01*
X32417Y-124864D01*
X32466Y-124844D01*
X32534Y-124805D01*
X32583Y-124756D01*
X32652Y-124717D01*
X32672Y-124697D01*
X32691Y-124687D01*
X32711Y-124668D01*
X32804Y-124633D01*
X32844Y-124594D01*
X32848Y-124579D01*
X32868Y-124570D01*
X32937Y-124530D01*
X32976Y-124491D01*
X32996Y-124481D01*
X33045Y-124462D01*
X33094Y-124432D01*
X33143Y-124383D01*
X33163Y-124373D01*
X33231Y-124334D01*
X33280Y-124285D01*
X33300Y-124275D01*
X33369Y-124226D01*
X33398Y-124197D01*
X33447Y-124177D01*
X33516Y-124138D01*
X33545Y-124108D01*
X33565Y-124099D01*
X33648Y-124045D01*
X33658Y-124025D01*
X33722Y-123991D01*
X33771Y-123971D01*
X33825Y-123927D01*
X33849Y-123902D01*
X33918Y-123863D01*
X33967Y-123814D01*
X34060Y-123780D01*
X34075Y-123765D01*
X34095Y-123755D01*
X34105Y-123735D01*
X34124Y-123726D01*
X34183Y-123686D01*
X34203Y-123677D01*
X34252Y-123627D01*
X34315Y-123603D01*
X34350Y-123588D01*
X34399Y-123539D01*
X34419Y-123529D01*
X34487Y-123480D01*
X34527Y-123441D01*
X34590Y-123416D01*
X34625Y-123402D01*
X34679Y-123358D01*
X34693Y-123343D01*
X34713Y-123333D01*
X34782Y-123284D01*
X34811Y-123255D01*
X34880Y-123215D01*
X34939Y-123156D01*
X35032Y-123122D01*
X35061Y-123102D01*
X35071Y-123083D01*
X35145Y-123039D01*
X35164Y-123029D01*
X35189Y-123004D01*
X35199Y-122985D01*
X35214Y-122970D01*
X35282Y-122950D01*
X35331Y-122921D01*
X35346Y-122906D01*
X35356Y-122887D01*
X35400Y-122862D01*
X35464Y-122828D01*
X35483Y-122769D01*
X35454Y-122720D01*
X35439Y-122705D01*
X35351Y-122656D01*
X35302Y-122607D01*
X35282Y-122597D01*
X35233Y-122578D01*
X35164Y-122538D01*
X35115Y-122489D01*
X35047Y-122450D01*
X35007Y-122411D01*
X34909Y-122371D01*
X34850Y-122312D01*
X34782Y-122273D01*
X34762Y-122254D01*
X34742Y-122244D01*
X34713Y-122214D01*
X34620Y-122180D01*
X34556Y-122116D01*
X34487Y-122077D01*
X34438Y-122028D01*
X34330Y-121969D01*
X34311Y-121950D01*
X34203Y-121891D01*
X34154Y-121842D01*
X34134Y-121832D01*
X34065Y-121783D01*
X34026Y-121743D01*
X33977Y-121724D01*
X33908Y-121685D01*
X33889Y-121665D01*
X33869Y-121655D01*
X33776Y-121591D01*
X33732Y-121547D01*
X33638Y-121513D01*
X33584Y-121459D01*
X33516Y-121420D01*
X33467Y-121370D01*
X33418Y-121351D01*
X33349Y-121312D01*
X33280Y-121263D01*
X33261Y-121253D01*
X33207Y-121209D01*
X33172Y-121174D01*
X33089Y-121130D01*
X33079Y-121110D01*
X33055Y-121086D01*
X32961Y-121052D01*
X32932Y-121032D01*
X32922Y-121012D01*
X32907Y-120998D01*
X32888Y-120988D01*
X32819Y-120949D01*
X32760Y-120890D01*
X32696Y-120875D01*
X32662Y-120850D01*
X32603Y-120791D01*
X32534Y-120752D01*
X32495Y-120713D01*
X32446Y-120693D01*
X32407Y-120684D01*
X32353Y-120639D01*
X32343Y-120620D01*
X32269Y-120576D01*
X32250Y-120566D01*
X32201Y-120517D01*
X32162Y-120507D01*
X32112Y-120487D01*
X32088Y-120473D01*
X32078Y-120453D01*
X32044Y-120419D01*
X31975Y-120379D01*
X31926Y-120330D01*
X31906Y-120320D01*
X31862Y-120286D01*
X31843Y-120208D01*
X31877Y-120144D01*
X31946Y-120124D01*
X32014Y-120114D01*
X32054Y-120105D01*
D02*
G37*
G36*
X51739D02*
X51837Y-120114D01*
X51891Y-120129D01*
X51925Y-120154D01*
X51965Y-120212D01*
X52019Y-120257D01*
X52083Y-120340D01*
X52097Y-120345D01*
X52107Y-120365D01*
X52146Y-120433D01*
X52205Y-120492D01*
X52245Y-120561D01*
X52279Y-120595D01*
X52298Y-120605D01*
X52323Y-120630D01*
X52333Y-120649D01*
X52382Y-120698D01*
X52392Y-120718D01*
X52431Y-120787D01*
X52446Y-120801D01*
X52465Y-120811D01*
X52490Y-120836D01*
X52539Y-120924D01*
X52676Y-121061D01*
X52686Y-121081D01*
X52735Y-121150D01*
X52765Y-121179D01*
X52774Y-121199D01*
X52819Y-121253D01*
X52873Y-121297D01*
X52882Y-121317D01*
X52926Y-121370D01*
X52961Y-121405D01*
X52971Y-121424D01*
X53020Y-121493D01*
X53049Y-121523D01*
X53088Y-121591D01*
X53147Y-121650D01*
X53187Y-121719D01*
X53221Y-121743D01*
X53255Y-121778D01*
X53265Y-121797D01*
X53299Y-121842D01*
X53319Y-121851D01*
X53334Y-121866D01*
X53383Y-121954D01*
X53530Y-122102D01*
X53569Y-122170D01*
X53609Y-122210D01*
X53618Y-122229D01*
X53663Y-122283D01*
X53682Y-122303D01*
X53702Y-122312D01*
X53716Y-122327D01*
X53726Y-122347D01*
X53771Y-122401D01*
X53815Y-122445D01*
X53864Y-122533D01*
X53883Y-122543D01*
X53893Y-122563D01*
X53962Y-122651D01*
X53991Y-122680D01*
X54001Y-122700D01*
X54045Y-122764D01*
X54065Y-122774D01*
X54099Y-122808D01*
X54109Y-122828D01*
X54153Y-122882D01*
X54197Y-122926D01*
X54237Y-122995D01*
X54364Y-123122D01*
X54374Y-123142D01*
X54423Y-123211D01*
X54453Y-123240D01*
X54462Y-123259D01*
X54516Y-123343D01*
X54536Y-123353D01*
X54560Y-123377D01*
X54570Y-123397D01*
X54614Y-123441D01*
X54634Y-123451D01*
X54659Y-123475D01*
X54708Y-123564D01*
X54757Y-123613D01*
X54796Y-123681D01*
X54830Y-123706D01*
X54884Y-123790D01*
X54899Y-123804D01*
X54919Y-123814D01*
X54943Y-123838D01*
X54953Y-123858D01*
X54997Y-123912D01*
X55041Y-123956D01*
X55080Y-124025D01*
X55120Y-124064D01*
X55130Y-124084D01*
X55179Y-124153D01*
X55213Y-124187D01*
X55233Y-124197D01*
X55262Y-124226D01*
X55311Y-124216D01*
X55336Y-124192D01*
X55345Y-124172D01*
X55385Y-124133D01*
X55395Y-124113D01*
X55414Y-124094D01*
X55453Y-124025D01*
X55512Y-123966D01*
X55522Y-123946D01*
X55556Y-123902D01*
X55576Y-123892D01*
X55611Y-123858D01*
X55640Y-123809D01*
X55689Y-123760D01*
X55699Y-123740D01*
X55748Y-123672D01*
X55777Y-123642D01*
X55787Y-123623D01*
X55826Y-123554D01*
X55841Y-123539D01*
X55861Y-123529D01*
X55875Y-123515D01*
X55885Y-123495D01*
X55929Y-123441D01*
X55949Y-123422D01*
X55969Y-123412D01*
X56023Y-123328D01*
X56072Y-123279D01*
X56081Y-123259D01*
X56150Y-123171D01*
X56189Y-123112D01*
X56199Y-123093D01*
X56258Y-123034D01*
X56268Y-123014D01*
X56312Y-122960D01*
X56332Y-122950D01*
X56356Y-122926D01*
X56396Y-122857D01*
X56410Y-122843D01*
X56430Y-122833D01*
X56445Y-122818D01*
X56484Y-122749D01*
X56523Y-122710D01*
X56533Y-122690D01*
X56597Y-122597D01*
X56621Y-122582D01*
X56631Y-122563D01*
X56675Y-122499D01*
X56695Y-122489D01*
X56739Y-122445D01*
X56768Y-122396D01*
X56827Y-122337D01*
X56867Y-122268D01*
X56916Y-122219D01*
X56960Y-122136D01*
X56979Y-122126D01*
X57102Y-122003D01*
X57151Y-121915D01*
X57210Y-121856D01*
X57240Y-121807D01*
X57279Y-121768D01*
X57288Y-121748D01*
X57328Y-121680D01*
X57362Y-121645D01*
X57382Y-121635D01*
X57406Y-121611D01*
X57416Y-121591D01*
X57495Y-121513D01*
X57534Y-121444D01*
X57573Y-121405D01*
X57583Y-121385D01*
X57632Y-121317D01*
X57661Y-121287D01*
X57671Y-121267D01*
X57710Y-121199D01*
X57725Y-121184D01*
X57745Y-121174D01*
X57799Y-121120D01*
X57809Y-121101D01*
X57823Y-121086D01*
X57843Y-121076D01*
X57887Y-121002D01*
X57897Y-120983D01*
X57966Y-120914D01*
X58005Y-120845D01*
X58142Y-120708D01*
X58182Y-120639D01*
X58240Y-120580D01*
X58250Y-120561D01*
X58299Y-120492D01*
X58329Y-120463D01*
X58368Y-120394D01*
X58505Y-120257D01*
X58515Y-120237D01*
X58555Y-120168D01*
X58579Y-120144D01*
X58648Y-120114D01*
X58815Y-120124D01*
X58844Y-120114D01*
X59001Y-120124D01*
X59030Y-120114D01*
X59197Y-120124D01*
X59227Y-120114D01*
X59384Y-120124D01*
X59413Y-120114D01*
X59570Y-120124D01*
X59600Y-120114D01*
X59757Y-120124D01*
X59786Y-120114D01*
X59943Y-120124D01*
X59973Y-120114D01*
X60139Y-120124D01*
X60169Y-120114D01*
X60326Y-120124D01*
X60404Y-120105D01*
X60507Y-120119D01*
X60566Y-120129D01*
X60630Y-120154D01*
X60645Y-120168D01*
X60664Y-120217D01*
X60654Y-120257D01*
X60605Y-120325D01*
X60576Y-120374D01*
X60517Y-120433D01*
X60478Y-120502D01*
X60429Y-120551D01*
X60419Y-120571D01*
X60375Y-120615D01*
X60355Y-120625D01*
X60340Y-120639D01*
X60331Y-120659D01*
X60282Y-120728D01*
X60252Y-120757D01*
X60242Y-120777D01*
X60203Y-120845D01*
X60188Y-120860D01*
X60169Y-120870D01*
X60154Y-120885D01*
X60144Y-120904D01*
X60100Y-120958D01*
X60080Y-120978D01*
X60061Y-120988D01*
X60007Y-121071D01*
X59948Y-121130D01*
X59909Y-121199D01*
X59771Y-121336D01*
X59732Y-121405D01*
X59673Y-121464D01*
X59663Y-121483D01*
X59619Y-121537D01*
X59600Y-121547D01*
X59575Y-121572D01*
X59536Y-121640D01*
X59521Y-121655D01*
X59501Y-121665D01*
X59447Y-121748D01*
X59310Y-121886D01*
X59261Y-121974D01*
X59237Y-121999D01*
X59217Y-122008D01*
X59148Y-122116D01*
X59104Y-122160D01*
X59094Y-122180D01*
X59070Y-122205D01*
X59050Y-122214D01*
X59016Y-122249D01*
X58976Y-122318D01*
X58927Y-122366D01*
X58888Y-122435D01*
X58829Y-122494D01*
X58819Y-122514D01*
X58775Y-122568D01*
X58731Y-122602D01*
X58692Y-122671D01*
X58569Y-122793D01*
X58555Y-122798D01*
X58545Y-122818D01*
X58496Y-122887D01*
X58476Y-122906D01*
X58466Y-122926D01*
X58447Y-122945D01*
X58407Y-123014D01*
X58348Y-123073D01*
X58319Y-123122D01*
X58285Y-123147D01*
X58250Y-123181D01*
X58216Y-123245D01*
X58196Y-123255D01*
X58172Y-123279D01*
X58162Y-123299D01*
X58113Y-123368D01*
X58083Y-123397D01*
X58074Y-123416D01*
X58034Y-123485D01*
X58020Y-123500D01*
X58000Y-123510D01*
X57946Y-123564D01*
X57936Y-123583D01*
X57921Y-123598D01*
X57902Y-123608D01*
X57887Y-123623D01*
X57877Y-123642D01*
X57828Y-123711D01*
X57784Y-123765D01*
X57760Y-123799D01*
X57725Y-123824D01*
X57691Y-123858D01*
X57652Y-123927D01*
X57603Y-123976D01*
X57563Y-124045D01*
X57504Y-124103D01*
X57495Y-124123D01*
X57450Y-124177D01*
X57431Y-124187D01*
X57406Y-124211D01*
X57367Y-124280D01*
X57352Y-124295D01*
X57333Y-124305D01*
X57279Y-124388D01*
X57141Y-124525D01*
X57092Y-124614D01*
X57024Y-124682D01*
X57014Y-124702D01*
X56999Y-124727D01*
X56979Y-124736D01*
X56935Y-124781D01*
X56906Y-124830D01*
X56847Y-124889D01*
X56837Y-124908D01*
X56788Y-124977D01*
X56670Y-125095D01*
X56660Y-125114D01*
X56611Y-125183D01*
X56562Y-125232D01*
X56523Y-125301D01*
X56484Y-125340D01*
X56474Y-125360D01*
X56400Y-125433D01*
X56386Y-125438D01*
X56376Y-125458D01*
X56327Y-125526D01*
X56263Y-125590D01*
X56214Y-125610D01*
X54300Y-125600D01*
X54232Y-125561D01*
X54217Y-125546D01*
X54168Y-125458D01*
X54119Y-125409D01*
X54109Y-125389D01*
X54065Y-125325D01*
X54045Y-125315D01*
X54031Y-125301D01*
X54021Y-125281D01*
X53972Y-125212D01*
X53937Y-125188D01*
X53923Y-125173D01*
X53913Y-125154D01*
X53869Y-125100D01*
X53815Y-125046D01*
X53810Y-125031D01*
X53790Y-125021D01*
X53736Y-124967D01*
X53697Y-124898D01*
X53658Y-124859D01*
X53648Y-124839D01*
X53599Y-124771D01*
X53574Y-124746D01*
X53555Y-124736D01*
X53540Y-124722D01*
X53530Y-124702D01*
X53510Y-124682D01*
X53501Y-124663D01*
X53461Y-124624D01*
X53422Y-124555D01*
X53407Y-124540D01*
X53388Y-124530D01*
X53373Y-124516D01*
X53363Y-124496D01*
X53309Y-124442D01*
X53290Y-124432D01*
X53275Y-124417D01*
X53226Y-124329D01*
X53177Y-124280D01*
X53167Y-124260D01*
X53118Y-124192D01*
X53059Y-124143D01*
X53049Y-124123D01*
X52990Y-124064D01*
X52951Y-123995D01*
X52882Y-123927D01*
X52873Y-123907D01*
X52858Y-123892D01*
X52838Y-123883D01*
X52794Y-123838D01*
X52745Y-123750D01*
X52696Y-123701D01*
X52662Y-123637D01*
X52642Y-123627D01*
X52622Y-123608D01*
X52608Y-123603D01*
X52598Y-123583D01*
X52578Y-123564D01*
X52568Y-123544D01*
X52519Y-123495D01*
X52480Y-123426D01*
X52323Y-123269D01*
X52284Y-123201D01*
X52235Y-123152D01*
X52195Y-123083D01*
X52176Y-123063D01*
X52171Y-123058D01*
X52151Y-123048D01*
X52117Y-123014D01*
X52107Y-122995D01*
X52058Y-122945D01*
X52048Y-122926D01*
X51999Y-122857D01*
X51950Y-122808D01*
X51940Y-122789D01*
X51906Y-122754D01*
X51886Y-122744D01*
X51862Y-122720D01*
X51852Y-122700D01*
X51788Y-122607D01*
X51764Y-122582D01*
X51754Y-122563D01*
X51710Y-122499D01*
X51690Y-122489D01*
X51636Y-122435D01*
X51626Y-122416D01*
X51577Y-122366D01*
X51538Y-122298D01*
X51381Y-122141D01*
X51342Y-122072D01*
X51302Y-122033D01*
X51293Y-122013D01*
X51244Y-121944D01*
X51219Y-121920D01*
X51199Y-121910D01*
X51185Y-121896D01*
X51175Y-121876D01*
X51155Y-121856D01*
X51150Y-121842D01*
X51131Y-121832D01*
X51062Y-121724D01*
X51018Y-121689D01*
X51008Y-121670D01*
X50954Y-121616D01*
X50934Y-121606D01*
X50920Y-121591D01*
X50871Y-121503D01*
X50822Y-121454D01*
X50812Y-121434D01*
X50768Y-121370D01*
X50748Y-121361D01*
X50704Y-121317D01*
X50694Y-121297D01*
X50635Y-121238D01*
X50596Y-121169D01*
X50527Y-121101D01*
X50517Y-121081D01*
X50503Y-121066D01*
X50483Y-121056D01*
X50439Y-121012D01*
X50390Y-120924D01*
X50370Y-120914D01*
X50360Y-120895D01*
X50341Y-120875D01*
X50306Y-120811D01*
X50287Y-120801D01*
X50164Y-120679D01*
X50115Y-120590D01*
X49968Y-120443D01*
X49929Y-120374D01*
X49880Y-120325D01*
X49870Y-120306D01*
X49840Y-120237D01*
X49850Y-120168D01*
X49875Y-120144D01*
X49924Y-120124D01*
X49992Y-120114D01*
X50149Y-120124D01*
X50179Y-120114D01*
X50336Y-120124D01*
X50365Y-120114D01*
X50522Y-120124D01*
X50552Y-120114D01*
X50718Y-120124D01*
X50748Y-120114D01*
X50905Y-120124D01*
X50934Y-120114D01*
X51091Y-120124D01*
X51121Y-120114D01*
X51278Y-120124D01*
X51307Y-120114D01*
X51464Y-120124D01*
X51494Y-120114D01*
X51670Y-120124D01*
X51700Y-120114D01*
X51739Y-120105D01*
D02*
G37*
G36*
X34036Y-129162D02*
X34065Y-129172D01*
X39330Y-129167D01*
X39369Y-129177D01*
X39399Y-129197D01*
X39438Y-129265D01*
X39472Y-129290D01*
X39487Y-129305D01*
X39497Y-129344D01*
X39487Y-129471D01*
X39497Y-133662D01*
X39531Y-133696D01*
X39551Y-133706D01*
X39595Y-133750D01*
X39605Y-133770D01*
X39620Y-133784D01*
X39639Y-133794D01*
X39693Y-133848D01*
X39703Y-133868D01*
X39718Y-133882D01*
X39737Y-133892D01*
X39782Y-133936D01*
X39791Y-133956D01*
X39816Y-133981D01*
X39836Y-133990D01*
X39880Y-134035D01*
X39889Y-134054D01*
X39904Y-134069D01*
X39924Y-134079D01*
X39968Y-134123D01*
X39978Y-134142D01*
X40002Y-134167D01*
X40022Y-134177D01*
X40066Y-134221D01*
X40076Y-134241D01*
X40091Y-134255D01*
X40110Y-134265D01*
X40164Y-134319D01*
X40174Y-134339D01*
X40189Y-134353D01*
X40208Y-134363D01*
X40253Y-134407D01*
X40262Y-134427D01*
X40287Y-134452D01*
X40307Y-134461D01*
X40351Y-134506D01*
X40361Y-134525D01*
X40375Y-134540D01*
X40395Y-134550D01*
X40439Y-134594D01*
X40449Y-134614D01*
X40473Y-134638D01*
X40493Y-134648D01*
X40537Y-134692D01*
X40547Y-134712D01*
X40562Y-134726D01*
X40581Y-134736D01*
X40635Y-134790D01*
X40645Y-134810D01*
X40660Y-134825D01*
X40679Y-134834D01*
X40724Y-134879D01*
X40734Y-134898D01*
X40758Y-134923D01*
X40778Y-134932D01*
X40822Y-134977D01*
X40832Y-134996D01*
X40846Y-135011D01*
X40866Y-135021D01*
X40910Y-135065D01*
X40920Y-135085D01*
X40944Y-135109D01*
X40964Y-135119D01*
X41008Y-135163D01*
X41018Y-135183D01*
X41033Y-135197D01*
X41052Y-135207D01*
X41106Y-135261D01*
X41116Y-135281D01*
X41131Y-135296D01*
X41151Y-135305D01*
X41195Y-135350D01*
X41205Y-135369D01*
X41229Y-135394D01*
X41249Y-135404D01*
X41293Y-135448D01*
X41303Y-135467D01*
X41317Y-135482D01*
X41337Y-135492D01*
X41381Y-135536D01*
X41391Y-135644D01*
X41416Y-135669D01*
X41553Y-135688D01*
X49904Y-135678D01*
X49958Y-135634D01*
X49968Y-135615D01*
X50012Y-135570D01*
X50032Y-135561D01*
X50046Y-135546D01*
X50056Y-135526D01*
X50100Y-135482D01*
X50120Y-135472D01*
X50139Y-135453D01*
X50144Y-135448D01*
X50154Y-135428D01*
X50198Y-135384D01*
X50218Y-135374D01*
X50233Y-135359D01*
X50243Y-135340D01*
X50296Y-135286D01*
X50316Y-135276D01*
X50331Y-135261D01*
X50341Y-135242D01*
X50385Y-135197D01*
X50405Y-135188D01*
X50429Y-135163D01*
X50439Y-135143D01*
X50483Y-135099D01*
X50503Y-135090D01*
X50517Y-135075D01*
X50527Y-135055D01*
X50571Y-135011D01*
X50591Y-135001D01*
X50616Y-134977D01*
X50625Y-134957D01*
X50669Y-134913D01*
X50689Y-134903D01*
X50704Y-134888D01*
X50714Y-134869D01*
X50768Y-134815D01*
X50787Y-134805D01*
X50802Y-134790D01*
X50812Y-134771D01*
X50856Y-134726D01*
X50876Y-134717D01*
X50900Y-134692D01*
X50910Y-134672D01*
X50954Y-134628D01*
X50974Y-134618D01*
X50988Y-134604D01*
X50998Y-134584D01*
X51042Y-134540D01*
X51062Y-134530D01*
X51086Y-134506D01*
X51096Y-134486D01*
X51140Y-134442D01*
X51160Y-134432D01*
X51175Y-134417D01*
X51185Y-134398D01*
X51239Y-134344D01*
X51258Y-134334D01*
X51273Y-134319D01*
X51283Y-134300D01*
X51327Y-134255D01*
X51347Y-134246D01*
X51371Y-134221D01*
X51381Y-134201D01*
X51425Y-134157D01*
X51445Y-134147D01*
X51459Y-134133D01*
X51469Y-134113D01*
X51513Y-134069D01*
X51533Y-134059D01*
X51558Y-134035D01*
X51567Y-134015D01*
X51612Y-133971D01*
X51631Y-133961D01*
X51646Y-133946D01*
X51656Y-133927D01*
X51710Y-133873D01*
X51729Y-133863D01*
X51744Y-133848D01*
X51754Y-133828D01*
X51798Y-133784D01*
X51818Y-133774D01*
X51842Y-133750D01*
X51852Y-133711D01*
X51862Y-133632D01*
X51876Y-133617D01*
X51896Y-133608D01*
X51930Y-133573D01*
X51950Y-133495D01*
X51925Y-133431D01*
X51906Y-133421D01*
X51862Y-133387D01*
X51872Y-133328D01*
X51925Y-133294D01*
X51940Y-133249D01*
X51930Y-133063D01*
X51906Y-133038D01*
X51862Y-133014D01*
X51872Y-132965D01*
X51886Y-132950D01*
X51906Y-132940D01*
X51930Y-132926D01*
X51940Y-132886D01*
X51930Y-132867D01*
X51906Y-132842D01*
X51862Y-132818D01*
X51872Y-132769D01*
X51925Y-132734D01*
X51940Y-132720D01*
X51930Y-132680D01*
X51906Y-132656D01*
X51886Y-132646D01*
X51862Y-132631D01*
X51872Y-132582D01*
X51925Y-132548D01*
X51940Y-132533D01*
X51930Y-132484D01*
X51916Y-132469D01*
X51867Y-132440D01*
X51852Y-132415D01*
X51876Y-132381D01*
X51896Y-132371D01*
X51930Y-132347D01*
X51940Y-132307D01*
X51930Y-132121D01*
X51906Y-132096D01*
X51862Y-132072D01*
X51872Y-132023D01*
X51886Y-132008D01*
X51906Y-131998D01*
X51930Y-131984D01*
X51940Y-131944D01*
X51930Y-131925D01*
X51906Y-131900D01*
X51862Y-131876D01*
X51872Y-131827D01*
X51925Y-131792D01*
X51940Y-131778D01*
X51930Y-131738D01*
X51906Y-131714D01*
X51886Y-131704D01*
X51862Y-131689D01*
X51872Y-131640D01*
X51925Y-131606D01*
X51940Y-131591D01*
X51930Y-131542D01*
X51916Y-131527D01*
X51867Y-131498D01*
X51862Y-131454D01*
X51876Y-131439D01*
X51896Y-131429D01*
X51930Y-131405D01*
X51940Y-131365D01*
X51930Y-131179D01*
X51906Y-131154D01*
X51862Y-131130D01*
X51857Y-131105D01*
X51886Y-131066D01*
X51906Y-131056D01*
X51930Y-131042D01*
X51940Y-131002D01*
X51930Y-130983D01*
X51906Y-130958D01*
X51862Y-130933D01*
X51872Y-130885D01*
X51925Y-130850D01*
X51940Y-130835D01*
X51930Y-130796D01*
X51906Y-130772D01*
X51886Y-130762D01*
X51862Y-130747D01*
X51872Y-130698D01*
X51925Y-130664D01*
X51940Y-130649D01*
X51930Y-130600D01*
X51916Y-130585D01*
X51867Y-130556D01*
X51862Y-130521D01*
X51886Y-130497D01*
X51930Y-130472D01*
X51940Y-130433D01*
X51916Y-130399D01*
X51867Y-130369D01*
X51862Y-130335D01*
X51886Y-130310D01*
X51930Y-130286D01*
X51940Y-130247D01*
X51930Y-130227D01*
X51906Y-130202D01*
X51862Y-130178D01*
X51867Y-130134D01*
X51886Y-130124D01*
X51940Y-130080D01*
X51930Y-130041D01*
X51906Y-130016D01*
X51862Y-129991D01*
X51872Y-129942D01*
X51925Y-129908D01*
X51940Y-129893D01*
X51930Y-129854D01*
X51906Y-129830D01*
X51886Y-129820D01*
X51862Y-129805D01*
X51872Y-129756D01*
X51925Y-129722D01*
X51940Y-129707D01*
X51930Y-129658D01*
X51916Y-129643D01*
X51867Y-129614D01*
X51862Y-129579D01*
X51886Y-129555D01*
X51930Y-129530D01*
X51940Y-129491D01*
X51906Y-129447D01*
X51862Y-129422D01*
X51857Y-129398D01*
X51881Y-129363D01*
X51916Y-129339D01*
X51940Y-129314D01*
X51970Y-129265D01*
X52053Y-129182D01*
X52092Y-129172D01*
X57382Y-129182D01*
X57426Y-129226D01*
X57436Y-129246D01*
X57495Y-129295D01*
X57504Y-129422D01*
X57539Y-129457D01*
X57558Y-129466D01*
X57573Y-129481D01*
X57563Y-129530D01*
X57549Y-129545D01*
X57529Y-129555D01*
X57495Y-129589D01*
X57504Y-129805D01*
X57519Y-129820D01*
X57539Y-129830D01*
X57573Y-129854D01*
X57563Y-129913D01*
X57509Y-129947D01*
X57495Y-129962D01*
X57504Y-130178D01*
X57529Y-130202D01*
X57549Y-130212D01*
X57573Y-130237D01*
X57563Y-130286D01*
X57549Y-130301D01*
X57529Y-130310D01*
X57504Y-130325D01*
X57495Y-130364D01*
X57504Y-130561D01*
X57563Y-130600D01*
X57573Y-130629D01*
X57563Y-130659D01*
X57539Y-130683D01*
X57519Y-130693D01*
X57495Y-130718D01*
X57504Y-130933D01*
X57529Y-130958D01*
X57573Y-130983D01*
X57563Y-131042D01*
X57504Y-131081D01*
X57495Y-131120D01*
X57504Y-131307D01*
X57539Y-131341D01*
X57558Y-131351D01*
X57573Y-131365D01*
X57563Y-131414D01*
X57549Y-131429D01*
X57529Y-131439D01*
X57495Y-131473D01*
X57504Y-131689D01*
X57519Y-131704D01*
X57539Y-131714D01*
X57573Y-131738D01*
X57563Y-131797D01*
X57509Y-131832D01*
X57495Y-131846D01*
X57504Y-132062D01*
X57529Y-132087D01*
X57549Y-132096D01*
X57573Y-132121D01*
X57563Y-132170D01*
X57549Y-132185D01*
X57529Y-132195D01*
X57504Y-132209D01*
X57495Y-132249D01*
X57504Y-132445D01*
X57563Y-132484D01*
X57573Y-132513D01*
X57563Y-132543D01*
X57539Y-132568D01*
X57519Y-132577D01*
X57495Y-132602D01*
X57504Y-132818D01*
X57529Y-132842D01*
X57573Y-132867D01*
X57563Y-132926D01*
X57504Y-132965D01*
X57495Y-133004D01*
X57504Y-133191D01*
X57539Y-133225D01*
X57558Y-133235D01*
X57573Y-133249D01*
X57563Y-133299D01*
X57549Y-133313D01*
X57529Y-133323D01*
X57495Y-133357D01*
X57504Y-133573D01*
X57519Y-133588D01*
X57539Y-133598D01*
X57573Y-133622D01*
X57563Y-133671D01*
X57539Y-133696D01*
X57519Y-133706D01*
X57495Y-133730D01*
X57504Y-133946D01*
X57529Y-133971D01*
X57549Y-133981D01*
X57573Y-134005D01*
X57563Y-134054D01*
X57549Y-134069D01*
X57529Y-134079D01*
X57504Y-134093D01*
X57495Y-134133D01*
X57504Y-134329D01*
X57563Y-134368D01*
X57573Y-134398D01*
X57563Y-134427D01*
X57539Y-134452D01*
X57519Y-134461D01*
X57495Y-134486D01*
X57504Y-134702D01*
X57529Y-134726D01*
X57573Y-134751D01*
X57563Y-134810D01*
X57504Y-134849D01*
X57495Y-134888D01*
X57504Y-135075D01*
X57539Y-135109D01*
X57558Y-135119D01*
X57573Y-135134D01*
X57563Y-135183D01*
X57549Y-135197D01*
X57529Y-135207D01*
X57495Y-135242D01*
X57504Y-135458D01*
X57519Y-135472D01*
X57539Y-135482D01*
X57573Y-135507D01*
X57563Y-135556D01*
X57539Y-135580D01*
X57519Y-135590D01*
X57495Y-135615D01*
X57504Y-135830D01*
X57529Y-135855D01*
X57549Y-135865D01*
X57573Y-135889D01*
X57563Y-135938D01*
X57549Y-135953D01*
X57499Y-135983D01*
X57377Y-136105D01*
X57372Y-136120D01*
X57352Y-136130D01*
X57288Y-136194D01*
X57279Y-136213D01*
X57220Y-136262D01*
X56906Y-136576D01*
X56901Y-136591D01*
X56881Y-136601D01*
X56818Y-136664D01*
X56808Y-136684D01*
X56749Y-136733D01*
X56435Y-137047D01*
X56430Y-137062D01*
X56410Y-137072D01*
X56337Y-137145D01*
X56332Y-137160D01*
X56312Y-137170D01*
X55964Y-137518D01*
X55959Y-137533D01*
X55939Y-137543D01*
X55866Y-137616D01*
X55861Y-137631D01*
X55841Y-137641D01*
X55493Y-137989D01*
X55488Y-138004D01*
X55468Y-138014D01*
X55395Y-138087D01*
X55390Y-138102D01*
X55370Y-138112D01*
X55022Y-138460D01*
X55017Y-138475D01*
X54997Y-138485D01*
X54923Y-138558D01*
X54919Y-138573D01*
X54899Y-138583D01*
X54551Y-138931D01*
X54546Y-138946D01*
X54526Y-138956D01*
X54453Y-139030D01*
X54448Y-139044D01*
X54428Y-139054D01*
X54080Y-139402D01*
X54075Y-139417D01*
X54055Y-139427D01*
X53981Y-139501D01*
X53977Y-139515D01*
X53957Y-139525D01*
X53609Y-139874D01*
X53604Y-139888D01*
X53584Y-139898D01*
X53510Y-139972D01*
X53505Y-139986D01*
X53486Y-139996D01*
X53137Y-140345D01*
X53133Y-140359D01*
X53113Y-140369D01*
X53039Y-140443D01*
X53035Y-140457D01*
X53015Y-140467D01*
X52666Y-140816D01*
X52662Y-140830D01*
X52642Y-140840D01*
X52568Y-140914D01*
X52563Y-140928D01*
X52544Y-140938D01*
X52205Y-141277D01*
X52195Y-141296D01*
X52181Y-141311D01*
X52112Y-141321D01*
X51955Y-141311D01*
X51925Y-141321D01*
X51744Y-141316D01*
X51670Y-141321D01*
X51641Y-141311D01*
X51464Y-141321D01*
X51435Y-141311D01*
X51288Y-141321D01*
X51258Y-141311D01*
X51091Y-141321D01*
X51062Y-141311D01*
X50915Y-141321D01*
X50885Y-141311D01*
X50709Y-141321D01*
X50679Y-141311D01*
X50542Y-141321D01*
X50512Y-141311D01*
X50336Y-141321D01*
X50306Y-141311D01*
X50159Y-141321D01*
X50130Y-141311D01*
X49953Y-141321D01*
X49924Y-141311D01*
X49786Y-141321D01*
X49757Y-141311D01*
X49580Y-141321D01*
X49551Y-141311D01*
X49404Y-141321D01*
X49374Y-141311D01*
X49207Y-141321D01*
X49178Y-141311D01*
X49031Y-141321D01*
X49001Y-141311D01*
X48825Y-141321D01*
X48795Y-141311D01*
X48658Y-141321D01*
X48628Y-141311D01*
X48452Y-141321D01*
X48422Y-141311D01*
X48275Y-141321D01*
X48245Y-141311D01*
X48069Y-141321D01*
X48039Y-141311D01*
X47902Y-141321D01*
X47873Y-141311D01*
X47696Y-141321D01*
X47667Y-141311D01*
X47519Y-141321D01*
X47490Y-141311D01*
X47323Y-141321D01*
X47294Y-141311D01*
X47146Y-141321D01*
X47117Y-141311D01*
X46940Y-141321D01*
X46911Y-141311D01*
X46774Y-141321D01*
X46744Y-141311D01*
X46567Y-141321D01*
X46538Y-141311D01*
X46391Y-141321D01*
X46361Y-141311D01*
X46185Y-141321D01*
X46155Y-141311D01*
X46018Y-141321D01*
X45989Y-141311D01*
X45812Y-141321D01*
X45782Y-141311D01*
X45635Y-141321D01*
X45606Y-141311D01*
X45439Y-141321D01*
X45410Y-141311D01*
X45262Y-141321D01*
X45233Y-141311D01*
X45056Y-141321D01*
X45027Y-141311D01*
X44889Y-141321D01*
X44860Y-141311D01*
X44683Y-141321D01*
X44654Y-141311D01*
X44507Y-141321D01*
X44477Y-141311D01*
X44301Y-141321D01*
X44271Y-141311D01*
X44134Y-141321D01*
X44104Y-141311D01*
X43928Y-141321D01*
X43898Y-141311D01*
X43751Y-141321D01*
X43722Y-141311D01*
X43555Y-141321D01*
X43525Y-141311D01*
X43378Y-141321D01*
X43349Y-141311D01*
X43172Y-141321D01*
X43143Y-141311D01*
X43005Y-141321D01*
X42976Y-141311D01*
X42799Y-141321D01*
X42770Y-141311D01*
X42623Y-141321D01*
X42593Y-141311D01*
X42416Y-141321D01*
X42387Y-141311D01*
X42250Y-141321D01*
X42220Y-141311D01*
X42044Y-141321D01*
X42014Y-141311D01*
X41867Y-141321D01*
X41837Y-141311D01*
X41671Y-141321D01*
X41641Y-141311D01*
X41494Y-141321D01*
X41464Y-141311D01*
X41288Y-141321D01*
X41258Y-141311D01*
X41121Y-141321D01*
X41092Y-141311D01*
X40915Y-141321D01*
X40886Y-141311D01*
X40738Y-141321D01*
X40709Y-141311D01*
X40532Y-141321D01*
X40503Y-141311D01*
X40365Y-141321D01*
X40336Y-141311D01*
X40159Y-141321D01*
X40130Y-141311D01*
X39983Y-141321D01*
X39953Y-141311D01*
X39786Y-141321D01*
X39757Y-141311D01*
X39610Y-141321D01*
X39580Y-141311D01*
X39414Y-141321D01*
X39384Y-141311D01*
X39188Y-141321D01*
X39144Y-141287D01*
X39134Y-141267D01*
X39080Y-141213D01*
X39060Y-141203D01*
X39046Y-141189D01*
X39036Y-141169D01*
X38992Y-141125D01*
X38972Y-141115D01*
X38947Y-141090D01*
X38938Y-141071D01*
X38893Y-141027D01*
X38874Y-141017D01*
X38859Y-141002D01*
X38849Y-140982D01*
X38795Y-140928D01*
X38776Y-140919D01*
X38761Y-140904D01*
X38751Y-140884D01*
X38707Y-140840D01*
X38687Y-140830D01*
X38673Y-140816D01*
X38663Y-140796D01*
X38609Y-140742D01*
X38589Y-140732D01*
X38574Y-140717D01*
X38565Y-140698D01*
X38521Y-140654D01*
X38501Y-140644D01*
X38476Y-140619D01*
X38467Y-140600D01*
X38422Y-140556D01*
X38403Y-140546D01*
X38388Y-140531D01*
X38378Y-140511D01*
X38324Y-140457D01*
X38305Y-140448D01*
X38290Y-140433D01*
X38280Y-140413D01*
X38236Y-140369D01*
X38216Y-140359D01*
X38202Y-140345D01*
X38192Y-140325D01*
X38138Y-140271D01*
X38118Y-140261D01*
X38104Y-140246D01*
X38094Y-140227D01*
X38050Y-140183D01*
X38030Y-140173D01*
X38005Y-140148D01*
X37995Y-140129D01*
X37951Y-140085D01*
X37932Y-140075D01*
X37917Y-140060D01*
X37907Y-140040D01*
X37863Y-139996D01*
X37843Y-139986D01*
X37819Y-139962D01*
X37809Y-139942D01*
X37765Y-139898D01*
X37745Y-139888D01*
X37731Y-139874D01*
X37721Y-139854D01*
X37667Y-139800D01*
X37647Y-139790D01*
X37632Y-139775D01*
X37623Y-139756D01*
X37578Y-139712D01*
X37559Y-139702D01*
X37534Y-139677D01*
X37525Y-139658D01*
X37480Y-139613D01*
X37461Y-139604D01*
X37446Y-139589D01*
X37436Y-139569D01*
X37382Y-139515D01*
X37363Y-139506D01*
X37348Y-139491D01*
X37338Y-139471D01*
X37294Y-139427D01*
X37274Y-139417D01*
X37260Y-139402D01*
X37250Y-139383D01*
X37196Y-139329D01*
X37176Y-139319D01*
X37161Y-139304D01*
X37152Y-139285D01*
X37107Y-139241D01*
X37088Y-139231D01*
X37063Y-139206D01*
X37053Y-139187D01*
X37009Y-139142D01*
X36990Y-139133D01*
X36975Y-139118D01*
X36965Y-139098D01*
X36921Y-139054D01*
X36901Y-139044D01*
X36877Y-139020D01*
X36867Y-139000D01*
X36823Y-138956D01*
X36803Y-138946D01*
X36788Y-138931D01*
X36779Y-138912D01*
X36725Y-138858D01*
X36705Y-138848D01*
X36690Y-138833D01*
X36680Y-138765D01*
X36671Y-138716D01*
X36646Y-138691D01*
X36597Y-138662D01*
X36558Y-138603D01*
X36538Y-138593D01*
X36504Y-138568D01*
X36494Y-138549D01*
X36474Y-138529D01*
X36470Y-138514D01*
X36450Y-138505D01*
X36430Y-138485D01*
X36411Y-138475D01*
X36376Y-138431D01*
X36371Y-138416D01*
X36352Y-138406D01*
X36332Y-138387D01*
X36312Y-138377D01*
X36263Y-138318D01*
X36244Y-138298D01*
X36224Y-138289D01*
X36175Y-138230D01*
X36146Y-138200D01*
X36126Y-138190D01*
X36077Y-138132D01*
X36057Y-138112D01*
X36038Y-138102D01*
X36013Y-138068D01*
X35998Y-138043D01*
X35979Y-138033D01*
X35959Y-138014D01*
X35940Y-138004D01*
X35915Y-137970D01*
X35900Y-137945D01*
X35881Y-137935D01*
X35861Y-137916D01*
X35842Y-137906D01*
X35817Y-137872D01*
X35773Y-137827D01*
X35753Y-137818D01*
X35729Y-137783D01*
X35714Y-137759D01*
X35694Y-137749D01*
X35675Y-137729D01*
X35655Y-137720D01*
X35631Y-137685D01*
X35616Y-137661D01*
X35596Y-137651D01*
X35562Y-137626D01*
X35552Y-137607D01*
X35532Y-137587D01*
X35528Y-137572D01*
X35508Y-137563D01*
X35488Y-137543D01*
X35469Y-137533D01*
X35444Y-137499D01*
X35429Y-137474D01*
X35410Y-137464D01*
X35390Y-137445D01*
X35370Y-137435D01*
X35346Y-137400D01*
X35302Y-137356D01*
X35282Y-137347D01*
X35248Y-137302D01*
X35243Y-137288D01*
X35223Y-137278D01*
X35204Y-137258D01*
X35184Y-137248D01*
X35150Y-137204D01*
X35145Y-137190D01*
X35125Y-137180D01*
X35091Y-137155D01*
X35081Y-137136D01*
X35061Y-137116D01*
X35056Y-137101D01*
X35037Y-137091D01*
X35017Y-137072D01*
X34998Y-137062D01*
X34949Y-137003D01*
X34919Y-136974D01*
X34899Y-136964D01*
X34850Y-136905D01*
X34831Y-136885D01*
X34811Y-136875D01*
X34787Y-136841D01*
X34772Y-136817D01*
X34752Y-136807D01*
X34733Y-136787D01*
X34713Y-136777D01*
X34688Y-136743D01*
X34674Y-136718D01*
X34654Y-136709D01*
X34610Y-136674D01*
X34600Y-136655D01*
X34546Y-136601D01*
X34527Y-136591D01*
X34502Y-136557D01*
X34448Y-136503D01*
X34428Y-136493D01*
X34404Y-136459D01*
X34360Y-136414D01*
X34340Y-136405D01*
X34315Y-136370D01*
X34301Y-136346D01*
X34281Y-136336D01*
X34262Y-136316D01*
X34242Y-136306D01*
X34217Y-136272D01*
X34203Y-136248D01*
X34183Y-136238D01*
X34139Y-136203D01*
X34129Y-136184D01*
X34075Y-136130D01*
X34056Y-136120D01*
X34006Y-136061D01*
X33977Y-136032D01*
X33957Y-136022D01*
X33918Y-135963D01*
X33898Y-135953D01*
X33854Y-135919D01*
X33845Y-135880D01*
X33854Y-135722D01*
X33849Y-129319D01*
X33874Y-129285D01*
X33889Y-129270D01*
X33908Y-129260D01*
X33943Y-129226D01*
X33952Y-129206D01*
X33967Y-129182D01*
X34036Y-129162D01*
D02*
G37*
G36*
X41847Y-129221D02*
X49580Y-129231D01*
X49649Y-129280D01*
X49654Y-129354D01*
X49615Y-129442D01*
X49624Y-129481D01*
X49619Y-132499D01*
X49634Y-132533D01*
X49654Y-132582D01*
X49659Y-132607D01*
X49639Y-132656D01*
X49605Y-132690D01*
X49595Y-132710D01*
X49433Y-132872D01*
X49418Y-132877D01*
X49408Y-132896D01*
X49335Y-132970D01*
X49320Y-132975D01*
X49310Y-132994D01*
X49246Y-133058D01*
X49232Y-133063D01*
X49222Y-133083D01*
X49148Y-133156D01*
X49134Y-133161D01*
X49124Y-133181D01*
X48972Y-133333D01*
X48952Y-133343D01*
X48893Y-133402D01*
X48825Y-133411D01*
X48726Y-133402D01*
X47716Y-133411D01*
X45566Y-133402D01*
X45537Y-133411D01*
X45184D01*
X42740Y-133402D01*
X42711Y-133411D01*
X42465Y-133402D01*
X42441Y-133387D01*
X42431Y-133367D01*
X42407Y-133333D01*
X42387Y-133323D01*
X42333Y-133279D01*
X42323Y-133259D01*
X42304Y-133240D01*
X42299Y-133225D01*
X42279Y-133215D01*
X42225Y-133161D01*
X42220Y-133147D01*
X42200Y-133137D01*
X42147Y-133092D01*
X42137Y-133073D01*
X42117Y-133053D01*
X42112Y-133038D01*
X42093Y-133029D01*
X42039Y-132975D01*
X42029Y-132955D01*
X42014Y-132940D01*
X41995Y-132931D01*
X41950Y-132886D01*
X41941Y-132867D01*
X41916Y-132842D01*
X41896Y-132832D01*
X41852Y-132788D01*
X41842Y-132769D01*
X41828Y-132754D01*
X41808Y-132744D01*
X41764Y-132700D01*
X41754Y-132631D01*
X41744Y-132592D01*
X41749Y-131203D01*
X41739Y-131164D01*
X41725Y-131110D01*
X41734Y-131051D01*
X41744Y-131022D01*
X41754Y-130983D01*
X41744Y-130894D01*
X41754Y-130865D01*
X41744Y-130786D01*
X41725Y-130737D01*
X41734Y-130669D01*
X41744Y-130639D01*
X41754Y-130600D01*
X41749Y-130517D01*
X41754Y-130453D01*
X41744Y-130423D01*
X41725Y-130355D01*
X41734Y-130296D01*
X41744Y-130266D01*
X41754Y-130227D01*
X41744Y-130070D01*
X41754Y-129265D01*
X41779Y-129231D01*
X41847Y-129221D01*
D02*
G37*
G36*
X-15673Y-129182D02*
X-18376D01*
X-18387Y-129187D01*
X-18393Y-129193D01*
X-18398Y-129204D01*
Y-129209D01*
Y-129215D01*
Y-129221D01*
Y-131885D01*
Y-131901D01*
Y-131907D01*
X-18393Y-131918D01*
X-18382Y-131923D01*
X-15668D01*
X-15662Y-131918D01*
X-15651Y-131896D01*
Y-131890D01*
Y-131885D01*
Y-129221D01*
X-15657Y-129198D01*
X-15662Y-129193D01*
X-15673Y-129182D01*
D02*
G37*
G36*
X-20946Y-130059D02*
X-22833D01*
X-22838Y-130064D01*
X-22844Y-130070D01*
X-22850Y-130075D01*
X-22855Y-130086D01*
Y-130092D01*
Y-130097D01*
Y-130647D01*
X-20918Y-130658D01*
Y-130097D01*
Y-130081D01*
X-20924Y-130075D01*
X-20929Y-130070D01*
X-20946Y-130059D01*
D02*
G37*
G36*
X-39960D02*
X-41847D01*
X-41853Y-130064D01*
X-41858Y-130070D01*
X-41864Y-130075D01*
X-41869Y-130086D01*
Y-130092D01*
Y-130097D01*
Y-130647D01*
X-39932Y-130658D01*
Y-130097D01*
Y-130081D01*
X-39938Y-130075D01*
X-39944Y-130070D01*
X-39960Y-130059D01*
D02*
G37*
G36*
X-44200Y-130059D02*
X-46087D01*
X-46093Y-130064D01*
X-46098Y-130070D01*
X-46104Y-130075D01*
X-46110Y-130086D01*
Y-130092D01*
Y-130097D01*
Y-131907D01*
X-46104Y-131929D01*
X-46098Y-131934D01*
X-46093Y-131940D01*
X-44211D01*
X-44189Y-131934D01*
X-44184D01*
X-44173Y-131918D01*
Y-131907D01*
Y-130097D01*
Y-130081D01*
X-44178Y-130075D01*
X-44184Y-130070D01*
X-44200Y-130059D01*
D02*
G37*
G36*
X-50655D02*
X-52525D01*
X-52548Y-130064D01*
X-52553Y-130070D01*
X-52559Y-130075D01*
X-52564Y-130086D01*
Y-130092D01*
Y-130097D01*
Y-131907D01*
X-52559Y-131929D01*
X-52553Y-131934D01*
X-52536Y-131940D01*
X-50661D01*
X-50644Y-131934D01*
X-50638D01*
X-50627Y-131918D01*
Y-131907D01*
Y-130097D01*
Y-130081D01*
X-50633Y-130075D01*
X-50638Y-130070D01*
X-50655Y-130059D01*
D02*
G37*
G36*
X-31108Y-130059D02*
X-32989D01*
X-33011Y-130064D01*
X-33017Y-130070D01*
X-33023Y-130075D01*
X-33028Y-130086D01*
Y-130092D01*
Y-130097D01*
Y-131907D01*
X-33023Y-131929D01*
X-33017Y-131934D01*
X-33000Y-131940D01*
X-31119D01*
X-31097Y-131934D01*
X-31091D01*
X-31086Y-131918D01*
Y-131907D01*
Y-130097D01*
Y-130081D01*
X-31091Y-130075D01*
Y-130070D01*
X-31108Y-130059D01*
D02*
G37*
G36*
X-31249Y-138302D02*
X-33186Y-138307D01*
Y-138895D01*
X-31288D01*
X-31266Y-138890D01*
X-31260D01*
X-31249Y-138873D01*
Y-138862D01*
Y-138302D01*
D02*
G37*
G36*
X-40068Y-137014D02*
X-41955D01*
X-41961Y-137020D01*
X-41966Y-137025D01*
X-41972Y-137030D01*
X-41978Y-137042D01*
Y-137047D01*
Y-137053D01*
Y-138862D01*
X-41972Y-138884D01*
X-41966Y-138890D01*
X-41961Y-138895D01*
X-40080D01*
X-40057Y-138890D01*
X-40052D01*
X-40041Y-138873D01*
Y-138862D01*
Y-137053D01*
Y-137036D01*
X-40046Y-137030D01*
X-40052Y-137025D01*
X-40068Y-137014D01*
D02*
G37*
%LPD*%
D31*
X-29100Y-113400D02*
D03*
X-59100Y66600D02*
D03*
X-89100Y26600D02*
D03*
D32*
Y-103400D02*
D03*
D33*
Y-113400D02*
D03*
D34*
Y-93400D02*
D03*
X-49100Y66600D02*
D03*
X-29100Y26600D02*
D03*
D35*
X-39100Y66600D02*
D03*
X-69100D02*
D03*
X-79100D02*
D03*
X-89100Y16600D02*
D03*
X-29100D02*
D03*
Y-103400D02*
D03*
Y-93400D02*
D03*
Y-83400D02*
D03*
Y-73400D02*
D03*
Y-63400D02*
D03*
Y-53400D02*
D03*
Y-43400D02*
D03*
Y-33400D02*
D03*
Y-23400D02*
D03*
Y-13400D02*
D03*
Y-3400D02*
D03*
Y6600D02*
D03*
X-79100Y-103400D02*
D03*
X-89100Y6600D02*
D03*
Y-3400D02*
D03*
Y-13400D02*
D03*
Y-23400D02*
D03*
Y-33400D02*
D03*
Y-43400D02*
D03*
Y-53400D02*
D03*
Y-63400D02*
D03*
Y-73400D02*
D03*
Y-83400D02*
D03*
X-29100Y46600D02*
D03*
Y56600D02*
D03*
Y66600D02*
D03*
Y76600D02*
D03*
Y86600D02*
D03*
Y96600D02*
D03*
Y106600D02*
D03*
Y116600D02*
D03*
X-89100Y36600D02*
D03*
Y46600D02*
D03*
Y56600D02*
D03*
Y66600D02*
D03*
Y76600D02*
D03*
Y86600D02*
D03*
Y96600D02*
D03*
Y106600D02*
D03*
Y116600D02*
D03*
X-40911Y-88400D02*
D03*
Y-78400D02*
D03*
Y-68400D02*
D03*
Y-58400D02*
D03*
Y-48400D02*
D03*
X-29100Y36600D02*
D03*
X-63037Y-112494D02*
D03*
X-55163D02*
D03*
D36*
X-79100Y-62337D02*
D03*
X-71226D02*
D03*
X-63352D02*
D03*
X-79100Y-54463D02*
D03*
X-71226D02*
D03*
X-63352D02*
D03*
D37*
X53800Y152400D02*
D03*
D38*
X62068D02*
D03*
X29784D02*
D03*
D39*
X38052D02*
D03*
X45926D02*
D03*
D40*
X8000Y-133000D02*
D03*
Y-103000D02*
D03*
Y-113000D02*
D03*
Y-123000D02*
D03*
Y-77050D02*
D03*
Y-47050D02*
D03*
Y-57050D02*
D03*
Y-67050D02*
D03*
Y-11100D02*
D03*
Y-1100D02*
D03*
Y8900D02*
D03*
Y-21100D02*
D03*
D41*
Y-93000D02*
D03*
Y-37050D02*
D03*
Y18900D02*
D03*
D42*
X78800Y6400D02*
D03*
Y-38600D02*
D03*
Y-59600D02*
D03*
Y-104600D02*
D03*
X79210Y108000D02*
D03*
Y78000D02*
D03*
Y56200D02*
D03*
Y26200D02*
D03*
D43*
X-47300Y35400D02*
D03*
X-38800Y21400D02*
D03*
X-53316Y6184D02*
D03*
X82000Y119000D02*
D03*
X72000Y99000D02*
D03*
X82000Y39000D02*
D03*
X72000Y19000D02*
D03*
Y-21000D02*
D03*
X82000Y-81000D02*
D03*
Y-121000D02*
D03*
X62000Y39000D02*
D03*
X52000Y19000D02*
D03*
X32000D02*
D03*
X22000Y119000D02*
D03*
X2000Y39000D02*
D03*
X-8000Y19000D02*
D03*
X2000Y-41000D02*
D03*
X-38000Y119000D02*
D03*
X-48000Y99000D02*
D03*
X-38000Y79000D02*
D03*
Y-1000D02*
D03*
Y-41000D02*
D03*
X-48000Y-61000D02*
D03*
Y-101000D02*
D03*
X-58000Y119000D02*
D03*
X-68000Y99000D02*
D03*
X-58000Y79000D02*
D03*
X-68000Y-21000D02*
D03*
X-58000Y-41000D02*
D03*
Y-81000D02*
D03*
X-68000Y-101000D02*
D03*
X-78000Y119000D02*
D03*
Y79000D02*
D03*
Y-41000D02*
D03*
Y-81000D02*
D03*
Y-121000D02*
D03*
X-45800Y136100D02*
D03*
X0Y83800D02*
D03*
X-2400Y68000D02*
D03*
X23700Y-51100D02*
D03*
X27400Y-41600D02*
D03*
X48900Y-51500D02*
D03*
X26100Y79900D02*
D03*
X14500Y50837D02*
D03*
X22000Y98000D02*
D03*
Y92800D02*
D03*
X22100Y38800D02*
D03*
Y42500D02*
D03*
X22200Y30638D02*
D03*
X22126Y34226D02*
D03*
X56700Y-64500D02*
D03*
Y-74200D02*
D03*
X56936Y-84236D02*
D03*
X56900Y-18300D02*
D03*
X56626Y-94326D02*
D03*
X56700Y-28500D02*
D03*
X56600Y1100D02*
D03*
X14178Y84578D02*
D03*
X21643Y105184D02*
D03*
X23038Y-16194D02*
D03*
X22900Y1300D02*
D03*
X56595Y-8187D02*
D03*
X50100Y-41700D02*
D03*
X-2007Y39893D02*
D03*
X-1919Y19053D02*
D03*
X2900Y51500D02*
D03*
D44*
X67100Y84100D02*
D03*
X37400Y68000D02*
D03*
D45*
X83000Y144500D02*
D03*
Y-144500D02*
D03*
X-83000Y144500D02*
D03*
Y-145500D02*
D03*
D62*
X-50301Y-18300D02*
D03*
X-62899D02*
D03*
D63*
X-75400Y39788D02*
D03*
Y51412D02*
D03*
X65800Y58288D02*
D03*
Y69912D02*
D03*
X-75500Y-5312D02*
D03*
Y6312D02*
D03*
D65*
X-51347Y11046D02*
D03*
X-53316D02*
D03*
X-55284D02*
D03*
X-57253D02*
D03*
Y30754D02*
D03*
X-55284D02*
D03*
X-53316D02*
D03*
X-51347D02*
D03*
D66*
X-61202Y12042D02*
D03*
Y14010D02*
D03*
Y15979D02*
D03*
Y17947D02*
D03*
Y19916D02*
D03*
Y21884D02*
D03*
Y23853D02*
D03*
Y25821D02*
D03*
Y27790D02*
D03*
Y29758D02*
D03*
X-47398Y12042D02*
D03*
Y14010D02*
D03*
Y15979D02*
D03*
Y17947D02*
D03*
Y19916D02*
D03*
Y21884D02*
D03*
Y23853D02*
D03*
Y25821D02*
D03*
Y27790D02*
D03*
Y29758D02*
D03*
D68*
X30295Y102700D02*
D03*
Y97700D02*
D03*
Y92700D02*
D03*
Y87700D02*
D03*
X49705D02*
D03*
Y92700D02*
D03*
Y97700D02*
D03*
Y102700D02*
D03*
X30395Y46500D02*
D03*
Y41500D02*
D03*
Y36500D02*
D03*
Y31500D02*
D03*
X49805D02*
D03*
Y36500D02*
D03*
Y41500D02*
D03*
Y46500D02*
D03*
D69*
X65800Y91181D02*
D03*
Y102019D02*
D03*
D71*
X8100Y34888D02*
D03*
Y45912D02*
D03*
X-1300Y34888D02*
D03*
Y45912D02*
D03*
X9200Y88235D02*
D03*
Y99259D02*
D03*
X-64400Y40088D02*
D03*
Y51112D02*
D03*
X-45291Y51012D02*
D03*
Y39988D02*
D03*
X-54900Y51112D02*
D03*
Y40088D02*
D03*
D77*
X-9800Y98870D02*
D03*
Y88625D02*
D03*
D80*
X-73743Y17879D02*
D03*
Y27721D02*
D03*
D81*
X30500Y122907D02*
D03*
Y111293D02*
D03*
X40000Y111293D02*
D03*
Y122907D02*
D03*
X49500Y111300D02*
D03*
Y122914D02*
D03*
X39900Y23607D02*
D03*
Y11993D02*
D03*
X49600D02*
D03*
Y23607D02*
D03*
D82*
X17800Y39261D02*
D03*
Y34339D02*
D03*
Y97661D02*
D03*
Y92739D02*
D03*
D83*
X-2200Y57023D02*
D03*
X2800D02*
D03*
X7800D02*
D03*
X12800D02*
D03*
Y78377D02*
D03*
X7800D02*
D03*
X2800D02*
D03*
X-2200D02*
D03*
D84*
X43321Y-7540D02*
D03*
Y-3800D02*
D03*
Y-60D02*
D03*
X33479D02*
D03*
Y-3800D02*
D03*
Y-7540D02*
D03*
Y-58940D02*
D03*
Y-55200D02*
D03*
Y-51460D02*
D03*
X43321D02*
D03*
Y-55200D02*
D03*
Y-58940D02*
D03*
X33479Y-41807D02*
D03*
Y-38067D02*
D03*
Y-34326D02*
D03*
X43321D02*
D03*
Y-38067D02*
D03*
Y-41807D02*
D03*
Y-24674D02*
D03*
Y-20933D02*
D03*
Y-17193D02*
D03*
X33479D02*
D03*
Y-20933D02*
D03*
Y-24674D02*
D03*
D85*
X49605Y76755D02*
D03*
Y67700D02*
D03*
Y58645D02*
D03*
D86*
X25195Y67700D02*
D03*
D87*
X-497Y88334D02*
D03*
Y99161D02*
D03*
D88*
X-11450Y-83676D02*
D03*
X-17750D02*
D03*
X-11450Y-86825D02*
D03*
X-17750D02*
D03*
X-11450Y-89975D02*
D03*
X-17750D02*
D03*
X-11450Y-93124D02*
D03*
X-17750D02*
D03*
X-11450Y-12476D02*
D03*
X-17750D02*
D03*
X-11450Y-15625D02*
D03*
X-17750D02*
D03*
X-11450Y-18775D02*
D03*
X-17750D02*
D03*
X-11450Y-21924D02*
D03*
X-17750D02*
D03*
Y-60324D02*
D03*
X-11450D02*
D03*
X-17750Y-57175D02*
D03*
X-11450D02*
D03*
X-17750Y-54025D02*
D03*
X-11450D02*
D03*
X-17750Y-50876D02*
D03*
X-11450D02*
D03*
D89*
X-51187Y-1000D02*
D03*
X-62014D02*
D03*
Y-9500D02*
D03*
X-51187D02*
D03*
M02*
