G04*
G04 #@! TF.GenerationSoftware,Altium Limited,Altium Designer,24.3.1 (35)*
G04*
G04 Layer_Physical_Order=1*
G04 Layer_Color=255*
%FSLAX25Y25*%
%MOIN*%
G70*
G04*
G04 #@! TF.SameCoordinates,A7121B57-4D76-4085-BD87-85E80D54BB1B*
G04*
G04*
G04 #@! TF.FilePolarity,Positive*
G04*
G01*
G75*
%ADD14C,0.01000*%
%ADD17C,0.06000*%
%ADD18R,0.28347X0.02992*%
%ADD19R,0.28347X0.02992*%
%ADD20R,0.05512X0.06299*%
%ADD21R,0.04724X0.07087*%
%ADD22R,0.03150X0.01772*%
%ADD46C,0.03000*%
%ADD47C,0.01500*%
%ADD48R,0.05937X0.05937*%
%ADD49R,0.05937X0.05937*%
%ADD50C,0.06600*%
G04:AMPARAMS|DCode=51|XSize=59.37mil|YSize=59.37mil|CornerRadius=0mil|HoleSize=0mil|Usage=FLASHONLY|Rotation=180.000|XOffset=0mil|YOffset=0mil|HoleType=Round|Shape=Octagon|*
%AMOCTAGOND51*
4,1,8,-0.02969,0.01484,-0.02969,-0.01484,-0.01484,-0.02969,0.01484,-0.02969,0.02969,-0.01484,0.02969,0.01484,0.01484,0.02969,-0.01484,0.02969,-0.02969,0.01484,0.0*
%
%ADD51OCTAGOND51*%

%ADD52C,0.05937*%
%ADD53C,0.04362*%
%ADD54R,0.05118X0.05118*%
%ADD55C,0.09803*%
%ADD56C,0.05118*%
%ADD57C,0.07087*%
%ADD58R,0.07087X0.07087*%
%ADD59C,0.01968*%
%ADD60C,0.05000*%
%ADD61C,0.19685*%
G36*
X91446Y157266D02*
X92348Y156893D01*
X93160Y156350D01*
X93850Y155660D01*
X94393Y154848D01*
X94766Y153946D01*
X94957Y152988D01*
Y152500D01*
Y-152500D01*
Y-152988D01*
X94766Y-153946D01*
X94393Y-154848D01*
X93850Y-155660D01*
X93160Y-156350D01*
X92348Y-156893D01*
X91446Y-157266D01*
X90488Y-157457D01*
X-90488D01*
X-91446Y-157266D01*
X-92348Y-156893D01*
X-93160Y-156350D01*
X-93850Y-155660D01*
X-94393Y-154848D01*
X-94766Y-153946D01*
X-94957Y-152988D01*
Y-152500D01*
Y152500D01*
Y152988D01*
X-94766Y153946D01*
X-94393Y154848D01*
X-93850Y155660D01*
X-93160Y156350D01*
X-92348Y156893D01*
X-91446Y157266D01*
X-90488Y157457D01*
X25879D01*
X25983Y157113D01*
X25995Y156957D01*
X25200Y156162D01*
X24554Y155195D01*
X24110Y154121D01*
X23883Y152981D01*
Y151819D01*
X24110Y150679D01*
X24554Y149605D01*
X25200Y148638D01*
X26022Y147816D01*
X26989Y147170D01*
X28063Y146725D01*
X29203Y146498D01*
X30365D01*
X31506Y146725D01*
X32580Y147170D01*
X33546Y147816D01*
X34368Y148638D01*
X35014Y149605D01*
X35076Y149755D01*
X35567Y149852D01*
X35867Y149552D01*
X36678Y149083D01*
X37583Y148841D01*
X37980D01*
X59051Y127770D01*
Y105656D01*
X56444Y103049D01*
X40233D01*
X39967Y102996D01*
X25060D01*
Y98496D01*
X25060Y98004D01*
X25060D01*
Y97996D01*
X24653Y97771D01*
X24598Y97749D01*
X23984Y98362D01*
Y98395D01*
X23682Y99124D01*
X23124Y99682D01*
X22395Y99984D01*
X21605D01*
X20876Y99682D01*
X20318Y99124D01*
X20016Y98395D01*
Y97605D01*
X20318Y96876D01*
X20876Y96318D01*
X21605Y96016D01*
X22005D01*
X22908Y95113D01*
X22625Y94689D01*
X22395Y94784D01*
X21605D01*
X20876Y94482D01*
X20318Y93924D01*
X20016Y93195D01*
Y92405D01*
X20318Y91676D01*
X20656Y91338D01*
Y90871D01*
X20772Y90285D01*
X21104Y89789D01*
X22682Y88212D01*
X22490Y87750D01*
X15957D01*
X15707Y88146D01*
Y96915D01*
X21992Y103200D01*
X22038D01*
X22767Y103502D01*
X23325Y104060D01*
X23628Y104790D01*
Y105579D01*
X23325Y106308D01*
X22767Y106866D01*
X22038Y107168D01*
X21249D01*
X20519Y106866D01*
X19961Y106308D01*
X19659Y105579D01*
Y105192D01*
X13544Y99078D01*
X8622D01*
X8037Y98961D01*
X7541Y98630D01*
X-8281Y82808D01*
X-8613Y82311D01*
X-8729Y81726D01*
Y31900D01*
X-8613Y31315D01*
X-8281Y30819D01*
X-5620Y28157D01*
X-5124Y27825D01*
X-4538Y27709D01*
X11528D01*
X17086Y22151D01*
Y-15928D01*
X16624Y-16120D01*
X12471Y-11967D01*
X12543Y-11698D01*
Y-10502D01*
X12234Y-9346D01*
X11636Y-8310D01*
X10790Y-7464D01*
X9754Y-6866D01*
X8598Y-6557D01*
X7402D01*
X6246Y-6866D01*
X5210Y-7464D01*
X4364Y-8310D01*
X3766Y-9346D01*
X3457Y-10502D01*
Y-11698D01*
X3766Y-12854D01*
X4364Y-13890D01*
X5210Y-14736D01*
X6246Y-15334D01*
X7402Y-15643D01*
X8598D01*
X8867Y-15571D01*
X9604Y-16308D01*
X9345Y-16757D01*
X8598Y-16557D01*
X7402D01*
X6246Y-16866D01*
X6045Y-16982D01*
X-7728Y-3209D01*
X-7817Y-3150D01*
X-7665Y-2650D01*
X3712D01*
X3766Y-2854D01*
X4364Y-3890D01*
X5210Y-4735D01*
X6246Y-5334D01*
X7402Y-5643D01*
X8598D01*
X9754Y-5334D01*
X10790Y-4735D01*
X11636Y-3890D01*
X12234Y-2854D01*
X12543Y-1698D01*
Y-502D01*
X12234Y654D01*
X11636Y1690D01*
X10790Y2536D01*
X9754Y3134D01*
X8598Y3443D01*
X7402D01*
X6246Y3134D01*
X5210Y2536D01*
X4364Y1690D01*
X3766Y654D01*
X3701Y409D01*
X-4394D01*
X-4546Y909D01*
X-4519Y927D01*
X1925Y7371D01*
X3706D01*
X3766Y7146D01*
X4364Y6110D01*
X5210Y5265D01*
X6246Y4666D01*
X7402Y4357D01*
X8598D01*
X9754Y4666D01*
X10790Y5265D01*
X11636Y6110D01*
X12234Y7146D01*
X12543Y8302D01*
Y9498D01*
X12234Y10654D01*
X11636Y11690D01*
X10790Y12536D01*
X9754Y13134D01*
X8598Y13443D01*
X7402D01*
X6246Y13134D01*
X5210Y12536D01*
X4364Y11690D01*
X3766Y10654D01*
X3706Y10429D01*
X1292D01*
X706Y10313D01*
X210Y9981D01*
X-6234Y3538D01*
X-8380D01*
Y3900D01*
X-8458Y4290D01*
X-8679Y4621D01*
X-8776Y4685D01*
Y4686D01*
X-9010Y4842D01*
X-9400Y4920D01*
X-11350D01*
Y5158D01*
X-11850D01*
Y7044D01*
X-13925D01*
Y4920D01*
X-15075D01*
Y7044D01*
X-17150D01*
Y5158D01*
X-17650D01*
Y4920D01*
X-19589D01*
X-19979Y4842D01*
X-20224Y4678D01*
Y4678D01*
X-20310Y4621D01*
X-20531Y4290D01*
X-20608Y3900D01*
Y2654D01*
X-24955Y-1692D01*
X-24963Y-1695D01*
X-25536Y-1636D01*
X-25924Y-963D01*
X-26663Y-224D01*
X-27568Y298D01*
X-28578Y569D01*
X-29623D01*
X-30632Y298D01*
X-31537Y-224D01*
X-32276Y-963D01*
X-32798Y-1868D01*
X-33068Y-2877D01*
Y-3923D01*
X-32798Y-4932D01*
X-32276Y-5837D01*
X-31537Y-6576D01*
X-30632Y-7098D01*
X-29623Y-7368D01*
X-28578D01*
X-27568Y-7098D01*
X-26663Y-6576D01*
X-25924Y-5837D01*
X-25402Y-4932D01*
X-25401Y-4929D01*
X-24500D01*
X-23915Y-4813D01*
X-23419Y-4481D01*
X-21070Y-2133D01*
X-20608Y-2325D01*
Y-4398D01*
X-26549Y-10339D01*
X-26663Y-10224D01*
X-27568Y-9702D01*
X-28578Y-9431D01*
X-29623D01*
X-30632Y-9702D01*
X-31537Y-10224D01*
X-32276Y-10963D01*
X-32798Y-11868D01*
X-33068Y-12878D01*
Y-13923D01*
X-32798Y-14932D01*
X-32276Y-15837D01*
X-31537Y-16576D01*
X-30632Y-17098D01*
X-29623Y-17368D01*
X-28578D01*
X-27568Y-17098D01*
X-26663Y-16576D01*
X-25924Y-15837D01*
X-25402Y-14932D01*
X-25131Y-13923D01*
Y-13247D01*
X-18504Y-6620D01*
X-15755D01*
Y-7892D01*
X-27566Y-19703D01*
X-27568Y-19702D01*
X-28578Y-19432D01*
X-29623D01*
X-30632Y-19702D01*
X-31537Y-20224D01*
X-32276Y-20963D01*
X-32798Y-21868D01*
X-33068Y-22877D01*
Y-23923D01*
X-32798Y-24932D01*
X-32276Y-25837D01*
X-31537Y-26576D01*
X-30632Y-27098D01*
X-29623Y-27369D01*
X-28578D01*
X-27568Y-27098D01*
X-26663Y-26576D01*
X-25924Y-25837D01*
X-25402Y-24932D01*
X-25131Y-23923D01*
Y-22877D01*
X-25402Y-21868D01*
X-25403Y-21866D01*
X-13144Y-9607D01*
X-12812Y-9110D01*
X-12696Y-8525D01*
Y-6620D01*
X-9400D01*
X-9010Y-6542D01*
X-8837Y-6426D01*
X3882Y-19145D01*
X3766Y-19346D01*
X3457Y-20502D01*
Y-21698D01*
X3766Y-22854D01*
X4364Y-23890D01*
X5210Y-24735D01*
X6246Y-25334D01*
X7402Y-25643D01*
X8598D01*
X9754Y-25334D01*
X10790Y-24735D01*
X11636Y-23890D01*
X12234Y-22854D01*
X12543Y-21698D01*
Y-20502D01*
X12343Y-19755D01*
X12791Y-19496D01*
X13151Y-19856D01*
Y-58294D01*
X12791Y-58654D01*
X12343Y-58395D01*
X12543Y-57648D01*
Y-56452D01*
X12234Y-55296D01*
X11636Y-54260D01*
X10790Y-53414D01*
X9754Y-52816D01*
X8598Y-52507D01*
X7402D01*
X6246Y-52816D01*
X5210Y-53414D01*
X4364Y-54260D01*
X3766Y-55296D01*
X3701Y-55541D01*
X-4394D01*
X-4546Y-55041D01*
X-4519Y-55023D01*
X1925Y-48579D01*
X3706D01*
X3766Y-48804D01*
X4364Y-49840D01*
X5210Y-50686D01*
X6246Y-51284D01*
X7402Y-51593D01*
X8598D01*
X9754Y-51284D01*
X10790Y-50686D01*
X11636Y-49840D01*
X12234Y-48804D01*
X12543Y-47648D01*
Y-46452D01*
X12234Y-45296D01*
X11636Y-44260D01*
X10790Y-43415D01*
X9754Y-42816D01*
X8598Y-42507D01*
X7402D01*
X6246Y-42816D01*
X5210Y-43415D01*
X4364Y-44260D01*
X3766Y-45296D01*
X3706Y-45521D01*
X1292D01*
X706Y-45637D01*
X210Y-45969D01*
X-6234Y-52412D01*
X-8380D01*
Y-52000D01*
X-8458Y-51610D01*
X-8679Y-51279D01*
X-8776Y-51214D01*
Y-51214D01*
X-9010Y-51058D01*
X-9400Y-50980D01*
X-11350D01*
Y-50792D01*
X-11850D01*
Y-48906D01*
X-13925D01*
Y-50980D01*
X-15075D01*
Y-48906D01*
X-17150D01*
Y-50792D01*
X-18150D01*
Y-48906D01*
X-20224D01*
X-20630Y-48678D01*
Y-40341D01*
X-20746Y-39756D01*
X-21078Y-39259D01*
X-25403Y-34934D01*
X-25402Y-34932D01*
X-25131Y-33922D01*
Y-32877D01*
X-25402Y-31868D01*
X-25924Y-30963D01*
X-26663Y-30224D01*
X-27568Y-29702D01*
X-28578Y-29432D01*
X-29623D01*
X-30632Y-29702D01*
X-31537Y-30224D01*
X-32276Y-30963D01*
X-32798Y-31868D01*
X-33068Y-32877D01*
Y-33922D01*
X-32798Y-34932D01*
X-32276Y-35837D01*
X-31537Y-36576D01*
X-30632Y-37098D01*
X-29623Y-37369D01*
X-28578D01*
X-27568Y-37098D01*
X-27566Y-37097D01*
X-23688Y-40974D01*
Y-45995D01*
X-24150Y-46187D01*
X-25403Y-44934D01*
X-25402Y-44932D01*
X-25131Y-43922D01*
Y-42878D01*
X-25402Y-41868D01*
X-25924Y-40963D01*
X-26663Y-40224D01*
X-27568Y-39702D01*
X-28578Y-39432D01*
X-29623D01*
X-30632Y-39702D01*
X-31537Y-40224D01*
X-32276Y-40963D01*
X-32798Y-41868D01*
X-33068Y-42878D01*
Y-43922D01*
X-32798Y-44932D01*
X-32276Y-45837D01*
X-31537Y-46576D01*
X-30632Y-47098D01*
X-29623Y-47368D01*
X-28578D01*
X-27568Y-47098D01*
X-27566Y-47097D01*
X-25488Y-49174D01*
Y-50809D01*
X-25989Y-50899D01*
X-26663Y-50224D01*
X-27568Y-49702D01*
X-28578Y-49431D01*
X-29623D01*
X-30632Y-49702D01*
X-31537Y-50224D01*
X-32276Y-50963D01*
X-32798Y-51868D01*
X-33068Y-52877D01*
Y-53922D01*
X-32798Y-54932D01*
X-32276Y-55837D01*
X-31537Y-56576D01*
X-30632Y-57098D01*
X-29623Y-57368D01*
X-28578D01*
X-27568Y-57098D01*
X-27566Y-57097D01*
X-21155Y-63508D01*
X-20659Y-63840D01*
X-20073Y-63956D01*
X-15536D01*
X-14951Y-63840D01*
X-14455Y-63508D01*
X-13693Y-62747D01*
X-13542Y-62520D01*
X-9400D01*
X-9010Y-62442D01*
X-8867Y-62346D01*
X3882Y-75095D01*
X3766Y-75296D01*
X3457Y-76452D01*
Y-77648D01*
X3766Y-78804D01*
X4364Y-79840D01*
X5210Y-80686D01*
X6246Y-81284D01*
X7402Y-81593D01*
X8598D01*
X9754Y-81284D01*
X10790Y-80686D01*
X11636Y-79840D01*
X12234Y-78804D01*
X12543Y-77648D01*
Y-76452D01*
X12234Y-75296D01*
X11636Y-74260D01*
X10790Y-73414D01*
X9754Y-72816D01*
X8598Y-72507D01*
X7402D01*
X6246Y-72816D01*
X6045Y-72932D01*
X-7342Y-59545D01*
X-7838Y-59214D01*
X-8380Y-59106D01*
Y-58600D01*
X3712D01*
X3766Y-58804D01*
X4364Y-59840D01*
X5210Y-60685D01*
X6246Y-61284D01*
X7402Y-61593D01*
X8598D01*
X9345Y-61393D01*
X9604Y-61841D01*
X8867Y-62579D01*
X8598Y-62507D01*
X7402D01*
X6246Y-62816D01*
X5210Y-63415D01*
X4364Y-64260D01*
X3766Y-65296D01*
X3457Y-66452D01*
Y-67648D01*
X3766Y-68804D01*
X4364Y-69840D01*
X5210Y-70685D01*
X6246Y-71284D01*
X7402Y-71593D01*
X8598D01*
X9754Y-71284D01*
X10790Y-70685D01*
X11636Y-69840D01*
X12234Y-68804D01*
X12543Y-67648D01*
Y-66452D01*
X12471Y-66183D01*
X16624Y-62030D01*
X17086Y-62222D01*
Y-131992D01*
X9921Y-139158D01*
X5734D01*
X-10440Y-122985D01*
X-10936Y-122653D01*
X-11521Y-122537D01*
X-29788D01*
X-33371Y-118954D01*
Y-117743D01*
X-33068Y-117368D01*
X-29600D01*
Y-113400D01*
X-28600D01*
Y-117368D01*
X-25131D01*
Y-115824D01*
X-24670Y-115633D01*
X-20844Y-119458D01*
X-20348Y-119790D01*
X-19763Y-119906D01*
X-15536D01*
X-14951Y-119790D01*
X-14455Y-119458D01*
X-13693Y-118697D01*
X-13575Y-118520D01*
X-9400D01*
X-9010Y-118442D01*
X-8837Y-118326D01*
X3882Y-131045D01*
X3766Y-131246D01*
X3457Y-132402D01*
Y-133598D01*
X3766Y-134754D01*
X4364Y-135790D01*
X5210Y-136635D01*
X6246Y-137234D01*
X7402Y-137543D01*
X8598D01*
X9754Y-137234D01*
X10790Y-136635D01*
X11636Y-135790D01*
X12234Y-134754D01*
X12543Y-133598D01*
Y-132402D01*
X12234Y-131246D01*
X11636Y-130210D01*
X10790Y-129365D01*
X9754Y-128766D01*
X8598Y-128457D01*
X7402D01*
X6246Y-128766D01*
X6045Y-128882D01*
X-7342Y-115495D01*
X-7838Y-115164D01*
X-8380Y-115056D01*
Y-114550D01*
X3712D01*
X3766Y-114754D01*
X4364Y-115790D01*
X5210Y-116636D01*
X6246Y-117234D01*
X7402Y-117543D01*
X8598D01*
X9754Y-117234D01*
X10790Y-116636D01*
X11636Y-115790D01*
X12234Y-114754D01*
X12543Y-113598D01*
Y-112402D01*
X12234Y-111246D01*
X11636Y-110210D01*
X10790Y-109364D01*
X9754Y-108766D01*
X8598Y-108457D01*
X7402D01*
X6246Y-108766D01*
X5210Y-109364D01*
X4364Y-110210D01*
X3766Y-111246D01*
X3701Y-111491D01*
X-4394D01*
X-4546Y-110991D01*
X-4519Y-110973D01*
X1925Y-104529D01*
X3706D01*
X3766Y-104754D01*
X4364Y-105790D01*
X5210Y-106635D01*
X6246Y-107234D01*
X7402Y-107543D01*
X8598D01*
X9754Y-107234D01*
X10790Y-106635D01*
X11636Y-105790D01*
X12234Y-104754D01*
X12543Y-103598D01*
Y-102402D01*
X12234Y-101246D01*
X11636Y-100210D01*
X10790Y-99365D01*
X9754Y-98766D01*
X8598Y-98457D01*
X7402D01*
X6246Y-98766D01*
X5210Y-99365D01*
X4364Y-100210D01*
X3766Y-101246D01*
X3706Y-101471D01*
X1292D01*
X706Y-101587D01*
X210Y-101919D01*
X-6234Y-108362D01*
X-8380D01*
Y-108000D01*
X-8458Y-107610D01*
X-8679Y-107279D01*
X-8776Y-107214D01*
Y-107214D01*
X-9010Y-107058D01*
X-9400Y-106980D01*
X-11350D01*
Y-106742D01*
X-11850D01*
Y-104856D01*
X-13925D01*
Y-106980D01*
X-15075D01*
Y-104856D01*
X-17150D01*
Y-106742D01*
X-18150D01*
Y-104856D01*
X-19502D01*
Y-71469D01*
X-19618Y-70883D01*
X-19950Y-70387D01*
X-25403Y-64934D01*
X-25402Y-64932D01*
X-25131Y-63923D01*
Y-62878D01*
X-25402Y-61868D01*
X-25924Y-60963D01*
X-26663Y-60224D01*
X-27568Y-59702D01*
X-28578Y-59431D01*
X-29623D01*
X-30632Y-59702D01*
X-31537Y-60224D01*
X-32276Y-60963D01*
X-32798Y-61868D01*
X-33068Y-62878D01*
Y-63923D01*
X-32798Y-64932D01*
X-32276Y-65837D01*
X-31537Y-66576D01*
X-30632Y-67098D01*
X-29623Y-67369D01*
X-28578D01*
X-27568Y-67098D01*
X-27566Y-67097D01*
X-22561Y-72102D01*
Y-77069D01*
X-23061Y-77276D01*
X-25403Y-74934D01*
X-25402Y-74932D01*
X-25131Y-73922D01*
Y-72878D01*
X-25402Y-71868D01*
X-25924Y-70963D01*
X-26663Y-70224D01*
X-27568Y-69702D01*
X-28578Y-69432D01*
X-29623D01*
X-30632Y-69702D01*
X-31537Y-70224D01*
X-32276Y-70963D01*
X-32798Y-71868D01*
X-33068Y-72878D01*
Y-73922D01*
X-32798Y-74932D01*
X-32276Y-75837D01*
X-31537Y-76576D01*
X-30632Y-77098D01*
X-29623Y-77368D01*
X-28578D01*
X-27568Y-77098D01*
X-27566Y-77097D01*
X-25488Y-79174D01*
Y-80809D01*
X-25989Y-80899D01*
X-26663Y-80224D01*
X-27568Y-79702D01*
X-28578Y-79431D01*
X-29623D01*
X-30632Y-79702D01*
X-31537Y-80224D01*
X-32276Y-80963D01*
X-32798Y-81868D01*
X-33068Y-82877D01*
Y-83922D01*
X-32798Y-84932D01*
X-32276Y-85837D01*
X-31537Y-86576D01*
X-30632Y-87098D01*
X-29842Y-87310D01*
Y-87868D01*
X-29725Y-88454D01*
X-29406Y-88932D01*
X-29449Y-89151D01*
X-29565Y-89432D01*
X-29623D01*
X-30632Y-89702D01*
X-31537Y-90224D01*
X-32276Y-90963D01*
X-32798Y-91868D01*
X-33068Y-92878D01*
Y-93923D01*
X-32798Y-94932D01*
X-32797Y-94934D01*
X-38281Y-100419D01*
X-38613Y-100915D01*
X-38729Y-101500D01*
Y-119833D01*
X-38613Y-120418D01*
X-38281Y-120914D01*
X-15627Y-143569D01*
X-15131Y-143900D01*
X-14546Y-144017D01*
X11300D01*
X11885Y-143900D01*
X12381Y-143569D01*
X21497Y-134453D01*
X21829Y-133957D01*
X21945Y-133371D01*
Y-52858D01*
X22445Y-52651D01*
X22576Y-52782D01*
X23200Y-53041D01*
Y-51100D01*
Y-49159D01*
X22576Y-49418D01*
X22445Y-49549D01*
X21945Y-49342D01*
Y-18339D01*
X22361Y-18061D01*
X22538Y-18135D01*
Y-16194D01*
Y-14254D01*
X22361Y-14327D01*
X21945Y-14050D01*
Y-902D01*
X22361Y-624D01*
X22400Y-641D01*
Y1300D01*
Y3241D01*
X22361Y3224D01*
X21945Y3502D01*
Y28220D01*
X22379Y28654D01*
X22595D01*
X23324Y28956D01*
X23882Y29514D01*
X24184Y30243D01*
Y30921D01*
X24650Y31114D01*
X24658Y31110D01*
X24879Y30779D01*
X25210Y30558D01*
X25600Y30480D01*
X54800D01*
X55190Y30558D01*
X55521Y30779D01*
X55742Y31110D01*
X55820Y31500D01*
Y40600D01*
X55742Y40990D01*
X55521Y41321D01*
X55406Y41398D01*
Y43200D01*
X40233D01*
X25060D01*
Y41442D01*
X24879Y41321D01*
X24658Y40990D01*
X24580Y40600D01*
Y40279D01*
X23568D01*
X23298Y40726D01*
X23369Y40963D01*
X23782Y41376D01*
X24041Y42000D01*
X20159D01*
X20418Y41376D01*
X20831Y40963D01*
X20925Y40650D01*
X20831Y40337D01*
X20418Y39924D01*
X20116Y39195D01*
Y38405D01*
X20418Y37676D01*
X20976Y37118D01*
X21705Y36816D01*
X22495D01*
X23224Y37118D01*
X23327Y37221D01*
X24580D01*
Y35570D01*
X23588D01*
X23250Y35908D01*
X22520Y36210D01*
X21731D01*
X21002Y35908D01*
X20443Y35350D01*
X20376Y35187D01*
X19886Y35089D01*
X16029Y38946D01*
Y49211D01*
X16114Y49340D01*
X16144Y49357D01*
X16644Y49065D01*
Y47550D01*
X24156D01*
Y55850D01*
X21929D01*
Y58184D01*
X22878D01*
Y66216D01*
X34389D01*
X34599Y65851D01*
X35251Y65199D01*
X36049Y64739D01*
X36939Y64500D01*
X37861D01*
X38751Y64739D01*
X39549Y65199D01*
X40201Y65851D01*
X40661Y66649D01*
X40900Y67539D01*
Y68461D01*
X40661Y69351D01*
X40201Y70149D01*
X39549Y70801D01*
X38751Y71262D01*
X37861Y71500D01*
X36939D01*
X36049Y71262D01*
X35251Y70801D01*
X34599Y70149D01*
X34389Y69784D01*
X22878D01*
Y77904D01*
X21045D01*
Y79450D01*
X23468D01*
Y86771D01*
X23930Y86963D01*
X24580Y86313D01*
Y83600D01*
X24658Y83210D01*
X24879Y82879D01*
X25210Y82658D01*
X25600Y82580D01*
X54800D01*
X55190Y82658D01*
X55521Y82879D01*
X55742Y83210D01*
X55820Y83600D01*
Y92400D01*
X55742Y92790D01*
X55521Y93121D01*
X55406Y93198D01*
Y95000D01*
X40233D01*
Y96000D01*
X55406D01*
Y97951D01*
X57500D01*
X58476Y98145D01*
X58610Y98235D01*
X59051Y97999D01*
Y57356D01*
X52944Y51249D01*
X40233D01*
X39967Y51196D01*
X25060D01*
Y46696D01*
X25060Y46204D01*
X25060D01*
Y46196D01*
X25060D01*
Y44200D01*
X40233D01*
X55406D01*
Y46196D01*
X55406Y46196D01*
X55465Y46672D01*
X55802Y46898D01*
X63402Y54498D01*
X63955Y55325D01*
X64051Y55808D01*
X64551Y55758D01*
Y5656D01*
X60498Y1602D01*
X58789Y-106D01*
X58366Y178D01*
X58584Y705D01*
Y1495D01*
X58282Y2224D01*
X57724Y2782D01*
X56995Y3084D01*
X56205D01*
X55935Y2972D01*
X55576Y3213D01*
X55512Y3338D01*
X55442Y3690D01*
X55221Y4021D01*
X54890Y4242D01*
X54500Y4320D01*
X25300D01*
X24910Y4242D01*
X24579Y4021D01*
X24358Y3690D01*
X24294Y3370D01*
X24289Y3363D01*
X24087Y3216D01*
X23780Y3083D01*
X23400Y3241D01*
Y1300D01*
Y-641D01*
X23780Y-483D01*
X24280Y-779D01*
Y-14020D01*
X23780Y-14354D01*
X23538Y-14254D01*
Y-16194D01*
Y-18135D01*
X23780Y-18035D01*
X24280Y-18369D01*
Y-35500D01*
X24358Y-35890D01*
X24579Y-36221D01*
X24910Y-36442D01*
X25300Y-36520D01*
X54500D01*
X54890Y-36442D01*
X55221Y-36221D01*
X55272Y-36145D01*
X58404D01*
X59251Y-35976D01*
X59751Y-36258D01*
Y-63744D01*
X59146Y-64349D01*
X58684Y-64158D01*
Y-64105D01*
X58382Y-63376D01*
X57824Y-62818D01*
X57095Y-62516D01*
X56305D01*
X55911Y-62679D01*
X55883Y-62680D01*
X55357Y-62384D01*
X55342Y-62310D01*
X55121Y-61979D01*
X54790Y-61758D01*
X54400Y-61680D01*
X25200D01*
X24810Y-61758D01*
X24479Y-61979D01*
X24258Y-62310D01*
X24180Y-62700D01*
Y-101500D01*
X24258Y-101890D01*
X24479Y-102221D01*
X24810Y-102442D01*
X25200Y-102520D01*
X54400D01*
X54790Y-102442D01*
X55121Y-102221D01*
X55169Y-102149D01*
X58900D01*
X59876Y-101955D01*
X60702Y-101402D01*
X64102Y-98002D01*
X64655Y-97176D01*
X64849Y-96200D01*
Y-85400D01*
Y-75300D01*
Y-64800D01*
Y-29700D01*
Y-19800D01*
Y-10200D01*
Y-1256D01*
X68902Y2798D01*
X69455Y3624D01*
X69649Y4600D01*
Y18184D01*
X70149Y18284D01*
X70318Y17876D01*
X70876Y17318D01*
X71500Y17059D01*
Y19000D01*
Y20941D01*
X70876Y20682D01*
X70318Y20124D01*
X70149Y19716D01*
X69649Y19816D01*
Y81699D01*
X69901Y81951D01*
X70362Y82749D01*
X70600Y83639D01*
Y84561D01*
X70362Y85451D01*
X69901Y86249D01*
X69649Y86501D01*
Y98184D01*
X70149Y98284D01*
X70318Y97876D01*
X70876Y97318D01*
X71500Y97059D01*
Y99000D01*
Y100941D01*
X70876Y100682D01*
X70318Y100124D01*
X70149Y99716D01*
X69649Y99816D01*
Y129800D01*
X69455Y130775D01*
X68902Y131602D01*
X52126Y148379D01*
X52317Y148841D01*
X57348D01*
X57484Y148638D01*
X58306Y147816D01*
X59272Y147170D01*
X60346Y146725D01*
X61487Y146498D01*
X62649D01*
X63789Y146725D01*
X64863Y147170D01*
X65830Y147816D01*
X66652Y148638D01*
X67298Y149605D01*
X67743Y150679D01*
X67969Y151819D01*
Y152981D01*
X67743Y154121D01*
X67298Y155195D01*
X66652Y156162D01*
X65857Y156957D01*
X65869Y157113D01*
X65973Y157457D01*
X90488D01*
X91446Y157266D01*
D02*
G37*
G36*
X12649Y85855D02*
X12496Y85702D01*
X12194Y84973D01*
Y84183D01*
X12496Y83454D01*
X13054Y82896D01*
X13783Y82594D01*
X14573D01*
X15302Y82896D01*
X15457Y83050D01*
X15957Y82843D01*
Y79450D01*
X17986D01*
Y77904D01*
X16153D01*
Y69784D01*
X11067D01*
Y72860D01*
X7704D01*
X4342D01*
Y69784D01*
X-1523D01*
X-2005Y69984D01*
X-2795D01*
X-3524Y69682D01*
X-4082Y69124D01*
X-4384Y68395D01*
Y67605D01*
X-4082Y66876D01*
X-3524Y66318D01*
X-2795Y66016D01*
X-2005D01*
X-1523Y66216D01*
X4342D01*
Y63227D01*
X7704D01*
X11067D01*
Y66216D01*
X16153D01*
Y58184D01*
X18871D01*
Y55850D01*
X16644D01*
Y52152D01*
X16320Y52018D01*
X16144Y51999D01*
X15624Y52519D01*
X14895Y52821D01*
X14105D01*
X13376Y52519D01*
X12845Y51988D01*
X12711Y51998D01*
X12345Y52126D01*
Y55850D01*
X4833D01*
Y53029D01*
X4177D01*
X4024Y53182D01*
X3295Y53484D01*
X2505D01*
X1776Y53182D01*
X1218Y52624D01*
X916Y51895D01*
Y51105D01*
X1218Y50376D01*
X1776Y49818D01*
X2505Y49516D01*
X3295D01*
X4024Y49818D01*
X4177Y49971D01*
X4833D01*
Y47550D01*
X12345D01*
Y49094D01*
X12845Y49369D01*
X12918Y49322D01*
X12971Y49232D01*
Y38312D01*
X13087Y37727D01*
X13419Y37231D01*
X20024Y30625D01*
X19334Y29935D01*
X19003Y29439D01*
X18886Y28854D01*
Y25330D01*
X18424Y25139D01*
X13243Y30320D01*
X12747Y30651D01*
X12162Y30768D01*
X-3905D01*
X-5671Y32533D01*
Y81093D01*
X-2446Y84317D01*
X-2345Y84290D01*
X-1984Y84072D01*
Y83405D01*
X-1682Y82676D01*
X-1124Y82118D01*
X-395Y81816D01*
X395D01*
X1124Y82118D01*
X1277Y82271D01*
X4146D01*
Y79450D01*
X11657D01*
Y87750D01*
X4146D01*
Y85329D01*
X1277D01*
X1124Y85482D01*
X395Y85784D01*
X-272D01*
X-490Y86144D01*
X-517Y86246D01*
X9256Y96019D01*
X12649D01*
Y85855D01*
D02*
G37*
%LPC*%
G36*
X83853Y155342D02*
X83500D01*
Y145000D01*
X93843D01*
Y145353D01*
X93576Y147039D01*
X93048Y148662D01*
X92273Y150183D01*
X91270Y151563D01*
X90063Y152770D01*
X88683Y153773D01*
X87162Y154548D01*
X85539Y155076D01*
X83853Y155342D01*
D02*
G37*
G36*
X82500D02*
X82147D01*
X80461Y155076D01*
X78838Y154548D01*
X77317Y153773D01*
X75937Y152770D01*
X74730Y151563D01*
X73727Y150183D01*
X72952Y148662D01*
X72425Y147039D01*
X72158Y145353D01*
Y145000D01*
X82500D01*
Y155342D01*
D02*
G37*
G36*
X-63473Y148500D02*
X-63500D01*
Y145000D01*
X-60000D01*
Y145027D01*
X-60273Y146044D01*
X-60799Y146956D01*
X-61544Y147701D01*
X-62456Y148227D01*
X-63473Y148500D01*
D02*
G37*
G36*
X-64500D02*
X-64527D01*
X-65544Y148227D01*
X-66456Y147701D01*
X-67201Y146956D01*
X-67727Y146044D01*
X-68000Y145027D01*
Y145000D01*
X-64500D01*
Y148500D01*
D02*
G37*
G36*
X-82147Y155342D02*
X-82500D01*
Y145000D01*
X-72158D01*
Y145353D01*
X-72425Y147039D01*
X-72952Y148662D01*
X-73727Y150183D01*
X-74730Y151563D01*
X-75937Y152770D01*
X-77317Y153773D01*
X-78838Y154548D01*
X-80461Y155076D01*
X-82147Y155342D01*
D02*
G37*
G36*
X-83500D02*
X-83853D01*
X-85539Y155076D01*
X-87162Y154548D01*
X-88683Y153773D01*
X-90063Y152770D01*
X-91270Y151563D01*
X-92273Y150183D01*
X-93048Y148662D01*
X-93576Y147039D01*
X-93843Y145353D01*
Y145000D01*
X-83500D01*
Y155342D01*
D02*
G37*
G36*
X-60000Y144000D02*
X-63500D01*
Y140500D01*
X-63473D01*
X-62456Y140773D01*
X-61544Y141299D01*
X-60799Y142044D01*
X-60273Y142956D01*
X-60000Y143973D01*
Y144000D01*
D02*
G37*
G36*
X-64500D02*
X-68000D01*
Y143973D01*
X-67727Y142956D01*
X-67201Y142044D01*
X-66456Y141299D01*
X-65544Y140773D01*
X-64527Y140500D01*
X-64500D01*
Y144000D01*
D02*
G37*
G36*
X-45473Y148500D02*
X-46527D01*
X-47544Y148227D01*
X-48456Y147701D01*
X-49201Y146956D01*
X-49727Y146044D01*
X-50000Y145027D01*
Y143973D01*
X-49727Y142956D01*
X-49201Y142044D01*
X-48456Y141299D01*
X-47544Y140773D01*
X-47429Y140742D01*
Y137277D01*
X-47482Y137224D01*
X-47784Y136495D01*
Y135705D01*
X-47482Y134976D01*
X-46924Y134418D01*
X-46195Y134116D01*
X-45405D01*
X-44676Y134418D01*
X-44118Y134976D01*
X-43816Y135705D01*
Y136495D01*
X-44118Y137224D01*
X-44371Y137477D01*
Y140822D01*
X-43544Y141299D01*
X-42799Y142044D01*
X-42273Y142956D01*
X-42000Y143973D01*
Y145027D01*
X-42273Y146044D01*
X-42799Y146956D01*
X-43544Y147701D01*
X-44456Y148227D01*
X-45473Y148500D01*
D02*
G37*
G36*
X93843Y144000D02*
X83500D01*
Y133658D01*
X83853D01*
X85539Y133924D01*
X87162Y134452D01*
X88683Y135227D01*
X90063Y136230D01*
X91270Y137437D01*
X92273Y138817D01*
X93048Y140338D01*
X93576Y141961D01*
X93843Y143647D01*
Y144000D01*
D02*
G37*
G36*
X82500D02*
X72158D01*
Y143647D01*
X72425Y141961D01*
X72952Y140338D01*
X73727Y138817D01*
X74730Y137437D01*
X75937Y136230D01*
X77317Y135227D01*
X78838Y134452D01*
X80461Y133924D01*
X82147Y133658D01*
X82500D01*
Y144000D01*
D02*
G37*
G36*
X-72158D02*
X-82500D01*
Y133658D01*
X-82147D01*
X-80461Y133924D01*
X-78838Y134452D01*
X-77317Y135227D01*
X-75937Y136230D01*
X-74730Y137437D01*
X-73727Y138817D01*
X-72952Y140338D01*
X-72425Y141961D01*
X-72158Y143647D01*
Y144000D01*
D02*
G37*
G36*
X-83500D02*
X-93843D01*
Y143647D01*
X-93576Y141961D01*
X-93048Y140338D01*
X-92273Y138817D01*
X-91270Y137437D01*
X-90063Y136230D01*
X-88683Y135227D01*
X-87162Y134452D01*
X-85539Y133924D01*
X-83853Y133658D01*
X-83500D01*
Y144000D01*
D02*
G37*
G36*
X-54473Y148500D02*
X-55527D01*
X-56544Y148227D01*
X-57456Y147701D01*
X-58201Y146956D01*
X-58727Y146044D01*
X-59000Y145027D01*
Y143973D01*
X-58727Y142956D01*
X-58201Y142044D01*
X-57456Y141299D01*
X-56544Y140773D01*
X-56529Y140769D01*
Y120989D01*
X-57029Y120746D01*
X-57500Y120941D01*
Y119000D01*
Y117059D01*
X-57029Y117254D01*
X-56529Y117011D01*
Y113900D01*
X-56413Y113315D01*
X-56081Y112819D01*
X-35629Y92366D01*
Y79769D01*
X-36129Y79669D01*
X-36318Y80124D01*
X-36876Y80682D01*
X-37500Y80941D01*
Y79000D01*
Y77059D01*
X-36876Y77318D01*
X-36318Y77876D01*
X-36129Y78331D01*
X-35629Y78232D01*
Y69449D01*
X-36129Y69242D01*
X-36663Y69776D01*
X-37568Y70298D01*
X-38577Y70569D01*
X-39623D01*
X-40632Y70298D01*
X-41537Y69776D01*
X-42276Y69037D01*
X-42798Y68132D01*
X-43069Y67123D01*
Y66078D01*
X-42798Y65068D01*
X-42276Y64163D01*
X-41537Y63424D01*
X-40632Y62902D01*
X-39623Y62631D01*
X-38577D01*
X-37568Y62902D01*
X-36663Y63424D01*
X-36129Y63958D01*
X-35629Y63751D01*
Y31600D01*
X-35513Y31015D01*
X-35181Y30519D01*
X-33068Y28406D01*
Y24616D01*
X-31084Y22632D01*
X-27116D01*
X-25131Y24616D01*
Y28584D01*
X-27116Y30569D01*
X-30906D01*
X-32571Y32234D01*
Y33751D01*
X-32071Y33958D01*
X-31537Y33424D01*
X-30632Y32902D01*
X-29623Y32631D01*
X-28578D01*
X-27568Y32902D01*
X-26663Y33424D01*
X-25924Y34163D01*
X-25402Y35068D01*
X-25131Y36077D01*
Y37122D01*
X-25402Y38132D01*
X-25924Y39037D01*
X-26663Y39776D01*
X-27568Y40298D01*
X-28578Y40569D01*
X-29623D01*
X-30632Y40298D01*
X-31537Y39776D01*
X-32071Y39242D01*
X-32571Y39449D01*
Y43751D01*
X-32071Y43958D01*
X-31537Y43424D01*
X-30632Y42902D01*
X-29623Y42632D01*
X-28578D01*
X-27568Y42902D01*
X-26663Y43424D01*
X-25924Y44163D01*
X-25402Y45068D01*
X-25131Y46077D01*
Y47122D01*
X-25402Y48132D01*
X-25924Y49037D01*
X-26663Y49776D01*
X-27568Y50298D01*
X-28578Y50568D01*
X-29623D01*
X-30632Y50298D01*
X-31537Y49776D01*
X-32071Y49242D01*
X-32571Y49449D01*
Y53751D01*
X-32071Y53958D01*
X-31537Y53424D01*
X-30632Y52902D01*
X-29623Y52631D01*
X-28578D01*
X-27568Y52902D01*
X-26663Y53424D01*
X-25924Y54163D01*
X-25402Y55068D01*
X-25131Y56077D01*
Y57122D01*
X-25402Y58132D01*
X-25924Y59037D01*
X-26663Y59776D01*
X-27568Y60298D01*
X-28578Y60568D01*
X-29623D01*
X-30632Y60298D01*
X-31537Y59776D01*
X-32071Y59242D01*
X-32571Y59449D01*
Y63751D01*
X-32071Y63958D01*
X-31537Y63424D01*
X-30632Y62902D01*
X-29623Y62631D01*
X-28578D01*
X-27568Y62902D01*
X-26663Y63424D01*
X-25924Y64163D01*
X-25402Y65068D01*
X-25131Y66078D01*
Y67123D01*
X-25402Y68132D01*
X-25924Y69037D01*
X-26663Y69776D01*
X-27568Y70298D01*
X-28578Y70569D01*
X-29623D01*
X-30632Y70298D01*
X-31537Y69776D01*
X-32071Y69242D01*
X-32571Y69449D01*
Y73751D01*
X-32071Y73958D01*
X-31537Y73424D01*
X-30632Y72902D01*
X-29623Y72632D01*
X-28578D01*
X-27568Y72902D01*
X-26663Y73424D01*
X-25924Y74163D01*
X-25402Y75068D01*
X-25131Y76078D01*
Y77122D01*
X-25402Y78132D01*
X-25924Y79037D01*
X-26663Y79776D01*
X-27568Y80298D01*
X-28578Y80568D01*
X-29623D01*
X-30632Y80298D01*
X-31537Y79776D01*
X-32071Y79242D01*
X-32571Y79449D01*
Y83751D01*
X-32071Y83958D01*
X-31537Y83424D01*
X-30632Y82902D01*
X-29623Y82631D01*
X-28578D01*
X-27568Y82902D01*
X-26663Y83424D01*
X-25924Y84163D01*
X-25402Y85068D01*
X-25131Y86077D01*
Y87122D01*
X-25402Y88132D01*
X-25924Y89037D01*
X-26663Y89776D01*
X-27568Y90298D01*
X-28578Y90569D01*
X-29623D01*
X-30632Y90298D01*
X-31537Y89776D01*
X-32071Y89242D01*
X-32571Y89449D01*
Y93000D01*
X-32687Y93585D01*
X-33019Y94081D01*
X-53471Y114533D01*
Y140769D01*
X-53456Y140773D01*
X-52544Y141299D01*
X-51799Y142044D01*
X-51273Y142956D01*
X-51000Y143973D01*
Y145027D01*
X-51273Y146044D01*
X-51799Y146956D01*
X-52544Y147701D01*
X-53456Y148227D01*
X-54473Y148500D01*
D02*
G37*
G36*
X82500Y120941D02*
Y119500D01*
X83941D01*
X83682Y120124D01*
X83124Y120682D01*
X82500Y120941D01*
D02*
G37*
G36*
X81500D02*
X80876Y120682D01*
X80318Y120124D01*
X80059Y119500D01*
X81500D01*
Y120941D01*
D02*
G37*
G36*
X22500D02*
Y119500D01*
X23941D01*
X23682Y120124D01*
X23124Y120682D01*
X22500Y120941D01*
D02*
G37*
G36*
X21500D02*
X20876Y120682D01*
X20318Y120124D01*
X20059Y119500D01*
X21500D01*
Y120941D01*
D02*
G37*
G36*
X-37500D02*
Y119500D01*
X-36059D01*
X-36318Y120124D01*
X-36876Y120682D01*
X-37500Y120941D01*
D02*
G37*
G36*
X-38500D02*
X-39124Y120682D01*
X-39682Y120124D01*
X-39941Y119500D01*
X-38500D01*
Y120941D01*
D02*
G37*
G36*
X-58500D02*
X-59124Y120682D01*
X-59682Y120124D01*
X-59941Y119500D01*
X-58500D01*
Y120941D01*
D02*
G37*
G36*
X-77500D02*
Y119500D01*
X-76059D01*
X-76318Y120124D01*
X-76876Y120682D01*
X-77500Y120941D01*
D02*
G37*
G36*
X-78500D02*
X-79124Y120682D01*
X-79682Y120124D01*
X-79941Y119500D01*
X-78500D01*
Y120941D01*
D02*
G37*
G36*
X83941Y118500D02*
X82500D01*
Y117059D01*
X83124Y117318D01*
X83682Y117876D01*
X83941Y118500D01*
D02*
G37*
G36*
X81500D02*
X80059D01*
X80318Y117876D01*
X80876Y117318D01*
X81500Y117059D01*
Y118500D01*
D02*
G37*
G36*
X23941D02*
X22500D01*
Y117059D01*
X23124Y117318D01*
X23682Y117876D01*
X23941Y118500D01*
D02*
G37*
G36*
X21500D02*
X20059D01*
X20318Y117876D01*
X20876Y117318D01*
X21500Y117059D01*
Y118500D01*
D02*
G37*
G36*
X-36059D02*
X-37500D01*
Y117059D01*
X-36876Y117318D01*
X-36318Y117876D01*
X-36059Y118500D01*
D02*
G37*
G36*
X-38500D02*
X-39941D01*
X-39682Y117876D01*
X-39124Y117318D01*
X-38500Y117059D01*
Y118500D01*
D02*
G37*
G36*
X-58500D02*
X-59941D01*
X-59682Y117876D01*
X-59124Y117318D01*
X-58500Y117059D01*
Y118500D01*
D02*
G37*
G36*
X-76059D02*
X-77500D01*
Y117059D01*
X-76876Y117318D01*
X-76318Y117876D01*
X-76059Y118500D01*
D02*
G37*
G36*
X-78500D02*
X-79941D01*
X-79682Y117876D01*
X-79124Y117318D01*
X-78500Y117059D01*
Y118500D01*
D02*
G37*
G36*
X-28578Y120569D02*
X-29623D01*
X-30632Y120298D01*
X-31537Y119776D01*
X-32276Y119037D01*
X-32798Y118132D01*
X-33068Y117122D01*
Y116077D01*
X-32798Y115068D01*
X-32276Y114163D01*
X-31537Y113424D01*
X-30632Y112902D01*
X-29623Y112631D01*
X-28578D01*
X-27568Y112902D01*
X-26663Y113424D01*
X-25924Y114163D01*
X-25402Y115068D01*
X-25131Y116077D01*
Y117122D01*
X-25402Y118132D01*
X-25924Y119037D01*
X-26663Y119776D01*
X-27568Y120298D01*
X-28578Y120569D01*
D02*
G37*
G36*
X-88578D02*
X-89622D01*
X-90632Y120298D01*
X-91537Y119776D01*
X-92276Y119037D01*
X-92798Y118132D01*
X-93068Y117122D01*
Y116077D01*
X-92798Y115068D01*
X-92276Y114163D01*
X-91537Y113424D01*
X-90632Y112902D01*
X-89622Y112631D01*
X-88578D01*
X-87568Y112902D01*
X-86663Y113424D01*
X-85924Y114163D01*
X-85402Y115068D01*
X-85132Y116077D01*
Y117122D01*
X-85402Y118132D01*
X-85924Y119037D01*
X-86663Y119776D01*
X-87568Y120298D01*
X-88578Y120569D01*
D02*
G37*
G36*
X-28578Y110568D02*
X-29623D01*
X-30632Y110298D01*
X-31537Y109776D01*
X-32276Y109037D01*
X-32798Y108132D01*
X-33068Y107123D01*
Y106078D01*
X-32798Y105068D01*
X-32276Y104163D01*
X-31537Y103424D01*
X-30632Y102902D01*
X-29623Y102631D01*
X-28578D01*
X-27568Y102902D01*
X-26663Y103424D01*
X-25924Y104163D01*
X-25402Y105068D01*
X-25131Y106078D01*
Y107123D01*
X-25402Y108132D01*
X-25924Y109037D01*
X-26663Y109776D01*
X-27568Y110298D01*
X-28578Y110568D01*
D02*
G37*
G36*
X-88578D02*
X-89622D01*
X-90632Y110298D01*
X-91537Y109776D01*
X-92276Y109037D01*
X-92798Y108132D01*
X-93068Y107123D01*
Y106078D01*
X-92798Y105068D01*
X-92276Y104163D01*
X-91537Y103424D01*
X-90632Y102902D01*
X-89622Y102631D01*
X-88578D01*
X-87568Y102902D01*
X-86663Y103424D01*
X-85924Y104163D01*
X-85402Y105068D01*
X-85132Y106078D01*
Y107123D01*
X-85402Y108132D01*
X-85924Y109037D01*
X-86663Y109776D01*
X-87568Y110298D01*
X-88578Y110568D01*
D02*
G37*
G36*
X79938Y115398D02*
X78481D01*
X77052Y115113D01*
X75705Y114556D01*
X74494Y113746D01*
X73463Y112716D01*
X72654Y111504D01*
X72096Y110158D01*
X71812Y108729D01*
Y107271D01*
X72096Y105842D01*
X72654Y104496D01*
X73463Y103284D01*
X74494Y102254D01*
X75705Y101444D01*
X77052Y100887D01*
X78481Y100602D01*
X79938D01*
X81367Y100887D01*
X82714Y101444D01*
X83925Y102254D01*
X84956Y103284D01*
X85765Y104496D01*
X86323Y105842D01*
X86607Y107271D01*
Y108729D01*
X86323Y110158D01*
X85765Y111504D01*
X84956Y112716D01*
X83925Y113746D01*
X82714Y114556D01*
X81367Y115113D01*
X79938Y115398D01*
D02*
G37*
G36*
X72500Y100941D02*
Y99500D01*
X73941D01*
X73682Y100124D01*
X73124Y100682D01*
X72500Y100941D01*
D02*
G37*
G36*
X-47500D02*
Y99500D01*
X-46059D01*
X-46318Y100124D01*
X-46876Y100682D01*
X-47500Y100941D01*
D02*
G37*
G36*
X-48500D02*
X-49124Y100682D01*
X-49682Y100124D01*
X-49941Y99500D01*
X-48500D01*
Y100941D01*
D02*
G37*
G36*
X-67500D02*
Y99500D01*
X-66059D01*
X-66318Y100124D01*
X-66876Y100682D01*
X-67500Y100941D01*
D02*
G37*
G36*
X-68500D02*
X-69124Y100682D01*
X-69682Y100124D01*
X-69941Y99500D01*
X-68500D01*
Y100941D01*
D02*
G37*
G36*
X73941Y98500D02*
X72500D01*
Y97059D01*
X73124Y97318D01*
X73682Y97876D01*
X73941Y98500D01*
D02*
G37*
G36*
X-46059D02*
X-47500D01*
Y97059D01*
X-46876Y97318D01*
X-46318Y97876D01*
X-46059Y98500D01*
D02*
G37*
G36*
X-48500D02*
X-49941D01*
X-49682Y97876D01*
X-49124Y97318D01*
X-48500Y97059D01*
Y98500D01*
D02*
G37*
G36*
X-66059D02*
X-67500D01*
Y97059D01*
X-66876Y97318D01*
X-66318Y97876D01*
X-66059Y98500D01*
D02*
G37*
G36*
X-68500D02*
X-69941D01*
X-69682Y97876D01*
X-69124Y97318D01*
X-68500Y97059D01*
Y98500D01*
D02*
G37*
G36*
X-28578Y100568D02*
X-29623D01*
X-30632Y100298D01*
X-31537Y99776D01*
X-32276Y99037D01*
X-32798Y98132D01*
X-33068Y97123D01*
Y96078D01*
X-32798Y95068D01*
X-32276Y94163D01*
X-31537Y93424D01*
X-30632Y92902D01*
X-29623Y92632D01*
X-28578D01*
X-27568Y92902D01*
X-26663Y93424D01*
X-25924Y94163D01*
X-25402Y95068D01*
X-25131Y96078D01*
Y97123D01*
X-25402Y98132D01*
X-25924Y99037D01*
X-26663Y99776D01*
X-27568Y100298D01*
X-28578Y100568D01*
D02*
G37*
G36*
X-88578D02*
X-89622D01*
X-90632Y100298D01*
X-91537Y99776D01*
X-92276Y99037D01*
X-92798Y98132D01*
X-93068Y97123D01*
Y96078D01*
X-92798Y95068D01*
X-92276Y94163D01*
X-91537Y93424D01*
X-90632Y92902D01*
X-89622Y92632D01*
X-88578D01*
X-87568Y92902D01*
X-86663Y93424D01*
X-85924Y94163D01*
X-85402Y95068D01*
X-85132Y96078D01*
Y97123D01*
X-85402Y98132D01*
X-85924Y99037D01*
X-86663Y99776D01*
X-87568Y100298D01*
X-88578Y100568D01*
D02*
G37*
G36*
Y90569D02*
X-89622D01*
X-90632Y90298D01*
X-91537Y89776D01*
X-92276Y89037D01*
X-92798Y88132D01*
X-93068Y87122D01*
Y86077D01*
X-92798Y85068D01*
X-92276Y84163D01*
X-91537Y83424D01*
X-90632Y82902D01*
X-89622Y82631D01*
X-88578D01*
X-87568Y82902D01*
X-86663Y83424D01*
X-85924Y84163D01*
X-85402Y85068D01*
X-85132Y86077D01*
Y87122D01*
X-85402Y88132D01*
X-85924Y89037D01*
X-86663Y89776D01*
X-87568Y90298D01*
X-88578Y90569D01*
D02*
G37*
G36*
X26600Y81841D02*
Y80400D01*
X28041D01*
X27782Y81024D01*
X27224Y81582D01*
X26600Y81841D01*
D02*
G37*
G36*
X25600D02*
X24976Y81582D01*
X24418Y81024D01*
X24159Y80400D01*
X25600D01*
Y81841D01*
D02*
G37*
G36*
X-38500Y80941D02*
X-39124Y80682D01*
X-39682Y80124D01*
X-39941Y79500D01*
X-38500D01*
Y80941D01*
D02*
G37*
G36*
X-57500D02*
Y79500D01*
X-56059D01*
X-56318Y80124D01*
X-56876Y80682D01*
X-57500Y80941D01*
D02*
G37*
G36*
X-58500D02*
X-59124Y80682D01*
X-59682Y80124D01*
X-59941Y79500D01*
X-58500D01*
Y80941D01*
D02*
G37*
G36*
X-77500D02*
Y79500D01*
X-76059D01*
X-76318Y80124D01*
X-76876Y80682D01*
X-77500Y80941D01*
D02*
G37*
G36*
X-78500D02*
X-79124Y80682D01*
X-79682Y80124D01*
X-79941Y79500D01*
X-78500D01*
Y80941D01*
D02*
G37*
G36*
X28041Y79400D02*
X26600D01*
Y77959D01*
X27224Y78218D01*
X27782Y78776D01*
X28041Y79400D01*
D02*
G37*
G36*
X25600D02*
X24159D01*
X24418Y78776D01*
X24976Y78218D01*
X25600Y77959D01*
Y79400D01*
D02*
G37*
G36*
X-38500Y78500D02*
X-39941D01*
X-39682Y77876D01*
X-39124Y77318D01*
X-38500Y77059D01*
Y78500D01*
D02*
G37*
G36*
X-56059D02*
X-57500D01*
Y77059D01*
X-56876Y77318D01*
X-56318Y77876D01*
X-56059Y78500D01*
D02*
G37*
G36*
X-58500D02*
X-59941D01*
X-59682Y77876D01*
X-59124Y77318D01*
X-58500Y77059D01*
Y78500D01*
D02*
G37*
G36*
X-76059D02*
X-77500D01*
Y77059D01*
X-76876Y77318D01*
X-76318Y77876D01*
X-76059Y78500D01*
D02*
G37*
G36*
X-78500D02*
X-79941D01*
X-79682Y77876D01*
X-79124Y77318D01*
X-78500Y77059D01*
Y78500D01*
D02*
G37*
G36*
X-88578Y80568D02*
X-89622D01*
X-90632Y80298D01*
X-91537Y79776D01*
X-92276Y79037D01*
X-92798Y78132D01*
X-93068Y77122D01*
Y76078D01*
X-92798Y75068D01*
X-92276Y74163D01*
X-91537Y73424D01*
X-90632Y72902D01*
X-89622Y72632D01*
X-88578D01*
X-87568Y72902D01*
X-86663Y73424D01*
X-85924Y74163D01*
X-85402Y75068D01*
X-85132Y76078D01*
Y77122D01*
X-85402Y78132D01*
X-85924Y79037D01*
X-86663Y79776D01*
X-87568Y80298D01*
X-88578Y80568D01*
D02*
G37*
G36*
X79938Y85398D02*
X78481D01*
X77052Y85113D01*
X75705Y84556D01*
X74494Y83746D01*
X73463Y82716D01*
X72654Y81504D01*
X72096Y80158D01*
X71812Y78729D01*
Y77271D01*
X72096Y75842D01*
X72654Y74496D01*
X73463Y73284D01*
X74494Y72254D01*
X75705Y71444D01*
X77052Y70887D01*
X78481Y70602D01*
X79938D01*
X81367Y70887D01*
X82714Y71444D01*
X83925Y72254D01*
X84956Y73284D01*
X85765Y74496D01*
X86323Y75842D01*
X86607Y77271D01*
Y78729D01*
X86323Y80158D01*
X85765Y81504D01*
X84956Y82716D01*
X83925Y83746D01*
X82714Y84556D01*
X81367Y85113D01*
X79938Y85398D01*
D02*
G37*
G36*
X-55132Y70569D02*
X-58600D01*
Y67100D01*
X-55132D01*
Y70569D01*
D02*
G37*
G36*
X-59600D02*
X-63068D01*
Y67100D01*
X-59600D01*
Y70569D01*
D02*
G37*
G36*
X-47116D02*
X-51084D01*
X-53069Y68584D01*
Y64616D01*
X-51084Y62631D01*
X-47116D01*
X-45131Y64616D01*
Y68584D01*
X-47116Y70569D01*
D02*
G37*
G36*
X-55132Y66100D02*
X-58600D01*
Y62631D01*
X-55132D01*
Y66100D01*
D02*
G37*
G36*
X-59600D02*
X-63068D01*
Y62631D01*
X-59600D01*
Y66100D01*
D02*
G37*
G36*
X-68577Y70569D02*
X-69622D01*
X-70632Y70298D01*
X-71537Y69776D01*
X-72276Y69037D01*
X-72798Y68132D01*
X-73068Y67123D01*
Y66078D01*
X-72798Y65068D01*
X-72276Y64163D01*
X-71537Y63424D01*
X-70632Y62902D01*
X-69622Y62631D01*
X-68577D01*
X-67568Y62902D01*
X-66663Y63424D01*
X-65924Y64163D01*
X-65402Y65068D01*
X-65131Y66078D01*
Y67123D01*
X-65402Y68132D01*
X-65924Y69037D01*
X-66663Y69776D01*
X-67568Y70298D01*
X-68577Y70569D01*
D02*
G37*
G36*
X-78578D02*
X-79623D01*
X-80632Y70298D01*
X-81537Y69776D01*
X-82276Y69037D01*
X-82798Y68132D01*
X-83069Y67123D01*
Y66078D01*
X-82798Y65068D01*
X-82276Y64163D01*
X-81537Y63424D01*
X-80632Y62902D01*
X-79623Y62631D01*
X-78578D01*
X-77568Y62902D01*
X-76663Y63424D01*
X-75924Y64163D01*
X-75402Y65068D01*
X-75131Y66078D01*
Y67123D01*
X-75402Y68132D01*
X-75924Y69037D01*
X-76663Y69776D01*
X-77568Y70298D01*
X-78578Y70569D01*
D02*
G37*
G36*
X-88578D02*
X-89622D01*
X-90632Y70298D01*
X-91537Y69776D01*
X-92276Y69037D01*
X-92798Y68132D01*
X-93068Y67123D01*
Y66078D01*
X-92798Y65068D01*
X-92276Y64163D01*
X-91537Y63424D01*
X-90632Y62902D01*
X-89622Y62631D01*
X-88578D01*
X-87568Y62902D01*
X-86663Y63424D01*
X-85924Y64163D01*
X-85402Y65068D01*
X-85132Y66078D01*
Y67123D01*
X-85402Y68132D01*
X-85924Y69037D01*
X-86663Y69776D01*
X-87568Y70298D01*
X-88578Y70569D01*
D02*
G37*
G36*
Y60568D02*
X-89622D01*
X-90632Y60298D01*
X-91537Y59776D01*
X-92276Y59037D01*
X-92798Y58132D01*
X-93068Y57122D01*
Y56077D01*
X-92798Y55068D01*
X-92276Y54163D01*
X-91537Y53424D01*
X-90632Y52902D01*
X-89622Y52631D01*
X-88578D01*
X-87568Y52902D01*
X-86663Y53424D01*
X-85924Y54163D01*
X-85402Y55068D01*
X-85132Y56077D01*
Y57122D01*
X-85402Y58132D01*
X-85924Y59037D01*
X-86663Y59776D01*
X-87568Y60298D01*
X-88578Y60568D01*
D02*
G37*
G36*
X79938Y63598D02*
X78481D01*
X77052Y63313D01*
X75705Y62756D01*
X74494Y61946D01*
X73463Y60916D01*
X72654Y59704D01*
X72096Y58358D01*
X71812Y56929D01*
Y55471D01*
X72096Y54042D01*
X72654Y52696D01*
X73463Y51484D01*
X74494Y50454D01*
X75705Y49644D01*
X77052Y49087D01*
X78481Y48802D01*
X79938D01*
X81367Y49087D01*
X82714Y49644D01*
X83925Y50454D01*
X84956Y51484D01*
X85765Y52696D01*
X86323Y54042D01*
X86607Y55471D01*
Y56929D01*
X86323Y58358D01*
X85765Y59704D01*
X84956Y60916D01*
X83925Y61946D01*
X82714Y62756D01*
X81367Y63313D01*
X79938Y63598D01*
D02*
G37*
G36*
X22600Y44441D02*
Y43000D01*
X24041D01*
X23782Y43624D01*
X23224Y44182D01*
X22600Y44441D01*
D02*
G37*
G36*
X21600D02*
X20976Y44182D01*
X20418Y43624D01*
X20159Y43000D01*
X21600D01*
Y44441D01*
D02*
G37*
G36*
X-88578Y50568D02*
X-89622D01*
X-90632Y50298D01*
X-91537Y49776D01*
X-92276Y49037D01*
X-92798Y48132D01*
X-93068Y47122D01*
Y46077D01*
X-92798Y45068D01*
X-92276Y44163D01*
X-91537Y43424D01*
X-90632Y42902D01*
X-89622Y42632D01*
X-88578D01*
X-87568Y42902D01*
X-86663Y43424D01*
X-85924Y44163D01*
X-85402Y45068D01*
X-85132Y46077D01*
Y47122D01*
X-85402Y48132D01*
X-85924Y49037D01*
X-86663Y49776D01*
X-87568Y50298D01*
X-88578Y50568D01*
D02*
G37*
G36*
X82500Y40941D02*
Y39500D01*
X83941D01*
X83682Y40124D01*
X83124Y40682D01*
X82500Y40941D01*
D02*
G37*
G36*
X81500D02*
X80876Y40682D01*
X80318Y40124D01*
X80059Y39500D01*
X81500D01*
Y40941D01*
D02*
G37*
G36*
X62500D02*
Y39500D01*
X63941D01*
X63682Y40124D01*
X63124Y40682D01*
X62500Y40941D01*
D02*
G37*
G36*
X61500D02*
X60876Y40682D01*
X60318Y40124D01*
X60059Y39500D01*
X61500D01*
Y40941D01*
D02*
G37*
G36*
X83941Y38500D02*
X82500D01*
Y37059D01*
X83124Y37318D01*
X83682Y37876D01*
X83941Y38500D01*
D02*
G37*
G36*
X81500D02*
X80059D01*
X80318Y37876D01*
X80876Y37318D01*
X81500Y37059D01*
Y38500D01*
D02*
G37*
G36*
X63941D02*
X62500D01*
Y37059D01*
X63124Y37318D01*
X63682Y37876D01*
X63941Y38500D01*
D02*
G37*
G36*
X61500D02*
X60059D01*
X60318Y37876D01*
X60876Y37318D01*
X61500Y37059D01*
Y38500D01*
D02*
G37*
G36*
X-46800Y37341D02*
Y35900D01*
X-45359D01*
X-45618Y36524D01*
X-46176Y37082D01*
X-46800Y37341D01*
D02*
G37*
G36*
X-47800D02*
X-48424Y37082D01*
X-48982Y36524D01*
X-49241Y35900D01*
X-47800D01*
Y37341D01*
D02*
G37*
G36*
X-45359Y34900D02*
X-46800D01*
Y33459D01*
X-46176Y33718D01*
X-45618Y34276D01*
X-45359Y34900D01*
D02*
G37*
G36*
X-47800D02*
X-49241D01*
X-48982Y34276D01*
X-48424Y33718D01*
X-47800Y33459D01*
Y34900D01*
D02*
G37*
G36*
X-88578Y40569D02*
X-89622D01*
X-90632Y40298D01*
X-91537Y39776D01*
X-92276Y39037D01*
X-92798Y38132D01*
X-93068Y37122D01*
Y36077D01*
X-92798Y35068D01*
X-92276Y34163D01*
X-91537Y33424D01*
X-90632Y32902D01*
X-89622Y32631D01*
X-88578D01*
X-87568Y32902D01*
X-86663Y33424D01*
X-85924Y34163D01*
X-85402Y35068D01*
X-85132Y36077D01*
Y37122D01*
X-85402Y38132D01*
X-85924Y39037D01*
X-86663Y39776D01*
X-87568Y40298D01*
X-88578Y40569D01*
D02*
G37*
G36*
X-85132Y30569D02*
X-88600D01*
Y27100D01*
X-85132D01*
Y30569D01*
D02*
G37*
G36*
X-89600D02*
X-93068D01*
Y27100D01*
X-89600D01*
Y30569D01*
D02*
G37*
G36*
X-85132Y26100D02*
X-88600D01*
Y22632D01*
X-85132D01*
Y26100D01*
D02*
G37*
G36*
X-89600D02*
X-93068D01*
Y22632D01*
X-89600D01*
Y26100D01*
D02*
G37*
G36*
X-38300Y23341D02*
Y21900D01*
X-36859D01*
X-37118Y22524D01*
X-37676Y23082D01*
X-38300Y23341D01*
D02*
G37*
G36*
X-39300D02*
X-39924Y23082D01*
X-40482Y22524D01*
X-40741Y21900D01*
X-39300D01*
Y23341D01*
D02*
G37*
G36*
X-1419Y20993D02*
Y19553D01*
X22D01*
X-236Y20177D01*
X-795Y20735D01*
X-1419Y20993D01*
D02*
G37*
G36*
X-2419D02*
X-3042Y20735D01*
X-3601Y20177D01*
X-3859Y19553D01*
X-2419D01*
Y20993D01*
D02*
G37*
G36*
X72500Y20941D02*
Y19500D01*
X73941D01*
X73682Y20124D01*
X73124Y20682D01*
X72500Y20941D01*
D02*
G37*
G36*
X52500D02*
Y19500D01*
X53941D01*
X53682Y20124D01*
X53124Y20682D01*
X52500Y20941D01*
D02*
G37*
G36*
X51500D02*
X50876Y20682D01*
X50318Y20124D01*
X50059Y19500D01*
X51500D01*
Y20941D01*
D02*
G37*
G36*
X32500D02*
Y19500D01*
X33941D01*
X33682Y20124D01*
X33124Y20682D01*
X32500Y20941D01*
D02*
G37*
G36*
X31500D02*
X30876Y20682D01*
X30318Y20124D01*
X30059Y19500D01*
X31500D01*
Y20941D01*
D02*
G37*
G36*
X-7500D02*
Y19500D01*
X-6059D01*
X-6318Y20124D01*
X-6876Y20682D01*
X-7500Y20941D01*
D02*
G37*
G36*
X-8500D02*
X-9124Y20682D01*
X-9682Y20124D01*
X-9941Y19500D01*
X-8500D01*
Y20941D01*
D02*
G37*
G36*
X-36859Y20900D02*
X-38300D01*
Y19459D01*
X-37676Y19718D01*
X-37118Y20276D01*
X-36859Y20900D01*
D02*
G37*
G36*
X-39300D02*
X-40741D01*
X-40482Y20276D01*
X-39924Y19718D01*
X-39300Y19459D01*
Y20900D01*
D02*
G37*
G36*
X12543Y23443D02*
X8500D01*
Y19400D01*
X12543D01*
Y23443D01*
D02*
G37*
G36*
X7500D02*
X3457D01*
Y19400D01*
X7500D01*
Y23443D01*
D02*
G37*
G36*
X79938Y33598D02*
X78481D01*
X77052Y33313D01*
X75705Y32756D01*
X74494Y31946D01*
X73463Y30916D01*
X72654Y29704D01*
X72096Y28358D01*
X71812Y26929D01*
Y25471D01*
X72096Y24042D01*
X72654Y22696D01*
X73463Y21484D01*
X74494Y20454D01*
X75705Y19644D01*
X77052Y19087D01*
X78481Y18802D01*
X79938D01*
X81367Y19087D01*
X82714Y19644D01*
X83925Y20454D01*
X84956Y21484D01*
X85765Y22696D01*
X86323Y24042D01*
X86607Y25471D01*
Y26929D01*
X86323Y28358D01*
X85765Y29704D01*
X84956Y30916D01*
X83925Y31946D01*
X82714Y32756D01*
X81367Y33313D01*
X79938Y33598D01*
D02*
G37*
G36*
X22Y18553D02*
X-1419D01*
Y17112D01*
X-795Y17370D01*
X-236Y17929D01*
X22Y18553D01*
D02*
G37*
G36*
X-2419D02*
X-3859D01*
X-3601Y17929D01*
X-3042Y17370D01*
X-2419Y17112D01*
Y18553D01*
D02*
G37*
G36*
X73941Y18500D02*
X72500D01*
Y17059D01*
X73124Y17318D01*
X73682Y17876D01*
X73941Y18500D01*
D02*
G37*
G36*
X53941D02*
X52500D01*
Y17059D01*
X53124Y17318D01*
X53682Y17876D01*
X53941Y18500D01*
D02*
G37*
G36*
X51500D02*
X50059D01*
X50318Y17876D01*
X50876Y17318D01*
X51500Y17059D01*
Y18500D01*
D02*
G37*
G36*
X33941D02*
X32500D01*
Y17059D01*
X33124Y17318D01*
X33682Y17876D01*
X33941Y18500D01*
D02*
G37*
G36*
X31500D02*
X30059D01*
X30318Y17876D01*
X30876Y17318D01*
X31500Y17059D01*
Y18500D01*
D02*
G37*
G36*
X-6059D02*
X-7500D01*
Y17059D01*
X-6876Y17318D01*
X-6318Y17876D01*
X-6059Y18500D01*
D02*
G37*
G36*
X-8500D02*
X-9941D01*
X-9682Y17876D01*
X-9124Y17318D01*
X-8500Y17059D01*
Y18500D01*
D02*
G37*
G36*
X12543Y18400D02*
X8500D01*
Y14357D01*
X12543D01*
Y18400D01*
D02*
G37*
G36*
X7500D02*
X3457D01*
Y14357D01*
X7500D01*
Y18400D01*
D02*
G37*
G36*
X-28578Y20569D02*
X-29623D01*
X-30632Y20298D01*
X-31537Y19776D01*
X-32276Y19037D01*
X-32798Y18132D01*
X-33068Y17122D01*
Y16078D01*
X-32798Y15068D01*
X-32276Y14163D01*
X-31537Y13424D01*
X-30632Y12902D01*
X-29623Y12631D01*
X-28578D01*
X-27568Y12902D01*
X-26663Y13424D01*
X-25924Y14163D01*
X-25402Y15068D01*
X-25131Y16078D01*
Y17122D01*
X-25402Y18132D01*
X-25924Y19037D01*
X-26663Y19776D01*
X-27568Y20298D01*
X-28578Y20569D01*
D02*
G37*
G36*
X-88578D02*
X-89622D01*
X-90632Y20298D01*
X-91537Y19776D01*
X-92276Y19037D01*
X-92798Y18132D01*
X-93068Y17122D01*
Y16078D01*
X-92798Y15068D01*
X-92276Y14163D01*
X-91537Y13424D01*
X-90632Y12902D01*
X-89622Y12631D01*
X-88578D01*
X-87568Y12902D01*
X-86663Y13424D01*
X-85924Y14163D01*
X-85402Y15068D01*
X-85132Y16078D01*
Y17122D01*
X-85402Y18132D01*
X-85924Y19037D01*
X-86663Y19776D01*
X-87568Y20298D01*
X-88578Y20569D01*
D02*
G37*
G36*
X-66500Y34420D02*
X-81000D01*
X-81390Y34342D01*
X-81721Y34121D01*
X-81942Y33790D01*
X-82020Y33400D01*
Y12200D01*
X-81942Y11810D01*
X-81721Y11479D01*
X-81390Y11258D01*
X-81000Y11180D01*
X-66500D01*
X-66110Y11258D01*
X-65779Y11479D01*
X-65558Y11810D01*
X-65480Y12200D01*
Y33400D01*
X-65558Y33790D01*
X-65779Y34121D01*
X-66110Y34342D01*
X-66500Y34420D01*
D02*
G37*
G36*
X-52816Y8125D02*
Y6684D01*
X-51375D01*
X-51634Y7308D01*
X-52192Y7866D01*
X-52816Y8125D01*
D02*
G37*
G36*
X-53816D02*
X-54440Y7866D01*
X-54998Y7308D01*
X-55256Y6684D01*
X-53816D01*
Y8125D01*
D02*
G37*
G36*
X-8776Y7044D02*
X-10850D01*
Y5658D01*
X-8776D01*
Y7044D01*
D02*
G37*
G36*
X-18150D02*
X-20224D01*
Y5658D01*
X-18150D01*
Y7044D01*
D02*
G37*
G36*
X-51375Y5684D02*
X-52816D01*
Y4244D01*
X-52192Y4502D01*
X-51634Y5060D01*
X-51375Y5684D01*
D02*
G37*
G36*
X-53816D02*
X-55256D01*
X-54998Y5060D01*
X-54440Y4502D01*
X-53816Y4244D01*
Y5684D01*
D02*
G37*
G36*
X-28578Y10569D02*
X-29623D01*
X-30632Y10298D01*
X-31537Y9776D01*
X-32276Y9037D01*
X-32798Y8132D01*
X-33068Y7123D01*
Y6078D01*
X-32798Y5068D01*
X-32276Y4163D01*
X-31537Y3424D01*
X-30632Y2902D01*
X-29623Y2631D01*
X-28578D01*
X-27568Y2902D01*
X-26663Y3424D01*
X-25924Y4163D01*
X-25402Y5068D01*
X-25131Y6078D01*
Y7123D01*
X-25402Y8132D01*
X-25924Y9037D01*
X-26663Y9776D01*
X-27568Y10298D01*
X-28578Y10569D01*
D02*
G37*
G36*
X-88578D02*
X-89622D01*
X-90632Y10298D01*
X-91537Y9776D01*
X-92276Y9037D01*
X-92798Y8132D01*
X-93068Y7123D01*
Y6078D01*
X-92798Y5068D01*
X-92276Y4163D01*
X-91537Y3424D01*
X-90632Y2902D01*
X-89622Y2631D01*
X-88578D01*
X-87568Y2902D01*
X-86663Y3424D01*
X-85924Y4163D01*
X-85402Y5068D01*
X-85132Y6078D01*
Y7123D01*
X-85402Y8132D01*
X-85924Y9037D01*
X-86663Y9776D01*
X-87568Y10298D01*
X-88578Y10569D01*
D02*
G37*
G36*
X-37500Y941D02*
Y-500D01*
X-36059D01*
X-36318Y124D01*
X-36876Y682D01*
X-37500Y941D01*
D02*
G37*
G36*
X-38500D02*
X-39124Y682D01*
X-39682Y124D01*
X-39941Y-500D01*
X-38500D01*
Y941D01*
D02*
G37*
G36*
X79529Y13798D02*
X78071D01*
X76642Y13513D01*
X75296Y12956D01*
X74084Y12146D01*
X73054Y11116D01*
X72244Y9904D01*
X71687Y8558D01*
X71402Y7129D01*
Y5671D01*
X71687Y4242D01*
X72244Y2896D01*
X73054Y1684D01*
X74084Y654D01*
X75296Y-156D01*
X76642Y-713D01*
X78071Y-998D01*
X79529D01*
X80958Y-713D01*
X82304Y-156D01*
X83516Y654D01*
X84546Y1684D01*
X85356Y2896D01*
X85913Y4242D01*
X86198Y5671D01*
Y7129D01*
X85913Y8558D01*
X85356Y9904D01*
X84546Y11116D01*
X83516Y12146D01*
X82304Y12956D01*
X80958Y13513D01*
X79529Y13798D01*
D02*
G37*
G36*
X-36059Y-1500D02*
X-37500D01*
Y-2941D01*
X-36876Y-2682D01*
X-36318Y-2124D01*
X-36059Y-1500D01*
D02*
G37*
G36*
X-38500D02*
X-39941D01*
X-39682Y-2124D01*
X-39124Y-2682D01*
X-38500Y-2941D01*
Y-1500D01*
D02*
G37*
G36*
X-88578Y569D02*
X-89622D01*
X-90632Y298D01*
X-91537Y-224D01*
X-92276Y-963D01*
X-92798Y-1868D01*
X-93068Y-2877D01*
Y-3923D01*
X-92798Y-4932D01*
X-92276Y-5837D01*
X-91537Y-6576D01*
X-90632Y-7098D01*
X-89622Y-7368D01*
X-88578D01*
X-87568Y-7098D01*
X-86663Y-6576D01*
X-85924Y-5837D01*
X-85402Y-4932D01*
X-85132Y-3923D01*
Y-2877D01*
X-85402Y-1868D01*
X-85924Y-963D01*
X-86663Y-224D01*
X-87568Y298D01*
X-88578Y569D01*
D02*
G37*
G36*
Y-9431D02*
X-89622D01*
X-90632Y-9702D01*
X-91537Y-10224D01*
X-92276Y-10963D01*
X-92798Y-11868D01*
X-93068Y-12878D01*
Y-13923D01*
X-92798Y-14932D01*
X-92276Y-15837D01*
X-91537Y-16576D01*
X-90632Y-17098D01*
X-89622Y-17368D01*
X-88578D01*
X-87568Y-17098D01*
X-86663Y-16576D01*
X-85924Y-15837D01*
X-85402Y-14932D01*
X-85132Y-13923D01*
Y-12878D01*
X-85402Y-11868D01*
X-85924Y-10963D01*
X-86663Y-10224D01*
X-87568Y-9702D01*
X-88578Y-9431D01*
D02*
G37*
G36*
X72500Y-19059D02*
Y-20500D01*
X73941D01*
X73682Y-19876D01*
X73124Y-19318D01*
X72500Y-19059D01*
D02*
G37*
G36*
X71500D02*
X70876Y-19318D01*
X70318Y-19876D01*
X70059Y-20500D01*
X71500D01*
Y-19059D01*
D02*
G37*
G36*
X-67500D02*
Y-20500D01*
X-66059D01*
X-66318Y-19876D01*
X-66876Y-19318D01*
X-67500Y-19059D01*
D02*
G37*
G36*
X-68500D02*
X-69124Y-19318D01*
X-69682Y-19876D01*
X-69941Y-20500D01*
X-68500D01*
Y-19059D01*
D02*
G37*
G36*
X73941Y-21500D02*
X72500D01*
Y-22941D01*
X73124Y-22682D01*
X73682Y-22124D01*
X73941Y-21500D01*
D02*
G37*
G36*
X71500D02*
X70059D01*
X70318Y-22124D01*
X70876Y-22682D01*
X71500Y-22941D01*
Y-21500D01*
D02*
G37*
G36*
X-66059D02*
X-67500D01*
Y-22941D01*
X-66876Y-22682D01*
X-66318Y-22124D01*
X-66059Y-21500D01*
D02*
G37*
G36*
X-68500D02*
X-69941D01*
X-69682Y-22124D01*
X-69124Y-22682D01*
X-68500Y-22941D01*
Y-21500D01*
D02*
G37*
G36*
X-88578Y-19432D02*
X-89622D01*
X-90632Y-19702D01*
X-91537Y-20224D01*
X-92276Y-20963D01*
X-92798Y-21868D01*
X-93068Y-22877D01*
Y-23923D01*
X-92798Y-24932D01*
X-92276Y-25837D01*
X-91537Y-26576D01*
X-90632Y-27098D01*
X-89622Y-27369D01*
X-88578D01*
X-87568Y-27098D01*
X-86663Y-26576D01*
X-85924Y-25837D01*
X-85402Y-24932D01*
X-85132Y-23923D01*
Y-22877D01*
X-85402Y-21868D01*
X-85924Y-20963D01*
X-86663Y-20224D01*
X-87568Y-19702D01*
X-88578Y-19432D01*
D02*
G37*
G36*
X12543Y-32507D02*
X8500D01*
Y-36550D01*
X12543D01*
Y-32507D01*
D02*
G37*
G36*
X7500D02*
X3457D01*
Y-36550D01*
X7500D01*
Y-32507D01*
D02*
G37*
G36*
X-88578Y-29432D02*
X-89622D01*
X-90632Y-29702D01*
X-91537Y-30224D01*
X-92276Y-30963D01*
X-92798Y-31868D01*
X-93068Y-32877D01*
Y-33922D01*
X-92798Y-34932D01*
X-92276Y-35837D01*
X-91537Y-36576D01*
X-90632Y-37098D01*
X-89622Y-37369D01*
X-88578D01*
X-87568Y-37098D01*
X-86663Y-36576D01*
X-85924Y-35837D01*
X-85402Y-34932D01*
X-85132Y-33922D01*
Y-32877D01*
X-85402Y-31868D01*
X-85924Y-30963D01*
X-86663Y-30224D01*
X-87568Y-29702D01*
X-88578Y-29432D01*
D02*
G37*
G36*
X7500Y-37550D02*
X3457D01*
Y-38997D01*
X2957Y-39248D01*
X2500Y-39059D01*
Y-41000D01*
Y-42941D01*
X3124Y-42682D01*
X3682Y-42124D01*
X3902Y-41593D01*
X7500D01*
Y-37550D01*
D02*
G37*
G36*
X1500Y-39059D02*
X876Y-39318D01*
X318Y-39876D01*
X59Y-40500D01*
X1500D01*
Y-39059D01*
D02*
G37*
G36*
X-37500D02*
Y-40500D01*
X-36059D01*
X-36318Y-39876D01*
X-36876Y-39318D01*
X-37500Y-39059D01*
D02*
G37*
G36*
X-38500D02*
X-39124Y-39318D01*
X-39682Y-39876D01*
X-39941Y-40500D01*
X-38500D01*
Y-39059D01*
D02*
G37*
G36*
X-57500D02*
Y-40500D01*
X-56059D01*
X-56318Y-39876D01*
X-56876Y-39318D01*
X-57500Y-39059D01*
D02*
G37*
G36*
X-58500D02*
X-59124Y-39318D01*
X-59682Y-39876D01*
X-59941Y-40500D01*
X-58500D01*
Y-39059D01*
D02*
G37*
G36*
X-77500D02*
Y-40500D01*
X-76059D01*
X-76318Y-39876D01*
X-76876Y-39318D01*
X-77500Y-39059D01*
D02*
G37*
G36*
X-78500D02*
X-79124Y-39318D01*
X-79682Y-39876D01*
X-79941Y-40500D01*
X-78500D01*
Y-39059D01*
D02*
G37*
G36*
X27900Y-39659D02*
Y-41100D01*
X29341D01*
X29082Y-40476D01*
X28524Y-39918D01*
X27900Y-39659D01*
D02*
G37*
G36*
X26900D02*
X26276Y-39918D01*
X25718Y-40476D01*
X25459Y-41100D01*
X26900D01*
Y-39659D01*
D02*
G37*
G36*
X50600Y-39759D02*
Y-41200D01*
X52041D01*
X51782Y-40576D01*
X51224Y-40018D01*
X50600Y-39759D01*
D02*
G37*
G36*
X49600D02*
X48976Y-40018D01*
X48418Y-40576D01*
X48159Y-41200D01*
X49600D01*
Y-39759D01*
D02*
G37*
G36*
X12543Y-37550D02*
X8500D01*
Y-41593D01*
X12543D01*
Y-37550D01*
D02*
G37*
G36*
X1500Y-41500D02*
X59D01*
X318Y-42124D01*
X876Y-42682D01*
X1500Y-42941D01*
Y-41500D01*
D02*
G37*
G36*
X-36059D02*
X-37500D01*
Y-42941D01*
X-36876Y-42682D01*
X-36318Y-42124D01*
X-36059Y-41500D01*
D02*
G37*
G36*
X-38500D02*
X-39941D01*
X-39682Y-42124D01*
X-39124Y-42682D01*
X-38500Y-42941D01*
Y-41500D01*
D02*
G37*
G36*
X-56059D02*
X-57500D01*
Y-42941D01*
X-56876Y-42682D01*
X-56318Y-42124D01*
X-56059Y-41500D01*
D02*
G37*
G36*
X-58500D02*
X-59941D01*
X-59682Y-42124D01*
X-59124Y-42682D01*
X-58500Y-42941D01*
Y-41500D01*
D02*
G37*
G36*
X-76059D02*
X-77500D01*
Y-42941D01*
X-76876Y-42682D01*
X-76318Y-42124D01*
X-76059Y-41500D01*
D02*
G37*
G36*
X-78500D02*
X-79941D01*
X-79682Y-42124D01*
X-79124Y-42682D01*
X-78500Y-42941D01*
Y-41500D01*
D02*
G37*
G36*
X29341Y-42100D02*
X27900D01*
Y-43541D01*
X28524Y-43282D01*
X29082Y-42724D01*
X29341Y-42100D01*
D02*
G37*
G36*
X26900D02*
X25459D01*
X25718Y-42724D01*
X26276Y-43282D01*
X26900Y-43541D01*
Y-42100D01*
D02*
G37*
G36*
X52041Y-42200D02*
X50600D01*
Y-43641D01*
X51224Y-43382D01*
X51782Y-42824D01*
X52041Y-42200D01*
D02*
G37*
G36*
X49600D02*
X48159D01*
X48418Y-42824D01*
X48976Y-43382D01*
X49600Y-43641D01*
Y-42200D01*
D02*
G37*
G36*
X79529Y-31202D02*
X78071D01*
X76642Y-31487D01*
X75296Y-32044D01*
X74084Y-32854D01*
X73054Y-33884D01*
X72244Y-35096D01*
X71687Y-36442D01*
X71402Y-37871D01*
Y-39329D01*
X71687Y-40758D01*
X72244Y-42104D01*
X73054Y-43316D01*
X74084Y-44346D01*
X75296Y-45156D01*
X76642Y-45713D01*
X78071Y-45998D01*
X79529D01*
X80958Y-45713D01*
X82304Y-45156D01*
X83516Y-44346D01*
X84546Y-43316D01*
X85356Y-42104D01*
X85913Y-40758D01*
X86198Y-39329D01*
Y-37871D01*
X85913Y-36442D01*
X85356Y-35096D01*
X84546Y-33884D01*
X83516Y-32854D01*
X82304Y-32044D01*
X80958Y-31487D01*
X79529Y-31202D01*
D02*
G37*
G36*
X-88578Y-39432D02*
X-89622D01*
X-90632Y-39702D01*
X-91537Y-40224D01*
X-92276Y-40963D01*
X-92798Y-41868D01*
X-93068Y-42878D01*
Y-43922D01*
X-92798Y-44932D01*
X-92276Y-45837D01*
X-91537Y-46576D01*
X-90632Y-47098D01*
X-89622Y-47368D01*
X-88578D01*
X-87568Y-47098D01*
X-86663Y-46576D01*
X-85924Y-45837D01*
X-85402Y-44932D01*
X-85132Y-43922D01*
Y-42878D01*
X-85402Y-41868D01*
X-85924Y-40963D01*
X-86663Y-40224D01*
X-87568Y-39702D01*
X-88578Y-39432D01*
D02*
G37*
G36*
X-40389Y-44431D02*
X-40411D01*
Y-47900D01*
X-36942D01*
Y-47877D01*
X-37213Y-46868D01*
X-37735Y-45963D01*
X-38474Y-45224D01*
X-39379Y-44702D01*
X-40389Y-44431D01*
D02*
G37*
G36*
X-41411D02*
X-41434D01*
X-42443Y-44702D01*
X-43348Y-45224D01*
X-44087Y-45963D01*
X-44609Y-46868D01*
X-44879Y-47877D01*
Y-47900D01*
X-41411D01*
Y-44431D01*
D02*
G37*
G36*
X-40911Y-48400D02*
D01*
D01*
D01*
D02*
G37*
G36*
X-8776Y-48906D02*
X-10850D01*
Y-50292D01*
X-8776D01*
Y-48906D01*
D02*
G37*
G36*
X24200Y-49159D02*
Y-50600D01*
X25641D01*
X25382Y-49976D01*
X24824Y-49418D01*
X24200Y-49159D01*
D02*
G37*
G36*
X49400Y-49559D02*
Y-51000D01*
X50841D01*
X50582Y-50376D01*
X50024Y-49818D01*
X49400Y-49559D01*
D02*
G37*
G36*
X48400D02*
X47776Y-49818D01*
X47218Y-50376D01*
X46959Y-51000D01*
X48400D01*
Y-49559D01*
D02*
G37*
G36*
X-36942Y-48900D02*
X-40411D01*
Y-52368D01*
X-40389D01*
X-39379Y-52098D01*
X-38474Y-51576D01*
X-37735Y-50837D01*
X-37213Y-49932D01*
X-36942Y-48923D01*
Y-48900D01*
D02*
G37*
G36*
X-41411D02*
X-44879D01*
Y-48923D01*
X-44609Y-49932D01*
X-44087Y-50837D01*
X-43348Y-51576D01*
X-42443Y-52098D01*
X-41434Y-52368D01*
X-41411D01*
Y-48900D01*
D02*
G37*
G36*
X25641Y-51600D02*
X24200D01*
Y-53041D01*
X24824Y-52782D01*
X25382Y-52224D01*
X25641Y-51600D01*
D02*
G37*
G36*
X50841Y-52000D02*
X49400D01*
Y-53441D01*
X50024Y-53182D01*
X50582Y-52624D01*
X50841Y-52000D01*
D02*
G37*
G36*
X48400D02*
X46959D01*
X47218Y-52624D01*
X47776Y-53182D01*
X48400Y-53441D01*
Y-52000D01*
D02*
G37*
G36*
X-88578Y-49431D02*
X-89622D01*
X-90632Y-49702D01*
X-91537Y-50224D01*
X-92276Y-50963D01*
X-92798Y-51868D01*
X-93068Y-52877D01*
Y-53922D01*
X-92798Y-54932D01*
X-92276Y-55837D01*
X-91537Y-56576D01*
X-90632Y-57098D01*
X-89622Y-57368D01*
X-88578D01*
X-87568Y-57098D01*
X-86663Y-56576D01*
X-85924Y-55837D01*
X-85402Y-54932D01*
X-85132Y-53922D01*
Y-52877D01*
X-85402Y-51868D01*
X-85924Y-50963D01*
X-86663Y-50224D01*
X-87568Y-49702D01*
X-88578Y-49431D01*
D02*
G37*
G36*
X-62933Y-51282D02*
X-63771D01*
X-64580Y-51499D01*
X-65305Y-51918D01*
X-65897Y-52510D01*
X-66316Y-53235D01*
X-66533Y-54044D01*
Y-54882D01*
X-66316Y-55691D01*
X-65897Y-56416D01*
X-65305Y-57008D01*
X-64580Y-57427D01*
X-63771Y-57644D01*
X-62933D01*
X-62124Y-57427D01*
X-61399Y-57008D01*
X-60807Y-56416D01*
X-60388Y-55691D01*
X-60171Y-54882D01*
Y-54044D01*
X-60388Y-53235D01*
X-60807Y-52510D01*
X-61399Y-51918D01*
X-62124Y-51499D01*
X-62933Y-51282D01*
D02*
G37*
G36*
X-70807D02*
X-71645D01*
X-72454Y-51499D01*
X-73179Y-51918D01*
X-73771Y-52510D01*
X-74190Y-53235D01*
X-74407Y-54044D01*
Y-54882D01*
X-74190Y-55691D01*
X-73771Y-56416D01*
X-73179Y-57008D01*
X-72454Y-57427D01*
X-71645Y-57644D01*
X-70807D01*
X-69998Y-57427D01*
X-69273Y-57008D01*
X-68681Y-56416D01*
X-68262Y-55691D01*
X-68045Y-54882D01*
Y-54044D01*
X-68262Y-53235D01*
X-68681Y-52510D01*
X-69273Y-51918D01*
X-69998Y-51499D01*
X-70807Y-51282D01*
D02*
G37*
G36*
X-78681D02*
X-79519D01*
X-80328Y-51499D01*
X-81053Y-51918D01*
X-81645Y-52510D01*
X-82064Y-53235D01*
X-82281Y-54044D01*
Y-54882D01*
X-82064Y-55691D01*
X-81645Y-56416D01*
X-81053Y-57008D01*
X-80328Y-57427D01*
X-79519Y-57644D01*
X-78681D01*
X-77872Y-57427D01*
X-77147Y-57008D01*
X-76555Y-56416D01*
X-76136Y-55691D01*
X-75919Y-54882D01*
Y-54044D01*
X-76136Y-53235D01*
X-76555Y-52510D01*
X-77147Y-51918D01*
X-77872Y-51499D01*
X-78681Y-51282D01*
D02*
G37*
G36*
X-40389Y-54431D02*
X-40411D01*
Y-57900D01*
X-36942D01*
Y-57877D01*
X-37213Y-56868D01*
X-37735Y-55963D01*
X-38474Y-55224D01*
X-39379Y-54702D01*
X-40389Y-54431D01*
D02*
G37*
G36*
X-41411D02*
X-41434D01*
X-42443Y-54702D01*
X-43348Y-55224D01*
X-44087Y-55963D01*
X-44609Y-56868D01*
X-44879Y-57877D01*
Y-57900D01*
X-41411D01*
Y-54431D01*
D02*
G37*
G36*
X-47500Y-59059D02*
Y-60500D01*
X-46059D01*
X-46318Y-59876D01*
X-46876Y-59318D01*
X-47500Y-59059D01*
D02*
G37*
G36*
X-48500D02*
X-49124Y-59318D01*
X-49682Y-59876D01*
X-49941Y-60500D01*
X-48500D01*
Y-59059D01*
D02*
G37*
G36*
X-36942Y-58900D02*
X-40411D01*
Y-62369D01*
X-40389D01*
X-39379Y-62098D01*
X-38474Y-61576D01*
X-37735Y-60837D01*
X-37213Y-59932D01*
X-36942Y-58922D01*
Y-58900D01*
D02*
G37*
G36*
X-41411D02*
X-44879D01*
Y-58922D01*
X-44609Y-59932D01*
X-44087Y-60837D01*
X-43348Y-61576D01*
X-42443Y-62098D01*
X-41434Y-62369D01*
X-41411D01*
Y-58900D01*
D02*
G37*
G36*
X-46059Y-61500D02*
X-47500D01*
Y-62941D01*
X-46876Y-62682D01*
X-46318Y-62124D01*
X-46059Y-61500D01*
D02*
G37*
G36*
X-48500D02*
X-49941D01*
X-49682Y-62124D01*
X-49124Y-62682D01*
X-48500Y-62941D01*
Y-61500D01*
D02*
G37*
G36*
X-62933Y-59156D02*
X-63771D01*
X-64580Y-59373D01*
X-65305Y-59792D01*
X-65897Y-60384D01*
X-66316Y-61109D01*
X-66533Y-61918D01*
Y-62756D01*
X-66316Y-63565D01*
X-65897Y-64290D01*
X-65305Y-64882D01*
X-64580Y-65301D01*
X-63771Y-65518D01*
X-62933D01*
X-62124Y-65301D01*
X-61399Y-64882D01*
X-60807Y-64290D01*
X-60388Y-63565D01*
X-60171Y-62756D01*
Y-61918D01*
X-60388Y-61109D01*
X-60807Y-60384D01*
X-61399Y-59792D01*
X-62124Y-59373D01*
X-62933Y-59156D01*
D02*
G37*
G36*
X-70807D02*
X-71645D01*
X-72454Y-59373D01*
X-73179Y-59792D01*
X-73771Y-60384D01*
X-74190Y-61109D01*
X-74407Y-61918D01*
Y-62756D01*
X-74190Y-63565D01*
X-73771Y-64290D01*
X-73179Y-64882D01*
X-72454Y-65301D01*
X-71645Y-65518D01*
X-70807D01*
X-69998Y-65301D01*
X-69273Y-64882D01*
X-68681Y-64290D01*
X-68262Y-63565D01*
X-68045Y-62756D01*
Y-61918D01*
X-68262Y-61109D01*
X-68681Y-60384D01*
X-69273Y-59792D01*
X-69998Y-59373D01*
X-70807Y-59156D01*
D02*
G37*
G36*
X-78681D02*
X-79519D01*
X-80328Y-59373D01*
X-81053Y-59792D01*
X-81645Y-60384D01*
X-82064Y-61109D01*
X-82281Y-61918D01*
Y-62756D01*
X-82064Y-63565D01*
X-81645Y-64290D01*
X-81053Y-64882D01*
X-80328Y-65301D01*
X-79519Y-65518D01*
X-78681D01*
X-77872Y-65301D01*
X-77147Y-64882D01*
X-76555Y-64290D01*
X-76136Y-63565D01*
X-75919Y-62756D01*
Y-61918D01*
X-76136Y-61109D01*
X-76555Y-60384D01*
X-77147Y-59792D01*
X-77872Y-59373D01*
X-78681Y-59156D01*
D02*
G37*
G36*
X79529Y-52202D02*
X78071D01*
X76642Y-52487D01*
X75296Y-53044D01*
X74084Y-53854D01*
X73054Y-54884D01*
X72244Y-56096D01*
X71687Y-57442D01*
X71402Y-58871D01*
Y-60329D01*
X71687Y-61758D01*
X72244Y-63104D01*
X73054Y-64316D01*
X74084Y-65346D01*
X75296Y-66156D01*
X76642Y-66713D01*
X78071Y-66998D01*
X79529D01*
X80958Y-66713D01*
X82304Y-66156D01*
X83516Y-65346D01*
X84546Y-64316D01*
X85356Y-63104D01*
X85913Y-61758D01*
X86198Y-60329D01*
Y-58871D01*
X85913Y-57442D01*
X85356Y-56096D01*
X84546Y-54884D01*
X83516Y-53854D01*
X82304Y-53044D01*
X80958Y-52487D01*
X79529Y-52202D01*
D02*
G37*
G36*
X-88578Y-59431D02*
X-89622D01*
X-90632Y-59702D01*
X-91537Y-60224D01*
X-92276Y-60963D01*
X-92798Y-61868D01*
X-93068Y-62878D01*
Y-63923D01*
X-92798Y-64932D01*
X-92276Y-65837D01*
X-91537Y-66576D01*
X-90632Y-67098D01*
X-89622Y-67369D01*
X-88578D01*
X-87568Y-67098D01*
X-86663Y-66576D01*
X-85924Y-65837D01*
X-85402Y-64932D01*
X-85132Y-63923D01*
Y-62878D01*
X-85402Y-61868D01*
X-85924Y-60963D01*
X-86663Y-60224D01*
X-87568Y-59702D01*
X-88578Y-59431D01*
D02*
G37*
G36*
X-40389Y-64432D02*
X-41434D01*
X-42443Y-64702D01*
X-43348Y-65224D01*
X-44087Y-65963D01*
X-44609Y-66868D01*
X-44879Y-67878D01*
Y-68923D01*
X-44609Y-69932D01*
X-44087Y-70837D01*
X-43348Y-71576D01*
X-42443Y-72098D01*
X-41434Y-72369D01*
X-40389D01*
X-39379Y-72098D01*
X-38474Y-71576D01*
X-37735Y-70837D01*
X-37213Y-69932D01*
X-36942Y-68923D01*
Y-67878D01*
X-37213Y-66868D01*
X-37735Y-65963D01*
X-38474Y-65224D01*
X-39379Y-64702D01*
X-40389Y-64432D01*
D02*
G37*
G36*
X-88578Y-69432D02*
X-89622D01*
X-90632Y-69702D01*
X-91537Y-70224D01*
X-92276Y-70963D01*
X-92798Y-71868D01*
X-93068Y-72878D01*
Y-73922D01*
X-92798Y-74932D01*
X-92276Y-75837D01*
X-91537Y-76576D01*
X-90632Y-77098D01*
X-89622Y-77368D01*
X-88578D01*
X-87568Y-77098D01*
X-86663Y-76576D01*
X-85924Y-75837D01*
X-85402Y-74932D01*
X-85132Y-73922D01*
Y-72878D01*
X-85402Y-71868D01*
X-85924Y-70963D01*
X-86663Y-70224D01*
X-87568Y-69702D01*
X-88578Y-69432D01*
D02*
G37*
G36*
X82500Y-79059D02*
Y-80500D01*
X83941D01*
X83682Y-79876D01*
X83124Y-79318D01*
X82500Y-79059D01*
D02*
G37*
G36*
X81500D02*
X80876Y-79318D01*
X80318Y-79876D01*
X80059Y-80500D01*
X81500D01*
Y-79059D01*
D02*
G37*
G36*
X-57500D02*
Y-80500D01*
X-56059D01*
X-56318Y-79876D01*
X-56876Y-79318D01*
X-57500Y-79059D01*
D02*
G37*
G36*
X-58500D02*
X-59124Y-79318D01*
X-59682Y-79876D01*
X-59941Y-80500D01*
X-58500D01*
Y-79059D01*
D02*
G37*
G36*
X-77500D02*
Y-80500D01*
X-76059D01*
X-76318Y-79876D01*
X-76876Y-79318D01*
X-77500Y-79059D01*
D02*
G37*
G36*
X-78500D02*
X-79124Y-79318D01*
X-79682Y-79876D01*
X-79941Y-80500D01*
X-78500D01*
Y-79059D01*
D02*
G37*
G36*
X-40389Y-74432D02*
X-41434D01*
X-42443Y-74702D01*
X-43348Y-75224D01*
X-44087Y-75963D01*
X-44609Y-76868D01*
X-44879Y-77877D01*
Y-78922D01*
X-44609Y-79932D01*
X-44087Y-80837D01*
X-43348Y-81576D01*
X-42443Y-82098D01*
X-41434Y-82368D01*
X-40389D01*
X-39379Y-82098D01*
X-38474Y-81576D01*
X-37735Y-80837D01*
X-37213Y-79932D01*
X-36942Y-78922D01*
Y-77877D01*
X-37213Y-76868D01*
X-37735Y-75963D01*
X-38474Y-75224D01*
X-39379Y-74702D01*
X-40389Y-74432D01*
D02*
G37*
G36*
X83941Y-81500D02*
X82500D01*
Y-82941D01*
X83124Y-82682D01*
X83682Y-82124D01*
X83941Y-81500D01*
D02*
G37*
G36*
X81500D02*
X80059D01*
X80318Y-82124D01*
X80876Y-82682D01*
X81500Y-82941D01*
Y-81500D01*
D02*
G37*
G36*
X-56059D02*
X-57500D01*
Y-82941D01*
X-56876Y-82682D01*
X-56318Y-82124D01*
X-56059Y-81500D01*
D02*
G37*
G36*
X-58500D02*
X-59941D01*
X-59682Y-82124D01*
X-59124Y-82682D01*
X-58500Y-82941D01*
Y-81500D01*
D02*
G37*
G36*
X-76059D02*
X-77500D01*
Y-82941D01*
X-76876Y-82682D01*
X-76318Y-82124D01*
X-76059Y-81500D01*
D02*
G37*
G36*
X-78500D02*
X-79941D01*
X-79682Y-82124D01*
X-79124Y-82682D01*
X-78500Y-82941D01*
Y-81500D01*
D02*
G37*
G36*
X-88578Y-79431D02*
X-89622D01*
X-90632Y-79702D01*
X-91537Y-80224D01*
X-92276Y-80963D01*
X-92798Y-81868D01*
X-93068Y-82877D01*
Y-83922D01*
X-92798Y-84932D01*
X-92276Y-85837D01*
X-91537Y-86576D01*
X-90632Y-87098D01*
X-89622Y-87369D01*
X-88578D01*
X-87568Y-87098D01*
X-86663Y-86576D01*
X-85924Y-85837D01*
X-85402Y-84932D01*
X-85132Y-83922D01*
Y-82877D01*
X-85402Y-81868D01*
X-85924Y-80963D01*
X-86663Y-80224D01*
X-87568Y-79702D01*
X-88578Y-79431D01*
D02*
G37*
G36*
X-40389Y-84431D02*
X-41434D01*
X-42443Y-84702D01*
X-43348Y-85224D01*
X-44087Y-85963D01*
X-44609Y-86868D01*
X-44879Y-87878D01*
Y-88923D01*
X-44609Y-89932D01*
X-44087Y-90837D01*
X-43348Y-91576D01*
X-42443Y-92098D01*
X-41434Y-92369D01*
X-40389D01*
X-39379Y-92098D01*
X-38474Y-91576D01*
X-37735Y-90837D01*
X-37213Y-89932D01*
X-36942Y-88923D01*
Y-87878D01*
X-37213Y-86868D01*
X-37735Y-85963D01*
X-38474Y-85224D01*
X-39379Y-84702D01*
X-40389Y-84431D01*
D02*
G37*
G36*
X12543Y-88457D02*
X8500D01*
Y-92500D01*
X12543D01*
Y-88457D01*
D02*
G37*
G36*
X7500D02*
X3457D01*
Y-92500D01*
X7500D01*
Y-88457D01*
D02*
G37*
G36*
X-87116Y-89432D02*
X-91084D01*
X-93068Y-91416D01*
Y-95384D01*
X-91084Y-97369D01*
X-87116D01*
X-85132Y-95384D01*
Y-91416D01*
X-87116Y-89432D01*
D02*
G37*
G36*
X12543Y-93500D02*
X8500D01*
Y-97543D01*
X12543D01*
Y-93500D01*
D02*
G37*
G36*
X7500D02*
X3457D01*
Y-97543D01*
X7500D01*
Y-93500D01*
D02*
G37*
G36*
X-47500Y-99059D02*
Y-100500D01*
X-46059D01*
X-46318Y-99876D01*
X-46876Y-99318D01*
X-47500Y-99059D01*
D02*
G37*
G36*
X-48500D02*
X-49124Y-99318D01*
X-49682Y-99876D01*
X-49941Y-100500D01*
X-48500D01*
Y-99059D01*
D02*
G37*
G36*
X-67500D02*
Y-100500D01*
X-66059D01*
X-66318Y-99876D01*
X-66876Y-99318D01*
X-67500Y-99059D01*
D02*
G37*
G36*
X-68500D02*
X-69124Y-99318D01*
X-69682Y-99876D01*
X-69941Y-100500D01*
X-68500D01*
Y-99059D01*
D02*
G37*
G36*
X-85132Y-99432D02*
X-88600D01*
Y-102900D01*
X-85132D01*
Y-99432D01*
D02*
G37*
G36*
X-89600D02*
X-93068D01*
Y-102900D01*
X-89600D01*
Y-99432D01*
D02*
G37*
G36*
X-46059Y-101500D02*
X-47500D01*
Y-102941D01*
X-46876Y-102682D01*
X-46318Y-102124D01*
X-46059Y-101500D01*
D02*
G37*
G36*
X-48500D02*
X-49941D01*
X-49682Y-102124D01*
X-49124Y-102682D01*
X-48500Y-102941D01*
Y-101500D01*
D02*
G37*
G36*
X-66059D02*
X-67500D01*
Y-102941D01*
X-66876Y-102682D01*
X-66318Y-102124D01*
X-66059Y-101500D01*
D02*
G37*
G36*
X-68500D02*
X-69941D01*
X-69682Y-102124D01*
X-69124Y-102682D01*
X-68500Y-102941D01*
Y-101500D01*
D02*
G37*
G36*
X-8776Y-104856D02*
X-10850D01*
Y-106242D01*
X-8776D01*
Y-104856D01*
D02*
G37*
G36*
X-78578Y-99432D02*
X-79623D01*
X-80632Y-99702D01*
X-81537Y-100224D01*
X-82276Y-100963D01*
X-82798Y-101868D01*
X-83069Y-102877D01*
Y-103922D01*
X-82798Y-104932D01*
X-82276Y-105837D01*
X-81537Y-106576D01*
X-80632Y-107098D01*
X-79623Y-107369D01*
X-78578D01*
X-77568Y-107098D01*
X-76663Y-106576D01*
X-75924Y-105837D01*
X-75402Y-104932D01*
X-75131Y-103922D01*
Y-102877D01*
X-75402Y-101868D01*
X-75924Y-100963D01*
X-76663Y-100224D01*
X-77568Y-99702D01*
X-78578Y-99432D01*
D02*
G37*
G36*
X-85132Y-103900D02*
X-88600D01*
Y-107369D01*
X-85132D01*
Y-103900D01*
D02*
G37*
G36*
X-89600D02*
X-93068D01*
Y-107369D01*
X-89600D01*
Y-103900D01*
D02*
G37*
G36*
X-54641Y-108526D02*
X-55686D01*
X-56695Y-108796D01*
X-57600Y-109318D01*
X-58339Y-110057D01*
X-58834Y-110915D01*
X-59100Y-110956D01*
X-59366Y-110915D01*
X-59861Y-110057D01*
X-60600Y-109318D01*
X-61505Y-108796D01*
X-62515Y-108526D01*
X-63560D01*
X-64569Y-108796D01*
X-65474Y-109318D01*
X-66213Y-110057D01*
X-66735Y-110962D01*
X-67005Y-111971D01*
Y-113016D01*
X-66735Y-114026D01*
X-66213Y-114931D01*
X-65474Y-115670D01*
X-64569Y-116192D01*
X-63560Y-116463D01*
X-62515D01*
X-61505Y-116192D01*
X-60600Y-115670D01*
X-59861Y-114931D01*
X-59366Y-114073D01*
X-59100Y-114032D01*
X-58834Y-114073D01*
X-58339Y-114931D01*
X-57600Y-115670D01*
X-56695Y-116192D01*
X-55686Y-116463D01*
X-54641D01*
X-53631Y-116192D01*
X-52726Y-115670D01*
X-51987Y-114931D01*
X-51465Y-114026D01*
X-51195Y-113016D01*
Y-111971D01*
X-51465Y-110962D01*
X-51987Y-110057D01*
X-52726Y-109318D01*
X-53631Y-108796D01*
X-54641Y-108526D01*
D02*
G37*
G36*
X79529Y-97202D02*
X78071D01*
X76642Y-97487D01*
X75296Y-98044D01*
X74084Y-98854D01*
X73054Y-99884D01*
X72244Y-101096D01*
X71687Y-102442D01*
X71402Y-103871D01*
Y-105329D01*
X71687Y-106758D01*
X72244Y-108104D01*
X73054Y-109316D01*
X74084Y-110346D01*
X75296Y-111156D01*
X76642Y-111713D01*
X78071Y-111998D01*
X79529D01*
X80958Y-111713D01*
X82304Y-111156D01*
X83516Y-110346D01*
X84546Y-109316D01*
X85356Y-108104D01*
X85913Y-106758D01*
X86198Y-105329D01*
Y-103871D01*
X85913Y-102442D01*
X85356Y-101096D01*
X84546Y-99884D01*
X83516Y-98854D01*
X82304Y-98044D01*
X80958Y-97487D01*
X79529Y-97202D01*
D02*
G37*
G36*
X-88534Y-109100D02*
X-89666D01*
X-90760Y-109393D01*
X-91740Y-109959D01*
X-92541Y-110760D01*
X-93107Y-111740D01*
X-93400Y-112834D01*
Y-113966D01*
X-93107Y-115060D01*
X-92541Y-116040D01*
X-91740Y-116841D01*
X-90760Y-117407D01*
X-89666Y-117700D01*
X-88534D01*
X-87440Y-117407D01*
X-86460Y-116841D01*
X-85659Y-116040D01*
X-85093Y-115060D01*
X-84800Y-113966D01*
Y-112834D01*
X-85093Y-111740D01*
X-85659Y-110760D01*
X-86460Y-109959D01*
X-87440Y-109393D01*
X-88534Y-109100D01*
D02*
G37*
G36*
X82500Y-119059D02*
Y-120500D01*
X83941D01*
X83682Y-119876D01*
X83124Y-119318D01*
X82500Y-119059D01*
D02*
G37*
G36*
X81500D02*
X80876Y-119318D01*
X80318Y-119876D01*
X80059Y-120500D01*
X81500D01*
Y-119059D01*
D02*
G37*
G36*
X-77500D02*
Y-120500D01*
X-76059D01*
X-76318Y-119876D01*
X-76876Y-119318D01*
X-77500Y-119059D01*
D02*
G37*
G36*
X-78500D02*
X-79124Y-119318D01*
X-79682Y-119876D01*
X-79941Y-120500D01*
X-78500D01*
Y-119059D01*
D02*
G37*
G36*
X83941Y-121500D02*
X82500D01*
Y-122941D01*
X83124Y-122682D01*
X83682Y-122124D01*
X83941Y-121500D01*
D02*
G37*
G36*
X81500D02*
X80059D01*
X80318Y-122124D01*
X80876Y-122682D01*
X81500Y-122941D01*
Y-121500D01*
D02*
G37*
G36*
X-76059D02*
X-77500D01*
Y-122941D01*
X-76876Y-122682D01*
X-76318Y-122124D01*
X-76059Y-121500D01*
D02*
G37*
G36*
X-78500D02*
X-79941D01*
X-79682Y-122124D01*
X-79124Y-122682D01*
X-78500Y-122941D01*
Y-121500D01*
D02*
G37*
G36*
X8598Y-118457D02*
X7402D01*
X6246Y-118766D01*
X5210Y-119365D01*
X4364Y-120210D01*
X3766Y-121246D01*
X3457Y-122402D01*
Y-123598D01*
X3766Y-124754D01*
X4364Y-125790D01*
X5210Y-126636D01*
X6246Y-127234D01*
X7402Y-127543D01*
X8598D01*
X9754Y-127234D01*
X10790Y-126636D01*
X11636Y-125790D01*
X12234Y-124754D01*
X12543Y-123598D01*
Y-122402D01*
X12234Y-121246D01*
X11636Y-120210D01*
X10790Y-119365D01*
X9754Y-118766D01*
X8598Y-118457D01*
D02*
G37*
G36*
X83853Y-133658D02*
X83500D01*
Y-144000D01*
X93843D01*
Y-143647D01*
X93576Y-141961D01*
X93048Y-140338D01*
X92273Y-138817D01*
X91270Y-137437D01*
X90063Y-136230D01*
X88683Y-135227D01*
X87162Y-134452D01*
X85539Y-133924D01*
X83853Y-133658D01*
D02*
G37*
G36*
X82500D02*
X82147D01*
X80461Y-133924D01*
X78838Y-134452D01*
X77317Y-135227D01*
X75937Y-136230D01*
X74730Y-137437D01*
X73727Y-138817D01*
X72952Y-140338D01*
X72425Y-141961D01*
X72158Y-143647D01*
Y-144000D01*
X82500D01*
Y-133658D01*
D02*
G37*
G36*
X-82147Y-134658D02*
X-82500D01*
Y-145000D01*
X-72158D01*
Y-144647D01*
X-72425Y-142961D01*
X-72952Y-141338D01*
X-73727Y-139817D01*
X-74730Y-138437D01*
X-75937Y-137230D01*
X-77317Y-136227D01*
X-78838Y-135452D01*
X-80461Y-134924D01*
X-82147Y-134658D01*
D02*
G37*
G36*
X-83500D02*
X-83853D01*
X-85539Y-134924D01*
X-87162Y-135452D01*
X-88683Y-136227D01*
X-90063Y-137230D01*
X-91270Y-138437D01*
X-92273Y-139817D01*
X-93048Y-141338D01*
X-93576Y-142961D01*
X-93843Y-144647D01*
Y-145000D01*
X-83500D01*
Y-134658D01*
D02*
G37*
G36*
X93843Y-145000D02*
X83500D01*
Y-155342D01*
X83853D01*
X85539Y-155076D01*
X87162Y-154548D01*
X88683Y-153773D01*
X90063Y-152770D01*
X91270Y-151563D01*
X92273Y-150183D01*
X93048Y-148662D01*
X93576Y-147039D01*
X93843Y-145353D01*
Y-145000D01*
D02*
G37*
G36*
X82500D02*
X72158D01*
Y-145353D01*
X72425Y-147039D01*
X72952Y-148662D01*
X73727Y-150183D01*
X74730Y-151563D01*
X75937Y-152770D01*
X77317Y-153773D01*
X78838Y-154548D01*
X80461Y-155076D01*
X82147Y-155342D01*
X82500D01*
Y-145000D01*
D02*
G37*
G36*
X-72158Y-146000D02*
X-82500D01*
Y-156342D01*
X-82147D01*
X-80461Y-156076D01*
X-78838Y-155548D01*
X-77317Y-154773D01*
X-75937Y-153770D01*
X-74730Y-152563D01*
X-73727Y-151183D01*
X-72952Y-149662D01*
X-72425Y-148039D01*
X-72158Y-146353D01*
Y-146000D01*
D02*
G37*
G36*
X-83500D02*
X-93843D01*
Y-146353D01*
X-93576Y-148039D01*
X-93048Y-149662D01*
X-92273Y-151183D01*
X-91270Y-152563D01*
X-90063Y-153770D01*
X-88683Y-154773D01*
X-87162Y-155548D01*
X-85539Y-156076D01*
X-83853Y-156342D01*
X-83500D01*
Y-146000D01*
D02*
G37*
G36*
X11067Y77904D02*
X8204D01*
Y73861D01*
X11067D01*
Y77904D01*
D02*
G37*
G36*
X7204D02*
X4342D01*
Y73861D01*
X7204D01*
Y77904D01*
D02*
G37*
G36*
X11067Y62227D02*
X8204D01*
Y58184D01*
X11067D01*
Y62227D01*
D02*
G37*
G36*
X7204D02*
X4342D01*
Y58184D01*
X7204D01*
Y62227D01*
D02*
G37*
G36*
X-2507Y41834D02*
X-3131Y41576D01*
X-3689Y41017D01*
X-3947Y40393D01*
X-2507D01*
Y41834D01*
D02*
G37*
G36*
X2500Y40941D02*
Y39500D01*
X3941D01*
X3682Y40124D01*
X3124Y40682D01*
X2500Y40941D01*
D02*
G37*
G36*
X-2507Y39393D02*
X-3947D01*
X-3689Y38769D01*
X-3131Y38211D01*
X-2507Y37953D01*
Y39393D01*
D02*
G37*
G36*
X3941Y38500D02*
X2500D01*
Y37059D01*
X3124Y37318D01*
X3682Y37876D01*
X3941Y38500D01*
D02*
G37*
G36*
X-1507Y41834D02*
Y39893D01*
Y37953D01*
X-883Y38211D01*
X-484Y38610D01*
X-315Y38608D01*
X62Y38495D01*
X318Y37876D01*
X876Y37318D01*
X1500Y37059D01*
Y39000D01*
Y40941D01*
X876Y40682D01*
X478Y40284D01*
X309Y40285D01*
X-68Y40399D01*
X-325Y41017D01*
X-883Y41576D01*
X-1507Y41834D01*
D02*
G37*
%LPD*%
D14*
X-55000Y113900D02*
X-34100Y93000D01*
X-55000Y113900D02*
Y144500D01*
X-34100Y31600D02*
Y93000D01*
Y31600D02*
X-29100Y26600D01*
X-45900Y136200D02*
Y144400D01*
X-46000Y144500D02*
X-45900Y144400D01*
Y136200D02*
X-45800Y136100D01*
X-7200Y81726D02*
X8622Y97548D01*
X0Y83800D02*
X7701D01*
X-7200Y31900D02*
Y81726D01*
X7701Y83800D02*
X7901Y83600D01*
X11300Y-142487D02*
X20416Y-133371D01*
X22150Y38750D02*
X26560D01*
X22362Y42500D02*
X23562Y43700D01*
X22311Y34040D02*
X26560D01*
X12162Y29238D02*
X18616Y22784D01*
X39824Y-18600D02*
X39974Y-18450D01*
X56410Y-8372D02*
X56595Y-8187D01*
X39824Y-8600D02*
X40051Y-8372D01*
X56410D01*
X18616Y-132626D02*
Y22784D01*
X20416Y-133371D02*
Y28854D01*
X56650Y-64550D02*
X56700Y-64500D01*
X56450Y1250D02*
X56600Y1100D01*
X39824Y1400D02*
X39974Y1250D01*
X56515Y-74385D02*
X56700Y-74200D01*
X56754Y-84418D02*
X56936Y-84236D01*
X39824Y-84600D02*
X40005Y-84418D01*
X39824Y-74600D02*
X40038Y-74385D01*
X40005Y-84418D02*
X56754D01*
X40038Y-74385D02*
X56515D01*
X-14546Y-142487D02*
X11300D01*
X-37200Y-119833D02*
X-14546Y-142487D01*
X5100Y-140687D02*
X10554D01*
X-11521Y-124066D02*
X5100Y-140687D01*
X-8423Y-116577D02*
X8000Y-133000D01*
X56489Y-94463D02*
X56626Y-94326D01*
X39961Y-94463D02*
X56489D01*
X-15997Y-114005D02*
X-15536D01*
Y-118377D02*
X-14775Y-117615D01*
X-24632Y-113508D02*
X-19763Y-118377D01*
X-22831Y-112159D02*
X-19185Y-115805D01*
X-16961Y-113041D02*
X-15997Y-114005D01*
X-11350Y-116191D02*
X-10965Y-116577D01*
X-11350Y-113041D02*
X-11330Y-113021D01*
X-34900Y-119587D02*
Y-111142D01*
X-37200Y-119833D02*
Y-101500D01*
X39824Y-94600D02*
X39961Y-94463D01*
X-24632Y-113508D02*
Y-91549D01*
X-22831Y-112159D02*
Y-90803D01*
X-11350Y-109892D02*
X-5600D01*
X-11330Y-113021D02*
X7979D01*
X-5600Y-109892D02*
X1292Y-103000D01*
X8000D01*
X7979Y-113021D02*
X8000Y-113000D01*
X-32690Y-108932D02*
X-32644D01*
X-34900Y-111142D02*
X-32690Y-108932D01*
X-32644D02*
X-30045Y-106332D01*
X-37200Y-101500D02*
X-29100Y-93400D01*
X-19763Y-118377D02*
X-15536D01*
X-19185Y-115805D02*
X-18035D01*
X-17650Y-113041D02*
X-16961D01*
X-18035Y-115805D02*
X-17650Y-116191D01*
X-14775Y-117615D02*
Y-114767D01*
X-15536Y-114005D02*
X-14775Y-114767D01*
X-10965Y-116577D02*
X-8423D01*
X-30045Y-104345D02*
X-29100Y-103400D01*
X-19185Y-109506D02*
X-18035D01*
X-17650Y-109892D01*
X-21032Y-107659D02*
X-19185Y-109506D01*
X-30045Y-106332D02*
Y-104345D01*
X-26503Y-12455D02*
X-18339Y-4291D01*
X-28155Y-12455D02*
X-26503D01*
X-29100Y-3400D02*
X-24500D01*
X-19478Y1623D01*
X-18035D01*
X-29100Y-73400D02*
X-23959Y-78541D01*
X-28312Y-87868D02*
Y-84188D01*
X-23959Y-89676D02*
X-22831Y-90803D01*
X-23959Y-89676D02*
Y-78541D01*
X-29100Y-63400D02*
X-21032Y-71469D01*
X-28312Y-87868D02*
X-24632Y-91549D01*
X-29100Y-83400D02*
X-28312Y-84188D01*
X-29100Y-13400D02*
X-28155Y-12455D01*
X-19763Y-59277D02*
X-19302D01*
X-29100Y-43400D02*
X-23959Y-48541D01*
X-22159Y-50582D02*
Y-40341D01*
Y-50582D02*
X-19763Y-52978D01*
X-29100Y-53400D02*
X-20073Y-62427D01*
X-23959Y-55081D02*
Y-48541D01*
Y-55081D02*
X-19763Y-59277D01*
X-29100Y-33400D02*
X-22159Y-40341D01*
X-19763Y-52978D02*
X-19302D01*
Y-59277D02*
X-18339Y-60241D01*
X-19302Y-52978D02*
X-18339Y-53942D01*
X-11350Y-4291D02*
X-8809D01*
X-17650Y-1141D02*
X-14811D01*
X-14225Y-1727D01*
Y-8525D02*
Y-1727D01*
X-11350Y-1141D02*
X-11330Y-1121D01*
X-29100Y-23400D02*
X-14225Y-8525D01*
X-18339Y-4291D02*
X-17650D01*
X-18035Y1623D02*
X-17650Y2008D01*
X1292Y8900D02*
X8000D01*
X-11330Y-1121D02*
X7979D01*
X8000Y-1100D01*
X-11350Y2008D02*
X-5600D01*
X1292Y8900D01*
X-8809Y-4291D02*
X8000Y-21100D01*
X-10965Y-60627D02*
X-8423D01*
X-18339Y-53942D02*
X-17650D01*
X-15997Y-58055D02*
X-15536D01*
X-11350Y-60241D02*
X-10965Y-60627D01*
X-11350Y-57091D02*
X-11330Y-57071D01*
X-15536Y-62427D02*
X-14775Y-61665D01*
Y-58817D01*
X-15536Y-58055D02*
X-14775Y-58817D01*
X-20073Y-62427D02*
X-15536D01*
X14178Y84578D02*
Y97548D01*
X8622D02*
X14178D01*
X7979Y-57071D02*
X8000Y-57050D01*
X-5600Y-53942D02*
X1292Y-47050D01*
X-8423Y-60627D02*
X8000Y-77050D01*
X-11330Y-57071D02*
X7979D01*
X1292Y-47050D02*
X8000D01*
X-11350Y-53942D02*
X-5600D01*
X-34900Y-119587D02*
X-30421Y-124066D01*
X-11521D01*
X2900Y51500D02*
X8389D01*
X-7200Y31900D02*
X-4538Y29238D01*
X14500Y38312D02*
Y50837D01*
X8389Y51500D02*
X8589Y51700D01*
X-4538Y29238D02*
X12162D01*
X-21032Y-107659D02*
Y-71469D01*
X-18339Y-60241D02*
X-17650D01*
Y-57091D02*
X-16961D01*
X-15997Y-58055D01*
X39874Y-64550D02*
X56650D01*
X39824Y-64600D02*
X39874Y-64550D01*
X22185Y90871D02*
X27556Y85500D01*
X19515Y83403D02*
X19712Y83600D01*
X22185Y90871D02*
Y92615D01*
X39237Y91496D02*
X40233Y90500D01*
X26335Y91496D02*
X39237D01*
X27556Y85500D02*
X40233D01*
X22184Y98000D02*
X24760Y95424D01*
X19515Y73361D02*
Y83403D01*
X22000Y92800D02*
X22185Y92615D01*
X24760Y93071D02*
Y95424D01*
Y93071D02*
X26335Y91496D01*
X26560Y39696D02*
X40233Y38700D01*
X26560Y34015D02*
Y34696D01*
X40233Y33700D01*
X26560Y38750D02*
Y39696D01*
X20400Y51700D02*
Y61843D01*
X19515Y62727D02*
X20400Y61843D01*
X56750Y-18450D02*
X56900Y-18300D01*
X39974Y-18450D02*
X56750D01*
X39974Y1250D02*
X56450D01*
X21643Y105014D02*
Y105184D01*
X22000Y98000D02*
X22184D01*
X22100Y38800D02*
X22150Y38750D01*
X14500Y38312D02*
X22174Y30638D01*
X22100Y42500D02*
X22362D01*
X22174Y30638D02*
X22200D01*
X20416Y28854D02*
X22200Y30638D01*
X22126Y34226D02*
X22311Y34040D01*
X39824Y-28600D02*
X39874Y-28550D01*
X23562Y43700D02*
X40233D01*
X56650Y-28550D02*
X56700Y-28500D01*
X39874Y-28550D02*
X56650D01*
X10554Y-140687D02*
X18616Y-132626D01*
X14178Y97548D02*
X21643Y105014D01*
D17*
X-64000Y144500D02*
D03*
X-46000D02*
D03*
X-55000D02*
D03*
D18*
X39824Y1400D02*
D03*
Y-3600D02*
D03*
Y-8600D02*
D03*
Y-13600D02*
D03*
Y-18600D02*
D03*
Y-23600D02*
D03*
Y-28600D02*
D03*
Y-33600D02*
D03*
Y-64600D02*
D03*
Y-69600D02*
D03*
Y-74600D02*
D03*
Y-79600D02*
D03*
Y-84600D02*
D03*
Y-89600D02*
D03*
Y-94600D02*
D03*
Y-99600D02*
D03*
D19*
X40233Y100500D02*
D03*
Y95500D02*
D03*
Y90500D02*
D03*
Y85500D02*
D03*
Y48700D02*
D03*
Y43700D02*
D03*
Y38700D02*
D03*
Y33700D02*
D03*
D20*
X8589Y51700D02*
D03*
X20400D02*
D03*
X7901Y83600D02*
D03*
X19712D02*
D03*
D21*
X7704Y62727D02*
D03*
X19515D02*
D03*
X7704Y73361D02*
D03*
X19515D02*
D03*
D22*
X-17650Y-60241D02*
D03*
Y-57091D02*
D03*
Y-53942D02*
D03*
Y-50792D02*
D03*
X-11350D02*
D03*
Y-53942D02*
D03*
Y-57091D02*
D03*
Y-60241D02*
D03*
X-17650Y-116191D02*
D03*
Y-113041D02*
D03*
Y-109892D02*
D03*
Y-106742D02*
D03*
X-11350D02*
D03*
Y-109892D02*
D03*
Y-113041D02*
D03*
Y-116191D02*
D03*
X-17650Y-4291D02*
D03*
Y-1141D02*
D03*
Y2008D02*
D03*
Y5158D02*
D03*
X-11350D02*
D03*
Y2008D02*
D03*
Y-1141D02*
D03*
Y-4291D02*
D03*
D46*
X61600Y104600D02*
Y128826D01*
X47059Y149841D02*
X67100Y129800D01*
Y4600D02*
Y129800D01*
X38126Y152300D02*
X61600Y128826D01*
X47059Y149841D02*
Y150668D01*
X62300Y-200D02*
X67100Y4600D01*
X61600Y56300D02*
Y104600D01*
X40233Y100500D02*
X57500D01*
X54000Y48700D02*
X61600Y56300D01*
X57500Y100500D02*
X61600Y104600D01*
X40233Y48700D02*
X54000D01*
X46000Y151727D02*
Y152300D01*
Y151727D02*
X47059Y150668D01*
X15700Y-59350D02*
Y-18800D01*
X8000Y-11100D02*
X15700Y-18800D01*
X8000Y-67050D02*
X15700Y-59350D01*
X62300Y-10200D02*
Y-200D01*
Y-19800D02*
Y-10200D01*
X57500Y-69600D02*
X62300Y-64800D01*
X39824Y-79600D02*
X58000D01*
X62300Y-85400D02*
Y-75300D01*
Y-96200D02*
Y-85400D01*
Y-75300D02*
Y-64800D01*
X58100Y-89600D02*
X62300Y-85400D01*
X58900Y-99600D02*
X62300Y-96200D01*
X58000Y-79600D02*
X62300Y-75300D01*
X39824Y-99600D02*
X58900D01*
X39824Y-89600D02*
X58100D01*
X39824Y-69600D02*
X57500D01*
X62300Y-64800D02*
Y-29700D01*
X58404Y-33596D02*
X62300Y-29700D01*
X39827Y-33596D02*
X58404D01*
X39824Y-13600D02*
X58900D01*
Y-3600D02*
X62300Y-200D01*
X39824Y-3600D02*
X58900D01*
X39824Y-33600D02*
X39827Y-33596D01*
X58900Y-13600D02*
X62300Y-10200D01*
Y-29700D02*
Y-19800D01*
X39824Y-23600D02*
X58500D01*
X62300Y-19800D01*
D47*
X-2400Y68000D02*
X37400D01*
D48*
X-29100Y-113400D02*
D03*
X-59100Y66600D02*
D03*
X-89100Y26600D02*
D03*
D49*
Y-103400D02*
D03*
D50*
Y-113400D02*
D03*
D51*
Y-93400D02*
D03*
X-49100Y66600D02*
D03*
X-29100Y26600D02*
D03*
D52*
X-39100Y66600D02*
D03*
X-69100D02*
D03*
X-79100D02*
D03*
X-89100Y16600D02*
D03*
X-29100D02*
D03*
Y-103400D02*
D03*
Y-93400D02*
D03*
Y-83400D02*
D03*
Y-73400D02*
D03*
Y-63400D02*
D03*
Y-53400D02*
D03*
Y-43400D02*
D03*
Y-33400D02*
D03*
Y-23400D02*
D03*
Y-13400D02*
D03*
Y-3400D02*
D03*
Y6600D02*
D03*
X-79100Y-103400D02*
D03*
X-89100Y6600D02*
D03*
Y-3400D02*
D03*
Y-13400D02*
D03*
Y-23400D02*
D03*
Y-33400D02*
D03*
Y-43400D02*
D03*
Y-53400D02*
D03*
Y-63400D02*
D03*
Y-73400D02*
D03*
Y-83400D02*
D03*
X-29100Y46600D02*
D03*
Y56600D02*
D03*
Y66600D02*
D03*
Y76600D02*
D03*
Y86600D02*
D03*
Y96600D02*
D03*
Y106600D02*
D03*
Y116600D02*
D03*
X-89100Y36600D02*
D03*
Y46600D02*
D03*
Y56600D02*
D03*
Y66600D02*
D03*
Y76600D02*
D03*
Y86600D02*
D03*
Y96600D02*
D03*
Y106600D02*
D03*
Y116600D02*
D03*
X-40911Y-88400D02*
D03*
Y-78400D02*
D03*
Y-68400D02*
D03*
Y-58400D02*
D03*
Y-48400D02*
D03*
X-29100Y36600D02*
D03*
X-63037Y-112494D02*
D03*
X-55163D02*
D03*
D53*
X-79100Y-62337D02*
D03*
X-71226D02*
D03*
X-63352D02*
D03*
X-79100Y-54463D02*
D03*
X-71226D02*
D03*
X-63352D02*
D03*
D54*
X53800Y152400D02*
D03*
D55*
X62068D02*
D03*
X29784D02*
D03*
D56*
X38052D02*
D03*
X45926D02*
D03*
D57*
X8000Y-133000D02*
D03*
Y-103000D02*
D03*
Y-113000D02*
D03*
Y-123000D02*
D03*
Y-77050D02*
D03*
Y-47050D02*
D03*
Y-57050D02*
D03*
Y-67050D02*
D03*
Y-11100D02*
D03*
Y-1100D02*
D03*
Y8900D02*
D03*
Y-21100D02*
D03*
D58*
Y-93000D02*
D03*
Y-37050D02*
D03*
Y18900D02*
D03*
D59*
X-47300Y35400D02*
D03*
X-38800Y21400D02*
D03*
X-53316Y6184D02*
D03*
X82000Y119000D02*
D03*
X72000Y99000D02*
D03*
X82000Y39000D02*
D03*
X72000Y19000D02*
D03*
Y-21000D02*
D03*
X82000Y-81000D02*
D03*
Y-121000D02*
D03*
X62000Y39000D02*
D03*
X52000Y19000D02*
D03*
X32000D02*
D03*
X22000Y119000D02*
D03*
X2000Y39000D02*
D03*
X-8000Y19000D02*
D03*
X2000Y-41000D02*
D03*
X-38000Y119000D02*
D03*
X-48000Y99000D02*
D03*
X-38000Y79000D02*
D03*
Y-1000D02*
D03*
Y-41000D02*
D03*
X-48000Y-61000D02*
D03*
Y-101000D02*
D03*
X-58000Y119000D02*
D03*
X-68000Y99000D02*
D03*
X-58000Y79000D02*
D03*
X-68000Y-21000D02*
D03*
X-58000Y-41000D02*
D03*
Y-81000D02*
D03*
X-68000Y-101000D02*
D03*
X-78000Y119000D02*
D03*
Y79000D02*
D03*
Y-41000D02*
D03*
Y-81000D02*
D03*
Y-121000D02*
D03*
X-45800Y136100D02*
D03*
X0Y83800D02*
D03*
X-2400Y68000D02*
D03*
X23700Y-51100D02*
D03*
X27400Y-41600D02*
D03*
X48900Y-51500D02*
D03*
X26100Y79900D02*
D03*
X14500Y50837D02*
D03*
X22000Y98000D02*
D03*
Y92800D02*
D03*
X22100Y38800D02*
D03*
Y42500D02*
D03*
X22200Y30638D02*
D03*
X22126Y34226D02*
D03*
X56700Y-64500D02*
D03*
Y-74200D02*
D03*
X56936Y-84236D02*
D03*
X56900Y-18300D02*
D03*
X56626Y-94326D02*
D03*
X56700Y-28500D02*
D03*
X56600Y1100D02*
D03*
X14178Y84578D02*
D03*
X21643Y105184D02*
D03*
X23038Y-16194D02*
D03*
X22900Y1300D02*
D03*
X56595Y-8187D02*
D03*
X50100Y-41700D02*
D03*
X-2007Y39893D02*
D03*
X-1919Y19053D02*
D03*
X2900Y51500D02*
D03*
D60*
X67100Y84100D02*
D03*
X37400Y68000D02*
D03*
D61*
X83000Y144500D02*
D03*
Y-144500D02*
D03*
X-83000Y144500D02*
D03*
Y-145500D02*
D03*
M02*
