G04*
G04 #@! TF.GenerationSoftware,Altium Limited,Altium Designer,24.3.1 (35)*
G04*
G04 Layer_Color=65535*
%FSLAX44Y44*%
%MOMM*%
G71*
G04*
G04 #@! TF.SameCoordinates,D61E4413-AD1B-46AA-9FCE-7A96C032C263*
G04*
G04*
G04 #@! TF.FilePolarity,Positive*
G04*
G01*
G75*
%ADD10C,0.1000*%
%ADD11C,0.2500*%
%ADD12C,0.2000*%
%ADD13C,0.2032*%
%ADD14C,0.1016*%
%ADD15C,0.2540*%
%ADD16R,0.2000X1.5000*%
D10*
X-20830Y-295125D02*
G03*
X-19830Y-295125I500J0D01*
G01*
D02*
G03*
X-20830Y-295125I-500J0D01*
G01*
X175652Y387096D02*
G03*
X176652Y387096I500J0D01*
G01*
D02*
G03*
X175652Y387096I-500J0D01*
G01*
X-19830Y-153012D02*
G03*
X-20830Y-153012I-500J0D01*
G01*
D02*
G03*
X-19830Y-153012I500J0D01*
G01*
Y-10899D02*
G03*
X-20830Y-10899I-500J0D01*
G01*
D02*
G03*
X-19830Y-10899I500J0D01*
G01*
D11*
X21590Y-217000D02*
G03*
X21590Y-217000I-1270J0D01*
G01*
Y-74887D02*
G03*
X21590Y-74887I-1270J0D01*
G01*
Y67226D02*
G03*
X21590Y67226I-1270J0D01*
G01*
D12*
X159652Y404596D02*
Y409596D01*
X73652D02*
X159652D01*
X73652Y404596D02*
Y409596D01*
X159652Y364596D02*
Y369596D01*
X73652Y364596D02*
X159652D01*
X73652D02*
Y369596D01*
X-11480Y-350520D02*
X45720D01*
Y-223520D01*
X-11480D02*
X45720D01*
X-11480Y-350520D02*
Y-223520D01*
Y-208407D02*
X45720D01*
Y-81407D01*
X-11480D02*
X45720D01*
X-11480Y-208407D02*
Y-81407D01*
Y-66294D02*
Y60706D01*
X45720D01*
Y-66294D02*
Y60706D01*
X-11480Y-66294D02*
X45720D01*
X34569Y152327D02*
Y166327D01*
X34569Y179335D02*
Y193336D01*
D13*
X93978Y359915D02*
X90593D01*
X88900Y358222D01*
Y351451D01*
X90593Y349758D01*
X93978D01*
X95671Y351451D01*
Y358222D01*
X93978Y359915D01*
X99057Y349758D02*
Y359915D01*
X105828Y349758D01*
Y359915D01*
X109213Y349758D02*
X115985Y356529D01*
X124448Y359915D02*
X121063D01*
X119370Y358222D01*
Y351451D01*
X121063Y349758D01*
X124448D01*
X126141Y351451D01*
Y358222D01*
X124448Y359915D01*
X136298D02*
X129527D01*
Y354836D01*
X132913D01*
X129527D01*
Y349758D01*
X146455Y359915D02*
X139684D01*
Y354836D01*
X143069D01*
X139684D01*
Y349758D01*
X52070Y389212D02*
X50377Y390904D01*
X46992D01*
X45299Y389212D01*
Y387519D01*
X46992Y385826D01*
X50377D01*
X52070Y384133D01*
Y382440D01*
X50377Y380748D01*
X46992D01*
X45299Y382440D01*
X55456Y380748D02*
X58841D01*
X57148D01*
Y390904D01*
X55456Y389212D01*
X-17522Y153672D02*
Y163828D01*
X-12443D01*
X-10751Y162136D01*
Y158750D01*
X-12443Y157057D01*
X-17522D01*
X-14136D02*
X-10751Y153672D01*
X-7365D02*
X-3980D01*
X-5672D01*
Y163828D01*
X-7365Y162136D01*
X1099Y153672D02*
X4484D01*
X2792D01*
Y163828D01*
X1099Y162136D01*
X-17522Y181104D02*
Y191260D01*
X-12443D01*
X-10751Y189568D01*
Y186182D01*
X-12443Y184489D01*
X-17522D01*
X-14136D02*
X-10751Y181104D01*
X-7365D02*
X-3980D01*
X-5672D01*
Y191260D01*
X-7365Y189568D01*
X1099D02*
X2792Y191260D01*
X6177D01*
X7870Y189568D01*
Y182796D01*
X6177Y181104D01*
X2792D01*
X1099Y182796D01*
Y189568D01*
X-33102Y-350518D02*
Y-340362D01*
X-28024D01*
X-26331Y-342054D01*
Y-345440D01*
X-28024Y-347133D01*
X-33102D01*
X-22945Y-342054D02*
X-21252Y-340362D01*
X-17867D01*
X-16174Y-342054D01*
Y-343747D01*
X-17867Y-345440D01*
X-19560D01*
X-17867D01*
X-16174Y-347133D01*
Y-348826D01*
X-17867Y-350518D01*
X-21252D01*
X-22945Y-348826D01*
X-33102Y-208278D02*
Y-198122D01*
X-28024D01*
X-26331Y-199814D01*
Y-203200D01*
X-28024Y-204893D01*
X-33102D01*
X-16174Y-208278D02*
X-22945D01*
X-16174Y-201507D01*
Y-199814D01*
X-17867Y-198122D01*
X-21252D01*
X-22945Y-199814D01*
X-29631Y-66292D02*
Y-56136D01*
X-24553D01*
X-22860Y-57828D01*
Y-61214D01*
X-24553Y-62907D01*
X-29631D01*
X-19474Y-66292D02*
X-16089D01*
X-17782D01*
Y-56136D01*
X-19474Y-57828D01*
X-50626Y-113578D02*
Y-103421D01*
X-45548D01*
X-43855Y-105114D01*
Y-108500D01*
X-45548Y-110193D01*
X-50626D01*
X-47241D02*
X-43855Y-113578D01*
X-40470D02*
Y-103421D01*
X-33698Y-113578D01*
Y-103421D01*
X-30313Y-105114D02*
X-28620Y-103421D01*
X-25234D01*
X-23542Y-105114D01*
Y-106807D01*
X-25234Y-108500D01*
X-26927D01*
X-25234D01*
X-23542Y-110193D01*
Y-111885D01*
X-25234Y-113578D01*
X-28620D01*
X-30313Y-111885D01*
X-49864Y-255437D02*
Y-245280D01*
X-44786D01*
X-43093Y-246973D01*
Y-250359D01*
X-44786Y-252052D01*
X-49864D01*
X-46479D02*
X-43093Y-255437D01*
X-39708D02*
Y-245280D01*
X-32936Y-255437D01*
Y-245280D01*
X-22780D02*
X-29551D01*
Y-250359D01*
X-26165Y-248666D01*
X-24472D01*
X-22780Y-250359D01*
Y-253744D01*
X-24472Y-255437D01*
X-27858D01*
X-29551Y-253744D01*
X-48554Y28599D02*
Y38756D01*
X-43475D01*
X-41782Y37063D01*
Y33677D01*
X-43475Y31984D01*
X-48554D01*
X-45168D02*
X-41782Y28599D01*
X-38397D02*
Y38756D01*
X-31626Y28599D01*
Y38756D01*
X-28240Y28599D02*
X-24855D01*
X-26547D01*
Y38756D01*
X-28240Y37063D01*
X-17522Y137666D02*
Y127510D01*
X-12443D01*
X-10751Y129202D01*
Y135974D01*
X-12443Y137666D01*
X-17522D01*
X-594Y127510D02*
X-7365D01*
X-594Y134281D01*
Y135974D01*
X-2287Y137666D01*
X-5672D01*
X-7365Y135974D01*
X-17522Y217168D02*
Y207012D01*
X-12443D01*
X-10751Y208704D01*
Y215476D01*
X-12443Y217168D01*
X-17522D01*
X-7365Y207012D02*
X-3980D01*
X-5672D01*
Y217168D01*
X-7365Y215476D01*
D14*
X-117475Y356107D02*
X-120014D01*
Y354202D01*
X-118744Y354837D01*
X-118110D01*
X-117475Y354202D01*
Y352933D01*
X-118110Y352298D01*
X-119379D01*
X-120014Y352933D01*
X-116205Y356107D02*
Y353568D01*
X-114936Y352298D01*
X-113666Y353568D01*
Y356107D01*
X-144778Y355472D02*
X-144144Y356107D01*
X-142874D01*
X-142239Y355472D01*
Y354837D01*
X-142874Y354202D01*
X-143509D01*
X-142874D01*
X-142239Y353568D01*
Y352933D01*
X-142874Y352298D01*
X-144144D01*
X-144778Y352933D01*
X-140970Y356107D02*
Y353568D01*
X-139700Y352298D01*
X-138430Y353568D01*
Y356107D01*
X-137161Y355472D02*
X-136526Y356107D01*
X-135256D01*
X-134622Y355472D01*
Y354837D01*
X-135256Y354202D01*
X-135891D01*
X-135256D01*
X-134622Y353568D01*
Y352933D01*
X-135256Y352298D01*
X-136526D01*
X-137161Y352933D01*
X-165099Y355472D02*
X-165734Y356107D01*
X-167004D01*
X-167638Y355472D01*
Y352933D01*
X-167004Y352298D01*
X-165734D01*
X-165099Y352933D01*
Y354202D01*
X-166369D01*
X-163830Y352298D02*
Y356107D01*
X-161290Y352298D01*
Y356107D01*
X-160021D02*
Y352298D01*
X-158116D01*
X-157482Y352933D01*
Y355472D01*
X-158116Y356107D01*
X-160021D01*
D15*
X22352Y118105D02*
X32509D01*
X27430D01*
Y102870D01*
X37587Y118105D02*
X47744Y102870D01*
Y118105D02*
X37587Y102870D01*
X22352Y225044D02*
Y240279D01*
X29969D01*
X32509Y237740D01*
Y232661D01*
X29969Y230122D01*
X22352D01*
X27430D02*
X32509Y225044D01*
X37587Y240279D02*
X47744Y225044D01*
Y240279D02*
X37587Y225044D01*
X-160271Y332738D02*
Y320042D01*
X-157732Y317502D01*
X-152653D01*
X-150114Y320042D01*
Y332738D01*
X-145036Y317502D02*
X-139957D01*
X-142496D01*
Y332738D01*
X-145036Y330198D01*
X76963Y-138687D02*
X71884D01*
X74424D01*
Y-151382D01*
X71884Y-153921D01*
X69345D01*
X66806Y-151382D01*
X89659Y-153921D02*
Y-138687D01*
X82041Y-146304D01*
X92198D01*
X75693Y30224D02*
X70615D01*
X73154D01*
Y17528D01*
X70615Y14988D01*
X68075D01*
X65536Y17528D01*
X80771Y27684D02*
X83310Y30224D01*
X88389D01*
X90928Y27684D01*
Y25145D01*
X88389Y22606D01*
X85850D01*
X88389D01*
X90928Y20067D01*
Y17528D01*
X88389Y14988D01*
X83310D01*
X80771Y17528D01*
X78003Y149095D02*
X72924D01*
X75464D01*
Y136400D01*
X72924Y133861D01*
X70385D01*
X67846Y136400D01*
X93238Y133861D02*
X83081D01*
X93238Y144017D01*
Y146556D01*
X90699Y149095D01*
X85620D01*
X83081Y146556D01*
X76732Y280667D02*
X71654D01*
X74193D01*
Y267972D01*
X71654Y265432D01*
X69114D01*
X66575Y267972D01*
X81810Y265432D02*
X86889D01*
X84350D01*
Y280667D01*
X81810Y278128D01*
D16*
X61813Y131323D02*
D03*
X60066Y212353D02*
D03*
M02*
