G04*
G04 #@! TF.GenerationSoftware,Altium Limited,Altium Designer,24.3.1 (35)*
G04*
G04 Layer_Physical_Order=2*
G04 Layer_Color=16711680*
%FSLAX44Y44*%
%MOMM*%
G71*
G04*
G04 #@! TF.SameCoordinates,D61E4413-AD1B-46AA-9FCE-7A96C032C263*
G04*
G04*
G04 #@! TF.FilePolarity,Positive*
G04*
G01*
G75*
%ADD15C,0.2540*%
%ADD46C,0.7620*%
%ADD47C,0.3810*%
%ADD48R,1.5080X1.5080*%
%ADD49R,1.5080X1.5080*%
%ADD50C,1.6764*%
G04:AMPARAMS|DCode=51|XSize=1.508mm|YSize=1.508mm|CornerRadius=0mm|HoleSize=0mm|Usage=FLASHONLY|Rotation=180.000|XOffset=0mm|YOffset=0mm|HoleType=Round|Shape=Octagon|*
%AMOCTAGOND51*
4,1,8,-0.7540,0.3770,-0.7540,-0.3770,-0.3770,-0.7540,0.3770,-0.7540,0.7540,-0.3770,0.7540,0.3770,0.3770,0.7540,-0.3770,0.7540,-0.7540,0.3770,0.0*
%
%ADD51OCTAGOND51*%

%ADD52C,1.5080*%
%ADD53C,1.1080*%
%ADD54R,1.3000X1.3000*%
%ADD55C,2.4900*%
%ADD56C,1.3000*%
%ADD57C,1.8000*%
%ADD58R,1.8000X1.8000*%
%ADD59C,0.5000*%
%ADD60C,1.2700*%
%ADD61C,6.0000*%
%ADD62R,1.0000X1.5000*%
%ADD63R,1.8582X1.5055*%
%ADD64R,1.8000X1.0000*%
%ADD65R,0.2500X0.9560*%
%ADD66R,1.0560X0.2500*%
%ADD67R,1.8000X1.1500*%
%ADD68R,1.9800X0.5300*%
%ADD69R,1.7582X1.3055*%
%ADD70R,0.8500X0.7000*%
%ADD71R,1.7000X0.9500*%
%ADD72R,0.6500X1.5250*%
%ADD73R,1.2500X0.6000*%
%ADD74R,1.8500X0.9000*%
%ADD75R,1.8500X3.2000*%
%ADD76R,1.7000X0.9500*%
%ADD77R,1.6098X0.9561*%
%ADD78R,0.9000X0.4000*%
%ADD79R,0.9500X1.7000*%
G36*
X202898Y398671D02*
X198329Y397186D01*
X193765Y394861D01*
X189622Y391850D01*
X186000Y388228D01*
X182989Y384085D01*
X180664Y379521D01*
X179081Y374650D01*
X178280Y369591D01*
Y368300D01*
X210820D01*
Y367030D01*
X212090D01*
Y334490D01*
X213381D01*
X218440Y335291D01*
X223311Y336874D01*
X227875Y339199D01*
X232018Y342210D01*
X235640Y345832D01*
X238651Y349975D01*
X239921Y352468D01*
X241191Y352163D01*
Y-352163D01*
X239921Y-352468D01*
X238651Y-349975D01*
X235640Y-345832D01*
X232018Y-342210D01*
X227875Y-339199D01*
X223311Y-336874D01*
X218440Y-335291D01*
X213381Y-334490D01*
X212090D01*
Y-367030D01*
X210820D01*
Y-368300D01*
X178280D01*
Y-369591D01*
X179081Y-374650D01*
X180664Y-379521D01*
X182989Y-384085D01*
X186000Y-388228D01*
X189622Y-391850D01*
X193765Y-394861D01*
X198329Y-397186D01*
X202898Y-398671D01*
X202697Y-399941D01*
X-195953D01*
X-196258Y-398671D01*
X-193765Y-397401D01*
X-189622Y-394390D01*
X-186000Y-390768D01*
X-182989Y-386625D01*
X-180664Y-382061D01*
X-179081Y-377190D01*
X-178280Y-372131D01*
Y-370840D01*
X-210820D01*
Y-369570D01*
X-212090D01*
Y-337030D01*
X-213381D01*
X-218440Y-337831D01*
X-223311Y-339414D01*
X-227875Y-341739D01*
X-232018Y-344750D01*
X-235640Y-348372D01*
X-238651Y-352515D01*
X-239921Y-355008D01*
X-241191Y-354703D01*
Y-67901D01*
X-239921Y-67375D01*
X-233762Y-73533D01*
X-232502Y-74375D01*
X-231307Y-74613D01*
X-231034Y-75437D01*
X-231045Y-75928D01*
X-232503Y-76770D01*
X-234380Y-78647D01*
X-235707Y-80945D01*
X-236394Y-83509D01*
Y-86163D01*
X-235707Y-88727D01*
X-234380Y-91025D01*
X-232503Y-92902D01*
X-230205Y-94229D01*
X-227641Y-94916D01*
X-224987D01*
X-222423Y-94229D01*
X-220125Y-92902D01*
X-218248Y-91025D01*
X-216921Y-88727D01*
X-216234Y-86163D01*
Y-83509D01*
X-216921Y-80945D01*
X-218248Y-78647D01*
X-220125Y-76770D01*
X-221561Y-75941D01*
X-221221Y-74671D01*
X-208490D01*
X-207003Y-74375D01*
X-205743Y-73533D01*
X-168519Y-36308D01*
X-167304Y-36890D01*
Y-49969D01*
X-167981Y-50275D01*
X-168574Y-50358D01*
X-169865Y-49067D01*
X-171450Y-48411D01*
Y-53340D01*
Y-58269D01*
X-169865Y-57613D01*
X-168574Y-56322D01*
X-168496Y-56333D01*
X-167304Y-56522D01*
Y-56522D01*
X-152224D01*
Y-50332D01*
X-150913Y-50071D01*
X-149653Y-49229D01*
X-137822Y-37398D01*
X-136980Y-36137D01*
X-136788Y-35170D01*
X-131649D01*
Y-36442D01*
X-135304D01*
Y-56522D01*
X-120224D01*
Y-36442D01*
X-123879D01*
Y-35170D01*
X-122726D01*
Y-13580D01*
Y-2107D01*
X-113538D01*
X-112051Y-1811D01*
X-110791Y-969D01*
X-87169Y22653D01*
X-86327Y23913D01*
X-86031Y25400D01*
Y49953D01*
X-78500Y57484D01*
X-68874D01*
X-67622Y58736D01*
X-66449Y58250D01*
Y50613D01*
X-67622Y50127D01*
X-67725Y50230D01*
X-70023Y51557D01*
X-72587Y52244D01*
X-75241D01*
X-77805Y51557D01*
X-80103Y50230D01*
X-81980Y48353D01*
X-83307Y46055D01*
X-83994Y43491D01*
Y40837D01*
X-83307Y38273D01*
X-81980Y35975D01*
X-80103Y34098D01*
X-77805Y32771D01*
X-75241Y32084D01*
X-72587D01*
X-70023Y32771D01*
X-67725Y34098D01*
X-67622Y34201D01*
X-66449Y33715D01*
Y25213D01*
X-67622Y24727D01*
X-67725Y24830D01*
X-70023Y26157D01*
X-72587Y26844D01*
X-75241D01*
X-77805Y26157D01*
X-80103Y24830D01*
X-81980Y22953D01*
X-83307Y20655D01*
X-83994Y18091D01*
Y15437D01*
X-83307Y12873D01*
X-81980Y10575D01*
X-80103Y8698D01*
X-77805Y7371D01*
X-75241Y6684D01*
X-72587D01*
X-70023Y7371D01*
X-67725Y8698D01*
X-66586Y9837D01*
X-65379Y10195D01*
X-64911Y9815D01*
X-29121Y-25975D01*
X-29607Y-27148D01*
X-36124D01*
Y-30418D01*
X-29084D01*
Y-32958D01*
X-36124D01*
Y-32975D01*
X-37394Y-33656D01*
X-38044Y-33242D01*
Y-32958D01*
X-45084D01*
Y-31688D01*
X-46354D01*
Y-27148D01*
X-52124D01*
Y-31541D01*
X-53297Y-32027D01*
X-67630Y-17695D01*
Y-16607D01*
X-65848Y-14825D01*
X-64521Y-12527D01*
X-63834Y-9963D01*
Y-7309D01*
X-64521Y-4745D01*
X-65848Y-2447D01*
X-67725Y-570D01*
X-70023Y757D01*
X-72587Y1444D01*
X-75241D01*
X-77805Y757D01*
X-80103Y-570D01*
X-81980Y-2447D01*
X-83307Y-4745D01*
X-83994Y-7309D01*
Y-9963D01*
X-83307Y-12527D01*
X-81980Y-14825D01*
X-80103Y-16702D01*
X-77805Y-18029D01*
X-75399Y-18674D01*
Y-19304D01*
X-75104Y-20791D01*
X-74261Y-22051D01*
X-73626Y-22686D01*
X-74152Y-23956D01*
X-75241D01*
X-77805Y-24643D01*
X-80103Y-25970D01*
X-81980Y-27847D01*
X-83307Y-30145D01*
X-83994Y-32709D01*
Y-35363D01*
X-83307Y-37927D01*
X-83304Y-37932D01*
X-88011Y-42639D01*
X-88853Y-43899D01*
X-89149Y-45386D01*
Y-64137D01*
X-88853Y-65624D01*
X-88011Y-66884D01*
X-81362Y-73533D01*
X-80102Y-74375D01*
X-78907Y-74613D01*
X-78634Y-75437D01*
X-78645Y-75928D01*
X-80103Y-76770D01*
X-81980Y-78647D01*
X-83307Y-80945D01*
X-83994Y-83509D01*
Y-86163D01*
X-83307Y-88727D01*
X-81980Y-91025D01*
X-80103Y-92902D01*
X-77805Y-94229D01*
X-75241Y-94916D01*
X-72587D01*
X-70023Y-94229D01*
X-70018Y-94226D01*
X-64991Y-99253D01*
Y-103108D01*
X-66261Y-103634D01*
X-67725Y-102170D01*
X-70023Y-100843D01*
X-72587Y-100156D01*
X-75241D01*
X-77805Y-100843D01*
X-80103Y-102170D01*
X-81980Y-104047D01*
X-83307Y-106345D01*
X-83994Y-108909D01*
Y-111563D01*
X-83307Y-114127D01*
X-83304Y-114132D01*
X-88011Y-118839D01*
X-88853Y-120099D01*
X-89149Y-121586D01*
Y-140337D01*
X-88853Y-141824D01*
X-88011Y-143084D01*
X-81362Y-149733D01*
X-80102Y-150575D01*
X-78907Y-150813D01*
X-78634Y-151637D01*
X-78645Y-152128D01*
X-80103Y-152970D01*
X-81980Y-154847D01*
X-83307Y-157145D01*
X-83994Y-159709D01*
Y-162363D01*
X-83307Y-164927D01*
X-81980Y-167225D01*
X-80103Y-169102D01*
X-77805Y-170429D01*
X-75241Y-171116D01*
X-72587D01*
X-70023Y-170429D01*
X-70018Y-170426D01*
X-65118Y-175326D01*
Y-179181D01*
X-66388Y-179707D01*
X-67725Y-178370D01*
X-70023Y-177043D01*
X-72587Y-176356D01*
X-75241D01*
X-77805Y-177043D01*
X-80103Y-178370D01*
X-81980Y-180247D01*
X-83307Y-182545D01*
X-83994Y-185109D01*
Y-187763D01*
X-83307Y-190327D01*
X-83304Y-190332D01*
X-88011Y-195039D01*
X-88853Y-196299D01*
X-89149Y-197786D01*
Y-216537D01*
X-88853Y-218024D01*
X-88011Y-219284D01*
X-79587Y-227708D01*
X-79752Y-228967D01*
X-80103Y-229170D01*
X-81980Y-231047D01*
X-83307Y-233345D01*
X-83994Y-235909D01*
Y-238563D01*
X-83307Y-241127D01*
X-81980Y-243425D01*
X-80103Y-245302D01*
X-77805Y-246629D01*
X-75241Y-247316D01*
X-72587D01*
X-70023Y-246629D01*
X-67725Y-245302D01*
X-65848Y-243425D01*
X-64521Y-241127D01*
X-63834Y-238563D01*
Y-238418D01*
X-62661Y-237932D01*
X-61310Y-239283D01*
X-60049Y-240125D01*
X-58563Y-240421D01*
X-53211D01*
X-53193Y-240513D01*
X-52631Y-241353D01*
X-51791Y-241915D01*
X-50800Y-242112D01*
X-36830D01*
X-35839Y-241915D01*
X-34999Y-241353D01*
X-34813Y-241076D01*
X-30354D01*
Y-236536D01*
X-29084D01*
Y-235266D01*
X-22044D01*
Y-233076D01*
Y-229806D01*
X-29084D01*
Y-227266D01*
X-22044D01*
Y-225076D01*
Y-221806D01*
X-29084D01*
Y-219266D01*
X-22044D01*
Y-217076D01*
Y-213806D01*
X-29084D01*
Y-212536D01*
X-30354D01*
Y-207996D01*
X-36124D01*
Y-212539D01*
X-37197Y-213461D01*
X-38044Y-213346D01*
Y-207996D01*
X-43814D01*
Y-212536D01*
X-46354D01*
Y-207996D01*
X-52124D01*
Y-212874D01*
X-53394Y-213400D01*
X-57348Y-209446D01*
Y-173717D01*
X-57644Y-172230D01*
X-58486Y-170970D01*
X-64524Y-164932D01*
X-64521Y-164927D01*
X-63834Y-162363D01*
Y-159709D01*
X-64191Y-158379D01*
X-63216Y-157109D01*
X-53465D01*
X-53447Y-157201D01*
X-52885Y-158041D01*
X-52045Y-158603D01*
X-51054Y-158800D01*
X-39116D01*
X-38125Y-158603D01*
X-37285Y-158041D01*
X-37281Y-158036D01*
X-36124Y-157764D01*
X-35688Y-157764D01*
X-30354D01*
Y-153224D01*
X-29084D01*
Y-151954D01*
X-22044D01*
Y-149764D01*
Y-146494D01*
X-29084D01*
Y-143954D01*
X-22044D01*
Y-141764D01*
Y-138494D01*
X-29084D01*
Y-135954D01*
X-22044D01*
Y-133764D01*
Y-130494D01*
X-29084D01*
X-36124D01*
Y-130851D01*
X-37394Y-131468D01*
X-38044Y-130976D01*
Y-130494D01*
X-45084D01*
X-52124D01*
Y-131518D01*
X-52885Y-132027D01*
X-53447Y-132867D01*
X-53541Y-133339D01*
X-56749D01*
X-57221Y-132867D01*
Y-97644D01*
X-57517Y-96157D01*
X-58359Y-94897D01*
X-64524Y-88732D01*
X-64521Y-88727D01*
X-63834Y-86163D01*
Y-83509D01*
X-64521Y-80945D01*
X-65848Y-78647D01*
X-67725Y-76770D01*
X-69161Y-75941D01*
X-68821Y-74671D01*
X-62428D01*
X-60941Y-74375D01*
X-59681Y-73533D01*
X-47412Y-61264D01*
X-38862D01*
X-37871Y-61067D01*
X-37225Y-60635D01*
X-36573Y-60394D01*
X-35890Y-60228D01*
X-30354Y-60228D01*
Y-55688D01*
X-27814D01*
Y-60228D01*
X-22044D01*
Y-55897D01*
X-20871Y-55410D01*
X6586Y-82867D01*
X7846Y-83709D01*
X8780Y-83895D01*
Y-92837D01*
X20320D01*
X31860D01*
Y-89412D01*
X33033Y-88926D01*
X45979Y-101872D01*
Y-128456D01*
X46275Y-129942D01*
X47117Y-131202D01*
X74672Y-158757D01*
X75932Y-159599D01*
X77418Y-159895D01*
X92654D01*
X94141Y-159599D01*
X95401Y-158757D01*
X98474Y-155684D01*
X98491Y-155674D01*
X99014Y-155605D01*
X100085Y-155869D01*
X100108Y-155903D01*
X100121Y-155911D01*
X100129Y-155924D01*
X100542Y-156193D01*
X100948Y-156465D01*
X100963Y-156468D01*
X100976Y-156476D01*
X101458Y-156566D01*
X101940Y-156662D01*
X101954Y-156659D01*
X101969Y-156662D01*
X105248Y-156624D01*
X106151Y-157517D01*
Y-172735D01*
X106447Y-174222D01*
X107289Y-175482D01*
X127511Y-195704D01*
Y-227153D01*
X127806Y-228640D01*
X128648Y-229900D01*
X138789Y-240041D01*
Y-240590D01*
X139557Y-242442D01*
X140974Y-243860D01*
X142827Y-244627D01*
X144832D01*
X146684Y-243860D01*
X148102Y-242442D01*
X148869Y-240590D01*
Y-238585D01*
X148102Y-236732D01*
X146684Y-235315D01*
X144832Y-234547D01*
X144283D01*
X135280Y-225544D01*
Y-195807D01*
X136453Y-195321D01*
X140733Y-199601D01*
Y-210717D01*
X140345Y-211105D01*
X139578Y-212958D01*
Y-214963D01*
X140345Y-216815D01*
X141763Y-218233D01*
X143616Y-219000D01*
X145621D01*
X147473Y-218233D01*
X148891Y-216815D01*
X149658Y-214963D01*
Y-212958D01*
X148891Y-211105D01*
X148503Y-210717D01*
Y-197992D01*
X148207Y-196505D01*
X147365Y-195245D01*
X146258Y-194138D01*
X146506Y-192893D01*
X146873Y-192741D01*
X148291Y-191323D01*
X149058Y-189471D01*
Y-187465D01*
X148291Y-185613D01*
X146873Y-184195D01*
X145021Y-183428D01*
X144472D01*
X139013Y-177969D01*
Y-167748D01*
X140283Y-167222D01*
X141163Y-168103D01*
X143015Y-168870D01*
X145021D01*
X146873Y-168103D01*
X148291Y-166685D01*
X149058Y-164832D01*
Y-162827D01*
X148291Y-160975D01*
X147903Y-160587D01*
Y-107252D01*
X147607Y-105765D01*
X146765Y-104505D01*
X120400Y-78140D01*
X119140Y-77298D01*
X117654Y-77003D01*
X102418D01*
X100932Y-77298D01*
X99671Y-78140D01*
X98924Y-78888D01*
X98551Y-78515D01*
X97711Y-77953D01*
X96720Y-77756D01*
X77470D01*
X76479Y-77953D01*
X75639Y-78515D01*
X75077Y-79355D01*
X74880Y-80346D01*
Y-92805D01*
X67297D01*
X38149Y-63657D01*
X36889Y-62815D01*
X35403Y-62519D01*
X29374D01*
X28888Y-61346D01*
X29554Y-60680D01*
X31074Y-58048D01*
X31860Y-55113D01*
Y-52075D01*
X31074Y-49140D01*
X29554Y-46508D01*
X27406Y-44360D01*
X24774Y-42840D01*
X21839Y-42054D01*
X18801D01*
X15866Y-42840D01*
X13234Y-44360D01*
X11086Y-46508D01*
X9567Y-49140D01*
X8780Y-52075D01*
Y-53017D01*
X7607Y-53503D01*
X-3681Y-42215D01*
Y-22639D01*
X-3977Y-21152D01*
X-4819Y-19892D01*
X-44963Y20252D01*
Y68959D01*
X-43790Y69445D01*
X-33574Y59229D01*
X-32314Y58387D01*
X-30827Y58091D01*
X8780D01*
Y49276D01*
X20320D01*
Y48006D01*
X21590D01*
Y36466D01*
X30032D01*
Y31010D01*
X28762Y30484D01*
X27406Y31840D01*
X24774Y33359D01*
X21839Y34146D01*
X18801D01*
X15866Y33359D01*
X13234Y31840D01*
X11086Y29692D01*
X9567Y27060D01*
X8780Y24125D01*
Y21087D01*
X9567Y18152D01*
X11086Y15520D01*
X13234Y13372D01*
X15866Y11853D01*
X18801Y11066D01*
X21839D01*
X24774Y11853D01*
X27406Y13372D01*
X28762Y14728D01*
X30032Y14202D01*
Y5610D01*
X28762Y5084D01*
X27406Y6440D01*
X24774Y7959D01*
X21839Y8746D01*
X18801D01*
X15866Y7959D01*
X13234Y6440D01*
X11086Y4292D01*
X9567Y1660D01*
X8780Y-1275D01*
Y-4313D01*
X9567Y-7248D01*
X11086Y-9880D01*
X13234Y-12028D01*
X15866Y-13548D01*
X18801Y-14334D01*
X21839D01*
X24774Y-13548D01*
X27406Y-12028D01*
X28762Y-10672D01*
X30032Y-11198D01*
Y-19790D01*
X28762Y-20316D01*
X27406Y-18960D01*
X24774Y-17441D01*
X21839Y-16654D01*
X18801D01*
X15866Y-17441D01*
X13234Y-18960D01*
X11086Y-21108D01*
X9567Y-23740D01*
X8780Y-26675D01*
Y-29713D01*
X9567Y-32648D01*
X11086Y-35280D01*
X13234Y-37428D01*
X15866Y-38948D01*
X18801Y-39734D01*
X21839D01*
X24774Y-38948D01*
X27406Y-37428D01*
X29554Y-35280D01*
X31074Y-32648D01*
X31651Y-30495D01*
X33067Y-30115D01*
X74672Y-71720D01*
X75932Y-72562D01*
X77418Y-72857D01*
X92654D01*
X94141Y-72562D01*
X95401Y-71720D01*
X97881Y-69239D01*
X99129Y-69185D01*
X99277Y-69200D01*
X99690Y-69469D01*
X100097Y-69741D01*
X100111Y-69743D01*
X100124Y-69752D01*
X100606Y-69842D01*
X101088Y-69938D01*
X101102Y-69935D01*
X101117Y-69938D01*
X117499Y-69752D01*
X117979Y-69651D01*
X118461Y-69555D01*
X118474Y-69546D01*
X118488Y-69543D01*
X118893Y-69266D01*
X119301Y-68993D01*
X119310Y-68981D01*
X119322Y-68972D01*
X119590Y-68561D01*
X119863Y-68153D01*
X119866Y-68138D01*
X119874Y-68126D01*
X119964Y-67644D01*
X120060Y-67162D01*
Y-66555D01*
X132690D01*
X138978Y-72844D01*
Y-73393D01*
X139745Y-75245D01*
X141163Y-76663D01*
X143015Y-77430D01*
X145021D01*
X146873Y-76663D01*
X148291Y-75245D01*
X149058Y-73393D01*
Y-71388D01*
X148291Y-69535D01*
X146873Y-68117D01*
X145021Y-67350D01*
X144472D01*
X137046Y-59924D01*
X135785Y-59082D01*
X134299Y-58786D01*
X120060D01*
Y-49162D01*
X119863Y-48171D01*
X119301Y-47331D01*
X119051Y-47081D01*
X118826Y-46930D01*
Y-44941D01*
X110036D01*
Y-42401D01*
X118826D01*
Y-41253D01*
X133804D01*
X139486Y-46936D01*
Y-47484D01*
X140253Y-49337D01*
X141671Y-50755D01*
X143524Y-51522D01*
X145528D01*
X147381Y-50755D01*
X148799Y-49337D01*
X149566Y-47484D01*
Y-45479D01*
X148799Y-43627D01*
X147381Y-42209D01*
X145528Y-41442D01*
X144980D01*
X138159Y-34622D01*
X136899Y-33780D01*
X135413Y-33484D01*
X102418D01*
X100932Y-33780D01*
X99671Y-34622D01*
X98882Y-35411D01*
X98551Y-35081D01*
X97711Y-34519D01*
X96720Y-34322D01*
X77470D01*
X76479Y-34519D01*
X75639Y-35081D01*
X75077Y-35921D01*
X74880Y-36912D01*
Y-40281D01*
X73707Y-40767D01*
X42374Y-9434D01*
Y2438D01*
X43547Y2924D01*
X74672Y-28201D01*
X75932Y-29043D01*
X77418Y-29339D01*
X92654D01*
X94141Y-29043D01*
X95401Y-28201D01*
X97792Y-25810D01*
X97903Y-25775D01*
X98663Y-25815D01*
X99364Y-26034D01*
X99510Y-26253D01*
X99523Y-26261D01*
X99531Y-26274D01*
X99944Y-26543D01*
X100351Y-26815D01*
X100365Y-26818D01*
X100378Y-26826D01*
X100860Y-26916D01*
X101342Y-27012D01*
X101356Y-27009D01*
X101371Y-27011D01*
X117753Y-26826D01*
X118233Y-26725D01*
X118715Y-26629D01*
X118728Y-26620D01*
X118742Y-26617D01*
X119147Y-26340D01*
X119555Y-26067D01*
X119564Y-26055D01*
X119576Y-26046D01*
X119844Y-25635D01*
X120117Y-25227D01*
X120119Y-25212D01*
X120128Y-25200D01*
X120218Y-24718D01*
X120314Y-24236D01*
Y-23037D01*
X139226D01*
X139480Y-23650D01*
X140897Y-25067D01*
X142750Y-25835D01*
X144755D01*
X146607Y-25067D01*
X148025Y-23650D01*
X148792Y-21797D01*
Y-19792D01*
X148025Y-17940D01*
X146607Y-16522D01*
X144755Y-15755D01*
X143883D01*
X143596Y-15563D01*
X142110Y-15267D01*
X120314D01*
Y-6236D01*
X120117Y-5245D01*
X119555Y-4405D01*
X119305Y-4155D01*
X118826Y-3835D01*
Y-1422D01*
X110036D01*
Y1118D01*
X118826D01*
Y2265D01*
X138133D01*
X138807Y1592D01*
X139491Y-61D01*
X140909Y-1479D01*
X142761Y-2246D01*
X144767D01*
X146619Y-1479D01*
X148037Y-61D01*
X148804Y1792D01*
Y3796D01*
X148037Y5649D01*
X146619Y7067D01*
X144767Y7834D01*
X143552D01*
X142489Y8897D01*
X141229Y9739D01*
X139742Y10035D01*
X94588D01*
X93102Y9739D01*
X91841Y8897D01*
X91548Y8604D01*
X77724D01*
X76733Y8407D01*
X75893Y7845D01*
X75331Y7005D01*
X75134Y6014D01*
Y2983D01*
X73961Y2497D01*
X52252Y24207D01*
Y60057D01*
X53425Y60543D01*
X81773Y32195D01*
X83034Y31353D01*
X84520Y31057D01*
X89806D01*
Y22172D01*
X112886D01*
Y26577D01*
X114444D01*
Y22172D01*
X137524D01*
Y38752D01*
X114444D01*
Y34347D01*
X112886D01*
Y38752D01*
X97241D01*
X96866Y38827D01*
X86129D01*
X82868Y42088D01*
X83166Y43586D01*
X84135Y43987D01*
X85553Y45405D01*
X86209Y46990D01*
X81280D01*
Y48260D01*
X80010D01*
Y53189D01*
X78425Y52533D01*
X77007Y51115D01*
X76606Y50146D01*
X75108Y49848D01*
X44947Y80009D01*
X45433Y81182D01*
X50963D01*
X51799Y79912D01*
X51348Y78823D01*
Y76818D01*
X52115Y74965D01*
X53533Y73548D01*
X55385Y72780D01*
X57390D01*
X59243Y73548D01*
X60661Y74965D01*
X61428Y76818D01*
Y77367D01*
X63591Y79529D01*
X64764Y79043D01*
Y74820D01*
X75934D01*
Y80010D01*
X78474D01*
Y74820D01*
X87887D01*
X88596Y74111D01*
Y72644D01*
X88793Y71653D01*
X89355Y70813D01*
X90195Y70251D01*
X91186Y70054D01*
X106778D01*
X107402Y68784D01*
X106991Y68252D01*
X89806D01*
Y51672D01*
X112886D01*
Y61928D01*
X113174Y62122D01*
X114444Y61448D01*
Y51672D01*
X126705D01*
X127512Y50402D01*
X127151Y49530D01*
X137009D01*
X136648Y50402D01*
X137455Y51672D01*
X137524D01*
Y61851D01*
X147025Y71352D01*
X147867Y72612D01*
X148162Y74099D01*
Y92156D01*
X147867Y93642D01*
X147025Y94903D01*
X141020Y100908D01*
Y122936D01*
X140823Y123927D01*
X140261Y124767D01*
X139421Y125329D01*
X138430Y125526D01*
X98373D01*
Y141178D01*
X135674D01*
X136665Y141375D01*
X137478Y141918D01*
X137786D01*
Y142357D01*
X137871Y142483D01*
X155301D01*
Y137983D01*
X160658D01*
Y104574D01*
X159388Y103725D01*
X158750Y103989D01*
Y99060D01*
Y94131D01*
X159388Y94395D01*
X160658Y93546D01*
Y-243298D01*
X98741Y-305215D01*
X29435D01*
X27406Y-303186D01*
X24774Y-301667D01*
X21839Y-300880D01*
X18801D01*
X18119Y-301063D01*
X16247Y-299190D01*
X16904Y-298052D01*
X18801Y-298560D01*
X21839D01*
X24774Y-297773D01*
X27406Y-296254D01*
X29554Y-294106D01*
X31074Y-291474D01*
X31860Y-288539D01*
Y-285501D01*
X31074Y-282566D01*
X29554Y-279934D01*
X27406Y-277786D01*
X24774Y-276266D01*
X21839Y-275480D01*
X18801D01*
X15866Y-276266D01*
X13234Y-277786D01*
X12618Y-278402D01*
X11444Y-277916D01*
Y-270724D01*
X12618Y-270238D01*
X13234Y-270854D01*
X15866Y-272374D01*
X18801Y-273160D01*
X21839D01*
X24774Y-272374D01*
X27406Y-270854D01*
X29554Y-268706D01*
X31074Y-266074D01*
X31860Y-263139D01*
Y-260101D01*
X31074Y-257166D01*
X29554Y-254534D01*
X27406Y-252386D01*
X24774Y-250867D01*
X21839Y-250080D01*
X18801D01*
X15866Y-250867D01*
X13234Y-252386D01*
X12618Y-253002D01*
X11444Y-252516D01*
Y-247760D01*
X19050D01*
Y-236220D01*
Y-224680D01*
X11444D01*
Y-204811D01*
X12618Y-204325D01*
X13234Y-204941D01*
X15866Y-206460D01*
X18801Y-207247D01*
X21839D01*
X24774Y-206460D01*
X27406Y-204941D01*
X29554Y-202793D01*
X31074Y-200161D01*
X31860Y-197226D01*
Y-194188D01*
X31074Y-191253D01*
X29554Y-188621D01*
X27406Y-186473D01*
X24774Y-184953D01*
X21839Y-184167D01*
X18801D01*
X16904Y-184675D01*
X16247Y-183537D01*
X18119Y-181664D01*
X18801Y-181847D01*
X21839D01*
X24774Y-181061D01*
X27406Y-179541D01*
X29554Y-177393D01*
X31074Y-174761D01*
X31860Y-171826D01*
Y-168788D01*
X31074Y-165853D01*
X29554Y-163221D01*
X27406Y-161073D01*
X24774Y-159553D01*
X21839Y-158767D01*
X18801D01*
X15866Y-159553D01*
X13234Y-161073D01*
X11086Y-163221D01*
X9567Y-165853D01*
X8780Y-168788D01*
Y-171826D01*
X8963Y-172508D01*
X392Y-181079D01*
X-1012Y-183179D01*
X-1504Y-185657D01*
Y-297070D01*
X-1012Y-299548D01*
X392Y-301648D01*
X3516Y-304772D01*
X3030Y-305946D01*
X-176134D01*
X-198622Y-283458D01*
X-200722Y-282054D01*
X-203200Y-281562D01*
X-217440D01*
X-217574Y-281330D01*
X-219608Y-279296D01*
X-222098Y-277858D01*
X-224876Y-277114D01*
X-227752D01*
X-230530Y-277858D01*
X-233020Y-279296D01*
X-235054Y-281330D01*
X-236492Y-283820D01*
X-237236Y-286598D01*
Y-289474D01*
X-236492Y-292252D01*
X-235054Y-294742D01*
X-233020Y-296776D01*
X-230530Y-298214D01*
X-227752Y-298958D01*
X-224876D01*
X-222098Y-298214D01*
X-219608Y-296776D01*
X-217574Y-294742D01*
X-217440Y-294510D01*
X-205882D01*
X-183394Y-316998D01*
X-181294Y-318402D01*
X-178816Y-318894D01*
X10733D01*
X11086Y-319506D01*
X13234Y-321654D01*
X15866Y-323173D01*
X18801Y-323960D01*
X21839D01*
X24774Y-323173D01*
X27406Y-321654D01*
X29554Y-319506D01*
X30329Y-318164D01*
X101423D01*
X103900Y-317671D01*
X106001Y-316268D01*
X171710Y-250558D01*
X173114Y-248458D01*
X173606Y-245980D01*
Y137983D01*
X178963D01*
Y158118D01*
X155301D01*
Y155432D01*
X137786D01*
Y155998D01*
X136914D01*
X136627Y156190D01*
X135636Y156387D01*
X118421D01*
X111594Y163214D01*
Y200918D01*
X111397Y201909D01*
X111377Y201938D01*
X111359Y202032D01*
X110797Y202872D01*
X109957Y203434D01*
X108966Y203631D01*
X98881D01*
Y212548D01*
X137384D01*
X137910Y211278D01*
X128754Y202123D01*
X126686D01*
X126061Y201998D01*
X114206D01*
Y187918D01*
X137786D01*
Y192842D01*
X151526Y206582D01*
X164894D01*
X164975Y206500D01*
X167003Y205330D01*
X169264Y204724D01*
X171604D01*
X173865Y205330D01*
X175893Y206500D01*
X177548Y208155D01*
X178718Y210183D01*
X179324Y212444D01*
Y214784D01*
X178718Y217045D01*
X177548Y219073D01*
X176908Y219712D01*
Y222533D01*
X178463D01*
Y240668D01*
X155801D01*
Y222533D01*
X163960D01*
Y219712D01*
X163778Y219530D01*
X148844D01*
X146366Y219038D01*
X144266Y217634D01*
X142036Y215404D01*
X140766Y215930D01*
Y224530D01*
X151343Y235107D01*
X152185Y236367D01*
X152480Y237854D01*
Y268663D01*
X152185Y270150D01*
X151343Y271410D01*
X141784Y280969D01*
X140524Y281811D01*
X139037Y282107D01*
X137270D01*
Y290992D01*
X114190D01*
Y290992D01*
X114183Y290992D01*
X112927Y290974D01*
X90060D01*
X90060Y290974D01*
X89010Y290974D01*
Y290974D01*
X88790Y290974D01*
X65930D01*
Y274394D01*
X83516D01*
X86042Y271868D01*
X85556Y270695D01*
X58575D01*
X57829Y271441D01*
X55977Y272208D01*
X53972D01*
X52119Y271441D01*
X50701Y270023D01*
X49934Y268171D01*
Y266166D01*
X50086Y265799D01*
X49380Y264743D01*
X35858D01*
X34372Y264447D01*
X33111Y263605D01*
X28914Y259408D01*
X12328D01*
Y256003D01*
X9778D01*
Y259158D01*
X-3058D01*
X-92595Y348695D01*
X-93855Y349537D01*
X-95342Y349833D01*
X-113343D01*
X-113477Y349967D01*
X-115330Y350734D01*
X-117334D01*
X-119187Y349967D01*
X-120605Y348549D01*
X-121372Y346697D01*
Y344692D01*
X-120605Y342839D01*
X-119187Y341421D01*
X-117334Y340654D01*
X-115330D01*
X-113477Y341421D01*
X-112835Y342063D01*
X-96951D01*
X-14607Y259719D01*
X-15133Y258449D01*
X-23622D01*
Y252399D01*
X-14303D01*
Y257384D01*
X-13145Y257889D01*
X-12302Y257217D01*
Y244578D01*
X9778D01*
Y248233D01*
X12328D01*
Y244828D01*
X34408D01*
Y253914D01*
X37467Y256973D01*
X62525D01*
Y252424D01*
X59504D01*
X58735Y253193D01*
X56883Y253960D01*
X54878D01*
X53272Y253295D01*
X52410Y253657D01*
X52002Y253966D01*
Y254098D01*
X38422D01*
Y242018D01*
X38422D01*
Y241598D01*
X38422D01*
Y229518D01*
X52002D01*
Y230666D01*
X52410Y230975D01*
X53272Y231337D01*
X54878Y230672D01*
X56883D01*
X58735Y231439D01*
X58996Y231700D01*
X62525D01*
Y225806D01*
X62722Y224815D01*
X63284Y223975D01*
X64124Y223413D01*
X64510Y223337D01*
Y223336D01*
X65115Y223216D01*
X76950D01*
Y222758D01*
X78220D01*
Y217568D01*
X87380D01*
X88342Y216605D01*
Y215138D01*
X88539Y214147D01*
X89101Y213307D01*
X89941Y212745D01*
X90932Y212548D01*
X91111D01*
Y203631D01*
X82296D01*
X81305Y203434D01*
X80465Y202872D01*
X79903Y202032D01*
X79706Y201041D01*
Y143891D01*
X79903Y142900D01*
X79923Y142871D01*
X79942Y142776D01*
X80503Y141936D01*
X81343Y141375D01*
X82334Y141178D01*
X90603D01*
Y125526D01*
X65369D01*
X64378Y125329D01*
X63538Y124767D01*
X62976Y123927D01*
X62779Y122936D01*
Y121995D01*
X31614D01*
Y123906D01*
X9534D01*
Y120501D01*
X7738D01*
Y123906D01*
X583D01*
Y133554D01*
X1904D01*
X2610Y132498D01*
X2326Y131812D01*
Y129808D01*
X3093Y127955D01*
X4511Y126537D01*
X6363Y125770D01*
X8368D01*
X10221Y126537D01*
X11639Y127955D01*
X12406Y129808D01*
Y131812D01*
X12122Y132498D01*
X12828Y133554D01*
X28668D01*
Y133403D01*
X28964Y131916D01*
X29806Y130656D01*
X31790Y128672D01*
Y128123D01*
X32557Y126271D01*
X33975Y124853D01*
X35828Y124086D01*
X37833D01*
X39685Y124853D01*
X41103Y126271D01*
X41870Y128123D01*
Y130128D01*
X41103Y131981D01*
X39685Y133399D01*
X39512Y133470D01*
X39124Y135006D01*
X39223Y135153D01*
X39420Y136144D01*
Y186182D01*
X39223Y187173D01*
X38777Y187840D01*
X38302Y188913D01*
Y197808D01*
X32512D01*
Y200348D01*
X38302D01*
Y209243D01*
X38302Y209243D01*
X38302D01*
X38302Y209243D01*
X38534Y210417D01*
X38867Y210555D01*
X40285Y211973D01*
X41052Y213825D01*
Y215830D01*
X40285Y217683D01*
X38867Y219101D01*
X37015Y219868D01*
X35010D01*
X34408Y220270D01*
Y222848D01*
X23368D01*
X12328D01*
Y216828D01*
X22223D01*
X22709Y215655D01*
X18564Y211510D01*
X17797Y210362D01*
X10997D01*
Y214664D01*
X10701Y216150D01*
X9859Y217410D01*
X9853Y217417D01*
Y220888D01*
X9778Y221263D01*
Y231658D01*
X-12302D01*
Y228253D01*
X-14303D01*
Y232427D01*
X-35481D01*
Y217787D01*
X-14303D01*
Y220483D01*
X-12302D01*
Y217078D01*
X-4561D01*
X-4075Y215905D01*
X-4273Y215707D01*
X-5040Y213855D01*
Y211849D01*
X-4861Y211418D01*
X-5567Y210362D01*
X-9906D01*
X-10897Y210165D01*
X-11737Y209603D01*
X-12299Y208763D01*
X-12496Y207772D01*
Y136144D01*
X-12299Y135153D01*
X-11737Y134313D01*
X-10897Y133751D01*
X-9906Y133554D01*
X-7187D01*
Y123906D01*
X-14342D01*
Y109326D01*
X7738D01*
Y112731D01*
X9534D01*
Y109326D01*
X16689D01*
Y106536D01*
X16985Y105049D01*
X17827Y103789D01*
X24537Y97079D01*
X24051Y95906D01*
X21844D01*
Y88616D01*
Y81326D01*
X31163D01*
X31542Y80847D01*
X30927Y79577D01*
X-23537D01*
X-26675Y82715D01*
Y148790D01*
X-26971Y150277D01*
X-27813Y151537D01*
X-39803Y163527D01*
Y265938D01*
X-40099Y267425D01*
X-40941Y268685D01*
X-64524Y292268D01*
X-64521Y292273D01*
X-63834Y294837D01*
Y297491D01*
X-64521Y300055D01*
X-65848Y302353D01*
X-67725Y304230D01*
X-70023Y305557D01*
X-72587Y306244D01*
X-75241D01*
X-77805Y305557D01*
X-80103Y304230D01*
X-81980Y302353D01*
X-83307Y300055D01*
X-83994Y297491D01*
Y294837D01*
X-83307Y292273D01*
X-81980Y289975D01*
X-80103Y288098D01*
X-77805Y286771D01*
X-75241Y286084D01*
X-72587D01*
X-70023Y286771D01*
X-70018Y286774D01*
X-47573Y264329D01*
Y251576D01*
X-48746Y251090D01*
X-64524Y266868D01*
X-64521Y266873D01*
X-63834Y269437D01*
Y272091D01*
X-64521Y274655D01*
X-65848Y276953D01*
X-67725Y278830D01*
X-70023Y280157D01*
X-72587Y280844D01*
X-75241D01*
X-77805Y280157D01*
X-80103Y278830D01*
X-81980Y276953D01*
X-83307Y274655D01*
X-83994Y272091D01*
Y269437D01*
X-83307Y266873D01*
X-81980Y264575D01*
X-80103Y262698D01*
X-77805Y261371D01*
X-75241Y260684D01*
X-72587D01*
X-70023Y261371D01*
X-70018Y261374D01*
X-52145Y243501D01*
Y230748D01*
X-53318Y230262D01*
X-64524Y241468D01*
X-64521Y241473D01*
X-63834Y244037D01*
Y246691D01*
X-64521Y249255D01*
X-65848Y251553D01*
X-67725Y253430D01*
X-70023Y254757D01*
X-72587Y255444D01*
X-75241D01*
X-77805Y254757D01*
X-80103Y253430D01*
X-81980Y251553D01*
X-83307Y249255D01*
X-83994Y246691D01*
Y244037D01*
X-83307Y241473D01*
X-81980Y239175D01*
X-80103Y237298D01*
X-77805Y235971D01*
X-75241Y235284D01*
X-72587D01*
X-70023Y235971D01*
X-70018Y235974D01*
X-56717Y222673D01*
Y209920D01*
X-57890Y209434D01*
X-64524Y216068D01*
X-64521Y216073D01*
X-63834Y218637D01*
Y221291D01*
X-64521Y223855D01*
X-65848Y226153D01*
X-67725Y228030D01*
X-70023Y229357D01*
X-72587Y230044D01*
X-75241D01*
X-77805Y229357D01*
X-80103Y228030D01*
X-81980Y226153D01*
X-83307Y223855D01*
X-83994Y221291D01*
Y218637D01*
X-83307Y216073D01*
X-81980Y213775D01*
X-80103Y211898D01*
X-77805Y210571D01*
X-75241Y209884D01*
X-72587D01*
X-70023Y210571D01*
X-70018Y210574D01*
X-61289Y201845D01*
Y189092D01*
X-62462Y188606D01*
X-64524Y190668D01*
X-64521Y190673D01*
X-63834Y193237D01*
Y195891D01*
X-64521Y198455D01*
X-65848Y200753D01*
X-67725Y202630D01*
X-70023Y203957D01*
X-72587Y204644D01*
X-75241D01*
X-77805Y203957D01*
X-80103Y202630D01*
X-81980Y200753D01*
X-83307Y198455D01*
X-83994Y195891D01*
Y193237D01*
X-83307Y190673D01*
X-81980Y188375D01*
X-80103Y186498D01*
X-77805Y185171D01*
X-75241Y184484D01*
X-72587D01*
X-70023Y185171D01*
X-70018Y185174D01*
X-65861Y181017D01*
Y177025D01*
X-67034Y176539D01*
X-67725Y177230D01*
X-70023Y178557D01*
X-72587Y179244D01*
X-75241D01*
X-77805Y178557D01*
X-80103Y177230D01*
X-81980Y175353D01*
X-83307Y173055D01*
X-83994Y170491D01*
Y167837D01*
X-83307Y165273D01*
X-81980Y162975D01*
X-80103Y161098D01*
X-77805Y159771D01*
X-75797Y159233D01*
Y157814D01*
X-75502Y156327D01*
X-74691Y155114D01*
X-74801Y154556D01*
X-75096Y153844D01*
X-75241D01*
X-77805Y153157D01*
X-80103Y151830D01*
X-81980Y149953D01*
X-83307Y147655D01*
X-83994Y145091D01*
Y142437D01*
X-83307Y139873D01*
X-81980Y137575D01*
X-80103Y135698D01*
X-77805Y134371D01*
X-75241Y133684D01*
X-72587D01*
X-70023Y134371D01*
X-70018Y134374D01*
X-61877Y126233D01*
Y113480D01*
X-63050Y112994D01*
X-64524Y114468D01*
X-64521Y114473D01*
X-63834Y117037D01*
Y119691D01*
X-64521Y122255D01*
X-65848Y124553D01*
X-67725Y126430D01*
X-70023Y127757D01*
X-72587Y128444D01*
X-75241D01*
X-77805Y127757D01*
X-80103Y126430D01*
X-81980Y124553D01*
X-83307Y122255D01*
X-83994Y119691D01*
Y117037D01*
X-83307Y114473D01*
X-81980Y112175D01*
X-80103Y110298D01*
X-77805Y108971D01*
X-75241Y108284D01*
X-72587D01*
X-70023Y108971D01*
X-70018Y108974D01*
X-66449Y105405D01*
Y101413D01*
X-67622Y100927D01*
X-67725Y101030D01*
X-70023Y102357D01*
X-72587Y103044D01*
X-75241D01*
X-77805Y102357D01*
X-80103Y101030D01*
X-81980Y99153D01*
X-83307Y96855D01*
X-83994Y94291D01*
Y91637D01*
X-83307Y89073D01*
X-81980Y86775D01*
X-80103Y84898D01*
X-77805Y83571D01*
X-75241Y82884D01*
X-72587D01*
X-70023Y83571D01*
X-67725Y84898D01*
X-67622Y85001D01*
X-66449Y84515D01*
Y76878D01*
X-67622Y76392D01*
X-68874Y77644D01*
X-78500D01*
X-88037Y87181D01*
Y96371D01*
X-88333Y97858D01*
X-89175Y99118D01*
X-102425Y112369D01*
X-103686Y113211D01*
X-105172Y113507D01*
X-127898D01*
X-129385Y113211D01*
X-130645Y112369D01*
X-133900Y109114D01*
X-150486D01*
Y105709D01*
X-152536D01*
Y109114D01*
X-174616D01*
Y94534D01*
X-152536D01*
Y97939D01*
X-150486D01*
Y94534D01*
X-144307D01*
Y85436D01*
X-149212D01*
Y80802D01*
X-150243Y79712D01*
X-161036D01*
X-162027Y79515D01*
X-162235Y79376D01*
X-163272D01*
Y78348D01*
X-163429Y78113D01*
X-163626Y77122D01*
Y69471D01*
X-166320D01*
Y84836D01*
X-166517Y85827D01*
X-167079Y86667D01*
X-167919Y87229D01*
X-168910Y87426D01*
X-183422D01*
Y90993D01*
X-179685D01*
Y111128D01*
X-203347D01*
Y90993D01*
X-191192D01*
Y87426D01*
X-205740D01*
X-206731Y87229D01*
X-207571Y86667D01*
X-208133Y85827D01*
X-208330Y84836D01*
Y30988D01*
X-208133Y29997D01*
X-207571Y29157D01*
X-206731Y28595D01*
X-205740Y28398D01*
X-195655D01*
Y26101D01*
X-203601D01*
Y5966D01*
X-179939D01*
Y26101D01*
X-187885D01*
Y28398D01*
X-168910D01*
X-167919Y28595D01*
X-167079Y29157D01*
X-166517Y29997D01*
X-166320Y30988D01*
Y55516D01*
X-165135Y56701D01*
X-163272D01*
Y53174D01*
X-163429Y52939D01*
X-163626Y51948D01*
Y23412D01*
X-163429Y22421D01*
X-162867Y21581D01*
X-162027Y21020D01*
X-161401Y20895D01*
Y8500D01*
X-164806D01*
Y1345D01*
X-166370D01*
X-167857Y1049D01*
X-169117Y207D01*
X-173943Y-4619D01*
X-174785Y-5879D01*
X-175081Y-7366D01*
Y-16171D01*
X-178766Y-19856D01*
X-179939Y-19370D01*
Y-14763D01*
X-190500D01*
Y-23561D01*
X-184130D01*
X-183644Y-24734D01*
X-214461Y-55551D01*
X-216919D01*
X-216921Y-55545D01*
X-218248Y-53247D01*
X-220125Y-51370D01*
X-222423Y-50043D01*
X-224987Y-49356D01*
X-227641D01*
X-230205Y-50043D01*
X-232503Y-51370D01*
X-232606Y-51473D01*
X-233779Y-50987D01*
Y-46995D01*
X-230210Y-43426D01*
X-230205Y-43429D01*
X-227641Y-44116D01*
X-224987D01*
X-222423Y-43429D01*
X-220125Y-42102D01*
X-218248Y-40225D01*
X-216921Y-37927D01*
X-216234Y-35363D01*
Y-32709D01*
X-216921Y-30145D01*
X-218248Y-27847D01*
X-220125Y-25970D01*
X-222423Y-24643D01*
X-224987Y-23956D01*
X-227641D01*
X-230205Y-24643D01*
X-232503Y-25970D01*
X-234380Y-27847D01*
X-235707Y-30145D01*
X-236394Y-32709D01*
Y-35363D01*
X-235707Y-37927D01*
X-235704Y-37932D01*
X-239921Y-42149D01*
X-241191Y-41623D01*
Y352163D01*
X-239921Y352468D01*
X-238651Y349975D01*
X-235640Y345832D01*
X-232018Y342210D01*
X-227875Y339199D01*
X-223311Y336874D01*
X-218440Y335291D01*
X-213381Y334490D01*
X-212090D01*
Y367030D01*
X-210820D01*
Y368300D01*
X-178280D01*
Y369591D01*
X-179081Y374650D01*
X-180664Y379521D01*
X-182989Y384085D01*
X-186000Y388228D01*
X-189622Y391850D01*
X-193765Y394861D01*
X-198329Y397186D01*
X-202898Y398671D01*
X-202697Y399941D01*
X65732D01*
X65997Y399067D01*
X66027Y398671D01*
X64008Y396652D01*
X62368Y394196D01*
X61238Y391468D01*
X60662Y388572D01*
Y385620D01*
X61238Y382724D01*
X62368Y379996D01*
X64008Y377540D01*
X66096Y375452D01*
X68552Y373812D01*
X71280Y372682D01*
X74176Y372106D01*
X77128D01*
X80024Y372682D01*
X82752Y373812D01*
X85208Y375452D01*
X87296Y377540D01*
X88936Y379996D01*
X89094Y380376D01*
X90339Y380624D01*
X91101Y379862D01*
X93163Y378672D01*
X95462Y378056D01*
X97842D01*
X100141Y378672D01*
X102203Y379862D01*
X103886Y381545D01*
X105076Y383607D01*
X105692Y385906D01*
Y388286D01*
X105076Y390585D01*
X103886Y392647D01*
X102203Y394330D01*
X100141Y395520D01*
X97842Y396136D01*
X95462D01*
X93163Y395520D01*
X91101Y394330D01*
X90339Y393568D01*
X89094Y393816D01*
X88936Y394196D01*
X87296Y396652D01*
X85276Y398671D01*
X85307Y399067D01*
X85572Y399941D01*
X147732D01*
X147997Y399067D01*
X148027Y398671D01*
X146009Y396652D01*
X145664Y396136D01*
X127612D01*
Y378056D01*
X145664D01*
X146009Y377540D01*
X148097Y375452D01*
X150552Y373812D01*
X153280Y372682D01*
X156176Y372106D01*
X159128D01*
X162024Y372682D01*
X164752Y373812D01*
X167208Y375452D01*
X169296Y377540D01*
X170936Y379996D01*
X172066Y382724D01*
X172642Y385620D01*
Y388572D01*
X172066Y391468D01*
X170936Y394196D01*
X169296Y396652D01*
X167276Y398671D01*
X167307Y399067D01*
X167572Y399941D01*
X202697D01*
X202898Y398671D01*
D02*
G37*
G36*
X108966Y200918D02*
X109004D01*
Y162141D01*
X117348Y153797D01*
X135636D01*
Y153674D01*
X135674D01*
Y143768D01*
X82334D01*
Y143891D01*
X82296D01*
Y201041D01*
X108966D01*
Y200918D01*
D02*
G37*
G36*
X55132Y112990D02*
X53279Y112223D01*
X51861Y110805D01*
X51205Y109220D01*
X56134D01*
Y106680D01*
X51055D01*
X50442Y105762D01*
X38422D01*
Y93682D01*
X38422D01*
Y93262D01*
X38422D01*
Y87221D01*
X37249Y86735D01*
X36261Y87723D01*
Y94734D01*
X35965Y96220D01*
X35123Y97481D01*
X24548Y108056D01*
X24673Y109326D01*
X31614D01*
Y114225D01*
X55048D01*
X55132Y112990D01*
D02*
G37*
G36*
X-126080Y104150D02*
Y94280D01*
X-124702D01*
X-124176Y93010D01*
X-124415Y92771D01*
X-125071Y91186D01*
X-115213D01*
X-115869Y92771D01*
X-116108Y93010D01*
X-115582Y94280D01*
X-109494D01*
X-106601Y91387D01*
Y64491D01*
X-112572D01*
Y66796D01*
Y74377D01*
X-114030D01*
X-114325Y74574D01*
X-115316Y74771D01*
X-120392D01*
Y75586D01*
X-121662D01*
Y79376D01*
X-126632D01*
Y85436D01*
X-129152D01*
Y78116D01*
X-131537D01*
X-131605Y78459D01*
Y83102D01*
X-131631Y83235D01*
Y85436D01*
X-133116D01*
X-133204Y85495D01*
X-134195Y85692D01*
X-136537D01*
Y94534D01*
X-128406D01*
Y103620D01*
X-127350Y104676D01*
X-126080Y104150D01*
D02*
G37*
G36*
X-97282Y49427D02*
X-95697Y50083D01*
X-95071Y50710D01*
X-93801Y50184D01*
Y27009D01*
X-115147Y5663D01*
X-116898D01*
X-117020Y5822D01*
X-117368Y6933D01*
X-103171Y21129D01*
X-102329Y22389D01*
X-102033Y23876D01*
Y47752D01*
X-102329Y49239D01*
X-101501Y49997D01*
X-101350Y50060D01*
X-99822Y49427D01*
Y54356D01*
X-97282D01*
Y49427D01*
D02*
G37*
G36*
X140133Y-108861D02*
Y-125015D01*
X138863Y-125140D01*
X138677Y-124203D01*
X137835Y-122943D01*
X127120Y-112228D01*
X127646Y-110958D01*
X128257D01*
X130109Y-110191D01*
X131527Y-108773D01*
X132183Y-107188D01*
X127254D01*
Y-105918D01*
X125984D01*
Y-100989D01*
X124399Y-101645D01*
X122981Y-103063D01*
X122214Y-104916D01*
Y-105526D01*
X120944Y-106052D01*
X120064Y-105173D01*
X120060Y-105169D01*
Y-92596D01*
X119863Y-91605D01*
X119301Y-90765D01*
X119051Y-90515D01*
X118858Y-90386D01*
X118899Y-89182D01*
X119999Y-88727D01*
X140133Y-108861D01*
D02*
G37*
G36*
X125476Y-135739D02*
X125575Y-135698D01*
X126631Y-136404D01*
Y-137268D01*
X126671Y-137469D01*
Y-182218D01*
X125498Y-182704D01*
X113920Y-171126D01*
Y-156526D01*
X118351Y-156476D01*
X118831Y-156375D01*
X119313Y-156279D01*
X119326Y-156270D01*
X119340Y-156267D01*
X119745Y-155990D01*
X120153Y-155717D01*
X120162Y-155705D01*
X120174Y-155696D01*
X120442Y-155285D01*
X120715Y-154877D01*
X120718Y-154862D01*
X120726Y-154850D01*
X120816Y-154368D01*
X120912Y-153886D01*
Y-136275D01*
X121693Y-135567D01*
X122109Y-135397D01*
X122936Y-135739D01*
Y-130810D01*
X125476D01*
Y-135739D01*
D02*
G37*
%LPC*%
G36*
X117842Y396136D02*
X115462D01*
X113163Y395520D01*
X111101Y394330D01*
X109418Y392647D01*
X108228Y390585D01*
X107612Y388286D01*
Y385906D01*
X108228Y383607D01*
X109418Y381545D01*
X111101Y379862D01*
X113163Y378672D01*
X115462Y378056D01*
X117842D01*
X120141Y378672D01*
X122203Y379862D01*
X123886Y381545D01*
X125076Y383607D01*
X125692Y385906D01*
Y388286D01*
X125076Y390585D01*
X123886Y392647D01*
X122203Y394330D01*
X120141Y395520D01*
X117842Y396136D01*
D02*
G37*
G36*
X209550Y365760D02*
X178280D01*
Y364469D01*
X179081Y359410D01*
X180664Y354539D01*
X182989Y349975D01*
X186000Y345832D01*
X189622Y342210D01*
X193765Y339199D01*
X198329Y336874D01*
X203200Y335291D01*
X208259Y334490D01*
X209550D01*
Y365760D01*
D02*
G37*
G36*
X-178280D02*
X-209550D01*
Y334490D01*
X-208259D01*
X-203200Y335291D01*
X-198329Y336874D01*
X-193765Y339199D01*
X-189622Y342210D01*
X-186000Y345832D01*
X-182989Y349975D01*
X-180664Y354539D01*
X-179081Y359410D01*
X-178280Y364469D01*
Y365760D01*
D02*
G37*
G36*
X127000Y320492D02*
Y313472D01*
X137270D01*
Y320492D01*
X127000D01*
D02*
G37*
G36*
X76200Y320474D02*
X65930D01*
Y313454D01*
X76200D01*
Y320474D01*
D02*
G37*
G36*
X137270Y310932D02*
X127000D01*
Y303912D01*
X137270D01*
Y310932D01*
D02*
G37*
G36*
X76200Y310914D02*
X65930D01*
Y303894D01*
X76200D01*
Y310914D01*
D02*
G37*
G36*
X89010Y320474D02*
X88790Y320474D01*
X78740D01*
Y312184D01*
Y303894D01*
X88790D01*
X90060Y303894D01*
X90280Y303894D01*
X100330D01*
Y312184D01*
Y320474D01*
X90280D01*
X89010Y320474D01*
D02*
G37*
G36*
X114190Y320492D02*
X112928Y320474D01*
X102870D01*
Y312184D01*
Y303894D01*
X112927D01*
X113140Y303894D01*
X114402Y303912D01*
X124460D01*
Y312202D01*
Y320492D01*
X114403D01*
X114190Y320492D01*
D02*
G37*
G36*
X209550Y307189D02*
Y303530D01*
X213209D01*
X212553Y305115D01*
X211135Y306533D01*
X209550Y307189D01*
D02*
G37*
G36*
X207010D02*
X205425Y306533D01*
X204007Y305115D01*
X203351Y303530D01*
X207010D01*
Y307189D01*
D02*
G37*
G36*
X57150D02*
Y303530D01*
X60809D01*
X60153Y305115D01*
X58735Y306533D01*
X57150Y307189D01*
D02*
G37*
G36*
X54610D02*
X53025Y306533D01*
X51607Y305115D01*
X50951Y303530D01*
X54610D01*
Y307189D01*
D02*
G37*
G36*
X-95250D02*
Y303530D01*
X-91591D01*
X-92247Y305115D01*
X-93665Y306533D01*
X-95250Y307189D01*
D02*
G37*
G36*
X-97790D02*
X-99375Y306533D01*
X-100793Y305115D01*
X-101449Y303530D01*
X-97790D01*
Y307189D01*
D02*
G37*
G36*
X-146050D02*
Y303530D01*
X-142391D01*
X-143047Y305115D01*
X-144465Y306533D01*
X-146050Y307189D01*
D02*
G37*
G36*
X-148590D02*
X-150175Y306533D01*
X-151593Y305115D01*
X-152249Y303530D01*
X-148590D01*
Y307189D01*
D02*
G37*
G36*
X-196850D02*
Y303530D01*
X-193191D01*
X-193847Y305115D01*
X-195265Y306533D01*
X-196850Y307189D01*
D02*
G37*
G36*
X-199390D02*
X-200975Y306533D01*
X-202393Y305115D01*
X-203049Y303530D01*
X-199390D01*
Y307189D01*
D02*
G37*
G36*
X213209Y300990D02*
X209550D01*
Y297331D01*
X211135Y297987D01*
X212553Y299405D01*
X213209Y300990D01*
D02*
G37*
G36*
X207010D02*
X203351D01*
X204007Y299405D01*
X205425Y297987D01*
X207010Y297331D01*
Y300990D01*
D02*
G37*
G36*
X60809D02*
X57150D01*
Y297331D01*
X58735Y297987D01*
X60153Y299405D01*
X60809Y300990D01*
D02*
G37*
G36*
X54610D02*
X50951D01*
X51607Y299405D01*
X53025Y297987D01*
X54610Y297331D01*
Y300990D01*
D02*
G37*
G36*
X-91591D02*
X-95250D01*
Y297331D01*
X-93665Y297987D01*
X-92247Y299405D01*
X-91591Y300990D01*
D02*
G37*
G36*
X-97790D02*
X-101449D01*
X-100793Y299405D01*
X-99375Y297987D01*
X-97790Y297331D01*
Y300990D01*
D02*
G37*
G36*
X-142391D02*
X-146050D01*
Y297331D01*
X-144465Y297987D01*
X-143047Y299405D01*
X-142391Y300990D01*
D02*
G37*
G36*
X-148590D02*
X-152249D01*
X-151593Y299405D01*
X-150175Y297987D01*
X-148590Y297331D01*
Y300990D01*
D02*
G37*
G36*
X-193191D02*
X-196850D01*
Y297331D01*
X-195265Y297987D01*
X-193847Y299405D01*
X-193191Y300990D01*
D02*
G37*
G36*
X-199390D02*
X-203049D01*
X-202393Y299405D01*
X-200975Y297987D01*
X-199390Y297331D01*
Y300990D01*
D02*
G37*
G36*
X-224987Y306244D02*
X-227641D01*
X-230205Y305557D01*
X-232503Y304230D01*
X-234380Y302353D01*
X-235707Y300055D01*
X-236394Y297491D01*
Y294837D01*
X-235707Y292273D01*
X-234380Y289975D01*
X-232503Y288098D01*
X-230205Y286771D01*
X-227641Y286084D01*
X-224987D01*
X-222423Y286771D01*
X-220125Y288098D01*
X-218248Y289975D01*
X-216921Y292273D01*
X-216234Y294837D01*
Y297491D01*
X-216921Y300055D01*
X-218248Y302353D01*
X-220125Y304230D01*
X-222423Y305557D01*
X-224987Y306244D01*
D02*
G37*
G36*
Y280844D02*
X-227641D01*
X-230205Y280157D01*
X-232503Y278830D01*
X-234380Y276953D01*
X-235707Y274655D01*
X-236394Y272091D01*
Y269437D01*
X-235707Y266873D01*
X-234380Y264575D01*
X-232503Y262698D01*
X-230205Y261371D01*
X-227641Y260684D01*
X-224987D01*
X-222423Y261371D01*
X-220125Y262698D01*
X-218248Y264575D01*
X-216921Y266873D01*
X-216234Y269437D01*
Y272091D01*
X-216921Y274655D01*
X-218248Y276953D01*
X-220125Y278830D01*
X-222423Y280157D01*
X-224987Y280844D01*
D02*
G37*
G36*
X178463Y268195D02*
X168402D01*
Y260398D01*
X178463D01*
Y268195D01*
D02*
G37*
G36*
X165862D02*
X155801D01*
Y260398D01*
X165862D01*
Y268195D01*
D02*
G37*
G36*
X203043Y293110D02*
X199341D01*
X195711Y292388D01*
X192292Y290972D01*
X189214Y288915D01*
X186597Y286298D01*
X184541Y283220D01*
X183124Y279801D01*
X182402Y276171D01*
Y272469D01*
X183124Y268839D01*
X184541Y265420D01*
X186597Y262342D01*
X189214Y259725D01*
X192292Y257668D01*
X195711Y256252D01*
X199341Y255530D01*
X203043D01*
X206673Y256252D01*
X210092Y257668D01*
X213170Y259725D01*
X215787Y262342D01*
X217843Y265420D01*
X219260Y268839D01*
X219982Y272469D01*
Y276171D01*
X219260Y279801D01*
X217843Y283220D01*
X215787Y286298D01*
X213170Y288915D01*
X210092Y290972D01*
X206673Y292388D01*
X203043Y293110D01*
D02*
G37*
G36*
X184150Y256389D02*
Y252730D01*
X187809D01*
X187153Y254315D01*
X185735Y255733D01*
X184150Y256389D01*
D02*
G37*
G36*
X-120650D02*
Y252730D01*
X-116991D01*
X-117647Y254315D01*
X-119065Y255733D01*
X-120650Y256389D01*
D02*
G37*
G36*
X-123190D02*
X-124775Y255733D01*
X-126193Y254315D01*
X-126849Y252730D01*
X-123190D01*
Y256389D01*
D02*
G37*
G36*
X-171450D02*
Y252730D01*
X-167791D01*
X-168447Y254315D01*
X-169865Y255733D01*
X-171450Y256389D01*
D02*
G37*
G36*
X-173990D02*
X-175575Y255733D01*
X-176993Y254315D01*
X-177649Y252730D01*
X-173990D01*
Y256389D01*
D02*
G37*
G36*
X-26162Y258449D02*
X-35481D01*
Y252399D01*
X-26162D01*
Y258449D01*
D02*
G37*
G36*
X165862Y257858D02*
X155801D01*
Y250060D01*
X165862D01*
Y257858D01*
D02*
G37*
G36*
X187809Y250190D02*
X184150D01*
Y246531D01*
X185735Y247187D01*
X187153Y248605D01*
X187809Y250190D01*
D02*
G37*
G36*
X178463Y257858D02*
X168402D01*
Y250060D01*
X178004D01*
X178607Y248605D01*
X180025Y247187D01*
X181610Y246531D01*
Y251460D01*
Y256389D01*
X180025Y255733D01*
X179733Y255441D01*
X178463Y255967D01*
Y257858D01*
D02*
G37*
G36*
X-116991Y250190D02*
X-120650D01*
Y246531D01*
X-119065Y247187D01*
X-117647Y248605D01*
X-116991Y250190D01*
D02*
G37*
G36*
X-123190D02*
X-126849D01*
X-126193Y248605D01*
X-124775Y247187D01*
X-123190Y246531D01*
Y250190D01*
D02*
G37*
G36*
X-167791D02*
X-171450D01*
Y246531D01*
X-169865Y247187D01*
X-168447Y248605D01*
X-167791Y250190D01*
D02*
G37*
G36*
X-173990D02*
X-177649D01*
X-176993Y248605D01*
X-175575Y247187D01*
X-173990Y246531D01*
Y250190D01*
D02*
G37*
G36*
X-14303Y249859D02*
X-23622D01*
Y243808D01*
X-14303D01*
Y249859D01*
D02*
G37*
G36*
X-26162D02*
X-35481D01*
Y243808D01*
X-26162D01*
Y249859D01*
D02*
G37*
G36*
X-224987Y255444D02*
X-227641D01*
X-230205Y254757D01*
X-232503Y253430D01*
X-234380Y251553D01*
X-235707Y249255D01*
X-236394Y246691D01*
Y244037D01*
X-235707Y241473D01*
X-234380Y239175D01*
X-232503Y237298D01*
X-230205Y235971D01*
X-227641Y235284D01*
X-224987D01*
X-222423Y235971D01*
X-220125Y237298D01*
X-218248Y239175D01*
X-216921Y241473D01*
X-216234Y244037D01*
Y246691D01*
X-216921Y249255D01*
X-218248Y251553D01*
X-220125Y253430D01*
X-222423Y254757D01*
X-224987Y255444D01*
D02*
G37*
G36*
X34408Y231408D02*
X24638D01*
Y225388D01*
X34408D01*
Y231408D01*
D02*
G37*
G36*
X22098D02*
X12328D01*
Y225388D01*
X22098D01*
Y231408D01*
D02*
G37*
G36*
X75680Y221488D02*
X64510D01*
Y217568D01*
X75680D01*
Y221488D01*
D02*
G37*
G36*
X-224987Y230044D02*
X-227641D01*
X-230205Y229357D01*
X-232503Y228030D01*
X-234380Y226153D01*
X-235707Y223855D01*
X-236394Y221291D01*
Y218637D01*
X-235707Y216073D01*
X-234380Y213775D01*
X-232503Y211898D01*
X-230205Y210571D01*
X-227641Y209884D01*
X-224987D01*
X-222423Y210571D01*
X-220125Y211898D01*
X-218248Y213775D01*
X-216921Y216073D01*
X-216234Y218637D01*
Y221291D01*
X-216921Y223855D01*
X-218248Y226153D01*
X-220125Y228030D01*
X-222423Y229357D01*
X-224987Y230044D01*
D02*
G37*
G36*
X67564Y207875D02*
Y204216D01*
X71223D01*
X70567Y205801D01*
X69149Y207219D01*
X67564Y207875D01*
D02*
G37*
G36*
X65024D02*
X63439Y207219D01*
X62021Y205801D01*
X61365Y204216D01*
X65024D01*
Y207875D01*
D02*
G37*
G36*
X-95250Y205589D02*
Y201930D01*
X-91591D01*
X-92247Y203515D01*
X-93665Y204933D01*
X-95250Y205589D01*
D02*
G37*
G36*
X-97790D02*
X-99375Y204933D01*
X-100793Y203515D01*
X-101449Y201930D01*
X-97790D01*
Y205589D01*
D02*
G37*
G36*
X-146050D02*
Y201930D01*
X-142391D01*
X-143047Y203515D01*
X-144465Y204933D01*
X-146050Y205589D01*
D02*
G37*
G36*
X-148590D02*
X-150175Y204933D01*
X-151593Y203515D01*
X-152249Y201930D01*
X-148590D01*
Y205589D01*
D02*
G37*
G36*
X-196850D02*
Y201930D01*
X-193191D01*
X-193847Y203515D01*
X-195265Y204933D01*
X-196850Y205589D01*
D02*
G37*
G36*
X-199390D02*
X-200975Y204933D01*
X-202393Y203515D01*
X-203049Y201930D01*
X-199390D01*
Y205589D01*
D02*
G37*
G36*
X71223Y201676D02*
X67564D01*
Y198017D01*
X69149Y198673D01*
X70567Y200091D01*
X71223Y201676D01*
D02*
G37*
G36*
X65024D02*
X61365D01*
X62021Y200091D01*
X63439Y198673D01*
X65024Y198017D01*
Y201676D01*
D02*
G37*
G36*
X-91591Y199390D02*
X-95250D01*
Y195731D01*
X-93665Y196387D01*
X-92247Y197805D01*
X-91591Y199390D01*
D02*
G37*
G36*
X-97790D02*
X-101449D01*
X-100793Y197805D01*
X-99375Y196387D01*
X-97790Y195731D01*
Y199390D01*
D02*
G37*
G36*
X-142391D02*
X-146050D01*
Y195731D01*
X-144465Y196387D01*
X-143047Y197805D01*
X-142391Y199390D01*
D02*
G37*
G36*
X-148590D02*
X-152249D01*
X-151593Y197805D01*
X-150175Y196387D01*
X-148590Y195731D01*
Y199390D01*
D02*
G37*
G36*
X-193191D02*
X-196850D01*
Y195731D01*
X-195265Y196387D01*
X-193847Y197805D01*
X-193191Y199390D01*
D02*
G37*
G36*
X-199390D02*
X-203049D01*
X-202393Y197805D01*
X-200975Y196387D01*
X-199390Y195731D01*
Y199390D01*
D02*
G37*
G36*
X-224987Y204644D02*
X-227641D01*
X-230205Y203957D01*
X-232503Y202630D01*
X-234380Y200753D01*
X-235707Y198455D01*
X-236394Y195891D01*
Y193237D01*
X-235707Y190673D01*
X-234380Y188375D01*
X-232503Y186498D01*
X-230205Y185171D01*
X-227641Y184484D01*
X-224987D01*
X-222423Y185171D01*
X-220125Y186498D01*
X-218248Y188375D01*
X-216921Y190673D01*
X-216234Y193237D01*
Y195891D01*
X-216921Y198455D01*
X-218248Y200753D01*
X-220125Y202630D01*
X-222423Y203957D01*
X-224987Y204644D01*
D02*
G37*
G36*
X203043Y216910D02*
X199341D01*
X195711Y216188D01*
X192292Y214771D01*
X189214Y212715D01*
X186597Y210098D01*
X184541Y207020D01*
X183124Y203601D01*
X182402Y199971D01*
Y196269D01*
X183124Y192639D01*
X184541Y189220D01*
X186597Y186142D01*
X189214Y183525D01*
X192292Y181469D01*
X195711Y180052D01*
X199341Y179330D01*
X203043D01*
X206673Y180052D01*
X210092Y181469D01*
X213170Y183525D01*
X215787Y186142D01*
X217843Y189220D01*
X219260Y192639D01*
X219982Y196269D01*
Y199971D01*
X219260Y203601D01*
X217843Y207020D01*
X215787Y210098D01*
X213170Y212715D01*
X210092Y214771D01*
X206673Y216188D01*
X203043Y216910D01*
D02*
G37*
G36*
X178963Y187645D02*
X168402D01*
Y178847D01*
X178963D01*
Y187645D01*
D02*
G37*
G36*
X165862D02*
X155301D01*
Y178847D01*
X165862D01*
Y187645D01*
D02*
G37*
G36*
X137786Y178998D02*
X127266D01*
Y173228D01*
X137786D01*
Y178998D01*
D02*
G37*
G36*
X75786Y190498D02*
X65266D01*
Y173228D01*
X75786D01*
Y190498D01*
D02*
G37*
G36*
X62726D02*
X52206D01*
Y173228D01*
X62726D01*
Y190498D01*
D02*
G37*
G36*
X124726Y178998D02*
X114206D01*
Y173228D01*
X124726D01*
Y178998D01*
D02*
G37*
G36*
X178963Y176307D02*
X168402D01*
Y167510D01*
X178963D01*
Y176307D01*
D02*
G37*
G36*
X165862D02*
X155301D01*
Y167510D01*
X165862D01*
Y176307D01*
D02*
G37*
G36*
X137786Y170688D02*
X127266D01*
Y164918D01*
X137786D01*
Y170688D01*
D02*
G37*
G36*
X124726D02*
X114206D01*
Y164918D01*
X124726D01*
Y170688D01*
D02*
G37*
G36*
X-97987Y179244D02*
X-100641D01*
X-103205Y178557D01*
X-105503Y177230D01*
X-107380Y175353D01*
X-108707Y173055D01*
X-109394Y170491D01*
Y167837D01*
X-108707Y165273D01*
X-107380Y162975D01*
X-105503Y161098D01*
X-103205Y159771D01*
X-100641Y159084D01*
X-97987D01*
X-95423Y159771D01*
X-93125Y161098D01*
X-91248Y162975D01*
X-89921Y165273D01*
X-89234Y167837D01*
Y170491D01*
X-89921Y173055D01*
X-91248Y175353D01*
X-93125Y177230D01*
X-95423Y178557D01*
X-97987Y179244D01*
D02*
G37*
G36*
X-119674D02*
X-129754D01*
X-134794Y174204D01*
Y164124D01*
X-129754Y159084D01*
X-119674D01*
X-114634Y164124D01*
Y174204D01*
X-119674Y179244D01*
D02*
G37*
G36*
X-174187D02*
X-176841D01*
X-179405Y178557D01*
X-181703Y177230D01*
X-183580Y175353D01*
X-184907Y173055D01*
X-185594Y170491D01*
Y167837D01*
X-184907Y165273D01*
X-183580Y162975D01*
X-181703Y161098D01*
X-179405Y159771D01*
X-176841Y159084D01*
X-174187D01*
X-171623Y159771D01*
X-169325Y161098D01*
X-167448Y162975D01*
X-166121Y165273D01*
X-165434Y167837D01*
Y170491D01*
X-166121Y173055D01*
X-167448Y175353D01*
X-169325Y177230D01*
X-171623Y178557D01*
X-174187Y179244D01*
D02*
G37*
G36*
X-199587D02*
X-202241D01*
X-204805Y178557D01*
X-207103Y177230D01*
X-208980Y175353D01*
X-210307Y173055D01*
X-210994Y170491D01*
Y167837D01*
X-210307Y165273D01*
X-208980Y162975D01*
X-207103Y161098D01*
X-204805Y159771D01*
X-202241Y159084D01*
X-199587D01*
X-197023Y159771D01*
X-194725Y161098D01*
X-192848Y162975D01*
X-191521Y165273D01*
X-190834Y167837D01*
Y170491D01*
X-191521Y173055D01*
X-192848Y175353D01*
X-194725Y177230D01*
X-197023Y178557D01*
X-199587Y179244D01*
D02*
G37*
G36*
X-224987D02*
X-227641D01*
X-230205Y178557D01*
X-232503Y177230D01*
X-234380Y175353D01*
X-235707Y173055D01*
X-236394Y170491D01*
Y167837D01*
X-235707Y165273D01*
X-234380Y162975D01*
X-232503Y161098D01*
X-230205Y159771D01*
X-227641Y159084D01*
X-224987D01*
X-222423Y159771D01*
X-220125Y161098D01*
X-218248Y162975D01*
X-216921Y165273D01*
X-216234Y167837D01*
Y170491D01*
X-216921Y173055D01*
X-218248Y175353D01*
X-220125Y177230D01*
X-222423Y178557D01*
X-224987Y179244D01*
D02*
G37*
G36*
X75786Y170688D02*
X65266D01*
Y153418D01*
X75786D01*
Y170688D01*
D02*
G37*
G36*
X62726D02*
X52206D01*
Y153418D01*
X62726D01*
Y170688D01*
D02*
G37*
G36*
X-224987Y153844D02*
X-227641D01*
X-230205Y153157D01*
X-232503Y151830D01*
X-234380Y149953D01*
X-235707Y147655D01*
X-236394Y145091D01*
Y142437D01*
X-235707Y139873D01*
X-234380Y137575D01*
X-232503Y135698D01*
X-230205Y134371D01*
X-227641Y133684D01*
X-224987D01*
X-222423Y134371D01*
X-220125Y135698D01*
X-218248Y137575D01*
X-216921Y139873D01*
X-216234Y142437D01*
Y145091D01*
X-216921Y147655D01*
X-218248Y149953D01*
X-220125Y151830D01*
X-222423Y153157D01*
X-224987Y153844D01*
D02*
G37*
G36*
X-179685Y140655D02*
X-190246D01*
Y131858D01*
X-179685D01*
Y140655D01*
D02*
G37*
G36*
X-192786D02*
X-203347D01*
Y131858D01*
X-192786D01*
Y140655D01*
D02*
G37*
G36*
X-128406Y137114D02*
X-138176D01*
Y131094D01*
X-128406D01*
Y137114D01*
D02*
G37*
G36*
X-152536D02*
X-162306D01*
Y131094D01*
X-152536D01*
Y137114D01*
D02*
G37*
G36*
X-164846D02*
X-174616D01*
Y131094D01*
X-164846D01*
Y137114D01*
D02*
G37*
G36*
X-140716D02*
X-150486D01*
Y131094D01*
X-140716D01*
Y137114D01*
D02*
G37*
G36*
X-104000Y136860D02*
X-113770D01*
Y130840D01*
X-104000D01*
Y136860D01*
D02*
G37*
G36*
X-116310D02*
X-126080D01*
Y130840D01*
X-116310D01*
Y136860D01*
D02*
G37*
G36*
X203043Y161538D02*
X199341D01*
X195711Y160816D01*
X192292Y159399D01*
X189214Y157343D01*
X186597Y154726D01*
X184541Y151648D01*
X183124Y148229D01*
X182402Y144599D01*
Y140897D01*
X183124Y137267D01*
X184541Y133848D01*
X186597Y130770D01*
X189214Y128153D01*
X192292Y126096D01*
X195711Y124680D01*
X199341Y123958D01*
X203043D01*
X206673Y124680D01*
X210092Y126096D01*
X213170Y128153D01*
X215787Y130770D01*
X217843Y133848D01*
X219260Y137267D01*
X219982Y140897D01*
Y144599D01*
X219260Y148229D01*
X217843Y151648D01*
X215787Y154726D01*
X213170Y157343D01*
X210092Y159399D01*
X206673Y160816D01*
X203043Y161538D01*
D02*
G37*
G36*
X-128406Y128554D02*
X-138176D01*
Y122534D01*
X-128406D01*
Y128554D01*
D02*
G37*
G36*
X-140716D02*
X-150486D01*
Y122534D01*
X-140716D01*
Y128554D01*
D02*
G37*
G36*
X-152536D02*
X-162306D01*
Y122534D01*
X-152536D01*
Y128554D01*
D02*
G37*
G36*
X-164846D02*
X-174616D01*
Y122534D01*
X-164846D01*
Y128554D01*
D02*
G37*
G36*
X-104000Y128300D02*
X-113770D01*
Y122280D01*
X-104000D01*
Y128300D01*
D02*
G37*
G36*
X-116310D02*
X-126080D01*
Y122280D01*
X-116310D01*
Y128300D01*
D02*
G37*
G36*
X-179685Y129318D02*
X-190246D01*
Y120520D01*
X-179685D01*
Y129318D01*
D02*
G37*
G36*
X-192786D02*
X-203347D01*
Y120520D01*
X-192786D01*
Y129318D01*
D02*
G37*
G36*
X-224987Y128444D02*
X-227641D01*
X-230205Y127757D01*
X-232503Y126430D01*
X-234380Y124553D01*
X-235707Y122255D01*
X-236394Y119691D01*
Y117037D01*
X-235707Y114473D01*
X-234380Y112175D01*
X-232503Y110298D01*
X-230205Y108971D01*
X-227641Y108284D01*
X-224987D01*
X-222423Y108971D01*
X-220125Y110298D01*
X-218248Y112175D01*
X-216921Y114473D01*
X-216234Y117037D01*
Y119691D01*
X-216921Y122255D01*
X-218248Y124553D01*
X-220125Y126430D01*
X-222423Y127757D01*
X-224987Y128444D01*
D02*
G37*
G36*
X209550Y103989D02*
Y100330D01*
X213209D01*
X212553Y101915D01*
X211135Y103333D01*
X209550Y103989D01*
D02*
G37*
G36*
X207010D02*
X205425Y103333D01*
X204007Y101915D01*
X203351Y100330D01*
X207010D01*
Y103989D01*
D02*
G37*
G36*
X156210D02*
X154625Y103333D01*
X153207Y101915D01*
X152551Y100330D01*
X156210D01*
Y103989D01*
D02*
G37*
G36*
X6350D02*
Y100330D01*
X10009D01*
X9353Y101915D01*
X7935Y103333D01*
X6350Y103989D01*
D02*
G37*
G36*
X3810D02*
X2225Y103333D01*
X807Y101915D01*
X151Y100330D01*
X3810D01*
Y103989D01*
D02*
G37*
G36*
X213209Y97790D02*
X209550D01*
Y94131D01*
X211135Y94787D01*
X212553Y96205D01*
X213209Y97790D01*
D02*
G37*
G36*
X207010D02*
X203351D01*
X204007Y96205D01*
X205425Y94787D01*
X207010Y94131D01*
Y97790D01*
D02*
G37*
G36*
X156210D02*
X152551D01*
X153207Y96205D01*
X154625Y94787D01*
X156210Y94131D01*
Y97790D01*
D02*
G37*
G36*
X10009D02*
X151D01*
X405Y97176D01*
X-443Y95906D01*
X-2032D01*
Y89886D01*
X7738D01*
Y93983D01*
X8264Y94348D01*
X9534Y93684D01*
Y89886D01*
X19304D01*
Y95906D01*
X10603D01*
X9755Y97176D01*
X10009Y97790D01*
D02*
G37*
G36*
X-4572Y95906D02*
X-14342D01*
Y89886D01*
X-4572D01*
Y95906D01*
D02*
G37*
G36*
X-224987Y103044D02*
X-227641D01*
X-230205Y102357D01*
X-232503Y101030D01*
X-234380Y99153D01*
X-235707Y96855D01*
X-236394Y94291D01*
Y91637D01*
X-235707Y89073D01*
X-234380Y86775D01*
X-232503Y84898D01*
X-230205Y83571D01*
X-227641Y82884D01*
X-224987D01*
X-222423Y83571D01*
X-220125Y84898D01*
X-218248Y86775D01*
X-216921Y89073D01*
X-216234Y91637D01*
Y94291D01*
X-216921Y96855D01*
X-218248Y99153D01*
X-220125Y101030D01*
X-222423Y102357D01*
X-224987Y103044D01*
D02*
G37*
G36*
X19304Y87346D02*
X9534D01*
Y81326D01*
X19304D01*
Y87346D01*
D02*
G37*
G36*
X7738D02*
X-2032D01*
Y81326D01*
X7738D01*
Y87346D01*
D02*
G37*
G36*
X-4572D02*
X-14342D01*
Y81326D01*
X-4572D01*
Y87346D01*
D02*
G37*
G36*
X184150Y53189D02*
Y49530D01*
X187809D01*
X187153Y51115D01*
X185735Y52533D01*
X184150Y53189D01*
D02*
G37*
G36*
X181610D02*
X180025Y52533D01*
X178607Y51115D01*
X177951Y49530D01*
X181610D01*
Y53189D01*
D02*
G37*
G36*
X82550D02*
Y49530D01*
X86209D01*
X85553Y51115D01*
X84135Y52533D01*
X82550Y53189D01*
D02*
G37*
G36*
X-19050D02*
Y49530D01*
X-15391D01*
X-16047Y51115D01*
X-17465Y52533D01*
X-19050Y53189D01*
D02*
G37*
G36*
X-21590D02*
X-23175Y52533D01*
X-24593Y51115D01*
X-25249Y49530D01*
X-21590D01*
Y53189D01*
D02*
G37*
G36*
X203043Y85338D02*
X199341D01*
X195711Y84616D01*
X192292Y83200D01*
X189214Y81143D01*
X186597Y78526D01*
X184541Y75448D01*
X183124Y72029D01*
X182402Y68399D01*
Y64697D01*
X183124Y61067D01*
X184541Y57648D01*
X186597Y54570D01*
X189214Y51953D01*
X192292Y49896D01*
X195711Y48480D01*
X199341Y47758D01*
X203043D01*
X206673Y48480D01*
X210092Y49896D01*
X213170Y51953D01*
X215787Y54570D01*
X217843Y57648D01*
X219260Y61067D01*
X219982Y64697D01*
Y68399D01*
X219260Y72029D01*
X217843Y75448D01*
X215787Y78526D01*
X213170Y81143D01*
X210092Y83200D01*
X206673Y84616D01*
X203043Y85338D01*
D02*
G37*
G36*
X187809Y46990D02*
X184150D01*
Y43331D01*
X185735Y43987D01*
X187153Y45405D01*
X187809Y46990D01*
D02*
G37*
G36*
X181610D02*
X177951D01*
X178607Y45405D01*
X180025Y43987D01*
X181610Y43331D01*
Y46990D01*
D02*
G37*
G36*
X137009D02*
X133350D01*
Y43331D01*
X134935Y43987D01*
X136353Y45405D01*
X137009Y46990D01*
D02*
G37*
G36*
X130810D02*
X127151D01*
X127807Y45405D01*
X129225Y43987D01*
X130810Y43331D01*
Y46990D01*
D02*
G37*
G36*
X-15391D02*
X-19050D01*
Y43331D01*
X-17465Y43987D01*
X-16047Y45405D01*
X-15391Y46990D01*
D02*
G37*
G36*
X-21590D02*
X-25249D01*
X-24593Y45405D01*
X-23175Y43987D01*
X-21590Y43331D01*
Y46990D01*
D02*
G37*
G36*
X19050Y46736D02*
X8780D01*
Y36466D01*
X19050D01*
Y46736D01*
D02*
G37*
G36*
X-224987Y52244D02*
X-227641D01*
X-230205Y51557D01*
X-232503Y50230D01*
X-234380Y48353D01*
X-235707Y46055D01*
X-236394Y43491D01*
Y40837D01*
X-235707Y38273D01*
X-234380Y35975D01*
X-232503Y34098D01*
X-230205Y32771D01*
X-227641Y32084D01*
X-224987D01*
X-222423Y32771D01*
X-220125Y34098D01*
X-218248Y35975D01*
X-216921Y38273D01*
X-216234Y40837D01*
Y43491D01*
X-216921Y46055D01*
X-218248Y48353D01*
X-220125Y50230D01*
X-222423Y51557D01*
X-224987Y52244D01*
D02*
G37*
G36*
Y26844D02*
X-227641D01*
X-230205Y26157D01*
X-232503Y24830D01*
X-234380Y22953D01*
X-235707Y20655D01*
X-236394Y18091D01*
Y15437D01*
X-235707Y12873D01*
X-234380Y10575D01*
X-232503Y8698D01*
X-230205Y7371D01*
X-227641Y6684D01*
X-224987D01*
X-222423Y7371D01*
X-220125Y8698D01*
X-218248Y10575D01*
X-216921Y12873D01*
X-216234Y15437D01*
Y18091D01*
X-216921Y20655D01*
X-218248Y22953D01*
X-220125Y24830D01*
X-222423Y26157D01*
X-224987Y26844D01*
D02*
G37*
G36*
X-95250Y2389D02*
Y-1270D01*
X-91591D01*
X-92247Y315D01*
X-93665Y1733D01*
X-95250Y2389D01*
D02*
G37*
G36*
X-97790D02*
X-99375Y1733D01*
X-100793Y315D01*
X-101449Y-1270D01*
X-97790D01*
Y2389D01*
D02*
G37*
G36*
X202003Y35046D02*
X198301D01*
X194671Y34324D01*
X191252Y32908D01*
X188174Y30851D01*
X185557Y28234D01*
X183500Y25156D01*
X182084Y21737D01*
X181362Y18107D01*
Y14405D01*
X182084Y10775D01*
X183500Y7356D01*
X185557Y4278D01*
X188174Y1661D01*
X191252Y-395D01*
X194671Y-1812D01*
X198301Y-2534D01*
X202003D01*
X205633Y-1812D01*
X209052Y-395D01*
X212130Y1661D01*
X214747Y4278D01*
X216803Y7356D01*
X218220Y10775D01*
X218942Y14405D01*
Y18107D01*
X218220Y21737D01*
X216803Y25156D01*
X214747Y28234D01*
X212130Y30851D01*
X209052Y32908D01*
X205633Y34324D01*
X202003Y35046D01*
D02*
G37*
G36*
X-91591Y-3810D02*
X-95250D01*
Y-7469D01*
X-93665Y-6813D01*
X-92247Y-5395D01*
X-91591Y-3810D01*
D02*
G37*
G36*
X-97790D02*
X-101449D01*
X-100793Y-5395D01*
X-99375Y-6813D01*
X-97790Y-7469D01*
Y-3810D01*
D02*
G37*
G36*
X-179939Y-3426D02*
X-190500D01*
Y-12223D01*
X-179939D01*
Y-3426D01*
D02*
G37*
G36*
X-193040D02*
X-203601D01*
Y-12223D01*
X-193040D01*
Y-3426D01*
D02*
G37*
G36*
X-224987Y1444D02*
X-227641D01*
X-230205Y757D01*
X-232503Y-570D01*
X-234380Y-2447D01*
X-235707Y-4745D01*
X-236394Y-7309D01*
Y-9963D01*
X-235707Y-12527D01*
X-234380Y-14825D01*
X-232503Y-16702D01*
X-230205Y-18029D01*
X-227641Y-18716D01*
X-224987D01*
X-222423Y-18029D01*
X-220125Y-16702D01*
X-218248Y-14825D01*
X-216921Y-12527D01*
X-216234Y-9963D01*
Y-7309D01*
X-216921Y-4745D01*
X-218248Y-2447D01*
X-220125Y-570D01*
X-222423Y757D01*
X-224987Y1444D01*
D02*
G37*
G36*
X-193040Y-14763D02*
X-203601D01*
Y-23561D01*
X-193040D01*
Y-14763D01*
D02*
G37*
G36*
X-38044Y-27148D02*
X-43814D01*
Y-30418D01*
X-38044D01*
Y-27148D01*
D02*
G37*
G36*
X184150Y-48411D02*
Y-52070D01*
X187809D01*
X187153Y-50485D01*
X185735Y-49067D01*
X184150Y-48411D01*
D02*
G37*
G36*
X181610D02*
X180025Y-49067D01*
X178607Y-50485D01*
X177951Y-52070D01*
X181610D01*
Y-48411D01*
D02*
G37*
G36*
X-173990D02*
X-175575Y-49067D01*
X-176993Y-50485D01*
X-177649Y-52070D01*
X-173990D01*
Y-48411D01*
D02*
G37*
G36*
X187809Y-54610D02*
X184150D01*
Y-58269D01*
X185735Y-57613D01*
X187153Y-56195D01*
X187809Y-54610D01*
D02*
G37*
G36*
X181610D02*
X177951D01*
X178607Y-56195D01*
X180025Y-57613D01*
X181610Y-58269D01*
Y-54610D01*
D02*
G37*
G36*
X-173990D02*
X-177649D01*
X-176993Y-56195D01*
X-175575Y-57613D01*
X-173990Y-58269D01*
Y-54610D01*
D02*
G37*
G36*
X-95250Y-99211D02*
Y-102870D01*
X-91591D01*
X-92247Y-101285D01*
X-93665Y-99867D01*
X-95250Y-99211D01*
D02*
G37*
G36*
X-97790D02*
X-99375Y-99867D01*
X-100793Y-101285D01*
X-101449Y-102870D01*
X-97790D01*
Y-99211D01*
D02*
G37*
G36*
X-146050D02*
Y-102870D01*
X-142391D01*
X-143047Y-101285D01*
X-144465Y-99867D01*
X-146050Y-99211D01*
D02*
G37*
G36*
X-148590D02*
X-150175Y-99867D01*
X-151593Y-101285D01*
X-152249Y-102870D01*
X-148590D01*
Y-99211D01*
D02*
G37*
G36*
X-196850D02*
Y-102870D01*
X-193191D01*
X-193847Y-101285D01*
X-195265Y-99867D01*
X-196850Y-99211D01*
D02*
G37*
G36*
X-199390D02*
X-200975Y-99867D01*
X-202393Y-101285D01*
X-203049Y-102870D01*
X-199390D01*
Y-99211D01*
D02*
G37*
G36*
X31860Y-95377D02*
X21590D01*
Y-105647D01*
X31860D01*
Y-95377D01*
D02*
G37*
G36*
X19050D02*
X8780D01*
Y-105647D01*
X19050D01*
Y-95377D01*
D02*
G37*
G36*
X-91591Y-105410D02*
X-95250D01*
Y-109069D01*
X-93665Y-108413D01*
X-92247Y-106995D01*
X-91591Y-105410D01*
D02*
G37*
G36*
X-97790D02*
X-101449D01*
X-100793Y-106995D01*
X-99375Y-108413D01*
X-97790Y-109069D01*
Y-105410D01*
D02*
G37*
G36*
X-142391D02*
X-146050D01*
Y-109069D01*
X-144465Y-108413D01*
X-143047Y-106995D01*
X-142391Y-105410D01*
D02*
G37*
G36*
X-148590D02*
X-152249D01*
X-151593Y-106995D01*
X-150175Y-108413D01*
X-148590Y-109069D01*
Y-105410D01*
D02*
G37*
G36*
X-193191D02*
X-196850D01*
Y-109069D01*
X-195265Y-108413D01*
X-193847Y-106995D01*
X-193191Y-105410D01*
D02*
G37*
G36*
X-199390D02*
X-203049D01*
X-202393Y-106995D01*
X-200975Y-108413D01*
X-199390Y-109069D01*
Y-105410D01*
D02*
G37*
G36*
X202003Y-79254D02*
X198301D01*
X194671Y-79976D01*
X191252Y-81392D01*
X188174Y-83449D01*
X185557Y-86066D01*
X183500Y-89144D01*
X182084Y-92563D01*
X181362Y-96193D01*
Y-99895D01*
X182084Y-103525D01*
X183500Y-106944D01*
X185557Y-110022D01*
X188174Y-112639D01*
X191252Y-114696D01*
X194671Y-116112D01*
X198301Y-116834D01*
X202003D01*
X205633Y-116112D01*
X209052Y-114696D01*
X212130Y-112639D01*
X214747Y-110022D01*
X216803Y-106944D01*
X218220Y-103525D01*
X218942Y-99895D01*
Y-96193D01*
X218220Y-92563D01*
X216803Y-89144D01*
X214747Y-86066D01*
X212130Y-83449D01*
X209052Y-81392D01*
X205633Y-79976D01*
X202003Y-79254D01*
D02*
G37*
G36*
X-224987Y-100156D02*
X-227641D01*
X-230205Y-100843D01*
X-232503Y-102170D01*
X-234380Y-104047D01*
X-235707Y-106345D01*
X-236394Y-108909D01*
Y-111563D01*
X-235707Y-114127D01*
X-234380Y-116425D01*
X-232503Y-118302D01*
X-230205Y-119629D01*
X-227641Y-120316D01*
X-224987D01*
X-222423Y-119629D01*
X-220125Y-118302D01*
X-218248Y-116425D01*
X-216921Y-114127D01*
X-216234Y-111563D01*
Y-108909D01*
X-216921Y-106345D01*
X-218248Y-104047D01*
X-220125Y-102170D01*
X-222423Y-100843D01*
X-224987Y-100156D01*
D02*
G37*
G36*
X-38044Y-124684D02*
X-43814D01*
Y-127954D01*
X-38044D01*
Y-124684D01*
D02*
G37*
G36*
X-22044D02*
X-27814D01*
Y-127954D01*
X-22044D01*
Y-124684D01*
D02*
G37*
G36*
X-46354D02*
X-52124D01*
Y-127954D01*
X-46354D01*
Y-124684D01*
D02*
G37*
G36*
X-30354D02*
X-36124D01*
Y-127954D01*
X-30354D01*
Y-124684D01*
D02*
G37*
G36*
X21839Y-107967D02*
X18801D01*
X15866Y-108753D01*
X13234Y-110273D01*
X11086Y-112421D01*
X9567Y-115053D01*
X8780Y-117988D01*
Y-121026D01*
X9567Y-123961D01*
X11086Y-126593D01*
X13234Y-128741D01*
X15866Y-130260D01*
X18801Y-131047D01*
X21839D01*
X24774Y-130260D01*
X27406Y-128741D01*
X29554Y-126593D01*
X31074Y-123961D01*
X31860Y-121026D01*
Y-117988D01*
X31074Y-115053D01*
X29554Y-112421D01*
X27406Y-110273D01*
X24774Y-108753D01*
X21839Y-107967D01*
D02*
G37*
G36*
X-224987Y-125556D02*
X-227641D01*
X-230205Y-126243D01*
X-232503Y-127570D01*
X-234380Y-129447D01*
X-235707Y-131745D01*
X-236394Y-134309D01*
Y-136963D01*
X-235707Y-139527D01*
X-234380Y-141825D01*
X-232503Y-143702D01*
X-230205Y-145029D01*
X-227641Y-145716D01*
X-224987D01*
X-222423Y-145029D01*
X-220125Y-143702D01*
X-218248Y-141825D01*
X-216921Y-139527D01*
X-216234Y-136963D01*
Y-134309D01*
X-216921Y-131745D01*
X-218248Y-129447D01*
X-220125Y-127570D01*
X-222423Y-126243D01*
X-224987Y-125556D01*
D02*
G37*
G36*
X-159850Y-130256D02*
X-161978D01*
X-164033Y-130807D01*
X-165875Y-131871D01*
X-167379Y-133375D01*
X-168443Y-135217D01*
X-168994Y-137272D01*
Y-139400D01*
X-168443Y-141455D01*
X-167379Y-143297D01*
X-165875Y-144801D01*
X-164033Y-145865D01*
X-161978Y-146416D01*
X-159850D01*
X-157795Y-145865D01*
X-155953Y-144801D01*
X-154449Y-143297D01*
X-153385Y-141455D01*
X-152834Y-139400D01*
Y-137272D01*
X-153385Y-135217D01*
X-154449Y-133375D01*
X-155953Y-131871D01*
X-157795Y-130807D01*
X-159850Y-130256D01*
D02*
G37*
G36*
X-179850D02*
X-181978D01*
X-184033Y-130807D01*
X-185875Y-131871D01*
X-187379Y-133375D01*
X-188443Y-135217D01*
X-188994Y-137272D01*
Y-139400D01*
X-188443Y-141455D01*
X-187379Y-143297D01*
X-185875Y-144801D01*
X-184033Y-145865D01*
X-181978Y-146416D01*
X-179850D01*
X-177795Y-145865D01*
X-175953Y-144801D01*
X-174449Y-143297D01*
X-173385Y-141455D01*
X-172834Y-139400D01*
Y-137272D01*
X-173385Y-135217D01*
X-174449Y-133375D01*
X-175953Y-131871D01*
X-177795Y-130807D01*
X-179850Y-130256D01*
D02*
G37*
G36*
X-199850D02*
X-201978D01*
X-204033Y-130807D01*
X-205875Y-131871D01*
X-207379Y-133375D01*
X-208443Y-135217D01*
X-208994Y-137272D01*
Y-139400D01*
X-208443Y-141455D01*
X-207379Y-143297D01*
X-205875Y-144801D01*
X-204033Y-145865D01*
X-201978Y-146416D01*
X-199850D01*
X-197795Y-145865D01*
X-195953Y-144801D01*
X-194449Y-143297D01*
X-193385Y-141455D01*
X-192834Y-139400D01*
Y-137272D01*
X-193385Y-135217D01*
X-194449Y-133375D01*
X-195953Y-131871D01*
X-197795Y-130807D01*
X-199850Y-130256D01*
D02*
G37*
G36*
X-120650Y-150011D02*
Y-153670D01*
X-116991D01*
X-117647Y-152085D01*
X-119065Y-150667D01*
X-120650Y-150011D01*
D02*
G37*
G36*
X-123190D02*
X-124775Y-150667D01*
X-126193Y-152085D01*
X-126849Y-153670D01*
X-123190D01*
Y-150011D01*
D02*
G37*
G36*
X21839Y-133367D02*
X18801D01*
X15866Y-134153D01*
X13234Y-135673D01*
X11086Y-137821D01*
X9567Y-140453D01*
X8780Y-143388D01*
Y-146426D01*
X9567Y-149361D01*
X11086Y-151993D01*
X13234Y-154141D01*
X15866Y-155660D01*
X18801Y-156447D01*
X21839D01*
X24774Y-155660D01*
X27406Y-154141D01*
X29554Y-151993D01*
X31074Y-149361D01*
X31860Y-146426D01*
Y-143388D01*
X31074Y-140453D01*
X29554Y-137821D01*
X27406Y-135673D01*
X24774Y-134153D01*
X21839Y-133367D01*
D02*
G37*
G36*
X-22044Y-154494D02*
X-27814D01*
Y-157764D01*
X-22044D01*
Y-154494D01*
D02*
G37*
G36*
X-116991Y-156210D02*
X-120650D01*
Y-159869D01*
X-119065Y-159213D01*
X-117647Y-157795D01*
X-116991Y-156210D01*
D02*
G37*
G36*
X-123190D02*
X-126849D01*
X-126193Y-157795D01*
X-124775Y-159213D01*
X-123190Y-159869D01*
Y-156210D01*
D02*
G37*
G36*
X-159850Y-150256D02*
X-161978D01*
X-164033Y-150807D01*
X-165875Y-151871D01*
X-167379Y-153375D01*
X-168443Y-155217D01*
X-168994Y-157272D01*
Y-159400D01*
X-168443Y-161455D01*
X-167379Y-163297D01*
X-165875Y-164801D01*
X-164033Y-165865D01*
X-161978Y-166416D01*
X-159850D01*
X-157795Y-165865D01*
X-155953Y-164801D01*
X-154449Y-163297D01*
X-153385Y-161455D01*
X-152834Y-159400D01*
Y-157272D01*
X-153385Y-155217D01*
X-154449Y-153375D01*
X-155953Y-151871D01*
X-157795Y-150807D01*
X-159850Y-150256D01*
D02*
G37*
G36*
X-179850D02*
X-181978D01*
X-184033Y-150807D01*
X-185875Y-151871D01*
X-187379Y-153375D01*
X-188443Y-155217D01*
X-188994Y-157272D01*
Y-159400D01*
X-188443Y-161455D01*
X-187379Y-163297D01*
X-185875Y-164801D01*
X-184033Y-165865D01*
X-181978Y-166416D01*
X-179850D01*
X-177795Y-165865D01*
X-175953Y-164801D01*
X-174449Y-163297D01*
X-173385Y-161455D01*
X-172834Y-159400D01*
Y-157272D01*
X-173385Y-155217D01*
X-174449Y-153375D01*
X-175953Y-151871D01*
X-177795Y-150807D01*
X-179850Y-150256D01*
D02*
G37*
G36*
X-199850D02*
X-201978D01*
X-204033Y-150807D01*
X-205875Y-151871D01*
X-207379Y-153375D01*
X-208443Y-155217D01*
X-208994Y-157272D01*
Y-159400D01*
X-208443Y-161455D01*
X-207379Y-163297D01*
X-205875Y-164801D01*
X-204033Y-165865D01*
X-201978Y-166416D01*
X-199850D01*
X-197795Y-165865D01*
X-195953Y-164801D01*
X-194449Y-163297D01*
X-193385Y-161455D01*
X-192834Y-159400D01*
Y-157272D01*
X-193385Y-155217D01*
X-194449Y-153375D01*
X-195953Y-151871D01*
X-197795Y-150807D01*
X-199850Y-150256D01*
D02*
G37*
G36*
X202003Y-132594D02*
X198301D01*
X194671Y-133316D01*
X191252Y-134733D01*
X188174Y-136789D01*
X185557Y-139406D01*
X183500Y-142484D01*
X182084Y-145903D01*
X181362Y-149533D01*
Y-153235D01*
X182084Y-156865D01*
X183500Y-160284D01*
X185557Y-163362D01*
X188174Y-165979D01*
X191252Y-168036D01*
X194671Y-169452D01*
X198301Y-170174D01*
X202003D01*
X205633Y-169452D01*
X209052Y-168036D01*
X212130Y-165979D01*
X214747Y-163362D01*
X216803Y-160284D01*
X218220Y-156865D01*
X218942Y-153235D01*
Y-149533D01*
X218220Y-145903D01*
X216803Y-142484D01*
X214747Y-139406D01*
X212130Y-136789D01*
X209052Y-134733D01*
X205633Y-133316D01*
X202003Y-132594D01*
D02*
G37*
G36*
X-224987Y-150956D02*
X-227641D01*
X-230205Y-151643D01*
X-232503Y-152970D01*
X-234380Y-154847D01*
X-235707Y-157145D01*
X-236394Y-159709D01*
Y-162363D01*
X-235707Y-164927D01*
X-234380Y-167225D01*
X-232503Y-169102D01*
X-230205Y-170429D01*
X-227641Y-171116D01*
X-224987D01*
X-222423Y-170429D01*
X-220125Y-169102D01*
X-218248Y-167225D01*
X-216921Y-164927D01*
X-216234Y-162363D01*
Y-159709D01*
X-216921Y-157145D01*
X-218248Y-154847D01*
X-220125Y-152970D01*
X-222423Y-151643D01*
X-224987Y-150956D01*
D02*
G37*
G36*
X-102587Y-163656D02*
X-105241D01*
X-107805Y-164343D01*
X-110103Y-165670D01*
X-111980Y-167547D01*
X-113307Y-169845D01*
X-113994Y-172409D01*
Y-175063D01*
X-113307Y-177627D01*
X-111980Y-179925D01*
X-110103Y-181802D01*
X-107805Y-183129D01*
X-105241Y-183816D01*
X-102587D01*
X-100023Y-183129D01*
X-97725Y-181802D01*
X-95848Y-179925D01*
X-94521Y-177627D01*
X-93834Y-175063D01*
Y-172409D01*
X-94521Y-169845D01*
X-95848Y-167547D01*
X-97725Y-165670D01*
X-100023Y-164343D01*
X-102587Y-163656D01*
D02*
G37*
G36*
X-224987Y-176356D02*
X-227641D01*
X-230205Y-177043D01*
X-232503Y-178370D01*
X-234380Y-180247D01*
X-235707Y-182545D01*
X-236394Y-185109D01*
Y-187763D01*
X-235707Y-190327D01*
X-234380Y-192625D01*
X-232503Y-194502D01*
X-230205Y-195829D01*
X-227641Y-196516D01*
X-224987D01*
X-222423Y-195829D01*
X-220125Y-194502D01*
X-218248Y-192625D01*
X-216921Y-190327D01*
X-216234Y-187763D01*
Y-185109D01*
X-216921Y-182545D01*
X-218248Y-180247D01*
X-220125Y-178370D01*
X-222423Y-177043D01*
X-224987Y-176356D01*
D02*
G37*
G36*
X209550Y-200811D02*
Y-204470D01*
X213209D01*
X212553Y-202885D01*
X211135Y-201467D01*
X209550Y-200811D01*
D02*
G37*
G36*
X207010D02*
X205425Y-201467D01*
X204007Y-202885D01*
X203351Y-204470D01*
X207010D01*
Y-200811D01*
D02*
G37*
G36*
X-146050D02*
Y-204470D01*
X-142391D01*
X-143047Y-202885D01*
X-144465Y-201467D01*
X-146050Y-200811D01*
D02*
G37*
G36*
X-148590D02*
X-150175Y-201467D01*
X-151593Y-202885D01*
X-152249Y-204470D01*
X-148590D01*
Y-200811D01*
D02*
G37*
G36*
X-196850D02*
Y-204470D01*
X-193191D01*
X-193847Y-202885D01*
X-195265Y-201467D01*
X-196850Y-200811D01*
D02*
G37*
G36*
X-199390D02*
X-200975Y-201467D01*
X-202393Y-202885D01*
X-203049Y-204470D01*
X-199390D01*
Y-200811D01*
D02*
G37*
G36*
X-102587Y-189056D02*
X-105241D01*
X-107805Y-189743D01*
X-110103Y-191070D01*
X-111980Y-192947D01*
X-113307Y-195245D01*
X-113994Y-197809D01*
Y-200463D01*
X-113307Y-203027D01*
X-111980Y-205325D01*
X-110103Y-207202D01*
X-107805Y-208529D01*
X-105241Y-209216D01*
X-102587D01*
X-100023Y-208529D01*
X-97725Y-207202D01*
X-95848Y-205325D01*
X-94521Y-203027D01*
X-93834Y-200463D01*
Y-197809D01*
X-94521Y-195245D01*
X-95848Y-192947D01*
X-97725Y-191070D01*
X-100023Y-189743D01*
X-102587Y-189056D01*
D02*
G37*
G36*
X213209Y-207010D02*
X209550D01*
Y-210669D01*
X211135Y-210013D01*
X212553Y-208595D01*
X213209Y-207010D01*
D02*
G37*
G36*
X207010D02*
X203351D01*
X204007Y-208595D01*
X205425Y-210013D01*
X207010Y-210669D01*
Y-207010D01*
D02*
G37*
G36*
X-142391D02*
X-146050D01*
Y-210669D01*
X-144465Y-210013D01*
X-143047Y-208595D01*
X-142391Y-207010D01*
D02*
G37*
G36*
X-148590D02*
X-152249D01*
X-151593Y-208595D01*
X-150175Y-210013D01*
X-148590Y-210669D01*
Y-207010D01*
D02*
G37*
G36*
X-193191D02*
X-196850D01*
Y-210669D01*
X-195265Y-210013D01*
X-193847Y-208595D01*
X-193191Y-207010D01*
D02*
G37*
G36*
X-199390D02*
X-203049D01*
X-202393Y-208595D01*
X-200975Y-210013D01*
X-199390Y-210669D01*
Y-207010D01*
D02*
G37*
G36*
X-22044Y-207996D02*
X-27814D01*
Y-211266D01*
X-22044D01*
Y-207996D01*
D02*
G37*
G36*
X-224987Y-201756D02*
X-227641D01*
X-230205Y-202443D01*
X-232503Y-203770D01*
X-234380Y-205647D01*
X-235707Y-207945D01*
X-236394Y-210509D01*
Y-213163D01*
X-235707Y-215727D01*
X-234380Y-218025D01*
X-232503Y-219902D01*
X-230205Y-221229D01*
X-227641Y-221916D01*
X-224987D01*
X-222423Y-221229D01*
X-220125Y-219902D01*
X-218248Y-218025D01*
X-216921Y-215727D01*
X-216234Y-213163D01*
Y-210509D01*
X-216921Y-207945D01*
X-218248Y-205647D01*
X-220125Y-203770D01*
X-222423Y-202443D01*
X-224987Y-201756D01*
D02*
G37*
G36*
X-102587Y-214456D02*
X-105241D01*
X-107805Y-215143D01*
X-110103Y-216470D01*
X-111980Y-218347D01*
X-113307Y-220645D01*
X-113994Y-223209D01*
Y-225863D01*
X-113307Y-228427D01*
X-111980Y-230725D01*
X-110103Y-232602D01*
X-107805Y-233929D01*
X-105241Y-234616D01*
X-102587D01*
X-100023Y-233929D01*
X-97725Y-232602D01*
X-95848Y-230725D01*
X-94521Y-228427D01*
X-93834Y-225863D01*
Y-223209D01*
X-94521Y-220645D01*
X-95848Y-218347D01*
X-97725Y-216470D01*
X-100023Y-215143D01*
X-102587Y-214456D01*
D02*
G37*
G36*
X31860Y-224680D02*
X21590D01*
Y-234950D01*
X31860D01*
Y-224680D01*
D02*
G37*
G36*
X-22044Y-237806D02*
X-27814D01*
Y-241076D01*
X-22044D01*
Y-237806D01*
D02*
G37*
G36*
X-221274Y-227156D02*
X-231354D01*
X-236394Y-232196D01*
Y-242276D01*
X-231354Y-247316D01*
X-221274D01*
X-216234Y-242276D01*
Y-232196D01*
X-221274Y-227156D01*
D02*
G37*
G36*
X31860Y-237490D02*
X21590D01*
Y-247760D01*
X31860D01*
Y-237490D01*
D02*
G37*
G36*
X-120650Y-251611D02*
Y-255270D01*
X-116991D01*
X-117647Y-253685D01*
X-119065Y-252267D01*
X-120650Y-251611D01*
D02*
G37*
G36*
X-123190D02*
X-124775Y-252267D01*
X-126193Y-253685D01*
X-126849Y-255270D01*
X-123190D01*
Y-251611D01*
D02*
G37*
G36*
X-171450D02*
Y-255270D01*
X-167791D01*
X-168447Y-253685D01*
X-169865Y-252267D01*
X-171450Y-251611D01*
D02*
G37*
G36*
X-173990D02*
X-175575Y-252267D01*
X-176993Y-253685D01*
X-177649Y-255270D01*
X-173990D01*
Y-251611D01*
D02*
G37*
G36*
X-116991Y-257810D02*
X-120650D01*
Y-261469D01*
X-119065Y-260813D01*
X-117647Y-259395D01*
X-116991Y-257810D01*
D02*
G37*
G36*
X-123190D02*
X-126849D01*
X-126193Y-259395D01*
X-124775Y-260813D01*
X-123190Y-261469D01*
Y-257810D01*
D02*
G37*
G36*
X-167791D02*
X-171450D01*
Y-261469D01*
X-169865Y-260813D01*
X-168447Y-259395D01*
X-167791Y-257810D01*
D02*
G37*
G36*
X-173990D02*
X-177649D01*
X-176993Y-259395D01*
X-175575Y-260813D01*
X-173990Y-261469D01*
Y-257810D01*
D02*
G37*
G36*
X-72587Y-252556D02*
X-75241D01*
X-77805Y-253243D01*
X-80103Y-254570D01*
X-81980Y-256447D01*
X-83307Y-258745D01*
X-83994Y-261309D01*
Y-263963D01*
X-83307Y-266527D01*
X-81980Y-268825D01*
X-80103Y-270702D01*
X-77805Y-272029D01*
X-75241Y-272716D01*
X-72587D01*
X-70023Y-272029D01*
X-67725Y-270702D01*
X-65848Y-268825D01*
X-64521Y-266527D01*
X-63834Y-263963D01*
Y-261309D01*
X-64521Y-258745D01*
X-65848Y-256447D01*
X-67725Y-254570D01*
X-70023Y-253243D01*
X-72587Y-252556D01*
D02*
G37*
G36*
X-199587D02*
X-202241D01*
X-204805Y-253243D01*
X-207103Y-254570D01*
X-208980Y-256447D01*
X-210307Y-258745D01*
X-210994Y-261309D01*
Y-263963D01*
X-210307Y-266527D01*
X-208980Y-268825D01*
X-207103Y-270702D01*
X-204805Y-272029D01*
X-202241Y-272716D01*
X-199587D01*
X-197023Y-272029D01*
X-194725Y-270702D01*
X-192848Y-268825D01*
X-191521Y-266527D01*
X-190834Y-263963D01*
Y-261309D01*
X-191521Y-258745D01*
X-192848Y-256447D01*
X-194725Y-254570D01*
X-197023Y-253243D01*
X-199587Y-252556D01*
D02*
G37*
G36*
X-138787Y-275655D02*
X-141441D01*
X-144005Y-276342D01*
X-146303Y-277669D01*
X-148180Y-279545D01*
X-149438Y-281725D01*
X-150114Y-281829D01*
X-150790Y-281725D01*
X-152048Y-279545D01*
X-153925Y-277669D01*
X-156223Y-276342D01*
X-158787Y-275655D01*
X-161441D01*
X-164005Y-276342D01*
X-166303Y-277669D01*
X-168180Y-279545D01*
X-169507Y-281844D01*
X-170194Y-284408D01*
Y-287062D01*
X-169507Y-289625D01*
X-168180Y-291924D01*
X-166303Y-293801D01*
X-164005Y-295128D01*
X-161441Y-295815D01*
X-158787D01*
X-156223Y-295128D01*
X-153925Y-293801D01*
X-152048Y-291924D01*
X-150790Y-289745D01*
X-150114Y-289640D01*
X-149438Y-289745D01*
X-148180Y-291924D01*
X-146303Y-293801D01*
X-144005Y-295128D01*
X-141441Y-295815D01*
X-138787D01*
X-136223Y-295128D01*
X-133925Y-293801D01*
X-132048Y-291924D01*
X-130721Y-289625D01*
X-130034Y-287062D01*
Y-284408D01*
X-130721Y-281844D01*
X-132048Y-279545D01*
X-133925Y-277669D01*
X-136223Y-276342D01*
X-138787Y-275655D01*
D02*
G37*
G36*
X202003Y-246894D02*
X198301D01*
X194671Y-247616D01*
X191252Y-249032D01*
X188174Y-251089D01*
X185557Y-253706D01*
X183500Y-256784D01*
X182084Y-260203D01*
X181362Y-263833D01*
Y-267535D01*
X182084Y-271165D01*
X183500Y-274584D01*
X185557Y-277662D01*
X188174Y-280279D01*
X191252Y-282335D01*
X194671Y-283752D01*
X198301Y-284474D01*
X202003D01*
X205633Y-283752D01*
X209052Y-282335D01*
X212130Y-280279D01*
X214747Y-277662D01*
X216803Y-274584D01*
X218220Y-271165D01*
X218942Y-267535D01*
Y-263833D01*
X218220Y-260203D01*
X216803Y-256784D01*
X214747Y-253706D01*
X212130Y-251089D01*
X209052Y-249032D01*
X205633Y-247616D01*
X202003Y-246894D01*
D02*
G37*
G36*
X209550Y-302411D02*
Y-306070D01*
X213209D01*
X212553Y-304485D01*
X211135Y-303067D01*
X209550Y-302411D01*
D02*
G37*
G36*
X207010D02*
X205425Y-303067D01*
X204007Y-304485D01*
X203351Y-306070D01*
X207010D01*
Y-302411D01*
D02*
G37*
G36*
X213209Y-308610D02*
X209550D01*
Y-312269D01*
X211135Y-311613D01*
X212553Y-310195D01*
X213209Y-308610D01*
D02*
G37*
G36*
X207010D02*
X203351D01*
X204007Y-310195D01*
X205425Y-311613D01*
X207010Y-312269D01*
Y-308610D01*
D02*
G37*
G36*
X21839Y-326280D02*
X18801D01*
X15866Y-327066D01*
X13234Y-328586D01*
X11086Y-330734D01*
X9567Y-333366D01*
X8780Y-336301D01*
Y-339339D01*
X9567Y-342274D01*
X11086Y-344906D01*
X13234Y-347054D01*
X15866Y-348573D01*
X18801Y-349360D01*
X21839D01*
X24774Y-348573D01*
X27406Y-347054D01*
X29554Y-344906D01*
X31074Y-342274D01*
X31860Y-339339D01*
Y-336301D01*
X31074Y-333366D01*
X29554Y-330734D01*
X27406Y-328586D01*
X24774Y-327066D01*
X21839Y-326280D01*
D02*
G37*
G36*
X209550Y-334490D02*
X208259D01*
X203200Y-335291D01*
X198329Y-336874D01*
X193765Y-339199D01*
X189622Y-342210D01*
X186000Y-345832D01*
X182989Y-349975D01*
X180664Y-354539D01*
X179081Y-359410D01*
X178280Y-364469D01*
Y-365760D01*
X209550D01*
Y-334490D01*
D02*
G37*
G36*
X-208259Y-337030D02*
X-209550D01*
Y-368300D01*
X-178280D01*
Y-367009D01*
X-179081Y-361950D01*
X-180664Y-357079D01*
X-182989Y-352515D01*
X-186000Y-348372D01*
X-189622Y-344750D01*
X-193765Y-341739D01*
X-198329Y-339414D01*
X-203200Y-337831D01*
X-208259Y-337030D01*
D02*
G37*
G36*
X-115213Y88646D02*
X-118872D01*
Y84987D01*
X-117287Y85643D01*
X-115869Y87061D01*
X-115213Y88646D01*
D02*
G37*
G36*
X-121412D02*
X-125071D01*
X-124415Y87061D01*
X-122997Y85643D01*
X-121412Y84987D01*
Y88646D01*
D02*
G37*
G36*
X-112572Y79376D02*
X-119122D01*
Y76856D01*
X-112572D01*
Y79376D01*
D02*
G37*
G36*
X128524Y-100989D02*
Y-104648D01*
X132183D01*
X131527Y-103063D01*
X130109Y-101645D01*
X128524Y-100989D01*
D02*
G37*
%LPD*%
D15*
X130556Y-183930D02*
X144618Y-197992D01*
Y-213960D02*
Y-197992D01*
X-45211Y-39307D02*
X-44830Y-39688D01*
X-51511Y-39307D02*
X-45211D01*
X-71515Y-19304D02*
Y-11035D01*
Y-19304D02*
X-51511Y-39307D01*
X-61233Y-211055D02*
X-51822Y-220466D01*
X-45154D02*
X-45084Y-220536D01*
X-51822Y-220466D02*
X-45154D01*
X-61233Y-211055D02*
Y-173717D01*
X-130362Y50606D02*
X-120412D01*
X-135422Y55666D02*
Y78116D01*
Y55666D02*
X-130362Y50606D01*
X-120392Y50586D02*
X-120372Y50566D01*
X-120412Y50606D02*
X-120392Y50586D01*
X-142804Y70034D02*
X-140442Y72396D01*
X-140422Y72376D02*
Y78116D01*
X-148040Y70034D02*
X-142804D01*
X-148572Y70566D02*
X-148040Y70034D01*
X-140422Y28056D02*
Y72376D01*
X-140442Y72396D02*
X-140422Y72376D01*
X-99822Y55626D02*
X-98552Y54356D01*
X-104204Y60606D02*
X-102716Y62094D01*
Y92996D01*
X-120392Y60606D02*
X-104204D01*
X-115590Y55626D02*
X-99822D01*
X-115610Y55606D02*
X-115590Y55626D01*
X-116382Y55606D02*
X-115610D01*
X-145422Y-19438D02*
Y28056D01*
X-135422Y15708D02*
Y28056D01*
X-138828Y9398D02*
X-120396D01*
X-105918Y23876D01*
X-140569Y7657D02*
X-138828Y9398D01*
X-140569Y-34651D02*
Y7657D01*
X-105918Y23876D02*
Y47752D01*
X-166370Y-2540D02*
X-157516D01*
X-171196Y-7366D02*
X-166370Y-2540D01*
X-171196Y-17780D02*
Y-7366D01*
X-157516Y-1814D02*
Y30566D01*
X-160996Y-26884D02*
X-157516Y-23404D01*
X-208490Y-70786D02*
X-164588Y-26884D01*
X-160996D01*
X-150114Y-24130D02*
X-145422Y-19438D01*
X-157516Y-24130D02*
X-150114D01*
X-231015Y-70786D02*
X-208490D01*
X-159764Y-46482D02*
X-152400D01*
X-140569Y-34651D01*
X-135696Y101824D02*
X-127898Y109622D01*
X-105172D01*
X-91922Y96371D01*
X-139446Y101824D02*
X-135696D01*
X-91922Y85572D02*
Y96371D01*
Y85572D02*
X-73914Y67564D01*
X-111290Y101570D02*
X-102716Y92996D01*
X-163576Y101824D02*
X-139446D01*
X-140422Y78116D02*
Y100848D01*
X-139446Y101824D01*
X-155452Y70586D02*
X-155432Y70566D01*
X-148572D01*
X-108732Y50566D02*
X-105918Y47752D01*
X-120372Y50566D02*
X-108732D01*
X-157496Y30586D02*
X-155452D01*
X-157516Y30566D02*
X-157496Y30586D01*
X-130016Y-19812D02*
X-127764Y-22064D01*
Y-42164D02*
Y-22064D01*
X-130016Y-19812D02*
Y1778D01*
X-113538D02*
X-89916Y25400D01*
Y51562D01*
X-73914Y67564D01*
X-130016Y1778D02*
X-113538D01*
X-212852Y-59436D02*
X-171196Y-17780D01*
X-226314Y-59436D02*
X-212852D01*
X-237664Y-64137D02*
X-231015Y-70786D01*
X-237664Y-64137D02*
Y-45386D01*
X-226314Y-34036D01*
X-145422Y78116D02*
Y87412D01*
X-168572Y88900D02*
X-146910D01*
X-175378Y95706D02*
X-168572Y88900D01*
X-146910D02*
X-145422Y87412D01*
X-165278Y55586D02*
X-155452D01*
X-165296Y55568D02*
X-165278Y55586D01*
X-178188Y49142D02*
X-166744Y60586D01*
X-155452D01*
X-187307Y45412D02*
X-183577Y49142D01*
X-178188D01*
X-188040Y45412D02*
X-187307D01*
Y70412D02*
Y96852D01*
X-191516Y101061D02*
X-187307Y96852D01*
Y70412D02*
X-183307D01*
X-178481Y65586D02*
X-155452D01*
X-183307Y70412D02*
X-178481Y65586D01*
X-191770Y41682D02*
X-188040Y45412D01*
X-191770Y16034D02*
Y41682D01*
X111990Y269078D02*
X135250D01*
X148596Y237854D02*
Y268663D01*
X139037Y278222D02*
X148596Y268663D01*
X133500Y248158D02*
X139452Y254110D01*
X144024Y245982D02*
Y266770D01*
X139452Y254110D02*
Y264876D01*
X135250Y269078D02*
X139452Y264876D01*
X137143Y273650D02*
X144024Y266770D01*
X113884Y273650D02*
X137143D01*
X-116332Y345694D02*
X-116078Y345948D01*
X-95342D01*
X-1262Y251868D01*
X-16Y212836D02*
X0Y212852D01*
X-24153Y224368D02*
X-1262D01*
X-5588Y203453D02*
X-16Y209025D01*
X5968Y215807D02*
Y220888D01*
X7112Y199078D02*
Y214664D01*
X5968Y215807D02*
X7112Y214664D01*
X-16Y209025D02*
Y212836D01*
X2488Y224368D02*
X5968Y220888D01*
X7112Y182372D02*
Y199078D01*
X-1262Y224368D02*
X2488D01*
X94488Y121086D02*
Y150406D01*
X77204Y118110D02*
X91512D01*
X94488Y121086D01*
X55663Y99023D02*
X56134Y98552D01*
X63250Y105668D01*
X76946D02*
X77204Y105410D01*
X127992Y98662D02*
X137772D01*
X63250Y105668D02*
X76946D01*
X44387Y99023D02*
X55663D01*
X48367Y22597D02*
Y64629D01*
X55728Y87404D02*
X56199Y86933D01*
X144278Y74099D02*
Y92156D01*
X64530Y85962D02*
X113302D01*
X61976Y92710D02*
X77204D01*
X139706Y75992D02*
Y86758D01*
X133754Y92710D02*
X139706Y86758D01*
X133931Y70217D02*
X139706Y75992D01*
X134621Y64442D02*
X144278Y74099D01*
X114851Y70217D02*
X133931D01*
X113302Y85962D02*
X119254Y80010D01*
X137772Y98662D02*
X144278Y92156D01*
X96866Y34942D02*
X101346Y30462D01*
X125984D01*
X110036Y-19152D02*
X142110D01*
X125984Y59962D02*
X130464Y64442D01*
X134621D01*
X94588Y6150D02*
X139742D01*
X101346Y59962D02*
X104596D01*
X110036Y-172735D02*
Y-149708D01*
X135128Y-179578D02*
Y-135415D01*
X110036Y-172735D02*
X131395Y-194095D01*
X144018Y-163830D02*
Y-107252D01*
X117654Y-80887D02*
X144018Y-107252D01*
X143829Y-239587D02*
Y-239587D01*
X131395Y-227153D02*
Y-194095D01*
X135128Y-179578D02*
X144018Y-188468D01*
X130556Y-183930D02*
Y-137308D01*
X131395Y-227153D02*
X143829Y-239587D01*
X126504Y92710D02*
X133754D01*
X126504Y100150D02*
X127992Y98662D01*
X126504Y100150D02*
Y105410D01*
X119254Y80010D02*
X126504D01*
X134299Y-62671D02*
X144018Y-72390D01*
X135413Y-37369D02*
X144526Y-46482D01*
X142110Y-19152D02*
X143752Y-20795D01*
X143098Y2794D02*
X143764D01*
X139742Y6150D02*
X143098Y2794D01*
X48367Y22597D02*
X78887Y-7922D01*
X84520Y34942D02*
X96866D01*
X39198Y80264D02*
X84520Y34942D01*
X104596Y59962D02*
X114851Y70217D01*
X56199Y86933D02*
X61976Y92710D01*
X56388Y77820D02*
X64530Y85962D01*
X43506Y87404D02*
X55728D01*
X43061Y8903D02*
Y63470D01*
X-57214Y-228536D02*
X-45084D01*
X-29084Y-220536D02*
Y-212536D01*
X-58563Y-236536D02*
X-45084D01*
X-85264Y-140337D02*
X-78615Y-146986D01*
X-85264Y-216537D02*
Y-197786D01*
X-73914Y-186436D01*
Y-161036D02*
X-61233Y-173717D01*
X-29084Y-228536D02*
Y-220536D01*
Y-236536D02*
Y-228536D01*
X-75915Y-225886D02*
X-69213D01*
X-58563Y-236536D01*
X-73914Y-211836D02*
X-57214Y-228536D01*
X-85264Y-216537D02*
X-75915Y-225886D01*
X-48848Y18643D02*
X-7566Y-22639D01*
X103886Y-11382D02*
X108306D01*
X110036Y-9652D01*
X98270Y-16998D02*
X103886Y-11382D01*
X83306Y-7922D02*
X85036Y-9652D01*
X81786Y-19152D02*
X85036D01*
X98270Y-19838D02*
Y-16998D01*
X33917Y-25471D02*
X77418Y-68973D01*
X96116Y-43671D02*
X102418Y-37369D01*
X38489Y-11043D02*
X78887Y-51441D01*
X58517Y-41134D02*
X74419Y-57035D01*
X43061Y8903D02*
X77418Y-25454D01*
X85036Y-152D02*
X88286D01*
X94588Y6150D01*
X58166Y3302D02*
X68194Y-6726D01*
X78887Y-7922D02*
X83306D01*
X92654Y-25454D02*
X98270Y-19838D01*
X68194Y-6730D02*
X77418Y-15954D01*
Y-25454D02*
X92654D01*
X68194Y-6730D02*
Y-6726D01*
X77418Y-15954D02*
X78588D01*
X81786Y-19152D01*
X59008Y-104000D02*
X67500Y-112491D01*
X69859Y-105927D02*
X84773D01*
X69596Y-105664D02*
X69859Y-105927D01*
X67500Y-112491D02*
X92654D01*
X84773Y-105927D02*
X85036Y-106189D01*
X65688Y-96689D02*
X85036D01*
X59008Y-104000D02*
Y-96475D01*
X35403Y-66404D02*
X65688Y-96689D01*
X54436Y-114028D02*
Y-98369D01*
X77418Y-68973D02*
X92654D01*
X33509Y-70976D02*
X59008Y-96475D01*
X92654Y-68973D02*
X98270Y-63357D01*
X80056Y-62673D02*
X85036Y-62671D01*
X98270Y-63357D02*
Y-60517D01*
X103886Y-98419D02*
X108306D01*
X74419Y-57035D02*
X80056Y-62673D01*
X85036Y-43671D02*
X96116D01*
X78887Y-51441D02*
X83306D01*
X85036Y-53171D01*
X98270Y-147554D02*
X103886Y-141938D01*
X108306D01*
X83306Y-138478D02*
X85036Y-140208D01*
X77418Y-156010D02*
X92654D01*
X98270Y-150394D01*
X83306Y-147978D02*
X85036Y-149708D01*
X98270Y-150394D02*
Y-147554D01*
X78382Y-147978D02*
X83306D01*
X-73914Y-8636D02*
X-71515Y-11035D01*
X-47330Y-55688D02*
X-44830D01*
X-29084Y-153224D02*
Y-145224D01*
X-65675Y-153224D02*
X-44830D01*
X-64326Y-145224D02*
X-44830D01*
X-61106Y-134476D02*
X-58358Y-137224D01*
X-29084Y-145224D02*
Y-137224D01*
Y-129224D01*
X-58358Y-137224D02*
X-44830D01*
X13120Y-70976D02*
X33509D01*
X15014Y-66404D02*
X35403D01*
X102418Y-37369D02*
X135413D01*
X102418Y-124406D02*
X125036D01*
X96116Y-130708D02*
X102418Y-124406D01*
X54436Y-114028D02*
X78887Y-138478D01*
X85036Y-130708D02*
X96116D01*
X78887Y-138478D02*
X83306D01*
X49864Y-128456D02*
X77418Y-156010D01*
X60198Y-129794D02*
X78382Y-147978D01*
X135088Y-135375D02*
X135128Y-135415D01*
X126874Y-105538D02*
X127254Y-105918D01*
X130516Y-137268D02*
Y-128196D01*
Y-137268D02*
X130556Y-137308D01*
X126874Y-105538D02*
Y-99608D01*
X135088Y-135375D02*
Y-125690D01*
X117317Y-107919D02*
X135088Y-125690D01*
X110036Y-62671D02*
X134299D01*
X126820Y-124500D02*
X130516Y-128196D01*
X117654Y-90387D02*
X126874Y-99608D01*
X98270Y-60517D02*
X103886Y-54901D01*
X110036Y-87189D02*
X113286D01*
X96116D02*
X102418Y-80887D01*
X85036Y-87189D02*
X96116D01*
X116484Y-90387D02*
X117654D01*
X103886Y-54901D02*
X108306D01*
X110036Y-53171D01*
X113286Y-87189D02*
X116484Y-90387D01*
X102418Y-80887D02*
X117654D01*
X-61106Y-134476D02*
Y-97644D01*
X-78615Y-70786D02*
X-62428D01*
X-73914Y-135636D02*
X-64326Y-145224D01*
X-73914Y-84836D02*
X-61106Y-97644D01*
X-78615Y-146986D02*
X-71913D01*
X-65675Y-153224D01*
X29721Y-80120D02*
X49864Y-100263D01*
X31615Y-75548D02*
X54436Y-98369D01*
X49864Y-128456D02*
Y-100263D01*
X11226Y-75548D02*
X31615D01*
X9333Y-80120D02*
X29721D01*
X-12138Y-45718D02*
X13120Y-70976D01*
X-16710Y-47612D02*
X11226Y-75548D01*
X-21282Y-49505D02*
X9333Y-80120D01*
X-29084Y-47688D02*
Y-39688D01*
X-7566Y-43824D02*
X15014Y-66404D01*
X-29084Y-55688D02*
Y-47688D01*
X-7566Y-43824D02*
Y-22639D01*
X-21282Y-49505D02*
Y-28320D01*
X-16710Y-47612D02*
Y-26426D01*
X-12138Y-45718D02*
Y-24533D01*
X98270Y-104036D02*
X103886Y-98419D01*
X92654Y-112491D02*
X98270Y-106875D01*
Y-104036D01*
X108306Y-98419D02*
X110036Y-96689D01*
Y-106189D02*
X111766Y-107919D01*
X117317D01*
X108306Y-141938D02*
X110036Y-140208D01*
X110087Y-130759D02*
X124155D01*
X110036Y-130708D02*
X110087Y-130759D01*
X125131Y-124500D02*
X126820D01*
X125036Y-124406D02*
X125131Y-124500D01*
X124155Y-130759D02*
X124206Y-130810D01*
X-62428Y-70786D02*
X-47330Y-55688D01*
X-73914Y-59436D02*
X-62166Y-47688D01*
X-44830D01*
X-29084Y-39688D02*
Y-31688D01*
X-35132Y96061D02*
Y146896D01*
X-73914Y143764D02*
X-57992Y127842D01*
X-73914Y118364D02*
X-62564Y107014D01*
Y12962D02*
Y107014D01*
X-39704Y94167D02*
Y145003D01*
X-52832Y158131D02*
X-39704Y145003D01*
X-61976Y154343D02*
X-48848Y141215D01*
X-44276Y75425D02*
Y92273D01*
X-57404Y156237D02*
X-44276Y143109D01*
X-57992Y14856D02*
Y127842D01*
X-39704Y77319D02*
Y94167D01*
X-53420Y16749D02*
Y139321D01*
X-44276Y92273D02*
Y143109D01*
X-48848Y18643D02*
Y141215D01*
X-71913Y157814D02*
X-53420Y139321D01*
X-115040Y101570D02*
X-111290D01*
X-85264Y-45386D02*
X-73914Y-34036D01*
X-85264Y-64137D02*
X-78615Y-70786D01*
X-85264Y-64137D02*
Y-45386D01*
Y-121586D02*
X-73914Y-110236D01*
X-13979Y61976D02*
X31623D01*
X-5588Y140463D02*
X-3302Y138177D01*
X7112Y144838D02*
X7239Y144711D01*
Y130937D02*
X7366Y130810D01*
X-3302Y116616D02*
Y138177D01*
X-5588Y140463D02*
Y144838D01*
X7239Y130937D02*
Y144711D01*
X42926Y100484D02*
X44387Y99023D01*
X35410Y71120D02*
X43061Y63470D01*
X31623Y61976D02*
X33917Y59682D01*
X37304Y75692D02*
X48367Y64629D01*
X33517Y66548D02*
X38489Y61576D01*
X38226Y80264D02*
X39198D01*
X42926Y87984D02*
X43506Y87404D01*
X32376Y86114D02*
X38226Y80264D01*
X32376Y86114D02*
Y94734D01*
X32553Y133403D02*
Y144797D01*
Y133403D02*
X36830Y129126D01*
X32512Y144838D02*
X32553Y144797D01*
X20574Y116616D02*
X22068Y118110D01*
X20574Y106536D02*
Y116616D01*
X-30560Y81106D02*
X-25146Y75692D01*
X-10191Y71120D02*
X35410D01*
X-3302Y116616D02*
X20574D01*
X-35132Y79212D02*
Y96061D01*
X-25146Y75692D02*
X37304D01*
X-28933Y66548D02*
X-12085D01*
X-35132Y79212D02*
X-27040Y71120D01*
X-12085Y66548D02*
X33517D01*
X-27040Y71120D02*
X-10191D01*
X-30827Y61976D02*
X-13979D01*
X20574Y106536D02*
X32376Y94734D01*
X94996Y191262D02*
Y250062D01*
X54974Y267168D02*
X55332Y266810D01*
X91030D01*
X35858Y260858D02*
X76950D01*
X91864Y271540D02*
X109528D01*
X76950Y260858D02*
X84200D01*
X94996Y250062D01*
X77470Y282684D02*
X80720D01*
X91030Y266810D02*
X96982Y260858D01*
X126250D01*
X109528Y271540D02*
X111990Y269078D01*
X104850Y282684D02*
X113884Y273650D01*
X101600Y282684D02*
X104850D01*
X80720Y282684D02*
X91864Y271540D01*
X130210Y278222D02*
X139037D01*
X125730Y282702D02*
X130210Y278222D01*
X126250Y222758D02*
X133500D01*
X148596Y237854D01*
X-5588Y199078D02*
Y203453D01*
X7112Y182372D02*
X19812Y169672D01*
X22068Y118110D02*
X77204D01*
X-62564Y12962D02*
X-21282Y-28320D01*
X-57992Y14856D02*
X-16710Y-26426D01*
X43688Y248212D02*
X44042Y248566D01*
X55880Y248920D02*
X56261Y248539D01*
X55880Y235712D02*
X56007Y235585D01*
X43688Y235712D02*
X55880D01*
X55526Y248566D02*
X55880Y248920D01*
X44042Y248566D02*
X55526D01*
X76569Y248539D02*
X76950Y248158D01*
X56261Y248539D02*
X76569D01*
X56007Y235585D02*
X76823D01*
X76950Y235458D01*
X126250Y248158D02*
X133500D01*
X126250Y235458D02*
X133500D01*
X144024Y245982D01*
X-73914Y194564D02*
X-61976Y182626D01*
X-73914Y169164D02*
X-71913Y167163D01*
X-57404Y156237D02*
Y203454D01*
X21311Y200577D02*
Y208763D01*
X27376Y214828D01*
X36012D01*
X19812Y199078D02*
X21311Y200577D01*
X-43688Y161918D02*
X-30560Y148790D01*
X-24892Y225107D02*
X-24153Y224368D01*
X-48260Y160024D02*
X-35132Y146896D01*
X-43688Y161918D02*
Y265938D01*
X-48260Y160024D02*
Y245110D01*
X-175378Y95706D02*
Y121772D01*
X-167326Y129824D01*
X-163576D01*
X-85264Y-140337D02*
Y-121586D01*
X27118Y252118D02*
X35858Y260858D01*
X-73914Y245364D02*
X-52832Y224282D01*
X-73914Y296164D02*
X-43688Y265938D01*
X-1012Y252118D02*
X23368D01*
X27118D01*
X-1262Y251868D02*
X-1012Y252118D01*
X-73914Y270764D02*
X-48260Y245110D01*
X-71913Y157814D02*
Y167163D01*
X-53420Y16749D02*
X-12138Y-24533D01*
X19812Y144838D02*
Y169672D01*
X-44276Y75425D02*
X-30827Y61976D01*
X-52832Y158131D02*
Y224282D01*
X-30560Y81106D02*
Y148790D01*
X-39704Y77319D02*
X-28933Y66548D01*
X33917Y-25471D02*
Y59682D01*
X38489Y-11043D02*
Y61576D01*
X-61976Y154343D02*
Y182626D01*
X-73914Y219964D02*
X-57404Y203454D01*
D46*
X21050Y-311690D02*
X101423D01*
X167132Y-245980D01*
Y148050D01*
Y231600D02*
X167717D01*
X148844Y213056D02*
X169876D01*
X170434Y213614D01*
X131436Y195648D02*
X148844Y213056D01*
X170434Y213614D02*
Y228883D01*
X167717Y231600D02*
X170434Y228883D01*
X4970Y-185657D02*
X20320Y-170307D01*
X-178816Y-312420D02*
X20320D01*
X-203200Y-288036D02*
X-178816Y-312420D01*
X4970Y-297070D02*
Y-185657D01*
Y-297070D02*
X20320Y-312420D01*
X21050Y-311690D01*
X125996Y148958D02*
X166225D01*
X167132Y148050D01*
X125996Y194958D02*
X126686Y195648D01*
X131436D01*
X-226314Y-288036D02*
X-203200D01*
D47*
X-5868Y145119D02*
Y172492D01*
X-6096Y172720D02*
X-5868Y172492D01*
Y145119D02*
X-5588Y144838D01*
D48*
X-73914Y-288036D02*
D03*
X-150114Y169164D02*
D03*
X-226314Y67564D02*
D03*
D49*
Y-262636D02*
D03*
D50*
Y-288036D02*
D03*
D51*
Y-237236D02*
D03*
X-124714Y169164D02*
D03*
X-73914Y67564D02*
D03*
D52*
X-99314Y169164D02*
D03*
X-175514D02*
D03*
X-200914D02*
D03*
X-226314Y42164D02*
D03*
X-73914D02*
D03*
Y-262636D02*
D03*
Y-237236D02*
D03*
Y-211836D02*
D03*
Y-186436D02*
D03*
Y-161036D02*
D03*
Y-135636D02*
D03*
Y-110236D02*
D03*
Y-84836D02*
D03*
Y-59436D02*
D03*
Y-34036D02*
D03*
Y-8636D02*
D03*
Y16764D02*
D03*
X-200914Y-262636D02*
D03*
X-226314Y16764D02*
D03*
Y-8636D02*
D03*
Y-34036D02*
D03*
Y-59436D02*
D03*
Y-84836D02*
D03*
Y-110236D02*
D03*
Y-135636D02*
D03*
Y-161036D02*
D03*
Y-186436D02*
D03*
Y-211836D02*
D03*
X-73914Y118364D02*
D03*
Y143764D02*
D03*
Y169164D02*
D03*
Y194564D02*
D03*
Y219964D02*
D03*
Y245364D02*
D03*
Y270764D02*
D03*
Y296164D02*
D03*
X-226314Y92964D02*
D03*
Y118364D02*
D03*
Y143764D02*
D03*
Y169164D02*
D03*
Y194564D02*
D03*
Y219964D02*
D03*
Y245364D02*
D03*
Y270764D02*
D03*
Y296164D02*
D03*
X-103914Y-224536D02*
D03*
Y-199136D02*
D03*
Y-173736D02*
D03*
Y-148336D02*
D03*
Y-122936D02*
D03*
X-73914Y92964D02*
D03*
X-160114Y-285735D02*
D03*
X-140114D02*
D03*
D53*
X-200914Y-158336D02*
D03*
X-180914D02*
D03*
X-160914D02*
D03*
X-200914Y-138336D02*
D03*
X-180914D02*
D03*
X-160914D02*
D03*
D54*
X136652Y387096D02*
D03*
D55*
X157652D02*
D03*
X75652D02*
D03*
D56*
X96652D02*
D03*
X116652D02*
D03*
D57*
X20320Y-337820D02*
D03*
Y-261620D02*
D03*
Y-287020D02*
D03*
Y-312420D02*
D03*
Y-195707D02*
D03*
Y-119507D02*
D03*
Y-144907D02*
D03*
Y-170307D02*
D03*
Y-28194D02*
D03*
Y-2794D02*
D03*
Y22606D02*
D03*
Y-53594D02*
D03*
D58*
Y-236220D02*
D03*
Y-94107D02*
D03*
Y48006D02*
D03*
D59*
X-120142Y89916D02*
D03*
X-98552Y54356D02*
D03*
X-135422Y15708D02*
D03*
X208280Y302260D02*
D03*
X182880Y251460D02*
D03*
X208280Y99060D02*
D03*
X182880Y48260D02*
D03*
Y-53340D02*
D03*
X208280Y-205740D02*
D03*
Y-307340D02*
D03*
X157480Y99060D02*
D03*
X132080Y48260D02*
D03*
X81280D02*
D03*
X55880Y302260D02*
D03*
X5080Y99060D02*
D03*
X-20320Y48260D02*
D03*
X-96520Y302260D02*
D03*
X-121920Y251460D02*
D03*
X-96520Y200660D02*
D03*
Y-2540D02*
D03*
Y-104140D02*
D03*
X-121920Y-154940D02*
D03*
Y-256540D02*
D03*
X-147320Y302260D02*
D03*
X-172720Y251460D02*
D03*
X-147320Y200660D02*
D03*
X-172720Y-53340D02*
D03*
X-147320Y-104140D02*
D03*
Y-205740D02*
D03*
X-172720Y-256540D02*
D03*
X-198120Y302260D02*
D03*
Y200660D02*
D03*
Y-104140D02*
D03*
Y-205740D02*
D03*
X-116332Y345694D02*
D03*
X0Y212852D02*
D03*
X-6096Y172720D02*
D03*
X60198Y-129794D02*
D03*
X69596Y-105664D02*
D03*
X124206Y-130810D02*
D03*
X66294Y202946D02*
D03*
X36830Y129126D02*
D03*
X55880Y248920D02*
D03*
Y235712D02*
D03*
X56134Y98552D02*
D03*
Y107950D02*
D03*
X56388Y77820D02*
D03*
X56199Y86933D02*
D03*
X144018Y-163830D02*
D03*
Y-188468D02*
D03*
X144618Y-213960D02*
D03*
X144526Y-46482D02*
D03*
X143829Y-239587D02*
D03*
X144018Y-72390D02*
D03*
X143764Y2794D02*
D03*
X36012Y214828D02*
D03*
X54974Y267168D02*
D03*
X58517Y-41134D02*
D03*
X58166Y3302D02*
D03*
X143752Y-20795D02*
D03*
X127254Y-105918D02*
D03*
X7366Y130810D02*
D03*
D60*
X170434Y213614D02*
D03*
X94996Y172720D02*
D03*
D61*
X210820Y367030D02*
D03*
Y-367030D02*
D03*
X-210820Y367030D02*
D03*
Y-369570D02*
D03*
D62*
X-127764Y-46482D02*
D03*
X-159764D02*
D03*
D63*
X-191516Y101061D02*
D03*
Y130588D02*
D03*
X167132Y148050D02*
D03*
Y177577D02*
D03*
X-191770Y-13493D02*
D03*
Y16034D02*
D03*
D64*
X-187307Y45412D02*
D03*
Y70412D02*
D03*
D65*
X-130422Y28056D02*
D03*
X-135422D02*
D03*
X-140422D02*
D03*
X-145422D02*
D03*
Y78116D02*
D03*
X-140422D02*
D03*
X-135422D02*
D03*
X-130422D02*
D03*
D66*
X-155452Y30586D02*
D03*
Y35586D02*
D03*
Y40586D02*
D03*
Y45586D02*
D03*
Y50586D02*
D03*
Y55586D02*
D03*
Y60586D02*
D03*
Y65586D02*
D03*
Y70586D02*
D03*
Y75586D02*
D03*
X-120392Y30586D02*
D03*
Y35586D02*
D03*
Y40586D02*
D03*
Y45586D02*
D03*
Y50586D02*
D03*
Y55586D02*
D03*
Y60586D02*
D03*
Y65586D02*
D03*
Y70586D02*
D03*
Y75586D02*
D03*
D67*
X77470Y312184D02*
D03*
Y282684D02*
D03*
X101600Y282684D02*
D03*
Y312184D02*
D03*
X125730Y282702D02*
D03*
Y312202D02*
D03*
X101346Y59962D02*
D03*
Y30462D02*
D03*
X125984D02*
D03*
Y59962D02*
D03*
D68*
X76950Y260858D02*
D03*
Y248158D02*
D03*
Y235458D02*
D03*
Y222758D02*
D03*
X126250D02*
D03*
Y235458D02*
D03*
Y248158D02*
D03*
Y260858D02*
D03*
X77204Y118110D02*
D03*
Y105410D02*
D03*
Y92710D02*
D03*
Y80010D02*
D03*
X126504D02*
D03*
Y92710D02*
D03*
Y105410D02*
D03*
Y118110D02*
D03*
D69*
X167132Y231600D02*
D03*
Y259128D02*
D03*
D70*
X45212Y99722D02*
D03*
Y87222D02*
D03*
Y248058D02*
D03*
Y235558D02*
D03*
D71*
X20574Y88616D02*
D03*
Y116616D02*
D03*
X-3302Y88616D02*
D03*
Y116616D02*
D03*
X23368Y224118D02*
D03*
Y252118D02*
D03*
X-163576Y101824D02*
D03*
Y129824D02*
D03*
X-115040Y129570D02*
D03*
Y101570D02*
D03*
X-139446Y129824D02*
D03*
Y101824D02*
D03*
D72*
X-5588Y144838D02*
D03*
X7112D02*
D03*
X19812D02*
D03*
X32512D02*
D03*
Y199078D02*
D03*
X19812D02*
D03*
X7112D02*
D03*
X-5588D02*
D03*
D73*
X110036Y-19152D02*
D03*
Y-9652D02*
D03*
Y-152D02*
D03*
X85036D02*
D03*
Y-9652D02*
D03*
Y-19152D02*
D03*
Y-149708D02*
D03*
Y-140208D02*
D03*
Y-130708D02*
D03*
X110036D02*
D03*
Y-140208D02*
D03*
Y-149708D02*
D03*
X85036Y-106189D02*
D03*
Y-96689D02*
D03*
Y-87189D02*
D03*
X110036D02*
D03*
Y-96689D02*
D03*
Y-106189D02*
D03*
Y-62671D02*
D03*
Y-53171D02*
D03*
Y-43671D02*
D03*
X85036D02*
D03*
Y-53171D02*
D03*
Y-62671D02*
D03*
D74*
X125996Y194958D02*
D03*
Y171958D02*
D03*
Y148958D02*
D03*
D75*
X63996Y171958D02*
D03*
D76*
X-1262Y224368D02*
D03*
Y251868D02*
D03*
D77*
X-24892Y251129D02*
D03*
Y225107D02*
D03*
D78*
X-29084Y-212536D02*
D03*
X-45084D02*
D03*
X-29084Y-220536D02*
D03*
X-45084D02*
D03*
X-29084Y-228536D02*
D03*
X-45084D02*
D03*
X-29084Y-236536D02*
D03*
X-45084D02*
D03*
X-29084Y-31688D02*
D03*
X-45084D02*
D03*
X-29084Y-39688D02*
D03*
X-45084D02*
D03*
X-29084Y-47688D02*
D03*
X-45084D02*
D03*
X-29084Y-55688D02*
D03*
X-45084D02*
D03*
Y-153224D02*
D03*
X-29084D02*
D03*
X-45084Y-145224D02*
D03*
X-29084D02*
D03*
X-45084Y-137224D02*
D03*
X-29084D02*
D03*
X-45084Y-129224D02*
D03*
X-29084D02*
D03*
D79*
X-130016Y-2540D02*
D03*
X-157516D02*
D03*
Y-24130D02*
D03*
X-130016D02*
D03*
M02*
