G04*
G04 #@! TF.GenerationSoftware,Altium Limited,Altium Designer,24.3.1 (35)*
G04*
G04 Layer_Color=16711935*
%FSLAX44Y44*%
%MOMM*%
G71*
G04*
G04 #@! TF.SameCoordinates,D61E4413-AD1B-46AA-9FCE-7A96C032C263*
G04*
G04*
G04 #@! TF.FilePolarity,Negative*
G04*
G01*
G75*
%ADD31R,1.7112X1.7112*%
%ADD32R,1.7112X1.7112*%
%ADD33C,1.8796*%
G04:AMPARAMS|DCode=34|XSize=1.7112mm|YSize=1.7112mm|CornerRadius=0mm|HoleSize=0mm|Usage=FLASHONLY|Rotation=180.000|XOffset=0mm|YOffset=0mm|HoleType=Round|Shape=Octagon|*
%AMOCTAGOND34*
4,1,8,-0.8556,0.4278,-0.8556,-0.4278,-0.4278,-0.8556,0.4278,-0.8556,0.8556,-0.4278,0.8556,0.4278,0.4278,0.8556,-0.4278,0.8556,-0.8556,0.4278,0.0*
%
%ADD34OCTAGOND34*%

%ADD35C,1.7112*%
%ADD36C,1.3112*%
%ADD37R,1.5032X1.5032*%
%ADD38C,2.6932*%
%ADD39C,1.5032*%
%ADD40C,2.0032*%
%ADD41R,2.0032X2.0032*%
%ADD42C,0.2032*%
%ADD43C,0.7032*%
%ADD44C,1.4732*%
%ADD45C,6.2032*%
%ADD62R,1.0000X1.5000*%
%ADD63R,1.8582X1.5055*%
%ADD65R,0.2500X0.9560*%
%ADD66R,1.0560X0.2500*%
%ADD68R,1.9800X0.5300*%
%ADD69R,1.7582X1.3055*%
%ADD71R,1.7000X0.9500*%
%ADD77R,1.6098X0.9561*%
%ADD80R,2.0032X1.2032*%
%ADD81R,2.0032X1.3532*%
%ADD82R,1.0532X0.9032*%
%ADD83R,0.8532X1.7282*%
%ADD84R,1.4532X0.8032*%
%ADD85R,2.0532X1.1032*%
%ADD86R,2.0532X3.4032*%
%ADD87R,1.9032X1.1532*%
%ADD88R,1.1032X0.6032*%
%ADD89R,1.1532X1.9032*%
G36*
X73240Y-260099D02*
X73128Y-260162D01*
X73103Y-260261D01*
X73091Y-283928D01*
X73166Y-284028D01*
X73265Y-284053D01*
X73440Y-284078D01*
X80120Y-284103D01*
X80182Y-284165D01*
X80207Y-284265D01*
X80182Y-284589D01*
X80195Y-290135D01*
X80145Y-290260D01*
X80070Y-290334D01*
X79945Y-290384D01*
X79696Y-290409D01*
X79621Y-290384D01*
X59294Y-290397D01*
X59132Y-290334D01*
X58958Y-290359D01*
X58896Y-290422D01*
X58871Y-290521D01*
X58896Y-290671D01*
X59033Y-290808D01*
X59082Y-290833D01*
X59170Y-290920D01*
X59195Y-290970D01*
X59257Y-291032D01*
X59307Y-291057D01*
X59394Y-291144D01*
X59519Y-291369D01*
X59643Y-291493D01*
X59731Y-291655D01*
X59780Y-291680D01*
X59843Y-291743D01*
X59868Y-291793D01*
X59992Y-291967D01*
X60079Y-292029D01*
X60117Y-292067D01*
X60142Y-292117D01*
X60254Y-292254D01*
X60366Y-292366D01*
X60466Y-292540D01*
X60566Y-292640D01*
X60591Y-292690D01*
X60715Y-292864D01*
X60753Y-292902D01*
X60802Y-292927D01*
X60865Y-292989D01*
X60890Y-293039D01*
X61014Y-293164D01*
X61039Y-293213D01*
X61176Y-293425D01*
X61226Y-293450D01*
X61288Y-293512D01*
X61413Y-293737D01*
X61538Y-293861D01*
X61563Y-293911D01*
X61675Y-294073D01*
X61725Y-294098D01*
X61837Y-294210D01*
X61862Y-294260D01*
X61986Y-294435D01*
X62011Y-294485D01*
X62098Y-294597D01*
X62148Y-294622D01*
X62260Y-294734D01*
X62360Y-294908D01*
X62684Y-295232D01*
X62709Y-295282D01*
X62759Y-295332D01*
X62859Y-295506D01*
X62896Y-295544D01*
X62934Y-295556D01*
X62958Y-295606D01*
X63058Y-295781D01*
X63120Y-295843D01*
X63170Y-295868D01*
X63233Y-295955D01*
X63345Y-296067D01*
X63395Y-296092D01*
X63432Y-296130D01*
X63457Y-296180D01*
X63557Y-296354D01*
X63681Y-296479D01*
X63706Y-296528D01*
X63831Y-296703D01*
X63868Y-296740D01*
X63906Y-296753D01*
X63931Y-296803D01*
X64055Y-296977D01*
X64093Y-297015D01*
X64142Y-297039D01*
X64180Y-297077D01*
X64255Y-297201D01*
X64404Y-297351D01*
X64504Y-297526D01*
X64541Y-297588D01*
X64579Y-297600D01*
X64604Y-297650D01*
X64653Y-297700D01*
X64678Y-297750D01*
X64791Y-297887D01*
X64878Y-297974D01*
X65002Y-298199D01*
X65152Y-298348D01*
X65252Y-298522D01*
X65576Y-298846D01*
X65601Y-298896D01*
X65725Y-299071D01*
X65850Y-299195D01*
X65925Y-299320D01*
X66124Y-299520D01*
X66149Y-299569D01*
X66211Y-299657D01*
X66261Y-299682D01*
X66323Y-299744D01*
X66448Y-299968D01*
X66573Y-300093D01*
X66672Y-300267D01*
X66710Y-300305D01*
X66760Y-300330D01*
X66897Y-300541D01*
X66959Y-300604D01*
X67009Y-300629D01*
X67046Y-300666D01*
X67071Y-300716D01*
X67183Y-300853D01*
X67295Y-300965D01*
X67395Y-301140D01*
X67495Y-301239D01*
X67520Y-301289D01*
X67645Y-301464D01*
X67707Y-301526D01*
X67757Y-301551D01*
X67794Y-301588D01*
X67819Y-301638D01*
X67944Y-301813D01*
X68018Y-301937D01*
X68155Y-302075D01*
X68205Y-302099D01*
X68317Y-302286D01*
X68342Y-302336D01*
X68492Y-302486D01*
X68592Y-302660D01*
X68941Y-303009D01*
X69040Y-303184D01*
X69190Y-303333D01*
X69215Y-303383D01*
X69377Y-303620D01*
X69464Y-303682D01*
X69489Y-303732D01*
X69688Y-303931D01*
X69788Y-304106D01*
X69913Y-304231D01*
X70012Y-304405D01*
X70324Y-304717D01*
X70361Y-304729D01*
X70386Y-304779D01*
X70486Y-304953D01*
X70611Y-305078D01*
X70636Y-305128D01*
X70760Y-305302D01*
X70835Y-305377D01*
X70860Y-305427D01*
X70997Y-305639D01*
X71047Y-305664D01*
X71109Y-305726D01*
X71234Y-305950D01*
X71583Y-306299D01*
X71608Y-306349D01*
X71732Y-306524D01*
X71807Y-306598D01*
X71907Y-306773D01*
X72106Y-306972D01*
X72131Y-307022D01*
X72218Y-307085D01*
X72306Y-307172D01*
X72331Y-307222D01*
X72455Y-307396D01*
X72505Y-307446D01*
X72530Y-307496D01*
X72704Y-307720D01*
X72779Y-307795D01*
X72879Y-307969D01*
X72966Y-308032D01*
X73053Y-308119D01*
X73078Y-308169D01*
X73166Y-308281D01*
X73215Y-308306D01*
X73253Y-308343D01*
X73377Y-308568D01*
X73502Y-308692D01*
X73602Y-308867D01*
X73951Y-309216D01*
X73976Y-309315D01*
X73913Y-309403D01*
X73864Y-309428D01*
X73776Y-309515D01*
X73677Y-309689D01*
X73552Y-309789D01*
X73527Y-309839D01*
X73440Y-309926D01*
X73390Y-309951D01*
X73190Y-310250D01*
X73103Y-310337D01*
X73004Y-310512D01*
X72829Y-310686D01*
X72729Y-310861D01*
X72630Y-310961D01*
X72605Y-311010D01*
X72468Y-311147D01*
X72418Y-311172D01*
X72380Y-311210D01*
X72281Y-311384D01*
X72156Y-311509D01*
X72031Y-311733D01*
X71969Y-311796D01*
X71919Y-311821D01*
X71745Y-312095D01*
X71633Y-312207D01*
X71608Y-312257D01*
X71545Y-312319D01*
X71495Y-312344D01*
X71408Y-312431D01*
X71309Y-312606D01*
X71184Y-312730D01*
X71084Y-312905D01*
X70686Y-313304D01*
X70586Y-313478D01*
X70486Y-313578D01*
X70461Y-313628D01*
X70336Y-313802D01*
X70287Y-313852D01*
X70262Y-313902D01*
X70212Y-313952D01*
X70112Y-314126D01*
X70050Y-314188D01*
X70000Y-314213D01*
X69938Y-314276D01*
X69913Y-314326D01*
X69713Y-314525D01*
X69614Y-314699D01*
X69514Y-314799D01*
X69489Y-314849D01*
X69364Y-315023D01*
X69040Y-315347D01*
X68966Y-315547D01*
X68853Y-315659D01*
X68804Y-315684D01*
X68667Y-315896D01*
X68517Y-316045D01*
X68417Y-316220D01*
X68068Y-316569D01*
X67969Y-316743D01*
X67794Y-316918D01*
X67694Y-317092D01*
X67545Y-317242D01*
X67445Y-317416D01*
X67395Y-317466D01*
X67370Y-317516D01*
X67308Y-317578D01*
X67258Y-317603D01*
X67146Y-317715D01*
X67121Y-317765D01*
X67021Y-317940D01*
X66934Y-318027D01*
X66897Y-318039D01*
X66872Y-318089D01*
X66822Y-318139D01*
X66797Y-318214D01*
X66685Y-318351D01*
X66398Y-318638D01*
X66373Y-318687D01*
X66249Y-318862D01*
X66174Y-318937D01*
X66149Y-318987D01*
X66024Y-319161D01*
X65925Y-319261D01*
X65900Y-319311D01*
X65788Y-319448D01*
X65650Y-319560D01*
X65526Y-319734D01*
X65451Y-319809D01*
X65351Y-319984D01*
X65252Y-320083D01*
X65227Y-320133D01*
X65127Y-320283D01*
X65102Y-320333D01*
X65015Y-320420D01*
X64965Y-320445D01*
X64878Y-320532D01*
X64778Y-320706D01*
X64728Y-320756D01*
X64703Y-320806D01*
X64479Y-321031D01*
X64379Y-321205D01*
X64255Y-321330D01*
X64130Y-321554D01*
X64093Y-321591D01*
X64043Y-321616D01*
X63906Y-321753D01*
X63881Y-321803D01*
X63793Y-321866D01*
X63756Y-321903D01*
X63656Y-322077D01*
X63582Y-322152D01*
X63557Y-322202D01*
X63507Y-322252D01*
X63432Y-322377D01*
X63320Y-322514D01*
X63282Y-322551D01*
X63183Y-322725D01*
X63071Y-322838D01*
X63033Y-322850D01*
X63008Y-322900D01*
X62784Y-323124D01*
X62684Y-323299D01*
X62560Y-323423D01*
X62460Y-323598D01*
X62360Y-323698D01*
X62335Y-323747D01*
X62236Y-323922D01*
X62061Y-324096D01*
X62036Y-324146D01*
X61999Y-324209D01*
X61949Y-324234D01*
X61899Y-324283D01*
X61849Y-324308D01*
X61812Y-324346D01*
X61712Y-324520D01*
X61588Y-324645D01*
X61563Y-324695D01*
X61500Y-324757D01*
X61450Y-324782D01*
X61363Y-324869D01*
X61263Y-325044D01*
X61139Y-325168D01*
X61039Y-325343D01*
X60865Y-325517D01*
X60765Y-325692D01*
X60665Y-325791D01*
X60640Y-325841D01*
X60591Y-325891D01*
X60578Y-325928D01*
X60528Y-325953D01*
X60478Y-326003D01*
X60441Y-326016D01*
X60416Y-326066D01*
X60279Y-326277D01*
X60229Y-326302D01*
X60117Y-326489D01*
X60092Y-326539D01*
X59893Y-326739D01*
X59793Y-326913D01*
X59693Y-327013D01*
X59668Y-327063D01*
X59556Y-327175D01*
X59506Y-327200D01*
X59444Y-327262D01*
X59344Y-327436D01*
X59219Y-327561D01*
X59107Y-327773D01*
X59057Y-327798D01*
X58920Y-327910D01*
X58871Y-328035D01*
X58896Y-328134D01*
X58958Y-328197D01*
X59057Y-328222D01*
X80058Y-328209D01*
X80157Y-328284D01*
X80182Y-328384D01*
X80207Y-347651D01*
X80382Y-347876D01*
X83547Y-351041D01*
X83647Y-351216D01*
X83709Y-351278D01*
X83759Y-351303D01*
X83871Y-351415D01*
X83896Y-351465D01*
X83934Y-351502D01*
X83983Y-351527D01*
X84096Y-351640D01*
X84121Y-351689D01*
X84183Y-351752D01*
X84233Y-351777D01*
X84345Y-351889D01*
X84370Y-351939D01*
X84407Y-351976D01*
X84457Y-352001D01*
X84681Y-352175D01*
X84744Y-352238D01*
X84769Y-352288D01*
X84893Y-352462D01*
X85093Y-352587D01*
X85217Y-352711D01*
X85242Y-352761D01*
X85367Y-352936D01*
X85566Y-353060D01*
X85716Y-353210D01*
X85815Y-353384D01*
X85853Y-353422D01*
X85903Y-353447D01*
X86077Y-353571D01*
X86164Y-353658D01*
X86189Y-353708D01*
X86326Y-353895D01*
X86376Y-353920D01*
X86551Y-354045D01*
X86663Y-354157D01*
X86763Y-354332D01*
X86800Y-354369D01*
X86850Y-354394D01*
X86962Y-354506D01*
X86987Y-354556D01*
X87049Y-354618D01*
X87099Y-354643D01*
X87211Y-354755D01*
X87236Y-354805D01*
X87298Y-354867D01*
X87348Y-354892D01*
X87461Y-355005D01*
X87486Y-355054D01*
X87997Y-355565D01*
X88046Y-355590D01*
X88159Y-355702D01*
X88183Y-355752D01*
X88246Y-355815D01*
X88296Y-355840D01*
X88408Y-355952D01*
X88433Y-356002D01*
X88495Y-356064D01*
X88545Y-356089D01*
X88657Y-356201D01*
X88682Y-356251D01*
X88719Y-356288D01*
X88769Y-356313D01*
X88881Y-356425D01*
X88906Y-356475D01*
X88969Y-356537D01*
X89018Y-356562D01*
X89131Y-356674D01*
X89156Y-356724D01*
X89193Y-356762D01*
X89243Y-356787D01*
X89355Y-356899D01*
X89380Y-356949D01*
X89442Y-357011D01*
X89492Y-357036D01*
X89604Y-357148D01*
X89629Y-357198D01*
X89691Y-357260D01*
X89741Y-357285D01*
X89853Y-357397D01*
X89878Y-357447D01*
X89916Y-357485D01*
X89966Y-357509D01*
X90078Y-357622D01*
X90103Y-357672D01*
X90165Y-357734D01*
X90215Y-357759D01*
X90327Y-357871D01*
X90352Y-357921D01*
X90389Y-357958D01*
X90439Y-357983D01*
X90551Y-358095D01*
X90576Y-358145D01*
X91424Y-358993D01*
X91449Y-359043D01*
X91561Y-359180D01*
X91735Y-359279D01*
X91798Y-359366D01*
X92084Y-359653D01*
X92134Y-359678D01*
X92259Y-359878D01*
X92433Y-360002D01*
X92558Y-360127D01*
X92595Y-360139D01*
X92620Y-360189D01*
X92757Y-360376D01*
X92807Y-360401D01*
X92944Y-360538D01*
X92969Y-360588D01*
X93006Y-360625D01*
X93181Y-360725D01*
X93306Y-360874D01*
X93505Y-361074D01*
X93555Y-361099D01*
X93692Y-361311D01*
X93729Y-361348D01*
X93779Y-361373D01*
X93891Y-361485D01*
X93916Y-361535D01*
X93954Y-361572D01*
X94004Y-361597D01*
X94141Y-361735D01*
X94166Y-361784D01*
X94253Y-361872D01*
X94303Y-361897D01*
X94427Y-362046D01*
X94477Y-362096D01*
X94527Y-362121D01*
X94564Y-362158D01*
X94589Y-362208D01*
X94726Y-362345D01*
X94776Y-362370D01*
X94814Y-362407D01*
X94839Y-362457D01*
X94951Y-362570D01*
X95001Y-362594D01*
X95038Y-362632D01*
X95063Y-362682D01*
X95200Y-362819D01*
X95250Y-362844D01*
X95287Y-362881D01*
X95312Y-362931D01*
X95424Y-363043D01*
X95474Y-363068D01*
X95536Y-363130D01*
X95562Y-363180D01*
X95674Y-363292D01*
X95723Y-363317D01*
X95761Y-363355D01*
X95786Y-363405D01*
X95923Y-363542D01*
X95973Y-363567D01*
X96010Y-363604D01*
X96035Y-363654D01*
X96147Y-363766D01*
X96197Y-363791D01*
X96235Y-363828D01*
X96259Y-363878D01*
X96397Y-364015D01*
X96446Y-364040D01*
X96484Y-364077D01*
X96509Y-364127D01*
X96646Y-364264D01*
X96696Y-364289D01*
X96733Y-364327D01*
X96758Y-364377D01*
X96870Y-364489D01*
X96920Y-364514D01*
X96957Y-364551D01*
X96982Y-364601D01*
X97094Y-364713D01*
X134845Y-364726D01*
X134944Y-364701D01*
X135094Y-364576D01*
X136913Y-362757D01*
X136938Y-362707D01*
X137051Y-362570D01*
X137100Y-362545D01*
X137238Y-362432D01*
X140503Y-359167D01*
X140528Y-359117D01*
X140640Y-358980D01*
X140690Y-358955D01*
X140827Y-358843D01*
X144092Y-355578D01*
X144117Y-355528D01*
X144229Y-355391D01*
X144279Y-355366D01*
X144416Y-355254D01*
X147681Y-351988D01*
X147706Y-351939D01*
X147818Y-351802D01*
X147868Y-351777D01*
X148006Y-351664D01*
X151271Y-348399D01*
X151296Y-348349D01*
X151408Y-348212D01*
X151458Y-348187D01*
X151595Y-348075D01*
X151732Y-347938D01*
X151782Y-347913D01*
X151869Y-347751D01*
X151919Y-347577D01*
X151931Y-328745D01*
X151882Y-328620D01*
X151844Y-328508D01*
X151869Y-328359D01*
X151931Y-328296D01*
X152056Y-328247D01*
X152230Y-328222D01*
X173093Y-328247D01*
X173143Y-328271D01*
X173230Y-328209D01*
X173206Y-328110D01*
X173031Y-327785D01*
X172857Y-327611D01*
X172757Y-327436D01*
X172408Y-327088D01*
X172308Y-326913D01*
X172109Y-326714D01*
X172096Y-326676D01*
X172047Y-326651D01*
X171909Y-326514D01*
X171810Y-326340D01*
X171710Y-326240D01*
X171685Y-326190D01*
X171560Y-326016D01*
X171436Y-325891D01*
X171336Y-325717D01*
X171249Y-325654D01*
X171162Y-325567D01*
X171137Y-325517D01*
X171049Y-325405D01*
X171000Y-325380D01*
X170887Y-325193D01*
X170863Y-325143D01*
X170713Y-324994D01*
X170613Y-324819D01*
X170551Y-324757D01*
X170513Y-324744D01*
X170489Y-324695D01*
X170364Y-324520D01*
X170327Y-324483D01*
X170277Y-324458D01*
X170239Y-324421D01*
X170214Y-324371D01*
X170102Y-324234D01*
X169990Y-324121D01*
X169865Y-323897D01*
X169766Y-323797D01*
X169741Y-323747D01*
X169629Y-323610D01*
X169541Y-323523D01*
X169517Y-323473D01*
X169404Y-323311D01*
X169354Y-323286D01*
X169267Y-323199D01*
X169242Y-323149D01*
X169130Y-323012D01*
X169018Y-322900D01*
X168918Y-322725D01*
X168819Y-322626D01*
X168794Y-322576D01*
X168669Y-322402D01*
X168632Y-322364D01*
X168582Y-322339D01*
X168519Y-322277D01*
X168494Y-322227D01*
X168370Y-322102D01*
X168345Y-322052D01*
X168208Y-321841D01*
X168158Y-321816D01*
X168096Y-321753D01*
X167971Y-321529D01*
X167847Y-321404D01*
X167747Y-321230D01*
X167709Y-321193D01*
X167659Y-321168D01*
X167522Y-321031D01*
X167498Y-320981D01*
X167373Y-320856D01*
X167273Y-320682D01*
X167124Y-320532D01*
X167024Y-320358D01*
X166675Y-320009D01*
X166650Y-319959D01*
X166513Y-319747D01*
X166476Y-319734D01*
X166451Y-319685D01*
X166351Y-319535D01*
X166326Y-319485D01*
X166264Y-319423D01*
X166214Y-319398D01*
X166039Y-319124D01*
X165703Y-318787D01*
X165603Y-318613D01*
X165541Y-318550D01*
X165491Y-318526D01*
X165429Y-318413D01*
X165354Y-318289D01*
X165179Y-318114D01*
X165154Y-318064D01*
X165117Y-318027D01*
X165067Y-318002D01*
X164980Y-317915D01*
X164880Y-317740D01*
X164768Y-317603D01*
X164731Y-317566D01*
X164706Y-317516D01*
X164594Y-317379D01*
X164506Y-317292D01*
X164407Y-317117D01*
X164369Y-317080D01*
X164319Y-317055D01*
X164232Y-316968D01*
X164207Y-316918D01*
X164095Y-316781D01*
X164008Y-316693D01*
X163908Y-316519D01*
X163808Y-316419D01*
X163783Y-316369D01*
X163659Y-316195D01*
X163584Y-316120D01*
X163559Y-316070D01*
X163422Y-315858D01*
X163372Y-315833D01*
X163310Y-315771D01*
X163285Y-315721D01*
X163173Y-315609D01*
X163123Y-315584D01*
X163061Y-315522D01*
X162936Y-315298D01*
X162811Y-315173D01*
X162712Y-314998D01*
X162612Y-314899D01*
X162587Y-314849D01*
X162463Y-314674D01*
X162089Y-314301D01*
X161989Y-314126D01*
X161889Y-314026D01*
X161864Y-313977D01*
X161740Y-313802D01*
X161677Y-313740D01*
X161628Y-313715D01*
X161590Y-313677D01*
X161565Y-313628D01*
X161515Y-313578D01*
X161490Y-313528D01*
X161391Y-313428D01*
X161291Y-313254D01*
X161254Y-313216D01*
X161204Y-313191D01*
X161166Y-313154D01*
X161141Y-313104D01*
X161042Y-312930D01*
X160917Y-312805D01*
X160892Y-312755D01*
X160767Y-312581D01*
X160443Y-312257D01*
X160344Y-312082D01*
X160194Y-311933D01*
X160169Y-311883D01*
X160007Y-311646D01*
X159920Y-311559D01*
X159820Y-311384D01*
X159783Y-311347D01*
X159733Y-311322D01*
X159696Y-311285D01*
X159671Y-311235D01*
X159471Y-311035D01*
X159372Y-310861D01*
X159222Y-310711D01*
X159197Y-310661D01*
X159073Y-310487D01*
X158823Y-310238D01*
X158798Y-310188D01*
X158674Y-310013D01*
X158499Y-309839D01*
X158425Y-309714D01*
X158337Y-309627D01*
X158300Y-309615D01*
X158275Y-309565D01*
X158175Y-309415D01*
X158150Y-309315D01*
X158175Y-309216D01*
X158275Y-309041D01*
X158387Y-308904D01*
X158674Y-308617D01*
X158699Y-308568D01*
X158823Y-308393D01*
X158898Y-308318D01*
X158923Y-308269D01*
X159023Y-308094D01*
X159085Y-308032D01*
X159135Y-308007D01*
X159235Y-307857D01*
X159446Y-307645D01*
X159521Y-307521D01*
X159646Y-307396D01*
X159671Y-307346D01*
X159795Y-307172D01*
X159895Y-307072D01*
X159995Y-306898D01*
X160119Y-306773D01*
X160144Y-306723D01*
X160257Y-306586D01*
X160369Y-306499D01*
X160394Y-306449D01*
X160518Y-306275D01*
X160618Y-306175D01*
X160643Y-306125D01*
X160755Y-305988D01*
X160792Y-305950D01*
X160817Y-305901D01*
X160979Y-305664D01*
X161091Y-305552D01*
X161117Y-305502D01*
X161204Y-305390D01*
X161254Y-305365D01*
X161341Y-305302D01*
X161366Y-305252D01*
X161490Y-305078D01*
X161565Y-305003D01*
X161665Y-304829D01*
X162014Y-304480D01*
X162039Y-304430D01*
X162138Y-304255D01*
X162263Y-304156D01*
X162388Y-303931D01*
X162537Y-303782D01*
X162637Y-303607D01*
X162762Y-303483D01*
X162861Y-303308D01*
X162948Y-303221D01*
X162998Y-303196D01*
X163061Y-303109D01*
X163260Y-302910D01*
X163360Y-302735D01*
X163459Y-302635D01*
X163484Y-302585D01*
X163609Y-302411D01*
X163908Y-302112D01*
X163933Y-302062D01*
X164095Y-301825D01*
X164182Y-301763D01*
X164207Y-301713D01*
X164307Y-301539D01*
X164681Y-301165D01*
X164781Y-300990D01*
X164905Y-300865D01*
X165005Y-300691D01*
X165254Y-300442D01*
X165329Y-300317D01*
X165491Y-300105D01*
X165541Y-300080D01*
X165603Y-300018D01*
X165628Y-299968D01*
X165753Y-299794D01*
X165828Y-299719D01*
X165852Y-299669D01*
X165952Y-299495D01*
X166127Y-299320D01*
X166152Y-299270D01*
X166214Y-299183D01*
X166264Y-299158D01*
X166376Y-299046D01*
X166463Y-298884D01*
X166513Y-298859D01*
X166600Y-298772D01*
X166700Y-298597D01*
X166800Y-298498D01*
X166824Y-298448D01*
X166924Y-298273D01*
X166962Y-298236D01*
X167012Y-298211D01*
X167148Y-298074D01*
X167174Y-298024D01*
X167211Y-297987D01*
X167261Y-297962D01*
X167298Y-297924D01*
X167323Y-297874D01*
X167448Y-297700D01*
X167498Y-297650D01*
X167522Y-297600D01*
X167647Y-297426D01*
X167672Y-297376D01*
X168021Y-297027D01*
X168121Y-296852D01*
X168270Y-296703D01*
X168295Y-296653D01*
X168420Y-296479D01*
X168519Y-296379D01*
X168544Y-296329D01*
X168781Y-296017D01*
X168831Y-295993D01*
X168943Y-295880D01*
X168968Y-295830D01*
X169068Y-295656D01*
X169130Y-295594D01*
X169180Y-295569D01*
X169217Y-295531D01*
X169342Y-295307D01*
X169467Y-295182D01*
X169566Y-295008D01*
X169915Y-294659D01*
X169940Y-294609D01*
X170065Y-294435D01*
X170189Y-294310D01*
X170289Y-294136D01*
X170464Y-293961D01*
X170489Y-293911D01*
X170576Y-293849D01*
X170638Y-293787D01*
X170738Y-293612D01*
X170838Y-293512D01*
X170863Y-293463D01*
X171024Y-293226D01*
X171162Y-293089D01*
X171261Y-292914D01*
X171610Y-292565D01*
X171710Y-292391D01*
X171835Y-292266D01*
X171959Y-292042D01*
X172047Y-291980D01*
X172184Y-291842D01*
X172208Y-291793D01*
X172296Y-291730D01*
X172333Y-291693D01*
X172433Y-291518D01*
X172508Y-291444D01*
X172533Y-291394D01*
X172582Y-291344D01*
X172682Y-291169D01*
X172807Y-291045D01*
X172906Y-290870D01*
X172994Y-290783D01*
X173043Y-290758D01*
X173106Y-290696D01*
X173131Y-290646D01*
X173230Y-290422D01*
X173168Y-290359D01*
X173068Y-290334D01*
X172819Y-290359D01*
X172744Y-290384D01*
X172645Y-290409D01*
X172246Y-290384D01*
X152168Y-290397D01*
X152068Y-290372D01*
X151981Y-290309D01*
X151944Y-290272D01*
X151919Y-290172D01*
X151906Y-284228D01*
X151944Y-284140D01*
X152081Y-284078D01*
X152330Y-284053D01*
X152405Y-284078D01*
X158811Y-284053D01*
X158923Y-283966D01*
X158948Y-283866D01*
X158973Y-283492D01*
X158948Y-283417D01*
X158960Y-280364D01*
X158935Y-280215D01*
X158923Y-280052D01*
X158948Y-279978D01*
X158973Y-279728D01*
X158948Y-279255D01*
X158923Y-279180D01*
X158960Y-278943D01*
X158973Y-278432D01*
X158948Y-278358D01*
X158923Y-278183D01*
X158948Y-278008D01*
X158973Y-277909D01*
X158948Y-277360D01*
X158923Y-277286D01*
X158948Y-277036D01*
X158973Y-276962D01*
Y-276787D01*
Y-276762D01*
X158948Y-276214D01*
X158960Y-273185D01*
X158935Y-273036D01*
X158923Y-272874D01*
X158948Y-272799D01*
X158973Y-272550D01*
X158948Y-272076D01*
X158923Y-272001D01*
X158960Y-271765D01*
X158973Y-271254D01*
X158948Y-271179D01*
X158923Y-271004D01*
X158948Y-270830D01*
X158973Y-270730D01*
X158948Y-270182D01*
X158923Y-270107D01*
X158948Y-269858D01*
X158973Y-269783D01*
X158948Y-268636D01*
X158960Y-265508D01*
X158935Y-265384D01*
X158923Y-265197D01*
X158948Y-265122D01*
X158973Y-264947D01*
X158948Y-264424D01*
X158923Y-264349D01*
X158960Y-264112D01*
X158973Y-263601D01*
X158948Y-263527D01*
X158923Y-263352D01*
X158948Y-263178D01*
X158973Y-263078D01*
X158948Y-262505D01*
X158923Y-262430D01*
X158960Y-262168D01*
X158973Y-261956D01*
X158948Y-261882D01*
X158960Y-260772D01*
X158948Y-260511D01*
X158973Y-260436D01*
X158948Y-260162D01*
X158886Y-260099D01*
X158711Y-260074D01*
X158537Y-260099D01*
X157926Y-260087D01*
X157776Y-260112D01*
X157515Y-260124D01*
X157440Y-260099D01*
X157303Y-260087D01*
X157066Y-260099D01*
X156991Y-260074D01*
X156917Y-260099D01*
X156667Y-260124D01*
X156405Y-260087D01*
X156343Y-260074D01*
X156268Y-260099D01*
X156032Y-260087D01*
X155695Y-260124D01*
X155359Y-260087D01*
X150859Y-260099D01*
X150785Y-260074D01*
X150685Y-260099D01*
X150436Y-260124D01*
X150174Y-260087D01*
X150137Y-260074D01*
X150062Y-260099D01*
X149800Y-260087D01*
X149651Y-260112D01*
X149389Y-260124D01*
X149314Y-260099D01*
X149152Y-260087D01*
X148915Y-260099D01*
X148865Y-260074D01*
X148791Y-260099D01*
X148467Y-260124D01*
X148367Y-260099D01*
X148180Y-260087D01*
X143681Y-260099D01*
X143606Y-260074D01*
X143506Y-260099D01*
X143257Y-260124D01*
X142995Y-260087D01*
X142958Y-260074D01*
X142883Y-260099D01*
X142621Y-260087D01*
X142472Y-260112D01*
X142210Y-260124D01*
X142135Y-260099D01*
X141973Y-260087D01*
X141737Y-260099D01*
X141687Y-260074D01*
X141612Y-260099D01*
X141288Y-260124D01*
X141188Y-260099D01*
X141001Y-260087D01*
X136502Y-260099D01*
X136427Y-260074D01*
X136328Y-260099D01*
X136079Y-260124D01*
X135817Y-260087D01*
X135779Y-260074D01*
X135705Y-260099D01*
X135443Y-260087D01*
X135293Y-260112D01*
X135032Y-260124D01*
X134957Y-260099D01*
X134795Y-260087D01*
X134558Y-260099D01*
X134508Y-260074D01*
X134433Y-260099D01*
X134109Y-260124D01*
X134010Y-260099D01*
X133823Y-260087D01*
X129324Y-260099D01*
X129249Y-260074D01*
X129149Y-260099D01*
X128900Y-260124D01*
X128638Y-260087D01*
X128601Y-260074D01*
X128526Y-260099D01*
X128264Y-260087D01*
X128115Y-260112D01*
X127853Y-260124D01*
X127778Y-260099D01*
X127616Y-260087D01*
X127379Y-260099D01*
X127330Y-260074D01*
X127255Y-260099D01*
X126931Y-260124D01*
X126831Y-260099D01*
X126644Y-260087D01*
X124475Y-260112D01*
X124401Y-260162D01*
X124376Y-260261D01*
X124351Y-283567D01*
X124301Y-283692D01*
X124326Y-283891D01*
X124463Y-284028D01*
X124662Y-284078D01*
X125796Y-284065D01*
X125921Y-284090D01*
X126046Y-284165D01*
X126071Y-284340D01*
X126046Y-284415D01*
X126021Y-290272D01*
X125934Y-290359D01*
X125734Y-290409D01*
X125410Y-290384D01*
X106205Y-290397D01*
X106117Y-290334D01*
X105981Y-290197D01*
X105956Y-290098D01*
X105981Y-289898D01*
X106030Y-289774D01*
X106055Y-289524D01*
X106030Y-289450D01*
X106055Y-289275D01*
X105981Y-289001D01*
X106005Y-288826D01*
X106030Y-288752D01*
X106055Y-288652D01*
X106043Y-288440D01*
X106055Y-288278D01*
X106030Y-288203D01*
X105981Y-288029D01*
X106005Y-287879D01*
X106030Y-287804D01*
X106055Y-287705D01*
X106030Y-287306D01*
X106043Y-284477D01*
X106030Y-284190D01*
X106093Y-284103D01*
X106267Y-284053D01*
X106442Y-284078D01*
X107638Y-284053D01*
X107700Y-283991D01*
X107725Y-283891D01*
X107713Y-283604D01*
X107725Y-260635D01*
X107700Y-260560D01*
X107725Y-260461D01*
X107700Y-260212D01*
X107638Y-260149D01*
X107439Y-260099D01*
X106728Y-260087D01*
X106579Y-260112D01*
X106317Y-260124D01*
X106242Y-260099D01*
X106080Y-260087D01*
X105843Y-260099D01*
X105794Y-260074D01*
X105719Y-260099D01*
X105395Y-260124D01*
X105295Y-260099D01*
X105108Y-260087D01*
X100609Y-260099D01*
X100534Y-260074D01*
X100435Y-260099D01*
X100185Y-260124D01*
X99923Y-260087D01*
X99886Y-260074D01*
X99811Y-260099D01*
X99550Y-260087D01*
X99400Y-260112D01*
X99138Y-260124D01*
X99064Y-260099D01*
X98902Y-260087D01*
X98665Y-260099D01*
X98615Y-260074D01*
X98540Y-260099D01*
X98216Y-260124D01*
X98116Y-260099D01*
X97929Y-260087D01*
X93430Y-260099D01*
X93356Y-260074D01*
X93256Y-260099D01*
X93006Y-260124D01*
X92745Y-260087D01*
X92708Y-260074D01*
X92633Y-260099D01*
X92371Y-260087D01*
X92221Y-260112D01*
X91960Y-260124D01*
X91885Y-260099D01*
X91723Y-260087D01*
X91486Y-260099D01*
X91436Y-260074D01*
X91362Y-260099D01*
X91037Y-260124D01*
X90938Y-260099D01*
X90751Y-260087D01*
X86252Y-260099D01*
X86177Y-260074D01*
X86077Y-260099D01*
X85828Y-260124D01*
X85566Y-260087D01*
X85529Y-260074D01*
X85454Y-260099D01*
X85192Y-260087D01*
X85043Y-260112D01*
X84781Y-260124D01*
X84706Y-260099D01*
X84544Y-260087D01*
X84307Y-260099D01*
X84258Y-260074D01*
X84183Y-260099D01*
X83859Y-260124D01*
X83759Y-260099D01*
X83572Y-260087D01*
X79073Y-260099D01*
X78998Y-260074D01*
X78899Y-260099D01*
X78649Y-260124D01*
X78387Y-260087D01*
X78350Y-260074D01*
X78275Y-260099D01*
X78014Y-260087D01*
X77864Y-260112D01*
X77602Y-260124D01*
X77528Y-260099D01*
X77366Y-260087D01*
X77129Y-260099D01*
X77079Y-260074D01*
X77004Y-260099D01*
X76680Y-260124D01*
X76580Y-260099D01*
X76393Y-260087D01*
X73340Y-260099D01*
X73315Y-260074D01*
X73240Y-260099D01*
D02*
G37*
G36*
X-73164Y-327290D02*
X-75462D01*
Y-324978D01*
X-73164D01*
Y-327290D01*
D02*
G37*
G36*
X-136896Y-335156D02*
X-136910Y-335382D01*
X-136939Y-335593D01*
X-136995Y-335776D01*
X-137051Y-335960D01*
X-137094Y-336101D01*
X-137150Y-336199D01*
X-137178Y-336270D01*
X-137192Y-336298D01*
X-137319Y-336481D01*
X-137460Y-336650D01*
X-137587Y-336791D01*
X-137728Y-336904D01*
X-137841Y-337003D01*
X-137940Y-337073D01*
X-137996Y-337116D01*
X-138024Y-337130D01*
X-138236Y-337228D01*
X-138433Y-337299D01*
X-138630Y-337355D01*
X-138813Y-337383D01*
X-138969Y-337412D01*
X-139081Y-337426D01*
X-144128D01*
Y-338427D01*
X-144114Y-338483D01*
X-144100Y-338497D01*
X-144058Y-338525D01*
X-138419D01*
X-138433Y-340851D01*
X-144142Y-340837D01*
X-144368Y-340823D01*
X-144593Y-340795D01*
X-144791Y-340738D01*
X-144960Y-340682D01*
X-145101Y-340626D01*
X-145213Y-340569D01*
X-145270Y-340541D01*
X-145298Y-340527D01*
X-145481Y-340400D01*
X-145651Y-340273D01*
X-145792Y-340132D01*
X-145904Y-340005D01*
X-146003Y-339893D01*
X-146073Y-339794D01*
X-146116Y-339738D01*
X-146130Y-339709D01*
X-146229Y-339512D01*
X-146313Y-339315D01*
X-146355Y-339117D01*
X-146398Y-338934D01*
X-146412Y-338779D01*
X-146426Y-338666D01*
Y-338582D01*
Y-338553D01*
Y-328079D01*
X-144128D01*
Y-335043D01*
X-144114Y-335100D01*
X-144100Y-335114D01*
X-144058Y-335128D01*
X-139293D01*
X-139236Y-335114D01*
X-139208D01*
X-139194Y-335071D01*
Y-335043D01*
Y-328079D01*
X-136896D01*
Y-335156D01*
D02*
G37*
G36*
X-37442Y-337426D02*
X-46746D01*
X-46986Y-337411D01*
X-47197Y-337383D01*
X-47408Y-337327D01*
X-47578Y-337271D01*
X-47719Y-337214D01*
X-47832Y-337158D01*
X-47888Y-337130D01*
X-47916Y-337116D01*
X-48113Y-336989D01*
X-48283Y-336848D01*
X-48424Y-336721D01*
X-48550Y-336580D01*
X-48649Y-336467D01*
X-48720Y-336368D01*
X-48762Y-336312D01*
X-48776Y-336284D01*
X-48889Y-336072D01*
X-48959Y-335875D01*
X-49016Y-335678D01*
X-49058Y-335494D01*
X-49086Y-335339D01*
X-49100Y-335212D01*
Y-335128D01*
Y-335100D01*
Y-328107D01*
X-49086Y-327868D01*
X-49044Y-327656D01*
X-49001Y-327445D01*
X-48945Y-327276D01*
X-48875Y-327135D01*
X-48832Y-327022D01*
X-48790Y-326966D01*
X-48776Y-326937D01*
X-48649Y-326754D01*
X-48508Y-326585D01*
X-48367Y-326444D01*
X-48226Y-326331D01*
X-48099Y-326233D01*
X-48001Y-326162D01*
X-47944Y-326120D01*
X-47916Y-326106D01*
X-47719Y-325993D01*
X-47507Y-325923D01*
X-47324Y-325866D01*
X-47141Y-325824D01*
X-46986Y-325796D01*
X-46859Y-325782D01*
X-37442D01*
Y-337426D01*
D02*
G37*
G36*
X-52892Y-328065D02*
X-52681Y-328093D01*
X-52484Y-328150D01*
X-52314Y-328206D01*
X-52173Y-328263D01*
X-52075Y-328319D01*
X-52004Y-328347D01*
X-51976Y-328361D01*
X-51793Y-328488D01*
X-51638Y-328615D01*
X-51497Y-328756D01*
X-51370Y-328897D01*
X-51271Y-329010D01*
X-51201Y-329108D01*
X-51158Y-329165D01*
X-51144Y-329193D01*
X-51046Y-329390D01*
X-50961Y-329588D01*
X-50905Y-329785D01*
X-50876Y-329954D01*
X-50848Y-330109D01*
X-50834Y-330236D01*
Y-330307D01*
Y-330321D01*
Y-330335D01*
Y-335156D01*
X-50848Y-335382D01*
X-50876Y-335593D01*
X-50933Y-335776D01*
X-50989Y-335946D01*
X-51046Y-336086D01*
X-51102Y-336199D01*
X-51130Y-336256D01*
X-51144Y-336284D01*
X-51271Y-336467D01*
X-51412Y-336636D01*
X-51553Y-336777D01*
X-51680Y-336890D01*
X-51793Y-336989D01*
X-51891Y-337059D01*
X-51948Y-337101D01*
X-51976Y-337116D01*
X-52173Y-337214D01*
X-52371Y-337299D01*
X-52568Y-337355D01*
X-52737Y-337383D01*
X-52892Y-337411D01*
X-53019Y-337426D01*
X-60350D01*
X-60364Y-335128D01*
X-53231D01*
X-53174Y-335114D01*
X-53160D01*
X-53132Y-335071D01*
Y-335043D01*
Y-333901D01*
X-60364Y-333887D01*
X-60350Y-330335D01*
X-60335Y-330109D01*
X-60307Y-329898D01*
X-60251Y-329701D01*
X-60209Y-329531D01*
X-60152Y-329390D01*
X-60096Y-329278D01*
X-60068Y-329221D01*
X-60054Y-329193D01*
X-59941Y-329010D01*
X-59800Y-328841D01*
X-59659Y-328700D01*
X-59532Y-328573D01*
X-59419Y-328488D01*
X-59321Y-328418D01*
X-59264Y-328375D01*
X-59236Y-328361D01*
X-59039Y-328263D01*
X-58827Y-328178D01*
X-58644Y-328122D01*
X-58461Y-328093D01*
X-58306Y-328065D01*
X-58179Y-328051D01*
X-53118D01*
X-52892Y-328065D01*
D02*
G37*
G36*
X-64043D02*
X-63832Y-328093D01*
X-63648Y-328150D01*
X-63479Y-328206D01*
X-63338Y-328263D01*
X-63225Y-328319D01*
X-63169Y-328347D01*
X-63141Y-328361D01*
X-62958Y-328488D01*
X-62788Y-328615D01*
X-62647Y-328756D01*
X-62535Y-328897D01*
X-62436Y-329010D01*
X-62365Y-329108D01*
X-62323Y-329165D01*
X-62309Y-329193D01*
X-62210Y-329390D01*
X-62126Y-329588D01*
X-62069Y-329785D01*
X-62041Y-329954D01*
X-62013Y-330109D01*
X-61999Y-330236D01*
Y-330307D01*
Y-330321D01*
Y-330335D01*
Y-331604D01*
X-62013Y-331829D01*
X-62041Y-332041D01*
X-62098Y-332238D01*
X-62154Y-332407D01*
X-62210Y-332548D01*
X-62267Y-332647D01*
X-62295Y-332717D01*
X-62309Y-332745D01*
X-62436Y-332929D01*
X-62577Y-333098D01*
X-62704Y-333239D01*
X-62845Y-333352D01*
X-62958Y-333450D01*
X-63056Y-333521D01*
X-63113Y-333563D01*
X-63141Y-333577D01*
X-63338Y-333676D01*
X-63535Y-333760D01*
X-63733Y-333817D01*
X-63902Y-333859D01*
X-64043Y-333873D01*
X-64170Y-333887D01*
X-64240Y-333901D01*
X-69146D01*
X-69174Y-333915D01*
X-69188Y-333930D01*
X-69217Y-333972D01*
Y-333986D01*
Y-335043D01*
X-69202Y-335100D01*
X-69188Y-335114D01*
X-69146Y-335128D01*
X-64395D01*
X-64339Y-335114D01*
X-64311D01*
X-64297Y-335071D01*
Y-335043D01*
Y-334733D01*
X-61999D01*
Y-335156D01*
X-62013Y-335382D01*
X-62041Y-335593D01*
X-62098Y-335776D01*
X-62154Y-335946D01*
X-62210Y-336086D01*
X-62267Y-336199D01*
X-62295Y-336256D01*
X-62309Y-336284D01*
X-62436Y-336467D01*
X-62577Y-336636D01*
X-62704Y-336777D01*
X-62845Y-336890D01*
X-62958Y-336989D01*
X-63056Y-337059D01*
X-63113Y-337101D01*
X-63141Y-337116D01*
X-63338Y-337214D01*
X-63535Y-337299D01*
X-63733Y-337355D01*
X-63902Y-337383D01*
X-64043Y-337411D01*
X-64170Y-337426D01*
X-69231D01*
X-69470Y-337411D01*
X-69682Y-337383D01*
X-69879Y-337327D01*
X-70048Y-337271D01*
X-70189Y-337214D01*
X-70302Y-337158D01*
X-70359Y-337130D01*
X-70387Y-337116D01*
X-70570Y-336989D01*
X-70725Y-336848D01*
X-70880Y-336721D01*
X-70993Y-336580D01*
X-71091Y-336467D01*
X-71162Y-336368D01*
X-71204Y-336312D01*
X-71218Y-336284D01*
X-71331Y-336086D01*
X-71402Y-335889D01*
X-71458Y-335692D01*
X-71500Y-335522D01*
X-71514Y-335382D01*
X-71529Y-335255D01*
Y-335184D01*
Y-335156D01*
Y-333873D01*
X-71514Y-333648D01*
X-71486Y-333436D01*
X-71444Y-333239D01*
X-71373Y-333070D01*
X-71317Y-332929D01*
X-71275Y-332816D01*
X-71233Y-332760D01*
X-71218Y-332731D01*
X-71091Y-332548D01*
X-70950Y-332379D01*
X-70810Y-332238D01*
X-70683Y-332125D01*
X-70570Y-332026D01*
X-70471Y-331956D01*
X-70415Y-331914D01*
X-70387Y-331900D01*
X-70189Y-331801D01*
X-69992Y-331716D01*
X-69795Y-331660D01*
X-69625Y-331618D01*
X-69456Y-331590D01*
X-69344Y-331575D01*
X-64339D01*
X-64311Y-331561D01*
X-64297Y-331505D01*
Y-331491D01*
Y-330448D01*
Y-330405D01*
X-64311Y-330391D01*
Y-330377D01*
X-64367Y-330349D01*
X-69118D01*
X-69174Y-330363D01*
X-69188Y-330377D01*
X-69202Y-330391D01*
X-69217Y-330419D01*
Y-330434D01*
Y-330448D01*
Y-330744D01*
X-71543D01*
X-71529Y-330335D01*
X-71514Y-330109D01*
X-71486Y-329898D01*
X-71444Y-329701D01*
X-71373Y-329531D01*
X-71317Y-329390D01*
X-71275Y-329278D01*
X-71233Y-329221D01*
X-71218Y-329193D01*
X-71091Y-329010D01*
X-70950Y-328841D01*
X-70810Y-328700D01*
X-70683Y-328587D01*
X-70570Y-328488D01*
X-70471Y-328418D01*
X-70415Y-328375D01*
X-70387Y-328361D01*
X-70189Y-328263D01*
X-69992Y-328178D01*
X-69795Y-328122D01*
X-69625Y-328093D01*
X-69456Y-328065D01*
X-69344Y-328051D01*
X-64269D01*
X-64043Y-328065D01*
D02*
G37*
G36*
X-73164Y-337426D02*
X-75462D01*
Y-328051D01*
X-73164D01*
Y-337426D01*
D02*
G37*
G36*
X-87909D02*
X-90221D01*
Y-330448D01*
Y-330405D01*
X-90235Y-330391D01*
X-90249Y-330377D01*
X-90292Y-330349D01*
X-95042D01*
X-95099Y-330363D01*
X-95113Y-330377D01*
X-95127Y-330391D01*
X-95141Y-330419D01*
Y-330434D01*
Y-330448D01*
Y-337426D01*
X-97453D01*
X-97439Y-330335D01*
X-97425Y-330109D01*
X-97396Y-329898D01*
X-97354Y-329701D01*
X-97284Y-329531D01*
X-97227Y-329390D01*
X-97185Y-329278D01*
X-97143Y-329221D01*
X-97129Y-329193D01*
X-97002Y-329010D01*
X-96875Y-328841D01*
X-96734Y-328700D01*
X-96593Y-328587D01*
X-96480Y-328488D01*
X-96382Y-328418D01*
X-96325Y-328375D01*
X-96297Y-328361D01*
X-96100Y-328263D01*
X-95902Y-328178D01*
X-95705Y-328122D01*
X-95536Y-328093D01*
X-95381Y-328065D01*
X-95254Y-328051D01*
X-87909D01*
Y-337426D01*
D02*
G37*
G36*
X-101189Y-328065D02*
X-100977Y-328093D01*
X-100780Y-328150D01*
X-100611Y-328206D01*
X-100470Y-328263D01*
X-100371Y-328319D01*
X-100301Y-328347D01*
X-100272Y-328361D01*
X-100089Y-328488D01*
X-99934Y-328615D01*
X-99793Y-328756D01*
X-99666Y-328897D01*
X-99567Y-329010D01*
X-99497Y-329108D01*
X-99455Y-329165D01*
X-99441Y-329193D01*
X-99342Y-329390D01*
X-99257Y-329588D01*
X-99201Y-329785D01*
X-99173Y-329954D01*
X-99144Y-330109D01*
X-99130Y-330236D01*
Y-330307D01*
Y-330321D01*
Y-330335D01*
Y-335156D01*
X-99144Y-335382D01*
X-99173Y-335593D01*
X-99229Y-335776D01*
X-99285Y-335946D01*
X-99342Y-336086D01*
X-99398Y-336199D01*
X-99426Y-336256D01*
X-99441Y-336284D01*
X-99567Y-336467D01*
X-99708Y-336636D01*
X-99849Y-336777D01*
X-99976Y-336890D01*
X-100089Y-336989D01*
X-100188Y-337059D01*
X-100244Y-337101D01*
X-100272Y-337116D01*
X-100470Y-337214D01*
X-100667Y-337299D01*
X-100864Y-337355D01*
X-101033Y-337383D01*
X-101189Y-337411D01*
X-101315Y-337426D01*
X-108646Y-337426D01*
X-108660Y-335128D01*
X-101527Y-335128D01*
X-101470Y-335114D01*
X-101456D01*
X-101428Y-335071D01*
Y-335043D01*
Y-333901D01*
X-108660Y-333887D01*
X-108646Y-330335D01*
X-108632Y-330109D01*
X-108604Y-329898D01*
X-108547Y-329701D01*
X-108505Y-329531D01*
X-108449Y-329390D01*
X-108392Y-329278D01*
X-108364Y-329221D01*
X-108350Y-329193D01*
X-108237Y-329010D01*
X-108096Y-328841D01*
X-107955Y-328700D01*
X-107828Y-328573D01*
X-107716Y-328488D01*
X-107617Y-328418D01*
X-107560Y-328375D01*
X-107532Y-328361D01*
X-107335Y-328263D01*
X-107123Y-328178D01*
X-106940Y-328122D01*
X-106757Y-328093D01*
X-106602Y-328065D01*
X-106475Y-328051D01*
X-101414D01*
X-101189Y-328065D01*
D02*
G37*
G36*
X-117118Y-328051D02*
X-112184D01*
X-111945Y-328065D01*
X-111733Y-328093D01*
X-111536Y-328150D01*
X-111353Y-328206D01*
X-111212Y-328263D01*
X-111113Y-328319D01*
X-111042Y-328347D01*
X-111014Y-328361D01*
X-110831Y-328488D01*
X-110676Y-328615D01*
X-110535Y-328756D01*
X-110422Y-328897D01*
X-110323Y-329010D01*
X-110253Y-329108D01*
X-110211Y-329165D01*
X-110197Y-329193D01*
X-110098Y-329390D01*
X-110013Y-329588D01*
X-109957Y-329785D01*
X-109929Y-329954D01*
X-109901Y-330109D01*
X-109886Y-330236D01*
Y-330307D01*
Y-330321D01*
Y-330335D01*
Y-335156D01*
X-109901Y-335382D01*
X-109929Y-335593D01*
X-109985Y-335776D01*
X-110042Y-335960D01*
X-110098Y-336101D01*
X-110154Y-336199D01*
X-110183Y-336270D01*
X-110197Y-336298D01*
X-110323Y-336481D01*
X-110450Y-336650D01*
X-110591Y-336791D01*
X-110718Y-336904D01*
X-110831Y-337003D01*
X-110930Y-337073D01*
X-110986Y-337116D01*
X-111014Y-337130D01*
X-111212Y-337228D01*
X-111423Y-337299D01*
X-111620Y-337355D01*
X-111790Y-337383D01*
X-111959Y-337412D01*
X-112072Y-337426D01*
X-119416D01*
X-119430Y-324978D01*
X-117118D01*
Y-328051D01*
D02*
G37*
G36*
X-126281Y-337426D02*
X-133527D01*
X-133753Y-337412D01*
X-133964Y-337383D01*
X-134162Y-337327D01*
X-134331Y-337271D01*
X-134472Y-337214D01*
X-134584Y-337158D01*
X-134641Y-337130D01*
X-134669Y-337116D01*
X-134852Y-336989D01*
X-135021Y-336848D01*
X-135162Y-336721D01*
X-135275Y-336580D01*
X-135374Y-336467D01*
X-135444Y-336368D01*
X-135487Y-336312D01*
X-135501Y-336284D01*
X-135613Y-336087D01*
X-135684Y-335889D01*
X-135740Y-335692D01*
X-135783Y-335523D01*
X-135797Y-335382D01*
X-135811Y-335255D01*
Y-335184D01*
Y-335156D01*
Y-330335D01*
X-135797Y-330109D01*
X-135768Y-329898D01*
X-135726Y-329701D01*
X-135656Y-329531D01*
X-135599Y-329390D01*
X-135557Y-329278D01*
X-135515Y-329221D01*
X-135501Y-329193D01*
X-135374Y-329010D01*
X-135247Y-328841D01*
X-135106Y-328700D01*
X-134965Y-328587D01*
X-134852Y-328488D01*
X-134754Y-328418D01*
X-134697Y-328375D01*
X-134669Y-328361D01*
X-134472Y-328263D01*
X-134274Y-328178D01*
X-134077Y-328122D01*
X-133908Y-328093D01*
X-133753Y-328065D01*
X-133626Y-328051D01*
X-128593D01*
Y-324978D01*
X-126281D01*
Y-337426D01*
D02*
G37*
G36*
X-78732Y-328065D02*
X-78506Y-328093D01*
X-78309Y-328150D01*
X-78140Y-328206D01*
X-77999Y-328263D01*
X-77900Y-328319D01*
X-77830Y-328347D01*
X-77802Y-328361D01*
X-77618Y-328488D01*
X-77449Y-328615D01*
X-77308Y-328756D01*
X-77196Y-328897D01*
X-77097Y-329010D01*
X-77026Y-329108D01*
X-76984Y-329165D01*
X-76970Y-329193D01*
X-76871Y-329390D01*
X-76787Y-329588D01*
X-76730Y-329785D01*
X-76702Y-329954D01*
X-76674Y-330109D01*
X-76660Y-330236D01*
Y-330307D01*
Y-330321D01*
Y-330335D01*
Y-335156D01*
X-76674Y-335382D01*
X-76702Y-335593D01*
X-76758Y-335776D01*
X-76815Y-335960D01*
X-76857Y-336101D01*
X-76914Y-336199D01*
X-76942Y-336270D01*
X-76956Y-336298D01*
X-77083Y-336481D01*
X-77224Y-336650D01*
X-77351Y-336791D01*
X-77491Y-336904D01*
X-77604Y-337003D01*
X-77703Y-337073D01*
X-77759Y-337116D01*
X-77788Y-337130D01*
X-77999Y-337228D01*
X-78196Y-337299D01*
X-78394Y-337355D01*
X-78577Y-337383D01*
X-78732Y-337411D01*
X-78845Y-337426D01*
X-83892D01*
Y-338708D01*
Y-338737D01*
X-83877Y-338765D01*
X-83863Y-338779D01*
X-83821Y-338807D01*
X-78168D01*
X-78196Y-341119D01*
X-83906D01*
X-84131Y-341105D01*
X-84357Y-341077D01*
X-84554Y-341020D01*
X-84723Y-340964D01*
X-84864Y-340908D01*
X-84977Y-340851D01*
X-85033Y-340823D01*
X-85062Y-340809D01*
X-85245Y-340682D01*
X-85414Y-340555D01*
X-85555Y-340414D01*
X-85668Y-340287D01*
X-85766Y-340175D01*
X-85837Y-340076D01*
X-85879Y-340019D01*
X-85893Y-339991D01*
X-85992Y-339794D01*
X-86077Y-339582D01*
X-86119Y-339385D01*
X-86161Y-339216D01*
X-86175Y-339047D01*
X-86189Y-338934D01*
Y-338849D01*
Y-338821D01*
Y-330335D01*
X-86175Y-330109D01*
X-86147Y-329898D01*
X-86105Y-329701D01*
X-86034Y-329531D01*
X-85978Y-329390D01*
X-85936Y-329278D01*
X-85893Y-329221D01*
X-85879Y-329193D01*
X-85752Y-329010D01*
X-85625Y-328841D01*
X-85485Y-328700D01*
X-85358Y-328587D01*
X-85245Y-328488D01*
X-85146Y-328418D01*
X-85090Y-328375D01*
X-85062Y-328361D01*
X-84864Y-328263D01*
X-84667Y-328178D01*
X-84470Y-328122D01*
X-84300Y-328093D01*
X-84131Y-328065D01*
X-84018Y-328051D01*
X-78958D01*
X-78732Y-328065D01*
D02*
G37*
G36*
X-72959Y-352653D02*
Y-352696D01*
Y-352710D01*
X-72945Y-352738D01*
X-72917Y-352752D01*
X-66038D01*
X-66024Y-352738D01*
X-65995Y-352681D01*
Y-352667D01*
Y-352653D01*
Y-351356D01*
X-63669D01*
Y-352766D01*
X-63684Y-353006D01*
X-63712Y-353217D01*
X-63768Y-353429D01*
X-63825Y-353598D01*
X-63881Y-353753D01*
X-63937Y-353852D01*
X-63966Y-353922D01*
X-63980Y-353950D01*
X-64106Y-354133D01*
X-64247Y-354303D01*
X-64388Y-354444D01*
X-64529Y-354556D01*
X-64642Y-354655D01*
X-64741Y-354725D01*
X-64797Y-354768D01*
X-64825Y-354782D01*
X-65023Y-354880D01*
X-65234Y-354965D01*
X-65431Y-355022D01*
X-65601Y-355050D01*
X-65770Y-355078D01*
X-65883Y-355092D01*
X-72987D01*
X-73227Y-355078D01*
X-73439Y-355050D01*
X-73650Y-354993D01*
X-73819Y-354937D01*
X-73960Y-354880D01*
X-74073Y-354824D01*
X-74129Y-354796D01*
X-74158Y-354782D01*
X-74341Y-354655D01*
X-74510Y-354514D01*
X-74651Y-354387D01*
X-74778Y-354246D01*
X-74876Y-354133D01*
X-74947Y-354035D01*
X-74989Y-353978D01*
X-75003Y-353950D01*
X-75116Y-353739D01*
X-75187Y-353541D01*
X-75243Y-353344D01*
X-75285Y-353161D01*
X-75314Y-353006D01*
X-75328Y-352879D01*
Y-352794D01*
Y-352766D01*
Y-343448D01*
X-72973D01*
X-72959Y-352653D01*
D02*
G37*
G36*
X-77076Y-348015D02*
X-84237D01*
X-84251Y-348029D01*
X-84265Y-348044D01*
X-84279Y-348058D01*
X-84293Y-348086D01*
Y-348100D01*
Y-348114D01*
Y-349242D01*
X-77076Y-349256D01*
Y-352822D01*
X-77090Y-353048D01*
X-77118Y-353259D01*
X-77174Y-353443D01*
X-77231Y-353612D01*
X-77287Y-353753D01*
X-77344Y-353866D01*
X-77372Y-353922D01*
X-77386Y-353950D01*
X-77513Y-354133D01*
X-77639Y-354303D01*
X-77780Y-354444D01*
X-77907Y-354556D01*
X-78020Y-354655D01*
X-78119Y-354725D01*
X-78175Y-354768D01*
X-78203Y-354782D01*
X-78401Y-354880D01*
X-78598Y-354965D01*
X-78795Y-355022D01*
X-78979Y-355050D01*
X-79134Y-355078D01*
X-79247Y-355092D01*
X-86605D01*
X-86591Y-348001D01*
X-86577Y-347776D01*
X-86549Y-347564D01*
X-86493Y-347367D01*
X-86450Y-347198D01*
X-86394Y-347057D01*
X-86337Y-346944D01*
X-86309Y-346888D01*
X-86295Y-346859D01*
X-86182Y-346676D01*
X-86041Y-346507D01*
X-85900Y-346366D01*
X-85773Y-346239D01*
X-85661Y-346155D01*
X-85562Y-346084D01*
X-85506Y-346042D01*
X-85478Y-346028D01*
X-85280Y-345929D01*
X-85069Y-345844D01*
X-84885Y-345788D01*
X-84702Y-345760D01*
X-84547Y-345732D01*
X-84420Y-345718D01*
X-77076D01*
Y-348015D01*
D02*
G37*
G36*
X-90299Y-345732D02*
X-90087Y-345760D01*
X-89904Y-345816D01*
X-89735Y-345873D01*
X-89594Y-345929D01*
X-89481Y-345985D01*
X-89425Y-346013D01*
X-89396Y-346028D01*
X-89213Y-346155D01*
X-89044Y-346281D01*
X-88903Y-346422D01*
X-88790Y-346563D01*
X-88692Y-346676D01*
X-88621Y-346775D01*
X-88579Y-346831D01*
X-88565Y-346859D01*
X-88466Y-347057D01*
X-88382Y-347254D01*
X-88325Y-347451D01*
X-88297Y-347621D01*
X-88269Y-347776D01*
X-88255Y-347902D01*
Y-347973D01*
Y-347987D01*
Y-348001D01*
Y-349270D01*
X-88269Y-349496D01*
X-88297Y-349707D01*
X-88353Y-349904D01*
X-88410Y-350074D01*
X-88466Y-350214D01*
X-88522Y-350313D01*
X-88551Y-350384D01*
X-88565Y-350412D01*
X-88692Y-350595D01*
X-88833Y-350764D01*
X-88959Y-350905D01*
X-89100Y-351018D01*
X-89213Y-351117D01*
X-89312Y-351187D01*
X-89368Y-351229D01*
X-89396Y-351244D01*
X-89594Y-351342D01*
X-89791Y-351427D01*
X-89988Y-351483D01*
X-90158Y-351525D01*
X-90299Y-351540D01*
X-90426Y-351554D01*
X-90496Y-351568D01*
X-95402D01*
X-95430Y-351582D01*
X-95444Y-351596D01*
X-95472Y-351638D01*
Y-351652D01*
Y-352710D01*
X-95458Y-352766D01*
X-95444Y-352780D01*
X-95402Y-352794D01*
X-90651D01*
X-90595Y-352780D01*
X-90567D01*
X-90552Y-352738D01*
Y-352710D01*
Y-352399D01*
X-88255D01*
Y-352822D01*
X-88269Y-353048D01*
X-88297Y-353259D01*
X-88353Y-353443D01*
X-88410Y-353612D01*
X-88466Y-353753D01*
X-88522Y-353866D01*
X-88551Y-353922D01*
X-88565Y-353950D01*
X-88692Y-354133D01*
X-88833Y-354303D01*
X-88959Y-354444D01*
X-89100Y-354556D01*
X-89213Y-354655D01*
X-89312Y-354725D01*
X-89368Y-354768D01*
X-89396Y-354782D01*
X-89594Y-354880D01*
X-89791Y-354965D01*
X-89988Y-355022D01*
X-90158Y-355050D01*
X-90299Y-355078D01*
X-90426Y-355092D01*
X-95486D01*
X-95726Y-355078D01*
X-95938Y-355050D01*
X-96135Y-354993D01*
X-96304Y-354937D01*
X-96445Y-354880D01*
X-96558Y-354824D01*
X-96614Y-354796D01*
X-96642Y-354782D01*
X-96826Y-354655D01*
X-96981Y-354514D01*
X-97136Y-354387D01*
X-97248Y-354246D01*
X-97347Y-354133D01*
X-97418Y-354035D01*
X-97460Y-353978D01*
X-97474Y-353950D01*
X-97587Y-353753D01*
X-97657Y-353555D01*
X-97714Y-353358D01*
X-97756Y-353189D01*
X-97770Y-353048D01*
X-97784Y-352921D01*
Y-352851D01*
Y-352822D01*
Y-351540D01*
X-97770Y-351314D01*
X-97742Y-351102D01*
X-97700Y-350905D01*
X-97629Y-350736D01*
X-97573Y-350595D01*
X-97530Y-350482D01*
X-97488Y-350426D01*
X-97474Y-350398D01*
X-97347Y-350214D01*
X-97206Y-350045D01*
X-97065Y-349904D01*
X-96938Y-349791D01*
X-96826Y-349693D01*
X-96727Y-349622D01*
X-96671Y-349580D01*
X-96642Y-349566D01*
X-96445Y-349467D01*
X-96248Y-349383D01*
X-96050Y-349326D01*
X-95881Y-349284D01*
X-95712Y-349256D01*
X-95599Y-349242D01*
X-90595D01*
X-90567Y-349228D01*
X-90552Y-349171D01*
Y-349157D01*
Y-348114D01*
Y-348072D01*
X-90567Y-348058D01*
Y-348044D01*
X-90623Y-348015D01*
X-95374D01*
X-95430Y-348029D01*
X-95444Y-348044D01*
X-95458Y-348058D01*
X-95472Y-348086D01*
Y-348100D01*
Y-348114D01*
Y-348410D01*
X-97798D01*
X-97784Y-348001D01*
X-97770Y-347776D01*
X-97742Y-347564D01*
X-97700Y-347367D01*
X-97629Y-347198D01*
X-97573Y-347057D01*
X-97530Y-346944D01*
X-97488Y-346888D01*
X-97474Y-346859D01*
X-97347Y-346676D01*
X-97206Y-346507D01*
X-97065Y-346366D01*
X-96938Y-346253D01*
X-96826Y-346155D01*
X-96727Y-346084D01*
X-96671Y-346042D01*
X-96642Y-346028D01*
X-96445Y-345929D01*
X-96248Y-345844D01*
X-96050Y-345788D01*
X-95881Y-345760D01*
X-95712Y-345732D01*
X-95599Y-345718D01*
X-90524D01*
X-90299Y-345732D01*
D02*
G37*
G36*
X-101463D02*
X-101252Y-345760D01*
X-101055Y-345816D01*
X-100885Y-345873D01*
X-100744Y-345929D01*
X-100646Y-345985D01*
X-100575Y-346013D01*
X-100547Y-346028D01*
X-100364Y-346155D01*
X-100209Y-346281D01*
X-100068Y-346422D01*
X-99941Y-346563D01*
X-99842Y-346676D01*
X-99772Y-346775D01*
X-99729Y-346831D01*
X-99715Y-346859D01*
X-99617Y-347057D01*
X-99532Y-347254D01*
X-99476Y-347451D01*
X-99448Y-347621D01*
X-99419Y-347776D01*
X-99405Y-347902D01*
Y-347973D01*
Y-347987D01*
Y-348001D01*
Y-352822D01*
X-99419Y-353048D01*
X-99448Y-353259D01*
X-99504Y-353443D01*
X-99560Y-353612D01*
X-99617Y-353753D01*
X-99673Y-353866D01*
X-99701Y-353922D01*
X-99715Y-353950D01*
X-99842Y-354133D01*
X-99983Y-354303D01*
X-100124Y-354444D01*
X-100251Y-354556D01*
X-100364Y-354655D01*
X-100463Y-354725D01*
X-100519Y-354768D01*
X-100547Y-354782D01*
X-100744Y-354880D01*
X-100942Y-354965D01*
X-101139Y-355022D01*
X-101308Y-355050D01*
X-101463Y-355078D01*
X-101590Y-355092D01*
X-106637D01*
X-106877Y-355078D01*
X-107088Y-355050D01*
X-107285Y-354993D01*
X-107455Y-354937D01*
X-107596Y-354881D01*
X-107708Y-354824D01*
X-107765Y-354796D01*
X-107793Y-354782D01*
X-107976Y-354655D01*
X-108131Y-354514D01*
X-108272Y-354387D01*
X-108399Y-354246D01*
X-108484Y-354133D01*
X-108554Y-354035D01*
X-108597Y-353978D01*
X-108611Y-353950D01*
X-108723Y-353753D01*
X-108794Y-353555D01*
X-108850Y-353358D01*
X-108893Y-353189D01*
X-108907Y-353048D01*
X-108921Y-352921D01*
Y-352851D01*
Y-352822D01*
Y-348001D01*
X-108907Y-347776D01*
X-108878Y-347564D01*
X-108822Y-347367D01*
X-108780Y-347198D01*
X-108723Y-347057D01*
X-108667Y-346944D01*
X-108639Y-346888D01*
X-108625Y-346859D01*
X-108512Y-346676D01*
X-108371Y-346507D01*
X-108230Y-346366D01*
X-108103Y-346239D01*
X-107990Y-346155D01*
X-107892Y-346084D01*
X-107835Y-346042D01*
X-107807Y-346028D01*
X-107610Y-345929D01*
X-107398Y-345844D01*
X-107215Y-345788D01*
X-107032Y-345760D01*
X-106877Y-345732D01*
X-106750Y-345718D01*
X-101689D01*
X-101463Y-345732D01*
D02*
G37*
G36*
X-110655Y-355092D02*
X-112967D01*
Y-348114D01*
Y-348072D01*
X-112981Y-348058D01*
X-112995Y-348044D01*
X-113037Y-348015D01*
X-117788D01*
X-117844Y-348029D01*
X-117858Y-348044D01*
X-117872Y-348058D01*
X-117886Y-348086D01*
Y-348100D01*
Y-348114D01*
Y-355092D01*
X-120198D01*
X-120184Y-348001D01*
X-120170Y-347776D01*
X-120142Y-347564D01*
X-120100Y-347367D01*
X-120029Y-347198D01*
X-119973Y-347057D01*
X-119930Y-346944D01*
X-119888Y-346888D01*
X-119874Y-346859D01*
X-119747Y-346676D01*
X-119620Y-346507D01*
X-119479Y-346366D01*
X-119339Y-346253D01*
X-119226Y-346155D01*
X-119127Y-346084D01*
X-119071Y-346042D01*
X-119042Y-346028D01*
X-118845Y-345929D01*
X-118648Y-345844D01*
X-118450Y-345788D01*
X-118281Y-345760D01*
X-118126Y-345732D01*
X-117999Y-345718D01*
X-110655D01*
Y-355092D01*
D02*
G37*
%LPC*%
G36*
X79148Y-265882D02*
X101706Y-265907D01*
X101743Y-265944D01*
X101830Y-266106D01*
X101880Y-266131D01*
X101992Y-266243D01*
X101967Y-266942D01*
X101980Y-277971D01*
X101855Y-278096D01*
X101805Y-278121D01*
X101768Y-278158D01*
X101743Y-278208D01*
X101656Y-278295D01*
X101544Y-278308D01*
X100409Y-278295D01*
X100322Y-278358D01*
X100297Y-278532D01*
X100310Y-290160D01*
X100235Y-290260D01*
X100185Y-290285D01*
X100123Y-290347D01*
X100048Y-290471D01*
X99986Y-290534D01*
X86301Y-290509D01*
X86239Y-290446D01*
X86214Y-290397D01*
X86152Y-290309D01*
X86027Y-290235D01*
X85990Y-290197D01*
X85965Y-290098D01*
X85990Y-289699D01*
Y-282994D01*
Y-282969D01*
X85965Y-278382D01*
X85928Y-278320D01*
X85753Y-278270D01*
X85579Y-278295D01*
X79235Y-278308D01*
X79135Y-278283D01*
X79061Y-278208D01*
X79036Y-278158D01*
X78948Y-278071D01*
X78899Y-278046D01*
X78836Y-277984D01*
X78811Y-277884D01*
X78836Y-277635D01*
X78824Y-266281D01*
X78861Y-266194D01*
X78899Y-266156D01*
X78948Y-266131D01*
X79011Y-266069D01*
X79085Y-265944D01*
X79148Y-265882D01*
D02*
G37*
G36*
X130345D02*
X152903Y-265907D01*
X152966Y-265969D01*
X153041Y-266094D01*
X153103Y-266156D01*
X153153Y-266181D01*
X153215Y-266343D01*
X153190Y-266418D01*
X153202Y-277896D01*
X153178Y-277996D01*
X153128Y-278046D01*
X153078Y-278071D01*
X152941Y-278208D01*
X152916Y-278258D01*
X152879Y-278295D01*
X152741Y-278308D01*
X146360Y-278283D01*
X146149Y-278270D01*
X146061Y-278333D01*
X146036Y-278432D01*
X146111Y-278557D01*
X146198Y-278619D01*
X146236Y-278657D01*
X146248Y-278719D01*
X146223Y-278769D01*
X146173Y-278794D01*
X146036Y-278906D01*
X146061Y-279454D01*
X146099Y-279492D01*
X146149Y-279517D01*
X146236Y-279579D01*
X146211Y-279728D01*
X146061Y-279828D01*
X146036Y-279928D01*
X146061Y-280401D01*
X146124Y-280464D01*
X146173Y-280489D01*
X146236Y-280551D01*
X146211Y-280676D01*
X146173Y-280713D01*
X146124Y-280738D01*
X146061Y-280775D01*
X146036Y-280875D01*
X146061Y-281374D01*
X146099Y-281411D01*
X146223Y-281486D01*
X146236Y-281598D01*
X146149Y-281685D01*
X146099Y-281710D01*
X146036Y-281772D01*
X146061Y-282321D01*
X146124Y-282383D01*
X146173Y-282408D01*
X146236Y-282470D01*
X146211Y-282595D01*
X146173Y-282632D01*
X146061Y-282695D01*
X146036Y-282794D01*
X146061Y-283268D01*
X146149Y-283355D01*
X146198Y-283380D01*
X146236Y-283417D01*
X146211Y-283542D01*
X146173Y-283580D01*
X146124Y-283604D01*
X146036Y-283692D01*
X146061Y-284240D01*
X146099Y-284277D01*
X146149Y-284302D01*
X146236Y-284365D01*
X146211Y-284514D01*
X146061Y-284614D01*
X146036Y-284714D01*
X146061Y-285187D01*
X146124Y-285250D01*
X146173Y-285274D01*
X146236Y-285337D01*
X146211Y-285461D01*
X146173Y-285499D01*
X146124Y-285524D01*
X146061Y-285561D01*
X146036Y-285661D01*
X146061Y-286159D01*
X146099Y-286197D01*
X146223Y-286271D01*
X146236Y-286384D01*
X146149Y-286471D01*
X146099Y-286496D01*
X146036Y-286558D01*
X146061Y-287106D01*
X146124Y-287169D01*
X146173Y-287194D01*
X146236Y-287256D01*
X146211Y-287381D01*
X146061Y-287480D01*
X146036Y-287580D01*
X146061Y-288054D01*
X146149Y-288141D01*
X146198Y-288166D01*
X146236Y-288203D01*
X146211Y-288328D01*
X146173Y-288365D01*
X146124Y-288390D01*
X146036Y-288477D01*
X146061Y-289026D01*
X146099Y-289063D01*
X146149Y-289088D01*
X146236Y-289150D01*
X146211Y-289300D01*
X146074Y-289387D01*
X146036Y-289499D01*
X146061Y-289973D01*
X146124Y-290035D01*
X146173Y-290060D01*
X146236Y-290123D01*
X146211Y-290247D01*
X146173Y-290285D01*
X146049Y-290359D01*
X145986Y-290422D01*
X145962Y-290471D01*
X145800Y-290534D01*
X135206D01*
X132065Y-290509D01*
X131953Y-290422D01*
X131928Y-290372D01*
X131866Y-290309D01*
X131741Y-290235D01*
X131729Y-290123D01*
X131816Y-290035D01*
X131866Y-290010D01*
X131903Y-289973D01*
X131953Y-289848D01*
X131928Y-289674D01*
X131841Y-289587D01*
X131791Y-289562D01*
X131729Y-289499D01*
X131754Y-289375D01*
X131791Y-289337D01*
X131841Y-289312D01*
X131928Y-289225D01*
X131903Y-288677D01*
X131866Y-288639D01*
X131741Y-288565D01*
X131704Y-288502D01*
X131766Y-288415D01*
X131891Y-288340D01*
X131928Y-288228D01*
X131866Y-288141D01*
X131741Y-288066D01*
X131729Y-287979D01*
X131791Y-287917D01*
X131903Y-287854D01*
X131928Y-287754D01*
X131866Y-287667D01*
X131816Y-287642D01*
X131729Y-287580D01*
X131741Y-287468D01*
X131903Y-287381D01*
X131928Y-287281D01*
X131903Y-287231D01*
X131841Y-287169D01*
X131791Y-287144D01*
X131729Y-287106D01*
X131754Y-286982D01*
X131816Y-286919D01*
X131866Y-286895D01*
X131928Y-286832D01*
X131903Y-286284D01*
X131866Y-286246D01*
X131741Y-286172D01*
X131704Y-286110D01*
X131766Y-286022D01*
X131891Y-285947D01*
X131928Y-285835D01*
X131866Y-285748D01*
X131741Y-285673D01*
X131729Y-285586D01*
X131791Y-285524D01*
X131903Y-285461D01*
X131928Y-285362D01*
X131866Y-285274D01*
X131816Y-285250D01*
X131729Y-285187D01*
X131741Y-285075D01*
X131903Y-284988D01*
X131928Y-284888D01*
X131903Y-284838D01*
X131841Y-284776D01*
X131791Y-284751D01*
X131729Y-284714D01*
X131754Y-284589D01*
X131816Y-284527D01*
X131866Y-284502D01*
X131928Y-284439D01*
X131903Y-283891D01*
X131866Y-283854D01*
X131741Y-283779D01*
X131704Y-283717D01*
X131766Y-283629D01*
X131891Y-283554D01*
X131928Y-283442D01*
X131866Y-283355D01*
X131741Y-283280D01*
X131729Y-283193D01*
X131791Y-283131D01*
X131903Y-283069D01*
X131928Y-282969D01*
X131866Y-282882D01*
X131816Y-282857D01*
X131729Y-282794D01*
X131741Y-282682D01*
X131903Y-282595D01*
X131928Y-282495D01*
X131903Y-282445D01*
X131841Y-282383D01*
X131791Y-282358D01*
X131729Y-282321D01*
X131754Y-282196D01*
X131816Y-282134D01*
X131866Y-282109D01*
X131928Y-282047D01*
X131903Y-281498D01*
X131866Y-281461D01*
X131741Y-281386D01*
X131704Y-281324D01*
X131766Y-281236D01*
X131891Y-281162D01*
X131928Y-281049D01*
X131866Y-280962D01*
X131741Y-280888D01*
X131729Y-280800D01*
X131791Y-280738D01*
X131903Y-280676D01*
X131928Y-280576D01*
X131903Y-280526D01*
X131841Y-280464D01*
X131729Y-280401D01*
X131754Y-280277D01*
X131791Y-280239D01*
X131841Y-280215D01*
X131903Y-280177D01*
X131928Y-280077D01*
X131903Y-279604D01*
X131816Y-279517D01*
X131766Y-279492D01*
X131729Y-279454D01*
X131716Y-279392D01*
X131766Y-279317D01*
X131891Y-279242D01*
X131928Y-279205D01*
X131903Y-279080D01*
X131866Y-279043D01*
X131741Y-278968D01*
X131704Y-278906D01*
X131791Y-278794D01*
X131903Y-278731D01*
X131953Y-278557D01*
X131928Y-278482D01*
X131903Y-278382D01*
X131866Y-278320D01*
X131692Y-278270D01*
X131592Y-278295D01*
X130433Y-278308D01*
X130308Y-278258D01*
X130196Y-278096D01*
X130146Y-278071D01*
X130059Y-278008D01*
X130034Y-277909D01*
X130059Y-266219D01*
X130233Y-266044D01*
X130308Y-265919D01*
X130345Y-265882D01*
D02*
G37*
G36*
X110006Y-295594D02*
X110143Y-295631D01*
X110181Y-295669D01*
X110293Y-295681D01*
X110380Y-295644D01*
X110505Y-295594D01*
X110604Y-295619D01*
X110754Y-295693D01*
X110978Y-295594D01*
X111078Y-295619D01*
X111252Y-295693D01*
X111477Y-295594D01*
X111701Y-295693D01*
X111925Y-295594D01*
X112062Y-295631D01*
X112100Y-295669D01*
X112212Y-295681D01*
X112424Y-295594D01*
X112673Y-295693D01*
X112897Y-295594D01*
X112997Y-295619D01*
X113147Y-295693D01*
X113371Y-295594D01*
X113471Y-295619D01*
X113645Y-295693D01*
X113869Y-295594D01*
X114094Y-295693D01*
X114318Y-295594D01*
X114455Y-295631D01*
X114493Y-295669D01*
X114605Y-295681D01*
X114817Y-295594D01*
X115066Y-295693D01*
X115290Y-295594D01*
X115390Y-295619D01*
X115540Y-295693D01*
X115764Y-295594D01*
X115864Y-295619D01*
X116038Y-295693D01*
X116138Y-295644D01*
X116150Y-295631D01*
X116262Y-295594D01*
X116487Y-295693D01*
X116711Y-295594D01*
X116848Y-295631D01*
X116885Y-295669D01*
X116998Y-295681D01*
X117210Y-295594D01*
X117459Y-295693D01*
X117683Y-295594D01*
X117783Y-295619D01*
X117932Y-295693D01*
X118157Y-295594D01*
X118256Y-295619D01*
X118431Y-295693D01*
X118655Y-295594D01*
X118880Y-295693D01*
X119104Y-295594D01*
X119241Y-295631D01*
X119278Y-295669D01*
X119391Y-295681D01*
X119602Y-295594D01*
X119852Y-295693D01*
X120076Y-295594D01*
X120176Y-295619D01*
X120325Y-295693D01*
X120550Y-295594D01*
X120649Y-295619D01*
X120824Y-295693D01*
X121048Y-295594D01*
X121272Y-295693D01*
X121447Y-295619D01*
X121547Y-295594D01*
X121771Y-295693D01*
X121970Y-295669D01*
X122245Y-295793D01*
X122419Y-295818D01*
X122594Y-295918D01*
X122643Y-295968D01*
X122868Y-296092D01*
X122968Y-296192D01*
X123017Y-296217D01*
X123254Y-296379D01*
X123366Y-296516D01*
X123503Y-296628D01*
X123528Y-296678D01*
X123690Y-296915D01*
X123778Y-297002D01*
X123877Y-297176D01*
X124002Y-297301D01*
X124027Y-297401D01*
X124127Y-297575D01*
X124176Y-297625D01*
X124251Y-297800D01*
X124289Y-297937D01*
X124388Y-298086D01*
X124426Y-298124D01*
X124475Y-298248D01*
X124500Y-298348D01*
X124538Y-298510D01*
X124563Y-298635D01*
X124588Y-298734D01*
X124725Y-298996D01*
X124775Y-299495D01*
X124799Y-299569D01*
X124837Y-299706D01*
X124899Y-299844D01*
X124949Y-300043D01*
X124924Y-300217D01*
X124949Y-300292D01*
X124974Y-300541D01*
X124949Y-302585D01*
X124924Y-302660D01*
X124862Y-302822D01*
X124799Y-303034D01*
X124775Y-303134D01*
X124750Y-303308D01*
X124725Y-303632D01*
X124600Y-303807D01*
X124563Y-303944D01*
X124513Y-304193D01*
X124463Y-304393D01*
X124363Y-304542D01*
X124326Y-304580D01*
X124214Y-304891D01*
X124151Y-304953D01*
X124127Y-305053D01*
X124151Y-305128D01*
X124251Y-305352D01*
X124276Y-305527D01*
X124363Y-305639D01*
X124413Y-305664D01*
X124451Y-305701D01*
X124500Y-305876D01*
X124525Y-306175D01*
X124650Y-306349D01*
X124725Y-306524D01*
X124750Y-307047D01*
X124775Y-307122D01*
X124812Y-307284D01*
X124887Y-307483D01*
X124949Y-307695D01*
X124974Y-307945D01*
X124949Y-309988D01*
X124924Y-310063D01*
X124949Y-310138D01*
X124924Y-310312D01*
X124824Y-310412D01*
X124775Y-310537D01*
X124750Y-311010D01*
X124725Y-311085D01*
X124662Y-311372D01*
X124525Y-311633D01*
X124500Y-311733D01*
X124463Y-311920D01*
X124376Y-312057D01*
X124276Y-312282D01*
X124239Y-312468D01*
X124077Y-312631D01*
X124027Y-312755D01*
X123989Y-312892D01*
X123802Y-313079D01*
X123778Y-313179D01*
X123678Y-313353D01*
X123092Y-313939D01*
X122918Y-314039D01*
X122855Y-314101D01*
X122830Y-314151D01*
X122793Y-314188D01*
X122519Y-314288D01*
X122344Y-314413D01*
X122245Y-314438D01*
X121921Y-314463D01*
X121746Y-314487D01*
X121646Y-314513D01*
X121547Y-314487D01*
X109844Y-314500D01*
X109346Y-314425D01*
X109258Y-314363D01*
X109221Y-314326D01*
X109196Y-314276D01*
X109109Y-314188D01*
X109059Y-314163D01*
X108996Y-314101D01*
X108947Y-313977D01*
X108909Y-313839D01*
X108872Y-313802D01*
X108847Y-313752D01*
X108747Y-313603D01*
X108697Y-313254D01*
X108673Y-313154D01*
X108648Y-312755D01*
X108598Y-312631D01*
X108623Y-312331D01*
X108648Y-312257D01*
X108697Y-312082D01*
X108722Y-311758D01*
X108747Y-311609D01*
X108872Y-311434D01*
X109021Y-311160D01*
X109059Y-311122D01*
X109109Y-311098D01*
X109196Y-311010D01*
X109221Y-310961D01*
X109308Y-310873D01*
X109470Y-310811D01*
X109557Y-310749D01*
X109732Y-310674D01*
X109881Y-310699D01*
X110006Y-310749D01*
X110131Y-310724D01*
X110255Y-310674D01*
X110380Y-310699D01*
X110430Y-310749D01*
X110604Y-310724D01*
X110729Y-310674D01*
X110854Y-310699D01*
X110978Y-310749D01*
X111103Y-310724D01*
X111227Y-310674D01*
X111327Y-310699D01*
X111452Y-310749D01*
X111576Y-310724D01*
X111701Y-310674D01*
X111801Y-310699D01*
X111925Y-310749D01*
X112050Y-310724D01*
X112175Y-310674D01*
X112299Y-310699D01*
X112349Y-310749D01*
X112523Y-310724D01*
X112648Y-310674D01*
X112773Y-310699D01*
X112823Y-310749D01*
X112997Y-310724D01*
X113122Y-310674D01*
X113246Y-310699D01*
X113371Y-310749D01*
X113496Y-310724D01*
X113620Y-310674D01*
X113720Y-310699D01*
X113845Y-310749D01*
X113969Y-310724D01*
X114094Y-310674D01*
X114193Y-310699D01*
X114318Y-310749D01*
X114443Y-310724D01*
X114567Y-310674D01*
X114692Y-310699D01*
X114742Y-310749D01*
X114916Y-310724D01*
X115041Y-310674D01*
X115166Y-310699D01*
X115216Y-310749D01*
X115390Y-310724D01*
X115515Y-310674D01*
X115639Y-310699D01*
X115764Y-310749D01*
X115889Y-310724D01*
X116013Y-310674D01*
X116113Y-310699D01*
X116237Y-310749D01*
X116362Y-310724D01*
X116487Y-310674D01*
X116586Y-310699D01*
X116711Y-310749D01*
X116836Y-310724D01*
X116960Y-310674D01*
X117085Y-310699D01*
X117135Y-310749D01*
X117309Y-310724D01*
X117434Y-310674D01*
X117558Y-310699D01*
X117608Y-310749D01*
X117783Y-310724D01*
X117907Y-310674D01*
X118032Y-310699D01*
X118157Y-310749D01*
X118281Y-310724D01*
X118406Y-310674D01*
X118506Y-310699D01*
X118630Y-310749D01*
X118755Y-310724D01*
X118880Y-310674D01*
X118979Y-310699D01*
X119104Y-310749D01*
X119229Y-310724D01*
X119353Y-310674D01*
X119478Y-310699D01*
X119528Y-310749D01*
X119702Y-310724D01*
X119827Y-310674D01*
X119951Y-310699D01*
X120001Y-310749D01*
X120176Y-310724D01*
X120300Y-310674D01*
X120425Y-310699D01*
X120550Y-310749D01*
X120674Y-310724D01*
X120799Y-310674D01*
X120899Y-310699D01*
X121023Y-310749D01*
X121148Y-310724D01*
X121272Y-310674D01*
X121372Y-310699D01*
X121497Y-310749D01*
X121596Y-310724D01*
X121721Y-310649D01*
X121896Y-310624D01*
X122020Y-310574D01*
X122058Y-310537D01*
X122083Y-310487D01*
X122220Y-310350D01*
X122269Y-310325D01*
X122307Y-310287D01*
X122357Y-310163D01*
X122382Y-310063D01*
X122556Y-309789D01*
X122581Y-309615D01*
X122631Y-308941D01*
X122606Y-308144D01*
X122581Y-308069D01*
X122556Y-307969D01*
X122444Y-307832D01*
X122382Y-307695D01*
X122357Y-307596D01*
X122232Y-307371D01*
X122083Y-307247D01*
X122008Y-307172D01*
X121995Y-307134D01*
X121945Y-307110D01*
X121771Y-307035D01*
X121572Y-306985D01*
X121285Y-307022D01*
X121023Y-307035D01*
X120948Y-307010D01*
X120724Y-306985D01*
X120649Y-307010D01*
X120400Y-307035D01*
X120163Y-306997D01*
X120026Y-306985D01*
X119951Y-307010D01*
X119702Y-307035D01*
X119440Y-306997D01*
X119303Y-306985D01*
X119229Y-307010D01*
X118979Y-307035D01*
X118718Y-306997D01*
X118581Y-306985D01*
X118506Y-307010D01*
X118256Y-307035D01*
X117995Y-306997D01*
X117858Y-306985D01*
X117783Y-307010D01*
X117534Y-307035D01*
X117272Y-306997D01*
X117135Y-306985D01*
X117060Y-307010D01*
X116811Y-307035D01*
X116574Y-306997D01*
X116437Y-306985D01*
X116362Y-307010D01*
X116113Y-307035D01*
X115851Y-306997D01*
X115714Y-306985D01*
X115639Y-307010D01*
X115390Y-307035D01*
X115128Y-306997D01*
X114991Y-306985D01*
X114916Y-307010D01*
X114667Y-307035D01*
X114405Y-306997D01*
X114268Y-306985D01*
X114193Y-307010D01*
X113944Y-307035D01*
X113683Y-306997D01*
X113546Y-306985D01*
X113471Y-307010D01*
X113222Y-307035D01*
X112985Y-306997D01*
X112848Y-306985D01*
X112773Y-307010D01*
X112523Y-307035D01*
X112262Y-306997D01*
X112125Y-306985D01*
X112050Y-307010D01*
X111801Y-307035D01*
X111539Y-306997D01*
X111402Y-306985D01*
X111327Y-307010D01*
X111078Y-307035D01*
X110816Y-306997D01*
X110679Y-306985D01*
X110604Y-307010D01*
X110355Y-307035D01*
X110118Y-306997D01*
X109981Y-306985D01*
X109906Y-307010D01*
X109657Y-307035D01*
X109483Y-306935D01*
X109433Y-306860D01*
X109383Y-306835D01*
X109208Y-306736D01*
X109096Y-306623D01*
X109084Y-306586D01*
X109046Y-306574D01*
X109021Y-306524D01*
X108972Y-306474D01*
X108947Y-306374D01*
X108847Y-306200D01*
X108772Y-306125D01*
X108722Y-305950D01*
X108697Y-305552D01*
X108673Y-305477D01*
X108648Y-305377D01*
X108598Y-305203D01*
X108623Y-304928D01*
X108673Y-304804D01*
X108697Y-304330D01*
X108722Y-304255D01*
X108747Y-304056D01*
X108922Y-303882D01*
X108972Y-303757D01*
X109071Y-303582D01*
X109158Y-303495D01*
X109208Y-303470D01*
X109383Y-303346D01*
X109483Y-303246D01*
X109582Y-303221D01*
X109732Y-303196D01*
X109807Y-303221D01*
X121484Y-303209D01*
X121746Y-303221D01*
X121871Y-303146D01*
X122307Y-302710D01*
X122357Y-302585D01*
X122457Y-302411D01*
X122506Y-302361D01*
X122531Y-302311D01*
X122581Y-302187D01*
X122606Y-301738D01*
X122631Y-301663D01*
X122656Y-301563D01*
X122631Y-301389D01*
X122606Y-300766D01*
X122581Y-300691D01*
X122556Y-300442D01*
X122444Y-300305D01*
X122382Y-300168D01*
X122307Y-299968D01*
X122182Y-299844D01*
X122157Y-299794D01*
X122070Y-299657D01*
X121646Y-299457D01*
X121547Y-299482D01*
X109632Y-299457D01*
X109508Y-299407D01*
X109408Y-299382D01*
X109283Y-299308D01*
X109196Y-299220D01*
X109171Y-299171D01*
X109134Y-299133D01*
X109084Y-299108D01*
X108996Y-299021D01*
X108947Y-298896D01*
X108884Y-298734D01*
X108822Y-298647D01*
X108722Y-298423D01*
X108685Y-298136D01*
X108648Y-297675D01*
X108598Y-297550D01*
X108623Y-297251D01*
X108673Y-297127D01*
X108722Y-296778D01*
X108797Y-296479D01*
X108996Y-296105D01*
X109059Y-296042D01*
X109109Y-296017D01*
X109196Y-295930D01*
X109221Y-295880D01*
X109283Y-295818D01*
X109607Y-295669D01*
X109782Y-295693D01*
X110006Y-295594D01*
D02*
G37*
G36*
X81416Y-305066D02*
X81615Y-305090D01*
X81690Y-305115D01*
X82126Y-305103D01*
X82388Y-305115D01*
X82463Y-305090D01*
X82862Y-305115D01*
X82936Y-305090D01*
X83360Y-305115D01*
X83435Y-305090D01*
X83834Y-305115D01*
X83909Y-305090D01*
X84307Y-305115D01*
X84382Y-305090D01*
X84781Y-305115D01*
X84856Y-305090D01*
X85255Y-305115D01*
X85329Y-305090D01*
X85753Y-305115D01*
X85828Y-305090D01*
X86227Y-305115D01*
X86426Y-305066D01*
X86663Y-305103D01*
X87012Y-305128D01*
X87112Y-305153D01*
X87274Y-305315D01*
X87324Y-305340D01*
X87498Y-305464D01*
X87573Y-305539D01*
X87623Y-305564D01*
X87797Y-305664D01*
X87859Y-305726D01*
X87884Y-305776D01*
X88233Y-305950D01*
X88321Y-306038D01*
X88495Y-306137D01*
X88670Y-306312D01*
X88844Y-306411D01*
X88944Y-306511D01*
X89118Y-306611D01*
X89218Y-306711D01*
X89268Y-306736D01*
X89442Y-306810D01*
X89567Y-306885D01*
X89691Y-307010D01*
X89866Y-307110D01*
X89991Y-307234D01*
X90215Y-307359D01*
X90277Y-307446D01*
X90315Y-307483D01*
X90551Y-307571D01*
X90589Y-307608D01*
X90639Y-307633D01*
X90738Y-307733D01*
X90913Y-307832D01*
X91037Y-307957D01*
X91262Y-308082D01*
X91299Y-308119D01*
X91324Y-308169D01*
X91362Y-308206D01*
X91498Y-308244D01*
X91623Y-308293D01*
X91698Y-308368D01*
X91723Y-308418D01*
X91910Y-308530D01*
X91960Y-308555D01*
X92084Y-308680D01*
X92259Y-308780D01*
X92383Y-308904D01*
X92620Y-308991D01*
X92757Y-309128D01*
X92807Y-309153D01*
X92982Y-309278D01*
X93056Y-309353D01*
X93106Y-309378D01*
X93156Y-309428D01*
X93480Y-309577D01*
X93804Y-309403D01*
X93891Y-309315D01*
X93916Y-309265D01*
X93979Y-309203D01*
X94078Y-309178D01*
X94253Y-309079D01*
X94353Y-308979D01*
X94402Y-308954D01*
X94577Y-308829D01*
X94652Y-308755D01*
X94776Y-308705D01*
X94951Y-308605D01*
X95050Y-308505D01*
X95225Y-308406D01*
X95374Y-308256D01*
X95549Y-308156D01*
X95674Y-308032D01*
X95898Y-307907D01*
X95998Y-307807D01*
X96235Y-307720D01*
X96421Y-307533D01*
X96596Y-307433D01*
X96696Y-307334D01*
X96746Y-307309D01*
X96957Y-307172D01*
X96982Y-307122D01*
X97094Y-307060D01*
X97219Y-307010D01*
X97344Y-306935D01*
X97443Y-306835D01*
X97493Y-306810D01*
X97668Y-306686D01*
X97743Y-306611D01*
X97867Y-306561D01*
X98091Y-306437D01*
X98191Y-306337D01*
X98366Y-306237D01*
X98490Y-306112D01*
X98665Y-306013D01*
X98814Y-305863D01*
X98989Y-305763D01*
X99088Y-305664D01*
X99325Y-305576D01*
X99363Y-305539D01*
X99400Y-305527D01*
X99425Y-305477D01*
X99512Y-305390D01*
X99737Y-305265D01*
X99836Y-305165D01*
X100011Y-305115D01*
X100185Y-305090D01*
X100509Y-305115D01*
X100758Y-305090D01*
X100858Y-305115D01*
X101270Y-305103D01*
X101531Y-305115D01*
X101606Y-305090D01*
X102005Y-305115D01*
X102080Y-305090D01*
X102503Y-305115D01*
X102578Y-305090D01*
X102977Y-305115D01*
X103052Y-305090D01*
X103450Y-305115D01*
X103525Y-305090D01*
X103924Y-305115D01*
X103999Y-305090D01*
X104398Y-305115D01*
X104473Y-305090D01*
X104896Y-305115D01*
X104971Y-305090D01*
X105370Y-305115D01*
X105569Y-305066D01*
X105806Y-305103D01*
X105906Y-305128D01*
X106030Y-305178D01*
X106055Y-305228D01*
X106080Y-305302D01*
X106105Y-305402D01*
X106080Y-305477D01*
X106055Y-305527D01*
X105993Y-305589D01*
X105968D01*
X105956Y-305602D01*
X105819Y-305689D01*
X105694Y-305813D01*
X105519Y-305913D01*
X105420Y-306013D01*
X105170Y-306112D01*
X105108Y-306150D01*
X105083Y-306200D01*
X104996Y-306287D01*
X104771Y-306411D01*
X104672Y-306511D01*
X104572Y-306536D01*
X104447Y-306611D01*
X104385Y-306673D01*
X104360Y-306723D01*
X104298Y-306785D01*
X104099Y-306860D01*
X103999Y-306960D01*
X103824Y-307035D01*
X103700Y-307110D01*
X103625Y-307234D01*
X103575Y-307259D01*
X103450Y-307309D01*
X103326Y-307384D01*
X103226Y-307483D01*
X103052Y-307583D01*
X102927Y-307708D01*
X102802Y-307758D01*
X102591Y-307870D01*
X102578Y-307907D01*
X102528Y-307932D01*
X102478Y-307982D01*
X102304Y-308082D01*
X102179Y-308206D01*
X101943Y-308293D01*
X101805Y-308431D01*
X101756Y-308456D01*
X101581Y-308580D01*
X101506Y-308655D01*
X101282Y-308780D01*
X101220Y-308867D01*
X101182Y-308904D01*
X101058Y-308954D01*
X100958Y-308979D01*
X100821Y-309091D01*
X100758Y-309153D01*
X100584Y-309253D01*
X100435Y-309403D01*
X100335Y-309428D01*
X100210Y-309477D01*
X100123Y-309540D01*
X100110Y-309577D01*
X100061Y-309602D01*
X100011Y-309652D01*
X99836Y-309752D01*
X99799Y-309789D01*
X99774Y-309839D01*
X99637Y-309901D01*
X99537Y-309926D01*
X99400Y-310038D01*
X99375Y-310088D01*
X99163Y-310200D01*
X99014Y-310350D01*
X98964Y-310375D01*
X98727Y-310537D01*
X98690Y-310574D01*
X98528Y-310637D01*
X98440Y-310674D01*
X98266Y-310848D01*
X98091Y-310948D01*
X97992Y-311048D01*
X97755Y-311135D01*
X97718Y-311172D01*
X97680Y-311185D01*
X97655Y-311235D01*
X97593Y-311297D01*
X97543Y-311322D01*
X97306Y-311484D01*
X97244Y-311546D01*
X97144Y-311571D01*
X96970Y-311671D01*
X96908Y-311733D01*
X96858Y-311858D01*
X96882Y-311982D01*
X96920Y-312020D01*
X97020Y-312045D01*
X97182Y-312107D01*
X97344Y-312269D01*
X97518Y-312369D01*
X97618Y-312468D01*
X97668Y-312493D01*
X97792Y-312543D01*
X97967Y-312643D01*
X98017Y-312718D01*
X98067Y-312743D01*
X98303Y-312905D01*
X98366Y-312967D01*
X98490Y-313017D01*
X98665Y-313117D01*
X98764Y-313216D01*
X98939Y-313316D01*
X99039Y-313416D01*
X99088Y-313441D01*
X99263Y-313515D01*
X99388Y-313590D01*
X99512Y-313715D01*
X99687Y-313815D01*
X99811Y-313939D01*
X99911Y-313964D01*
X100085Y-314064D01*
X100185Y-314163D01*
X100360Y-314263D01*
X100459Y-314363D01*
X100509Y-314388D01*
X100684Y-314463D01*
X100808Y-314537D01*
X100933Y-314662D01*
X101108Y-314762D01*
X101207Y-314861D01*
X101257Y-314886D01*
X101382Y-314936D01*
X101556Y-315036D01*
X101606Y-315111D01*
X101656Y-315136D01*
X101893Y-315298D01*
X101955Y-315360D01*
X102117Y-315422D01*
X102204Y-315485D01*
X102242Y-315522D01*
X102267Y-315572D01*
X102329Y-315634D01*
X102453Y-315684D01*
X102578Y-315759D01*
X102653Y-315833D01*
X102703Y-315858D01*
X102877Y-315958D01*
X103052Y-316083D01*
X103276Y-316207D01*
X103401Y-316332D01*
X103450Y-316357D01*
X103675Y-316482D01*
X103725Y-316531D01*
X103949Y-316656D01*
X104024Y-316731D01*
X104074Y-316756D01*
X104148Y-316831D01*
X104373Y-316955D01*
X104522Y-317055D01*
X104697Y-317155D01*
X104821Y-317279D01*
X105046Y-317404D01*
X105083Y-317441D01*
X105108Y-317491D01*
X105145Y-317528D01*
X105395Y-317628D01*
X105532Y-317740D01*
X105569Y-317778D01*
X105744Y-317877D01*
X105893Y-318027D01*
X106030Y-318064D01*
X106167Y-318152D01*
X106242Y-318226D01*
X106292Y-318251D01*
X106467Y-318351D01*
X106616Y-318501D01*
X106741Y-318575D01*
X106803Y-318638D01*
X106840Y-318800D01*
X106853Y-318862D01*
X106766Y-318999D01*
X106641Y-319049D01*
X100584Y-319024D01*
X100397Y-318912D01*
X100372Y-318862D01*
X100310Y-318800D01*
X100061Y-318700D01*
X99961Y-318600D01*
X99911Y-318575D01*
X99737Y-318476D01*
X99562Y-318301D01*
X99462Y-318276D01*
X99412Y-318226D01*
X99363Y-318202D01*
X99263Y-318077D01*
X99163Y-318052D01*
X99001Y-317990D01*
X98951Y-317940D01*
X98926Y-317890D01*
X98864Y-317828D01*
X98640Y-317703D01*
X98615Y-317653D01*
X98565Y-317628D01*
X98515Y-317578D01*
X98341Y-317479D01*
X98241Y-317379D01*
X97992Y-317279D01*
X97842Y-317130D01*
X97668Y-317030D01*
X97543Y-316905D01*
X97319Y-316781D01*
X97169Y-316631D01*
X96970Y-316556D01*
X96833Y-316444D01*
X96795Y-316407D01*
X96621Y-316307D01*
X96471Y-316157D01*
X96309Y-316095D01*
X96185Y-315971D01*
X96172Y-315933D01*
X95998Y-315883D01*
X95873Y-315809D01*
X95723Y-315659D01*
X95549Y-315559D01*
X95449Y-315460D01*
X95399Y-315435D01*
X95225Y-315310D01*
X95150Y-315235D01*
X94901Y-315136D01*
X94814Y-315073D01*
X94789Y-315023D01*
X94515Y-314849D01*
X94402Y-314737D01*
X94353Y-314712D01*
X94178Y-314587D01*
X94078Y-314487D01*
X93829Y-314388D01*
X93705Y-314263D01*
X93655Y-314238D01*
X93480Y-314163D01*
X93306Y-314188D01*
X93181Y-314263D01*
X93006Y-314438D01*
X92832Y-314537D01*
X92757Y-314612D01*
X92583Y-314687D01*
X92458Y-314762D01*
X92396Y-314849D01*
X92309Y-314936D01*
X92171Y-314974D01*
X92134Y-315011D01*
X92084Y-315036D01*
X91985Y-315136D01*
X91935Y-315161D01*
X91760Y-315285D01*
X91685Y-315360D01*
X91511Y-315460D01*
X91362Y-315609D01*
X91125Y-315696D01*
X90963Y-315858D01*
X90738Y-315983D01*
X90614Y-316108D01*
X90439Y-316207D01*
X90339Y-316307D01*
X90090Y-316407D01*
X90003Y-316469D01*
X89978Y-316519D01*
X89916Y-316581D01*
X89691Y-316706D01*
X89567Y-316831D01*
X89392Y-316930D01*
X89268Y-317055D01*
X89093Y-317155D01*
X88944Y-317304D01*
X88782Y-317342D01*
X88632Y-317441D01*
X88620Y-317479D01*
X88570Y-317504D01*
X88333Y-317666D01*
X88308Y-317715D01*
X88271Y-317753D01*
X88221Y-317778D01*
X88046Y-317877D01*
X87947Y-317977D01*
X87822Y-318027D01*
X87647Y-318127D01*
X87523Y-318251D01*
X87348Y-318351D01*
X87211Y-318463D01*
X87174Y-318501D01*
X87124Y-318526D01*
X86950Y-318650D01*
X86875Y-318725D01*
X86750Y-318775D01*
X86576Y-318874D01*
X86451Y-318999D01*
X86326Y-319049D01*
X80319Y-319024D01*
X80257Y-318962D01*
X80220Y-318750D01*
X80245Y-318625D01*
X80344Y-318526D01*
X80469Y-318451D01*
X80594Y-318326D01*
X80643Y-318301D01*
X80818Y-318202D01*
X80918Y-318102D01*
X81167Y-318002D01*
X81341Y-317828D01*
X81516Y-317728D01*
X81590Y-317653D01*
X81640Y-317628D01*
X81765Y-317578D01*
X81939Y-317479D01*
X82014Y-317379D01*
X82064Y-317354D01*
X82239Y-317254D01*
X82338Y-317155D01*
X82463Y-317105D01*
X82637Y-317005D01*
X82762Y-316880D01*
X82936Y-316781D01*
X82986Y-316731D01*
X83036Y-316706D01*
X83086Y-316656D01*
X83323Y-316569D01*
X83423Y-316469D01*
X83435Y-316432D01*
X83485Y-316407D01*
X83659Y-316307D01*
X83759Y-316207D01*
X83809Y-316182D01*
X83934Y-316133D01*
X84058Y-316058D01*
X84183Y-315933D01*
X84233Y-315908D01*
X84407Y-315809D01*
X84532Y-315684D01*
X84582Y-315659D01*
X84756Y-315534D01*
X84831Y-315460D01*
X84956Y-315410D01*
X85130Y-315310D01*
X85205Y-315235D01*
X85255Y-315210D01*
X85466Y-315073D01*
X85491Y-315023D01*
X85653Y-314936D01*
X85778Y-314886D01*
X85915Y-314774D01*
X85977Y-314712D01*
X86152Y-314612D01*
X86277Y-314487D01*
X86513Y-314400D01*
X86551Y-314363D01*
X86601Y-314338D01*
X86626Y-314288D01*
X86675Y-314263D01*
X86825Y-314163D01*
X86875Y-314139D01*
X86999Y-314014D01*
X87161Y-313952D01*
X87249Y-313914D01*
X87373Y-313790D01*
X87423Y-313765D01*
X87598Y-313640D01*
X87697Y-313540D01*
X87859Y-313478D01*
X87947Y-313441D01*
X88084Y-313328D01*
X88121Y-313291D01*
X88171Y-313266D01*
X88345Y-313141D01*
X88420Y-313067D01*
X88595Y-312967D01*
X88744Y-312817D01*
X88981Y-312730D01*
X89056Y-312680D01*
X89081Y-312631D01*
X89268Y-312518D01*
X89318Y-312493D01*
X89380Y-312431D01*
X89405Y-312381D01*
X89442Y-312344D01*
X89617Y-312294D01*
X89741Y-312219D01*
X89779Y-312182D01*
X89804Y-312132D01*
X89916Y-312070D01*
X90078Y-311982D01*
X90128Y-311833D01*
X90053Y-311708D01*
X90015Y-311671D01*
X89791Y-311546D01*
X89667Y-311422D01*
X89617Y-311397D01*
X89492Y-311347D01*
X89318Y-311247D01*
X89193Y-311122D01*
X89018Y-311023D01*
X88919Y-310923D01*
X88670Y-310823D01*
X88520Y-310674D01*
X88345Y-310574D01*
X88296Y-310524D01*
X88246Y-310499D01*
X88171Y-310425D01*
X87934Y-310337D01*
X87772Y-310175D01*
X87598Y-310076D01*
X87473Y-309951D01*
X87199Y-309802D01*
X87149Y-309752D01*
X86875Y-309602D01*
X86750Y-309477D01*
X86700Y-309452D01*
X86526Y-309328D01*
X86426Y-309228D01*
X86301Y-309178D01*
X86127Y-309079D01*
X86077Y-309029D01*
X86027Y-309004D01*
X85791Y-308842D01*
X85678Y-308730D01*
X85442Y-308642D01*
X85304Y-308505D01*
X85130Y-308406D01*
X85005Y-308281D01*
X84881Y-308231D01*
X84706Y-308131D01*
X84532Y-308007D01*
X84482Y-307982D01*
X84345Y-307870D01*
X84258Y-307782D01*
X84046Y-307670D01*
X84021Y-307620D01*
X83959Y-307558D01*
X83722Y-307471D01*
X83647Y-307421D01*
X83622Y-307371D01*
X83585Y-307334D01*
X83535Y-307309D01*
X83360Y-307209D01*
X83211Y-307060D01*
X83049Y-307022D01*
X82962Y-306960D01*
X82812Y-306810D01*
X82637Y-306711D01*
X82538Y-306611D01*
X82413Y-306561D01*
X82313Y-306536D01*
X82176Y-306424D01*
X82151Y-306374D01*
X81964Y-306262D01*
X81915Y-306237D01*
X81790Y-306112D01*
X81690Y-306087D01*
X81566Y-306038D01*
X81503Y-306000D01*
X81478Y-305950D01*
X81391Y-305863D01*
X81217Y-305763D01*
X81092Y-305639D01*
X81042Y-305614D01*
X80930Y-305527D01*
X80880Y-305327D01*
X80967Y-305165D01*
X81142Y-305115D01*
X81316Y-305090D01*
X81416Y-305066D01*
D02*
G37*
G36*
X131417D02*
X131667Y-305090D01*
X131804Y-305128D01*
X131891Y-305190D01*
X131991Y-305340D01*
X132128Y-305452D01*
X132290Y-305664D01*
X132327Y-305676D01*
X132352Y-305726D01*
X132452Y-305901D01*
X132601Y-306050D01*
X132701Y-306225D01*
X132788Y-306312D01*
X132838Y-306337D01*
X132900Y-306399D01*
X132925Y-306449D01*
X133050Y-306574D01*
X133075Y-306623D01*
X133175Y-306798D01*
X133212Y-306835D01*
X133262Y-306860D01*
X133324Y-306923D01*
X133449Y-307147D01*
X133798Y-307496D01*
X133823Y-307546D01*
X133947Y-307720D01*
X134022Y-307795D01*
X134047Y-307845D01*
X134159Y-307982D01*
X134296Y-308094D01*
X134321Y-308144D01*
X134433Y-308281D01*
X134521Y-308368D01*
X134545Y-308418D01*
X134670Y-308593D01*
X134745Y-308667D01*
X134845Y-308842D01*
X134994Y-308991D01*
X135094Y-309166D01*
X135181Y-309228D01*
X135268Y-309315D01*
X135293Y-309365D01*
X135380Y-309477D01*
X135430Y-309502D01*
X135468Y-309540D01*
X135592Y-309764D01*
X135966Y-310138D01*
X136066Y-310312D01*
X136166Y-310412D01*
X136191Y-310462D01*
X136303Y-310599D01*
X136353Y-310649D01*
X136403Y-310674D01*
X136440Y-310711D01*
X136465Y-310761D01*
X136577Y-310898D01*
X136689Y-311010D01*
X136814Y-311235D01*
X136864Y-311260D01*
X136889Y-311310D01*
X137063Y-311534D01*
X137138Y-311609D01*
X137163Y-311658D01*
X137275Y-311821D01*
X137325Y-311845D01*
X137412Y-311933D01*
X137437Y-311982D01*
X137549Y-312120D01*
X137661Y-312232D01*
X137761Y-312406D01*
X138085Y-312730D01*
X138110Y-312780D01*
X138235Y-312955D01*
X138309Y-313029D01*
X138334Y-313079D01*
X138471Y-313291D01*
X138521Y-313316D01*
X138583Y-313378D01*
X138608Y-313428D01*
X138721Y-313540D01*
X138771Y-313565D01*
X138833Y-313628D01*
X138957Y-313852D01*
X139082Y-313977D01*
X139182Y-314151D01*
X139269Y-314213D01*
X139406Y-314425D01*
X139443Y-314463D01*
X139493Y-314487D01*
X139556Y-314550D01*
X139580Y-314600D01*
X139693Y-314737D01*
X139805Y-314849D01*
X139905Y-315023D01*
X140004Y-315123D01*
X140029Y-315173D01*
X140154Y-315347D01*
X140241Y-315435D01*
X140291Y-315460D01*
X140366Y-315534D01*
X140490Y-315509D01*
X140553Y-315447D01*
X140578Y-315397D01*
X140677Y-315298D01*
X140702Y-315248D01*
X140752Y-315198D01*
X140852Y-315023D01*
X141001Y-314874D01*
X141026Y-314824D01*
X141114Y-314712D01*
X141163Y-314687D01*
X141250Y-314600D01*
X141325Y-314475D01*
X141450Y-314350D01*
X141475Y-314301D01*
X141600Y-314126D01*
X141674Y-314051D01*
X141699Y-314002D01*
X141799Y-313827D01*
X141836Y-313790D01*
X141886Y-313765D01*
X141924Y-313727D01*
X141948Y-313677D01*
X142061Y-313540D01*
X142111Y-313491D01*
X142160Y-313466D01*
X142297Y-313254D01*
X142422Y-313129D01*
X142447Y-313079D01*
X142621Y-312855D01*
X142721Y-312705D01*
X142746Y-312656D01*
X142896Y-312506D01*
X142921Y-312456D01*
X143033Y-312319D01*
X143083Y-312294D01*
X143145Y-312232D01*
X143245Y-312057D01*
X143282Y-312020D01*
X143332Y-311995D01*
X143369Y-311957D01*
X143469Y-311783D01*
X143569Y-311683D01*
X143594Y-311633D01*
X143756Y-311397D01*
X143818Y-311359D01*
X143843Y-311310D01*
X143955Y-311147D01*
X144005Y-311122D01*
X144117Y-311010D01*
X144192Y-310886D01*
X144341Y-310736D01*
X144441Y-310562D01*
X144566Y-310437D01*
X144678Y-310225D01*
X144728Y-310200D01*
X145039Y-309889D01*
X145164Y-309664D01*
X145314Y-309515D01*
X145388Y-309390D01*
X145488Y-309291D01*
X145513Y-309241D01*
X145613Y-309066D01*
X145700Y-308979D01*
X145750Y-308954D01*
X145812Y-308892D01*
X145837Y-308842D01*
X146036Y-308642D01*
X146136Y-308468D01*
X146236Y-308368D01*
X146261Y-308318D01*
X146385Y-308144D01*
X146460Y-308069D01*
X146485Y-308019D01*
X146585Y-307845D01*
X146622Y-307807D01*
X146672Y-307782D01*
X146809Y-307645D01*
X146834Y-307596D01*
X146871Y-307558D01*
X146921Y-307533D01*
X147033Y-307346D01*
X147058Y-307296D01*
X147233Y-307122D01*
X147332Y-306947D01*
X147681Y-306598D01*
X147781Y-306424D01*
X147931Y-306275D01*
X147956Y-306225D01*
X148080Y-306050D01*
X148155Y-305975D01*
X148255Y-305801D01*
X148604Y-305452D01*
X148629Y-305402D01*
X148728Y-305228D01*
X148791Y-305165D01*
X148965Y-305090D01*
X149389Y-305115D01*
X149464Y-305090D01*
X149862Y-305115D01*
X149937Y-305090D01*
X150361Y-305115D01*
X150436Y-305090D01*
X150835Y-305115D01*
X150909Y-305090D01*
X151308Y-305115D01*
X151383Y-305090D01*
X151782Y-305115D01*
X151856Y-305090D01*
X152255Y-305115D01*
X152330Y-305090D01*
X152754Y-305115D01*
X152829Y-305090D01*
X153227Y-305115D01*
X153427Y-305066D01*
X153688Y-305103D01*
X153838Y-305128D01*
X154000Y-305190D01*
X154038Y-305228D01*
X154087Y-305352D01*
X154062Y-305452D01*
X153938Y-305626D01*
X153863Y-305751D01*
X153714Y-305901D01*
X153614Y-306075D01*
X153489Y-306200D01*
X153464Y-306250D01*
X153352Y-306362D01*
X153302Y-306387D01*
X153265Y-306424D01*
X153240Y-306474D01*
X153115Y-306648D01*
X153041Y-306723D01*
X153015Y-306773D01*
X152916Y-306947D01*
X152879Y-306985D01*
X152829Y-307010D01*
X152791Y-307047D01*
X152766Y-307097D01*
X152654Y-307234D01*
X152604Y-307284D01*
X152554Y-307309D01*
X152417Y-307521D01*
X152268Y-307670D01*
X152168Y-307845D01*
X151819Y-308194D01*
X151719Y-308368D01*
X151570Y-308518D01*
X151545Y-308568D01*
X151433Y-308705D01*
X151383Y-308730D01*
X151321Y-308792D01*
X151221Y-308967D01*
X151184Y-309004D01*
X151134Y-309029D01*
X150997Y-309241D01*
X150648Y-309590D01*
X150523Y-309814D01*
X150461Y-309876D01*
X150411Y-309901D01*
X150236Y-310175D01*
X150124Y-310287D01*
X150099Y-310337D01*
X150037Y-310400D01*
X149987Y-310425D01*
X149900Y-310512D01*
X149800Y-310686D01*
X149676Y-310811D01*
X149576Y-310985D01*
X149426Y-311135D01*
X149401Y-311185D01*
X149289Y-311322D01*
X149177Y-311409D01*
X149077Y-311584D01*
X148766Y-311895D01*
X148728Y-311908D01*
X148703Y-311957D01*
X148579Y-312132D01*
X148529Y-312182D01*
X148504Y-312232D01*
X148454Y-312282D01*
X148354Y-312456D01*
X148205Y-312606D01*
X148130Y-312730D01*
X148043Y-312792D01*
X147956Y-312880D01*
X147868Y-313042D01*
X147818Y-313067D01*
X147756Y-313129D01*
X147731Y-313179D01*
X147607Y-313353D01*
X147532Y-313428D01*
X147507Y-313478D01*
X147407Y-313652D01*
X147370Y-313690D01*
X147320Y-313715D01*
X147183Y-313852D01*
X147158Y-313902D01*
X147121Y-313939D01*
X147071Y-313964D01*
X147033Y-314002D01*
X147008Y-314051D01*
X146884Y-314226D01*
X146772Y-314363D01*
X146709Y-314450D01*
X146622Y-314513D01*
X146535Y-314600D01*
X146435Y-314774D01*
X146311Y-314899D01*
X146211Y-315073D01*
X146061Y-315223D01*
X146036Y-315273D01*
X145924Y-315410D01*
X145874Y-315435D01*
X145812Y-315497D01*
X145712Y-315672D01*
X145675Y-315709D01*
X145625Y-315734D01*
X145488Y-315946D01*
X145139Y-316295D01*
X145014Y-316519D01*
X144840Y-316693D01*
X144815Y-316743D01*
X144778Y-316806D01*
X144728Y-316831D01*
X144616Y-316943D01*
X144541Y-317067D01*
X144391Y-317217D01*
X144366Y-317267D01*
X144242Y-317441D01*
X143942Y-317740D01*
X143918Y-317790D01*
X143793Y-317965D01*
X143668Y-318089D01*
X143569Y-318264D01*
X143469Y-318363D01*
X143444Y-318413D01*
X143257Y-318600D01*
X143220Y-318613D01*
X143195Y-318663D01*
X143070Y-318837D01*
X142908Y-318999D01*
X142783Y-319049D01*
X137923Y-319024D01*
X137748Y-318924D01*
X137711Y-318887D01*
X137586Y-318663D01*
X137462Y-318538D01*
X137437Y-318488D01*
X137325Y-318326D01*
X137275Y-318301D01*
X137238Y-318264D01*
X137213Y-318214D01*
X137088Y-318039D01*
X137001Y-317977D01*
X136963Y-317940D01*
X136938Y-317890D01*
X136826Y-317753D01*
X136689Y-317616D01*
X136677Y-317578D01*
X136627Y-317553D01*
X136490Y-317416D01*
X136390Y-317242D01*
X136290Y-317142D01*
X136265Y-317092D01*
X136141Y-316918D01*
X136079Y-316856D01*
X136029Y-316831D01*
X135991Y-316793D01*
X135966Y-316743D01*
X135916Y-316693D01*
X135892Y-316644D01*
X135792Y-316544D01*
X135692Y-316369D01*
X135655Y-316332D01*
X135605Y-316307D01*
X135567Y-316270D01*
X135542Y-316220D01*
X135405Y-316083D01*
X135356Y-316058D01*
X135318Y-316021D01*
X135194Y-315796D01*
X135069Y-315672D01*
X135044Y-315622D01*
X134919Y-315447D01*
X134770Y-315322D01*
X134745Y-315273D01*
X134595Y-315123D01*
X134496Y-314949D01*
X134321Y-314774D01*
X134296Y-314724D01*
X134259Y-314687D01*
X134209Y-314662D01*
X134097Y-314550D01*
X133972Y-314326D01*
X133848Y-314201D01*
X133760Y-314039D01*
X133710Y-314014D01*
X133661Y-313964D01*
X133623Y-313952D01*
X133598Y-313902D01*
X133548Y-313852D01*
X133524Y-313802D01*
X133399Y-313677D01*
X133299Y-313503D01*
X132900Y-313104D01*
X132801Y-312930D01*
X132676Y-312805D01*
X132576Y-312631D01*
X132527Y-312581D01*
X132514Y-312568D01*
X132464Y-312543D01*
X132377Y-312456D01*
X132352Y-312406D01*
X132227Y-312282D01*
X132203Y-312232D01*
X132078Y-312057D01*
X131953Y-311933D01*
X131928Y-311883D01*
X131841Y-311796D01*
X131791Y-311771D01*
X131729Y-311708D01*
X131704Y-311658D01*
X131542Y-311422D01*
X131480Y-311359D01*
X131455Y-311310D01*
X131343Y-311147D01*
X131293Y-311122D01*
X131156Y-310985D01*
X131131Y-310936D01*
X131006Y-310811D01*
X130906Y-310637D01*
X130507Y-310238D01*
X130408Y-310063D01*
X130308Y-309963D01*
X130283Y-309914D01*
X130159Y-309739D01*
X130096Y-309677D01*
X130046Y-309652D01*
X130009Y-309615D01*
X129984Y-309565D01*
X129934Y-309515D01*
X129922Y-309477D01*
X129872Y-309452D01*
X129697Y-309178D01*
X129585Y-309091D01*
X129560Y-309041D01*
X129423Y-308904D01*
X129373Y-308879D01*
X129336Y-308842D01*
X129211Y-308617D01*
X129087Y-308493D01*
X129062Y-308443D01*
X128950Y-308281D01*
X128900Y-308256D01*
X128788Y-308144D01*
X128763Y-308094D01*
X128613Y-307945D01*
X128513Y-307770D01*
X128339Y-307596D01*
X128314Y-307546D01*
X128277Y-307508D01*
X128227Y-307483D01*
X128115Y-307371D01*
X127990Y-307147D01*
X127940Y-307122D01*
X127915Y-307072D01*
X127865Y-307022D01*
X127778Y-306860D01*
X127728Y-306835D01*
X127417Y-306524D01*
X127292Y-306299D01*
X126918Y-305926D01*
X126819Y-305751D01*
X126694Y-305626D01*
X126669Y-305576D01*
X126594Y-305402D01*
X126619Y-305228D01*
X126681Y-305165D01*
X126806Y-305115D01*
X126980Y-305090D01*
X127379Y-305115D01*
X127454Y-305090D01*
X127853Y-305115D01*
X127928Y-305090D01*
X128327Y-305115D01*
X128401Y-305090D01*
X128825Y-305115D01*
X128900Y-305090D01*
X129299Y-305115D01*
X129373Y-305090D01*
X129772Y-305115D01*
X129847Y-305090D01*
X130246Y-305115D01*
X130321Y-305090D01*
X130719Y-305115D01*
X130794Y-305090D01*
X131243Y-305115D01*
X131318Y-305090D01*
X131417Y-305066D01*
D02*
G37*
G36*
X86451Y-328072D02*
X86526Y-328097D01*
X99899Y-328085D01*
X99998Y-328110D01*
X100073Y-328159D01*
X100173Y-328334D01*
X100260Y-328396D01*
X100297Y-328433D01*
X100322Y-328533D01*
X100297Y-328857D01*
X100322Y-339501D01*
X100409Y-339588D01*
X100459Y-339613D01*
X100572Y-339725D01*
X100597Y-339775D01*
X100634Y-339812D01*
X100684Y-339837D01*
X100821Y-339974D01*
X100846Y-340024D01*
X100883Y-340061D01*
X100933Y-340086D01*
X101045Y-340199D01*
X101070Y-340248D01*
X101132Y-340311D01*
X101182Y-340336D01*
X101294Y-340448D01*
X101319Y-340498D01*
X101357Y-340535D01*
X101407Y-340560D01*
X101519Y-340672D01*
X101544Y-340722D01*
X101606Y-340784D01*
X101656Y-340809D01*
X101768Y-340921D01*
X101793Y-340971D01*
X101830Y-341009D01*
X101880Y-341034D01*
X102017Y-341171D01*
X102042Y-341221D01*
X102080Y-341258D01*
X102129Y-341283D01*
X102242Y-341395D01*
X102267Y-341445D01*
X102329Y-341507D01*
X102379Y-341532D01*
X102491Y-341644D01*
X102516Y-341694D01*
X102553Y-341731D01*
X102603Y-341756D01*
X102715Y-341869D01*
X102740Y-341918D01*
X102802Y-341981D01*
X102852Y-342006D01*
X102964Y-342118D01*
X102989Y-342168D01*
X103027Y-342205D01*
X103077Y-342230D01*
X103214Y-342367D01*
X103239Y-342417D01*
X103276Y-342454D01*
X103326Y-342479D01*
X103438Y-342591D01*
X103463Y-342641D01*
X103525Y-342704D01*
X103575Y-342729D01*
X103687Y-342841D01*
X103712Y-342891D01*
X103750Y-342928D01*
X103799Y-342953D01*
X103912Y-343065D01*
X103937Y-343115D01*
X103999Y-343177D01*
X104049Y-343202D01*
X104161Y-343314D01*
X104186Y-343364D01*
X104223Y-343401D01*
X104273Y-343426D01*
X104410Y-343563D01*
X104435Y-343613D01*
X104473Y-343651D01*
X104522Y-343676D01*
X104635Y-343788D01*
X104659Y-343838D01*
X104722Y-343900D01*
X104771Y-343925D01*
X104884Y-344037D01*
X104909Y-344087D01*
X104946Y-344124D01*
X104996Y-344149D01*
X105108Y-344261D01*
X105133Y-344536D01*
X105195Y-344598D01*
X105544Y-344648D01*
X126756Y-344623D01*
X126893Y-344511D01*
X126918Y-344461D01*
X127030Y-344349D01*
X127080Y-344324D01*
X127118Y-344286D01*
X127142Y-344236D01*
X127255Y-344124D01*
X127304Y-344100D01*
X127354Y-344050D01*
X127367Y-344037D01*
X127392Y-343987D01*
X127504Y-343875D01*
X127554Y-343850D01*
X127591Y-343813D01*
X127616Y-343763D01*
X127753Y-343626D01*
X127803Y-343601D01*
X127840Y-343563D01*
X127865Y-343514D01*
X127978Y-343401D01*
X128027Y-343377D01*
X128090Y-343314D01*
X128115Y-343264D01*
X128227Y-343152D01*
X128277Y-343127D01*
X128314Y-343090D01*
X128339Y-343040D01*
X128451Y-342928D01*
X128501Y-342903D01*
X128563Y-342841D01*
X128588Y-342791D01*
X128700Y-342679D01*
X128750Y-342654D01*
X128788Y-342616D01*
X128813Y-342566D01*
X128950Y-342429D01*
X129000Y-342405D01*
X129037Y-342367D01*
X129062Y-342317D01*
X129174Y-342205D01*
X129224Y-342180D01*
X129286Y-342118D01*
X129311Y-342068D01*
X129423Y-341956D01*
X129473Y-341931D01*
X129510Y-341894D01*
X129535Y-341844D01*
X129648Y-341731D01*
X129697Y-341707D01*
X129760Y-341644D01*
X129785Y-341594D01*
X129897Y-341482D01*
X129947Y-341457D01*
X129984Y-341420D01*
X130009Y-341370D01*
X130146Y-341233D01*
X130196Y-341208D01*
X130233Y-341171D01*
X130258Y-341121D01*
X130370Y-341009D01*
X130420Y-340984D01*
X130483Y-340921D01*
X130507Y-340872D01*
X130620Y-340759D01*
X130669Y-340734D01*
X130707Y-340697D01*
X130732Y-340647D01*
X130844Y-340535D01*
X130894Y-340510D01*
X130956Y-340448D01*
X130981Y-340398D01*
X131093Y-340286D01*
X131143Y-340261D01*
X131180Y-340223D01*
X131206Y-340174D01*
X131343Y-340037D01*
X131392Y-340012D01*
X131430Y-339974D01*
X131455Y-339924D01*
X131567Y-339812D01*
X131617Y-339787D01*
X131679Y-339725D01*
X131704Y-339625D01*
X131729Y-339426D01*
X131766Y-339388D01*
X131816Y-339364D01*
X131903Y-339276D01*
X131953Y-339077D01*
X131891Y-338915D01*
X131841Y-338890D01*
X131729Y-338803D01*
X131754Y-338653D01*
X131891Y-338566D01*
X131928Y-338454D01*
X131903Y-337980D01*
X131841Y-337918D01*
X131729Y-337855D01*
X131754Y-337731D01*
X131791Y-337693D01*
X131841Y-337669D01*
X131903Y-337631D01*
X131928Y-337532D01*
X131903Y-337482D01*
X131841Y-337419D01*
X131729Y-337357D01*
X131754Y-337232D01*
X131891Y-337145D01*
X131928Y-337108D01*
X131903Y-337008D01*
X131841Y-336946D01*
X131791Y-336921D01*
X131729Y-336883D01*
X131754Y-336759D01*
X131891Y-336671D01*
X131928Y-336634D01*
X131903Y-336510D01*
X131866Y-336472D01*
X131741Y-336397D01*
X131704Y-336335D01*
X131766Y-336248D01*
X131816Y-336223D01*
X131903Y-336161D01*
X131928Y-336061D01*
X131903Y-335587D01*
X131841Y-335525D01*
X131729Y-335463D01*
X131754Y-335338D01*
X131791Y-335301D01*
X131841Y-335276D01*
X131903Y-335238D01*
X131928Y-335139D01*
X131903Y-335089D01*
X131841Y-335026D01*
X131729Y-334964D01*
X131754Y-334840D01*
X131891Y-334752D01*
X131928Y-334715D01*
X131903Y-334615D01*
X131841Y-334553D01*
X131791Y-334528D01*
X131729Y-334491D01*
X131754Y-334366D01*
X131891Y-334279D01*
X131928Y-334241D01*
X131903Y-334117D01*
X131866Y-334079D01*
X131741Y-334005D01*
X131729Y-333892D01*
X131766Y-333855D01*
X131816Y-333830D01*
X131903Y-333768D01*
X131928Y-333668D01*
X131903Y-333194D01*
X131841Y-333132D01*
X131729Y-333070D01*
X131716Y-333007D01*
X131791Y-332908D01*
X131841Y-332883D01*
X131903Y-332845D01*
X131928Y-332746D01*
X131903Y-332696D01*
X131841Y-332634D01*
X131729Y-332571D01*
X131754Y-332447D01*
X131891Y-332359D01*
X131928Y-332322D01*
X131903Y-332222D01*
X131841Y-332160D01*
X131791Y-332135D01*
X131729Y-332098D01*
X131754Y-331973D01*
X131891Y-331886D01*
X131928Y-331848D01*
X131903Y-331724D01*
X131866Y-331686D01*
X131741Y-331612D01*
X131729Y-331524D01*
X131791Y-331462D01*
X131903Y-331400D01*
X131928Y-331300D01*
X131866Y-331213D01*
X131741Y-331138D01*
X131729Y-331051D01*
X131791Y-330988D01*
X131903Y-330926D01*
X131928Y-330826D01*
X131903Y-330777D01*
X131841Y-330714D01*
X131729Y-330652D01*
X131741Y-330540D01*
X131791Y-330515D01*
X131928Y-330403D01*
X131903Y-330303D01*
X131841Y-330241D01*
X131729Y-330178D01*
X131754Y-330054D01*
X131891Y-329967D01*
X131928Y-329929D01*
X131903Y-329829D01*
X131841Y-329767D01*
X131791Y-329742D01*
X131729Y-329705D01*
X131754Y-329580D01*
X131891Y-329493D01*
X131928Y-329455D01*
X131903Y-329331D01*
X131866Y-329294D01*
X131741Y-329219D01*
X131729Y-329132D01*
X131791Y-329069D01*
X131903Y-329007D01*
X131928Y-328907D01*
X131841Y-328795D01*
X131729Y-328733D01*
X131716Y-328670D01*
X131779Y-328583D01*
X131866Y-328521D01*
X131928Y-328458D01*
X132003Y-328334D01*
X132215Y-328122D01*
X132315Y-328097D01*
X145750Y-328122D01*
X145862Y-328234D01*
X145887Y-328284D01*
X146036Y-328409D01*
X146061Y-328733D01*
X146149Y-328820D01*
X146198Y-328845D01*
X146236Y-328882D01*
X146211Y-329007D01*
X146173Y-329044D01*
X146124Y-329069D01*
X146036Y-329156D01*
X146061Y-329705D01*
X146099Y-329742D01*
X146149Y-329767D01*
X146236Y-329829D01*
X146211Y-329979D01*
X146074Y-330066D01*
X146036Y-330104D01*
X146061Y-330652D01*
X146124Y-330714D01*
X146173Y-330739D01*
X146236Y-330802D01*
X146211Y-330926D01*
X146173Y-330964D01*
X146124Y-330988D01*
X146061Y-331026D01*
X146036Y-331125D01*
X146061Y-331624D01*
X146211Y-331724D01*
X146236Y-331799D01*
X146211Y-331873D01*
X146149Y-331936D01*
X146099Y-331961D01*
X146036Y-332023D01*
X146061Y-332571D01*
X146124Y-332634D01*
X146236Y-332696D01*
X146211Y-332845D01*
X146061Y-332945D01*
X146036Y-333045D01*
X146061Y-333518D01*
X146149Y-333606D01*
X146198Y-333631D01*
X146236Y-333668D01*
X146211Y-333793D01*
X146173Y-333830D01*
X146124Y-333855D01*
X146036Y-333942D01*
X146061Y-334491D01*
X146099Y-334528D01*
X146149Y-334553D01*
X146236Y-334615D01*
X146211Y-334765D01*
X146074Y-334852D01*
X146036Y-334889D01*
X146061Y-335438D01*
X146124Y-335500D01*
X146173Y-335525D01*
X146236Y-335587D01*
X146211Y-335712D01*
X146173Y-335749D01*
X146124Y-335774D01*
X146061Y-335812D01*
X146036Y-335911D01*
X146061Y-336410D01*
X146211Y-336510D01*
X146236Y-336584D01*
X146211Y-336659D01*
X146149Y-336721D01*
X146099Y-336746D01*
X146036Y-336809D01*
X146061Y-337357D01*
X146124Y-337419D01*
X146236Y-337482D01*
X146211Y-337631D01*
X146061Y-337731D01*
X146036Y-337831D01*
X146061Y-338304D01*
X146149Y-338391D01*
X146198Y-338416D01*
X146236Y-338454D01*
X146211Y-338578D01*
X146173Y-338616D01*
X146124Y-338641D01*
X146036Y-338728D01*
X146061Y-339276D01*
X146099Y-339314D01*
X146149Y-339339D01*
X146236Y-339401D01*
X146211Y-339525D01*
X146149Y-339588D01*
X146099Y-339613D01*
X146036Y-339675D01*
X146061Y-340223D01*
X146124Y-340286D01*
X146173Y-340311D01*
X146236Y-340373D01*
X146211Y-340498D01*
X146173Y-340535D01*
X146124Y-340560D01*
X146061Y-340597D01*
X146036Y-340697D01*
X146061Y-341196D01*
X146211Y-341295D01*
X146236Y-341370D01*
X146211Y-341445D01*
X146149Y-341507D01*
X146099Y-341532D01*
X146036Y-341594D01*
X146061Y-342143D01*
X146124Y-342205D01*
X146236Y-342267D01*
X146211Y-342417D01*
X146061Y-342517D01*
X146036Y-342616D01*
X146061Y-343090D01*
X146149Y-343177D01*
X146198Y-343202D01*
X146236Y-343240D01*
X146211Y-343364D01*
X146173Y-343401D01*
X146124Y-343426D01*
X146036Y-343514D01*
X146061Y-344062D01*
X146099Y-344100D01*
X146149Y-344124D01*
X146236Y-344187D01*
X146211Y-344311D01*
X146149Y-344374D01*
X146099Y-344398D01*
X146036Y-344461D01*
X146061Y-345009D01*
X146124Y-345071D01*
X146173Y-345097D01*
X146236Y-345159D01*
X146211Y-345283D01*
X146173Y-345321D01*
X146049Y-345396D01*
X145737Y-345707D01*
X145725Y-345745D01*
X145675Y-345770D01*
X145513Y-345932D01*
X145488Y-345981D01*
X145338Y-346106D01*
X144541Y-346904D01*
X144528Y-346941D01*
X144479Y-346966D01*
X144316Y-347128D01*
X144291Y-347178D01*
X144142Y-347302D01*
X143344Y-348100D01*
X143332Y-348137D01*
X143282Y-348162D01*
X143095Y-348349D01*
X143083Y-348387D01*
X143033Y-348412D01*
X142148Y-349296D01*
X142135Y-349334D01*
X142086Y-349359D01*
X141899Y-349546D01*
X141886Y-349583D01*
X141836Y-349608D01*
X140951Y-350493D01*
X140939Y-350530D01*
X140889Y-350555D01*
X140702Y-350742D01*
X140690Y-350780D01*
X140640Y-350804D01*
X139755Y-351689D01*
X139742Y-351727D01*
X139693Y-351752D01*
X139506Y-351939D01*
X139493Y-351976D01*
X139443Y-352001D01*
X138559Y-352886D01*
X138546Y-352923D01*
X138496Y-352948D01*
X138309Y-353135D01*
X138297Y-353172D01*
X138247Y-353197D01*
X137362Y-354082D01*
X137350Y-354120D01*
X137300Y-354145D01*
X137113Y-354332D01*
X137100Y-354369D01*
X137051Y-354394D01*
X136166Y-355279D01*
X136153Y-355316D01*
X136103Y-355341D01*
X135916Y-355528D01*
X135904Y-355565D01*
X135854Y-355590D01*
X134969Y-356475D01*
X134957Y-356512D01*
X134907Y-356537D01*
X134720Y-356724D01*
X134707Y-356762D01*
X134658Y-356787D01*
X133773Y-357672D01*
X133760Y-357709D01*
X133710Y-357734D01*
X133524Y-357921D01*
X133511Y-357958D01*
X133461Y-357983D01*
X132601Y-358843D01*
X132576Y-358893D01*
X132539Y-358930D01*
X132365Y-358955D01*
X131966Y-358930D01*
X131891Y-358955D01*
X131430Y-358943D01*
X131243Y-358955D01*
X131168Y-358930D01*
X130719Y-358955D01*
X130645Y-358930D01*
X130271Y-358955D01*
X130196Y-358930D01*
X129772Y-358955D01*
X129697Y-358930D01*
X129324Y-358955D01*
X129249Y-358930D01*
X128800Y-358955D01*
X128725Y-358930D01*
X128376Y-358955D01*
X128302Y-358930D01*
X127853Y-358955D01*
X127778Y-358930D01*
X127404Y-358955D01*
X127330Y-358930D01*
X126881Y-358955D01*
X126806Y-358930D01*
X126457Y-358955D01*
X126382Y-358930D01*
X125934Y-358955D01*
X125859Y-358930D01*
X125485Y-358955D01*
X125410Y-358930D01*
X124986Y-358955D01*
X124912Y-358930D01*
X124538Y-358955D01*
X124463Y-358930D01*
X124014Y-358955D01*
X123940Y-358930D01*
X123591Y-358955D01*
X123516Y-358930D01*
X123067Y-358955D01*
X122992Y-358930D01*
X122619Y-358955D01*
X122544Y-358930D01*
X122095Y-358955D01*
X122020Y-358930D01*
X121671Y-358955D01*
X121596Y-358930D01*
X121148Y-358955D01*
X121073Y-358930D01*
X120699Y-358955D01*
X120624Y-358930D01*
X120201Y-358955D01*
X120126Y-358930D01*
X119752Y-358955D01*
X119677Y-358930D01*
X119229Y-358955D01*
X119154Y-358930D01*
X118805Y-358955D01*
X118730Y-358930D01*
X118281Y-358955D01*
X118207Y-358930D01*
X117833Y-358955D01*
X117758Y-358930D01*
X117309Y-358955D01*
X117234Y-358930D01*
X116885Y-358955D01*
X116811Y-358930D01*
X116362Y-358955D01*
X116287Y-358930D01*
X115913Y-358955D01*
X115839Y-358930D01*
X115415Y-358955D01*
X115340Y-358930D01*
X114966Y-358955D01*
X114892Y-358930D01*
X114443Y-358955D01*
X114368Y-358930D01*
X114019Y-358955D01*
X113944Y-358930D01*
X113496Y-358955D01*
X113421Y-358930D01*
X113047Y-358955D01*
X112972Y-358930D01*
X112523Y-358955D01*
X112449Y-358930D01*
X112100Y-358955D01*
X112025Y-358930D01*
X111576Y-358955D01*
X111502Y-358930D01*
X111128Y-358955D01*
X111053Y-358930D01*
X110629Y-358955D01*
X110554Y-358930D01*
X110181Y-358955D01*
X110106Y-358930D01*
X109657Y-358955D01*
X109582Y-358930D01*
X109233Y-358955D01*
X109158Y-358930D01*
X108710Y-358955D01*
X108635Y-358930D01*
X108261Y-358955D01*
X108186Y-358930D01*
X107738Y-358955D01*
X107663Y-358930D01*
X107314Y-358955D01*
X107239Y-358930D01*
X106791Y-358955D01*
X106716Y-358930D01*
X106342Y-358955D01*
X106267Y-358930D01*
X105843Y-358955D01*
X105769Y-358930D01*
X105395Y-358955D01*
X105320Y-358930D01*
X104871Y-358955D01*
X104796Y-358930D01*
X104447Y-358955D01*
X104373Y-358930D01*
X103924Y-358955D01*
X103849Y-358930D01*
X103475Y-358955D01*
X103401Y-358930D01*
X102952Y-358955D01*
X102877Y-358930D01*
X102528Y-358955D01*
X102453Y-358930D01*
X102005Y-358955D01*
X101930Y-358930D01*
X101556Y-358955D01*
X101481Y-358930D01*
X101058Y-358955D01*
X100983Y-358930D01*
X100609Y-358955D01*
X100534Y-358930D01*
X100110Y-358955D01*
X100036Y-358930D01*
X99537Y-358955D01*
X99425Y-358868D01*
X99400Y-358818D01*
X99263Y-358681D01*
X99213Y-358656D01*
X99176Y-358619D01*
X99151Y-358569D01*
X99039Y-358457D01*
X98989Y-358432D01*
X98926Y-358369D01*
X98902Y-358320D01*
X98789Y-358208D01*
X98740Y-358182D01*
X98702Y-358145D01*
X98677Y-358095D01*
X98540Y-357958D01*
X98490Y-357933D01*
X98453Y-357896D01*
X98428Y-357846D01*
X98316Y-357734D01*
X98266Y-357709D01*
X98229Y-357672D01*
X98204Y-357622D01*
X98067Y-357485D01*
X98017Y-357460D01*
X97979Y-357422D01*
X97954Y-357373D01*
X97842Y-357260D01*
X97792Y-357235D01*
X97730Y-357173D01*
X97705Y-357123D01*
X97593Y-357011D01*
X97543Y-356986D01*
X97506Y-356949D01*
X97481Y-356899D01*
X97344Y-356762D01*
X97294Y-356737D01*
X97256Y-356699D01*
X97232Y-356650D01*
X97119Y-356537D01*
X97070Y-356512D01*
X97032Y-356475D01*
X97007Y-356425D01*
X96870Y-356288D01*
X96820Y-356263D01*
X96783Y-356226D01*
X96758Y-356176D01*
X96646Y-356064D01*
X96596Y-356039D01*
X96534Y-355977D01*
X96509Y-355927D01*
X96397Y-355815D01*
X96347Y-355790D01*
X96309Y-355752D01*
X96284Y-355702D01*
X96172Y-355590D01*
X96122Y-355565D01*
X96060Y-355503D01*
X96035Y-355453D01*
X95923Y-355341D01*
X95873Y-355316D01*
X95836Y-355279D01*
X95811Y-355229D01*
X95674Y-355092D01*
X95624Y-355067D01*
X95586Y-355029D01*
X95562Y-354980D01*
X95449Y-354867D01*
X95399Y-354842D01*
X95337Y-354780D01*
X95312Y-354730D01*
X95200Y-354618D01*
X95150Y-354593D01*
X95113Y-354556D01*
X95088Y-354506D01*
X94951Y-354369D01*
X94901Y-354344D01*
X94864Y-354307D01*
X94839Y-354257D01*
X94726Y-354145D01*
X94677Y-354120D01*
X94639Y-354082D01*
X94614Y-354032D01*
X94477Y-353895D01*
X94427Y-353870D01*
X94390Y-353833D01*
X94365Y-353783D01*
X94253Y-353671D01*
X94203Y-353646D01*
X94141Y-353584D01*
X94116Y-353534D01*
X94004Y-353422D01*
X93954Y-353397D01*
X93916Y-353359D01*
X93891Y-353310D01*
X93779Y-353197D01*
X93729Y-353172D01*
X93667Y-353110D01*
X93642Y-353060D01*
X93530Y-352948D01*
X93480Y-352923D01*
X93443Y-352886D01*
X93418Y-352836D01*
X93281Y-352699D01*
X93231Y-352674D01*
X93194Y-352636D01*
X93169Y-352462D01*
X93144Y-352337D01*
X93081Y-352275D01*
X92957Y-352200D01*
X92857Y-352051D01*
X92807Y-352026D01*
X92720Y-351964D01*
X92695Y-351914D01*
X92645Y-351864D01*
X92633Y-351827D01*
X92583Y-351802D01*
X92533Y-351752D01*
X92483Y-351727D01*
X92396Y-351615D01*
X92383Y-351577D01*
X92334Y-351552D01*
X92284Y-351502D01*
X92234Y-351478D01*
X92109Y-351328D01*
X92059Y-351278D01*
X92009Y-351253D01*
X91885Y-351104D01*
X91810Y-351029D01*
X91760Y-351004D01*
X91636Y-350854D01*
X91586Y-350804D01*
X91536Y-350780D01*
X91474Y-350692D01*
X91436Y-350630D01*
X91386Y-350605D01*
X91336Y-350555D01*
X91287Y-350530D01*
X91224Y-350443D01*
X91187Y-350381D01*
X91137Y-350356D01*
X91087Y-350306D01*
X91037Y-350281D01*
X90975Y-350194D01*
X90863Y-350082D01*
X90813Y-350057D01*
X90751Y-349969D01*
X90713Y-349907D01*
X90663Y-349882D01*
X90614Y-349832D01*
X90564Y-349808D01*
X90501Y-349720D01*
X90464Y-349658D01*
X90414Y-349633D01*
X90327Y-349571D01*
X90302Y-349521D01*
X90252Y-349471D01*
X90240Y-349434D01*
X90190Y-349409D01*
X90140Y-349359D01*
X90090Y-349334D01*
X90028Y-349247D01*
X89991Y-349184D01*
X89941Y-349159D01*
X89891Y-349109D01*
X89841Y-349085D01*
X89779Y-348997D01*
X89667Y-348885D01*
X89617Y-348860D01*
X89529Y-348748D01*
X89517Y-348711D01*
X89467Y-348686D01*
X89417Y-348636D01*
X89367Y-348611D01*
X89280Y-348499D01*
X89268Y-348461D01*
X89218Y-348437D01*
X89131Y-348374D01*
X89106Y-348324D01*
X89056Y-348274D01*
X89043Y-348237D01*
X88994Y-348212D01*
X88944Y-348162D01*
X88894Y-348137D01*
X88769Y-347988D01*
X88694Y-347913D01*
X88645Y-347888D01*
X88520Y-347739D01*
X88470Y-347689D01*
X88420Y-347664D01*
X88358Y-347577D01*
X88321Y-347514D01*
X88271Y-347489D01*
X88221Y-347439D01*
X88171Y-347415D01*
X88109Y-347327D01*
X88071Y-347265D01*
X88021Y-347240D01*
X87909Y-347153D01*
X87884Y-347103D01*
X87747Y-346966D01*
X87697Y-346941D01*
X87635Y-346854D01*
X87498Y-346717D01*
X87448Y-346692D01*
X87386Y-346604D01*
X87274Y-346492D01*
X87224Y-346467D01*
X87161Y-346380D01*
X87124Y-346318D01*
X87074Y-346293D01*
X87024Y-346243D01*
X86974Y-346218D01*
X86912Y-346131D01*
X86875Y-346069D01*
X86825Y-346044D01*
X86713Y-345956D01*
X86688Y-345907D01*
X86551Y-345770D01*
X86501Y-345745D01*
X86376Y-345595D01*
X86301Y-345520D01*
X86252Y-345495D01*
X86152Y-345346D01*
X86102Y-345321D01*
X85990Y-345234D01*
X85965Y-345134D01*
X85990Y-344735D01*
X85977Y-328471D01*
X86040Y-328384D01*
X86077Y-328346D01*
X86127Y-328321D01*
X86214Y-328234D01*
X86239Y-328184D01*
X86277Y-328122D01*
X86451Y-328072D01*
D02*
G37*
G36*
X106292Y-328222D02*
X125934Y-328247D01*
X126108Y-328371D01*
X126121Y-328558D01*
X126021Y-328783D01*
X126046Y-328882D01*
X126033Y-336547D01*
X126071Y-336634D01*
X126121Y-336759D01*
X126133Y-336821D01*
X126083Y-336946D01*
X125996Y-337033D01*
X125971Y-337083D01*
X125560Y-337494D01*
X125522Y-337507D01*
X125497Y-337556D01*
X125310Y-337743D01*
X125273Y-337756D01*
X125248Y-337806D01*
X125086Y-337968D01*
X125049Y-337980D01*
X125024Y-338030D01*
X124837Y-338217D01*
X124799Y-338229D01*
X124775Y-338279D01*
X124388Y-338666D01*
X124338Y-338690D01*
X124189Y-338840D01*
X124014Y-338865D01*
X123765Y-338840D01*
X121198Y-338865D01*
X115739Y-338840D01*
X115664Y-338865D01*
X114767D01*
X108560Y-338840D01*
X108485Y-338865D01*
X107862Y-338840D01*
X107800Y-338803D01*
X107775Y-338753D01*
X107713Y-338666D01*
X107663Y-338641D01*
X107526Y-338529D01*
X107501Y-338479D01*
X107451Y-338429D01*
X107439Y-338391D01*
X107389Y-338367D01*
X107252Y-338229D01*
X107239Y-338192D01*
X107189Y-338167D01*
X107052Y-338055D01*
X107027Y-338005D01*
X106978Y-337955D01*
X106965Y-337918D01*
X106915Y-337893D01*
X106778Y-337756D01*
X106753Y-337706D01*
X106716Y-337669D01*
X106666Y-337644D01*
X106554Y-337532D01*
X106529Y-337482D01*
X106467Y-337419D01*
X106417Y-337394D01*
X106305Y-337282D01*
X106280Y-337232D01*
X106242Y-337195D01*
X106192Y-337170D01*
X106080Y-337058D01*
X106055Y-336883D01*
X106030Y-336784D01*
X106043Y-333257D01*
X106018Y-333157D01*
X105981Y-333020D01*
X106005Y-332870D01*
X106030Y-332796D01*
X106055Y-332696D01*
X106030Y-332472D01*
X106055Y-332397D01*
X106030Y-332197D01*
X105981Y-332073D01*
X106005Y-331898D01*
X106030Y-331824D01*
X106055Y-331724D01*
X106043Y-331512D01*
X106055Y-331350D01*
X106030Y-331275D01*
X105981Y-331101D01*
X106005Y-330951D01*
X106030Y-330876D01*
X106055Y-330777D01*
X106030Y-330378D01*
X106055Y-328334D01*
X106117Y-328247D01*
X106292Y-328222D01*
D02*
G37*
G36*
X-39810Y-328122D02*
X-46676D01*
X-46704Y-328136D01*
X-46718Y-328150D01*
X-46732Y-328178D01*
Y-328192D01*
Y-328206D01*
Y-328220D01*
Y-334987D01*
Y-335029D01*
Y-335043D01*
X-46718Y-335071D01*
X-46690Y-335085D01*
X-39796D01*
X-39782Y-335071D01*
X-39754Y-335015D01*
Y-335001D01*
Y-334987D01*
Y-328220D01*
X-39768Y-328164D01*
X-39782Y-328150D01*
X-39810Y-328122D01*
D02*
G37*
G36*
X-53202Y-330349D02*
X-57995D01*
X-58010Y-330363D01*
X-58024Y-330377D01*
X-58038Y-330391D01*
X-58052Y-330419D01*
Y-330434D01*
Y-330448D01*
Y-331843D01*
X-53132Y-331871D01*
Y-330448D01*
Y-330405D01*
X-53146Y-330391D01*
X-53160Y-330377D01*
X-53202Y-330349D01*
D02*
G37*
G36*
X-101499D02*
X-106292D01*
X-106306Y-330363D01*
X-106320Y-330377D01*
X-106334Y-330391D01*
X-106348Y-330419D01*
Y-330434D01*
Y-330448D01*
Y-331843D01*
X-101428Y-331871D01*
Y-330448D01*
Y-330405D01*
X-101442Y-330391D01*
X-101456Y-330377D01*
X-101499Y-330349D01*
D02*
G37*
G36*
X-112269Y-330349D02*
X-117062D01*
X-117076Y-330363D01*
X-117090Y-330377D01*
X-117104Y-330391D01*
X-117118Y-330420D01*
Y-330434D01*
Y-330448D01*
Y-335043D01*
X-117104Y-335100D01*
X-117090Y-335114D01*
X-117076Y-335128D01*
X-112297D01*
X-112241Y-335114D01*
X-112226D01*
X-112198Y-335071D01*
Y-335043D01*
Y-330448D01*
Y-330405D01*
X-112212Y-330391D01*
X-112226Y-330377D01*
X-112269Y-330349D01*
D02*
G37*
G36*
X-128664D02*
X-133414D01*
X-133471Y-330363D01*
X-133485Y-330377D01*
X-133499Y-330391D01*
X-133513Y-330420D01*
Y-330434D01*
Y-330448D01*
Y-335043D01*
X-133499Y-335100D01*
X-133485Y-335114D01*
X-133442Y-335128D01*
X-128678D01*
X-128636Y-335114D01*
X-128621D01*
X-128593Y-335071D01*
Y-335043D01*
Y-330448D01*
Y-330405D01*
X-128607Y-330391D01*
X-128621Y-330377D01*
X-128664Y-330349D01*
D02*
G37*
G36*
X-79014Y-330349D02*
X-83793D01*
X-83849Y-330363D01*
X-83863Y-330377D01*
X-83877Y-330391D01*
X-83892Y-330419D01*
Y-330434D01*
Y-330448D01*
Y-335043D01*
X-83877Y-335100D01*
X-83863Y-335114D01*
X-83821Y-335128D01*
X-79042D01*
X-78986Y-335114D01*
X-78972D01*
X-78958Y-335071D01*
Y-335043D01*
Y-330448D01*
Y-330405D01*
X-78972Y-330391D01*
Y-330377D01*
X-79014Y-330349D01*
D02*
G37*
G36*
X-79373Y-351286D02*
X-84293Y-351300D01*
Y-352794D01*
X-79472D01*
X-79416Y-352780D01*
X-79402D01*
X-79373Y-352738D01*
Y-352710D01*
Y-351286D01*
D02*
G37*
G36*
X-101774Y-348015D02*
X-106567D01*
X-106581Y-348029D01*
X-106595Y-348044D01*
X-106609Y-348058D01*
X-106623Y-348086D01*
Y-348100D01*
Y-348114D01*
Y-352710D01*
X-106609Y-352766D01*
X-106595Y-352780D01*
X-106581Y-352794D01*
X-101802D01*
X-101745Y-352780D01*
X-101731D01*
X-101703Y-352738D01*
Y-352710D01*
Y-348114D01*
Y-348072D01*
X-101717Y-348058D01*
X-101731Y-348044D01*
X-101774Y-348015D01*
D02*
G37*
%LPD*%
D31*
X-73914Y-288036D02*
D03*
X-150114Y169164D02*
D03*
X-226314Y67564D02*
D03*
D32*
Y-262636D02*
D03*
D33*
Y-288036D02*
D03*
D34*
Y-237236D02*
D03*
X-124714Y169164D02*
D03*
X-73914Y67564D02*
D03*
D35*
X-99314Y169164D02*
D03*
X-175514D02*
D03*
X-200914D02*
D03*
X-226314Y42164D02*
D03*
X-73914D02*
D03*
Y-262636D02*
D03*
Y-237236D02*
D03*
Y-211836D02*
D03*
Y-186436D02*
D03*
Y-161036D02*
D03*
Y-135636D02*
D03*
Y-110236D02*
D03*
Y-84836D02*
D03*
Y-59436D02*
D03*
Y-34036D02*
D03*
Y-8636D02*
D03*
Y16764D02*
D03*
X-200914Y-262636D02*
D03*
X-226314Y16764D02*
D03*
Y-8636D02*
D03*
Y-34036D02*
D03*
Y-59436D02*
D03*
Y-84836D02*
D03*
Y-110236D02*
D03*
Y-135636D02*
D03*
Y-161036D02*
D03*
Y-186436D02*
D03*
Y-211836D02*
D03*
X-73914Y118364D02*
D03*
Y143764D02*
D03*
Y169164D02*
D03*
Y194564D02*
D03*
Y219964D02*
D03*
Y245364D02*
D03*
Y270764D02*
D03*
Y296164D02*
D03*
X-226314Y92964D02*
D03*
Y118364D02*
D03*
Y143764D02*
D03*
Y169164D02*
D03*
Y194564D02*
D03*
Y219964D02*
D03*
Y245364D02*
D03*
Y270764D02*
D03*
Y296164D02*
D03*
X-103914Y-224536D02*
D03*
Y-199136D02*
D03*
Y-173736D02*
D03*
Y-148336D02*
D03*
Y-122936D02*
D03*
X-73914Y92964D02*
D03*
X-160114Y-285735D02*
D03*
X-140114D02*
D03*
D36*
X-200914Y-158336D02*
D03*
X-180914D02*
D03*
X-160914D02*
D03*
X-200914Y-138336D02*
D03*
X-180914D02*
D03*
X-160914D02*
D03*
D37*
X136652Y387096D02*
D03*
D38*
X157652D02*
D03*
X75652D02*
D03*
D39*
X96652D02*
D03*
X116652D02*
D03*
D40*
X20320Y-337820D02*
D03*
Y-261620D02*
D03*
Y-287020D02*
D03*
Y-312420D02*
D03*
Y-195707D02*
D03*
Y-119507D02*
D03*
Y-144907D02*
D03*
Y-170307D02*
D03*
Y-28194D02*
D03*
Y-2794D02*
D03*
Y22606D02*
D03*
Y-53594D02*
D03*
D41*
Y-236220D02*
D03*
Y-94107D02*
D03*
Y48006D02*
D03*
D42*
X200152Y16256D02*
D03*
Y-98044D02*
D03*
Y-151384D02*
D03*
Y-265684D02*
D03*
X201192Y274320D02*
D03*
Y198120D02*
D03*
Y142748D02*
D03*
Y66548D02*
D03*
D43*
X-120142Y89916D02*
D03*
X-98552Y54356D02*
D03*
X-135422Y15708D02*
D03*
X208280Y302260D02*
D03*
X182880Y251460D02*
D03*
X208280Y99060D02*
D03*
X182880Y48260D02*
D03*
Y-53340D02*
D03*
X208280Y-205740D02*
D03*
Y-307340D02*
D03*
X157480Y99060D02*
D03*
X132080Y48260D02*
D03*
X81280D02*
D03*
X55880Y302260D02*
D03*
X5080Y99060D02*
D03*
X-20320Y48260D02*
D03*
X-96520Y302260D02*
D03*
X-121920Y251460D02*
D03*
X-96520Y200660D02*
D03*
Y-2540D02*
D03*
Y-104140D02*
D03*
X-121920Y-154940D02*
D03*
Y-256540D02*
D03*
X-147320Y302260D02*
D03*
X-172720Y251460D02*
D03*
X-147320Y200660D02*
D03*
X-172720Y-53340D02*
D03*
X-147320Y-104140D02*
D03*
Y-205740D02*
D03*
X-172720Y-256540D02*
D03*
X-198120Y302260D02*
D03*
Y200660D02*
D03*
Y-104140D02*
D03*
Y-205740D02*
D03*
X-116332Y345694D02*
D03*
X0Y212852D02*
D03*
X-6096Y172720D02*
D03*
X60198Y-129794D02*
D03*
X69596Y-105664D02*
D03*
X124206Y-130810D02*
D03*
X66294Y202946D02*
D03*
X36830Y129126D02*
D03*
X55880Y248920D02*
D03*
Y235712D02*
D03*
X56134Y98552D02*
D03*
Y107950D02*
D03*
X56388Y77820D02*
D03*
X56199Y86933D02*
D03*
X144018Y-163830D02*
D03*
Y-188468D02*
D03*
X144618Y-213960D02*
D03*
X144526Y-46482D02*
D03*
X143829Y-239587D02*
D03*
X144018Y-72390D02*
D03*
X143764Y2794D02*
D03*
X36012Y214828D02*
D03*
X54974Y267168D02*
D03*
X58517Y-41134D02*
D03*
X58166Y3302D02*
D03*
X143752Y-20795D02*
D03*
X127254Y-105918D02*
D03*
X7366Y130810D02*
D03*
D44*
X170434Y213614D02*
D03*
X94996Y172720D02*
D03*
D45*
X210820Y367030D02*
D03*
Y-367030D02*
D03*
X-210820Y367030D02*
D03*
Y-369570D02*
D03*
D62*
X-127764Y-46482D02*
D03*
X-159764D02*
D03*
D63*
X-191516Y101061D02*
D03*
Y130588D02*
D03*
X167132Y148050D02*
D03*
Y177577D02*
D03*
X-191770Y-13493D02*
D03*
Y16034D02*
D03*
D65*
X-130422Y28056D02*
D03*
X-135422D02*
D03*
X-140422D02*
D03*
X-145422D02*
D03*
Y78116D02*
D03*
X-140422D02*
D03*
X-135422D02*
D03*
X-130422D02*
D03*
D66*
X-155452Y30586D02*
D03*
Y35586D02*
D03*
Y40586D02*
D03*
Y45586D02*
D03*
Y50586D02*
D03*
Y55586D02*
D03*
Y60586D02*
D03*
Y65586D02*
D03*
Y70586D02*
D03*
Y75586D02*
D03*
X-120392Y30586D02*
D03*
Y35586D02*
D03*
Y40586D02*
D03*
Y45586D02*
D03*
Y50586D02*
D03*
Y55586D02*
D03*
Y60586D02*
D03*
Y65586D02*
D03*
Y70586D02*
D03*
Y75586D02*
D03*
D68*
X76950Y260858D02*
D03*
Y248158D02*
D03*
Y235458D02*
D03*
Y222758D02*
D03*
X126250D02*
D03*
Y235458D02*
D03*
Y248158D02*
D03*
Y260858D02*
D03*
X77204Y118110D02*
D03*
Y105410D02*
D03*
Y92710D02*
D03*
Y80010D02*
D03*
X126504D02*
D03*
Y92710D02*
D03*
Y105410D02*
D03*
Y118110D02*
D03*
D69*
X167132Y231600D02*
D03*
Y259128D02*
D03*
D71*
X20574Y88616D02*
D03*
Y116616D02*
D03*
X-3302Y88616D02*
D03*
Y116616D02*
D03*
X23368Y224118D02*
D03*
Y252118D02*
D03*
X-163576Y101824D02*
D03*
Y129824D02*
D03*
X-115040Y129570D02*
D03*
Y101570D02*
D03*
X-139446Y129824D02*
D03*
Y101824D02*
D03*
D77*
X-24892Y251129D02*
D03*
Y225107D02*
D03*
D80*
X-187307Y45412D02*
D03*
Y70412D02*
D03*
D81*
X77470Y312184D02*
D03*
Y282684D02*
D03*
X101600Y282684D02*
D03*
Y312184D02*
D03*
X125730Y282702D02*
D03*
Y312202D02*
D03*
X101346Y59962D02*
D03*
Y30462D02*
D03*
X125984D02*
D03*
Y59962D02*
D03*
D82*
X45212Y99722D02*
D03*
Y87222D02*
D03*
Y248058D02*
D03*
Y235558D02*
D03*
D83*
X-5588Y144838D02*
D03*
X7112D02*
D03*
X19812D02*
D03*
X32512D02*
D03*
Y199078D02*
D03*
X19812D02*
D03*
X7112D02*
D03*
X-5588D02*
D03*
D84*
X110036Y-19152D02*
D03*
Y-9652D02*
D03*
Y-152D02*
D03*
X85036D02*
D03*
Y-9652D02*
D03*
Y-19152D02*
D03*
Y-149708D02*
D03*
Y-140208D02*
D03*
Y-130708D02*
D03*
X110036D02*
D03*
Y-140208D02*
D03*
Y-149708D02*
D03*
X85036Y-106189D02*
D03*
Y-96689D02*
D03*
Y-87189D02*
D03*
X110036D02*
D03*
Y-96689D02*
D03*
Y-106189D02*
D03*
Y-62671D02*
D03*
Y-53171D02*
D03*
Y-43671D02*
D03*
X85036D02*
D03*
Y-53171D02*
D03*
Y-62671D02*
D03*
D85*
X125996Y194958D02*
D03*
Y171958D02*
D03*
Y148958D02*
D03*
D86*
X63996Y171958D02*
D03*
D87*
X-1262Y224368D02*
D03*
Y251868D02*
D03*
D88*
X-29084Y-212536D02*
D03*
X-45084D02*
D03*
X-29084Y-220536D02*
D03*
X-45084D02*
D03*
X-29084Y-228536D02*
D03*
X-45084D02*
D03*
X-29084Y-236536D02*
D03*
X-45084D02*
D03*
X-29084Y-31688D02*
D03*
X-45084D02*
D03*
X-29084Y-39688D02*
D03*
X-45084D02*
D03*
X-29084Y-47688D02*
D03*
X-45084D02*
D03*
X-29084Y-55688D02*
D03*
X-45084D02*
D03*
Y-153224D02*
D03*
X-29084D02*
D03*
X-45084Y-145224D02*
D03*
X-29084D02*
D03*
X-45084Y-137224D02*
D03*
X-29084D02*
D03*
X-45084Y-129224D02*
D03*
X-29084D02*
D03*
D89*
X-130016Y-2540D02*
D03*
X-157516D02*
D03*
Y-24130D02*
D03*
X-130016D02*
D03*
M02*
