G04*
G04 #@! TF.GenerationSoftware,Altium Limited,Altium Designer,24.3.1 (35)*
G04*
G04 Layer_Color=8421504*
%FSLAX44Y44*%
%MOMM*%
G71*
G04*
G04 #@! TF.SameCoordinates,D61E4413-AD1B-46AA-9FCE-7A96C032C263*
G04*
G04*
G04 #@! TF.FilePolarity,Positive*
G04*
G01*
G75*
%ADD17R,0.8000X0.4500*%
%ADD18C,1.5240*%
%ADD19R,7.2000X0.7600*%
%ADD20R,7.2000X0.7600*%
%ADD21R,1.4000X1.6000*%
%ADD22R,1.2000X1.8000*%
D17*
X-28830Y-295125D02*
D03*
Y-287125D02*
D03*
Y-279125D02*
D03*
Y-271125D02*
D03*
X-44830D02*
D03*
Y-279125D02*
D03*
Y-287125D02*
D03*
Y-295125D02*
D03*
Y-153012D02*
D03*
Y-145012D02*
D03*
Y-137012D02*
D03*
Y-129012D02*
D03*
X-28830D02*
D03*
Y-137012D02*
D03*
Y-145012D02*
D03*
Y-153012D02*
D03*
X-44830Y-10899D02*
D03*
Y-2899D02*
D03*
Y5101D02*
D03*
Y13101D02*
D03*
X-28830D02*
D03*
Y5101D02*
D03*
Y-2899D02*
D03*
Y-10899D02*
D03*
D18*
X-162560Y367030D02*
D03*
X-116840D02*
D03*
X-139700D02*
D03*
D19*
X101152Y3556D02*
D03*
Y-9144D02*
D03*
Y-21844D02*
D03*
Y-34544D02*
D03*
Y-47244D02*
D03*
Y-59944D02*
D03*
Y-72644D02*
D03*
Y-85344D02*
D03*
Y-164084D02*
D03*
Y-176784D02*
D03*
Y-189484D02*
D03*
Y-202184D02*
D03*
Y-214884D02*
D03*
Y-227584D02*
D03*
Y-240284D02*
D03*
Y-252984D02*
D03*
D20*
X102192Y255270D02*
D03*
Y242570D02*
D03*
Y229870D02*
D03*
Y217170D02*
D03*
Y123698D02*
D03*
Y110998D02*
D03*
Y98298D02*
D03*
Y85598D02*
D03*
D21*
X21816Y131318D02*
D03*
X51816D02*
D03*
X20070Y212344D02*
D03*
X50070D02*
D03*
D22*
X19569Y159327D02*
D03*
X49569D02*
D03*
X19569Y186336D02*
D03*
X49569D02*
D03*
M02*
